<?xml version="1.0" encoding="UTF-8" standalone="no"?>
<!DOCTYPE svg PUBLIC "-//W3C//DTD SVG 1.1//EN" "http://www.w3.org/Graphics/SVG/1.1/DTD/svg11.dtd">
<svg width="100%" height="100%" viewBox="0 0 375 375" version="1.1" xmlns="http://www.w3.org/2000/svg" xmlns:xlink="http://www.w3.org/1999/xlink" xml:space="preserve" xmlns:serif="http://www.serif.com/" style="fill-rule:evenodd;clip-rule:evenodd;stroke-linejoin:round;stroke-miterlimit:2;">
    <g transform="matrix(0.75,0,0,-0.75,0,382.5)">
        <rect x="0" y="0" width="500" height="510" style="fill:white;"/>
    </g>
    <g transform="matrix(0.75,0,0,-0.75,0,375)">
        <rect x="0" y="0" width="500" height="500" style="fill:white;"/>
    </g>
    <g transform="matrix(0.75,0,0,-0.75,0,375)">
        <rect x="0" y="0" width="500" height="500" style="fill:white;"/>
    </g>
    <g transform="matrix(0.715827,0,0,-0.715827,37.5,337.311)">
        <path d="M407,208.5C407,205.251 406.92,202.005 406.761,198.76C406.601,195.515 406.363,192.277 406.044,189.044C405.726,185.811 405.328,182.587 404.852,179.374C404.375,176.161 403.82,172.961 403.186,169.775C402.552,166.588 401.841,163.42 401.051,160.268C400.262,157.117 399.396,153.987 398.453,150.879C397.51,147.77 396.491,144.686 395.397,141.627C394.302,138.569 393.133,135.539 391.89,132.537C390.647,129.536 389.331,126.567 387.942,123.63C386.553,120.694 385.093,117.793 383.561,114.928C382.03,112.063 380.429,109.237 378.759,106.451C377.089,103.664 375.352,100.92 373.547,98.219C371.742,95.518 369.872,92.863 367.937,90.254C366.002,87.644 364.003,85.084 361.943,82.573C359.882,80.062 357.76,77.603 355.579,75.196C353.397,72.789 351.158,70.436 348.861,68.139C346.564,65.842 344.211,63.603 341.804,61.421C339.397,59.24 336.938,57.118 334.427,55.057C331.916,52.997 329.356,50.999 326.746,49.063C324.137,47.128 321.482,45.258 318.781,43.453C316.08,41.649 313.336,39.911 310.549,38.241C307.763,36.571 304.937,34.97 302.072,33.439C299.207,31.907 296.306,30.447 293.37,29.058C290.433,27.669 287.464,26.353 284.463,25.11C281.461,23.867 278.431,22.698 275.373,21.603C272.314,20.509 269.23,19.49 266.121,18.547C263.013,17.604 259.883,16.738 256.732,15.949C253.58,15.159 250.412,14.448 247.225,13.814C244.039,13.18 240.839,12.625 237.626,12.148C234.413,11.672 231.189,11.274 227.956,10.956C224.723,10.637 221.485,10.399 218.24,10.239C214.995,10.08 211.749,10 208.5,10C205.251,10 202.005,10.08 198.76,10.239C195.515,10.399 192.277,10.637 189.044,10.956C185.811,11.274 182.587,11.672 179.374,12.148C176.161,12.625 172.961,13.18 169.775,13.814C166.588,14.448 163.42,15.159 160.268,15.949C157.117,16.738 153.987,17.604 150.878,18.547C147.77,19.49 144.686,20.509 141.627,21.603C138.569,22.698 135.539,23.867 132.537,25.11C129.536,26.353 126.567,27.669 123.63,29.058C120.694,30.447 117.793,31.907 114.928,33.439C112.063,34.97 109.237,36.571 106.451,38.241C103.664,39.911 100.92,41.648 98.219,43.453C95.518,45.258 92.863,47.128 90.254,49.063C87.644,50.998 85.084,52.997 82.573,55.057C80.062,57.118 77.603,59.24 75.196,61.421C72.788,63.603 70.436,65.842 68.139,68.139C65.842,70.436 63.603,72.789 61.421,75.196C59.24,77.603 57.118,80.062 55.057,82.573C52.997,85.084 50.998,87.644 49.063,90.254C47.128,92.863 45.258,95.518 43.453,98.219C41.648,100.92 39.911,103.664 38.241,106.451C36.571,109.237 34.97,112.063 33.439,114.928C31.907,117.793 30.447,120.694 29.058,123.63C27.669,126.567 26.353,129.536 25.11,132.537C23.867,135.539 22.698,138.569 21.603,141.627C20.509,144.686 19.49,147.77 18.547,150.879C17.604,153.987 16.738,157.117 15.949,160.268C15.159,163.42 14.448,166.588 13.814,169.775C13.18,172.961 12.625,176.161 12.148,179.374C11.672,182.587 11.274,185.811 10.956,189.044C10.637,192.277 10.399,195.515 10.239,198.76C10.08,202.005 10,205.251 10,208.5C10,211.749 10.08,214.995 10.239,218.24C10.399,221.485 10.637,224.723 10.956,227.956C11.274,231.189 11.672,234.413 12.148,237.626C12.625,240.839 13.18,244.039 13.814,247.225C14.448,250.412 15.159,253.58 15.949,256.732C16.738,259.883 17.604,263.013 18.547,266.122C19.49,269.23 20.509,272.314 21.603,275.373C22.698,278.431 23.867,281.461 25.11,284.463C26.353,287.464 27.669,290.433 29.058,293.37C30.447,296.306 31.907,299.207 33.439,302.072C34.97,304.937 36.571,307.763 38.241,310.549C39.911,313.336 41.648,316.08 43.453,318.781C45.258,321.482 47.128,324.137 49.063,326.746C50.998,329.356 52.997,331.916 55.057,334.427C57.118,336.938 59.24,339.397 61.421,341.804C63.603,344.212 65.842,346.564 68.139,348.861C70.436,351.158 72.788,353.397 75.196,355.579C77.603,357.76 80.062,359.882 82.573,361.943C85.084,364.003 87.644,366.002 90.254,367.937C92.863,369.872 95.518,371.742 98.219,373.547C100.92,375.352 103.664,377.089 106.451,378.759C109.237,380.429 112.063,382.03 114.928,383.561C117.793,385.093 120.694,386.553 123.63,387.942C126.567,389.331 129.536,390.647 132.537,391.89C135.539,393.133 138.569,394.302 141.627,395.397C144.686,396.491 147.77,397.51 150.878,398.453C153.987,399.396 157.117,400.262 160.268,401.051C163.42,401.841 166.588,402.552 169.775,403.186C172.961,403.82 176.161,404.375 179.374,404.852C182.587,405.328 185.811,405.726 189.044,406.044C192.277,406.363 195.515,406.601 198.76,406.761C202.005,406.92 205.251,407 208.5,407C211.749,407 214.995,406.92 218.24,406.761C221.485,406.601 224.723,406.363 227.956,406.044C231.189,405.726 234.413,405.328 237.626,404.852C240.839,404.375 244.039,403.82 247.225,403.186C250.412,402.552 253.58,401.841 256.732,401.051C259.883,400.262 263.013,399.396 266.121,398.453C269.23,397.51 272.314,396.491 275.373,395.397C278.431,394.302 281.461,393.133 284.463,391.89C287.464,390.647 290.433,389.331 293.37,387.942C296.306,386.553 299.207,385.093 302.072,383.561C304.937,382.03 307.763,380.429 310.549,378.759C313.336,377.089 316.08,375.352 318.781,373.547C321.482,371.742 324.137,369.872 326.746,367.937C329.356,366.002 331.916,364.003 334.427,361.943C336.938,359.882 339.397,357.76 341.804,355.579C344.211,353.397 346.564,351.158 348.861,348.861C351.158,346.564 353.397,344.212 355.579,341.804C357.76,339.397 359.882,336.938 361.943,334.427C364.003,331.916 366.001,329.356 367.937,326.746C369.872,324.137 371.742,321.482 373.547,318.781C375.352,316.08 377.089,313.336 378.759,310.549C380.429,307.763 382.03,304.937 383.561,302.072C385.093,299.207 386.553,296.306 387.942,293.37C389.331,290.433 390.647,287.464 391.89,284.463C393.133,281.461 394.302,278.431 395.397,275.373C396.491,272.314 397.51,269.23 398.453,266.122C399.396,263.013 400.262,259.883 401.051,256.732C401.841,253.58 402.552,250.412 403.186,247.225C403.82,244.039 404.375,240.839 404.852,237.626C405.328,234.413 405.726,231.189 406.044,227.956C406.363,224.723 406.601,221.485 406.761,218.24C406.92,214.995 407,211.749 407,208.5Z" style="fill:white;fill-rule:nonzero;"/>
    </g>
    <g transform="matrix(-0.131638,-0.703619,-0.703619,0.131638,353.743,306.758)">
        <path d="M288.2,130.8L261.7,270.9C260.9,275 258.4,278.7 254.7,281.1L222.8,301.9L195.5,319.7C189.9,323.4 181.8,321.8 177.9,316.4L159,289.9L136.9,258.9C134.3,255.3 133.3,251 134.1,246.8L160.6,106.7C162.1,98.7 170.6,93.6 179.5,95.2L274.7,113.2C283.7,115 289.7,122.8 288.2,130.8ZM188.8,307.3C191.3,307.8 193.7,306.1 194.1,303.7C194.6,301.2 192.9,298.8 190.5,298.4C188,297.9 185.6,299.6 185.2,302C184.7,304.4 186.3,306.8 188.8,307.3ZM208.5,0C93.5,0 0,93.5 0,208.5C0,323.5 93.5,417 208.5,417C323.5,417 417,323.5 417,208.5C417,93.5 323.5,0 208.5,0L208.5,0ZM208.5,397C104.6,397 20,312.4 20,208.5C20,104.6 104.6,20 208.5,20C312.4,20 397,104.6 397,208.5C397,312.4 312.4,397 208.5,397L208.5,397Z" style="fill:rgb(0,143,215);fill-rule:nonzero;"/>
    </g>
    <g transform="matrix(0.520394,-0.211157,0.232966,0.574143,14.0953,115.528)">
        <text x="146.48px" y="234.022px" style="font-family:'Gentona-BoldItalic', 'Gentona';font-style:italic;font-size:89.899px;fill:rgb(242,242,242);stroke:rgb(242,242,242);stroke-width:1.69px;">50%</text>
    </g>
</svg>
