<?xml version="1.0" encoding="UTF-8" standalone="no"?>
<!DOCTYPE svg PUBLIC "-//W3C//DTD SVG 1.1//EN" "http://www.w3.org/Graphics/SVG/1.1/DTD/svg11.dtd">
<svg width="100%" height="100%" viewBox="0 0 220 100" version="1.1" xmlns="http://www.w3.org/2000/svg" xmlns:xlink="http://www.w3.org/1999/xlink" xml:space="preserve" xmlns:serif="http://www.serif.com/" style="fill-rule:evenodd;clip-rule:evenodd;stroke-linejoin:round;stroke-miterlimit:2;">
    <g transform="matrix(0.75,0,0,-0.75,-77.5,274.135)">
        <rect x="0" y="0" width="500" height="510" style="fill:white;"/>
    </g>
    <g transform="matrix(0.75,0,0,-0.75,-77.5,266.635)">
        <rect x="0" y="0" width="500" height="500" style="fill:white;"/>
    </g>
    <g transform="matrix(0.75,0,0,-0.75,-77.5,266.635)">
        <rect x="0" y="0" width="500" height="500" style="fill:white;"/>
    </g>
    <g transform="matrix(-0.0975075,-0.521188,-0.521188,0.0975075,236.333,141.016)">
        <path d="M288.2,130.8L261.7,270.9C260.9,275 258.4,278.7 254.7,281.1L222.8,301.9L195.5,319.7C189.9,323.4 181.8,321.8 177.9,316.4L159,289.9L136.9,258.9C134.3,255.3 133.3,251 134.1,246.8L160.6,106.7C162.1,98.7 170.6,93.6 179.5,95.2L274.7,113.2C283.7,115 289.7,122.8 288.2,130.8Z" style="fill:rgb(0,143,215);fill-rule:nonzero;"/>
    </g>
    <g transform="matrix(0.972839,0,0,1.21605,2.20454,-30.2234)">
        <ellipse cx="58.624" cy="84.307" rx="4.112" ry="3.289" style="fill:rgb(242,242,242);"/>
    </g>
    <g transform="matrix(0.38892,-0.15781,0.174109,0.42909,82.7113,75.9987)">
        <path d="M22.385,-42.612L48.635,-42.612L50.343,-54.838L11.777,-54.838L5.484,-23.823L17.261,-21.845C20.407,-24.183 23.643,-25.711 26.97,-25.711C31.734,-25.711 34.252,-23.194 33.802,-19.508C32.993,-14.564 27.869,-11.417 22.115,-11.417C17.62,-11.417 11.597,-12.046 4.315,-15.463L-0.719,-5.214C6.473,-1.169 15.553,0.809 23.554,0.809C35.24,0.809 45.669,-5.484 47.287,-17.351C48.815,-28.318 43.152,-35.061 32.004,-35.061C27.779,-35.061 23.284,-33.982 19.868,-31.824L22.385,-42.612Z" style="fill:rgb(242,242,242);fill-rule:nonzero;stroke:rgb(242,242,242);stroke-width:1.69px;"/>
        <path d="M83.246,-55.737C66.615,-55.737 57.445,-45.938 54.928,-28.048C52.321,-9.709 59.333,0.809 76.504,0.809C93.135,0.809 102.305,-8.9 104.822,-26.52C107.429,-45.129 100.417,-55.737 83.246,-55.737ZM77.133,-12.316C69.762,-12.316 68.233,-16.991 69.582,-26.52C71.02,-37.038 74.616,-42.612 82.617,-42.612C89.989,-42.612 91.517,-37.847 90.169,-28.048C88.73,-17.8 85.134,-12.316 77.133,-12.316Z" style="fill:rgb(242,242,242);fill-rule:nonzero;stroke:rgb(242,242,242);stroke-width:1.69px;"/>
        <path d="M129.185,-55.737C119.386,-55.737 113.992,-50.523 112.464,-39.466C110.845,-27.869 115.251,-22.025 125.589,-22.025C135.388,-22.025 140.872,-27.149 142.4,-38.027C144.018,-49.714 139.523,-55.737 129.185,-55.737ZM162.088,-54.838L123.521,0L131.702,0L170.359,-54.838L162.088,-54.838ZM126.038,-30.386C121.993,-30.386 121.004,-32.813 121.633,-38.027C122.263,-44.14 124.151,-47.377 128.825,-47.377C132.871,-47.377 133.77,-44.95 133.23,-39.466C132.511,-33.532 130.713,-30.386 126.038,-30.386ZM169.1,-32.993C159.301,-32.993 153.817,-27.689 152.289,-16.721C150.671,-5.124 155.166,0.809 165.504,0.809C175.303,0.809 180.697,-4.315 182.225,-15.193C183.843,-26.97 179.438,-32.993 169.1,-32.993ZM165.864,-7.552C161.818,-7.552 160.919,-9.979 161.459,-15.193C162.178,-21.396 164.066,-24.632 168.74,-24.632C172.786,-24.632 173.685,-22.115 173.056,-16.721C172.426,-10.788 170.538,-7.552 165.864,-7.552Z" style="fill:rgb(242,242,242);fill-rule:nonzero;stroke:rgb(242,242,242);stroke-width:1.69px;"/>
    </g>
</svg>
