<?xml version="1.0" encoding="UTF-8" standalone="no"?>
<!DOCTYPE svg PUBLIC "-//W3C//DTD SVG 1.1//EN" "http://www.w3.org/Graphics/SVG/1.1/DTD/svg11.dtd">
<svg width="100%" height="100%" viewBox="0 0 220 180" version="1.1" xmlns="http://www.w3.org/2000/svg" xmlns:xlink="http://www.w3.org/1999/xlink" xml:space="preserve" xmlns:serif="http://www.serif.com/" style="fill-rule:evenodd;clip-rule:evenodd;stroke-linejoin:round;stroke-miterlimit:2;">
    <g transform="matrix(0.75,0,0,-0.75,-77.5,285)">
        <rect x="0" y="0" width="500" height="510" style="fill:white;"/>
    </g>
    <g transform="matrix(0.75,0,0,-0.75,-77.5,277.5)">
        <rect x="0" y="0" width="500" height="500" style="fill:white;"/>
    </g>
    <g transform="matrix(0.75,0,0,-0.75,-77.5,277.5)">
        <rect x="0" y="0" width="500" height="500" style="fill:white;"/>
    </g>
    <g transform="matrix(-0.0975075,-0.521188,-0.521188,0.0975075,236.333,151.881)">
        <path d="M288.2,130.8L261.7,270.9C260.9,275 258.4,278.7 254.7,281.1L222.8,301.9L195.5,319.7C189.9,323.4 181.8,321.8 177.9,316.4L159,289.9L136.9,258.9C134.3,255.3 133.3,251 134.1,246.8L160.6,106.7C162.1,98.7 170.6,93.6 179.5,95.2L274.7,113.2C283.7,115 289.7,122.8 288.2,130.8Z" style="fill:rgb(0,143,215);fill-rule:nonzero;"/>
    </g>
    <g transform="matrix(0.972839,0,0,1.21605,2.20454,-19.3583)">
        <ellipse cx="58.624" cy="84.307" rx="4.112" ry="3.289" style="fill:rgb(242,242,242);"/>
    </g>
    <g transform="matrix(0.38892,-0.15781,0.174109,0.42909,82.7113,86.8638)">
        <text x="0px" y="0px" style="font-family:'Gentona-BoldItalic', 'Gentona';font-style:italic;font-size:89.899px;fill:rgb(242,242,242);stroke:rgb(242,242,242);stroke-width:1.69px;">50%</text>
    </g>
</svg>
