<?xml version="1.0" encoding="UTF-8" standalone="no"?><!DOCTYPE svg PUBLIC "-//W3C//DTD SVG 1.1//EN" "http://www.w3.org/Graphics/SVG/1.1/DTD/svg11.dtd"><svg width="100%" height="100%" viewBox="0 0 323 305" version="1.1" xmlns="http://www.w3.org/2000/svg" xmlns:xlink="http://www.w3.org/1999/xlink" xml:space="preserve" xmlns:serif="http://www.serif.com/" style="fill-rule:evenodd;clip-rule:evenodd;stroke-linejoin:round;stroke-miterlimit:1.41421;"><rect id="Logo" x="0.078" y="0.472" width="322.68" height="303.655" style="fill:none;"/><g><path d="M157.327,22.782c-10.136,-0.26 -20.226,0.363 -30.124,1.86l-1.655,21.454c-9.413,1.886 -18.506,4.708 -27.111,8.412l-18.027,-15.346c-8.667,4.264 -16.796,9.294 -24.27,15.018l10.734,19.86c-6.847,5.857 -12.895,12.405 -18.035,19.524l-23.825,-5.687c-4.876,7.645 -8.866,15.735 -11.913,24.153l20.245,12.944c-2.444,8.258 -3.828,16.778 -4.125,25.404l-23.241,5.498c0.223,8.977 1.441,17.959 3.636,26.815l24.334,2.56c2.611,8.446 6.264,16.656 10.889,24.477l-16.429,15.209c5.261,7.904 11.361,15.371 18.211,22.292l21.901,-8.509c6.968,6.371 14.678,12.07 22.986,16.991l-5.214,20.844c8.889,4.714 18.236,8.665 27.905,11.797l13.6,-17.299c9.459,2.589 19.16,4.25 28.924,4.952l7.397,20.895c10.136,0.26 20.226,-0.363 30.124,-1.86l1.655,-21.453c9.413,-1.887 18.506,-4.709 27.111,-8.413l18.027,15.347c8.667,-4.264 16.796,-9.295 24.27,-15.019l-10.734,-19.859c6.847,-5.857 12.895,-12.406 18.035,-19.524l23.826,5.686c4.875,-7.645 8.865,-15.735 11.912,-24.153l-20.245,-12.944c2.444,-8.258 3.828,-16.778 4.125,-25.404l23.241,-5.497c-0.223,-8.978 -1.441,-17.96 -3.636,-26.816l-24.334,-2.56c-2.611,-8.446 -6.264,-16.655 -10.889,-24.477l16.429,-15.208c-5.261,-7.905 -11.361,-15.372 -18.211,-22.293l-21.901,8.51c-6.968,-6.371 -14.678,-12.07 -22.986,-16.992l5.214,-20.844c-8.889,-4.714 -18.236,-8.665 -27.905,-11.797l-13.6,17.3c-9.458,-2.589 -19.159,-4.251 -28.924,-4.953l-7.397,-20.895Zm-8.405,50.021c53.964,-3.332 103.065,32.963 109.579,81.001c6.513,48.038 -32.011,89.743 -85.975,93.075c-53.965,3.332 -103.066,-32.963 -109.579,-81.001c-6.514,-48.037 32.01,-89.743 85.975,-93.075Z" style="fill:#ffc800;"/><path d="M236.466,42.256c0.214,0.387 0.29,0.807 0.218,1.254l-4.896,19.688c0.442,0.266 0.882,0.534 1.321,0.804c7.067,4.369 13.725,9.306 19.936,14.837l0.233,0.209c0,0 20.935,-8.172 20.935,-8.172c1.293,-0.384 1.819,0.387 1.819,0.387c6.715,6.787 12.852,14.212 18.202,22.144l0.383,0.61c0,0 0.49,1.046 -0.396,2.008l-15.362,14.259c0.193,0.335 0.385,0.671 0.575,1.007c3.812,6.776 6.999,13.964 9.419,21.398c0,0 23.172,2.458 23.172,2.458c1.604,0.292 1.609,1.4 1.609,1.4c2.174,8.784 3.437,17.773 3.721,26.785l-0.007,0.747c0,0 -0.426,1.245 -1.443,1.58l-21.8,5.188c-0.016,0.331 -0.034,0.662 -0.052,0.993c-0.433,7.396 -1.637,14.707 -3.602,21.848c0,0 18.981,12.267 18.981,12.267c1.157,0.883 1.149,1.134 0.811,2.388c0,0 -0.881,2.401 -1.515,3.986c-2.818,7.042 -6.301,13.814 -10.326,20.219l-0.42,0.617c0,0 -1.016,0.806 -2.028,0.648l-22.471,-5.331c-4.757,6.429 -10.225,12.34 -16.213,17.65c0,0 9.946,18.339 9.946,18.339c0,0 0.773,1.536 -0.591,2.759l0,0c-7.57,5.793 -15.709,10.835 -24.199,15.075l-0.75,0.337c0,0 -1.238,0.168 -2.077,-0.432l-16.983,-14.422c-7.904,3.307 -16.126,5.861 -24.477,7.673c0,0 -1.58,19.758 -1.58,19.758c-0.266,1.648 -0.522,1.776 -1.971,2.12l0,0c-9.951,1.503 -20.026,2.143 -30.047,1.94l-0.883,-0.055c-1.451,-0.42 -1.443,-0.808 -1.773,-1.532l-6.897,-19.413c-0.409,-0.033 -0.817,-0.068 -1.226,-0.104c-8.36,-0.758 -16.653,-2.192 -24.801,-4.291l-0.237,-0.062c0,0 -12.586,16.054 -12.586,16.054c-1.401,1.495 -2.702,0.823 -2.702,0.823c-9.593,-3.11 -18.951,-7.024 -27.894,-11.704l-0.771,-0.446c0,0 -1.132,-1.258 -0.914,-2.603l4.737,-19.023c-7.249,-4.421 -14.11,-9.467 -20.468,-15.094c0,0 -8.586,3.159 -8.586,3.159l-11.976,4.667c0,0 -1.765,0.288 -2.797,-0.596l0,0c-6.757,-6.835 -12.92,-14.301 -18.3,-22.285l-0.451,-0.734c-0.612,-1.654 -0.473,-1.874 0.602,-3.04l14.851,-13.774c-0.22,-0.385 -0.435,-0.771 -0.651,-1.158c-3.526,-6.382 -6.476,-13.052 -8.791,-19.999l-0.107,-0.325c0,0 -22.588,-2.352 -22.588,-2.352c-1.743,-0.318 -1.857,-0.537 -2.355,-2.051l-0.001,0c-2.186,-8.851 -3.45,-17.893 -3.732,-26.967l0.016,-0.893c0,0 0.147,-1.643 2.087,-2.282l21.201,-5.029c0.411,-7.426 1.598,-14.779 3.55,-21.964c0,0 -5.806,-3.705 -5.806,-3.705l-12.699,-8.113c0,0 -1.601,-1.549 -1.123,-3.316c0,0 0.889,-2.415 1.529,-4.008c1.122,-2.794 2.346,-5.548 3.668,-8.254c2.026,-4.147 4.288,-8.176 6.745,-12.076l0.491,-0.711c0,0 1.387,-1.096 2.763,-0.878c6.854,1.633 13.705,3.28 20.557,4.921l1.473,0.353c0.215,-0.287 0.433,-0.573 0.651,-0.858c4.416,-5.738 9.394,-11.062 14.81,-15.883l0.3,-0.264c0,0 -9.625,-17.986 -9.625,-17.986c0,0 -0.919,-1.862 0.721,-3.327c0,0 0.931,-0.708 1.891,-1.411c6.95,-5.059 14.33,-9.495 22.073,-13.294c0.054,-0.027 1.99,-0.644 1.99,-0.644c0.53,0.068 1.021,0.261 1.461,0.579l16.898,14.568c7.962,-3.252 16.165,-5.698 24.501,-7.404l0.313,-0.063l1.54,-19.943c0,0 0.235,-1.25 1.722,-1.593c0,0 5.185,-0.712 9.435,-1.06c6.642,-0.544 13.314,-0.7 19.976,-0.491c1.528,0.05 1.827,-0.057 2.294,0.97l1.646,4.624l5.468,15.373c9.175,0.715 18.361,2.263 27.324,4.627c0,0 12.967,-16.549 12.967,-16.549l1.667,-0.509c9.546,3.092 18.854,6.981 27.751,11.633l0.639,0.362c0,0 0.181,0.158 0.357,0.38Zm36.62,181.858l22.392,5.344c0.257,-0.412 0.511,-0.827 0.764,-1.242c3.787,-6.263 7.018,-12.856 9.632,-19.703c0,0 -18.841,-12.134 -18.841,-12.134c0,0 -1.354,-0.391 -0.499,-3.373c2.189,-7.739 3.452,-15.74 3.755,-23.772c0,0 0.059,-1.351 1.492,-1.813c0,0 21.74,-5.107 21.74,-5.107c-0.28,-7.949 -1.377,-15.861 -3.19,-23.617l-23.024,-2.455c-1.158,-0.222 -1.612,-1.493 -1.913,-2.441c-2.583,-8.023 -6.058,-15.694 -10.316,-22.946c0,0 -0.647,-1.136 0.326,-2.201c0,0 15.359,-14.175 15.359,-14.175c-0.217,-0.319 -0.436,-0.638 -0.655,-0.957c-4.648,-6.713 -9.854,-13.027 -15.54,-18.91l-0.174,-0.178l-20.868,8.075c0,0 -1.433,-0.072 -2.69,-1.206c-6.719,-6.022 -14.011,-11.35 -21.72,-15.947c0,0 -0.94,-0.563 -0.736,-1.775c0,0 4.946,-19.638 4.946,-19.638c-8.239,-4.314 -16.771,-7.909 -25.545,-10.833l-12.962,16.44c-1.104,1.182 -4.12,-0.194 -6.854,-0.84c-7.657,-1.811 -15.466,-3.01 -23.346,-3.599c0,0 -0.825,-0.013 -1.247,-0.955l-5.599,-15.894l-1.441,-4.089c-8.982,-0.044 -18.065,0.59 -27.029,1.927l-0.413,0.063l-1.377,20.084c0,0 -0.565,1.574 -2.874,2.082c-8.667,1.935 -17.137,4.68 -25.318,8.242l-2.45,-0.224l-16.802,-14.303c-7.225,3.716 -14.076,7.997 -20.525,12.835c0,0 9.705,17.877 9.705,17.877c0,0 0.563,2.254 -2.468,4.976c-5.809,5.256 -11.107,11.129 -15.684,17.468c0,0 -1.433,1.301 -2.906,1.079c-6.596,-1.559 -21.313,-5.039 -21.306,-5.067l-0.562,-0.134c-3.835,6.215 -7.088,12.802 -9.728,19.601l-0.081,0.212l12.606,8.065l5.729,3.668c2.308,1.754 1.15,3.126 0.527,5.406c-1.971,7.324 -3.109,14.867 -3.389,22.449c0,0 -0.083,1.928 -2.129,2.591c0,0 -21.056,4.963 -21.056,4.963c0.015,0.355 0.032,0.71 0.05,1.065c0.374,7.047 1.362,14.051 2.919,20.905c0,0 22.46,2.57 22.46,2.57c0,0 1.944,0.91 3.031,4.195c2.524,7.539 5.858,14.782 9.87,21.609c0,0 0.965,1.712 -0.487,3.302c0,0 -14.784,13.656 -14.784,13.656c4.61,6.695 9.758,12.955 15.359,18.778c0,0 12.108,-4.599 12.108,-4.599l8.26,-3.198c2.156,-0.644 4.589,2.272 6.922,4.234c5.723,4.815 11.871,9.151 18.294,12.979c0,0 1.483,0.886 1.163,2.797c0,0 -4.761,18.924 -4.761,18.924c7.768,4.01 15.743,7.375 23.971,10.163c0,0 12.704,-15.869 12.704,-15.869c0,0 0.422,-1.41 3.872,-0.489c8.88,2.342 17.985,3.875 27.146,4.558c0,0 1.376,0.019 2.083,1.593c0,0 6.826,19.362 6.826,19.362c0.693,0.013 1.387,0.02 2.08,0.025c8.096,0.054 16.186,-0.493 24.176,-1.587c0,0 1.546,-19.596 1.546,-19.596c0,0 -0.309,-1.622 3.139,-2.337c8.693,-1.829 17.186,-4.47 25.375,-7.968c0,0 1.086,-0.554 2.344,0.357c0,0 16.893,14.425 16.893,14.425c7.435,-3.742 14.503,-8.072 21.149,-13l-9.822,-18.226c-0.784,-1.806 -0.051,-2.164 1.435,-3.456c6.264,-5.481 11.912,-11.615 16.784,-18.319c0,0 0.669,-1.039 2.188,-0.807c-0.003,0.011 -0.006,0.023 -0.009,0.035Zm-124.39,-149.893c-27.397,1.91 -54.566,14.89 -70.485,37.202c-19.171,26.869 -18.023,65.513 3.274,93.296c2.752,3.592 5.771,6.978 9.009,10.138c32.762,31.974 86.964,39.537 126.17,16.333c19.663,-11.637 34.729,-31.402 38.712,-53.816c6.681,-37.596 -20.465,-76.163 -53.765,-92.206c-16.374,-7.889 -34.762,-11.467 -52.29,-10.977c0,0 -0.289,0.008 -0.625,0.03Zm0.62,-2.858c32.082,-2.697 65.914,8.882 88.896,33.946c21.2,23.121 29.967,58.083 18.221,87.78c-12.675,32.047 -46.324,53.425 -82.151,56.048c-47.571,3.483 -98.495,-24.463 -111.201,-72.815c-8.405,-31.98 5.026,-67.8 33.651,-87.54c15.25,-10.516 33.56,-16.272 52.105,-17.377c0.16,-0.014 0.319,-0.028 0.479,-0.042Z" style="fill-rule:nonzero;"/><path d="M159.854,46.136c55.82,0.14 102.092,44.874 103.266,99.834c1.174,54.959 -39.175,99.395 -99.011,99.324c-48.01,-0.057 -103.498,-36.807 -101.664,-101.224c1.564,-54.949 41.589,-98.075 97.409,-97.934Z" style="fill:none;"/><clipPath id="_clip1"><path d="M159.854,46.136c55.82,0.14 102.092,44.874 103.266,99.834c1.174,54.959 -39.175,99.395 -99.011,99.324c-48.01,-0.057 -103.498,-36.807 -101.664,-101.224c1.564,-54.949 41.589,-98.075 97.409,-97.934Z"/></clipPath><g clip-path="url(#_clip1)"><path d="M190.965,259.21c20.109,-20.004 36.483,-47.855 46.142,-78.483c9.137,-28.975 11.703,-58.661 7.278,-84.191l-139.483,-18.016c-13.383,17.681 -24.174,38.862 -31.28,61.395c-11.723,37.174 -12.508,75.091 -2.151,103.861l119.494,15.434Z" style="fill:#c2c2c2;"/><path d="M105.278,75.611l7.564,0.949l85.821,10.8l46.153,5.835c0,0 2.388,0.78 2.896,2.772c0,0 0.913,5.385 1.392,9.985c2.948,28.33 -1.561,56.992 -11.631,84.447c-9.715,26.488 -25.594,51.703 -45.268,70.052l-1.24,-1.241c0,0 0.826,0.827 1.24,1.241c0,0 -0.731,0.537 -1.465,0.498l-2.475,-0.309c-39.048,-4.879 -78.079,-9.76 -117.081,-14.642l-1.831,-1.464c-12.511,-34.598 -8.704,-73.757 2.748,-108.625c6.793,-20.682 16.718,-40.522 29.52,-57.882c0.481,-0.651 1.235,-1.6 1.235,-1.6c0.673,-0.568 1.487,-0.864 2.422,-0.816Zm0.724,6.311c-22.157,29.852 -35.733,66.132 -38.758,103.196c-1.554,19.039 -0.253,38.42 5.882,56.568c0,0 53.095,7.115 53.095,7.115l62.539,8.345l1.541,0.206c14.724,-15.839 25.975,-34.352 34.148,-52.884c14.376,-32.601 22.337,-69.221 17,-104.92l-44.663,-5.889c0,0 -82.979,-11.038 -82.979,-11.038l-7.594,-0.981c-0.07,0.094 -0.141,0.188 -0.211,0.282Z" style="fill-rule:nonzero;"/><path d="M134.248,81.588c0,0 -1.351,14.719 -15.964,31.798c-36.426,42.571 -42.358,21.163 -42.358,21.163c-7.854,19.026 -10.343,39.102 -15.95,67.746c41.674,47.767 91.145,67.648 141.207,54.203c16.489,-27.974 30.631,-59.092 39.119,-94.369c-22.264,-10.463 -37.357,-27.116 -35.794,-69.852c-4.326,-0.968 -3.961,-1.017 -10.327,-2.923l-2.747,34.396c-17.606,-3.442 -34.807,-5.308 -51.731,-6.457c0,0 3.965,-32.182 7.297,-34.341c3.333,-2.16 -12.752,-1.364 -12.752,-1.364Z" style="fill:#008fd7;"/><clipPath id="_clip2"><path d="M134.248,81.588c0,0 -1.351,14.719 -15.964,31.798c-36.426,42.571 -42.358,21.163 -42.358,21.163c-7.854,19.026 -10.343,39.102 -15.95,67.746c41.674,47.767 91.145,67.648 141.207,54.203c16.489,-27.974 30.631,-59.092 39.119,-94.369c-22.264,-10.463 -37.357,-27.116 -35.794,-69.852c-4.326,-0.968 -3.961,-1.017 -10.327,-2.923l-2.747,34.396c-17.606,-3.442 -34.807,-5.308 -51.731,-6.457c0,0 3.965,-32.182 7.297,-34.341c3.333,-2.16 -12.752,-1.364 -12.752,-1.364Z"/></clipPath><g clip-path="url(#_clip2)"><path d="M128.01,116.552c26.874,1.463 52.327,4.786 76.494,9.821c-2.611,25.57 -7.924,48.726 -16.004,69.408c-27.9,-0.568 -54.818,-3.765 -80.915,-9.165c4.761,-25.325 11.387,-48.753 20.425,-70.064Z" style="fill:#008fd7;"/><clipPath id="_clip3"><path d="M128.01,116.552c26.874,1.463 52.327,4.786 76.494,9.821c-2.611,25.57 -7.924,48.726 -16.004,69.408c-27.9,-0.568 -54.818,-3.765 -80.915,-9.165c4.761,-25.325 11.387,-48.753 20.425,-70.064Z"/></clipPath><g clip-path="url(#_clip3)"><g transform="matrix(0.994918,0.100687,-0.228578,0.981975,-7.42402,4.76225)"><text x="174.328px" y="149.014px" style="font-family:'TamilMN', 'Tamil MN', serif;font-weight:250;font-size:38.484px;fill:#fff;stroke:#fff;stroke-width:2.67px;">B<tspan x="199.921px " y="149.014px ">F</tspan></text></g></g><path d="M129.34,115.374c25.298,1.464 50.523,4.621 75.417,9.774c0,0 1.013,0.26 0.99,1.353c-2.416,23.433 -7.299,46.854 -15.704,68.757c0,0 -0.057,1.673 -1.57,1.772c-26.844,-0.572 -53.897,-3.621 -80.527,-9.063c0,0 -1.736,-0.113 -1.589,-1.583c4.476,-23.76 10.841,-47.345 20.29,-69.818c0,0 0.435,-1.23 1.433,-1.262c0.42,0.024 0.84,0.047 1.26,0.07Zm-0.599,2.662c-9.087,21.746 -15.281,44.525 -19.698,67.603c25.887,5.29 52.029,8.233 78.179,8.863l0.429,0.01c8.298,-21.481 13.052,-44.228 15.485,-67.074l0.008,-0.071c-24.432,-5.057 -49.052,-8.057 -73.946,-9.497c0,0 -0.333,-0.129 -0.457,0.166Z" style="fill-rule:nonzero;"/><path d="M136.946,125.206c1.491,0.004 2.702,1.256 2.702,2.794c0,1.539 -1.211,2.784 -2.703,2.781c-1.492,-0.004 -2.702,-1.256 -2.702,-2.794c0,-1.539 1.211,-2.785 2.703,-2.781Z" style="fill:#ffc800;"/><path d="M137.051,123.958c3.529,0.142 5.453,6.132 1.353,7.791c-3.56,1.44 -7.908,-5.052 -3.185,-7.391c0.571,-0.283 0.96,-0.414 1.832,-0.4Zm-0.145,2.499c-1.588,0.057 -1.79,3.925 0.561,2.974c0.151,-0.061 0.292,-0.15 0.414,-0.259c0.902,-0.805 0.463,-2.732 -0.975,-2.715Z" style="fill-rule:nonzero;"/><path d="M194.176,130.925c1.491,0.004 2.702,1.256 2.702,2.794c0,1.538 -1.211,2.784 -2.703,2.781c-1.492,-0.004 -2.702,-1.256 -2.702,-2.795c0,-1.538 1.211,-2.784 2.703,-2.78Z" style="fill:#ffc800;"/><path d="M194.283,129.676c3.522,0.156 5.45,6.129 1.353,7.791c-3.543,1.437 -7.911,-5.046 -3.187,-7.389c0.571,-0.284 0.962,-0.416 1.834,-0.402Zm-0.147,2.499c-1.565,0.057 -1.836,3.949 0.56,2.975c1.243,-0.506 1.145,-2.995 -0.56,-2.975Z" style="fill-rule:nonzero;"/></g><path d="M195.118,88.331c3.207,0.967 6.396,1.992 9.664,2.727c0,0 0.905,0.394 0.975,1.263c-0.628,17.968 0.884,36.25 11.74,50.794c5.893,7.895 14.299,13.623 23.338,17.883c0,0 0.787,0.577 0.682,1.425c-8.043,33.21 -21.86,65.134 -39.256,94.708c0,0 -5.532,1.879 -10.818,2.836c-23.519,4.257 -48.202,0.881 -70.08,-8.783c-23.496,-10.378 -43.803,-27.2 -60.854,-46.391c-2.861,-3.22 -1.382,-4.679 -0.992,-6.705c4.05,-21.23 6.804,-43.078 14.886,-63.114c0.063,-0.158 1.605,-3.331 2.915,-0.267c2.095,4.736 9.227,4.071 13.736,1.713c12.09,-6.325 21.823,-17.602 29.711,-28.127c5.956,-7.947 11.102,-16.985 12.236,-26.796c0,0 -0.148,-1.108 2.243,-1.202c0.974,-0.036 1.949,-0.065 2.923,-0.082c0.783,-0.013 1.566,-0.02 2.349,-0.018c0.688,0.002 1.377,0.012 2.066,0.032c0.44,0.014 0.879,0.032 1.318,0.057c0.358,0.02 0.716,0.045 1.073,0.078c0.235,0.022 0.47,0.047 0.704,0.077c0.175,0.022 0.349,0.047 0.522,0.075c0.123,0.021 0.246,0.043 0.368,0.068c1.256,0.259 3.673,1.635 1.224,3.345c-1.687,1.177 -3.419,10.742 -4.839,19.529c-0.678,4.194 -1.28,8.399 -1.832,12.611c0,0 6.599,0.538 12.246,1.064c12.282,1.146 24.548,2.784 36.652,5.073l0.281,0.054l2.635,-33.003c0,0 0.447,-1.445 2.184,-0.924Zm-55.281,-5.636c-1.889,0.01 -4.495,0.098 -4.495,0.098c-0.39,2.394 -1.717,7.341 -3.736,11.968c-5.416,12.416 -14.528,22.828 -24.39,32.328c-5.725,5.514 -11.844,11.14 -19.518,13.426c-3.996,1.19 -8.954,0.685 -11.62,-2.977c-7.966,20.542 -10.53,42.717 -14.758,64.395c24.368,27.868 55.492,50.637 92.361,56.169c15.511,2.328 31.514,1.277 46.597,-2.657l0.088,-0.024c17.035,-28.96 30.54,-60.19 38.481,-92.6c-0.39,-0.189 -0.78,-0.38 -1.169,-0.573c-11.38,-5.691 -21.41,-14.108 -27.174,-25.812c-6.494,-13.184 -7.672,-28.33 -7.294,-42.702l0.014,-0.466c-0.342,-0.079 -0.684,-0.16 -1.025,-0.242c-2.123,-0.521 -4.199,-1.202 -6.289,-1.843l-0.607,-0.184l-2.623,32.851c-0.375,2.006 -1.891,1.047 -3.129,0.81c-16.498,-3.12 -33.181,-4.972 -49.933,-6.12c0,0 -1.164,-0.386 -1.155,-1.403c1.363,-10.884 2.153,-22.115 6.018,-32.325c0.302,-0.797 0.897,-1.891 0.897,-1.891c-1.833,-0.242 -3.705,-0.23 -5.541,-0.226Z" style="fill-rule:nonzero;"/></g><path d="M244.844,95.95c0.742,-2.147 1.357,-4.338 1.841,-6.565c7.519,-34.539 -17.12,-70.454 -54.987,-80.152c-37.868,-9.698 -74.716,10.47 -82.235,45.009c-1.715,7.878 -1.784,16.102 -0.203,24.241l135.584,17.467Z" style="fill:#c2c2c2;"/><clipPath id="_clip4"><path d="M244.844,95.95c0.742,-2.147 1.357,-4.338 1.841,-6.565c7.519,-34.539 -17.12,-70.454 -54.987,-80.152c-37.868,-9.698 -74.716,10.47 -82.235,45.009c-1.715,7.878 -1.784,16.102 -0.203,24.241l135.584,17.467Z"/></clipPath><g clip-path="url(#_clip4)"><path d="M154.779,57.594c-1.177,0.651 -1.887,1.421 -2.106,2.283c-1.164,4.573 11.514,10.661 28.294,13.587c16.78,2.926 31.347,1.589 32.511,-2.985c0.267,-1.048 -0.199,-2.214 -1.372,-3.436l-57.327,-9.449Z" style="fill:#191919;"/><clipPath id="_clip5"><path d="M154.779,57.594c-1.177,0.651 -1.887,1.421 -2.106,2.283c-1.164,4.573 11.514,10.661 28.294,13.587c16.78,2.926 31.347,1.589 32.511,-2.985c0.267,-1.048 -0.199,-2.214 -1.372,-3.436l-57.327,-9.449Z"/></clipPath><g clip-path="url(#_clip5)"><path d="M163.794,62c-0.37,2.888 7.568,6.614 17.947,8.424c10.622,1.852 19.844,1.005 20.581,-1.89c0.015,-0.058 0.026,-0.118 0.034,-0.178l-38.562,-6.356Z" style="fill:#fff;"/></g><path d="M173.766,47.164c0.814,-7.673 -3.41,-14.782 -9.748,-16.405c-6.773,-1.735 -13.493,3.412 -14.997,11.487c-0.084,0.452 -0.151,0.909 -0.199,1.368l24.944,3.55Z" style="fill:#191919;"/><clipPath id="_clip6"><path d="M173.766,47.164c0.814,-7.673 -3.41,-14.782 -9.748,-16.405c-6.773,-1.735 -13.493,3.412 -14.997,11.487c-0.084,0.452 -0.151,0.909 -0.199,1.368l24.944,3.55Z"/></clipPath><g clip-path="url(#_clip6)"><path d="M160.455,42.535c0.953,-3.672 1.134,-6.601 0.419,-6.785c-0.771,-0.197 -2.299,2.855 -3.412,6.811c-0.069,0.247 -0.136,0.494 -0.2,0.74l3.193,-0.766Z" style="fill:#fff;"/></g><path d="M214.329,54.157c0.77,-7.254 -3.224,-13.975 -9.215,-15.509c-6.404,-1.64 -12.757,3.226 -14.179,10.86c-0.079,0.428 -0.142,0.859 -0.189,1.294l23.583,3.355Z" style="fill:#191919;"/><clipPath id="_clip7"><path d="M214.329,54.157c0.77,-7.254 -3.224,-13.975 -9.215,-15.509c-6.404,-1.64 -12.757,3.226 -14.179,10.86c-0.079,0.428 -0.142,0.859 -0.189,1.294l23.583,3.355Z"/></clipPath><g clip-path="url(#_clip7)"><path d="M201.362,49.697c0.94,-3.675 1.01,-6.633 0.163,-6.85c-0.912,-0.233 -2.555,2.789 -3.667,6.745c-0.07,0.246 -0.136,0.494 -0.199,0.741l3.703,-0.636Z" style="fill:#fff;"/></g></g><path d="M173.295,3.53c25.762,0.184 51.625,12.689 66.734,35.872c3.184,4.887 5.692,10.24 7.558,15.819c0.673,2.055 0.961,3.217 1.359,4.891c2.832,11.926 2.15,24.694 -2.28,36.003c-0.087,0.22 -0.163,0.405 -0.163,0.405l-1.659,-0.57c0,0 1.106,0.38 1.659,0.57c0,0 -0.723,1.219 -1.883,1.17l-1.536,-0.187c-44.663,-5.452 -89.416,-10.932 -134.16,-16.409c0,0 -1.719,-0.145 -2.265,-2.114c0,0 -0.693,-3.565 -0.987,-6.762c-2.012,-21.814 8.44,-44.181 27.09,-56.744c11.596,-7.811 25.597,-11.799 39.635,-11.943c0.299,-0.001 0.599,-0.002 0.898,-0.001Zm-1.289,6.54c-23.265,0.163 -46.83,12.842 -56.435,34.518c-4.343,9.801 -5.659,20.861 -4.03,31.53c0,0 93.286,12.63 93.286,12.63l38.733,5.258c0.089,-0.341 0.173,-0.683 0.256,-1.026c5.269,-22.195 -2.094,-46.278 -22.012,-64.006c-13.333,-11.867 -31.045,-18.716 -48.977,-18.903c-0.274,-0.001 -0.547,-0.001 -0.821,-0.001Z" style="fill-rule:nonzero;"/></g></svg>