<?xml version="1.0" encoding="UTF-8" standalone="no"?><!DOCTYPE svg PUBLIC "-//W3C//DTD SVG 1.1//EN" "http://www.w3.org/Graphics/SVG/1.1/DTD/svg11.dtd"><svg width="100%" height="100%" viewBox="0 0 2591 383" version="1.1" xmlns="http://www.w3.org/2000/svg" xmlns:xlink="http://www.w3.org/1999/xlink" xml:space="preserve" xmlns:serif="http://www.serif.com/" style="fill-rule:evenodd;clip-rule:evenodd;stroke-linejoin:round;stroke-miterlimit:2;"><g id="DE_monitor"><g><g><path d="M726.647,0.177c25.308,0.001 45.855,20.548 45.855,45.856l0,290.418c0,25.308 -20.547,45.855 -45.855,45.855l-355.717,0l0,-217.225l10.404,-0l-0,87.488c-0,8.616 6.99,15.606 15.606,15.606c8.615,0 15.605,-6.99 15.605,-15.606l0,-97.892c0,-17.231 -13.98,-31.211 -31.211,-31.211l-104.037,-0c-17.232,-0 -31.212,13.98 -31.212,31.211l0,97.892c0,8.616 6.99,15.606 15.606,15.606c8.616,0 15.606,-6.99 15.606,-15.606l-0,-87.488l10.403,-0l0,217.225l-241.108,0c-25.308,0 -45.856,-20.547 -45.856,-45.855l0,-290.418c0,-25.308 20.547,-45.855 45.856,-45.856l680.055,0Zm-392.13,382.129l-10.404,0l0,-127.73l10.404,-0l0,127.73Zm-171.864,-258.032l-31.837,0c-8.679,0 -16.13,3.112 -22.353,9.336c-6.224,6.224 -9.336,13.675 -9.336,22.353l0,79.445c0,8.679 3.112,16.13 9.336,22.353c6.223,6.224 13.674,9.336 22.353,9.336l31.837,0c8.679,-0 16.13,-3.137 22.354,-9.41c6.223,-6.273 9.335,-13.699 9.335,-22.279l0,-79.445c0,-8.629 -3.112,-16.067 -9.335,-22.316c-6.224,-6.248 -13.675,-9.373 -22.354,-9.373Zm369.496,0l-31.837,0c-8.679,0 -16.13,3.112 -22.354,9.336c-6.223,6.224 -9.335,13.675 -9.335,22.353l-0,79.445c-0,8.679 3.112,16.13 9.335,22.353c6.224,6.224 13.675,9.336 22.354,9.336l31.837,0c8.679,-0 16.13,-3.137 22.353,-9.41c6.224,-6.273 9.336,-13.699 9.336,-22.279l-0,-79.445c-0,-8.629 -3.112,-16.067 -9.336,-22.316c-6.223,-6.248 -13.674,-9.373 -22.353,-9.373Zm138.512,142.823l0,-142.823l-15.844,0l-31.763,15.919l-0,15.77l15.919,0l-0,111.134l31.688,0Zm-539.473,-29.234c0.793,4.414 2.492,7.736 5.095,9.968c2.604,2.231 6.088,3.347 10.452,3.347c4.413,0 8.17,-1.562 11.269,-4.686c3.1,-3.124 4.649,-6.819 4.649,-11.084l0,-53.93l-31.465,56.385Zm369.495,0c0.794,4.414 2.492,7.736 5.096,9.968c2.603,2.231 6.087,3.347 10.451,3.347c4.414,0 8.17,-1.562 11.27,-4.686c3.099,-3.124 4.649,-6.819 4.649,-11.084l0,-53.93l-31.466,56.385Zm-338.327,-84.578c-2.182,-8.728 -7.389,-13.092 -15.621,-13.092c-4.364,0 -8.108,1.55 -11.233,4.649c-3.124,3.1 -4.686,6.807 -4.686,11.121l-0,54.005l31.54,-56.683Zm369.496,0c-2.183,-8.728 -7.39,-13.092 -15.622,-13.092c-4.364,0 -8.108,1.55 -11.232,4.649c-3.124,3.1 -4.686,6.807 -4.686,11.121l-0,54.005l31.54,-56.683Zm-166.124,-71.434c0,-20.158 -16.256,-36.413 -36.413,-36.413c-20.157,-0 -36.413,16.255 -36.413,36.413c0,20.157 16.256,36.413 36.413,36.413c20.157,-0 36.413,-16.256 36.413,-36.413Z"/></g></g><path d="M888.805,264.672l-0,-132l58.712,0c8.021,0 14.908,2.888 20.66,8.663c5.752,5.775 8.628,12.65 8.628,20.625l-0,73.425c-0,7.929 -2.876,14.793 -8.628,20.591c-5.752,5.797 -12.639,8.696 -20.66,8.696l-58.712,0Zm29.287,-14.712l14.713,-0c4.079,-0 7.551,-1.444 10.416,-4.331c2.864,-2.888 4.296,-6.302 4.296,-10.244l0,-73.425c0,-3.988 -1.455,-7.414 -4.365,-10.278c-2.911,-2.865 -6.36,-4.297 -10.347,-4.297l-14.713,-0l0,102.575Z" style="fill-rule:nonzero;"/><path d="M1006.09,147.385l0,-14.713l29.288,0l-0,14.713l-29.288,-0Zm0,117.287l0,-102.712l29.288,-0l-0,102.712l-29.288,0Z" style="fill-rule:nonzero;"/><path d="M1152.81,161.96l-0,117.425c-0,7.975 -2.899,14.85 -8.697,20.625c-5.798,5.775 -12.661,8.662 -20.591,8.662l-29.425,0c-17.279,0 -27.041,-9.762 -29.287,-29.287l14.712,-0c0.688,9.717 5.546,14.575 14.575,14.575l14.713,-0c3.987,-0 7.436,-1.432 10.347,-4.297c2.91,-2.865 4.365,-6.291 4.365,-10.278l0,-29.425c-1.145,9.808 -6.05,14.712 -14.712,14.712l-14.713,0c-8.02,0 -14.907,-2.876 -20.659,-8.628c-5.752,-5.752 -8.628,-12.638 -8.628,-20.659l-0,-44c-0,-8.113 2.887,-15.045 8.662,-20.797c5.775,-5.752 12.65,-8.628 20.625,-8.628l58.713,-0Zm-29.288,14.712l-14.712,0c-4.033,0 -7.494,1.444 -10.381,4.332c-2.888,2.887 -4.332,6.348 -4.332,10.381l0,44c0,3.942 1.433,7.356 4.297,10.244c2.865,2.887 6.337,4.331 10.416,4.331c4.079,-0 7.551,-1.444 10.416,-4.331c2.864,-2.888 4.296,-6.302 4.296,-10.244l0,-58.713Z" style="fill-rule:nonzero;"/><path d="M1182.09,147.385l0,-14.713l29.288,0l-0,14.713l-29.288,-0Zm0,117.287l0,-102.712l29.288,-0l-0,102.712l-29.288,0Z" style="fill-rule:nonzero;"/><path d="M1255.52,132.672l29.288,0l-0,29.288l14.712,-0l0,14.712l-14.712,0l-0,58.713c-0,4.721 1.558,8.33 4.675,10.828c3.117,2.498 6.004,3.747 8.662,3.747l1.375,-0l0,14.712l-14.712,0c-8.067,0 -14.965,-2.876 -20.694,-8.628c-5.729,-5.752 -8.594,-12.638 -8.594,-20.659l0,-58.713l-14.712,0l-0,-14.712l14.712,-0l0,-29.288Z" style="fill-rule:nonzero;"/><path d="M1387.52,205.96l0,-14.575c0,-4.033 -1.455,-7.494 -4.365,-10.381c-2.911,-2.888 -6.36,-4.332 -10.347,-4.332l-14.713,0c-8.662,0 -13.52,4.905 -14.575,14.713l-14.712,-0c2.246,-19.617 12.008,-29.425 29.287,-29.425l29.425,-0c8.021,-0 14.908,2.899 20.66,8.697c5.752,5.798 8.628,12.707 8.628,20.728l-0,73.287l-29.288,0l0,-14.712c-1.145,9.808 -6.05,14.712 -14.712,14.712l-14.713,0c-8.02,0 -14.907,-2.876 -20.659,-8.628c-5.752,-5.752 -8.628,-12.638 -8.628,-20.659l-0,-0.138c-0,-8.02 2.887,-14.907 8.662,-20.659c5.775,-5.752 12.65,-8.628 20.625,-8.628l29.425,-0Zm0,14.712l-14.712,0c-4.033,0 -7.494,1.433 -10.381,4.297c-2.888,2.865 -4.332,6.291 -4.332,10.278l0,0.138c0,3.942 1.433,7.356 4.297,10.244c2.865,2.887 6.337,4.331 10.416,4.331c4.079,-0 7.551,-1.444 10.416,-4.331c2.864,-2.888 4.296,-6.302 4.296,-10.244l0,-14.713Z" style="fill-rule:nonzero;"/><rect x="1446.09" y="132.672" width="29.287" height="132" style="fill-rule:nonzero;"/><rect x="1490.09" y="264.672" width="117.287" height="14.712" style="fill-rule:nonzero;"/><path d="M1622.09,264.672l0,-132l73.288,0l-0,14.713l-44,-0l-0,44l29.425,-0l-0,14.575l-29.425,-0l-0,44l44,-0l-0,14.712l-73.288,0Z" style="fill-rule:nonzero;"/><path d="M1724.81,264.672l-0,-102.712l29.287,-0l0,14.712c0.596,-4.95 2.12,-8.639 4.572,-11.068c2.452,-2.429 5.833,-3.644 10.141,-3.644l14.712,-0c8.021,-0 14.908,2.899 20.66,8.697c5.752,5.798 8.628,12.707 8.628,20.728l-0,73.287l-29.288,0l0,-73.287c0,-4.033 -1.455,-7.494 -4.365,-10.381c-2.911,-2.888 -6.36,-4.332 -10.347,-4.332c-4.033,0 -7.494,1.444 -10.381,4.332c-2.888,2.887 -4.332,6.348 -4.332,10.381l0,73.287l-29.287,0Z" style="fill-rule:nonzero;"/><path d="M1856.81,132.672l29.287,0l0,29.288l14.713,-0l-0,14.712l-14.713,0l0,58.713c0,4.721 1.559,8.33 4.675,10.828c3.117,2.498 6.005,3.747 8.663,3.747l1.375,-0l-0,14.712l-14.713,0c-8.066,0 -14.964,-2.876 -20.693,-8.628c-5.729,-5.752 -8.594,-12.638 -8.594,-20.659l-0,-58.713l-14.713,0l0,-14.712l14.713,-0l-0,-29.288Z" style="fill-rule:nonzero;"/><path d="M2018.09,220.672l-58.712,0l-0,14.713c-0,3.942 1.432,7.356 4.297,10.244c2.864,2.887 6.336,4.331 10.415,4.331l14.713,-0c9.717,-0 14.575,-4.858 14.575,-14.575l14.712,-0c-2.291,19.525 -12.054,29.287 -29.287,29.287l-29.425,0c-8.021,0 -14.907,-2.876 -20.659,-8.628c-5.752,-5.752 -8.629,-12.638 -8.629,-20.659l0,-44c0,-8.113 2.888,-15.045 8.663,-20.797c5.775,-5.752 12.65,-8.628 20.625,-8.628l29.425,-0c8.021,-0 14.907,2.899 20.659,8.697c5.752,5.798 8.628,12.707 8.628,20.728l0,29.287Zm-58.712,-14.712l29.425,-0l-0,-14.575c-0,-4.033 -1.455,-7.494 -4.366,-10.381c-2.91,-2.888 -6.359,-4.332 -10.347,-4.332c-4.033,0 -7.493,1.444 -10.381,4.332c-2.887,2.887 -4.331,6.348 -4.331,10.381l-0,14.575Z" style="fill-rule:nonzero;"/><path d="M2076.67,264.672l-29.287,0l-0,-102.712l29.287,-0l0,29.425c1.146,-9.808 4.171,-17.165 9.075,-22.069c4.905,-4.904 11.688,-7.356 20.35,-7.356l14.575,-0l0,29.425l-29.287,-0c-4.033,-0 -7.494,1.432 -10.381,4.297c-2.888,2.864 -4.332,6.29 -4.332,10.278l0,58.712Z" style="fill-rule:nonzero;"/><path d="M2135.38,161.96l29.287,-0l0,14.712c0,-4.95 1.238,-8.639 3.713,-11.068c2.475,-2.429 6.142,-3.644 11,-3.644l14.712,-0c8.021,-0 14.908,2.899 20.66,8.697c5.752,5.798 8.628,12.707 8.628,20.728l-0,44c-0,8.021 -2.876,14.907 -8.628,20.659c-5.752,5.752 -12.639,8.628 -20.66,8.628l-29.425,0l0,29.288l-29.287,-0l-0,-132Zm29.287,88l14.713,-0c3.987,-0 7.436,-1.432 10.347,-4.297c2.91,-2.865 4.365,-6.291 4.365,-10.278l0,-44c0,-4.033 -1.455,-7.482 -4.365,-10.347c-2.911,-2.865 -6.36,-4.297 -10.347,-4.297c-4.033,-0.046 -7.494,1.375 -10.381,4.263c-2.888,2.887 -4.332,6.348 -4.332,10.381l0,58.575Z" style="fill-rule:nonzero;"/><path d="M2281.95,264.672l-29.288,0l0,-102.712l29.288,-0l-0,29.425c1.146,-9.808 4.171,-17.165 9.075,-22.069c4.904,-4.904 11.687,-7.356 20.35,-7.356l14.575,-0l-0,29.425l-29.288,-0c-4.033,-0 -7.493,1.432 -10.381,4.297c-2.887,2.864 -4.331,6.29 -4.331,10.278l-0,58.712Z" style="fill-rule:nonzero;"/><path d="M2340.67,147.385l0,-14.713l29.288,0l-0,14.713l-29.288,-0Zm0,117.287l0,-102.712l29.288,-0l-0,102.712l-29.288,0Z" style="fill-rule:nonzero;"/><path d="M2472.67,191.385l-14.575,-0c-1.283,-9.808 -5.912,-14.713 -13.887,-14.713c-5.179,0 -9.075,1.02 -11.688,3.06c-2.612,2.039 -3.918,5.076 -3.918,9.109c-0,4.217 7.127,10.129 21.381,17.738c11.596,6.233 18.276,11.401 20.041,15.503c1.764,4.102 2.646,8.468 2.646,13.097c0,8.158 -2.876,15.113 -8.628,20.865c-5.752,5.752 -12.638,8.628 -20.659,8.628l-14.713,0c-19.525,0 -29.287,-9.762 -29.287,-29.287l14.712,-0c1.146,9.762 5.73,14.644 13.75,14.644c5.18,-0 9.075,-1.032 11.688,-3.094c2.612,-2.063 3.919,-5.11 3.919,-9.144c-0,-4.125 -7.104,-10.037 -21.313,-17.737c-11.641,-6.188 -18.345,-11.344 -20.109,-15.469c-1.765,-4.125 -2.647,-8.479 -2.647,-13.063c-0,-8.204 2.887,-15.182 8.662,-20.934c5.775,-5.752 12.65,-8.628 20.625,-8.628l14.713,-0c18.333,-0 28.096,9.808 29.287,29.425Z" style="fill-rule:nonzero;"/><path d="M2590.09,220.672l-58.712,0l-0,14.713c-0,3.942 1.432,7.356 4.297,10.244c2.864,2.887 6.336,4.331 10.415,4.331l14.713,-0c9.717,-0 14.575,-4.858 14.575,-14.575l14.712,-0c-2.291,19.525 -12.054,29.287 -29.287,29.287l-29.425,0c-8.021,0 -14.907,-2.876 -20.659,-8.628c-5.752,-5.752 -8.629,-12.638 -8.629,-20.659l0,-44c0,-8.113 2.888,-15.045 8.663,-20.797c5.775,-5.752 12.65,-8.628 20.625,-8.628l29.425,-0c8.021,-0 14.907,2.899 20.659,8.697c5.752,5.798 8.628,12.707 8.628,20.728l0,29.287Zm-58.712,-14.712l29.425,-0l-0,-14.575c-0,-4.033 -1.455,-7.494 -4.366,-10.381c-2.91,-2.888 -6.359,-4.332 -10.347,-4.332c-4.033,0 -7.493,1.444 -10.381,4.332c-2.887,2.887 -4.331,6.348 -4.331,10.381l-0,14.575Z" style="fill-rule:nonzero;"/></g></svg>