<svg id="Ebene_1" data-name="Ebene 1" xmlns="http://www.w3.org/2000/svg" viewBox="0 0 1490.01 316.58"><defs><style>.cls-1{fill:#000000;}.cls-2{fill:#5f5e5e;}</style></defs><path class="cls-1" d="M1338,338.23c-3.36,6.15-7,9.24-13.44,9.24h-2.79c-6.43,0-10.08-3.36-10.08-8.4,0-2,.57-4.19,2.53-7.55l96-167.35c3.62-6.15,5.21-8.12,8.48-8.12h3.55c3.5,0,5.41,2,8.77,8.12l92.91,167.06a17.07,17.07,0,0,1,2.52,7.84c0,5-3.92,8.4-10.35,8.4h-2.81c-6.71,0-10.07-3.09-13.42-9.24l-14.55-26.88c-2.53-4.47-5.6-5.59-10.36-5.59H1363.49c-4.77,0-7.85,1.12-10.36,5.59Zm86.07-138.36s-1.18-2.57-3.74-2.57a4.45,4.45,0,0,0-3.85,2.54l-44.61,78.49a8.38,8.38,0,0,0-1.14,3.92c0,2.51,1.69,4.21,5.33,4.21h86.85c3.64,0,5.31-1.7,5.31-4.21a8.37,8.37,0,0,0-1.1-3.92Z" transform="translate(-36.45 -155.6)"/><path class="cls-1" d="M496.09,347.08c-25.75,0-33.87-9.52-33.87-29.12V185.87c0-19.59,8.4-29.11,33.87-29.11h72.17c53.17,0,68.57,10.92,68.57,46.75,0,19.86-4.49,29.66-14.84,36.66-5.88,3.92-6.72,5-6.72,6.43,0,1.69.84,2.52,6.43,5,15.39,7.29,22.11,17.36,22.11,41.72,0,41.13-15.94,53.73-68.83,53.73Zm2.23-170.16c-7.83,0-10.36,3.07-10.36,9.52v43.65c0,5.6,3.08,8.68,9.8,8.68h76.36c28.56,0,37.53-8.39,37.53-31.06,0-24.92-8.13-30.79-42.84-30.79Zm73,149.72c40.58,0,47-7.27,47-34.14,0-27.14-9.54-33.86-40-33.86H497.76c-6.72,0-9.8,3.07-9.8,8.67v49.82c0,6.15,2.53,9.51,10.36,9.51Z" transform="translate(-36.45 -155.6)"/><path class="cls-1" d="M681.14,185.87c0-19.59,8.4-29.11,33.86-29.11H840.68c6.72,0,10.08,3.65,10.08,9.24v2.79c0,5.6-3.36,9.24-10.08,9.24H717.24c-7.83,0-10.34,3.08-10.34,9.52v42.54c0,5.6,3.07,8.68,9.79,8.68h117c6.72,0,10.08,3.63,10.08,9.24v2c0,5.59-3.36,9.23-10.08,9.23h-117c-6.72,0-9.79,3.07-9.79,8.68V316c0,6.15,2.51,9.5,10.34,9.5H842.08c6.72,0,10.07,3.66,10.07,9.25v3.07c0,5.59-3.35,9.24-10.07,9.24H715c-25.75,0-33.86-9.52-33.86-29.12Z" transform="translate(-36.45 -155.6)"/><path class="cls-1" d="M884.26,185.87c0-19.59,8.38-29.11,33.85-29.11h69.72c58.77,0,73.05,11.48,73.05,51.78v7c0,23.5-4.49,34.14-19,42.26-6.15,3.35-7,4.76-7,6.15,0,1.68.85,2.82,6.43,5.6,14,7,19,15.68,19,43.94v23.26c0,6.44-4.2,10.64-11.2,10.64h-3.36c-7,0-11.2-4.2-11.2-10.64V325.82c0-42.83-5.31-51-59.32-51H919.78c-6.72,0-9.79,3.09-9.79,8.68v53.21c0,6.44-4.19,10.64-11.19,10.64h-3.36c-7,0-11.18-4.2-11.18-10.64Zm100.21,68.56c40,0,50.37-8.94,50.37-36.37v-5.32c0-30-7.83-35.26-55.14-35.26H920.35c-7.83,0-10.36,3.08-10.36,9.52v58.76c0,5.6,3.07,8.67,9.79,8.67Z" transform="translate(-36.45 -155.6)"/><path class="cls-1" d="M1133.93,194.62s-1.42-2.07-2.49-1.58c-.83.37-.71,1.89-.71,1.89V336.75c0,6.44-4.19,10.64-11.19,10.64h-3.08c-7,0-11.2-4.2-11.2-10.64l0-164.75c0-9.51,5.32-15.95,18.19-15.95h0c7.84,0,12,1.88,17.6,7.76L1259,309.11c1.58,2,2,2.08,2.51,2,.91-.23.79-.66.79-3.18V166.68c0-6.43,4.2-10.63,11.2-10.63h3.07c7,0,11.2,4.2,11.2,10.63V331.43c0,9.51-5.31,16-18.2,16h.06c-7.84,0-12.32-1.68-17.92-7.56Z" transform="translate(-36.45 -155.6)"/><path class="cls-1" d="M62.18,274v62.62c0,6.5-4.19,10.75-11.18,10.75H47.64c-7,0-11.19-4.25-11.19-10.75V166.81c0-6.5,4.2-10.73,11.19-10.73H51c7,0,11.18,4.23,11.18,10.73V274Z" transform="translate(-36.45 -155.6)"/><path class="cls-1" d="M349,336.82c0,6.45-4.2,10.65-11.21,10.65h-3.36c-7,0-11.21-4.2-11.21-10.65V273.06a12.55,12.55,0,0,0-3.65-8.69l-88.13-91.74c-3.09-3.08-4.77-5.32-4.77-8.68,0-4.77,4.2-7.86,10.09-7.86h3.92A15.78,15.78,0,0,1,253,161.42l78.6,81.37c2.25,2.52,3.93,3.65,5.33,3.65,1.68,0,3.08-1.13,5.32-3.65L420,161.38c3.93-3.93,7.57-5.33,12.62-5.33H436c5.61,0,9.81,3.09,9.81,7.85,0,3.36-1.68,5.61-4.76,8.69l-88.66,91.78a12.2,12.2,0,0,0-3.37,8.69Z" transform="translate(-36.45 -155.6)"/><path class="cls-2" d="M175.82,160.31,84.27,239.18s-7.83,6.27-7.83,12.9,7.83,13.32,7.83,13.32,88.82,76.64,91.55,78.87c4.15,3.38,8.53,4.25,14.81,4.25h5.1c8,0,14.51-2.86,14.51-9.52,0-3.68-1.84-6-5.25-8.95L120,256.9s-3.94-2.54-3.94-4.92,3-4.6,3-4.6l85-73s4-3.23,4-7.91c0-6.61-6.26-10.87-12.34-10.87l-5.06,0A23.77,23.77,0,0,0,175.82,160.31Z" transform="translate(-36.45 -155.6)"/><path class="cls-1" d="M53.24,455.46,37.81,401.54h8.3l7.22,27.28c1.81,6.72,3.43,13.44,4.52,18.64H58c1-5.36,2.89-11.76,5-18.72l8.13-27.2h8.21l7.4,27.36c1.72,6.4,3.34,12.8,4.25,18.48h.18c1.26-5.92,3-11.92,4.87-18.64l8-27.2h8L94.86,455.46H86.64L79,427.38a144.83,144.83,0,0,1-4-17.6h-.18a153.4,153.4,0,0,1-4.7,17.6l-8.66,28.08Z" transform="translate(-36.45 -155.6)"/><path class="cls-1" d="M123.83,437.38c.19,9.52,7,13.44,15,13.44a32,32,0,0,0,12.1-2l1.35,5a39.33,39.33,0,0,1-14.53,2.4c-13.45,0-21.49-7.84-21.49-19.52s7.77-20.88,20.49-20.88c14.27,0,18.06,11.12,18.06,18.24a23.66,23.66,0,0,1-.27,3.28Zm23.3-5c.08-4.48-2.08-11.44-11-11.44-8,0-11.55,6.56-12.18,11.44Z" transform="translate(-36.45 -155.6)"/><path class="cls-1" d="M173.48,405.86c.09,2.4-1.89,4.32-5,4.32a4.47,4.47,0,0,1-4.79-4.32c0-2.48,2.08-4.4,5-4.4S173.48,403.38,173.48,405.86Zm-8.84,49.6V416.74h7.94v38.72Z" transform="translate(-36.45 -155.6)"/><path class="cls-1" d="M185.76,398.66h7.94v56.8h-7.94Z" transform="translate(-36.45 -155.6)"/><path class="cls-2" d="M227,455.46V422.1h-6.14v-5.36H227V414.9c0-5.44,1.36-10.4,5.06-13.52a16.36,16.36,0,0,1,10.65-3.6,20.47,20.47,0,0,1,6.77,1.12l-1.08,5.44a13.22,13.22,0,0,0-5.06-.88c-6.77,0-8.48,5.28-8.48,11.2v2.08h10.56v5.36H234.87v33.36Z" transform="translate(-36.45 -155.6)"/><path class="cls-2" d="M289.12,444.9c0,4,.09,7.52.36,10.56h-7l-.45-6.32h-.18c-2.08,3.12-6.68,7.2-14.45,7.2-6.86,0-15.07-3.36-15.07-17V416.74h7.94v21.44c0,7.36,2.53,12.32,9.75,12.32a11.48,11.48,0,0,0,10.47-6.4,9.28,9.28,0,0,0,.72-3.6V416.74h7.95Z" transform="translate(-36.45 -155.6)"/><path class="cls-2" d="M302.3,427.22c0-4-.09-7.28-.36-10.48h7l.45,6.4h.18c2.17-3.68,7.22-7.28,14.44-7.28,6.05,0,15.44,3.2,15.44,16.48v23.12h-7.94V433.14c0-6.24-2.62-11.44-10.11-11.44a11.16,11.16,0,0,0-10.66,7.2,9.09,9.09,0,0,0-.54,3.28v23.28H302.3Z" transform="translate(-36.45 -155.6)"/><path class="cls-2" d="M360.25,434.5h.18c1.09-1.36,2.62-3,3.88-4.4l12.82-13.36h9.57l-16.88,15.92,19.23,22.8h-9.66L364.31,436.9l-4.06,4v14.56H352.4v-56.8h7.85Z" transform="translate(-36.45 -155.6)"/><path class="cls-2" d="M404.3,405.62v11.12h11.38v5.36H404.3V443c0,4.8,1.54,7.52,6,7.52a19.91,19.91,0,0,0,4.61-.48l.36,5.28a21.73,21.73,0,0,1-7,1c-3.71,0-6.68-1-8.58-3-2.26-2.08-3.07-5.52-3.07-10.08V422.1h-6.77v-5.36h6.77v-9.28Z" transform="translate(-36.45 -155.6)"/><path class="cls-2" d="M433.46,405.86c.09,2.4-1.89,4.32-5,4.32a4.47,4.47,0,0,1-4.79-4.32c0-2.48,2.08-4.4,5-4.4S433.46,403.38,433.46,405.86Zm-8.84,49.6V416.74h7.94v38.72Z" transform="translate(-36.45 -155.6)"/><path class="cls-2" d="M485.28,435.78c0,14.32-11.2,20.56-21.76,20.56-11.82,0-20.94-7.68-20.94-19.92,0-13,9.57-20.56,21.66-20.56C476.79,415.86,485.28,423.94,485.28,435.78Zm-34.67.4c0,8.48,5.51,14.88,13.27,14.88,7.59,0,13.27-6.32,13.27-15,0-6.56-3.7-14.88-13.09-14.88S450.61,428.82,450.61,436.18Z" transform="translate(-36.45 -155.6)"/><path class="cls-2" d="M495.3,427.22c0-4-.09-7.28-.36-10.48h7l.45,6.4h.18c2.17-3.68,7.22-7.28,14.44-7.28,6.05,0,15.44,3.2,15.44,16.48v23.12h-8V433.14c0-6.24-2.61-11.44-10.11-11.44a11.16,11.16,0,0,0-10.65,7.2,9.09,9.09,0,0,0-.54,3.28v23.28H495.3Z" transform="translate(-36.45 -155.6)"/><path class="cls-2" d="M554.24,405.86c.09,2.4-1.89,4.32-5,4.32a4.47,4.47,0,0,1-4.79-4.32c0-2.48,2.08-4.4,5-4.4S554.24,403.38,554.24,405.86Zm-8.84,49.6V416.74h7.94v38.72Z" transform="translate(-36.45 -155.6)"/><path class="cls-2" d="M570.94,437.38c.18,9.52,7,13.44,15,13.44a32,32,0,0,0,12.1-2l1.35,5a39.33,39.33,0,0,1-14.53,2.4c-13.45,0-21.49-7.84-21.49-19.52s7.76-20.88,20.49-20.88c14.27,0,18.06,11.12,18.06,18.24a23.66,23.66,0,0,1-.27,3.28Zm23.29-5c.09-4.48-2.07-11.44-11-11.44-8,0-11.55,6.56-12.19,11.44Z" transform="translate(-36.45 -155.6)"/><path class="cls-2" d="M611.75,428.82c0-4.56-.09-8.48-.37-12.08h7l.27,7.6H619a12.93,12.93,0,0,1,12.09-8.48,9.61,9.61,0,0,1,2.26.24v6.64a13.37,13.37,0,0,0-2.71-.24c-5.59,0-9.57,3.76-10.65,9a17.69,17.69,0,0,0-.36,3.28v20.64h-7.85Z" transform="translate(-36.45 -155.6)"/><path class="cls-2" d="M645.69,437.38c.18,9.52,7,13.44,15,13.44a32,32,0,0,0,12.1-2l1.35,5a39.29,39.29,0,0,1-14.53,2.4c-13.45,0-21.48-7.84-21.48-19.52s7.76-20.88,20.49-20.88c14.26,0,18,11.12,18,18.24a23.66,23.66,0,0,1-.27,3.28Zm23.29-5c.09-4.48-2.08-11.44-11-11.44-8,0-11.55,6.56-12.18,11.44Z" transform="translate(-36.45 -155.6)"/><path class="cls-2" d="M686.49,427.22c0-4-.09-7.28-.36-10.48h7l.45,6.4h.18c2.17-3.68,7.22-7.28,14.45-7.28,6,0,15.43,3.2,15.43,16.48v23.12h-7.94V433.14c0-6.24-2.62-11.44-10.11-11.44A11.14,11.14,0,0,0,695,428.9a8.87,8.87,0,0,0-.55,3.28v23.28h-7.94Z" transform="translate(-36.45 -155.6)"/><path class="cls-2" d="M774.32,398.66v46.8c0,3.44.09,7.36.37,10h-7.14l-.36-6.72H767c-2.43,4.32-7.76,7.6-14.89,7.6-10.56,0-18.69-7.92-18.69-19.68-.09-12.88,8.94-20.8,19.59-20.8,6.68,0,11.19,2.8,13.18,5.92h.18V398.66Zm-7.94,33.84a11.11,11.11,0,0,0-.36-3c-1.17-4.48-5.51-8.16-11.47-8.16-8.21,0-13.08,6.4-13.08,15,0,7.84,4.33,14.32,12.9,14.32,5.33,0,10.21-3.12,11.65-8.4a10.93,10.93,0,0,0,.36-3Z" transform="translate(-36.45 -155.6)"/><path class="cls-2" d="M791.93,437.38c.18,9.52,7,13.44,15,13.44a32,32,0,0,0,12.1-2l1.35,5a39.33,39.33,0,0,1-14.53,2.4c-13.45,0-21.49-7.84-21.49-19.52s7.77-20.88,20.5-20.88c14.26,0,18,11.12,18,18.24a23.66,23.66,0,0,1-.27,3.28Zm23.29-5c.09-4.48-2.08-11.44-11-11.44-8,0-11.55,6.56-12.18,11.44Z" transform="translate(-36.45 -155.6)"/><path class="cls-2" d="M860,401.54v53.92h-7.85V401.54Z" transform="translate(-36.45 -155.6)"/><path class="cls-2" d="M885.27,407.46H866.76v-5.92h45v5.92h-18.6v48h-7.94Z" transform="translate(-36.45 -155.6)"/><path class="cls-1" d="M975.08,416.74c-.18,2.8-.36,5.92-.36,10.64v22.48c0,8.88-2,14.32-6.22,17.68-4.25,3.52-10.39,4.64-15.89,4.64-5.24,0-11-1.12-14.54-3.2l2-5.36a27.06,27.06,0,0,0,12.82,3c8.12,0,14.08-3.76,14.08-13.52v-4.32h-.18c-2.44,3.6-7.13,6.48-13.9,6.48-10.83,0-18.6-8.16-18.6-18.88,0-13.12,9.66-20.56,19.68-20.56,7.58,0,11.74,3.52,13.63,6.72h.18l.36-5.84ZM966.87,432a9,9,0,0,0-.45-3.2,11.31,11.31,0,0,0-11.1-7.44c-7.59,0-13,5.68-13,14.64,0,7.6,4.33,13.92,12.91,13.92a11.56,11.56,0,0,0,11-7.2,11,11,0,0,0,.63-3.76Z" transform="translate(-36.45 -155.6)"/><path class="cls-1" d="M987.9,398.66h8v56.8h-8Z" transform="translate(-36.45 -155.6)"/><path class="cls-1" d="M1045.77,444.9c0,4,.09,7.52.36,10.56h-7l-.45-6.32h-.18c-2.08,3.12-6.69,7.2-14.45,7.2-6.86,0-15.07-3.36-15.07-17V416.74h7.94v21.44c0,7.36,2.53,12.32,9.75,12.32a11.48,11.48,0,0,0,10.47-6.4,9.28,9.28,0,0,0,.72-3.6V416.74h8Zm-31-39.12a4.39,4.39,0,0,1,4.61-4.08,4.16,4.16,0,0,1,4.42,4.08,4.21,4.21,0,0,1-4.42,4.08A4.33,4.33,0,0,1,1014.8,405.78Zm16.79,0a4.3,4.3,0,0,1,4.52-4.08,4.16,4.16,0,0,1,4.42,4.08,4.49,4.49,0,0,1-8.94,0Z" transform="translate(-36.45 -155.6)"/><path class="cls-1" d="M1090.09,454a32.48,32.48,0,0,1-12.55,2.24c-13.18,0-21.75-7.92-21.75-19.76s9.2-20.56,23.47-20.56a29.48,29.48,0,0,1,11,2l-1.81,5.44a20.31,20.31,0,0,0-9.2-1.84c-10,0-15.44,6.56-15.44,14.64,0,9,6.5,14.48,15.17,14.48a25,25,0,0,0,9.75-1.92Z" transform="translate(-36.45 -155.6)"/><path class="cls-1" d="M1107.24,434.5h.18c1.08-1.36,2.62-3,3.88-4.4l12.82-13.36h9.57l-16.88,15.92,19.23,22.8h-9.66L1111.3,436.9l-4.06,4v14.56h-7.85v-56.8h7.85Z" transform="translate(-36.45 -155.6)"/><path class="cls-1" d="M1141.72,398.66h8v56.8h-8Z" transform="translate(-36.45 -155.6)"/><path class="cls-1" d="M1171.88,405.86c.08,2.4-1.9,4.32-5.06,4.32a4.46,4.46,0,0,1-4.78-4.32c0-2.48,2.07-4.4,5-4.4S1171.88,403.38,1171.88,405.86Zm-8.85,49.6V416.74H1171v38.72Z" transform="translate(-36.45 -155.6)"/><path class="cls-1" d="M1215.29,454a32.38,32.38,0,0,1-12.54,2.24c-13.18,0-21.76-7.92-21.76-19.76s9.21-20.56,23.47-20.56a29.5,29.5,0,0,1,11,2l-1.81,5.44a20.39,20.39,0,0,0-9.21-1.84c-10,0-15.43,6.56-15.43,14.64,0,9,6.5,14.48,15.16,14.48a25,25,0,0,0,9.75-1.92Z" transform="translate(-36.45 -155.6)"/><path class="cls-1" d="M1224.59,398.66h8v24.16h.18a14.05,14.05,0,0,1,5.68-5,18,18,0,0,1,8.13-2c5.87,0,15.25,3.2,15.25,16.56v23h-7.94V433.22c0-6.24-2.62-11.52-10.11-11.52a11.31,11.31,0,0,0-10.65,7,7.66,7.66,0,0,0-.54,3.36v23.36h-8Z" transform="translate(-36.45 -155.6)"/><path class="cls-1" d="M1293.83,427.22c0-4-.09-7.28-.36-10.48h7l.36,6.24h.27c2.44-3.68,6.5-7.12,13.72-7.12,6,0,10.47,3.2,12.37,7.76h.18a16.6,16.6,0,0,1,4.88-5,16.18,16.18,0,0,1,9.65-2.72c5.78,0,14.36,3.36,14.36,16.8v22.8h-7.77V433.54c0-7.44-3.06-11.92-9.47-11.92a10.15,10.15,0,0,0-9.39,6.4,10.43,10.43,0,0,0-.63,3.52v23.92h-7.77v-23.2c0-6.16-3.07-10.64-9.12-10.64a10.63,10.63,0,0,0-9.83,7,8.56,8.56,0,0,0-.64,3.44v23.36h-7.76Z" transform="translate(-36.45 -155.6)"/><path class="cls-1" d="M1393.31,455.46l-.63-4.88h-.27c-2.44,3-7.13,5.76-13.36,5.76-8.85,0-13.36-5.52-13.36-11.12,0-9.36,9.39-14.48,26.27-14.4V430c0-3.2-1-9-9.93-9a23.88,23.88,0,0,0-11.38,2.88l-1.8-4.64a29.76,29.76,0,0,1,14.35-3.44c13.36,0,16.61,8.08,16.61,15.84v14.48a48.58,48.58,0,0,0,.72,9.28Zm-1.17-19.76c-8.67-.16-18.51,1.2-18.51,8.72,0,4.56,3.43,6.72,7.49,6.72,5.69,0,9.3-3.2,10.56-6.48a6.4,6.4,0,0,0,.46-2.24Z" transform="translate(-36.45 -155.6)"/><path class="cls-1" d="M1443.77,454a32.44,32.44,0,0,1-12.55,2.24c-13.18,0-21.75-7.92-21.75-19.76s9.21-20.56,23.47-20.56a29.44,29.44,0,0,1,11,2l-1.8,5.44a20.39,20.39,0,0,0-9.21-1.84c-10,0-15.44,6.56-15.44,14.64,0,9,6.5,14.48,15.17,14.48a25,25,0,0,0,9.75-1.92Z" transform="translate(-36.45 -155.6)"/><path class="cls-1" d="M1453.07,398.66H1461v24.16h.18a14.09,14.09,0,0,1,5.69-5,18,18,0,0,1,8.12-2c5.87,0,15.26,3.2,15.26,16.56v23h-7.94V433.22c0-6.24-2.62-11.52-10.11-11.52a11.33,11.33,0,0,0-10.66,7,7.66,7.66,0,0,0-.54,3.36v23.36h-7.94Z" transform="translate(-36.45 -155.6)"/><path class="cls-1" d="M1512.74,405.62v11.12h11.37v5.36h-11.37V443c0,4.8,1.53,7.52,6,7.52a19.81,19.81,0,0,0,4.6-.48l.36,5.28a21.69,21.69,0,0,1-7,1c-3.7,0-6.68-1-8.58-3-2.25-2.08-3.06-5.52-3.06-10.08V422.1h-6.77v-5.36H1505v-9.28Z" transform="translate(-36.45 -155.6)"/></svg>
