<?xml version="1.0" encoding="utf-8"?>
<!-- Generator: Adobe Illustrator 27.2.0, SVG Export Plug-In . SVG Version: 6.00 Build 0)  -->
<svg version="1.1" id="Layer_1" xmlns="http://www.w3.org/2000/svg" xmlns:xlink="http://www.w3.org/1999/xlink" x="0px" y="0px"
	 viewBox="0 0 72 72" style="enable-background:new 0 0 72 72;" xml:space="preserve">
<style type="text/css">
	.st0{fill:none;}
</style>
<rect class="st0" width="72" height="72"/>
<g id="Logo">
	<polygon points="34,32.3 34,19 19.7,19 19.7,29.1 10,29.1 10,42.9 19.7,42.9 19.7,53 34,53 34,39.7 30.6,39.7 30.6,49.8 23.1,49.8 
		23.1,39.7 13.4,39.7 13.4,32.3 23.1,32.3 23.1,22.2 30.6,22.2 30.6,32.3 	"/>
	<path d="M53.6,31.1c0,2.4-2,4.3-4.5,4.3h-3.8v-8.3H49C51.7,27.1,53.6,28.8,53.6,31.1z M50.7,19H36v34h9.2V42.9h5.5
		c6.8,0,12-5.2,12-11.8C62.7,24.4,57.4,19,50.7,19z"/>
</g>
</svg>
