<svg viewBox="0 0 434 364" xmlns="http://www.w3.org/2000/svg" fill-rule="evenodd" clip-rule="evenodd" stroke-linecap="round" stroke-linejoin="round" stroke-miterlimit="1.5"><path d="M142.67 250.32c3.07-15.22 4.68-32.5 4.68-50.07 0-55.26-15.65-100.13-34.92-100.13-19.28 0-34.93 44.87-34.93 100.13 0 17.58 1.61 34.85 4.68 50.07h60.5z" fill="#ffd22b"/><path d="M112.56 97.75h.4l.14.01h.13l.13.02h.14l.13.01.14.02h.13l.13.02.13.02.14.01.13.02.13.02.14.02.13.02.13.02.13.02.13.03.14.02.13.03.13.03.13.02.13.03.13.04.13.03.13.03.13.04.13.03.13.04.13.04.13.03.13.04.13.05.13.04.12.04.13.05.13.04.13.05.13.05.12.04.13.05.12.05.13.06.13.05.12.05.13.06.12.05.13.06.12.06.13.06.12.06.13.06.12.06.12.07.12.06.13.06.12.07.12.07.13.07.12.07.12.07.12.07.12.07.12.07.12.08.12.07.12.08.12.07.12.08.12.08.12.08.12.08.11.08.12.08.12.09.12.08.11.09.12.08.12.09.11.09.12.09.11.09.12.09.11.09.12.09.11.1.12.09.11.1.12.09.11.1.12.1.22.19.22.2.23.2.22.21.22.22.22.21.22.22.22.22.22.23.22.22.21.24.22.23.21.24.21.24.22.24.2.25.22.25.2.26.22.25.2.26.21.27.2.27.21.27.2.27.2.27.21.28.2.29.2.28.2.29.2.3.2.29.18.28.02.01.2.3.19.3.19.31.2.31.19.32.19.31.19.32.19.32.19.33.18.32.2.33.18.34.18.33.19.34.18.34.18.35.18.34.19.35.18.36.18.35.17.36.18.36.18.36.17.37.18.37.17.37.18.38.17.37.17.38.17.39.17.38.17.4.17.38.16.4.17.4.16.4.17.4.16.4.16.4.17.41.16.41.16.42.15.42.16.41.16.43.16.42.15.43.15.43.16.43.15.43.15.44.15.44.15.44.15.45.15.44.14.45.15.45.14.46.15.45.14.46.14.46.14.46.14.47.14.47.14.47.14.47.13.47.14.48.13.48.14.48.13.48.13.5.13.48.13.49.13.5.12.49.13.5.12.5.13.5.12.5.12.5.12.5.12.52.12.5.12.52.11.52.12.52.11.52.12.52.11.52.11.53.11.52.11.53.1.54.11.53.11.54.1.53.1.54.11.54.1.55.03.17.07.37.1.55.1.55.1.55.09.55.1.56.09.55.09.56.09.56.09.56.08.56.1.57.08.57.08.56.09.58.08.57.08.57.08.58.08.57.08.58.07.58.08.58.07.59.07.58.07.59.08.59.06.59.07.59.07.6.06.59.07.6.06.54v.05l.06.6.06.6.06.6.06.6.05.61.06.6.05.61.05.61.05.61.05.62.05.61.05.62.04.61.05.62.04.62.04.62.04.62.04.62.04.63.03.62.04.63.03.63.03.63.01.13.02.5.03.63.03.63.02.63.02.64.02.64.03.63.01.64.02.64.01.45v.2l.02.63.01.65v.64l.02.65v1.29l.01.65v2.6l-.02.65v.83l-.02.83-.02.83-.02.83-.02.83-.02.83-.03.83-.03.82-.03.83-.03.82-.04.83-.01.3-.03.52-.05.82-.05.82-.05.82-.06.82-.06.82-.06.81-.06.82-.06.8-.07.82-.07.81-.07.81-.07.8-.08.81-.08.8-.08.81-.08.8-.08.8-.09.8-.09.8-.09.8-.1.78-.09.8-.1.78-.1.8-.02.17-.09.6-.1.79-.12.78-.12.78-.12.77-.12.78-.12.77-.13.77-.13.76-.13.77-.13.76-.13.76-.14.76-.14.75-.14.75-.14.75-.15.75-.14.74-.15.74-.16.74-.16.74-.16.73-.16.73-.16.72-.17.73-.17.72-.17.71-.1.41-.07.3-1.25-.24 1.25.24-.06.21-.1.2-.13.18-.15.15-.18.12-.2.1-.21.05-.22.01-1.58.01-41.18.22-17.73.08-.27-.02-.27-.07-.24-.1-.23-.16-.2-.19-.15-.22-.12-.24-.08-.26-.15-.72-.14-.72-.15-.73-.14-.73-.14-.73-.13-.73-.14-.74-.13-.74-.13-.74-.13-.75-.12-.75-.13-.75-.12-.75-.12-.75-.12-.76-.11-.76-.11-.76-.11-.77-.11-.76-.1-.77-.11-.78-.1-.77-.1-.77-.1-.78-.1-.78-.09-.78-.09-.79-.09-.78-.08-.79-.09-.79-.08-.8-.08-.78-.08-.8-.07-.8-.07-.8-.07-.8-.07-.8-.07-.8-.06-.8-.06-.8-.06-.81-.06-.81-.05-.81-.05-.81-.05-.82-.05-.8-.05-.82-.04-.82-.04-.82-.04-.82-.03-.81-.04-.82-.03-.83-.03-.82-.02-.82-.03-.82-.02-.83-.02-.82-.02-.83-.01-.83-.01-.82-.01-.83-.01-.83v-.83l-.01-.65v-3.24l.01-.65.01-.64.01-.64.01-.65.01-.64.02-.64.01-.64.02-.64.01-.63.02-.64.02-.63.02-.64.03-.63.02-.63.03-.63.02-.63.03-.63.03-.62.03-.63.03-.62.04-.62.03-.62.04-.62.04-.62.03-.62.04-.62.05-.61.04-.61.04-.62.05-.6.05-.62.04-.6.05-.61.05-.6.05-.61.02-.23.04-.37.05-.6.06-.6.06-.6.05-.6.06-.6.06-.59.07-.59.06-.59.07-.59.06-.58.07-.59.07-.58.07-.59.07-.58.07-.58.07-.57.08-.58.07-.58.08-.57.08-.57.08-.57.08-.57.08-.56.08-.57.08-.56.09-.56.09-.56.08-.56.1-.55.08-.55.1-.56.08-.55.1-.54.1-.55.09-.55.1-.54.1-.54.1-.54.1-.53.1-.54.1-.53.1-.53.1-.53.1-.53.11-.53.11-.52.11-.52.11-.52.11-.52.11-.51.12-.52.11-.5.11-.52.12-.5.12-.5.12-.51.12-.5.12-.5.12-.5.12-.49.12-.5.13-.48.12-.49.13-.48.13-.49.13-.48.13-.48.13-.47.13-.48.13-.47.14-.47.13-.47.14-.46.13-.47.14-.46.14-.46.14-.45.14-.46.14-.45.14-.45.15-.44.14-.45.15-.44.14-.44.15-.44.15-.43.15-.43.15-.43.15-.43.15-.42.16-.42.15-.42.16-.42.15-.42.16-.4.16-.42.15-.4.16-.4.16-.4.17-.4.16-.4.16-.4.17-.39.16-.39.17-.38.16-.39.16-.36.01-.02.17-.38.17-.37.17-.37.17-.37.17-.37.18-.36.17-.36.18-.36.17-.36.18-.35.18-.35.18-.35.18-.34.18-.35.18-.33.18-.34.18-.33.19-.33.18-.33.19-.33.18-.32.2-.32.18-.31.19-.32.19-.3.2-.31.18-.3.2-.3.19-.3.2-.3.19-.3.2-.28.2-.29.2-.28.2-.28.2-.28.2-.27.2-.27.2-.27.2-.26.2-.27.21-.25.2-.26.22-.25.2-.25.21-.24.21-.25.22-.24.2-.23.22-.23.22-.23.21-.23.22-.22.21-.22.22-.22.22-.2.22-.22.22-.2.23-.2.22-.2.11-.1.11-.1.12-.1.11-.1.11-.09.12-.09.11-.1.11-.09.12-.09.11-.09.12-.09.11-.08.12-.1.11-.08.12-.08.12-.09.11-.08.12-.09.12-.08.11-.08.12-.08.12-.08.12-.08.12-.07.12-.08.11-.08.12-.07.12-.07.12-.08.12-.07.12-.07.13-.07.12-.07.12-.07.12-.06.12-.07.12-.06.13-.07.12-.06.12-.06.12-.06.13-.06.12-.06.13-.06.12-.06.13-.05.12-.06.13-.05.12-.05.13-.06.12-.05.13-.05.13-.04.12-.05.13-.05.13-.04.12-.05.13-.04.13-.04.13-.04.13-.04.13-.04.12-.04.13-.04.13-.03.13-.04.13-.03.13-.03.13-.03.14-.03.13-.03.13-.03.13-.02.13-.03.13-.02.13-.03.14-.02.13-.02.13-.02.13-.01.14-.02.13-.02.13-.01.13-.01.14-.02h.13l.14-.02h.13l.13-.01h.14l.13-.01h.27l.13-.01h.14zm-.32 4.75H111.88l-.1.01h-.08l-.1.01-.09.01h-.09l-.09.02h-.09l-.09.02-.09.01-.1.01-.08.02-.1.01-.08.01-.1.02-.08.02-.1.01-.09.02-.09.02-.09.02-.09.02-.09.02-.1.03-.08.02-.1.02-.08.03-.1.02-.09.03-.09.03-.09.02-.09.03-.1.03-.08.03-.1.04-.08.03-.1.03-.09.04-.09.03-.1.04-.08.03-.1.04-.09.04-.09.04-.09.04-.1.04-.08.04-.1.04-.09.05-.09.04-.1.05-.08.04-.1.05-.09.05-.1.05-.08.05-.1.05-.09.05-.1.05-.08.06-.1.05-.1.06-.08.05-.1.06-.09.06-.1.06-.09.06-.09.06-.1.06-.08.06-.1.06-.1.07-.08.06-.1.07-.1.07-.08.06-.1.07-.1.07-.08.07-.1.07-.1.08-.08.07-.1.07-.1.08-.09.07-.09.08-.1.08-.09.08-.09.08-.1.07-.18.17-.19.17-.18.17-.2.17-.18.18-.18.18-.2.19-.18.19-.18.19-.19.2-.19.2-.18.2-.19.2-.18.21-.19.21-.18.22-.19.22-.18.22-.19.23-.18.23-.18.24-.19.23-.18.24-.18.25-.19.25-.18.25-.18.25-.18.26-.18.26-.18.26-.18.27-.18.27-.18.28-.18.27-.18.28-.17.29-.18.29-.18.29-.17.29-.18.3-.17.3-.18.3-.17.3-.18.31-.17.32-.17.31-.17.32-.17.32-.17.33-.17.33-.17.33-.17.33-.17.34-.17.34-.16.34-.17.34-.17.35-.16.35-.16.36-.17.36v.02l-.16.34-.16.36-.16.37-.17.36-.16.38-.15.37-.16.38-.16.38-.16.38-.16.39-.15.38-.16.4-.15.39-.15.4-.16.4-.15.4-.15.4-.15.4-.15.42-.15.41-.15.42-.14.41-.15.42-.14.43-.15.42-.14.43-.15.43-.14.43-.14.44-.14.44-.14.44-.14.44-.14.45-.13.45-.14.45-.13.45-.14.45-.13.46-.13.46-.14.46-.13.47-.13.46-.12.47-.13.48-.13.47-.12.48-.13.47-.12.48-.13.49-.12.48-.12.49-.12.49-.12.5-.12.49-.11.5-.12.49-.12.5-.11.5-.11.5-.12.51-.1.51-.12.51-.1.52-.11.51-.11.52-.1.52-.11.52-.1.52-.11.53-.1.53-.1.52-.1.54-.1.53-.1.53-.1.54-.09.54-.1.54-.09.54-.09.55-.1.54-.08.55-.09.55-.09.55-.08.56-.09.55-.08.56-.09.56-.08.56-.08.56-.08.56-.08.57-.07.56-.08.57-.08.57-.07.58-.07.57-.07.58-.07.57-.07.58-.07.58-.07.58-.06.59-.07.58-.06.6-.06.58-.06.59-.06.59-.04.37-.02.22-.06.6-.05.6-.06.59-.05.6-.05.6-.05.6-.05.6-.05.6-.05.61-.05.6-.04.62-.04.6-.04.62-.05.61-.03.61-.04.62-.04.61-.04.62-.03.62-.03.62-.03.62-.03.62-.03.63-.03.62-.03.63-.02.62-.02.63-.03.63-.02.63-.02.63-.01.64-.02.63-.02.64-.01.63-.01.64-.01.64-.01.64-.01.64v.64l-.01.64v.64l-.01.82v2.45l.01.82v.81l.02.82.01.81.02.82.02.81.02.81.02.81.03.81.02.81.03.81.03.8.04.81.03.8.04.81.04.8.05.8.04.8.05.8.05.8.05.8.06.8.05.79.06.79.07.79.06.79.07.78.06.79.07.78.08.78.07.78.08.78.08.78.08.77.08.77.09.77.09.77.09.77.09.76.1.76.1.76.09.76.1.75.1.76.11.75.1.75.12.74.11.74.12.75.11.73.12.74.12.73.12.73.13.73.13.72.13.72.13.72.13.72.03.16 17.96.09 39.7.2.44.01.06-.41.1-.72.11-.73.1-.72.11-.73.1-.74.1-.73.1-.74.09-.74.1-.74.09-.74.09-.75.09-.75.08-.75.09-.75.08-.76.08-.76.08-.76.07-.76.08-.76.07-.77.07-.77.06-.77.07-.77.06-.77.06-.78.04-.6.02-.17.06-.78.06-.78.06-.78.05-.79.06-.78.05-.79.05-.79.05-.79.04-.79.04-.8.04-.79.04-.8.04-.79.03-.8.03-.8.03-.8.03-.8.02-.8.02-.8.02-.81.02-.8.01-.81.02-.81V210l.01-.5v-.31l.02-.81.01-.81.01-.81v-.82l.01-.8v-3.27l-.01-.81v-.82l-.02-.64v-.64l-.02-.64v-.06l-.01-.58-.01-.63-.01-.64-.02-.64-.01-.63-.02-.63-.02-.64-.02-.63-.02-.63v-.18l-.02-.44-.02-.63-.02-.63-.02-.63-.03-.62-.02-.62-.03-.62-.03-.62-.03-.62-.02-.5v-.12l-.04-.62-.03-.62-.03-.61-.04-.61-.03-.62-.04-.6-.04-.62-.04-.6-.04-.61-.04-.6-.04-.61-.05-.6-.04-.6-.05-.6-.05-.6-.05-.6-.05-.6-.05-.6-.05-.58-.06-.6-.05-.59-.06-.58-.06-.59v-.05l-.06-.54-.06-.58-.06-.58-.06-.58-.06-.58-.07-.58-.06-.58-.07-.57-.07-.57-.07-.58-.07-.57-.07-.56-.07-.57-.08-.56-.07-.57-.08-.56-.08-.56-.08-.56-.08-.55-.08-.56-.08-.55-.08-.55-.09-.55-.08-.55-.09-.54-.09-.55-.09-.54-.09-.54-.09-.53-.1-.54-.08-.53-.07-.37-.03-.17-.1-.53-.09-.53-.1-.52-.1-.53-.1-.52-.1-.52-.1-.52-.1-.51-.1-.52-.1-.51-.11-.51-.1-.51-.12-.5-.1-.51-.12-.5-.1-.5-.12-.5-.11-.5-.11-.5-.12-.48-.11-.5-.12-.48-.12-.48-.12-.49-.12-.48-.12-.48-.12-.47-.12-.48-.13-.47-.12-.47-.13-.46-.12-.47-.13-.46-.13-.46-.13-.46-.13-.45-.13-.45-.13-.46-.13-.44-.14-.45-.13-.44-.14-.44-.13-.44-.14-.44-.14-.43-.14-.43-.14-.43-.14-.42-.14-.43-.14-.42-.14-.41-.15-.42-.14-.41-.15-.41-.14-.4-.15-.41-.15-.4-.15-.4-.15-.4-.15-.4-.15-.38-.15-.4-.15-.38-.16-.38-.15-.38-.16-.38-.15-.37-.16-.38-.16-.37-.15-.36-.16-.36-.16-.37-.16-.35-.16-.36-.17-.35-.16-.35-.16-.34-.16-.35-.17-.34-.16-.34-.17-.33-.16-.33-.17-.33-.17-.32-.17-.33-.16-.31-.17-.32-.17-.31-.17-.31-.17-.3-.18-.31-.17-.3-.17-.3-.17-.3-.18-.28-.17-.3-.18-.28-.17-.28-.18-.27-.17-.28-.01-.01-.17-.26-.18-.27-.17-.26-.18-.27-.18-.25-.18-.26-.18-.25-.18-.25-.17-.24-.18-.24-.19-.24-.18-.24-.18-.23-.18-.23-.18-.22-.18-.22-.18-.22-.19-.21-.18-.21-.18-.21-.19-.2-.18-.2-.18-.2-.19-.2-.18-.18-.18-.19-.19-.18-.18-.18-.19-.18-.18-.17-.19-.17-.18-.16-.1-.08-.09-.08-.09-.08-.09-.08-.1-.08-.09-.07-.09-.08-.09-.07-.1-.08-.08-.07-.1-.07-.09-.07-.1-.07-.08-.07-.1-.07-.09-.07-.09-.07-.1-.06-.09-.07-.09-.06-.09-.06-.1-.06-.08-.06-.1-.07-.09-.05-.09-.06-.1-.06-.08-.06-.1-.05-.09-.06-.09-.05-.1-.06-.08-.05-.1-.05-.09-.05-.09-.05-.09-.05-.09-.05-.1-.04-.08-.05-.1-.05-.09-.04-.09-.04-.09-.05-.09-.04-.1-.04-.08-.04-.1-.04-.08-.04-.1-.03-.09-.04-.09-.04-.09-.03-.09-.04-.09-.03-.09-.03-.1-.03-.08-.03-.1-.03-.08-.03-.1-.03-.08-.03-.1-.03-.08-.02-.1-.03-.09-.02-.09-.02-.09-.02-.09-.03-.09-.02-.09-.02-.09-.02-.09-.01-.09-.02-.09-.02-.1-.01-.08-.02-.1-.01-.08-.02h-.1l-.08-.02-.1-.01-.08-.01h-.1l-.09-.02h-.09l-.09-.01h-.09l-.09-.01h-.09l-.1-.01H112.25z"/><ellipse cx="111.36" cy="69.59" rx="25.84" ry="31.52" fill="#00a0dd"/><path d="M111.2 39.34h-.15l-.16.01h-.2l-.11.01-.16.01-.15.01-.16.01-.15.02h-.16l-.15.02-.16.02-.15.02-.15.01-.16.02-.15.02-.15.02-.15.03-.16.02-.15.03-.15.02-.15.03-.15.03-.15.03-.15.03-.15.03-.15.03-.15.03-.15.04-.14.04-.15.03-.15.04-.15.04-.14.04-.15.04-.15.04-.14.05-.15.04-.14.05-.15.05-.14.04-.15.05-.14.05-.15.05-.14.06-.14.05-.14.05-.15.06-.14.06-.14.05-.14.06-.14.06-.14.06-.14.06-.14.06-.14.07-.14.06-.13.07-.14.06-.14.07-.14.07-.13.07-.14.07-.13.07-.14.08-.13.07-.14.07-.13.08-.14.08-.13.07-.13.08-.13.08-.14.08-.13.08-.13.08-.13.09-.13.08-.13.09-.13.08-.13.09-.12.09-.13.09-.13.09-.13.09-.12.09-.13.09-.12.1-.13.09-.12.1-.13.09-.12.1-.12.1-.12.1-.13.1-.12.1-.12.1-.12.1-.12.1-.12.1-.12.1-.11.12-.12.1-.12.1-.12.12-.11.1-.12.12-.11.1-.12.12-.11.11-.11.12-.12.11-.1.12-.12.11-.11.12-.11.12-.11.11-.11.12-.02.02-.09.1-.1.12-.12.13-.1.12-.11.12-.1.12-.11.13-.1.12-.11.13-.1.13-.1.12-.1.13-.11.13-.1.13-.1.13-.1.14-.1.13-.1.13-.1.13-.1.14-.1.13-.09.14-.1.14-.09.13-.09.14-.1.14-.09.14-.09.14-.09.14-.09.14-.09.15-.09.14-.09.14-.09.15-.08.14-.09.15-.08.14-.1.15-.07.15-.09.15-.08.15-.08.15-.09.15-.08.15-.08.15-.08.15-.07.15-.08.16-.08.15-.08.16-.07.15-.08.16-.07.15-.07.16-.08.16-.07.16-.07.16-.07.16-.07.16-.07.16-.07.16-.06.16-.07.16-.07.17-.06.16-.07.16-.06.17-.06.16-.06.17-.07.17-.06.16-.05.17-.06.17-.06.17-.06.17-.05.16-.06.17-.05.18-.06.17-.05.17-.05.17-.05.17-.05.18-.05.17-.05.17-.05.18-.05.17-.04.18-.05.17-.04.18-.05.18-.04.17-.04.18-.04.18-.04.18-.04.18-.04.18-.04.18-.03.18-.04.18-.03.18-.04.18-.03.18-.03.19-.03.18-.03.18-.03.19-.03.18-.03.19-.02.18-.03.19-.02.18-.03.19-.02.18-.02.19-.02.19-.02.19-.02.18-.02.2-.02.18-.01.19-.02.19-.01.19-.02.19v.19l-.02.19v.19l-.02.2v.18l-.01.2-.01.19v.39l-.01.18V70.18l.01.2v.18l.02.2v.19l.02.2v.18l.02.2.01.19.01.19.02.19.01.19.02.19.02.19.02.18.02.2.02.18.02.19.02.19.02.18.03.19.02.19.03.18.02.19.03.18.03.19.03.18.03.18.03.19.03.18.04.18.03.18.04.19.03.18.04.18.04.18.04.18.04.18.04.17.04.18.04.18.04.18.05.17.04.18.05.18.04.17.05.18.05.17.05.17.05.18.05.17.05.17.05.17.05.18.06.17.05.17.06.17.06.17.05.16.06.17.06.17.06.17.06.16.06.17.06.16.06.17.07.16.06.17.07.16.06.16.07.16.07.16.07.16.06.16.07.16.07.16.08.16.07.16.07.15.07.16.08.16.07.15.08.16.07.15.08.15.08.15.08.16.07.15.08.15.08.15.09.15.08.15.08.14.08.15.09.15.08.14.06.1.03.05.08.14.09.15.09.14.08.14.1.14.08.15.1.14.08.14.1.13.08.14.1.14.1.14.08.13.1.14.1.13.09.14.1.13.1.13.09.13.1.13.1.13.1.13.1.13.1.13.1.13.1.12.1.13.1.12.1.13.1.12.11.12.1.12.11.12.1.12.11.12.11.12.11.12.1.12.12.11.1.12.12.11.1.11.12.12.1.1.12.12.11.1.11.12.12.1.11.11.12.11.11.1.12.11.11.1.12.1.11.11.12.1.12.1.12.1.12.1.12.1.12.1.12.1.12.09.12.1.12.08.12.1.12.09.12.09.13.09.12.09.12.09.13.08.12.09.13.08.12.09.13.08.13.08.12.09.13.08.13.08.13.07.12.08.13.08.13.07.13.08.13.07.13.08.13.07.13.07.13.07.13.07.14.07.13.06.13.07.13.06.14.07.13.06.14.06.13.06.13.06.14.06.13.06.14.06.14.05.13.06.14.05.14.06.13.05.14.05.14.05.14.05.13.05.14.04.14.05.14.04.14.05.14.04.14.04.14.04.14.04.14.04.14.04.14.04.15.03.14.04.14.03.14.03.15.03.14.03.14.03.15.03.14.03.14.02.15.03.14.02.15.02.14.02.15.02.14.02.15.02.14.02.15.01.15.02.14.01.15.02h.15l.15.02h.14l.15.01.15.01h.15l.15.01H111.96l.15-.01.15-.01.14-.01.15-.01.15-.01.15-.01.14-.02.15-.01.15-.02.14-.01.15-.02.14-.02.15-.02.14-.02.15-.03.14-.02.15-.02.14-.03.14-.03.15-.02.14-.03.14-.03.14-.03.15-.03.14-.04.14-.03.14-.04.14-.03.14-.04.14-.04.14-.04.14-.04.14-.04.14-.04.14-.04.14-.05.13-.04.14-.05.14-.05.14-.05.13-.05.14-.05.14-.05.13-.05.14-.05.13-.06.14-.05.13-.06.13-.06.14-.06.13-.06.13-.06.14-.06.13-.06.13-.06.13-.07.13-.06.13-.07.13-.07.13-.07.13-.07.13-.07.13-.07.13-.07.13-.07.12-.08.13-.07.13-.08.13-.07.12-.08.13-.08.12-.08.13-.08.12-.08.13-.08.12-.09.12-.08.12-.08.13-.1.12-.08.12-.08.12-.1.12-.08.12-.1.12-.08.12-.1.12-.09.12-.1.12-.09.11-.1.12-.1.12-.09.11-.1.12-.1.11-.1.12-.1.11-.1.12-.1.1-.1.12-.1.11-.11.11-.1.12-.12.1-.1.12-.11.1-.11.11-.11.11-.11.11-.11.1-.12.12-.1.1-.12.1-.12.11-.11.1-.12.11-.12.1-.11.1-.12.11-.12.1-.12.1-.12.1-.13.1-.12.1-.12.1-.13.1-.12.1-.13.1-.12.1-.13.09-.13.1-.13.09-.13.1-.13.09-.13.1-.13.08-.13.1-.13.09-.14.09-.13.09-.14.03-.05.06-.08.09-.14.08-.14.1-.13.08-.14.09-.14.08-.14.09-.14.08-.14.08-.14.09-.15.08-.14.08-.14.08-.15.08-.14.08-.15.08-.14.08-.15.08-.15.07-.15.08-.15.08-.14.07-.15.07-.16.08-.15.07-.15.07-.15.07-.15.07-.16.07-.15.07-.16.07-.15.07-.16.07-.16.06-.15.07-.16.06-.16.06-.16.07-.16.06-.16.06-.16.06-.16.06-.16.06-.16.06-.17.06-.16.05-.16.06-.17.06-.16.05-.17.05-.16.06-.17.05-.17.05-.16.05-.17.05-.17.05-.17.05-.17.04-.17.05-.17.04-.17.05-.17.04-.17.05-.18.04-.17.04-.17.04-.17.04-.18.04-.17.04-.18.03-.17.04-.18.03-.18.04-.17.03-.18.03-.18.04-.17.03-.18.03-.18.03-.18.02-.18.03-.18.03-.18.02-.18.03-.18.02-.18.02-.19.03-.18.02-.18.02-.18.02-.19.01-.18.02-.19.02-.18.01-.18.02-.19.01-.18.01-.2.01-.18.01-.18.01-.19.01-.19.01-.19v-.18l.01-.2v-.18l.01-.19v-1.71l-.01-.18v-.2l-.02-.18v-.19l-.01-.18-.01-.2-.01-.18-.02-.18v-.2l-.02-.18-.02-.18-.01-.19-.02-.18-.02-.19-.02-.18-.02-.18-.02-.19-.02-.18-.02-.18-.03-.18-.02-.19-.03-.18-.02-.18-.03-.18-.03-.18-.02-.18-.03-.18-.04-.18-.03-.17-.03-.18-.03-.18-.04-.18-.03-.17-.04-.18-.03-.17-.04-.18-.04-.17-.04-.18-.03-.11v-.06l-.05-.18-.04-.17-.04-.17-.05-.17-.04-.18-.04-.17-.05-.17-.05-.17-.04-.17-.05-.17-.05-.17-.05-.16-.05-.17-.05-.17-.05-.17-.06-.16-.05-.17-.05-.16-.06-.17-.05-.16-.06-.16-.06-.17-.06-.16-.06-.16-.06-.16-.06-.16-.06-.16-.06-.16-.06-.16-.07-.16-.06-.16-.07-.16-.06-.15-.07-.16-.07-.16-.06-.15-.07-.16-.07-.15-.07-.15-.07-.16-.07-.15-.07-.15-.07-.15-.07-.15-.08-.15-.07-.15-.07-.15-.08-.15-.08-.15-.07-.15-.04-.06-.04-.08-.08-.15-.07-.15-.08-.14-.08-.15-.08-.14-.08-.14-.08-.15-.08-.14-.08-.14-.09-.14-.08-.14-.08-.14-.09-.14-.08-.14-.08-.12-.01-.02-.08-.14-.1-.13-.08-.14-.08-.14-.1-.13-.08-.14-.09-.13-.09-.13-.09-.14-.09-.13-.09-.13-.1-.13-.08-.13-.1-.13-.09-.13-.1-.13-.09-.12-.1-.13-.1-.13-.09-.12-.1-.13-.1-.12-.1-.12-.1-.12-.1-.13-.1-.12-.1-.12-.1-.11-.1-.12-.1-.12-.04-.05-.06-.07-.1-.12-.1-.12-.1-.11-.1-.12-.11-.11-.1-.12-.11-.11-.1-.12-.11-.1-.1-.12-.12-.11-.1-.11-.11-.1-.11-.12-.11-.1-.11-.11-.11-.1-.11-.11-.11-.1-.11-.11-.12-.1-.11-.1-.11-.1-.12-.1-.11-.1-.12-.1-.11-.1-.12-.1-.12-.1-.11-.1-.12-.09-.12-.1-.12-.08-.12-.1-.12-.09-.12-.09-.12-.09-.12-.09-.12-.08-.13-.09-.12-.09-.12-.08-.13-.09-.12-.08-.13-.08-.12-.08-.13-.08-.12-.08-.13-.08-.13-.08-.13-.07-.12-.08-.13-.08-.13-.07-.13-.07-.08-.05-.05-.03-.13-.07-.13-.07-.13-.08-.13-.07-.13-.07-.13-.07-.14-.07-.13-.07-.13-.06-.14-.07-.13-.06-.13-.07-.14-.06-.13-.06-.14-.06-.14-.06-.13-.06-.14-.06-.14-.06-.14-.05-.14-.06-.14-.05-.14-.06-.14-.05-.14-.05-.14-.05-.14-.05-.14-.05-.15-.04-.14-.05-.14-.05-.15-.04-.14-.04-.15-.04-.14-.05-.15-.03-.14-.04-.15-.04-.15-.04-.15-.03-.15-.04h-.02l-.12-.03-.15-.04-.15-.03-.15-.03-.15-.03-.15-.03-.15-.03-.16-.03-.15-.03-.15-.02-.15-.03-.16-.02-.15-.02-.16-.02-.15-.02-.16-.02-.15-.02-.16-.02h-.02l-.14-.01h-.15zm.34-2.55l.18-.02h.17l.18-.02h.18l.17-.01h.18l.18-.01H114l.18.01.17.01.18.01.15.01h.02l.18.02.17.01.18.02.17.02.18.02.17.02.18.03.17.02.17.02.18.03.17.03.17.03.18.03.17.03.17.03.17.04.18.03.17.04.17.04.17.04.17.04.17.04.17.05.17.04.17.05.17.04.17.05.17.05.17.05.17.06.17.05.16.05.17.06.17.06.16.05.17.06.17.07.16.06.17.06.16.07.17.06.06.03.1.04.16.07.16.07.17.08.16.07.16.08.16.08.16.07.16.08.16.08.15.09.16.08.16.08.16.09.15.08.16.1.15.08.16.09.15.09.16.1.15.08.15.1.16.1.15.09.15.1.15.1.15.1.15.1.15.1.15.1.15.1.15.1.14.11.15.1.15.12.14.1.15.11.14.12.15.1.14.12.14.11.15.12.14.11.14.12.14.12.14.12.14.12.14.12.14.12.13.12.14.13.14.12.13.13.14.12.13.13.14.13.07.08.06.05.13.13.13.14.13.13.12.14.13.13.13.14.12.14.13.14.12.14.13.14.12.14.12.14.12.15.12.14.12.15.12.14.12.15.12.15.12.14.12.16.11.14.12.16.11.15.11.15.12.15.1.16.12.15.11.16.11.16.11.15.02.03.09.13.1.16.1.16.11.17.1.16.1.16.11.17.1.16.1.17.1.16.1.17.1.17.1.16.09.17.1.17.05.1.04.07.1.18.08.17.1.17.08.18.1.17.08.18.09.17.08.18.09.18.08.17.09.18.08.18.08.18.08.18.08.18.08.19.08.18.07.18.08.19.07.18.07.19.08.18.07.19.07.19.07.18.07.2.07.18.06.2.07.18.06.2.07.18.06.2.06.19.06.19.06.2.06.19.06.2.06.19.06.2.05.19.06.2.05.19.05.2.05.2.06.2.05.2.04.2.05.2.05.2.04.2.02.06.03.14.04.2.04.2.05.2.04.2.03.2.04.21.04.2.04.21.03.2.04.22.03.2.03.2.03.22.03.2.03.21.03.2.03.22.02.2.03.22.02.2.02.22.02.2.02.22.02.21.02.21.02.21.01.22.02.21.01.21.02.22v.21l.02.21v.22l.02.21v.44l.02.21v1.74l-.01.21v.22l-.02.21v.22l-.01.21-.02.22v.21l-.02.22-.02.21-.01.21-.02.22-.01.21-.02.21-.02.21-.02.21-.03.22-.02.2-.02.22-.03.2-.02.22-.03.2-.03.21-.03.21-.03.2-.03.22-.03.2-.04.21-.03.2-.04.21-.03.2-.04.21-.04.2-.04.2-.04.21-.04.2-.04.2-.05.2-.04.21-.05.2-.04.2-.05.2-.05.2-.05.2-.05.2-.05.2-.05.2-.06.19-.05.2-.06.2-.05.19-.06.2-.06.19-.06.19-.06.2-.06.19-.06.19-.06.19-.07.19-.06.19-.07.19-.06.19-.07.19-.07.19-.07.18-.07.2-.07.18-.07.18-.07.19-.08.18-.07.19-.08.18-.07.18-.08.18-.08.18-.08.19-.08.18-.08.18-.08.17-.09.18-.08.18-.08.18-.09.17-.08.18-.1.17-.08.18-.09.17-.09.18-.09.17-.09.17-.1.17-.08.17-.1.17-.1.17-.09.17-.1.16-.1.17-.09.17-.1.16-.1.17-.1.16-.1.16-.1.17-.1.16-.1.16-.1.16-.11.16-.11.16-.1.15-.07.1-.04.06-.11.16-.11.15-.11.16-.11.15-.11.16-.11.15-.12.15-.11.15-.12.15-.11.15-.12.15-.11.14-.12.15-.12.15-.12.14-.12.15-.12.14-.12.14-.12.14-.12.14-.12.14-.13.14-.12.14-.13.14-.12.14-.13.13-.13.14-.13.13-.12.13-.13.13-.13.14-.13.13-.14.13-.13.12-.13.13-.13.13-.14.12-.13.13-.14.12-.14.12-.13.13-.14.12-.14.12-.14.12-.14.11-.14.12-.14.12-.14.11-.14.12-.14.11-.14.11-.15.11-.14.11-.15.11-.14.11-.15.11-.15.1-.14.11-.15.1-.15.1-.15.11-.15.1-.15.1-.15.1-.15.1-.15.1-.16.1-.15.09-.15.09-.16.1-.15.08-.16.1-.15.08-.16.1-.16.08-.16.08-.15.09-.16.08-.16.09-.16.08-.16.08-.16.08-.16.08-.17.07-.16.08-.16.07-.16.08-.17.07-.16.07-.17.07-.16.07-.17.07-.16.06-.17.07-.17.06-.17.06-.16.07-.17.06-.17.06-.17.05-.17.06-.17.06-.17.05-.17.05-.17.05-.18.05-.17.05-.17.05-.18.05-.17.04-.17.05-.18.04-.17.04-.18.04-.17.04-.18.04-.18.03-.17.04-.18.03-.18.04-.17.03-.18.03-.18.02-.18.03-.18.03-.18.02-.18.02-.18.03-.18.02-.18.01-.18.02-.18.02-.18.01-.18.02H113l-.18.02h-.18l-.18.01-.19.01h-.18l-.18.01H110.8l-.13-.01h-.05l-.19-.01-.18-.01-.18-.01-.18-.02-.19-.01-.18-.02-.18-.01-.18-.02-.18-.02-.18-.02-.18-.02-.18-.02-.18-.03-.18-.03-.18-.02-.18-.03-.17-.03-.18-.03-.18-.04-.17-.03-.18-.03-.18-.04-.17-.04-.18-.04-.17-.04-.18-.04-.17-.04-.17-.05-.18-.04-.17-.05-.17-.05-.17-.05-.17-.05-.17-.05-.18-.05-.16-.06-.17-.05-.17-.06-.17-.06-.17-.06-.17-.06-.16-.06-.17-.06-.17-.07-.16-.06-.17-.07-.16-.07-.17-.07-.16-.07-.16-.07-.16-.07-.17-.07-.16-.08-.16-.07-.16-.08-.16-.08-.16-.08-.16-.08-.15-.08-.16-.08-.16-.08-.16-.09-.15-.09-.16-.08-.15-.09-.16-.09-.15-.09-.15-.09-.16-.1-.15-.09-.15-.1-.15-.09-.15-.1-.15-.09-.15-.1-.15-.1-.14-.1-.15-.1-.15-.1-.14-.1-.15-.11-.14-.1-.15-.12-.14-.1-.14-.11-.15-.11-.14-.11-.14-.11-.14-.12-.14-.11-.14-.11-.14-.12-.13-.12-.14-.11-.14-.12-.13-.12-.14-.12-.13-.12-.14-.13-.13-.12-.13-.12-.13-.13-.13-.12-.13-.13-.13-.13-.13-.12-.13-.13-.13-.13-.13-.14-.12-.13-.13-.13-.12-.13-.13-.14-.12-.13-.12-.14-.12-.14-.13-.13-.12-.14-.12-.14-.11-.14-.12-.14-.12-.15-.12-.14-.11-.14-.12-.15-.11-.14-.12-.15-.11-.15-.11-.14-.12-.15-.1-.15-.12-.15-.1-.15-.11-.15-.11-.15-.1-.16-.12-.15-.1-.16-.1-.15-.1-.16-.11-.15-.1-.16-.1-.16-.1-.16-.1-.16-.1-.16-.1-.16-.1-.16-.1-.16-.1-.17-.1-.16-.09-.16-.09-.17-.03-.05-.06-.12-.1-.16-.09-.17-.09-.17-.09-.17-.08-.17-.1-.17-.08-.17-.08-.17-.09-.17-.08-.17-.09-.18-.08-.17-.08-.17-.08-.18-.08-.17-.08-.18-.08-.18-.08-.17-.07-.18-.08-.18-.07-.18-.08-.18-.07-.18-.07-.18-.08-.18-.07-.19-.07-.18-.06-.18-.07-.19-.07-.18-.06-.19-.07-.18-.06-.19-.07-.18-.06-.2-.06-.18-.06-.19-.06-.19-.06-.19-.06-.19-.05-.19-.06-.19-.05-.19-.06-.19-.05-.2-.05-.19-.05-.19-.05-.2-.05-.19-.05-.2-.05-.19-.04-.2-.05-.19-.04-.2-.05-.2-.04-.19-.04-.2-.04-.2-.04-.2-.04-.2-.03-.2-.04-.2-.04-.2-.03-.2-.03-.2-.04-.2-.03-.2-.03-.2-.03-.2-.03-.21-.02-.2-.03-.21-.02-.2-.03-.21-.02-.2-.02-.21-.02-.2-.02-.21-.02-.21-.02-.2-.02-.22-.01-.2-.02-.21-.01-.21-.01-.21-.02-.2v-.22l-.01-.2-.01-.22-.01-.21v-.21l-.01-.21v-1.91l.01-.22v-.2l.02-.22v-.2l.02-.22v-.21l.02-.21.01-.2.02-.22.01-.2.02-.22.02-.2.02-.21.02-.2.02-.22.02-.2.02-.2.03-.21.02-.2.03-.21.03-.2.02-.21.03-.2.03-.2.04-.21.03-.2.03-.2.04-.2.03-.2.04-.2.03-.2.04-.2.04-.2.04-.2.04-.2.05-.2.04-.2.04-.2.05-.2.04-.19.05-.2.05-.19.05-.2.05-.19.05-.19.05-.2.05-.18.06-.2.05-.19.06-.19.05-.19.06-.19.06-.19.06-.18.06-.2.06-.18.06-.19.07-.18.06-.19.06-.18.07-.19.07-.18.06-.19.07-.18.07-.18.07-.18.07-.18.07-.18.08-.18.07-.18.08-.18.07-.18.08-.18.07-.17.08-.18.08-.17.08-.18.08-.17.08-.18.08-.17.09-.17.08-.17.08-.17.09-.17.09-.17.08-.17.1-.17.08-.17.09-.17.09-.16.09-.17.1-.16.08-.17.1-.16.1-.16.09-.17.1-.16.09-.16.1-.16.1-.16.1-.16.1-.15.1-.16.1-.16.1-.15.1-.16.1-.15.1-.15.11-.16.1-.15.11-.15.11-.15.1-.15.12-.15.1-.15.12-.14.1-.15.12-.14.11-.15.11-.14.12-.15.11-.14.11-.14.12-.14.12-.14.11-.14.12-.14.12-.13.12-.14.12-.14.12-.13.12-.13.12-.14.12-.13.13-.13.1-.12.02-.01.13-.13.12-.13.13-.13.12-.12.13-.13.13-.13.13-.12.12-.12.13-.13.13-.12.14-.12.13-.12.13-.12.13-.11.14-.12.13-.12.13-.11.14-.11.13-.12.14-.11.14-.11.14-.11.13-.11.14-.1.14-.12.14-.1.14-.1.14-.11.14-.1.15-.1.14-.1.14-.1.15-.1.14-.1.14-.1.15-.1.15-.1.14-.09.15-.1.15-.08.14-.1.15-.09.15-.08.15-.1.15-.08.15-.08.15-.09.16-.08.15-.09.15-.08.15-.08.16-.08.15-.07.16-.08.15-.08.16-.07.15-.08.16-.07.16-.07.15-.07.16-.07.16-.07.16-.06.16-.07.16-.07.16-.06.16-.06.16-.06.16-.06.16-.06.16-.06.17-.06.16-.05.16-.06.17-.05.16-.05.16-.05.17-.05.16-.05.17-.04.17-.05.16-.04.17-.05.17-.04.16-.04.17-.04.17-.04.17-.03.17-.04.17-.03.17-.04.17-.03.17-.03.17-.03.17-.03.17-.02.17-.03.17-.02.18-.03.17-.02.17-.02.17-.02.18-.01.17-.02.18-.01.17-.02.17-.01.18-.01.17-.01.18-.01h.17l.18-.01h.35l.18-.01h.36l.15-.01h.02z"/><path d="M124.45 65.83l.28.12.35.16.33.15.16.07.16.08.16.08.15.07h.02l.13.08.15.07.15.08.15.07.14.08.14.07.13.08.14.07.14.08.13.07.13.07.12.08.13.07.12.08.12.07.12.07.11.08.12.07.11.07.11.08.1.07.12.07.1.08.1.07.1.07.1.08.1.07.1.07.09.08.09.07.09.08.09.07.08.08.09.07.08.08.08.08.08.08.08.07.07.08.08.08.07.08.07.08.07.08.07.09.06.08.07.08.06.09.06.09.06.08.06.1.05.08.06.1.05.08.05.1.05.1.04.09.05.1.04.1.04.1.03.1.04.1.03.11.03.1.02.11.02.11.02.12.02.1.01.12.01.11v.58l-.03.11v.12l-.03.11-.02.11-.03.11-.03.11-.03.11-.04.1-.04.11-.04.1-.05.1-.04.1-.05.1-.06.1-.05.09-.06.09-.05.08-.06.09-.06.08-.06.08-.07.08-.06.07-.06.08-.07.07-.06.07-.07.07-.07.06-.07.06-.06.07-.07.06-.07.05-.07.06-.07.06-.07.05-.07.05-.08.06-.13.1-.14.09-.15.09-.13.07-.01.01-.14.08-.15.08-.14.07-.15.07-.14.07-.15.06-.15.06-.14.06-.15.06-.15.06-.14.05-.15.05-.14.05-.15.05-.15.04-.14.05h-.01l-.14.04-.14.04-.15.03-.14.04-.14.03-.15.04h-.03l-.11.03-.14.02-.14.03-.14.02-.14.02h-.02l-.12.02-.17.01H124.8l-.07-.02-.26-.04-.22-.04h-.03l-.24-.1-.23-.09-.21-.09-.2-.08-.06-.02-.13-.09-.17-.1-.16-.11-.14-.1-.1-.05-.12-.11-.14-.12-.03-.02-.02-.02-.03-2.54h.01l.03-.04.1-.12.12-.11.07-.07.1-.1.13-.11.14-.13.1-.1.05-.03.16-.1.16-.12.18-.12.18-.13.02-.01.17-.08.19-.1.05-.02.15-.04.07-.03.14-.02.08-.02h.02l.1-.01.1-.02h.11l.11-.02.08-.01h.03l.1-.02h.1l.1-.02.11-.02.1-.01.1-.01.1-.02.1-.01.1-.01.1-.02.09-.01.09-.02.09-.02.08-.01.08-.02.08-.02.08-.02.07-.01.07-.02.06-.02.06-.02.06-.01h.02l-.03-.06-.03-.05-.04-.06-.04-.06-.05-.06-.04-.06-.05-.06-.05-.07-.05-.06-.05-.07-.06-.07-.06-.07-.06-.07-.06-.07-.07-.08-.07-.07-.07-.08-.07-.08-.08-.08-.08-.08-.08-.08-.08-.09-.09-.08-.09-.09-.09-.08-.1-.1-.09-.08-.1-.1-.1-.08-.1-.1-.1-.1-.12-.09-.1-.1-.12-.1-.12-.09-.1-.09-.02-.01-.12-.1-.12-.1-.13-.11-.12-.1-.27-.22-.28-.22-.24-.19-.05-.04-.45-1.74 1.74-.44.07.02zm2.85 6.44v.07-.02.07-.01l.01-.01v.07-.03l.01.07v-.02l.01-.01v.06l.01-.01v-.02l.01.06v-.04l.02.06v-.05l.01.05v-.05l.02.05v-.03l-.01-.03.02.04-.01-.03v-.04l.01.05-.01-.04v-.06l-.01-.03-.01-.02-.01-.03-.01-.04-.01-.03-.02-.04-.02-.03v-.01l-.02.06.02-.04-.02.07zm0-.05v-.04.04zM88.26 207.65l-.01-.06-.03-.3-.04-.37-.03-.36-.04-.37-.03-.37-.03-.37-.02-.37-.03-.37-.03-.38-.02-.37-.02-.38-.02-.38-.02-.38-.02-.38-.01-.39-.02-.38-.01-.39-.01-.38-.01-.4-.01-.38-.01-.4v-.38l-.01-.4V196.16l.01-.41.01-.4.01-.41.01-.4.01-.41.02-.41.01-.41.02-.41.02-.41.01-.42.02-.41.03-.41.02-.42.02-.42.03-.41.02-.42.03-.42.03-.42.03-.42.03-.42.03-.43.04-.42.03-.42.04-.43.03-.43.04-.42.04-.43.04-.43.05-.43.04-.43.04-.43.05-.43.04-.43.05-.43.05-.43.05-.44.05-.43.05-.43.06-.44.05-.44.06-.43.05-.44.06-.44.06-.43.06-.44.06-.44.06-.44.06-.44.06-.44.07-.44.06-.44.07-.44.07-.44.06-.44.07-.44.07-.45.08-.44.07-.44.07-.44.04-.21.04-.24.07-.44.08-.44.08-.45.07-.44.08-.45.08-.44.08-.44.09-.45.08-.44.08-.45.09-.44.08-.45.09-.44.09-.45.08-.44.1-.45.08-.44.1-.45.08-.44.1-.45.09-.44.1-.45.09-.44.1-.44.09-.45.1-.44.1-.45.09-.44.1-.44.1-.45.1-.44.16-.68.04-.2.2-.89.22-.88.21-.88.21-.88.22-.88.22-.87.23-.88.22-.87.23-.87.23-.87.23-.86.23-.87.24-.86.24-.85.24-.86.18-.64.06-.21.25-.85.25-.84.25-.85.25-.83.25-.84.26-.83.25-.83.26-.82.26-.82.26-.81.27-.81.26-.81.27-.8.26-.8v-.01l.27-.78.27-.78.28-.79.27-.77.28-.77.27-.77.28-.75.28-.76.28-.74.29-.75.25-.65.03-.08.3-.72.28-.72.31-.71.3-.7.04-.07.29-.62.32-.68.32-.68.32-.66.08-.17.25-.48.35-.65.34-.63.34-.63.34-.62.34-.6.34-.61.34-.6.36-.57.18-.29.18-.28.18-.28.17-.28.18-.28.18-.27.17-.27.18-.27.18-.27.17-.27.01-.02.17-.23.18-.26.18-.26.18-.25.18-.25.13-.18.05-.07 1.71-.54.55 1.71-.03.08-.07.2-.1.3-.1.28-.09.29-.1.29-.08.27v.02l-.11.3-.1.3-.1.29-.1.3-.11.3-.1.3-.1.3-.1.31-.11.31-.1.31-.2.63v.01l-.23.62-.23.64-.22.64-.23.65-.22.66-.23.66-.22.68-.17.5-.06.17-.25.68-.25.68-.25.7-.22.63-.02.06-.27.7-.26.7v.01l-.27.7-.27.72-.03.08-.25.63-.29.72-.28.73-.28.74-.27.72v.01l-.3.75-.27.75-.29.75-.28.76-.28.77-.27.75v.02l-.29.77-.28.78-.28.79-.28.78-.28.8-.27.8-.28.8-.27.8-.27.8-.27.82-.27.82-.27.82-.27.82-.26.83-.06.2-.2.63-.27.83-.26.84-.26.84-.25.84-.26.84-.25.85-.25.84-.25.85-.25.86-.24.85-.24.86-.24.86-.24.86-.23.86-.23.86-.05.2-.18.66-.12.43-.1.44-.12.43-.11.43-.11.43-.11.44-.11.43-.11.43-.11.44-.1.43-.11.44-.11.43-.1.43-.1.44-.11.43-.1.44-.1.43-.1.43-.1.44-.1.43-.1.44-.1.43-.1.43-.1.44-.09.43-.1.44-.09.43-.09.43-.09.44-.1.43-.08.43-.05.23-.04.2-.09.44-.08.43-.1.43-.08.43-.08.43-.08.43-.09.44-.08.43-.08.43-.08.43-.08.42-.07.43-.08.43-.08.43-.07.43-.07.42-.08.43-.07.43-.07.42-.07.43-.06.42-.07.43-.07.42-.06.42-.06.43-.07.42-.06.42-.06.42-.06.42-.06.42-.05.42-.06.41-.05.42-.06.42-.05.41-.05.42-.05.4-.05.42-.04.42-.05.4-.05.42-.04.4-.04.42-.04.4-.04.41-.04.4-.04.41-.03.4-.04.4-.03.41-.04.4-.03.4-.03.4-.02.4-.03.4-.03.4-.02.39-.02.4-.02.38-.02.4-.01.14-.01.25-.02.39-.02.38-.01.39-.02.39v.38l-.02.38v.39l-.02.38v.75l-.01.38V203.1l.01.37v.37l.01.36.01.37.02.36v.36l.02.36.02.36.02.35.02.36.02.35.01.3v.05l.03.35-1.15 1.39L88.3 208l-.03-.36zM146.44 154.55l.02.04.08.12.1.16.09.17.1.16.1.16.03.05.06.1.09.17.1.16.08.15.1.16.09.16.1.16.09.15.1.16.09.15.1.15.1.16.08.15.08.16.09.15.09.16.09.15.09.16.08.15.1.15.09.15.09.15.09.16.1.15.09.14.09.15.1.15.09.15.03.04.06.11.08.15.1.15.08.16.09.15.09.15.08.15.1.15.09.14.04.08.04.08.09.15.09.15.08.15.1.15.02.05.06.1.08.16.09.15.08.15.09.15.01.03.07.13.09.15.08.15.09.16.08.15.1.15.08.16.09.15.09.15.09.16.1.15.04.08.04.07.1.15.09.16.1.15.09.15.1.16.09.15.1.15.09.15.1.16.1.15.1.15.1.15.1.15.08.13.02.03.1.15.1.15.11.15.1.16.11.15.1.15.22.3.22.3.22.31.23.3.23.31.23.3.23.3.24.31.24.3.25.3.25.31.25.3.26.3.24.3.02.01.26.3.26.31.27.3.27.31.27.31.28.3.28.31.29.31.29.3.29.32.3.3.3.31.3.31.3.31.31.3.31.32.32.31.32.31.06.06.26.25.33.32.33.3.33.32.33.32.34.31.35.32.34.32.35.31.36.32.35.32.36.32.37.32.36.32.37.32.38.33.37.32.17.14.21.19.39.32.38.33.4.33.39.33.4.33.4.33.4.33.4.34.42.33.41.34.42.34.42.34.42.34.43.34.43.34.44.34.43.35.44.34.45.35.45.35.45.35.45.35.46.35.46.36.47.36.37.28.1.07.47.36.47.36.96.73.97.74.99.74.81.61.19.14.32 1.77-1.77.31-.2-.12-.85-.56-1.04-.67-1.03-.67-1.02-.66-.5-.33-.5-.32-.1-.07-.39-.26-.5-.33-.48-.32-.48-.33-.49-.32-.47-.32-.48-.32-.47-.32-.47-.32-.46-.32-.47-.32-.46-.32-.45-.31-.45-.32-.45-.3-.45-.32-.44-.31-.44-.32-.44-.3-.43-.32-.43-.3-.43-.32-.42-.3-.42-.31-.41-.31-.42-.3-.23-.18-.18-.13-.4-.31-.4-.3-.4-.32-.4-.3-.4-.3-.4-.31-.38-.3-.38-.31-.38-.3-.38-.31-.38-.3-.37-.31-.37-.3-.36-.31-.37-.3-.35-.3-.3-.26-.06-.05-.35-.31-.35-.3-.35-.31-.34-.3-.34-.31-.34-.31-.33-.3-.33-.32-.33-.3-.32-.31-.32-.3-.32-.32-.32-.3-.3-.32-.32-.3-.3-.32-.3-.3-.3-.32-.02-.02-.28-.3-.29-.3-.29-.32-.28-.32-.28-.32-.28-.31-.28-.32-.27-.32-.27-.32-.27-.32-.26-.33-.26-.32-.25-.32-.26-.33-.12-.16-.13-.16-.12-.17-.12-.16-.13-.16-.12-.17-.02-.03-.1-.13-.12-.17-.12-.16-.11-.17-.12-.17-.11-.16-.12-.17-.11-.17-.12-.17-.1-.16-.12-.17-.11-.17-.11-.17-.1-.17-.06-.07-.06-.1-.1-.17-.1-.17-.11-.17-.1-.17-.1-.17-.1-.18-.11-.17-.1-.17-.1-.17-.1-.18-.08-.15-.02-.02-.09-.18-.09-.17-.1-.18-.08-.18-.06-.12-.03-.06-.08-.18-.09-.18-.08-.18-.08-.18-.04-.08-.04-.1-.07-.19-.07-.18-.07-.19-.07-.18-.07-.19-.07-.19-.06-.18-.07-.19-.05-.13-.01-.06-.06-.19-.05-.19-.05-.2-.05-.18-.05-.2-.05-.19-.04-.2-.05-.18-.05-.2-.04-.19-.04-.2-.05-.19-.04-.19-.04-.2-.04-.19-.04-.18-.02-.2-.03-.2-.02-.2-.03-.2-.02-.2-.02-.2-.02-.2-.02-.2-.01-.2-.02-.19-.02-.2v-.2l-.01-.2v-.2l-.01-.2V155.2l.9-1.55 1.55.9zM163.35 293.21h.13l.13.02h.13l.14.01.13.01.13.02.13.01.13.02.14.02.13.02.13.02.13.03.13.02.14.03.13.03.22.06.22.06.22.06.21.07.22.07.21.07.22.07.2.08.22.08.2.08.21.08.2.08.21.1.2.08.2.1.2.09.2.1.2.09.19.1.2.1.18.1.2.11.18.11.18.11.19.11.18.12.18.11.18.12.17.12.18.12.17.12.17.13.07.06.1.06.16.13.17.13.16.13.16.13.16.14.15.13.16.14.15.14.15.14.14.14.15.14.14.14.14.15.14.15.14.14.13.15.14.15.13.15.12.15.13.16.12.15.12.16.12.15.11.16.12.16.1.16.12.16.1.16.1.16.1.17.1.16.1.16.09.17.09.17.09.16.08.17.08.17.08.17.08.17.07.17.07.17.07.18.06.17.06.17.06.18.05.17.06.18.04.17.05.18.04.18.04.18.03.17.04.18.02.18.03.18.02.18.02.18v.17l.01.1v.09l.01.09V306.85l-.01.09-.01.09v.09l-.02.09v.09l-.02.09v.09l-.02.09-.02.09-.01.09-.02.08-.01.1-.02.08-.02.1-.02.08-.03.09-.02.09-.02.08-.03.1-.02.08-.03.09-.03.08-.03.09-.03.09-.03.08-.04.09-.03.08-.04.09-.03.08-.04.09-.04.08-.04.09-.04.08-.04.08-.04.08-.05.09-.04.08-.05.08-.05.08-.05.08-.05.08-.05.08-.05.08-.06.07-.05.08-.06.08-.05.07-.06.08-.06.08-.06.07-.06.07-.06.08-.07.07-.06.07-.07.08-.06.07-.07.07-.07.07-.07.07-.07.06-.07.07-.07.07-.08.07-.08.06-.08.07-.08.07-.08.07-.08.06-.09.07-.08.06-.09.06-.08.06-.1.06-.08.06-.1.06-.08.06-.1.05-.09.06-.09.05-.1.06-.09.05-.1.05-.1.06-.09.05-.1.05-.1.05-.1.05-.1.04-.1.05-.1.05-.1.04-.11.05-.1.05-.11.04-.11.04-.21.09-.22.08-.22.08-.22.08-.23.08-.23.07-.23.07-.24.07-.23.07-.24.07-.24.06-.25.07-.25.06-.24.06-.26.05-.25.06-.25.05-.26.05-.26.05-.26.05-.27.05-.26.04-.27.04-.27.05-.27.04-.27.03-.27.04-.27.04-.28.03-.28.03-.27.03-.28.03-.28.03-.28.02-.28.03-.28.02-.29.02-.28.02-.28.02-.29.01-.28.02-.28.01-.29.02h-.28l-.29.02h-.28l-.29.01h-.56l-.27.01H157.7l-.28-.01h-.28l-.28-.01-.28-.01-.27-.01-.28-.02h-.27l-.28-.02-.27-.02-.26-.02-.27-.01-.27-.02-.26-.02-.27-.03-.26-.02-.25-.02-.26-.03-.25-.03-.26-.03-.25-.03-.24-.03-.25-.03-.24-.03-.24-.04-.24-.04-.23-.03-.24-.04-.22-.04-.23-.04-.22-.05-.22-.04-.22-.05-.21-.04-.22-.05-.2-.05-.2-.05-.2-.05-.2-.06-.2-.05-.19-.06-.18-.06-.19-.06-.18-.06-.17-.06-.18-.06-.16-.07-.17-.07-.16-.07-.08-.03-.08-.04-.08-.04-.07-.03-.08-.04-.07-.04-.08-.04-.07-.04-.07-.04-.07-.04-.07-.04-.05-.03-.02-.02-.07-.04-.07-.05-.06-.04-.07-.05-.06-.05-.07-.05-.06-.05-.05-.04-.18-1.79 1.78-.18.04.03.02.02.03.02.03.01.03.03.03.02.03.02.04.02.04.02.04.02.04.02.04.03.05.02.04.02.05.03.05.02.05.02.06.02.05.03.05.02.13.05.12.04.13.05.13.04.14.05.15.04.15.05.16.04.16.04.16.04.17.04.18.04.18.04.18.04.19.03.19.04.2.03.2.03.2.04.2.03.21.03.21.03.22.02.22.03.22.02.23.03.23.02.23.02.23.02.24.02.24.02.24.01.24.02.24.01.25.02h.25l.25.02h.26l.25.01h.26l.25.01h.26l.26.01h1.32l.27-.01.27-.01h.26l.27-.02h.27l.27-.02.27-.01.27-.02.26-.01.27-.02.27-.02.27-.02.27-.02.27-.02.26-.03.27-.02.27-.03.26-.03.26-.03.27-.03.26-.03.26-.04.26-.03.26-.04.25-.04.26-.03.25-.04.25-.05.25-.04.25-.04.24-.05.25-.05.24-.05.23-.05.24-.05.23-.05.23-.05.23-.06.23-.06.22-.05.22-.06.21-.06.21-.06.21-.07.2-.06.2-.07.2-.06.2-.07.19-.07.19-.07.18-.07.17-.07.18-.07.17-.08.08-.03.08-.04.08-.04.08-.03.07-.04.08-.04.07-.04.08-.03.07-.04.07-.04.07-.04.07-.04.06-.04.07-.03.06-.04.07-.04.06-.04.06-.04.05-.04.06-.04.06-.03.05-.04.05-.04.05-.04.05-.04.05-.04.05-.03.04-.04.04-.04.05-.04.04-.03.04-.04.04-.04.04-.04.04-.04.04-.04.04-.04.03-.04.04-.04.04-.05.03-.04.03-.04.04-.04.03-.04.03-.04.03-.04.03-.04.03-.05.03-.04.03-.04.03-.04.02-.04.03-.04.02-.05.03-.04.02-.04.02-.04.03-.04.02-.05.02-.04.02-.04.02-.04.02-.05.02-.04.02-.04.01-.05.02-.04.02-.04.01-.05.02-.04.01-.04.02-.05v-.04l.02-.05.01-.04.02-.05v-.04l.02-.05v-.04l.02-.05v-.04l.01-.05.01-.04.01-.05v-.05l.01-.04v-.05l.01-.05v-.04l.01-.05v-.1l.01-.05V306.24l-.01-.05v-.05l-.02-.1-.01-.11-.02-.1-.02-.11-.02-.11-.02-.1-.02-.11-.03-.11-.03-.11-.03-.11-.04-.11-.03-.12-.04-.1-.04-.12-.05-.11-.04-.12-.05-.11-.06-.12-.05-.11-.05-.12-.06-.11-.06-.12-.07-.11-.06-.12-.07-.11-.07-.12-.07-.11-.07-.12-.08-.12-.08-.11-.08-.12-.08-.11-.09-.12-.08-.11-.1-.11-.09-.12-.09-.11-.1-.11-.1-.12-.1-.1-.1-.12-.1-.1-.1-.12-.11-.1-.11-.12-.11-.1-.12-.11-.11-.1-.12-.11-.12-.1-.12-.1-.12-.11-.13-.1-.12-.1-.13-.1-.13-.1-.13-.1-.13-.09-.07-.05-.06-.04-.14-.1-.14-.09-.14-.09-.14-.08-.14-.1-.14-.08-.14-.08-.15-.09-.15-.08-.14-.08-.15-.08-.15-.07-.16-.08-.15-.07-.15-.07-.16-.07-.16-.07-.15-.07-.16-.06-.16-.07-.16-.06-.16-.06-.17-.05-.16-.06-.17-.05-.16-.05-.17-.05-.17-.05-.16-.04-.17-.05-.17-.04-.17-.04-.07-.01-.07-.01-.06-.02h-.07l-.07-.02h-.07l-.07-.01-.07-.01h-.08l-.07-.01H163.45l-.08-.01H163.06l-.08.01h-.08l-.09.01h-.08l-.08.02h-.09l-.08.02h-.09l-.08.02-.09.01-.09.02-.09.01-.09.02-.09.02-.09.02-.09.02-.09.02-.1.02-.08.02-.1.02-.1.03-.09.02-.1.03-.09.03-.1.02-.09.03-.1.03-.1.03-.1.03-.09.04-.1.03-.1.03-.1.04-.1.03-.2.08-.2.08-.2.08-.2.08-.21.09-.2.08-.21.1-.21.09-.2.1-.22.1-.2.1-.21.1-.21.1-.21.11-.21.1-.2.12-.22.11-.2.11-.22.12-.2.11-.21.12-.2.12-.1.06-.11.06-.2.12-.21.11-.2.12-.41.24-.4.24-.4.24-.4.24-.76.47-.38.23-.36.22-.37.22-.35.21-.17.1-.18.1-.17.1-.17.1-.17.1-.16.09-.17.09-.16.09-.17.08-.16.08-.16.08-.16.08-.16.07-.17.08-.16.06-.16.07-.16.06-.09.03-.08.03-.09.03-.09.02-.08.03-.1.02-.09.03-.09.02-.1.02-.09.02-.1.01-.1.02-.1.01h-.12l-.11.02h-.36l-.13-.02-.13-.01-.14-.02-.14-.03-.15-.04-.15-.05-.15-.06-.15-.06-.15-.08-.15-.09-.15-.1-.14-.1-.13-.12-.13-.13-.12-.13-.1-.14-.1-.14-.1-.14-.07-.14-.07-.15-.06-.14-.05-.14-.04-.14-.04-.13-.03-.14-.02-.13-.02-.12-.01-.12-.01-.12V301.2l.02-.1.01-.11.01-.11.02-.1.02-.11.01-.1.02-.11.03-.1.02-.11.02-.1.03-.11.03-.11.03-.11.03-.11.03-.11.03-.11.03-.11.04-.12.04-.11.04-.12.04-.12.08-.24.08-.24.04-.1.04-.1.03-.1.03-.1.04-.1.03-.11.03-.11.04-.11.03-.11.03-.12.03-.12.04-.12.03-.12.03-.12.03-.13.03-.13.03-.13.04-.13.03-.13.03-.14.03-.13.02-.14.06-.29.06-.3.06-.29.05-.29v-.01l.05-.32.06-.31.05-.33.05-.33.04-.34.05-.34.04-.35.05-.35.04-.36.04-.37.04-.36.04-.38.03-.38.04-.38.03-.39.03-.4.03-.39.03-.4.02-.4.03-.41.02-.41.02-.42.02-.42.02-.42.02-.42.02-.43v-.43l.02-.43.01-.44.01-.44v-.44l.01-.44.01-.44v-3.16l-.01-.45-.01-.46-.01-.45-.01-.46-.01-.46-.02-.46-.01-.46-.02-.38v-.07l-.02-.46-.02-.46-.02-.46-.02-.45-.02-.46-.03-.46-.02-.45-.03-.45-.03-.46-.02-.27v-.18l-.03-.45-.03-.45-.03-.44-.03-.35v-.1l-.03-.44-.03-.44-.03-.44-.03-.42v-.02l-.02-.44-.03-.43-.03-.43-.03-.43-.03-.42-.03-.43-.03-.42-.04-.41v-.1l-.03-.31-.02-.41-.03-.41-.03-.4-.03-.4-.04-.4-.03-.39-.04-.39-.03-.38-.04-.38-.05-.37-.04-.37-.04-.36-.05-.36-.05-.35-.05-.35-.02-.13-.03-.22-.04-.34-.04-.33-.05-.33-.05-.32-.02-.16-.03-.15-.02-.16-.03-.15-.03-.16-.03-.15-.02-.15-.03-.14-.03-.15-.03-.14-.03-.15-.03-.14-.03-.14-.03-.13-.03-.14-.03-.13-.04-.13-.03-.13-.03-.13-.01-.05-.02-.08-.04-.12-.03-.13-.03-.12-.03-.12-.03-.12-.04-.11-.03-.12-.04-.1-.03-.12-.04-.1-.03-.11-.04-.1-.03-.1-.04-.1-.04-.1v-.01l-.04-.1.48-1.72 1.73.47.06.08.01.02.08.1.07.12.08.1.08.12.07.12.08.11.07.12.08.12.07.12.07.13.08.13.07.12.07.13.08.13.07.14.04.08.03.05.07.14.07.14.06.14.07.14.07.15.07.14.06.15.07.15.07.15.06.15.07.15.06.16.07.16.06.15.07.16.06.17.06.16.07.16.06.17.12.33.13.34.12.35.12.35.08.22.04.14.1.37.11.37.11.37.1.38.1.39.1.39.1.39.1.4.1.4.1.4.1.42.09.41.1.42.08.42.1.43.06.32.02.1.07.44.07.44.07.44.07.44.07.44.06.45.07.45.06.46v.02l.05.43.06.46.04.46.05.46.01.1.03.37.04.46.04.47.04.47v.18l.03.29.02.47.03.47.02.48.02.47.03.47.01.48.02.48.02.47.01.48v.08l.01.4.01.47.01.48v.47l.01.48v2.83l-.02.47v.47l-.02.46v.47l-.02.46-.02.46-.02.46-.02.46-.02.45-.02.45-.03.45-.02.45-.03.45-.03.44-.03.44-.03.43-.04.44-.03.43-.04.42-.04.42-.04.42-.04.42-.05.41-.04.4-.05.41-.05.4-.05.4-.05.39-.06.39-.05.38-.06.38-.06.37-.06.37-.06.36-.06.36-.07.36-.07.35v.01l-.07.33-.07.34-.08.33-.07.32-.04.17-.04.16-.04.16-.04.16-.04.15-.04.16-.04.15-.05.15-.04.15-.04.15-.05.15-.04.15.12-.07.36-.2.38-.22.78-.45.41-.23.42-.24.42-.24.43-.24.23-.12.22-.12.22-.13.12-.06.1-.06.24-.12.22-.12.23-.12.24-.11.23-.12.24-.12.23-.12.24-.11.24-.11.24-.12.24-.1.24-.11.25-.11.24-.1.25-.11.24-.1.25-.1.25-.1.25-.09.25-.09.25-.09.25-.08.13-.04.13-.04.12-.04.13-.04.13-.04.12-.03.13-.04.13-.03.13-.04.13-.03.12-.03.13-.04.13-.03.13-.02.13-.03.13-.03.13-.03.13-.02.13-.02.13-.03.13-.02.13-.02.13-.01.13-.02.13-.02.13-.01.13-.02h.13l.13-.02h.13l.13-.01.14-.01h.66zm-17.1 6.9h.04l-.06.01h.04-.04.05-.04.05-.03zm.05 0zM82.56 292.43h.12l.12.01.12.01.12.01.12.01.12.02.11.01.12.02.12.02.12.02.12.03.12.03.12.03.12.03.11.04.12.03.12.05.12.04.11.05.12.05.11.05.17.08.17.09.16.09.17.09.16.1.16.09.15.1.16.1.15.1.15.1.14.12.15.1.14.12.14.11.14.12.14.11.13.12.13.12.13.13.13.12.12.13.13.12.12.13.12.13.12.14.11.13.11.13.12.14.1.14.11.13.1.14.11.14.1.15.1.14.1.14.1.15.1.14.08.15.1.14.08.15.1.15.08.15.08.15.08.15.08.15.08.15.08.15.07.16.08.15.07.15.07.16.07.15.06.15.07.16.03.06.03.1.06.15.07.15.05.16.06.16.06.15.05.16.06.15.05.16.05.16.05.15.04.16.05.15.04.16.05.15.04.16.04.15.04.16.04.15.03.16.04.15.03.16.03.15.03.15.03.15.03.16.02.15.03.15.02.15.03.15.02.15.02.14.02.15.01.15.02.15.01.14.02.15.01.14.01.14.01.15v.14l.02.14V306.78l.01.13v.54l-.01.13v.14l-.01.13-.01.13-.01.12-.01.13-.02.13-.01.12-.02.13-.01.12-.02.12-.02.12-.02.12-.03.12-.02.12-.03.12-.03.11-.03.12-.03.12-.03.1-.04.12-.04.11-.04.12-.04.1-.06.14-.05.14-.12.3-.13.32-.13.34-.07.18-.08.18-.07.19-.08.19-.09.19-.08.2-.1.2-.1.2-.09.19-.05.1-.06.1-.05.1-.05.1-.06.11-.06.1-.06.1-.06.1-.06.1-.06.11-.07.1-.06.1-.07.1-.07.1-.07.11-.08.1-.07.1-.08.1-.08.1-.08.1-.08.1-.08.1-.09.1-.09.09-.09.1-.09.09-.09.1-.1.09-.1.09-.1.09-.1.09-.1.08-.1.09-.12.08-.1.09-.12.08-.12.08-.12.08-.12.07-.12.08-.12.07-.13.07-.13.07-.13.06-.13.06-.14.07-.13.05-.14.06-.14.05-.15.05-.14.05-.15.05-.15.04-.15.04-.15.04-.16.03-.15.03-.16.03-.16.03-.17.02-.16.02-.16.02-.17.01-.17.01-.17.01H82.97l-.18-.01-.18-.02-.19-.01-.18-.02-.19-.03-.19-.02-.2-.03-.18-.03-.2-.04-.2-.04-.2-.04-.2-.05-.2-.04-.2-.06-.21-.05-.21-.06-.21-.06-.21-.07-.22-.06-.22-.08-.22-.07-.22-.08-.22-.08-.23-.09-.42-.16-.42-.16-.42-.16-.4-.16-.41-.16-.4-.16-.4-.16-.39-.16-.38-.16-.38-.15-.38-.16-.37-.15-.36-.16-.37-.15-.35-.16-.35-.15-.35-.15-.32-.15h-.03l-.34-.16-.33-.16-.33-.15-.33-.16-.32-.15-.31-.16-.32-.16-.3-.16-.31-.15-.3-.16-.3-.16-.3-.16-.28-.17-.29-.16-.27-.16-.15-.09-.13-.08-.14-.08-.14-.09-.13-.08-.14-.08-.13-.09-.13-.08-.13-.09-.13-.08-.13-.1-.13-.08-.13-.09-.12-.08-.13-.1-.12-.08-.13-.09-.12-.09-.12-.09-.12-.09-.12-.09-.12-.1-.12-.08-.12-.1-.11-.09-.12-.1-.11-.09-.12-.1-.11-.09-.11-.1-.11-.09-.11-.1-.11-.1-.1-.1-.12-.1-.1-.1-.1-.1-.11-.1-.1-.1-.1-.1-.11-.1-.1-.1-.1-.1-.1-.11-.1-.11-.1-.1-.1-.11-.09-.11-.1-.11-.09-.11-.09-.11-.1-.11-.08-.11-.1-.12-.08-.1-.09-.12-.09-.12-.08-.11-.02-.03-.07-.09-.09-.12-.08-.11-.08-.12.28-1.77 1.78.28.07.1.08.1.08.1.06.08.01.02.08.1.08.1.08.09.08.1.08.09.08.09.08.1.08.08.08.1.09.08.08.1.09.08.09.1.08.08.1.09.08.08.09.1.09.08.09.08.1.09.08.08.1.08.1.09.09.08.1.08.1.08.1.09.09.08.1.08.1.08.1.08.1.08.1.07.11.08.11.08.1.08.11.08.11.07.11.08.11.08.11.07.12.08.11.07.11.08.12.07.12.08.11.07.12.08.12.07.12.07.13.08.12.07.12.07.13.07.12.08.13.07.13.07.13.07.26.14.27.15.27.14.28.14.28.14.28.14.3.14.29.13.3.14.3.14.31.14.32.14.32.13.32.14.33.14.03.01.3.13.34.13.35.14.35.14.35.14.36.14.37.14.37.14.37.14.38.14.39.15.4.14.39.14.4.15.4.14.42.15.42.15.42.14.2.07.2.07.2.06.18.06.18.05.19.05.17.05.18.05.17.04.17.04.17.04.16.03.16.03.15.03.16.02.15.03.15.02.14.01.14.02.14.01.13.01h.14l.13.01h.71l.11-.02h.1l.11-.02.1-.01.1-.02.1-.02.1-.01.09-.02.09-.02.08-.03.09-.02.08-.03.08-.02.08-.03.08-.03.08-.03.07-.03.08-.03.07-.04.07-.03.07-.04.06-.03.07-.04.06-.04.07-.04.06-.04.06-.04.06-.04.06-.05.06-.04.05-.05.06-.04.05-.05.06-.05.05-.05.06-.05.05-.05.05-.06.05-.05.05-.06.05-.05.05-.06.05-.06.05-.06.04-.06.05-.06.05-.06.04-.07.05-.06.04-.07.05-.07.04-.06.04-.07.04-.07.05-.07.04-.07.04-.07.04-.07.04-.08.03-.07.04-.08.04-.07.04-.08.03-.07.04-.08.07-.16.07-.15.07-.16.06-.16.07-.16.06-.16.06-.17.06-.16.06-.16.12-.33.12-.32.11-.32.06-.16.05-.15.02-.04.01-.04.01-.04.02-.05v-.05l.02-.05.01-.05.01-.06.02-.06v-.06l.02-.07v-.07l.02-.07v-.07l.01-.08.01-.07V308l.01-.09v-.08l.01-.09v-.27l.01-.1V307l-.01-.1v-.1l-.02-.1v-.11l-.01-.1-.01-.12-.01-.1-.01-.12-.02-.1-.01-.12-.02-.12-.01-.11-.02-.12-.02-.11-.02-.12-.02-.12-.02-.12-.02-.12-.03-.12-.02-.12-.03-.12-.02-.12-.03-.12-.03-.12-.03-.12-.03-.13-.04-.12-.03-.12-.04-.13-.03-.12-.04-.12-.04-.13-.04-.12-.04-.13-.04-.12-.04-.12-.05-.13-.04-.12-.05-.12-.04-.12-.05-.13-.05-.12-.05-.12-.05-.12-.06-.12-.03-.07-.02-.05-.06-.12-.05-.12-.06-.12-.06-.12-.05-.11-.06-.12-.07-.11-.06-.12-.06-.11-.07-.11-.06-.12-.07-.1-.06-.12-.07-.1-.07-.11-.07-.1-.07-.11-.07-.1-.08-.11-.07-.1-.08-.1-.07-.1-.08-.1-.08-.1-.07-.1-.08-.09-.08-.09-.08-.09-.09-.09-.08-.09-.08-.08-.09-.09-.08-.08-.09-.08-.09-.08-.08-.08-.1-.08-.08-.07-.09-.07-.1-.08-.08-.06-.1-.07-.09-.07-.1-.06-.09-.07-.1-.06-.09-.06-.1-.05-.1-.06-.1-.05-.1-.05-.1-.05-.1-.05-.1-.05h-.02l-.02-.02h-.03l-.02-.01-.03-.01-.03-.01h-.03l-.03-.02H83l-.03-.02h-.08l-.04-.01h-.09l-.05-.01h-.49l-.06.01h-.06l-.07.01-.06.01-.07.01-.07.01-.07.01-.07.01-.07.02-.08.01-.07.02-.08.01-.07.02-.08.02-.08.01-.08.02-.08.02-.08.03-.08.02-.08.02-.09.03-.08.02-.09.03-.08.02-.18.06-.18.06-.18.07-.18.06-.18.08-.19.07-.19.08-.19.08-.19.08-.19.08-.2.1-.19.08-.2.1-.19.1-.2.09-.2.1-.2.1-.2.1-.19.1-.2.12-.2.1-.2.11-.2.11-.19.12-.16.09-.04.02-.2.11-.19.12-.19.11-.2.12-.18.11-.2.12-.18.12-.2.11-.18.12-.18.12-.19.11-.17.12-.36.23-.35.23-.33.22-.33.22-.31.22-.3.2-.3.2-.27.2-.26.18-.48.34-.4.3-.2.12-.16.12-.15.1-.14.1-.14.08-.08.06-.1.06-.16.07-.22.1-.29.08-.17.02-.3.03-.32-.02-.3-.06-.3-.1-.27-.13-.26-.17-.3-.27-.25-.31-.19-.36-.13-.38-.05-.34v-.34l.03-.33.05-.26.16-.36.14-.23.13-.18.1-.12.08-.08.07-.08.06-.06.07-.07.14-.14.16-.15.19-.18.21-.2.25-.23.28-.26.64-.6.07-.06.06-.06.07-.07.06-.06.07-.07.07-.08.06-.07.07-.08.07-.08.07-.08.06-.09.07-.09.07-.09.07-.09.07-.1.07-.1.08-.1.07-.1.07-.1.07-.1.07-.12.07-.1.08-.12.07-.12.07-.12.07-.12.07-.12.08-.13.07-.12.07-.13.07-.14.08-.13.07-.14.07-.13.07-.14.07-.15.08-.14.07-.15.07-.14.07-.15.07-.15.07-.16.08-.15.07-.16.07-.16.07-.16.07-.16.07-.17.07-.16.07-.17.07-.17.07-.17.07-.17.07-.18.07-.17.07-.18.07-.18.07-.18.07-.18.06-.19.07-.18.07-.19.14-.37.13-.39.13-.39.13-.39.13-.4.13-.4.13-.4.13-.42.13-.42.12-.42.12-.43.13-.43.12-.43.12-.44.12-.44.11-.45.12-.45.11-.45.12-.46.11-.45.11-.47.11-.46.11-.47.1-.46.03-.1.08-.37.1-.48.11-.47.1-.48.1-.48.1-.48.1-.48.1-.48.1-.48.1-.49.09-.48.09-.49.02-.15.07-.33.09-.5.09-.48.08-.49.1-.48.08-.5.08-.48.08-.49.08-.48.06-.36.02-.13.08-.48.08-.48.08-.49.06-.36.02-.12.08-.48.08-.47.08-.48.06-.36.02-.11.09-.48.08-.47.08-.46.08-.47.08-.46.07-.46.08-.46.05-.31.02-.15.09-.45.08-.44.08-.45.08-.44.08-.44.07-.44.08-.43.07-.43.06-.42.07-.42.07-.42.06-.4.06-.42.06-.4.05-.33v-.07l.07-.4.07-.38.06-.38.06-.38.06-.37.05-.37.06-.36.05-.36.05-.35.04-.34.05-.34.04-.33.03-.26v-.07l.05-.32.04-.3.04-.31.03-.3.04-.3.02-.28.02-.18.01-.1 1.23-1.3 1.31 1.23.02.1.02.19.05.3.04.3.04.32.03.33.04.33.04.33v.07l.03.27.03.35.02.36.03.36.02.37.02.37.02.38.02.39.02.4.01.39.02.4.01.4.01.42v1.7l-.01.43-.01.44-.01.44-.02.45v.45l-.02.46-.02.46-.02.46-.02.47-.02.47-.02.47v.15l-.03.32-.04.48-.04.48-.05.48-.04.49-.05.48-.04.5-.05.48-.01.12-.05.38-.06.49-.06.5-.07.5-.01.1-.06.39-.07.5-.08.5-.08.5-.02.12-.06.38-.08.5-.1.5-.08.5-.09.5-.1.5-.09.51-.1.5-.09.5-.07.36-.03.15-.1.5-.1.5-.1.5-.11.5-.11.5-.11.5-.11.5-.12.49-.11.49-.12.49-.11.49-.1.38-.02.1-.12.5-.13.48-.12.48-.13.48-.13.47-.12.48-.13.47-.14.47-.13.46-.14.47-.13.46-.14.45-.14.46-.14.44-.14.45-.15.44-.14.44-.15.43-.15.43-.14.43-.16.42-.15.42-.15.41-.16.4-.08.21-.08.2-.07.2-.08.2-.08.2-.08.2-.09.19-.08.2-.08.18-.08.2-.08.18-.01.02.06-.02.23-.1.23-.1.23-.1.23-.1.23-.09.24-.09.23-.09.23-.08.24-.08.23-.08.23-.08.24-.07.23-.07.12-.03.12-.04.11-.03.12-.03.12-.03.11-.03.12-.02.12-.03.11-.03.12-.02.12-.02.11-.02.12-.03.12-.02.12-.01.11-.02.12-.02.12-.01.11-.01.12-.02h.12l.12-.02h.12l.11-.01h.59zM66.4 299.8h.02l.02-.02-.04.02z"/><path d="M152.01 311.52l.23 1 .06 1.02-.08.88-.2.85-.33.8v.01l-.4.73-.51.67-.34.4-.66.54-.46.31-.35.2-.31.16-.3.13-.23.09-.17.06-.17.06-.17.06-.17.06-.18.05-.16.06-.17.04-.17.05-.17.04-.17.05-.16.04-.17.03-.16.04-.16.03-.17.03-.16.03-.16.03-.16.03-.16.02-.16.03-.16.02-.16.02-.16.02-.16.02-.15.02-.16.01-.16.02-.15.01-.17.02-.3.02-.3.02-.3.01-.31.01-.3.01h-1.78l-.3-.02h-.28l-.29-.02-.29-.01-.28-.02-.28-.02-.28-.01-.28-.02-.27-.02-.28-.02-.53-.05-.53-.04-.52-.05-.5-.04-.95-.1-.46-.03-.43-.04-.42-.03-.19-.02-.19-.01-.18-.02H127.97l.3.7v.02l-.89 2.1-2.12.9h-.01l-1.32.01-2.54.04h-.05l-.41.05-.46.04-.48.05-.5.04-.5.05-.5.04-.48.04-.45.04-.4.03-.35.03-.29.02-.22.02-.17.01-.88.03-.84.02-.83.02-.83.02-.83.01-.83.01-.83.01-.83.01h-4.16l-.83-.01-.83-.01-.83-.02-4.26-.07-1.03-.02h-.25l.61-.06.22-.06-.83.01v-.75l-.28-.1-.56-.32-.51-.38-.5-.53-.42-.6-.3-.66-.2-.7v-.11h-.02l-.66-.04-.66-.04-.66-.03-.66-.05-.66-.04-.66-.05-.67-.05-.66-.06-.67-.05-.63-.06h-.57l-.1.01-.08.01H87l-.1.02h-.11l-.1.01-.25.03-.25.02-.56.06-.3.03-.3.03-.32.03-.33.03-.18.01-.18.01-.17.01-.19.01-.18.01-.19.01h-1.2l-.22-.01-.21-.02-.23-.01-.22-.03-.23-.02-.23-.03-.24-.04-.24-.04-.23-.05-.14-.03-.12-.03-.13-.03-.13-.03-.12-.03-.13-.04-.13-.04-.13-.04-.13-.04-.14-.05-.13-.05-.13-.05-.13-.05-.14-.05-.13-.06-.14-.06-.13-.07-.14-.06-.13-.07-.13-.07-.14-.08-.15-.09-.18-.1-.22-.16-.27-.2-.34-.3-.4-.42-.5-.67-.22-.44-.27-.62-.18-.65-.12-.88.03-.88.11-.63.18-.6.25-.58v-.01l.43-.7.52-.62.42-.44.87-.57.67-.3.5-.16.39-.1.3-.05.24-.03.24-.02.27-.01h.63l.15.01.15.01.14.01.23.02.23.02.38.04h.15l2.82-.03 14.03-.21 10.51-.16h.46l.45-.03.63-.04.63-.04.63-.05.63-.04.63-.04.22-.02.41-.01.63-.03 1.27-.05 1.28-.05 1.27-.06 1.29-.05 1.28-.06.35-.02 2.24-.05 1.82-.05h.79l3.34-.03 9.82.04h.18l4.72.04h.03l.12-.01.33-.02.2-.02h.2l.23-.02h.14l.15-.01h.66l.4.04.54.08.58.14.72.26.41.21.63.39.59.45.57.57.48.63.4.68.4.96zm-69.56-2.6zm-.03 0h.02l-.04-.01h.02zm-.08-.02l.06.02-.1-.02.07.01h.02l.04.01-.06-.02h.02l.02.02-.07-.03.03.01.02.01-.07-.02h.03l.02.02-.06-.02h.03l.02.02-.06-.02h.03l.03.02-.09-.02.07.01zm-.44-.66h.14-.08.05-.12.01zm61.64-.55h.02l.01-.01h.01l.01-.01-.05.02zm.61-.5h.07-.07zM351.88 310.9l.4.7.35.92.2.96.05.98-.1.97-.2.75-.27.71-.36.68-.54.74-.62.64-.38.34-.67.43-.46.23-.32.15-.24.09-.2.07-.15.05-.2.06-.2.06-.2.05-.19.05-.2.05-.19.05-.2.04-.19.05-.19.04-.2.04-.18.03-.2.04-.19.03-.2.04-.18.03-.2.02-.19.03-.2.03-.18.02-.2.03-.19.02-.19.02-.2.02-.18.02-.2.01-.19.02-.19.02-.2.01-.18.01-.2.02h-.19l-.2.02-.38.01-.38.02-.39.01h-.38l-.39.01h-1.92l-.38-.02h-.38l-.38-.02-.38-.02-.38-.01-.38-.02-.37-.02-.38-.02-.37-.02-.37-.02-.37-.02-.37-.02-.72-.05-.7-.05-.7-.05-1.35-.1-.64-.04-.63-.04-.3-.02-.3-.02-.29-.01-.28-.02-.28-.01-.26-.02h-.26l-.18-.01h-3.53l-3.45-.02.54 1.29v.02l-.89 2.1-2.12.89-1.85.02-4.69.05-.44.03-.67.05-.7.05-.7.05-.68.05-.67.04-.62.04-.56.04-.48.03-.4.02-.29.02h-.2l-1.19.04-1.16.02-1.16.02-1.15.02-1.16.02-1.16.01-1.15.02H294.1l-1.16.01H289.47l-1.16-.01-1.16-.01-1.15-.02-5.98-.07-1.52-.02h-.26l.6-.06.21-.06-.81.01v-1.16l-.3-.17-.6-.49-.49-.58-.4-.65-.26-.72-.15-.75v-.05l-.6-.02-.9-.04-.92-.03-.9-.04-.91-.05-.92-.04-.9-.05-.92-.05-.91-.06-.47-.03-.45-.03-.46-.03-.46-.03-.46-.03-.44-.03h-.12l-.1-.01h-1.02l-.15.01h-.16l-.16.02h-.16l-.17.02h-.17l-.36.03-.38.03-.78.06-.4.04-.43.03-.42.03-.22.01-.22.02h-.23l-.22.02-.23.01-.23.01h-.23l-.23.02h-1.45l-.25-.01-.25-.01-.26-.02-.26-.02-.26-.02-.26-.03-.25-.03-.15-.02-.13-.02-.13-.02-.14-.02-.14-.02-.13-.02-.14-.03-.14-.03-.14-.03-.14-.03-.14-.03-.14-.03-.14-.04-.14-.04-.14-.04-.15-.04-.14-.04-.15-.05-.14-.05-.15-.05-.14-.05-.15-.06-.15-.05-.14-.06-.15-.07-.17-.07-.17-.08-.22-.12-.28-.16-.35-.23-.46-.37-.5-.53-.42-.56-.36-.65-.32-.85-.19-1.05.05-1.2.3-1.15.52-.99.7-.89.93-.73.83-.42.58-.2.43-.11.31-.06.25-.03.2-.02.2-.02H254.74l.16.01.16.01.3.02.3.02.54.04.23.02H256.77h-.1.06l3.97-.04 19.66-.2 14.57-.16.5-.02.88-.04.89-.04.88-.04.89-.04.89-.04.89-.05.28-.01.6-.02.9-.02 1.78-.05 1.8-.05 1.79-.06 1.8-.05 1.8-.06.44-.02 3.19-.05 2.5-.05h1.15l4.63-.03 13.72.04h.35l6.63.04H344.23l.16-.01.2-.01.47-.02.25-.02.27-.01.26-.01h.31l.17-.01h.44l.28.03.26.02.3.04.4.08.6.16.98.4.55.37.67.53.6.6.48.66zm-95.6-1.19h.01l-.06-.01.05.01zm-.03 0h.03l-.07-.02.04.01zm-.03-.02l.04.01-.08-.03.04.02.04.02-.07-.03.04.01.05.02-.1-.04.04.02zm88.35-1.28l.09-.03-.1.03z" fill="#4d4d4d" fill-opacity=".24"/><g><ellipse cx="283.83" cy="303" rx="13.9" ry="9.54" fill="#b8b8b8"/><path d="M283.66 294.71H283.49l-.17.02h-.16l-.17.02h-.16l-.17.02-.16.02-.17.01-.16.02-.16.02-.16.02-.16.02-.16.03-.16.02-.16.03-.16.02-.15.03-.16.03-.15.03-.16.03-.15.04-.15.03-.15.04-.15.03-.15.04-.15.04-.15.04-.14.04-.15.05-.14.04-.15.05-.14.04-.14.05-.14.05-.14.05-.14.05-.13.05-.14.05-.13.06-.14.05-.13.06-.13.05-.13.06-.13.06-.12.06-.13.06-.08.03-.04.03-.13.06-.12.06-.12.07-.12.06-.12.07-.12.06-.11.07-.12.07-.11.07-.11.07-.11.07-.11.07-.1.07-.11.07-.11.08-.1.07-.1.08-.1.07-.1.08-.1.07-.1.08-.09.08-.1.08-.08.08-.1.07-.08.08-.09.09-.08.08-.08.08-.09.08-.08.08-.07.08-.08.09-.08.08-.07.09-.07.08-.07.09-.07.08-.07.09-.06.08-.06.09-.07.08-.06.1-.05.08-.06.08-.06.1-.05.08-.05.09-.05.08-.05.1-.04.08-.05.09-.04.09-.04.09-.04.08-.04.1-.04.08-.03.1-.04.08-.03.09-.03.09-.02.09-.03.09-.02.09-.03.09-.02.09-.02.09-.02.09-.01.09-.02.09-.01.09-.01.09-.01.09-.01.09v.1l-.01.08V303.18l.01.1.01.08.01.1.01.08.02.1.01.08.02.1.02.08.02.09.02.09.02.08.03.09.02.09.03.08.03.09.03.09.04.08.03.09.04.08.03.09.04.08.04.09.05.08.04.09.05.08.04.08.05.09.05.08.05.08.06.08.05.09.06.08.06.08.06.08.06.08.06.08.07.08.06.08.07.08.07.08.07.08.07.08.08.08.07.07.08.08.08.08.08.07.08.08.08.07.09.08.08.07.09.07.09.08.09.07.1.07.08.07.1.07.1.07.09.06.1.08.1.06.1.07.1.07.11.06.1.07.12.06.1.06.11.07.12.06.1.06.12.06.12.06.11.06.12.05.12.06.12.05.12.06.12.05.12.06.13.05.12.05.13.05.13.05.13.05.13.04.13.05.13.04.13.05.14.04.13.04.14.04.14.04.14.04.13.04.14.03.14.04.15.03.14.04.14.03.15.03.14.03.15.03.14.02.15.03.15.02.15.03.15.02.15.02.15.02.15.02.16.01.15.02.15.01.16.02h.15l.16.02h.16l.15.02h.32l.16.01h1.12l.16-.02h.16l.16-.01.16-.02h.15l.16-.02.16-.02.15-.01.16-.02.15-.02.15-.02.16-.02.15-.02.15-.03.15-.02.15-.03.15-.03.14-.03.15-.03.15-.03.14-.03.14-.03.15-.04.14-.03.14-.04.14-.04.14-.04.14-.04.13-.04.14-.04.14-.04.13-.05.13-.04.13-.05.13-.05.13-.05.13-.04.13-.05.13-.06.12-.05.13-.05.12-.05.12-.06.12-.05.12-.06.12-.06.11-.06.12-.06.11-.05.11-.07.12-.06.1-.06.11-.06.11-.06.1-.07.11-.06.1-.07.1-.06.09-.06.02-.01.1-.07.1-.07.09-.06.1-.07.09-.07.09-.07.09-.07.09-.07.09-.07.08-.07.09-.08.08-.07.08-.07.08-.08.08-.07.07-.07.08-.08.07-.07.07-.08.07-.07.07-.08.07-.07.06-.08.07-.08.06-.07.06-.08.06-.07.06-.08.05-.08.06-.07.05-.08.05-.08.05-.08.05-.07.04-.08.05-.08.04-.07.04-.08.04-.08.04-.08.03-.07.04-.08.03-.08.03-.07.04-.08.02-.08.03-.07.03-.08.02-.08.02-.07.03-.08.02-.08.01-.07.02-.08.02-.08.01-.07.01-.08.02-.08v-.07l.02-.08V303.4l.01-.08v-.54l-.01-.08v-.08l-.02-.07v-.08l-.02-.08-.01-.07-.02-.08-.01-.07-.02-.08-.02-.07-.02-.08-.02-.07-.03-.08-.02-.07-.03-.08-.02-.07-.03-.07-.03-.08-.03-.07-.04-.08-.03-.07-.04-.08-.03-.07-.04-.08-.04-.07-.04-.05v-.02l-.05-.08-.04-.07-.05-.08-.05-.07-.05-.08-.05-.07-.05-.07-.05-.08-.06-.07-.05-.08-.06-.07-.06-.07-.06-.08-.07-.07-.06-.07-.07-.07-.06-.08-.07-.07-.07-.07-.08-.07-.06-.07h-.01l-.07-.08-.08-.07-.08-.07-.08-.07-.08-.07-.08-.07-.08-.07-.08-.07-.03-.02-.06-.05-.09-.08-.08-.07-.1-.07-.08-.07-.1-.07-.09-.07-.1-.06-.02-.02-.07-.05-.1-.08-.1-.07-.09-.07-.1-.06-.1-.07-.1-.07-.11-.07-.1-.07-.11-.06-.11-.07-.11-.06-.12-.07-.1-.06-.1-.05-.02-.01-.12-.07-.11-.07-.12-.07-.11-.06-.12-.07-.12-.06-.13-.07-.12-.06-.12-.06-.13-.06-.13-.06-.12-.06-.13-.06-.14-.06-.13-.06-.13-.05-.14-.06-.13-.05-.14-.06-.14-.05-.14-.05-.14-.05-.14-.05-.1-.03-.04-.02-.15-.05-.14-.06-.15-.05-.14-.05-.15-.05-.15-.05-.15-.05-.15-.05-.15-.04-.16-.05-.15-.04-.16-.05-.16-.04-.16-.04-.16-.04-.13-.03h-.03l-.16-.05-.16-.04-.16-.04-.17-.04-.17-.03-.16-.04-.12-.02-.06-.01h-.16zm.36-2.53l.19-.03.2-.03.18-.03.2-.02.18-.03.2-.02h.02l.16-.01.2-.02.18-.01h.2l.18-.02h.38l.19-.01h.76l.18.01h.19l.18.02h.19l.05.01.13.02.19.02.18.02.18.03.18.02.18.03.18.03.18.03.18.04.18.03.18.04.18.04.17.04.18.04.17.04.18.04.17.05.17.05.18.05.17.05.17.05.17.05.17.06.16.06h.03l.14.06.16.07.16.06.16.07.16.07.16.08.16.07.16.08.15.07.16.08.15.08.15.08.15.08.15.09.11.06.04.02.15.1.14.09.14.09.14.1.14.09.14.1.14.1.1.07.03.03.14.1.13.1.13.11.12.11.13.11.13.11.12.12.12.1.01.02.1.1.13.12.11.12.11.12.12.13.1.12.11.12.11.13.1.13.1.13.1.13.1.13.1.13.1.13.09.14.1.14.08.13.09.14.08.14.08.14.08.15.02.04.06.1.07.15.08.14.07.15.06.15.07.15.06.15.06.15.06.16.05.15.06.16.05.15.04.16.05.16.04.16.04.16.03.16.04.16.03.17.02.16.03.16.02.17.02.17.02.16v.17l.02.17V303.34l-.01.16-.02.17-.01.17-.02.16-.02.17-.03.16-.03.16-.03.17-.03.16-.04.16-.03.16-.05.16-.04.15-.05.16-.05.16-.05.15-.06.16-.05.15-.07.15-.06.15-.06.15-.07.15-.07.14-.07.15-.08.14-.08.14-.07.15-.09.14-.08.13-.09.14-.08.14-.1.13-.09.14-.09.13-.1.13-.1.13-.1.13-.1.12-.1.13-.1.12-.11.13-.1.12-.12.12-.11.12-.12.11-.11.12-.12.11-.12.12-.12.1-.12.12-.13.1-.12.12-.13.1-.13.1-.13.11-.13.1-.13.1-.13.1-.14.1-.14.1-.14.1-.14.09-.14.1-.14.08-.14.1h-.03l-.12.08-.14.09-.15.09-.15.08-.15.08-.15.08-.16.08-.15.08-.16.08-.15.08-.16.07-.16.07-.16.07-.16.07-.16.07-.16.07-.17.07-.16.06-.17.07-.17.06-.16.06-.17.06-.17.05-.17.06-.18.05-.17.06-.17.05-.18.05-.17.05-.18.04-.18.05-.18.04-.18.05-.18.04-.18.04-.18.04-.18.03-.19.04-.18.03-.18.03-.19.03-.19.03-.18.03-.2.02-.18.03-.19.02-.19.02-.19.02-.2.02-.18.01-.2.02h-.19l-.2.02h-.19l-.2.02H284.43l-.2.01H283.63l-.05-.01h-.15l-.2-.01-.19-.01-.2-.01-.19-.02-.2-.01-.19-.02-.19-.02-.2-.02-.18-.02-.2-.02-.18-.02-.2-.03-.18-.03-.19-.03-.18-.03-.19-.03-.18-.04-.19-.03-.18-.04-.18-.04-.19-.04-.18-.04-.18-.04-.17-.04-.18-.05-.18-.05-.17-.05-.18-.05-.17-.05-.18-.05-.17-.06-.17-.05-.17-.06-.17-.06-.17-.06-.16-.06-.17-.06-.16-.07-.17-.06-.16-.07-.16-.07-.16-.07-.16-.07-.16-.07-.15-.07-.16-.08-.15-.07-.15-.08-.16-.08-.15-.08-.14-.08-.15-.08-.15-.09-.14-.08-.15-.09-.14-.08-.14-.1-.14-.08-.14-.1-.14-.09-.13-.09-.14-.1-.13-.1-.13-.09-.13-.1-.13-.1-.12-.1-.13-.1-.12-.1-.13-.1-.12-.11-.12-.1-.11-.12-.12-.1-.11-.12-.11-.1-.12-.12-.1-.11-.11-.12-.1-.11-.11-.12-.1-.12-.1-.12-.1-.12-.1-.12-.1-.12-.08-.13-.1-.12-.08-.13-.1-.12-.08-.13-.08-.13-.08-.13-.08-.13-.08-.13-.07-.14-.07-.13-.07-.14-.07-.13-.07-.14-.06-.14-.06-.14-.06-.14-.06-.14-.05-.14-.05-.14-.05-.15-.05-.14-.04-.15-.05-.14-.04-.15-.03-.15-.04-.14-.03-.15-.03-.15-.02-.15-.03-.15-.02-.15-.02-.16-.01-.15-.01-.15-.01-.15-.01-.16v-.77l.02-.15v-.15l.02-.16.02-.15.02-.15.03-.15.02-.15.03-.15.03-.15.04-.14.04-.15.03-.14.05-.15.04-.14.05-.15.05-.14.05-.14.05-.14.06-.14.06-.13.06-.14.06-.14.07-.13.07-.13.07-.14.07-.13.07-.13.08-.13.08-.12.08-.13.08-.13.08-.12.09-.12.09-.13.09-.12.09-.12.1-.12.09-.11.1-.12.1-.12.1-.11.1-.11.1-.11.11-.11.1-.11.12-.11.1-.1.12-.11.11-.1.12-.11.12-.1.11-.1.12-.1.13-.1.12-.1.12-.1.13-.09.13-.09.13-.1.13-.08.13-.1.13-.08.14-.09.13-.08.14-.09.14-.08.14-.08.14-.08.14-.08.14-.08.15-.08.14-.07.15-.08.15-.07.15-.07.15-.07.15-.07.15-.07.06-.03.1-.04.15-.06.15-.06.16-.07.16-.06.16-.06.16-.05.16-.06.16-.06.16-.05.17-.05.16-.05.17-.05.17-.05.16-.05.17-.05.17-.04.17-.04.17-.04.18-.04.17-.04.17-.04.18-.04.17-.03.18-.03.18-.03.17-.03.18-.03.18-.03.18-.02.18-.03.18-.02.19-.02.18-.02.18-.01.19-.02.18-.02h.19l.18-.02h.19l.18-.02h.38l.19-.01H283.9l.12-.03z"/><ellipse cx="316.79" cy="303.08" rx="13.9" ry="9.54" fill="#b8b8b8"/><path d="M316.62 294.8H316.28l-.16.02h-.17l-.16.02-.17.02-.16.01-.17.02-.16.01-.16.02-.16.02-.16.03-.16.02-.16.02-.16.03-.16.03-.15.02-.16.03-.15.03-.16.04-.15.03-.15.03-.15.04-.15.04-.15.04-.15.03-.15.05-.14.04-.15.04-.14.04-.15.05-.14.05-.14.04-.14.05-.14.05-.14.05-.13.05-.14.05-.13.06-.14.05-.13.06-.13.05-.13.06-.13.06-.12.06-.13.06-.08.04-.04.02-.13.06-.12.07-.12.06-.12.07-.12.06-.12.07-.11.06-.12.07-.11.07-.11.07-.11.07-.11.07-.1.07-.11.08-.11.07-.1.07-.1.08-.1.07-.1.08-.1.08-.1.07-.09.08-.1.08-.08.08-.1.08-.08.08-.09.08-.08.08-.08.08-.09.08-.08.08-.07.09-.08.08-.08.08-.07.09-.07.08-.07.09-.07.08-.07.09-.06.08-.06.1-.07.08-.06.08-.05.1-.06.08-.06.08-.05.1-.05.08-.05.09-.05.09-.04.08-.05.1-.04.08-.04.09-.04.09-.04.09-.04.09-.03.08-.04.1-.03.08-.03.1-.02.08-.03.1-.02.08-.03.1-.02.08-.02.1-.02.08-.01.1-.02.08-.01.1-.01.08-.01.1-.01.08v.1l-.01.08v.56l.01.09.01.09.01.09.01.09.02.09.01.09.02.08.02.1.02.08.02.09.02.09.03.08.02.09.03.09.03.08.03.09.04.08.03.1.04.08.03.08.04.09.04.08.05.08.04.09.05.08.04.09.05.08.05.08.05.08.06.09.05.08.06.08.06.08.06.08.06.08.06.09.07.08.06.08.07.07.07.08.07.08.07.08.08.08.07.08.08.07.08.08.08.07.08.08.08.07.09.08.08.07.09.08.09.07.09.07.1.07.08.07.1.07.1.07.09.07.1.07.1.07.1.06.1.07.11.07.1.06.12.06.1.07.11.06.12.06.1.06.12.06.12.06.11.06.12.06.12.05.12.06.12.05.12.06.12.05.13.05.12.05.13.05.13.05.13.05.13.05.13.04.13.05.13.04.14.04.13.04.14.05.14.03.14.04.13.04.14.04.14.03.15.04.14.03.14.03.15.03.14.03.15.03.14.03.15.02.15.03.15.02.15.02.15.02.15.02.15.02.16.02.15.01.15.02.16.01.15.01.16.01.16.01.15.01h.16l.16.01h1.28l.16-.01.16-.01.16-.01.16-.01.15-.02h.16l.16-.02.15-.02.16-.02.15-.02.15-.02.16-.02.15-.02.15-.03.15-.02.15-.03.15-.02.14-.03.15-.03.15-.03.14-.04.14-.03.15-.03.14-.04.14-.04.14-.04.14-.03.14-.04.13-.05.14-.04.14-.04.13-.05.13-.04.13-.05.13-.04.13-.05.13-.05.13-.05.13-.05.12-.05.13-.06.12-.05.12-.06.12-.05.12-.06.12-.06.11-.05.12-.06.11-.06.11-.06.12-.06.1-.07.11-.06.11-.06.1-.07.11-.06.1-.07.1-.06.09-.06h.02l.1-.07.1-.07.09-.07.1-.07.09-.07.09-.07.09-.07.09-.07.09-.07.08-.07.09-.07.08-.08.08-.07.08-.07.08-.08.07-.07.08-.07.07-.08.07-.07.07-.08.07-.07.07-.08.06-.08.07-.07.06-.08.06-.07.06-.08.06-.08.05-.07.06-.08.05-.08.05-.08.05-.07.05-.08.04-.08.05-.07.04-.08.04-.08.04-.08.04-.07.03-.08.04-.08.03-.07.03-.08.04-.08.02-.07.03-.08.03-.08.02-.07.02-.08.03-.08.02-.07.01-.08.02-.08.02-.07.01-.08.01-.08.02-.07v-.08l.02-.08V303.47l.01-.08v-.54l-.01-.08v-.07l-.02-.08v-.08l-.02-.07-.01-.08-.02-.07-.01-.08-.02-.07-.02-.08-.02-.07-.02-.08-.03-.07-.02-.08-.03-.07-.02-.08-.03-.07-.03-.08-.03-.07-.04-.08-.03-.07-.04-.07-.03-.08-.04-.07-.04-.08-.04-.05v-.02l-.05-.07-.04-.08-.05-.07-.05-.08-.05-.07-.05-.08-.05-.07-.05-.07-.06-.08-.05-.07-.06-.08-.06-.07-.06-.07-.07-.08-.06-.07-.07-.07-.06-.07-.07-.08-.07-.07-.08-.07-.06-.06h-.01l-.07-.08-.08-.07-.08-.08-.08-.07-.08-.07-.08-.07-.08-.07-.08-.07-.03-.02-.06-.05-.09-.07-.08-.07-.1-.07-.08-.07-.1-.07-.09-.07-.1-.07-.02-.02-.07-.05-.1-.07-.1-.07-.09-.07-.1-.07-.1-.07-.1-.07-.11-.07-.1-.06-.11-.07-.11-.06-.11-.07-.12-.06-.1-.07-.1-.05-.02-.01-.12-.07-.11-.07-.12-.06-.11-.07-.12-.07-.12-.06-.13-.06-.12-.07-.12-.06-.13-.06-.13-.06-.12-.06-.13-.06-.14-.06-.13-.05-.13-.06-.14-.06-.13-.05-.14-.05-.14-.06-.14-.05-.14-.05-.14-.05-.1-.03-.04-.02-.15-.05-.14-.06-.15-.05-.14-.05-.15-.05-.15-.05-.15-.05-.15-.05-.15-.04-.16-.05-.15-.04-.16-.04-.16-.04-.16-.04-.16-.04-.13-.04h-.03l-.16-.04-.16-.05-.16-.04-.17-.03-.17-.04-.16-.04-.12-.02-.06-.01h-.16zm.36-2.54l.19-.03.2-.03.18-.03.2-.02.18-.02.2-.03h.02l.16-.01.2-.02h.18l.2-.02h.18l.2-.01H320.57l.19.01.18.01.19.01h.05l.13.02.19.02.18.03.18.02.18.03.18.03.18.03.18.03.18.03.18.04.18.03.18.04.17.04.18.04.17.04.18.05.17.04.17.05.18.05.17.05.17.05.17.06.17.05.16.06h.03l.14.06.16.07.16.07.16.07.16.07.16.07.16.07.16.08.15.08.16.07.15.08.15.08.15.09.15.08.11.07.04.02.15.09.14.09.14.1.14.09.14.1.14.1.14.09.1.07.03.03.14.1.13.11.13.1.12.12.13.1.13.12.12.1.12.12.01.01.1.1.13.13.11.12.11.12.12.12.1.12.11.13.11.12.1.13.1.13.1.13.1.13.1.13.1.14.09.13.1.14.08.14.09.13.08.15.08.14.08.14.02.04.06.1.07.15.08.15.07.14.06.15.07.15.06.15.06.16.06.15.05.16.06.15.05.16.04.16.05.15.04.16.04.16.03.16.04.17.03.16.02.16.03.17.02.16.02.17.02.16v.17l.02.17V303.42l-.01.17-.02.16-.01.17-.02.16-.02.17-.03.16-.03.17-.03.16-.03.16-.04.16-.03.16-.05.16-.04.16-.05.15-.05.16-.05.15-.06.16-.05.15-.07.15-.06.15-.06.15-.07.15-.07.15-.07.14-.08.14-.07.15-.08.14-.09.14-.08.14-.09.13-.08.14-.1.14-.09.13-.09.13-.1.13-.1.13-.1.13-.1.13-.1.12-.1.13-.11.12-.1.12-.12.12-.11.12-.12.12-.11.11-.12.12-.12.1-.12.12-.12.11-.13.11-.12.1-.13.12-.13.1-.13.1-.13.1-.13.1-.13.1-.14.1-.14.1-.14.1-.14.1-.14.09-.14.09-.14.09-.03.01-.12.08-.14.08-.15.09-.15.08-.15.09-.15.08-.16.08-.15.08-.16.07-.15.08-.16.07-.16.08-.16.07-.16.07-.16.07-.16.06-.17.07-.16.06-.17.07-.17.06-.16.06-.17.06-.17.06-.17.05-.18.06-.17.05-.17.05-.18.05-.17.05-.18.05-.18.04-.18.05-.18.04-.18.04-.18.04-.18.04-.18.03-.19.04-.18.03-.18.03-.19.03-.19.03-.18.03-.2.03-.18.02-.19.02-.19.02-.19.02-.2.02-.18.02h-.2l-.19.02-.2.01-.19.01-.2.01h-.19l-.2.01h-1.03l-.15-.01-.2-.01-.19-.01-.2-.01-.19-.01-.2-.02-.19-.02-.19-.01-.2-.02-.18-.02-.2-.03-.18-.02-.2-.03-.18-.03-.19-.03-.18-.03-.19-.03-.18-.03-.19-.04-.18-.03-.18-.04-.19-.04-.18-.04-.18-.05-.17-.04-.18-.05-.18-.04-.17-.05-.18-.05-.17-.06-.18-.05-.17-.05-.17-.06-.17-.06-.17-.05-.16-.06-.17-.07-.17-.06-.16-.06-.17-.07-.16-.07-.16-.06-.16-.07-.16-.07-.16-.08-.15-.07-.16-.07-.15-.08-.15-.08-.15-.08-.15-.08-.15-.08-.15-.08-.15-.08-.14-.09-.15-.08-.14-.1-.14-.08-.14-.09-.14-.1-.14-.08-.13-.1-.14-.1-.13-.09-.13-.1-.13-.1-.13-.1-.12-.1-.13-.1-.12-.1-.13-.1-.12-.1-.12-.12-.11-.1-.12-.11-.11-.11-.11-.11-.12-.12-.1-.11-.11-.12-.1-.11-.11-.12-.1-.12-.1-.12-.1-.12-.1-.12-.1-.12-.08-.12-.1-.13-.08-.12-.1-.13-.08-.13-.08-.13-.08-.13-.08-.13-.08-.13-.07-.14-.07-.13-.07-.13-.07-.14-.07-.14-.06-.14-.06-.14-.06-.13-.06-.15-.05-.14-.05-.14-.05-.14-.05-.15-.04-.14-.05-.15-.04-.15-.03-.14-.04-.15-.03-.15-.03-.15-.02-.15-.03-.15-.02-.15-.02-.15-.01-.16-.01-.15-.01-.15-.01-.15v-.78l.02-.15v-.15l.02-.15.02-.16.02-.15.03-.15.02-.15.03-.14.03-.15.04-.15.04-.15.03-.14.05-.15.04-.14.05-.14.05-.14.05-.14.05-.14.06-.14.06-.14.06-.14.06-.13.07-.14.07-.13.07-.13.07-.13.07-.13.08-.13.08-.13.08-.13.08-.12.08-.13.09-.12.09-.12.09-.12.09-.12.1-.12.09-.12.1-.12.1-.11.1-.12.1-.1.1-.12.11-.11.1-.11.12-.1.1-.11.12-.11.11-.1.12-.1.12-.1.11-.11.12-.1.13-.1.12-.1.12-.09.13-.1.13-.09.13-.09.13-.09.13-.09.13-.09.14-.08.13-.09.14-.08.14-.09.14-.08.14-.08.14-.08.14-.08.15-.07.14-.08.15-.07.15-.08.15-.07.15-.07.15-.07.15-.07.06-.02.1-.04.15-.07.15-.06.16-.06.16-.06.16-.06.16-.06.16-.06.16-.05.16-.06.17-.05.16-.05.17-.05.17-.05.16-.05.17-.04.17-.05.17-.04.17-.04.18-.04.17-.04.17-.04.18-.03.17-.04.18-.03.18-.03.17-.03.18-.03.18-.02.18-.03.18-.02.18-.03.19-.02.18-.01.18-.02.19-.02.18-.01.19-.01.18-.02h.19l.18-.01.2-.01H316.8l.06-.01.12-.03z"/><path d="M344.9 301.6c12.29-16.22 21.13-37.65 24.93-60.38 3.6-21.5 2.45-42.85-3.25-60.54l-100.9 1.15c-7.74 13.9-13.3 30.03-16.09 46.75-4.6 27.59-1.37 54.6 8.87 74l86.44-.98z" fill="#c2c2c2"/><path d="M367.08 177.35l.52.12.5.2.45.27.41.35.35.4.28.46.2.5.14.42.14.43.14.44.13.43.13.43.13.44.13.44.13.44.12.44.12.44.13.44.12.44.11.45.12.44.12.45.1.45.12.45.1.45.12.45.1.45.1.45.1.46.11.45.1.46.1.46.1.46.08.46.1.46.09.46.08.46.1.47.08.46.08.47.08.47.08.46.08.47.08.47.07.47.03.23.04.25.07.47.07.47.07.48.06.47.07.48.06.48.06.47.06.48.05.48.06.48.05.49.05.48.05.48.05.48.05.49.04.49.04.48.04.49.04.49.04.48.04.5.03.48.03.5.03.49.03.49.03.49.02.5.03.49.02.5.02.49.02.5.01.49.02.5.01.5.01.5.01.5v.5l.01.5v.5l.01.5v2l-.02.5v.51l-.01.5-.02.5-.01.52-.02.5-.01.5-.02.51-.02.51-.03.5-.02.52-.03.5-.03.51-.03.51-.03.51-.03.51-.04.51-.03.51-.04.51-.04.52-.05.5-.04.52-.05.51-.04.51-.05.52-.05.5-.06.52-.05.51-.06.52-.05.51-.06.52-.01.06-.06.45-.06.51-.07.52-.07.51-.07.52-.07.51-.08.51-.07.52-.08.51-.08.52-.08.51-.08.52-.09.51-.04.27-.05.25-.1.54-.09.55-.1.54-.1.54-.1.54-.11.54-.1.55-.12.54-.1.53-.12.54-.12.54-.1.5-.01.04-.13.53-.12.54-.12.53-.13.54-.13.53-.13.53-.13.53-.14.54-.13.53-.14.53-.14.52-.14.53-.15.53-.14.53-.15.52-.15.53-.15.52-.15.52-.15.52-.16.53-.16.52-.16.51-.16.52-.16.52v.03l-.17.49-.17.51-.17.51-.18.51-.17.52-.18.5-.18.52-.18.5-.18.51-.19.5-.19.51-.18.5-.2.5-.18.5-.2.5-.19.5-.2.5-.2.5-.2.5-.2.5-.2.49-.2.49-.2.49-.21.49-.21.49-.21.48-.21.49-.22.48-.21.49-.22.48-.22.48-.22.48-.22.48-.22.48-.22.47-.23.48-.23.47-.22.47-.23.47-.24.47-.23.47-.23.46-.24.47-.13.25-.1.2-.25.47-.25.46-.25.45-.24.46-.25.45-.26.45-.25.45-.25.45-.26.45-.25.44-.26.45-.26.44-.26.44-.27.44-.26.43-.26.44-.27.43-.27.44-.27.43-.27.43-.27.42-.27.43-.28.42-.28.42-.27.42-.28.42-.28.42-.28.41-.28.42-.29.4-.28.42-.29.4-.1.15-.19.26-.3.4-.29.4-.29.4-.3.4-.3.4-.3.39-.29.39-.3.38-.3.4-.3.38-.31.38-.3.38-.31.38-.31.38-.08.09-.23.28-.37-.28.37.28-.18.2-.2.17-.23.14-.24.1-.26.06-.27.02-1.8.04-46.4.8-38.24.64-.35-.03-.34-.07-.33-.13-.3-.18-.27-.22-.23-.27-.2-.3-.12-.23-.12-.23-.12-.24-.13-.23-.12-.24-.12-.24-.12-.23-.12-.24-.12-.24-.12-.24-.12-.24-.11-.24-.12-.25-.11-.24-.12-.24-.11-.25-.12-.24-.11-.25-.11-.24-.12-.25-.1-.25-.12-.24-.1-.25-.12-.25-.1-.25-.11-.25-.1-.25-.11-.26-.11-.25-.1-.25-.11-.25-.1-.26-.1-.25-.1-.26-.11-.25-.1-.26-.1-.26-.1-.26-.1-.25-.1-.26-.1-.26-.1-.26-.09-.26-.1-.27-.09-.26-.1-.26-.09-.26-.09-.27-.1-.26-.08-.27-.1-.26-.09-.27-.08-.26-.1-.27-.08-.27-.09-.27-.09-.26-.08-.27-.09-.27-.08-.27-.09-.28-.08-.27-.08-.27-.08-.27-.09-.27-.08-.28-.08-.27-.08-.28-.07-.27-.08-.28-.08-.27-.08-.28-.07-.28-.08-.27-.07-.28-.08-.28-.07-.28-.07-.28-.07-.28-.07-.28-.07-.28-.07-.28-.07-.29-.07-.28-.07-.28-.07-.29-.06-.28-.07-.28-.06-.29-.07-.28-.06-.3-.06-.28-.13-.57-.12-.58-.12-.57-.11-.58-.12-.59-.1-.58-.11-.58-.1-.6-.1-.58-.1-.59-.1-.6-.1-.58-.09-.6-.09-.6-.08-.6-.08-.6-.08-.6-.08-.6-.08-.6-.07-.6-.07-.61-.06-.61-.06-.61-.07-.61-.05-.61-.06-.62-.05-.61-.05-.62-.05-.62-.04-.62-.04-.62-.04-.62-.03-.62-.04-.63-.02-.62-.03-.63-.03-.62-.02-.63-.01-.63-.02-.63-.01-.63-.01-.64-.01-.63V250.26l.02-.64.01-.64.01-.64.02-.64.02-.64.03-.65.03-.64.03-.65.03-.64.03-.65.04-.65.04-.64.05-.65.04-.65.05-.65.06-.65.05-.66.06-.65.06-.65.07-.65.06-.66.07-.65.08-.65.07-.66.03-.26.05-.4.08-.65.09-.66.09-.65.09-.66.09-.66.1-.65.1-.66.1-.66.1-.66.07-.4.06-.4.07-.4.07-.4.07-.39.07-.4.07-.4.07-.4.08-.39.07-.4.07-.4.08-.39.08-.4.08-.4.08-.39.08-.4.08-.39.08-.4.08-.39.09-.39.08-.4.09-.39.09-.4.09-.38.08-.4.1-.39.09-.39.09-.4.1-.38.09-.4.1-.38.09-.4.1-.38.1-.4.1-.38.1-.39.1-.39.1-.39.1-.38.1-.4.1-.38.11-.38.11-.39.1-.38.12-.39.1-.38.12-.39.1-.38.12-.39.11-.38.12-.38.11-.38.12-.38.12-.39.12-.38.12-.38.12-.38.12-.38.12-.37.12-.38.13-.38.12-.38.13-.37.12-.38.13-.38.13-.37.13-.38.13-.37.13-.37.13-.38.14-.37.13-.37.14-.37.13-.37.14-.38.14-.37.14-.36.14-.37.14-.37.14-.37.14-.37.14-.36.15-.37.14-.36.15-.37.15-.36.14-.37.15-.36.15-.36.15-.36.15-.36.16-.36.15-.36.15-.36.16-.36.15-.36.16-.36.16-.35.16-.36.16-.35.16-.36.16-.35.16-.36.16-.35.17-.35.16-.35.17-.35.16-.35.17-.35.17-.35.17-.35.17-.34.17-.35.17-.34.17-.35.17-.34.18-.35.17-.34.18-.34.18-.34.17-.34.18-.34.18-.34.18-.34.18-.33.18-.34.19-.34.18-.33.24-.36.3-.33.33-.28.38-.23.4-.17.43-.1.44-.04 4.98-.08 62.85-1 33.07-.5.54.03zm-34.6 6.96l-60.06.4v-.03l-5 .06-.07.11-.18.32-.17.33-.17.32-.17.33-.18.32-.17.33-.17.32-.17.33-.17.33-.16.33-.17.33-.17.33-.16.33-.17.33-.16.33-.16.34-.16.33-.17.33-.16.34-.16.34-.15.33-.16.34-.16.34-.16.34-.15.34-.16.34-.15.34-.15.34-.15.34-.16.35-.15.34-.15.35-.15.34-.14.35-.15.34-.15.35-.14.35-.15.35-.14.35-.14.35-.15.35-.14.35-.14.35-.14.35-.14.35-.14.36-.13.35-.14.35-.13.36-.14.36-.13.35-.14.36-.13.36-.13.35-.13.36-.13.36-.13.36-.12.36-.13.36-.13.36-.12.36-.13.37-.12.36-.12.36-.12.37-.12.36-.12.36-.12.37-.12.36-.12.37-.11.37-.12.36-.11.37-.12.37-.1.37-.12.37-.1.37-.12.37-.1.37-.12.37-.1.37-.1.37-.11.37-.1.37-.11.38-.1.37-.1.37-.1.38-.1.37-.1.38-.1.37-.1.38-.1.37-.09.38-.1.37-.09.38-.09.38-.09.38-.09.37-.09.38-.09.38-.08.38-.09.38-.08.38-.09.38-.08.38-.09.38-.08.38-.08.38-.08.38-.08.38-.07.38-.08.39-.08.38-.07.38-.07.39-.08.38-.07.38-.07.39-.07.38-.07.38-.07.39-.06.38-.11.64-.1.63-.1.64-.1.63-.1.63-.1.64-.09.63-.09.63-.08.63-.05.38-.04.26-.08.63-.07.63-.08.63-.07.63-.07.63-.07.63-.06.63-.06.63-.06.62-.05.63-.06.63-.05.62-.04.63-.05.62-.04.63-.04.62-.03.62-.03.62-.04.63-.02.62-.03.62-.02.62-.02.61-.01.62-.02.61v.62l-.02.62v3.05l.01.6.01.62.02.6.01.6.02.61.02.6.03.6.02.6.03.6.04.6.03.6.04.6.04.59.04.6.05.58.05.6.05.58.06.59.05.58.06.59.06.58.07.58.07.58.07.58.07.58.07.57.08.58.08.57.09.57.08.57.1.56.08.57.1.56.1.57.1.56.1.55.1.56.1.56.12.55.11.55.06.27.05.28.06.27.06.28.06.27.06.27.06.27.06.27.07.28.06.27.06.27.07.27.06.26.07.27.06.27.07.27.07.27.07.26.07.27.07.26.07.27.07.26.07.27.07.26.07.26.08.27.07.26.08.26.07.26.08.26.07.26.08.26.08.26.08.25.08.26.08.26.08.25.08.26.08.26.08.25.08.25.09.26.08.25.09.25.08.25.09.26.08.25.1.25.08.24.09.25.09.25.09.25.09.25.09.24.1.25.08.24.1.25.1.24.09.24.1.25.09.24.1.24.09.24.1.24.1.24.1.24.1.24.1.24.1.23.1.24.1.23.1.24.1.23.1.24.11.23.1.23.11.24.1.23.11.23.11.23.1.23.12.22.1.23.12.23.1.22.12.23.07.14 38.01-.23 45.27-.25h.85l.06-.1.26-.39.27-.4.26-.39.26-.4.25-.39.26-.4.25-.4.26-.4.25-.4.25-.42.25-.4.25-.41.24-.41.16-.27.09-.15.24-.41.25-.41.24-.42.25-.42.24-.42.24-.42.24-.42.23-.42.24-.43.23-.42.23-.43.24-.43.23-.43.22-.43.23-.44.23-.43.22-.44.22-.44.22-.44.22-.44.22-.44.22-.45.21-.44.22-.45.2-.45.22-.45.2-.45.22-.45.2-.45.2-.46.21-.45.2-.46.1-.2.1-.26.2-.45.21-.46.2-.46.2-.46.2-.47.2-.46.2-.46.19-.47.19-.47.19-.47.19-.46.18-.48.19-.47.18-.47.19-.47.18-.48.18-.48.17-.47.18-.48.17-.48.18-.48.17-.48.17-.49.17-.48.16-.48.17-.49.16-.49.16-.48.16-.5.16-.48.16-.5.16-.48.15-.5.15-.49.15-.5.15-.49.15-.5.14-.49.15-.5.14-.5.14-.5.14-.5.13-.47v-.03l.15-.5.14-.5.14-.5.13-.5.14-.5.13-.5.13-.51.13-.5.13-.51.13-.51.12-.5.12-.52.12-.5.12-.51.12-.51.12-.51.1-.52.12-.5.11-.52.11-.51.1-.52.11-.51.1-.52.1-.51.01-.03.1-.49.1-.52.1-.51.1-.52.1-.52.1-.51.08-.52.1-.52.08-.52.1-.52.08-.52.08-.52.04-.25.04-.25.08-.49.08-.5.07-.48.07-.5.08-.49.07-.5.06-.48.07-.5.06-.49.07-.49.06-.49.06-.49.05-.43v-.06l.07-.49.05-.49.06-.49.05-.49.05-.49.05-.49.05-.49.05-.48.04-.5.04-.48.05-.49.04-.49.03-.48.04-.49.04-.49.03-.48.03-.49.03-.48.03-.49.02-.48.03-.49.02-.48.02-.48.02-.49.02-.48.02-.48.01-.48.01-.48.02-.48v-.48l.01-.48v-.48l.01-.18v-1.25l.01-.48v-1.43l-.02-.47v-.48l-.01-.47-.01-.47-.02-.47-.01-.47-.02-.47-.02-.47-.02-.47-.02-.47-.02-.47-.02-.47-.03-.46-.03-.47-.03-.46-.03-.47-.03-.46-.04-.46-.03-.46-.04-.47-.04-.46-.04-.46-.04-.45-.05-.46-.05-.46-.04-.45-.05-.46-.05-.45-.06-.46-.05-.45-.06-.45-.05-.45-.06-.45-.06-.45-.07-.45-.06-.44-.03-.24-.04-.2-.06-.45-.07-.45-.07-.44-.07-.44-.08-.44-.07-.44-.08-.44-.08-.44-.08-.44-.08-.43-.08-.44-.09-.43-.08-.43-.09-.43-.09-.43-.1-.43-.08-.43-.1-.43-.1-.42-.1-.42-.1-.43-.1-.42-.1-.42-.1-.42-.1-.42-.11-.41-.11-.42-.11-.41-.11-.42-.12-.41-.11-.41-.12-.41-.02-.08-31.6.25z"/><path d="M264.58 182.2s-14.84 29.82-15.97 44.9c-1.5 20.11-5.76 42.41 9.51 75.84 27.3 3.27 57.36 2.9 86.74-.87 16.35-23.77 23.8-46.41 27.32-72.2 2.2-16.17.98-26.9-4.47-48.26-3.18-.26-32.8-.3-37.52-1.01l-16.66 26.69s-20.32-22.9-18.17-24.77c2.16-1.87-30.78-.33-30.78-.33z" fill="#fff" stroke="#000" stroke-width="4"/><ellipse cx="313.33" cy="222.93" rx="2.28" ry="1.13" fill="#fff"/><path d="M313.88 224.18l-.02-.05-.01-.01v-.06l-.03-.08-.03-.09-.03-.08-.05-.09-.03-.06-.01-.04-.06-.12-.06-.13-.06-.12-.03-.05-.05-.1-.1-.14-.07.01h-.02v.02-.01.1-.03l.01.12v-.02l.02.11-.01-.02.02.11v-.03l.02.12v-.03l.03.1-.01-.02.03.1v-.02l.03.1-.01-.03.04.1-.01-.03.04.09-.01-.02.05.08-.02-.02.05.08-.02-.03.05.08-.02-.03.05.07-.02-.02.05.06-.02-.02.05.06-.02-.02.05.06-.02-.03.05.06-.02-.03.05.05-.03-.02.05.05-.03-.02.06.04h-.01l.05.03h-.01l.04.03h-.01l-.01-.01.03.02-.01-.01.04.03v-.02h-.02l.04.01h-.02l-.01-.03.04.02-.02-.01v-.07l-.01-.03.03.02-.01-.03zm-1.44-.86l-.02.02-.01.01-.02.02-.03.02.03-.01-.03.02-.02.02.02-.01-.02.02-.02.02.02-.02-.02.02-.02.02.03-.02-.02.02-.01.02.02-.02-.01.02-.01.01.03-.02-.01.02-.01.02.03-.03-.01.01-.01.02.03-.03-.02.03.03-.03-.02.02.04-.03-.02.03.03-.04-.02.03.03-.04-.01.03.03-.04-.01.03.03-.05-.02.03.04-.05-.02.03.04-.05-.01.03.03-.05-.01.02.03-.05-.01.03.03-.07-.01.03.03-.06-.01.03.02-.06-.02.01-.02.01-.06.04.03-.01-.04.02-.02.01zm.13-.08v.02-.02zm1-1.3h.01zm.32-.23l.01-.02h.01l-.04.02v-.01l.01-.01-.04.03v-.01l-.04.04v-.01l-.05.04.02-.03-.05.05.02-.03-.05.05.02-.02-.05.05.02-.02-.05.05.02-.02-.05.06.02-.03-.04.05.05-.02.05-.02.05-.02.04-.02.04-.03.03-.02.03-.02.06-.04-.05.02.03-.02.01-.01v-.01l.01-.01.02-.02-.03.02.02-.01.02-.02-.04.02.01-.01.02-.02-.04.03.01-.02.02-.01-.05.03zm1.43-1.9h.1l.09.01.08.02h.09l.03.01.05.02.09.03.08.03.09.03.08.03.08.04.08.04.08.05h.02l.06.05.08.05.08.05.08.06.08.06.07.07.08.06.08.07.08.08.07.08.08.08.07.08.07.1.07.1.07.1.07.1.06.1.06.13.06.12.05.12.05.13.04.14.04.14.03.14.03.15.01.15.01.15v.3l-.02.15-.02.15-.03.14-.04.14-.04.14-.05.13-.05.13-.06.12-.06.12-.06.1-.07.11-.07.1-.07.1-.07.09-.08.08-.08.08-.07.08-.08.07-.08.07-.08.06-.08.06-.07.06-.08.05-.08.05-.08.05-.08.05-.08.04-.08.04-.08.04-.08.04-.08.03-.08.04-.08.03-.08.03-.07.02-.03.01-.05.02-.08.02-.09.02-.08.03-.16.03-.16.03-.16.03-.16.02-.17.02-.16.01-.17.01h-.67l-.16-.02h-.06l-.11-.02-.17-.03-.16-.02-.16-.04-.16-.03-.16-.04-.15-.04-.15-.05-.15-.05-.15-.05-.14-.06-.14-.05-.08-.04-.07-.03-.06-.04-.07-.03-.07-.03-.07-.04-.05-.03-.02-.01-.06-.04-.07-.04-.06-.04-.07-.05-.06-.04-.07-.05-.06-.05-.06-.05-.06-.05-.06-.05-.07-.06-.06-.06-.05-.06-.06-.06-.06-.07-.06-.06-.05-.07-.06-.08-.05-.08-.05-.08-.05-.08-.04-.09-.05-.09-.04-.09-.03-.1-.04-.1-.03-.1-.02-.1-.02-.1-.02-.12v-.1l-.01-.12v-.11l.01-.11.01-.11.02-.11.02-.1.03-.11.04-.1.03-.1.05-.1.04-.08.05-.09.05-.08.05-.08.05-.07.06-.07.06-.07.06-.06.06-.06.06-.05.06-.06.06-.05.06-.04.07-.05.06-.04.06-.04.07-.04.06-.04.07-.03.06-.03.07-.03.06-.03.07-.03.07-.03.06-.02.07-.02.07-.02.06-.02.07-.02.07-.02.07-.02.07-.01.13-.03h.03l.1-.02.15-.02.14-.01.14-.01H312.9l.14.01.15.01.08.02h.09l.13-.15.1-.09.05-.04.16-.11.17-.1.16-.1.05-.03.12-.05.17-.05.17-.04.18-.04.18-.03.13-.02h.04l.16.01z"/><ellipse cx="313.32" cy="246.67" rx="2.37" ry=".93" fill="#fff"/><path d="M312.6 244.53h.15l.14.01.15.02.14.01.09.02h.06l.02-.01.12-.15.08-.08.07-.06.16-.12.16-.11.16-.11.16-.07.16-.06.17-.06.16-.05.17-.04.03-.01h.53l.09.01.16.04h.04l.12.04.15.06.03.01.12.06.08.04.08.04.08.05.08.04.08.05.08.05.07.06.09.05.08.07.01.01.07.05.08.07.08.08.08.08.08.09.08.1.08.1.08.1.08.11.07.13.07.13.07.14.06.14.05.16.05.16.03.17.03.17.01.18V246.85l-.02.18-.03.17-.04.16-.05.16-.06.15-.06.15-.07.13-.08.13-.07.12-.08.1-.08.11-.09.1-.08.08-.08.08-.09.08-.08.07-.08.06-.08.06-.09.06-.08.05-.08.05-.08.04-.08.05-.07.04-.08.03-.08.04-.09.04-.14.05-.15.05-.16.05-.15.04-.13.03h-.02l-.15.03-.16.03-.15.02-.16.01-.15.02h-.16l-.15.01h-.48l-.16-.01-.16-.01-.17-.02h-.05l-.1-.02-.17-.02-.16-.03-.15-.03-.15-.03-.15-.03-.15-.04-.15-.04-.14-.04-.14-.05-.14-.04-.14-.05-.13-.06-.14-.05-.08-.04-.05-.02-.13-.07-.13-.06-.11-.07-.08-.04-.06-.04-.06-.04-.06-.05-.07-.04-.06-.05-.06-.04-.06-.05-.06-.06-.07-.05-.06-.06-.06-.06-.06-.07-.06-.07-.06-.07-.06-.08-.05-.08-.06-.09-.05-.1-.05-.09-.05-.1-.04-.11-.03-.12-.04-.11-.02-.13-.02-.12v-.38l.02-.13.02-.12.04-.12.03-.11.05-.11.04-.1.06-.1.05-.1.06-.08.06-.08.06-.07.06-.07.07-.06.06-.06.07-.06.06-.05.06-.05.07-.04.06-.04.07-.04.06-.04.07-.03.06-.03.06-.03.07-.03.06-.02.07-.03.12-.04.13-.04.13-.03.13-.03.13-.02.14-.02.13-.02.1-.01h.03l.14-.01h.14l.14-.01h.28zm.73 2.48v-.03l.02.15v-.02l.03.14v-.02l.04.13-.01-.02.05.13-.02-.03.06.12-.01-.02.05.11-.01-.02.06.1-.02-.02.07.1-.02-.02.06.09-.02-.03.07.08-.02-.02.06.08-.02-.02.06.07-.02-.02.06.06-.02-.02.06.05-.03-.01.06.05-.02-.02.06.04-.03-.01.05.04-.02-.02.05.04-.03-.02.05.04.04.02h-.02l.05.02h-.01l-.02-.01.04.02v-.02h-.01l-.01-.03-.01-.01v-.02l-.03-.05-.03-.05-.03-.05v-.01l-.04-.09-.05-.09-.05-.08-.06-.1-.06-.09-.07-.13-.07-.13-.08-.13-.04-.06-.05-.09-.1-.15v.1zm-1.22.43l.02-.01-.01.01-.02.02.03-.02-.01.02-.02.01.04-.02-.01.01-.01.02.03-.03-.02.03.03-.03-.02.02.04-.03-.02.03.03-.03-.02.02.04-.03-.02.02.04-.04-.01.03.04-.05-.02.03.04-.05-.01.02.04-.05-.02.03.05-.06-.02.02.04-.06v.03l.03-.07v.02l.02-.03-.05.02-.06.03-.04.03-.05.03-.03.03-.03.03-.04.03.03-.01-.02.01-.02.02zm1.69-2.01l.02-.03-.02.03zm.35-.22l.01-.01.01-.01-.04.02.01-.01.01-.01-.04.02v-.01l-.04.03v-.01l-.05.03.02-.02-.05.04.02-.02-.05.04.02-.02-.06.05.02-.02-.05.05.01-.02-.05.06.01-.03-.06.07.03-.01.06-.03.05-.02.05-.03.05-.02.04-.02.03-.03.02-.02.02-.02.02-.01v-.01l.03-.03-.05.03z"/><ellipse cx="311.45" cy="268.47" rx="2.2" ry="1.07" fill="#fff"/><path d="M311.97 269.88v-.06l-.01-.05-.01-.04v-.02l-.02-.05-.01-.08-.03-.09-.03-.08-.04-.09-.03-.06-.02-.03-.04-.13-.06-.12-.07-.13-.02-.05-.05-.1-.09-.13v-.01h-.01l-.07.01-.08.03v.03l-.01-.03.01.12v-.02l.01.12v-.03l.02.12v-.03l.02.12v-.03l.03.11-.01-.02.03.1v-.02l.03.1v-.03l.04.1-.02-.03.05.1-.02-.03.05.09-.01-.03.05.08-.02-.02.05.08-.02-.03.06.07-.03-.02.06.07-.02-.03.05.07-.03-.03.06.06-.03-.02.06.05-.03-.02.06.05-.03-.02.05.04-.02-.02.05.05h-.01l.05.03h-.01l.04.03-.01-.01.02.02.04.02v-.01l-.02-.01.04.02-.01-.01-.02-.02.04.02v-.02zm-1.47-.86l.02-.01-.02.02-.02.02.03-.02-.02.02-.02.02.03-.02-.01.02-.02.01.03-.02-.01.02-.01.01.03-.02-.01.02v.01l.02-.03-.02.03.03-.03-.02.03.04-.03-.02.02.03-.03-.02.03.03-.04-.01.03.03-.04-.01.03.03-.04-.02.02.04-.04-.02.03.04-.05-.02.02.04-.05-.01.03.03-.05-.01.02.03-.06v.03l.02-.06v.03l.02-.07v.03l.01-.05-.02.02-.04.02-.05.04-.04.03-.04.03-.03.03-.02.01h.02l-.02.01-.02.02zm.27-.21zm.87-1.36zm.32-.25l.01-.02-.04.03v-.01l-.04.03v-.01l-.05.04.03-.03-.05.05.02-.03-.05.05.02-.03-.05.06.02-.03-.05.05.02-.02-.05.06.01-.03-.05.07.02-.03-.04.04.04-.01.06-.02.04-.02.05-.03.04-.02.04-.02.03-.02.03-.03.02-.02.01-.02h.01v-.01l.02-.02H312h.02l.01-.02-.04.02.02-.01.01-.01-.04.02.01-.01.01-.01-.04.02zm1.44-1.81l.17.02.17.02h.01l.14.04.1.03.07.03.09.04.08.04.08.04.08.04.08.05.07.05.08.05.08.06.08.05.07.07.08.06.08.07.07.07.08.08.07.07.08.1.07.08.07.1.07.1.07.1.06.11.06.12.06.12.05.12.05.13.05.14.03.14.04.14.02.15.02.15V268.62l-.01.15-.03.15-.03.15-.03.14-.05.13-.04.14-.06.12-.06.12-.06.12-.06.1-.07.11-.07.1-.07.1-.08.08-.07.09-.08.08-.07.07-.08.07-.08.07-.08.06-.07.06-.08.05-.08.06-.08.05-.08.04-.07.05-.08.04-.08.04-.08.03-.08.04-.07.03-.08.03-.09.04-.14.05-.04.01-.12.04-.16.04-.15.03-.16.03-.16.03-.16.02-.16.01-.16.01-.16.01h-.48l-.17-.01-.16-.02h-.05l-.11-.02-.17-.02-.15-.03-.16-.03-.15-.03-.16-.04-.15-.04-.14-.05-.15-.04-.14-.06-.14-.05-.14-.06-.13-.06-.14-.07-.12-.06-.05-.03-.03-.02-.06-.03-.07-.04-.06-.04-.06-.05-.06-.04-.07-.05-.06-.04-.06-.05-.06-.05-.06-.05-.06-.06-.06-.05-.06-.06-.06-.06-.05-.07-.06-.06-.06-.07-.05-.08-.05-.07-.05-.08-.05-.08-.05-.09-.04-.09-.04-.09-.04-.1-.03-.1-.03-.1-.03-.1-.02-.1-.01-.11-.01-.12v-.33l.01-.11.02-.1.03-.11.03-.1.03-.1.04-.1.04-.1.04-.08.05-.09.05-.08.06-.07.05-.08.06-.07.05-.06.06-.06.06-.06.06-.05.06-.06.06-.04.07-.05.06-.04.06-.05.06-.03.07-.04.06-.04.06-.03.07-.03.06-.03.06-.03.07-.02.06-.03.07-.02.07-.02.12-.04.14-.03.13-.03.13-.03h.04l.1-.02.13-.01.14-.02H311.02l.14.01.15.02h.08l.07.02.01-.02.12-.14.1-.09.06-.04.15-.11.16-.11.16-.1.05-.02.12-.05.16-.05.17-.05.17-.04.17-.03.12-.02h.05l.17.01zM319.46 198.87l.27 1.61-.04.08-.85 1.59-1.98 3.53-2.87 4.74-1.71 2.63-.92 1.35-.95 1.36-2.31 3.21h-.02l-1.93 2.68-.1 1.75-.86 12.72-1.04 14.86-1.1 15.51-1.94 27.04-.83 11.26-.03.43-1.21 1.1-1.1-1.22.03-.44.44-11.44 1.09-27.5.64-15.82.64-15.16.58-12.99.05-1.06.04-.33.09-.33.13-.3v-.01l.17-.3 1.6-2.26 2.4-3.4 1.04-1.43 1.03-1.38 2.05-2.64 3.74-4.52 2.82-3.2 1.27-1.38.06-.07 1.6-.27z"/><path d="M366.85 180.22c.31-1.6.53-3.22.65-4.85 1.89-25.3-19.21-48.35-47.09-51.45-27.87-3.1-52.03 14.92-53.92 40.2a43.04 43.04 0 002.28 17.25l98.08-1.15z" fill="#c2c2c2"/><clipPath id="a"><path d="M366.85 180.22c.31-1.6.53-3.22.65-4.85 1.89-25.3-19.21-48.35-47.09-51.45-27.87-3.1-52.03 14.92-53.92 40.2a43.04 43.04 0 002.28 17.25l98.08-1.15z"/></clipPath><g clip-path="url(#a)"><path d="M299.02 161.97c-.77.58-1.2 1.2-1.27 1.84-.37 3.36 9.25 6.42 21.46 6.82 12.22.4 22.44-2 22.8-5.37.09-.77-.36-1.56-1.31-2.3l-41.68-.99z" fill="#191919"/><clipPath id="b"><path d="M299.02 161.97c-.77.58-1.2 1.2-1.27 1.84-.37 3.36 9.25 6.42 21.46 6.82 12.22.4 22.44-2 22.8-5.37.09-.77-.36-1.56-1.31-2.3l-41.68-.99z"/></clipPath><g clip-path="url(#b)"><path d="M305.87 164.2c.02 2.1 6.04 3.95 13.59 4.2 7.73.25 14.2-1.28 14.43-3.4l.01-.14-28.03-.66z" fill="#fff"/></g><path d="M311.47 152.66c-.2-5.53-3.9-10.16-8.57-10.68-4.99-.55-9.24 3.78-9.5 9.67-.02.33-.02.66-.01.99l18.08.02z" fill="#191919"/><clipPath id="c"><path d="M311.47 152.66c-.2-5.53-3.9-10.16-8.57-10.68-4.99-.55-9.24 3.78-9.5 9.67-.02.33-.02.66-.01.99l18.08.02z"/></clipPath><g clip-path="url(#c)"><path d="M301.55 150.7c.3-2.7.14-4.8-.39-4.85-.56-.07-1.34 2.25-1.74 5.18l-.07.54 2.2-.86z" fill="#fff"/></g><path d="M340.99 153.57c-.18-5.23-3.7-9.6-8.1-10.1-4.72-.52-8.74 3.58-8.99 9.14v.94l17.09.02z" fill="#191919"/><clipPath id="d"><path d="M340.99 153.57c-.18-5.23-3.7-9.6-8.1-10.1-4.72-.52-8.74 3.58-8.99 9.14v.94l17.09.02z"/></clipPath><g clip-path="url(#d)"><path d="M331.33 151.7c.3-2.7.05-4.81-.57-4.88-.67-.07-1.54 2.24-1.93 5.16l-.07.54 2.57-.82z" fill="#fff"/></g></g><path d="M314.96 120.26h.68l.34.01.34.01.34.01.34.02.34.01.34.02.35.02.34.02.34.02.35.03.34.02.35.03.34.03.35.04.34.03.35.04.34.04.35.04.34.04.35.05.34.05.34.05.34.05.34.05.34.05.34.06.34.06.34.06.33.06.34.07.34.06.33.07.34.07.33.07.33.07.33.08.33.07.34.08.32.08.33.08.33.09.33.08.33.1.32.08.33.1.32.08.32.1.33.1.32.1.32.1.32.1.32.1.32.1.31.1.32.12.32.1.3.12.3.1h.02l.32.12.3.12.32.12.3.12.32.12.3.12.31.13.3.13.32.12.3.13.3.14.3.13.3.13.3.14.3.14.3.14.3.14.3.14.3.14.29.15.3.15.28.15.3.15.29.15.29.15.28.16.29.15.29.16.28.16.29.16.28.16.28.17.28.16.28.17.28.16.28.17.27.17.28.18.27.17.27.17.28.18.07.05.2.13.26.18.27.18.27.18.26.19.27.18.26.19.26.18.26.2.26.18.26.2.26.19.25.2.26.19.25.2.25.2.25.2.25.2.25.2.25.2.24.2.25.21.24.21.24.2.24.22.24.21.24.21.24.22.23.21.24.22.23.21.23.22.23.22.15.15.08.07.22.23.23.22.22.23.22.22.22.23.22.23.22.23.22.23.2.23.22.24.21.23.21.24.21.23.18.2.03.04.2.24.2.24.2.24.2.25.2.24.2.25.2.24.19.25.2.25.18.25.2.25.18.25.18.25.18.25.19.26.18.26.17.26.18.26.17.26.17.26.18.26.16.26.17.27.17.26.16.27.16.26.16.27.16.27.16.27.15.27.16.27.15.27.15.27.15.27.15.27.14.28.14.27.15.28.14.28.14.27.13.28.05.1.08.18.13.28.13.29.12.28.13.28.12.29.12.28.12.29.11.28.12.3.1.28.12.29.1.29.11.29.11.29.1.29.1.29.1.29.1.3.1.28.09.3.1.3.08.29.09.3.09.29.08.3.08.29.08.3.08.3.08.3.07.29.07.3.07.3.07.3.07.3.06.3.07.3.06.3.06.3.05.3.06.3.05.31.05.3.05.3.04.31.05.3.04.31.04.3.04.31v.01l.03.3.03.3.03.31.02.3.03.32.02.3.01.31.02.3.01.32.02.3v.31l.02.31v2.16l-.02.32v.3l-.02.31-.02.31-.02.31-.02.31-.02.31-.02.31-.03.31-.03.31-.03.31-.03.31-.04.31-.03.31-.04.31-.03.23-.02.1-.05.31-.05.32-.05.32-.06.31-.06.32-.06.31-.06.32-.07.31-.06.32-.07.31-.08.31-.07.31-.08.31-.08.31-.02.08-.06.22-1.72-.32 1.72.32-.08.3-.13.26-.17.25-.22.21-.24.17-.27.13-.3.08-.3.03-1.1.02-28.78.6-68.18 1.4-.41-.02-.4-.09-.39-.15-.1-.06-.25-.15-.32-.26-.28-.3-.22-.36-.17-.38-.1-.27-.09-.28-.1-.28-.08-.27-.1-.28-.08-.29-.09-.28-.08-.28-.09-.28-.08-.28-.08-.28-.08-.29-.07-.28-.07-.28-.08-.28-.07-.29-.07-.28-.06-.29-.07-.28-.06-.29-.06-.28-.06-.29-.06-.28-.06-.29-.05-.28-.05-.29-.05-.29-.05-.28-.05-.29-.04-.29-.05-.28-.04-.3-.04-.28-.03-.29-.04-.28-.03-.3-.04-.28-.03-.29-.02-.29-.03-.29-.03-.28-.02-.3-.02-.28-.02-.29-.02-.29-.01-.29-.01-.29-.02-.29v-.29l-.01-.28-.01-.3V165.95l.01-.29v-.29l.02-.29.01-.28.02-.3.01-.28.02-.3.02-.3.03-.32.03-.32.02-.31.03-.31.04-.32.03-.3.04-.32.04-.31.04-.3.04-.32.05-.3.05-.31.05-.31.05-.3.05-.31.06-.3.06-.31.06-.3.06-.3.07-.3.06-.31.07-.3.07-.3.07-.3.08-.3.08-.3.07-.29.09-.3.08-.29.08-.3.09-.28.09-.3.09-.29.1-.29.09-.29.1-.29.09-.28.1-.3.1-.28.1-.28.11-.29.11-.28.11-.28.11-.28.12-.28.11-.28.12-.28.12-.28.12-.27.12-.28.13-.27.12-.28.13-.27.13-.27.13-.27.14-.27.13-.27.14-.27.14-.27.14-.26.14-.27.14-.26.15-.26.15-.26.15-.26.15-.26.15-.26.16-.26.07-.12.08-.14.16-.25.16-.25.16-.26.17-.25.16-.25.17-.25.16-.25.17-.24.18-.25.17-.25.17-.24.18-.24.18-.24.18-.24.18-.24.18-.24.18-.24.19-.23.19-.24.19-.23.19-.23.19-.24.2-.23.19-.22.2-.23.19-.23.2-.22.2-.23.2-.22.2-.22.21-.22.2-.22.22-.22.2-.21.22-.22.2-.21.22-.21.22-.21.22-.21.21-.21.22-.2.22-.21.23-.21.22-.2.23-.2.22-.2.23-.2.23-.2.23-.2.23-.2.23-.19.24-.2.23-.18.24-.2.24-.18.24-.19.24-.18.24-.19.24-.18.25-.18.24-.18.25-.18.25-.18.25-.17.25-.18.25-.17.25-.17.26-.17.25-.17.26-.17.26-.17.26-.16.26-.16.26-.16.26-.16.27-.16.26-.16.27-.16.26-.15.27-.15.27-.15.27-.15.27-.15.28-.15.27-.14.27-.15.28-.14.28-.14.27-.14.28-.13.28-.14.28-.13.29-.14.28-.13.28-.13.29-.13.28-.12.29-.13.29-.12.29-.12.29-.12.29-.12.29-.12.3-.11.29-.12.3-.1.29-.12.3-.1.29-.11.3-.1.3-.11.3-.1.3-.1.3-.1.3-.1.3-.1.31-.09.3-.1.31-.08.3-.1.32-.08.3-.08.31-.09.31-.08.32-.08.3-.08.32-.07.31-.08.18-.04.14-.03.31-.07.32-.07.31-.07.32-.06.32-.07.32-.06.32-.06.32-.06.32-.05.32-.06.32-.05.32-.05.33-.05.32-.05.33-.05.32-.04.33-.04.32-.04.33-.04.33-.04.33-.03.33-.04.33-.03.33-.03.33-.02.33-.03.33-.02.33-.02.34-.02.33-.02.34-.02.33-.01.34-.01.33-.01.34-.01h.34l.33-.01h1.02zm-1.29 6.63h-.6l-.3.01h-.3l-.29.02h-.3l-.3.02-.29.01-.3.02-.29.02-.29.01-.3.03-.29.02-.29.02-.29.03-.29.02-.29.03-.29.03-.29.03-.29.04-.29.03-.29.04-.28.04-.29.04-.28.04-.29.04-.28.05-.29.05-.28.04-.28.05-.29.05-.28.06-.28.05-.28.06-.28.06-.28.05-.12.03-.16.03-.27.07-.28.06-.28.06-.27.07-.28.07-.27.07-.27.07-.28.07-.27.08-.27.07-.27.08-.27.08-.27.08-.27.08-.26.08-.27.09-.27.08-.26.09-.26.09-.27.09-.26.09-.26.1-.26.09-.26.1-.26.1-.26.09-.26.1-.26.1-.25.1-.26.1-.25.12-.26.1-.25.11-.25.11-.25.11-.25.12-.25.11-.25.12-.24.11-.25.12-.24.12-.25.12-.24.12-.24.13-.25.12-.24.13-.24.13-.23.13-.24.13-.24.13-.23.13-.24.14-.23.13-.23.14-.24.14-.23.14-.23.14-.22.14-.23.14-.23.15-.22.14-.23.15-.22.15-.22.15-.22.15-.22.15-.22.15-.22.16-.22.15-.21.16-.22.16-.2.16-.22.16-.21.16-.21.16-.2.17-.22.16-.2.17-.2.17-.21.17-.2.17-.2.17-.2.17-.2.17-.2.18-.2.17-.2.18-.2.18-.18.18-.2.18-.19.18-.19.18-.18.18-.2.19-.18.18-.18.19-.18.19-.19.19-.18.19-.18.19-.17.19-.18.2-.18.19-.17.2-.17.19-.17.2-.17.2-.17.2-.17.2-.17.2-.16.2-.16.2-.17.2-.16.21-.16.21-.15.2-.16.22-.15.2-.16.22-.15.2-.15.22-.15.21-.15.22-.14.21-.15.22-.14.22-.15.22-.14.22-.07.11-.07.1-.13.23-.14.22-.13.22-.14.23-.13.22-.13.23-.13.22-.13.23-.12.23-.13.23-.12.23-.12.23-.12.23-.12.23-.12.24-.11.23-.12.24-.1.23-.12.24-.1.24-.11.24-.1.24-.11.24-.1.24-.1.24-.1.25-.1.24-.1.25-.1.24-.09.25-.09.25-.09.24-.09.25-.08.25-.09.25-.08.25-.08.26-.08.25-.08.25-.07.26-.08.25-.07.26-.07.26-.07.25-.07.26-.07.26-.06.26-.06.26-.06.27-.06.26-.06.26-.05.27-.06.26-.05.27-.05.26-.05.27-.04.27-.05.26-.04.27-.04.27-.04.27-.04.28-.03.27-.04.27-.03.27-.03.28-.02.27-.03.28-.02.28-.02.25-.02.25-.02.25-.02.25v.26l-.02.25-.01.25-.01.26v.25l-.01.25v.51l-.01.25v.76l.01.26.01.25.01.25.01.26.01.25.02.26.01.25.02.25.02.26.02.25.02.26.03.25.02.25.03.26.03.25.03.25.03.26.04.25.03.26.04.25.04.25.04.26.04.25.04.25.05.26.04.25.05.25.05.25.05.26.06.25.05.25.06.25.06.26.06.25.06.25.06.25.07.25.06.26.07.25.07.25.06.21 66.97-.2 27.58-.06v-.04l.02-.3.02-.28.02-.3.02-.29.01-.29.01-.29.01-.3v-.28l.01-.3v-.37l.01-.21V173.8l-.01-.28-.01-.28-.02-.28v-.28l-.02-.28-.02-.27-.02-.28-.02-.28-.02-.28-.03-.27-.02-.28-.03-.27-.03-.28-.04-.27-.03-.27-.03-.28-.04-.27-.04-.27-.04-.27-.05-.27-.04-.27-.05-.27-.05-.27-.05-.27-.05-.27-.05-.26-.06-.27-.06-.27-.05-.25v-.01l-.06-.27-.06-.26-.06-.27-.06-.26-.06-.27-.07-.26-.06-.26-.07-.26-.07-.26-.07-.27-.07-.26-.08-.25-.08-.26-.07-.26-.08-.26-.08-.26-.09-.25-.08-.26-.09-.26-.09-.25-.09-.25-.09-.26-.09-.25-.1-.25-.1-.25-.09-.26-.1-.25-.1-.25-.1-.24-.1-.25-.11-.25-.1-.25-.12-.24-.1-.25-.12-.24-.11-.25-.12-.24-.12-.25-.11-.24-.12-.24-.12-.24-.13-.24-.12-.24-.13-.24-.12-.23-.13-.24-.13-.24-.14-.23-.08-.15-.05-.09-.13-.24-.13-.23-.13-.24-.14-.23-.13-.23-.14-.24-.14-.23-.14-.23-.14-.23-.14-.23-.15-.23-.15-.23-.14-.22-.15-.23-.15-.23-.15-.22-.16-.22-.15-.23-.16-.22-.16-.22-.16-.22-.16-.22-.16-.22-.16-.22-.16-.22-.17-.21-.17-.22-.16-.22-.17-.21-.17-.22-.17-.21-.17-.21-.17-.22-.18-.2-.17-.22-.18-.2-.18-.22-.18-.2-.18-.21-.18-.2-.18-.21-.03-.03-.15-.18-.19-.2-.18-.2-.19-.21-.19-.2-.19-.2-.19-.2-.19-.2-.2-.2-.19-.2-.2-.2-.19-.2-.2-.19-.2-.19-.06-.07-.14-.12-.2-.2-.2-.19-.2-.19-.2-.19-.2-.19-.22-.18-.2-.2-.21-.18-.21-.18-.21-.19-.22-.18-.2-.18-.22-.18-.22-.18-.22-.18-.21-.18-.22-.17-.22-.18-.23-.17-.22-.17-.22-.17-.23-.18-.22-.16-.23-.17-.23-.17-.23-.17-.23-.16-.23-.17-.23-.16-.24-.16-.23-.16-.24-.16-.17-.11-.07-.05-.23-.15-.24-.16-.24-.15-.24-.16-.24-.15-.25-.15-.24-.15-.25-.15-.24-.15-.25-.14-.25-.15-.25-.14-.25-.15-.25-.14-.25-.14-.25-.13-.26-.14-.25-.14-.26-.13-.25-.14-.26-.13-.26-.13-.26-.13-.26-.13-.26-.12-.26-.13-.27-.12-.26-.13-.27-.12-.26-.12-.27-.11-.27-.12-.27-.12-.27-.11-.27-.11-.27-.12-.27-.1-.27-.12-.28-.1-.27-.1-.28-.11h-.01l-.26-.1-.28-.1-.28-.1-.28-.1-.28-.1-.28-.1-.28-.1-.28-.09-.28-.09-.29-.1-.28-.08-.29-.09-.28-.08-.29-.09-.29-.08-.29-.08-.28-.08-.3-.08-.28-.07-.3-.08-.29-.07-.3-.07-.28-.07-.3-.07-.3-.07-.29-.06-.3-.07-.3-.06-.29-.06-.3-.06-.3-.06-.3-.05-.3-.06-.3-.05-.3-.05-.3-.05-.3-.05-.31-.04-.3-.04-.31-.05-.3-.04-.31-.04-.3-.03-.32-.04-.3-.03-.3-.03-.32-.03-.3-.03-.3-.03-.31-.02-.3-.03-.31-.02-.3-.02-.3-.01-.31-.02-.3-.01-.3-.01-.3-.01-.3-.01-.31-.01h-.6l-.3-.01h-.3z"/></g><g font-family="'TamilMN','Tamil MN',serif" font-weight="250" font-size="38.33"><text x="225" y="179.6" fill="none" transform="matrix(.73209 -.0286 -.06513 .73144 172.78 104.89)">BF</text><text x="225" y="179.6" fill="#00a0dd" stroke="#00a0dd" stroke-width="3.65" stroke-linecap="butt" stroke-miterlimit="1.41" transform="matrix(.73209 -.0286 -.06513 .73144 172.78 104.89)">BF</text></g><path d="M266.22 181.19l-.17 1.3-.05.04-.2.22-.27.26-.26.26-.27.26-.02.02-.25.23-.27.25-.27.25-.27.24-.27.25-.27.25-.27.24-.28.24-.27.25-.03.02-.25.2-.28.24-.28.23-.28.23-.29.22-.28.23-.28.22-.28.23-.29.22-.28.22-.29.22-.28.22-.2.16-.09.05-.29.21-.3.2-.28.21-.3.2-.29.21-.3.2-.29.2-.3.2-.3.19-.3.19-.23.15-.06.04-.3.18-.3.18-.3.18-.22.13-.09.05-.3.18-.3.17-.31.18-.3.17-.31.17-.3.17-.31.17-.31.16-.3.17-.32.16-.3.17-.31.16-.3.16-.32.15-.3.16-.31.16-.31.15-.31.15-.31.16-.31.15-.3.14h-.01l-.31.15-.31.15-.31.14-.32.15-.3.14-.32.14-.31.14-.31.14-.32.13-.3.14-.32.13-.31.13-.32.14-.31.13-.32.13-.3.12-.32.13-.32.12-.31.13-.32.12-.31.12-.32.12-.31.12-.32.12-.31.11-.32.12-.32.11-.31.11-.32.11-.32.11-.17.06-.15.05-.32.1-.31.11-.32.1-.32.1-.32.1-.32.1-.32.1-.32.1-.32.1-.32.09-.32.09-.32.09-.32.09-.32.09-.32.08-.32.1-.32.07-.32.09-.32.08-.33.08-.32.08-.32.07-.32.08-.33.08-.32.07-.32.07-.33.07-.32.07-.32.07-.33.06-.32.07-.33.06-.32.07-.33.06-.32.06-.3.05h-.03l-.32.06-.33.05-.33.06-.32.05-.33.05-.33.05-.32.05-.33.04-.33.05-.33.04-.32.04-.33.04-.33.04-.33.04-.33.04-.33.03-.33.04-.33.03-.32.03-.33.03-.33.03-.33.02-.34.03-.33.02-.33.03-.33.02-.33.02-.33.01-.33.02-.33.01-.34.02-.33.01-.33.01-.33.01h-.34l-.33.02h-2.67l-.34-.02h-.33l-.34-.01-.33-.02h-.34l-.33-.02-.34-.02-.33-.02-.34-.01-.34-.02-.33-.03-.34-.02-.34-.02-.34-.03-.33-.03-.34-.03-.34-.03-.34-.03-.34-.03-.34-.04-.33-.03-.34-.04-.34-.04-.34-.04-.34-.05-.34-.04-.34-.05-.34-.04-.34-.05-.34-.05-.34-.05-.35-.05-.34-.06-.34-.06-.34-.05-.34-.06-.34-.06-.35-.06-.34-.07-.34-.06-.34-.07-.35-.07-.34-.07-.34-.07-.35-.07-.34-.07-.34-.08-.35-.08-.34-.08-.35-.08-.34-.08-.35-.08-.34-.08-.35-.1-.34-.08-.35-.09-.35-.09-.15-.04-.2-.05-.34-.1-.35-.1-.34-.09-.35-.1-.35-.1-.34-.1-.35-.1-.35-.1-.35-.11-.35-.11-.34-.11-.35-.11-.35-.12-.35-.1-.35-.13-.35-.11-.35-.12-.35-.12-.35-.12-.35-.13-.35-.12-.35-.13-.35-.13-.35-.13h-.03l-.32-.13-.57-1.18 1.18-.56.33.11.03.01.34.12.35.1.35.12.35.11.35.11.34.1.35.11.35.11.34.1.35.1.34.1.35.1.34.1.35.1.34.09.35.09.34.1.34.08.35.09.34.08.34.09.34.08.34.08.34.08.2.05.14.03.35.08.34.08.34.07.33.07.34.07.34.07.34.07.34.07.34.07.33.06.34.06.34.06.33.06.34.06.34.06.33.05.34.06.33.05.34.05.33.05.34.04.33.05.33.05.33.04.34.04.33.04.33.04.33.04.33.03.34.04.33.03.33.03.33.03.33.03.33.03.33.03.32.02.33.02.33.03.33.02.33.01.33.02.32.02.33.01.33.02h.32l.33.02h.32l.33.01.32.01h.97l.33.01h.97l.32-.01h.32l.32-.02h.33l.32-.02.32-.01.32-.01.32-.02.32-.01.32-.02.32-.02.32-.02.32-.02.31-.02.32-.03.32-.02.32-.03.32-.03.31-.03.32-.03.32-.03.31-.04.32-.03.32-.04.31-.04.32-.04.31-.04.32-.04.31-.04.32-.05.3-.04.32-.05.32-.05.3-.05.32-.05.31-.05.32-.06.3-.05.32-.06.31-.06.31-.05.31-.07.31-.06.31-.06h.02l.3-.06.3-.07.31-.07.31-.07.31-.07.31-.07.31-.07.3-.07.32-.08.3-.07.31-.08.3-.08.32-.08.3-.08.31-.08.3-.09.31-.08.3-.09.31-.09.3-.09.31-.09.3-.09.31-.1.3-.08.31-.1.3-.1.3-.1.31-.1.3-.1.3-.1.31-.1.3-.1.3-.11.3-.1.3-.12.31-.1.14-.06.16-.06.3-.1.3-.12.3-.12.3-.11.3-.12.3-.12.3-.12.3-.12.3-.12.3-.12.3-.12.3-.13.3-.13.3-.12.3-.13.3-.13.3-.14.29-.13.3-.13.3-.14.3-.13.29-.14.3-.14.29-.14.3-.14.3-.15.29-.14.3-.15.29-.14.3-.15.29-.15.3-.15.29-.15.3-.15.29-.15.29-.16.3-.15.29-.16.3-.16.28-.16.3-.16.29-.16.3-.16.29-.16.29-.17.3-.16.29-.17.29-.17.29-.16.3-.17.28-.18.1-.05.2-.12.29-.17.3-.17.29-.17.05-.03.24-.14.3-.17.3-.17.29-.18.3-.16.3-.17.3-.18.3-.17.3-.17.29-.18.3-.17.08-.05.22-.12.3-.17.3-.17.31-.17.3-.18.31-.17.3-.18.31-.17.3-.18.3-.18.31-.18.3-.18.28-.17.03-.01.31-.18.31-.17.31-.18.32-.18.3-.18.32-.18.3-.18.32-.18.28-.17.03-.02.32-.18.31-.18.32-.18.26-.15.06-.03 1.3.17z"/><path d="M187.1 192.66c1.67.78 2.25 3.06 1.3 5.08s-3.07 3.03-4.73 2.25c-1.67-.78-2.25-3.06-1.3-5.08s3.07-3.03 4.74-2.25z" fill="#ffd22b"/><path d="M185.88 191.4h.22l.11.02.11.02.11.01.11.03.11.02.11.03.11.03.1.04.12.04.1.04.1.04.1.05.12.06h.11l.12.03.13.02.12.02.08.02.04.01.12.04.11.05.12.05.11.05.12.05.1.06.12.07.1.06.12.07.1.08.1.08.1.09.08.09.1.09.08.1.09.1.08.1.08.1.08.1.07.1.08.11.07.11.07.12.06.11v.02l.06.1.05.13.04.12.05.13.04.12.04.13.04.13.02.1v.03l.03.13.02.14.02.13.01.08v.05l.01.14v.13l.01.14v.14l-.01.13-.01.14-.02.14-.01.13-.02.14-.03.14-.02.13-.03.14-.01.04-.02.1-.04.13-.04.13-.04.14-.05.13-.04.14-.06.13-.05.13-.06.13-.06.13-.06.13-.07.13-.06.13-.08.12-.07.12-.08.12-.07.12-.08.11-.08.12-.09.11-.08.1-.1.11-.08.1-.1.11-.09.1-.1.1-.09.1-.1.08-.1.1-.1.08-.1.09-.1.08-.11.08-.1.08-.12.07-.1.08-.12.07-.11.06-.11.07-.12.06-.12.06-.12.05-.12.06-.12.05-.12.05-.12.04-.12.04-.13.04-.12.04-.13.03-.13.03-.12.02-.13.03-.13.02-.13.01-.13.01-.13.01-.13.01h-.4l-.13-.01-.13-.02-.13-.01-.13-.02-.13-.03-.13-.03-.13-.03-.13-.03-.13-.05-.13-.04-.13-.05-.12-.05-.12-.06-.13-.06-.1-.05h-.02l-.11-.08-.12-.07-.11-.07-.11-.08-.1-.08-.11-.08-.1-.09-.1-.08-.1-.1-.08-.09-.1-.1-.08-.09-.08-.1-.08-.1-.07-.1-.07-.1-.07-.11-.07-.11-.06-.1-.06-.12-.06-.11-.05-.11-.05-.12-.05-.11-.05-.12-.04-.12-.04-.11-.03-.12-.03-.12-.03-.12-.03-.12-.03-.12-.02-.13-.02-.12-.01-.12-.01-.12-.01-.13-.01-.12v-.62l.01-.13.02-.12.01-.12.02-.13.02-.12.02-.13.03-.12.03-.12.03-.13.03-.12.04-.12.04-.13.04-.12.04-.12.05-.12.05-.12.05-.12.06-.12.05-.11.06-.12.07-.12.06-.1.07-.12.07-.1.07-.12.07-.1.08-.1.07-.1.08-.1.08-.1.08-.1.08-.09.09-.09.08-.09.09-.08.09-.09.09-.08.09-.08.09-.08.1-.07.09-.07.1-.07.1-.07.09-.07.1-.06.1-.06.1-.06.1-.05.1-.06.11-.05.1-.04.11-.05.1-.04.11-.04.09-.03.02-.01.11-.04.1-.03.12-.03.1-.02.12-.03.11-.02.11-.02.11-.01.11-.01.12-.01h.1l.12-.01H185.88zm.78 2.08l-.05-.02-.06-.01-.05-.01-.06-.02h-.05l-.06-.01-.05-.01H185.83l-.05.02h-.06l-.05.02-.06.01-.06.02-.05.01-.06.02-.05.02-.06.02-.06.02-.05.03-.06.02-.05.03h-.02l-.04.03-.05.03-.06.03-.05.03-.06.03-.05.04-.06.04-.05.04-.05.04-.05.04-.05.04-.06.05-.05.04-.05.05-.04.05-.05.05-.05.05-.05.05-.04.06-.05.05-.04.06-.04.06-.05.06-.04.06-.04.06-.04.06-.03.06-.04.07-.04.07-.03.06-.03.07-.04.07-.03.07-.03.07-.02.08-.03.07-.02.07-.03.07-.02.08-.02.07-.02.07-.01.07-.02.07v.08l-.02.07v.07l-.02.07v.13l-.01.07v.33l.01.06v.07l.01.06.01.06.01.04v.02l.02.06v.06l.02.05.02.06.01.05.02.06.02.05.02.05.02.05.02.05.02.04.02.05.02.04.03.05.02.04.03.04.02.04.03.03.03.04.02.04.03.03.03.03.03.03.03.03.03.03.03.02.03.03.03.02.03.02.03.02.03.02.03.02.03.02.03.02.04.01.03.02h.03l.03.02.04.01.03.01.04.01.03.01h.04l.03.01h.03l.04.01H184.9l.04-.01.04-.01h.04l.03-.02h.04l.04-.02.04-.01.04-.02.04-.01.04-.02.04-.02.04-.02.04-.02.04-.02.04-.02.04-.02.04-.03.05-.03.04-.02.04-.03.04-.03.04-.03.04-.04.04-.03.04-.03.04-.04.04-.04.04-.03.04-.04.04-.05.03-.04.04-.04.04-.04.03-.05.04-.05.03-.04.04-.05.03-.05.03-.05.04-.06.03-.05.03-.05.03-.06.02-.05.03-.06.03-.06.02-.06.03-.06.02-.06.02-.06.02-.06.02-.06.02-.06.02-.06.01-.06.02-.05.01-.06.01-.06v-.04l.01-.02.01-.05.01-.06v-.06l.01-.05V196l.01-.05v-.16l.01-.05V195.59l.01-.05V195.42l.01-.03v-.05l.01-.05v-.05l.01-.05v-.13l.01-.06v-.05l.01-.05v-.05l.01-.05v-.34l-.02-.05v-.16l-.01-.05-.01-.06-.01-.05-.01-.06-.02-.05-.01-.06-.02-.05-.02-.06-.01-.02-.01-.04-.03-.06-.02-.07-.03-.06-.04-.05v-.02l-.05-.01z"/></svg>