<svg xmlns="http://www.w3.org/2000/svg" xmlns:xlink="http://www.w3.org/1999/xlink" width="800" zoomAndPan="magnify" viewBox="0 0 600 599.999999" height="800" preserveAspectRatio="xMidYMid meet" version="1.0"><rect x="-60" width="720" fill="#ffffff" y="-60" height="719.999999" fill-opacity="1"/><rect x="-60" width="720" fill="#063062" y="-60" height="719.999999" fill-opacity="1"/><rect x="-60" width="720" fill="#063062" y="-60" height="719.999999" fill-opacity="1"/><path stroke-linecap="round" transform="matrix(18.181817, 0, 0, 18.181817, 0.0000003, 0.00002)" fill="none" stroke-linejoin="round" d="M 26.413106 9.585038 C 26.413106 7.738027 24.913927 6.237987 23.066056 6.237987 L 9.461934 6.237987 C 7.614922 6.237987 6.115957 7.738027 6.115957 9.585038 L 6.115957 23.211933 C 6.115957 25.060019 7.614922 26.558984 9.461934 26.558984 L 23.066056 26.558984 C 24.913927 26.558984 26.413106 25.060019 26.413106 23.211933 Z M 26.413106 9.585038 " stroke="#80d741" stroke-width="2.51" stroke-opacity="1" stroke-miterlimit="1.414"/><path fill="#ffffff" d="M 414.109375 262.601562 C 414.109375 263.695312 414.082031 264.789062 414.027344 265.882812 C 413.976562 266.976562 413.894531 268.066406 413.785156 269.15625 C 413.679688 270.246094 413.546875 271.332031 413.386719 272.414062 C 413.222656 273.496094 413.039062 274.574219 412.824219 275.648438 C 412.609375 276.722656 412.371094 277.792969 412.105469 278.851562 C 411.839844 279.914062 411.546875 280.96875 411.230469 282.015625 C 410.910156 283.066406 410.566406 284.105469 410.199219 285.136719 C 409.828125 286.164062 409.4375 287.1875 409.015625 288.199219 C 408.597656 289.210938 408.15625 290.210938 407.6875 291.199219 C 407.21875 292.1875 406.726562 293.167969 406.210938 294.132812 C 405.695312 295.097656 405.15625 296.050781 404.59375 296.988281 C 404.03125 297.925781 403.445312 298.851562 402.835938 299.761719 C 402.226562 300.671875 401.597656 301.566406 400.945312 302.445312 C 400.292969 303.324219 399.621094 304.1875 398.925781 305.035156 C 398.230469 305.882812 397.515625 306.710938 396.78125 307.519531 C 396.046875 308.332031 395.292969 309.125 394.515625 309.898438 C 393.742188 310.671875 392.949219 311.425781 392.140625 312.164062 C 391.328125 312.898438 390.5 313.613281 389.652344 314.308594 C 388.808594 315 387.945312 315.675781 387.066406 316.328125 C 386.1875 316.980469 385.289062 317.609375 384.378906 318.21875 C 383.46875 318.824219 382.546875 319.410156 381.605469 319.972656 C 380.667969 320.535156 379.714844 321.078125 378.75 321.59375 C 377.785156 322.109375 376.808594 322.601562 375.816406 323.070312 C 374.828125 323.535156 373.828125 323.980469 372.816406 324.398438 C 371.804688 324.816406 370.785156 325.210938 369.753906 325.582031 C 368.722656 325.949219 367.683594 326.292969 366.636719 326.609375 C 365.589844 326.929688 364.53125 327.21875 363.472656 327.484375 C 362.410156 327.753906 361.339844 327.992188 360.269531 328.207031 C 359.195312 328.417969 358.117188 328.605469 357.03125 328.765625 C 355.949219 328.925781 354.863281 329.0625 353.773438 329.167969 C 352.683594 329.277344 351.59375 329.355469 350.5 329.410156 C 349.40625 329.464844 348.3125 329.492188 347.21875 329.492188 C 346.125 329.492188 345.03125 329.464844 343.9375 329.410156 C 342.84375 329.355469 341.75 329.277344 340.660156 329.167969 C 339.574219 329.0625 338.484375 328.925781 337.402344 328.765625 C 336.320312 328.605469 335.242188 328.417969 334.167969 328.207031 C 333.09375 327.992188 332.027344 327.753906 330.964844 327.484375 C 329.902344 327.21875 328.847656 326.929688 327.800781 326.609375 C 326.753906 326.292969 325.714844 325.949219 324.683594 325.582031 C 323.652344 325.210938 322.632812 324.816406 321.621094 324.398438 C 320.609375 323.980469 319.609375 323.535156 318.617188 323.070312 C 317.628906 322.601562 316.652344 322.109375 315.6875 321.59375 C 314.71875 321.078125 313.769531 320.535156 312.828125 319.972656 C 311.890625 319.410156 310.964844 318.824219 310.054688 318.21875 C 309.144531 317.609375 308.25 316.980469 307.371094 316.328125 C 306.492188 315.675781 305.628906 315 304.78125 314.308594 C 303.9375 313.613281 303.109375 312.898438 302.296875 312.164062 C 301.484375 311.429688 300.691406 310.671875 299.917969 309.898438 C 299.144531 309.125 298.390625 308.332031 297.65625 307.519531 C 296.921875 306.710938 296.207031 305.882812 295.511719 305.035156 C 294.816406 304.1875 294.144531 303.324219 293.492188 302.445312 C 292.839844 301.566406 292.207031 300.671875 291.601562 299.761719 C 290.992188 298.851562 290.40625 297.925781 289.84375 296.988281 C 289.28125 296.050781 288.742188 295.097656 288.226562 294.132812 C 287.710938 293.167969 287.21875 292.1875 286.75 291.199219 C 286.28125 290.210938 285.839844 289.210938 285.417969 288.199219 C 285 287.1875 284.605469 286.164062 284.238281 285.136719 C 283.867188 284.105469 283.523438 283.066406 283.207031 282.015625 C 282.890625 280.96875 282.597656 279.914062 282.332031 278.851562 C 282.066406 277.792969 281.824219 276.722656 281.613281 275.648438 C 281.398438 274.574219 281.210938 273.496094 281.050781 272.414062 C 280.890625 271.332031 280.757812 270.246094 280.648438 269.15625 C 280.542969 268.066406 280.460938 266.976562 280.40625 265.882812 C 280.355469 264.789062 280.328125 263.695312 280.328125 262.601562 C 280.328125 261.503906 280.355469 260.410156 280.40625 259.316406 C 280.460938 258.222656 280.542969 257.132812 280.648438 256.042969 C 280.757812 254.953125 280.890625 253.867188 281.050781 252.785156 C 281.210938 251.703125 281.398438 250.625 281.613281 249.550781 C 281.824219 248.476562 282.066406 247.410156 282.332031 246.347656 C 282.597656 245.285156 282.890625 244.230469 283.207031 243.183594 C 283.523438 242.136719 283.867188 241.097656 284.238281 240.066406 C 284.605469 239.035156 285 238.011719 285.417969 237 C 285.839844 235.992188 286.28125 234.988281 286.75 234 C 287.21875 233.011719 287.710938 232.035156 288.226562 231.066406 C 288.742188 230.101562 289.28125 229.148438 289.84375 228.210938 C 290.40625 227.273438 290.992188 226.347656 291.601562 225.4375 C 292.207031 224.527344 292.839844 223.632812 293.492188 222.753906 C 294.144531 221.875 294.816406 221.011719 295.511719 220.164062 C 296.207031 219.320312 296.921875 218.488281 297.65625 217.679688 C 298.390625 216.867188 299.144531 216.074219 299.917969 215.300781 C 300.691406 214.527344 301.484375 213.773438 302.296875 213.035156 C 303.109375 212.300781 303.9375 211.585938 304.78125 210.894531 C 305.628906 210.199219 306.492188 209.523438 307.371094 208.871094 C 308.25 208.21875 309.144531 207.589844 310.054688 206.980469 C 310.964844 206.375 311.890625 205.789062 312.828125 205.226562 C 313.769531 204.664062 314.71875 204.125 315.6875 203.609375 C 316.652344 203.089844 317.628906 202.597656 318.617188 202.132812 C 319.609375 201.664062 320.609375 201.21875 321.621094 200.800781 C 322.632812 200.382812 323.652344 199.988281 324.683594 199.621094 C 325.714844 199.25 326.753906 198.90625 327.800781 198.589844 C 328.847656 198.273438 329.902344 197.980469 330.964844 197.714844 C 332.027344 197.449219 333.09375 197.207031 334.167969 196.996094 C 335.242188 196.78125 336.320312 196.59375 337.402344 196.433594 C 338.484375 196.273438 339.574219 196.136719 340.660156 196.03125 C 341.75 195.925781 342.84375 195.84375 343.9375 195.789062 C 345.03125 195.734375 346.125 195.710938 347.21875 195.710938 C 348.3125 195.710938 349.40625 195.734375 350.5 195.789062 C 351.59375 195.84375 352.683594 195.925781 353.773438 196.03125 C 354.863281 196.136719 355.949219 196.273438 357.03125 196.433594 C 358.117188 196.59375 359.195312 196.78125 360.269531 196.996094 C 361.339844 197.207031 362.410156 197.449219 363.472656 197.714844 C 364.53125 197.980469 365.589844 198.273438 366.636719 198.589844 C 367.683594 198.90625 368.722656 199.25 369.753906 199.621094 C 370.785156 199.988281 371.804688 200.382812 372.816406 200.800781 C 373.828125 201.21875 374.828125 201.664062 375.816406 202.132812 C 376.808594 202.597656 377.785156 203.089844 378.75 203.609375 C 379.714844 204.125 380.667969 204.664062 381.605469 205.226562 C 382.546875 205.789062 383.46875 206.375 384.378906 206.980469 C 385.289062 207.589844 386.1875 208.21875 387.066406 208.871094 C 387.945312 209.523438 388.808594 210.199219 389.652344 210.894531 C 390.5 211.585938 391.328125 212.300781 392.140625 213.035156 C 392.949219 213.773438 393.742188 214.527344 394.515625 215.300781 C 395.292969 216.074219 396.046875 216.867188 396.78125 217.679688 C 397.515625 218.488281 398.230469 219.320312 398.925781 220.164062 C 399.621094 221.011719 400.292969 221.875 400.945312 222.753906 C 401.597656 223.632812 402.226562 224.527344 402.835938 225.4375 C 403.445312 226.347656 404.03125 227.273438 404.59375 228.210938 C 405.15625 229.148438 405.695312 230.101562 406.210938 231.066406 C 406.726562 232.035156 407.21875 233.011719 407.6875 234 C 408.15625 234.988281 408.597656 235.992188 409.015625 237 C 409.4375 238.011719 409.828125 239.035156 410.199219 240.066406 C 410.566406 241.097656 410.910156 242.136719 411.230469 243.183594 C 411.546875 244.230469 411.839844 245.285156 412.105469 246.347656 C 412.371094 247.410156 412.609375 248.476562 412.824219 249.550781 C 413.039062 250.625 413.222656 251.703125 413.386719 252.785156 C 413.546875 253.867188 413.679688 254.953125 413.785156 256.042969 C 413.894531 257.132812 413.976562 258.222656 414.027344 259.316406 C 414.082031 260.410156 414.109375 261.503906 414.109375 262.601562 Z M 414.109375 262.601562 " fill-opacity="1" fill-rule="nonzero"/></svg>