<?xml version="1.0" standalone="no"?><!DOCTYPE svg PUBLIC "-//W3C//DTD SVG 1.1//EN" "http://www.w3.org/Graphics/SVG/1.1/DTD/svg11.dtd"><svg width="100%" height="100%" viewBox="0 0 175 146" version="1.1" xmlns="http://www.w3.org/2000/svg" xmlns:xlink="http://www.w3.org/1999/xlink" xml:space="preserve" style="fill-rule:evenodd;clip-rule:evenodd;stroke-linecap:round;stroke-linejoin:round;stroke-miterlimit:1.41421;"><g><g><path d="M22.943,46.583c18.799,-30.809 55.207,-29.552 93.608,-24.667c5.167,-5.202 10.348,-9.582 15.576,-11.198c2.614,1.38 2.198,9.976 2.138,17.724c7.694,5.406 13.982,12.154 19.616,19.527c5.963,-0.701 11.332,-0.42 16.109,0.841c2.16,11.468 1.253,22.624 -2.194,33.523l-10.531,0.206c-7.929,14.922 -17.325,22.56 -27.043,28.604l-5.926,27.77l-2.483,2.069c-5.122,0.575 -10.413,0.752 -16.008,0.215c-4.772,-4.161 -7.921,-11.747 -10.413,-20.721c-8.091,2.715 -17.299,3.259 -29.179,-1.388c-2.916,11.411 -5.975,19.205 -9.22,22.313c-7.214,1.133 -13.189,0.482 -18.275,-1.449c-2.576,-6.864 -3.658,-14.706 -3.545,-23.33c-13.948,-15.119 -17.626,-37.581 -14.405,-64.974c-3.984,-2.525 -6.985,-3.958 -8.116,-3.316c-1.825,1.317 -2.95,2.735 -2.689,4.355c0.496,2.31 1.591,2.091 3.522,-1.65c0.73,-1.561 -0.136,-6.303 -3.55,-7.039c-2.939,-0.634 -5.974,-0.836 -6.431,-1.704c-0.611,-0.552 -0.096,-1.795 5.708,-2.089c2.452,-0.169 6.139,1.747 7.683,4.795c1.531,3.642 0.982,6.894 -0.816,9.911c-1.961,2.909 -4.725,3.949 -7.34,2.895c-2.253,-0.908 -3.377,-3.392 -2.734,-7.347c0.321,-1.27 1.292,-2.837 2.875,-4.475c1.773,-1.788 4.615,-1.781 10.692,-0.082c2.437,1.024 2.96,0.886 3.371,0.681Z" style="fill:#008FD7;"/><path d="M160.617,45.865l0.268,0.004l0.266,0.006l0.266,0.007l0.265,0.009l0.264,0.01l0.263,0.011l0.261,0.013l0.262,0.015l0.261,0.016l0.259,0.018l0.259,0.019l0.258,0.02l0.258,0.023l0.257,0.023l0.255,0.025l0.256,0.027l0.253,0.028l0.254,0.03l0.252,0.031l0.252,0.032l0.25,0.035l0.251,0.035l0.249,0.038l0.249,0.038l0.247,0.041l0.246,0.041l0.247,0.044l0.245,0.044l0.244,0.047l0.243,0.047l0.243,0.05l0.241,0.051l0.242,0.052l0.239,0.054l0.24,0.056l0.238,0.057l0.237,0.058l0.238,0.06l0.23,0.06l0.263,0.092l0.245,0.133l0.22,0.171l0.19,0.203l0.155,0.232l0.115,0.254l0.073,0.269l0.051,0.273l0.05,0.276l0.048,0.273l0.048,0.276l0.047,0.276l0.045,0.273l0.044,0.276l0.044,0.275l0.042,0.273l0.041,0.275l0.039,0.276l0.039,0.272l0.037,0.276l0.037,0.275l0.035,0.275l0.034,0.272l0.033,0.275l0.032,0.272l0.03,0.272l0.03,0.275l0.029,0.274l0.027,0.275l0.026,0.271l0.025,0.272l0.024,0.274l0.023,0.274l0.022,0.271l0.021,0.274l0.019,0.271l0.019,0.274l0.017,0.27l0.016,0.274l0.015,0.271l0.014,0.273l0.013,0.27l0.012,0.273l0.011,0.27l0.009,0.273l0.009,0.27l0.007,0.272l0.007,0.27l0.005,0.272l0.004,0.273l0.003,0.269l0.002,0.269l0.001,0.275l0,0.269l-0.001,0.269l-0.002,0.271l-0.004,0.269l-0.004,0.271l-0.006,0.271l-0.006,0.268l-0.008,0.271l-0.009,0.271l-0.009,0.267l-0.011,0.271l-0.012,0.27l-0.013,0.267l-0.014,0.27l-0.002,0.029l-0.013,0.241l-0.017,0.267l-0.017,0.27l-0.018,0.266l-0.02,0.27l-0.02,0.266l-0.022,0.272l-0.022,0.266l-0.024,0.269l-0.024,0.268l-0.026,0.268l-0.027,0.269l-0.028,0.265l-0.028,0.265l-0.03,0.268l-0.031,0.27l-0.032,0.265l-0.033,0.267l-0.034,0.267l-0.035,0.267l-0.036,0.267l-0.037,0.267l-0.038,0.263l-0.039,0.27l-0.04,0.266l-0.042,0.266l-0.041,0.263l-0.044,0.268l-0.044,0.266l-0.045,0.265l-0.046,0.265l-0.047,0.266l-0.049,0.264l-0.049,0.265l-0.05,0.267l-0.051,0.262l-0.053,0.267l-0.053,0.264l-0.054,0.263l-0.055,0.264l-0.056,0.267l-0.057,0.263l-0.058,0.263l-0.059,0.263l-0.06,0.263l-0.062,0.266l-0.062,0.264l-0.063,0.263l-0.064,0.262l-0.066,0.265l-0.065,0.261l-0.068,0.265l-0.067,0.261l-0.07,0.265l-0.069,0.26l-0.07,0.261l-0.073,0.264l-0.072,0.26l-0.074,0.263l-0.075,0.264l-0.076,0.262l-0.076,0.26l-0.078,0.263l-0.078,0.259l-0.08,0.262l-0.08,0.262l-0.082,0.262l-0.081,0.257l-0.099,0.245l-0.135,0.227l-0.169,0.203l-0.199,0.174l-0.223,0.142l-0.243,0.105l-0.256,0.066l-0.262,0.025l-0.001,-0.009l-9.546,0.187l-0.099,0.182l-0.192,0.346l-0.192,0.345l-0.192,0.339l-0.193,0.339l-0.195,0.338l-0.193,0.333l-0.197,0.334l-0.194,0.326l-0.195,0.326l-0.198,0.326l-0.197,0.321l-0.197,0.319l-0.199,0.317l-0.198,0.314l-0.2,0.312l-0.2,0.311l-0.2,0.306l-0.2,0.305l-0.203,0.304l-0.201,0.299l-0.202,0.297l-0.203,0.296l-0.203,0.294l-0.204,0.291l-0.205,0.289l-0.205,0.288l-0.204,0.282l-0.205,0.282l-0.208,0.283l-0.205,0.276l-0.208,0.276l-0.207,0.274l-0.209,0.272l-0.208,0.268l-0.209,0.269l-0.208,0.262l-0.211,0.265l-0.21,0.261l-0.211,0.26l-0.211,0.257l-0.212,0.255l-0.211,0.252l-0.211,0.25l-0.215,0.252l-0.211,0.245l-0.215,0.246l-0.212,0.243l-0.217,0.244l-0.214,0.238l-0.215,0.238l-0.215,0.236l-0.217,0.235l-0.215,0.231l-0.217,0.232l-0.216,0.227l-0.218,0.228l-0.219,0.226l-0.216,0.222l-0.218,0.221l-0.219,0.221l-0.22,0.219l-0.218,0.215l-0.22,0.216l-0.22,0.214l-0.22,0.211l-0.219,0.209l-0.224,0.211l-0.22,0.206l-0.222,0.206l-0.222,0.204l-0.222,0.202l-0.222,0.2l-0.223,0.201l-0.223,0.197l-0.222,0.196l-0.224,0.195l-0.223,0.193l-0.224,0.193l-0.225,0.191l-0.224,0.189l-0.225,0.188l-0.225,0.186l-0.223,0.184l-0.228,0.186l-0.225,0.182l-0.227,0.182l-0.223,0.178l-0.228,0.18l-0.225,0.176l-0.228,0.178l-0.227,0.175l-0.227,0.174l-0.227,0.172l-0.228,0.172l-0.225,0.169l-0.23,0.171l-0.23,0.169l-0.227,0.166l-0.228,0.166l-0.226,0.163l-0.23,0.165l-0.226,0.161l-0.232,0.164l-0.228,0.16l-0.229,0.16l-0.228,0.158l-0.231,0.159l-0.227,0.156l-0.23,0.156l-0.228,0.154l-0.234,0.157l-0.229,0.153l-0.071,0.047l-0.16,0.106l-0.229,0.151l-0.23,0.151l-0.231,0.15l-0.231,0.149l-0.23,0.149l-0.227,0.145l-0.232,0.148l-0.232,0.147l-0.23,0.145l-0.099,0.063l-5.812,27.077l-0.078,0.257l-0.12,0.24l-0.157,0.217l-0.191,0.188l0,0l-2.484,2.067l-0.191,0.137l-0.209,0.107l-0.222,0.076l-0.231,0.043l-0.241,0.026l-0.243,0.026l-0.251,0.027l-0.24,0.024l-0.248,0.025l-0.245,0.023l-0.244,0.023l-0.25,0.023l-0.246,0.022l-0.246,0.021l-0.247,0.02l-0.251,0.02l-0.248,0.019l-0.244,0.019l-0.249,0.017l-0.253,0.018l-0.246,0.016l-0.25,0.015l-0.25,0.015l-0.251,0.015l-0.252,0.013l-0.251,0.013l-0.249,0.012l-0.253,0.011l-0.254,0.01l-0.25,0.01l-0.254,0.009l-0.251,0.008l-0.255,0.007l-0.253,0.006l-0.253,0.006l-0.259,0.005l-0.254,0.004l-0.255,0.003l-0.257,0.002l-0.256,0.002l-0.252,0l-0.26,0l-0.256,-0.001l-0.261,-0.003l-0.257,-0.002l-0.259,-0.004l-0.255,-0.005l-0.262,-0.006l-0.26,-0.006l-0.26,-0.008l-0.261,-0.008l-0.261,-0.01l-0.261,-0.01l-0.26,-0.011l-0.262,-0.013l-0.266,-0.013l-0.264,-0.014l-0.261,-0.016l-0.264,-0.016l-0.265,-0.017l-0.266,-0.018l-0.263,-0.019l-0.266,-0.021l-0.268,-0.021l-0.267,-0.023l-0.265,-0.023l-0.268,-0.024l-0.265,-0.026l-0.246,-0.042l-0.235,-0.081l-0.221,-0.116l-0.199,-0.15l-0.117,-0.103l-0.121,-0.109l-0.121,-0.11l-0.119,-0.111l-0.12,-0.113l-0.117,-0.114l-0.118,-0.115l-0.116,-0.115l-0.117,-0.118l-0.114,-0.118l-0.116,-0.121l-0.113,-0.121l-0.113,-0.122l-0.112,-0.123l-0.112,-0.124l-0.111,-0.126l-0.11,-0.127l-0.109,-0.127l-0.109,-0.129l-0.108,-0.129l-0.107,-0.132l-0.107,-0.132l-0.106,-0.133l-0.105,-0.134l-0.105,-0.135l-0.103,-0.135l-0.104,-0.139l-0.102,-0.138l-0.103,-0.14l-0.101,-0.14l-0.1,-0.14l-0.101,-0.143l-0.099,-0.144l-0.1,-0.145l-0.097,-0.144l-0.098,-0.147l-0.097,-0.148l-0.096,-0.148l-0.096,-0.15l-0.095,-0.15l-0.094,-0.15l-0.094,-0.152l-0.094,-0.154l-0.093,-0.154l-0.092,-0.154l-0.091,-0.156l-0.092,-0.157l-0.09,-0.158l-0.09,-0.158l-0.089,-0.159l-0.09,-0.161l-0.088,-0.16l-0.087,-0.162l-0.088,-0.164l-0.088,-0.165l-0.086,-0.165l-0.085,-0.164l-0.085,-0.166l-0.085,-0.168l-0.085,-0.169l-0.084,-0.169l-0.083,-0.169l-0.082,-0.17l-0.083,-0.172l-0.081,-0.171l-0.081,-0.173l-0.082,-0.175l-0.079,-0.173l-0.081,-0.176l-0.08,-0.178l-0.078,-0.174l-0.078,-0.178l-0.078,-0.178l-0.078,-0.179l-0.078,-0.182l-0.078,-0.184l-0.075,-0.179l-0.075,-0.181l-0.076,-0.184l-0.076,-0.184l-0.074,-0.183l-0.075,-0.187l-0.073,-0.185l-0.074,-0.187l-0.072,-0.186l-0.073,-0.188l-0.073,-0.19l-0.072,-0.192l-0.071,-0.188l-0.07,-0.188l-0.072,-0.195l-0.07,-0.192l-0.14,-0.385l-0.138,-0.391l-0.136,-0.39l-0.136,-0.394l-0.134,-0.397l-0.132,-0.4l-0.131,-0.399l-0.13,-0.404l-0.128,-0.406l-0.128,-0.409l-0.126,-0.411l-0.124,-0.412l-0.124,-0.415l-0.123,-0.417l-0.04,-0.139l-0.029,0.009l-0.2,0.058l-0.201,0.058l-0.201,0.056l-0.202,0.056l-0.203,0.055l-0.203,0.053l-0.202,0.053l-0.207,0.053l-0.204,0.05l-0.204,0.05l-0.206,0.049l-0.207,0.048l-0.205,0.047l-0.208,0.046l-0.208,0.045l-0.209,0.044l-0.21,0.043l-0.208,0.042l-0.211,0.041l-0.212,0.04l-0.211,0.038l-0.212,0.038l-0.212,0.036l-0.213,0.036l-0.214,0.034l-0.216,0.034l-0.214,0.031l-0.216,0.031l-0.215,0.03l-0.216,0.028l-0.218,0.028l-0.219,0.026l-0.218,0.025l-0.22,0.024l-0.22,0.023l-0.22,0.021l-0.221,0.021l-0.222,0.019l-0.222,0.017l-0.223,0.017l-0.224,0.015l-0.224,0.014l-0.225,0.013l-0.226,0.011l-0.225,0.01l-0.229,0.009l-0.227,0.007l-0.229,0.006l-0.229,0.005l-0.228,0.004l-0.23,0.002l-0.231,0.001l-0.234,-0.001l-0.231,-0.002l-0.232,-0.003l-0.235,-0.005l-0.235,-0.006l-0.235,-0.008l-0.237,-0.009l-0.235,-0.01l-0.236,-0.012l-0.238,-0.014l-0.238,-0.014l-0.241,-0.017l-0.239,-0.017l-0.241,-0.02l-0.241,-0.02l-0.243,-0.022l-0.241,-0.024l-0.245,-0.025l-0.243,-0.027l-0.247,-0.028l-0.245,-0.03l-0.247,-0.031l-0.248,-0.033l-0.248,-0.035l-0.246,-0.035l-0.251,-0.038l-0.25,-0.039l-0.25,-0.041l-0.254,-0.043l-0.252,-0.044l-0.254,-0.045l-0.255,-0.048l-0.253,-0.048l-0.256,-0.051l-0.255,-0.052l-0.257,-0.053l-0.258,-0.056l-0.26,-0.057l-0.259,-0.059l-0.261,-0.06l-0.262,-0.063l-0.263,-0.064l-0.262,-0.065l-0.264,-0.068l-0.264,-0.069l-0.264,-0.07l-0.268,-0.073l-0.265,-0.074l-0.268,-0.076l-0.268,-0.078l-0.27,-0.08l-0.272,-0.081l-0.27,-0.083l-0.271,-0.085l-0.274,-0.087l-0.275,-0.089l-0.274,-0.09l-0.276,-0.093l-0.275,-0.093l-0.278,-0.096l-0.278,-0.098l-0.279,-0.1l-0.103,-0.037l-0.128,0.478l-0.14,0.514l-0.139,0.509l-0.141,0.507l-0.14,0.498l-0.14,0.493l-0.141,0.489l-0.142,0.482l-0.141,0.478l-0.142,0.472l-0.142,0.467l-0.142,0.46l-0.143,0.456l-0.142,0.449l-0.143,0.444l-0.144,0.44l-0.144,0.433l-0.144,0.427l-0.144,0.422l-0.145,0.416l-0.145,0.411l-0.145,0.405l-0.145,0.398l-0.074,0.2l-0.073,0.194l-0.073,0.194l-0.073,0.193l-0.073,0.191l-0.074,0.192l-0.073,0.187l-0.075,0.19l-0.073,0.184l-0.074,0.186l-0.073,0.182l-0.075,0.182l-0.073,0.179l-0.074,0.178l-0.076,0.18l-0.073,0.174l-0.075,0.175l-0.075,0.173l-0.075,0.172l-0.075,0.169l-0.075,0.169l-0.075,0.167l-0.075,0.166l-0.075,0.163l-0.076,0.163l-0.076,0.162l-0.076,0.16l-0.075,0.156l-0.076,0.158l-0.076,0.155l-0.077,0.154l-0.076,0.152l-0.077,0.15l-0.077,0.15l-0.076,0.147l-0.078,0.148l-0.077,0.144l-0.078,0.144l-0.077,0.141l-0.078,0.141l-0.078,0.139l-0.077,0.137l-0.079,0.136l-0.079,0.135l-0.078,0.132l-0.079,0.132l-0.079,0.13l-0.08,0.129l-0.079,0.126l-0.08,0.127l-0.08,0.124l-0.08,0.121l-0.081,0.122l-0.08,0.119l-0.082,0.119l-0.081,0.116l-0.081,0.115l-0.082,0.113l-0.082,0.112l-0.083,0.111l-0.083,0.11l-0.083,0.107l-0.083,0.105l-0.084,0.105l-0.084,0.103l-0.085,0.102l-0.084,0.1l-0.086,0.098l-0.086,0.097l-0.086,0.096l-0.086,0.093l-0.087,0.092l-0.087,0.091l-0.088,0.089l-0.089,0.088l-0.082,0.079l-0.175,0.145l-0.195,0.117l-0.211,0.085l-0.221,0.052l-0.17,0.027l-0.175,0.026l-0.171,0.025l-0.174,0.025l-0.173,0.024l-0.17,0.024l-0.171,0.022l-0.172,0.022l-0.169,0.022l-0.171,0.021l-0.169,0.02l-0.168,0.019l-0.171,0.019l-0.17,0.019l-0.164,0.017l-0.17,0.017l-0.169,0.016l-0.166,0.016l-0.163,0.014l-0.168,0.015l-0.164,0.014l-0.165,0.013l-0.164,0.012l-0.164,0.012l-0.166,0.011l-0.164,0.01l-0.163,0.01l-0.159,0.009l-0.163,0.009l-0.161,0.008l-0.162,0.007l-0.161,0.007l-0.158,0.006l-0.163,0.005l-0.158,0.005l-0.16,0.004l-0.159,0.004l-0.159,0.003l-0.156,0.002l-0.159,0.002l-0.158,0.001l-0.155,0.001l-0.157,-0.001l-0.157,0l-0.157,-0.002l-0.154,-0.002l-0.156,-0.002l-0.153,-0.003l-0.153,-0.004l-0.155,-0.005l-0.154,-0.005l-0.152,-0.005l-0.152,-0.006l-0.151,-0.007l-0.153,-0.008l-0.153,-0.008l-0.15,-0.008l-0.15,-0.009l-0.149,-0.01l-0.152,-0.011l-0.151,-0.011l-0.148,-0.011l-0.148,-0.012l-0.148,-0.013l-0.147,-0.013l-0.147,-0.014l-0.149,-0.015l-0.147,-0.015l-0.146,-0.016l-0.145,-0.016l-0.148,-0.017l-0.145,-0.017l-0.145,-0.018l-0.144,-0.019l-0.144,-0.019l-0.143,-0.02l-0.143,-0.02l-0.146,-0.021l-0.14,-0.021l-0.144,-0.022l-0.142,-0.023l-0.141,-0.023l-0.141,-0.024l-0.141,-0.024l-0.14,-0.025l-0.14,-0.025l-0.14,-0.026l-0.139,-0.026l-0.139,-0.027l-0.141,-0.028l-0.136,-0.028l-0.138,-0.029l-0.137,-0.029l-0.137,-0.029l-0.137,-0.031l-0.136,-0.031l-0.136,-0.031l-0.138,-0.032l-0.133,-0.032l-0.137,-0.034l-0.134,-0.033l-0.134,-0.034l-0.134,-0.035l-0.134,-0.035l-0.135,-0.036l-0.13,-0.036l-0.134,-0.037l-0.132,-0.037l-0.132,-0.038l-0.131,-0.038l-0.133,-0.039l-0.13,-0.04l-0.13,-0.039l-0.129,-0.041l-0.13,-0.04l-0.128,-0.042l-0.131,-0.042l-0.128,-0.042l-0.128,-0.043l-0.13,-0.044l-0.252,-0.088l-0.254,-0.09l-0.253,-0.093l-0.245,-0.092l-0.223,-0.106l-0.202,-0.143l-0.175,-0.175l-0.142,-0.202l-0.106,-0.224l0,0l-0.061,-0.164l-0.061,-0.166l-0.061,-0.167l-0.06,-0.168l-0.059,-0.167l-0.059,-0.167l-0.058,-0.169l-0.058,-0.168l-0.057,-0.169l-0.057,-0.17l-0.056,-0.169l-0.055,-0.17l-0.056,-0.171l-0.054,-0.17l-0.054,-0.171l-0.053,-0.172l-0.052,-0.171l-0.053,-0.172l-0.051,-0.172l-0.051,-0.173l-0.045,-0.153l-0.006,-0.019l-0.05,-0.174l-0.049,-0.174l-0.049,-0.174l-0.048,-0.174l-0.048,-0.175l-0.047,-0.174l-0.047,-0.176l-0.045,-0.174l-0.046,-0.177l-0.045,-0.176l-0.045,-0.177l-0.043,-0.177l-0.044,-0.177l-0.043,-0.178l-0.042,-0.177l-0.042,-0.179l-0.041,-0.178l-0.041,-0.179l-0.04,-0.179l-0.04,-0.18l-0.039,-0.179l-0.038,-0.18l-0.038,-0.181l-0.038,-0.181l-0.037,-0.181l-0.036,-0.181l-0.036,-0.183l-0.07,-0.363l-0.068,-0.365l-0.067,-0.367l-0.064,-0.368l-0.062,-0.37l-0.059,-0.37l-0.058,-0.372l-0.056,-0.373l-0.054,-0.374l-0.052,-0.376l-0.049,-0.376l-0.048,-0.378l-0.046,-0.379l-0.044,-0.38l-0.041,-0.381l-0.04,-0.383l-0.038,-0.384l-0.036,-0.385l-0.034,-0.386l-0.032,-0.387l-0.03,-0.389l-0.028,-0.389l-0.026,-0.391l-0.025,-0.392l-0.022,-0.393l-0.02,-0.394l-0.019,-0.395l-0.017,-0.397l-0.015,-0.397l-0.013,-0.399l-0.011,-0.4l-0.009,-0.401l-0.008,-0.402l-0.005,-0.403l-0.004,-0.404l-0.002,-0.406l0,-0.406l0.002,-0.408l0.002,-0.262l-0.119,-0.132l-0.164,-0.185l-0.165,-0.187l-0.162,-0.187l-0.161,-0.185l-0.161,-0.189l-0.159,-0.187l-0.158,-0.189l-0.158,-0.19l-0.156,-0.189l-0.157,-0.192l-0.154,-0.191l-0.154,-0.192l-0.152,-0.193l-0.152,-0.194l-0.151,-0.194l-0.151,-0.196l-0.148,-0.195l-0.149,-0.196l-0.147,-0.198l-0.146,-0.197l-0.145,-0.198l-0.144,-0.198l-0.143,-0.2l-0.143,-0.2l-0.142,-0.202l-0.14,-0.201l-0.14,-0.203l-0.139,-0.203l-0.138,-0.204l-0.136,-0.203l-0.136,-0.205l-0.135,-0.205l-0.134,-0.206l-0.133,-0.207l-0.132,-0.208l-0.131,-0.208l-0.131,-0.209l-0.129,-0.209l-0.128,-0.21l-0.128,-0.21l-0.127,-0.212l-0.125,-0.211l-0.125,-0.213l-0.124,-0.213l-0.122,-0.213l-0.122,-0.215l-0.122,-0.215l-0.12,-0.216l-0.119,-0.216l-0.119,-0.218l-0.117,-0.216l-0.117,-0.219l-0.115,-0.219l-0.115,-0.219l-0.113,-0.22l-0.113,-0.22l-0.112,-0.222l-0.111,-0.221l-0.111,-0.223l-0.109,-0.223l-0.108,-0.224l-0.108,-0.224l-0.107,-0.225l-0.105,-0.225l-0.105,-0.226l-0.104,-0.227l-0.103,-0.228l-0.102,-0.227l-0.102,-0.229l-0.099,-0.228l-0.101,-0.231l-0.098,-0.23l-0.098,-0.231l-0.096,-0.231l-0.097,-0.233l-0.094,-0.232l-0.095,-0.233l-0.093,-0.234l-0.093,-0.235l-0.091,-0.235l-0.091,-0.236l-0.09,-0.235l-0.089,-0.238l-0.088,-0.237l-0.087,-0.238l-0.087,-0.238l-0.085,-0.239l-0.085,-0.241l-0.084,-0.24l-0.083,-0.24l-0.082,-0.242l-0.081,-0.242l-0.081,-0.243l-0.079,-0.243l-0.079,-0.243l-0.078,-0.245l-0.077,-0.244l-0.076,-0.246l-0.075,-0.246l-0.075,-0.246l-0.073,-0.248l-0.073,-0.248l-0.072,-0.248l-0.071,-0.249l-0.07,-0.25l-0.07,-0.249l-0.069,-0.251l-0.067,-0.251l-0.067,-0.252l-0.066,-0.252l-0.066,-0.253l-0.064,-0.253l-0.064,-0.254l-0.062,-0.254l-0.063,-0.256l-0.061,-0.255l-0.06,-0.256l-0.06,-0.257l-0.058,-0.256l-0.058,-0.259l-0.057,-0.257l-0.057,-0.26l-0.055,-0.259l-0.055,-0.26l-0.053,-0.26l-0.053,-0.261l-0.053,-0.262l-0.051,-0.262l-0.051,-0.263l-0.05,-0.263l-0.049,-0.264l-0.048,-0.264l-0.047,-0.264l-0.047,-0.266l-0.046,-0.265l-0.045,-0.267l-0.044,-0.267l-0.044,-0.267l-0.042,-0.268l-0.042,-0.269l-0.041,-0.269l-0.04,-0.269l-0.04,-0.27l-0.039,-0.271l-0.038,-0.271l-0.037,-0.272l-0.036,-0.272l-0.036,-0.272l-0.035,-0.274l-0.034,-0.273l-0.033,-0.275l-0.033,-0.274l-0.032,-0.276l-0.031,-0.276l-0.03,-0.276l-0.029,-0.277l-0.029,-0.277l-0.028,-0.278l-0.027,-0.278l-0.027,-0.279l-0.025,-0.28l-0.025,-0.279l-0.025,-0.281l-0.023,-0.281l-0.023,-0.281l-0.022,-0.282l-0.021,-0.283l-0.02,-0.283l-0.02,-0.283l-0.019,-0.284l-0.018,-0.285l-0.017,-0.284l-0.017,-0.286l-0.016,-0.286l-0.015,-0.287l-0.015,-0.286l-0.013,-0.288l-0.013,-0.288l-0.013,-0.288l-0.011,-0.289l-0.011,-0.29l-0.01,-0.29l-0.01,-0.29l-0.008,-0.291l-0.008,-0.292l-0.007,-0.292l-0.007,-0.292l-0.005,-0.293l-0.005,-0.293l-0.005,-0.294l-0.003,-0.294l-0.003,-0.295l-0.002,-0.296l-0.002,-0.296l-0.001,-0.296l0,-0.296l0.001,-0.298l0.001,-0.297l0.003,-0.298l0.002,-0.299l0.004,-0.299l0.004,-0.3l0.005,-0.3l0.006,-0.301l0.006,-0.301l0.007,-0.302l0.008,-0.301l0.008,-0.303l0.009,-0.303l0.01,-0.304l0.01,-0.303l0.012,-0.305l0.011,-0.305l0.013,-0.305l0.013,-0.305l0.014,-0.307l0.015,-0.307l0.015,-0.307l0.016,-0.307l0.017,-0.309l0.017,-0.308l0.018,-0.309l0.019,-0.31l0.019,-0.31l0.02,-0.31l0.021,-0.311l0.021,-0.312l0.022,-0.311l0.023,-0.313l0.023,-0.312l0.024,-0.314l0.025,-0.313l0.025,-0.314l0.026,-0.315l0.027,-0.315l0.027,-0.315l0.028,-0.316l0.029,-0.316l0.029,-0.317l0.03,-0.318l0.03,-0.317l0.032,-0.318l0.032,-0.32l0.032,-0.318l0.033,-0.32l0.034,-0.32l0.035,-0.32l0.035,-0.321l0.036,-0.321l0.036,-0.321l0.019,-0.163l-0.042,-0.026l-0.175,-0.109l-0.175,-0.107l-0.173,-0.106l-0.172,-0.104l-0.037,-0.022l-0.003,0.01l-0.021,0.084l-0.022,0.083l-0.022,0.083l-0.023,0.083l-0.024,0.083l-0.024,0.084l-0.05,0.163l-0.052,0.164l-0.055,0.163l-0.057,0.163l-0.06,0.162l-0.061,0.161l-0.064,0.16l-0.066,0.16l-0.068,0.16l-0.071,0.158l-0.072,0.158l-0.074,0.157l-0.077,0.157l-0.078,0.155l-0.081,0.156l-0.082,0.154l-0.085,0.154l-0.086,0.154l-0.088,0.152l-0.106,0.179l-0.069,0.102l-0.052,0.075l-0.052,0.073l-0.052,0.074l-0.053,0.072l-0.053,0.071l-0.054,0.072l-0.053,0.07l-0.055,0.069l-0.054,0.069l-0.055,0.068l-0.055,0.068l-0.056,0.066l-0.056,0.067l-0.056,0.065l-0.057,0.065l-0.057,0.064l-0.058,0.063l-0.057,0.063l-0.059,0.062l-0.058,0.061l-0.059,0.06l-0.059,0.06l-0.06,0.059l-0.06,0.059l-0.06,0.057l-0.06,0.057l-0.061,0.056l-0.061,0.056l-0.062,0.054l-0.062,0.054l-0.062,0.054l-0.062,0.052l-0.063,0.052l-0.063,0.051l-0.064,0.05l-0.063,0.05l-0.065,0.049l-0.064,0.047l-0.065,0.048l-0.065,0.046l-0.065,0.046l-0.066,0.045l-0.066,0.044l-0.066,0.043l-0.067,0.043l-0.066,0.042l-0.068,0.041l-0.067,0.04l-0.068,0.04l-0.067,0.038l-0.069,0.038l-0.068,0.037l-0.069,0.037l-0.069,0.035l-0.069,0.035l-0.07,0.034l-0.07,0.033l-0.07,0.032l-0.07,0.031l-0.071,0.031l-0.07,0.03l-0.071,0.028l-0.072,0.029l-0.071,0.027l-0.072,0.026l-0.072,0.026l-0.072,0.024l-0.072,0.024l-0.072,0.023l-0.073,0.022l-0.073,0.021l-0.073,0.021l-0.073,0.019l-0.074,0.019l-0.073,0.017l-0.074,0.017l-0.073,0.016l-0.074,0.015l-0.075,0.014l-0.074,0.014l-0.074,0.012l-0.075,0.012l-0.074,0.01l-0.075,0.01l-0.075,0.009l-0.075,0.008l-0.075,0.007l-0.075,0.006l-0.075,0.005l-0.075,0.004l-0.076,0.003l-0.075,0.003l-0.075,0.001l-0.075,0.001l-0.076,0l-0.075,-0.001l-0.076,-0.003l-0.075,-0.003l-0.076,-0.004l-0.075,-0.004l-0.076,-0.006l-0.075,-0.007l-0.075,-0.007l-0.076,-0.009l-0.075,-0.009l-0.075,-0.011l-0.076,-0.011l-0.075,-0.012l-0.075,-0.013l-0.075,-0.014l-0.075,-0.015l-0.075,-0.016l-0.075,-0.016l-0.074,-0.018l-0.075,-0.019l-0.075,-0.019l-0.074,-0.02l-0.074,-0.021l-0.074,-0.022l-0.074,-0.023l-0.074,-0.024l-0.074,-0.025l-0.073,-0.025l-0.074,-0.027l-0.073,-0.027l-0.073,-0.028l-0.074,-0.03l-0.065,-0.026l-0.064,-0.028l-0.065,-0.029l-0.064,-0.029l-0.064,-0.03l-0.063,-0.031l-0.063,-0.031l-0.062,-0.032l-0.062,-0.034l-0.062,-0.033l-0.06,-0.035l-0.061,-0.035l-0.06,-0.036l-0.059,-0.037l-0.059,-0.038l-0.059,-0.038l-0.058,-0.039l-0.057,-0.04l-0.057,-0.041l-0.056,-0.041l-0.056,-0.042l-0.056,-0.043l-0.054,-0.044l-0.055,-0.044l-0.053,-0.045l-0.053,-0.046l-0.052,-0.047l-0.052,-0.047l-0.051,-0.048l-0.051,-0.049l-0.05,-0.049l-0.049,-0.05l-0.049,-0.051l-0.048,-0.051l-0.047,-0.052l-0.047,-0.053l-0.046,-0.054l-0.046,-0.054l-0.045,-0.055l-0.044,-0.055l-0.043,-0.056l-0.043,-0.057l-0.042,-0.057l-0.042,-0.058l-0.04,-0.059l-0.04,-0.059l-0.04,-0.06l-0.039,-0.06l-0.038,-0.061l-0.037,-0.062l-0.037,-0.062l-0.035,-0.063l-0.036,-0.063l-0.034,-0.064l-0.034,-0.064l-0.033,-0.065l-0.032,-0.066l-0.032,-0.066l-0.031,-0.066l-0.03,-0.067l-0.03,-0.068l-0.029,-0.068l-0.028,-0.069l-0.028,-0.069l-0.026,-0.07l-0.026,-0.07l-0.026,-0.071l-0.024,-0.071l-0.024,-0.072l-0.023,-0.072l-0.023,-0.073l-0.022,-0.073l-0.021,-0.074l-0.021,-0.074l-0.019,-0.074l-0.019,-0.076l-0.019,-0.075l-0.017,-0.076l-0.017,-0.077l-0.017,-0.077l-0.015,-0.077l-0.015,-0.078l-0.015,-0.078l-0.013,-0.079l-0.013,-0.08l-0.012,-0.079l-0.012,-0.081l-0.011,-0.08l-0.01,-0.081l-0.009,-0.082l-0.009,-0.082l-0.008,-0.083l-0.008,-0.082l-0.006,-0.084l-0.007,-0.084l-0.005,-0.084l-0.005,-0.085l-0.004,-0.085l-0.003,-0.086l-0.003,-0.086l-0.002,-0.086l-0.002,-0.087l0,-0.088l0,-0.088l0,-0.088l0.001,-0.089l0.002,-0.089l0.003,-0.09l0.003,-0.09l0.004,-0.091l0.005,-0.091l0.005,-0.092l0.006,-0.092l0.007,-0.092l0.007,-0.093l0.008,-0.093l0.008,-0.094l0.01,-0.095l0.01,-0.094l0.01,-0.095l0.012,-0.096l0.012,-0.096l0.012,-0.097l0.014,-0.099l0.028,-0.193l0.039,-0.246l0.031,-0.12l0.021,-0.074l0.021,-0.074l0.023,-0.074l0.023,-0.074l0.025,-0.075l0.025,-0.074l0.027,-0.075l0.027,-0.075l0.029,-0.075l0.029,-0.074l0.031,-0.075l0.031,-0.076l0.033,-0.075l0.033,-0.075l0.034,-0.076l0.036,-0.076l0.036,-0.076l0.037,-0.076l0.038,-0.076l0.039,-0.076l0.04,-0.076l0.041,-0.077l0.042,-0.077l0.043,-0.076l0.044,-0.077l0.045,-0.077l0.045,-0.078l0.047,-0.077l0.047,-0.077l0.048,-0.078l0.05,-0.078l0.05,-0.077l0.051,-0.078l0.052,-0.078l0.053,-0.079l0.054,-0.078l0.054,-0.079l0.056,-0.078l0.057,-0.079l0.057,-0.079l0.059,-0.079l0.059,-0.079l0.06,-0.079l0.061,-0.079l0.062,-0.08l0.063,-0.079l0.064,-0.08l0.064,-0.08l0.066,-0.08l0.066,-0.079l0.068,-0.081l0.068,-0.08l0.069,-0.08l0.07,-0.08l0.071,-0.08l0.072,-0.081l0.073,-0.08l0.073,-0.081l0.075,-0.081l0.075,-0.08l0.076,-0.081l0.077,-0.081l0.085,-0.087l0.056,-0.056l0.052,-0.05l0.053,-0.05l0.054,-0.05l0.054,-0.048l0.02,-0.018l-0.039,-0.007l-0.266,-0.049l-0.267,-0.047l-0.262,-0.046l-0.523,-0.091l-0.254,-0.044l-0.253,-0.045l-0.249,-0.045l-0.245,-0.045l-0.24,-0.046l-0.234,-0.046l-0.117,-0.025l-0.115,-0.024l-0.113,-0.024l-0.112,-0.025l-0.11,-0.026l-0.109,-0.026l-0.108,-0.027l-0.107,-0.027l-0.105,-0.028l-0.103,-0.029l-0.103,-0.029l-0.101,-0.031l-0.1,-0.032l-0.098,-0.033l-0.098,-0.034l-0.096,-0.036l-0.096,-0.038l-0.094,-0.04l-0.094,-0.042l-0.093,-0.045l-0.093,-0.047l-0.087,-0.048l-0.051,-0.03l-0.045,-0.028l-0.046,-0.029l-0.046,-0.03l-0.045,-0.032l-0.046,-0.033l-0.045,-0.035l-0.045,-0.036l-0.045,-0.038l-0.045,-0.04l-0.044,-0.041l-0.044,-0.044l-0.044,-0.046l-0.043,-0.049l-0.042,-0.051l-0.041,-0.053l-0.034,-0.048l-0.064,-0.075l-0.064,-0.084l-0.056,-0.083l-0.034,-0.056l-0.028,-0.05l-0.027,-0.051l-0.025,-0.053l-0.024,-0.054l-0.023,-0.056l-0.02,-0.058l-0.019,-0.059l-0.017,-0.061l-0.014,-0.062l-0.013,-0.063l-0.01,-0.064l-0.007,-0.065l-0.005,-0.065l-0.003,-0.066l0.001,-0.067l0.003,-0.066l0.005,-0.067l0.008,-0.066l0.011,-0.065l0.014,-0.065l0.015,-0.064l0.018,-0.063l0.021,-0.062l0.022,-0.061l0.025,-0.059l0.026,-0.058l0.028,-0.056l0.03,-0.055l0.031,-0.053l0.033,-0.052l0.034,-0.051l0.035,-0.048l0.036,-0.048l0.037,-0.046l0.038,-0.044l0.039,-0.043l0.04,-0.042l0.041,-0.041l0.041,-0.039l0.043,-0.039l0.043,-0.037l0.043,-0.036l0.045,-0.035l0.045,-0.035l0.045,-0.033l0.047,-0.033l0.047,-0.032l0.048,-0.031l0.048,-0.03l0.049,-0.03l0.05,-0.029l0.051,-0.028l0.051,-0.028l0.053,-0.028l0.053,-0.027l0.054,-0.026l0.054,-0.026l0.056,-0.025l0.057,-0.026l0.057,-0.024l0.061,-0.026l0.117,-0.046l0.123,-0.046l0.128,-0.044l0.132,-0.044l0.136,-0.042l0.142,-0.041l0.145,-0.039l0.151,-0.039l0.156,-0.037l0.161,-0.037l0.166,-0.035l0.172,-0.034l0.178,-0.033l0.183,-0.032l0.188,-0.031l0.196,-0.03l0.201,-0.028l0.207,-0.028l0.214,-0.026l0.22,-0.025l0.227,-0.024l0.233,-0.022l0.241,-0.022l0.248,-0.02l0.254,-0.018l0.261,-0.017l0.269,-0.016l0.267,-0.014l0.061,-0.004l0.074,-0.003l0.075,-0.003l0.074,-0.001l0.075,-0.001l0.075,0.001l0.075,0.001l0.075,0.002l0.075,0.003l0.075,0.004l0.076,0.005l0.075,0.006l0.076,0.007l0.075,0.007l0.076,0.008l0.076,0.01l0.076,0.01l0.076,0.01l0.077,0.012l0.076,0.013l0.077,0.013l0.076,0.014l0.077,0.015l0.076,0.015l0.077,0.017l0.077,0.017l0.077,0.018l0.077,0.019l0.077,0.019l0.077,0.021l0.076,0.02l0.077,0.022l0.077,0.023l0.078,0.023l0.077,0.024l0.077,0.024l0.077,0.026l0.077,0.026l0.077,0.027l0.077,0.027l0.077,0.028l0.077,0.029l0.077,0.03l0.077,0.03l0.076,0.031l0.077,0.032l0.077,0.032l0.076,0.033l0.077,0.034l0.077,0.035l0.076,0.035l0.076,0.036l0.076,0.036l0.077,0.037l0.076,0.038l0.075,0.039l0.076,0.039l0.076,0.04l0.075,0.04l0.075,0.041l0.075,0.042l0.075,0.043l0.074,0.043l0.075,0.044l0.074,0.044l0.074,0.045l0.074,0.046l0.073,0.046l0.074,0.047l0.073,0.048l0.073,0.048l0.073,0.049l0.072,0.049l0.072,0.051l0.072,0.05l0.071,0.052l0.072,0.052l0.07,0.053l0.071,0.053l0.07,0.054l0.07,0.054l0.07,0.056l0.069,0.056l0.069,0.056l0.068,0.057l0.068,0.058l0.068,0.058l0.067,0.059l0.067,0.06l0.066,0.06l0.066,0.061l0.066,0.061l0.065,0.062l0.065,0.063l0.064,0.063l0.063,0.064l0.064,0.064l0.062,0.065l0.062,0.066l0.062,0.066l0.061,0.067l0.061,0.067l0.06,0.068l0.059,0.069l0.059,0.07l0.058,0.069l0.058,0.071l0.057,0.071l0.057,0.072l0.055,0.072l0.056,0.073l0.054,0.074l0.054,0.074l0.053,0.074l0.052,0.075l0.052,0.076l0.051,0.077l0.051,0.077l0.049,0.078l0.049,0.078l0.048,0.079l0.048,0.079l0.046,0.08l0.046,0.08l0.045,0.082l0.044,0.081l0.018,0.035l0.072,0.018l0.26,0.065l0.265,0.068l0.268,0.071l0.273,0.072l0.277,0.076l0.282,0.077l0.349,0.098l0.28,0.117l0.203,0.083l0.192,0.076l0.18,0.07l0.171,0.064l0.16,0.058l0.075,0.026l0.073,0.025l0.071,0.024l0.068,0.023l0.066,0.021l0.063,0.019l0.061,0.019l0.059,0.017l0.056,0.016l0.053,0.015l0.052,0.013l0.049,0.013l0.046,0.011l0.044,0.01l0.043,0.009l0.039,0.008l0.038,0.008l0.035,0.006l0.033,0.005l0.031,0.005l0.029,0.004l0.026,0.003l0.025,0.003l0.01,0.001l0.108,-0.178l0.112,-0.183l0.112,-0.181l0.113,-0.181l0.113,-0.18l0.113,-0.18l0.114,-0.179l0.114,-0.178l0.115,-0.177l0.115,-0.177l0.116,-0.175l0.116,-0.176l0.116,-0.174l0.117,-0.173l0.117,-0.174l0.118,-0.172l0.118,-0.172l0.118,-0.17l0.119,-0.171l0.119,-0.169l0.12,-0.169l0.12,-0.168l0.121,-0.167l0.12,-0.167l0.122,-0.166l0.122,-0.165l0.122,-0.165l0.123,-0.164l0.123,-0.163l0.123,-0.162l0.124,-0.162l0.124,-0.162l0.125,-0.16l0.125,-0.159l0.126,-0.16l0.126,-0.159l0.125,-0.157l0.127,-0.157l0.128,-0.157l0.127,-0.155l0.128,-0.155l0.128,-0.154l0.129,-0.154l0.129,-0.153l0.129,-0.152l0.13,-0.152l0.131,-0.151l0.13,-0.15l0.131,-0.15l0.132,-0.148l0.132,-0.149l0.132,-0.147l0.132,-0.147l0.133,-0.147l0.134,-0.145l0.134,-0.145l0.134,-0.144l0.134,-0.144l0.135,-0.143l0.136,-0.142l0.136,-0.142l0.136,-0.141l0.137,-0.14l0.136,-0.14l0.137,-0.139l0.138,-0.138l0.138,-0.138l0.139,-0.137l0.139,-0.136l0.139,-0.136l0.139,-0.135l0.14,-0.134l0.141,-0.134l0.141,-0.134l0.14,-0.132l0.142,-0.132l0.142,-0.131l0.142,-0.131l0.142,-0.129l0.143,-0.13l0.144,-0.128l0.143,-0.128l0.144,-0.128l0.145,-0.127l0.109,-0.094l0.035,-0.031l0.146,-0.126l0.146,-0.125l0.146,-0.123l0.146,-0.124l0.147,-0.123l0.147,-0.122l0.147,-0.121l0.148,-0.121l0.148,-0.12l0.149,-0.12l0.149,-0.118l0.149,-0.119l0.15,-0.118l0.15,-0.117l0.15,-0.116l0.151,-0.116l0.151,-0.115l0.151,-0.115l0.152,-0.114l0.152,-0.113l0.152,-0.113l0.153,-0.112l0.153,-0.112l0.154,-0.111l0.153,-0.11l0.154,-0.11l0.155,-0.109l0.155,-0.109l0.154,-0.107l0.156,-0.108l0.156,-0.107l0.156,-0.106l0.156,-0.106l0.157,-0.105l0.157,-0.104l0.157,-0.104l0.158,-0.103l0.158,-0.103l0.159,-0.101l0.159,-0.102l0.159,-0.101l0.159,-0.1l0.159,-0.1l0.161,-0.099l0.16,-0.098l0.161,-0.098l0.161,-0.098l0.161,-0.096l0.161,-0.096l0.162,-0.096l0.163,-0.095l0.162,-0.094l0.163,-0.094l0.163,-0.094l0.164,-0.092l0.164,-0.093l0.163,-0.091l0.165,-0.091l0.165,-0.091l0.165,-0.09l0.165,-0.089l0.166,-0.089l0.166,-0.088l0.167,-0.088l0.166,-0.087l0.167,-0.086l0.167,-0.086l0.167,-0.086l0.168,-0.085l0.169,-0.084l0.168,-0.084l0.169,-0.083l0.168,-0.083l0.17,-0.082l0.169,-0.082l0.17,-0.08l0.169,-0.081l0.171,-0.08l0.171,-0.079l0.172,-0.08l0.171,-0.078l0.171,-0.077l0.172,-0.078l0.172,-0.077l0.172,-0.076l0.174,-0.076l0.172,-0.075l0.174,-0.074l0.173,-0.074l0.174,-0.074l0.174,-0.073l0.174,-0.072l0.176,-0.073l0.174,-0.071l0.175,-0.071l0.176,-0.07l0.176,-0.071l0.176,-0.069l0.177,-0.069l0.353,-0.136l0.354,-0.134l0.356,-0.133l0.356,-0.13l0.358,-0.128l0.359,-0.126l0.36,-0.124l0.361,-0.123l0.362,-0.12l0.363,-0.118l0.364,-0.117l0.365,-0.114l0.366,-0.113l0.367,-0.111l0.368,-0.108l0.369,-0.107l0.37,-0.105l0.371,-0.103l0.372,-0.101l0.373,-0.1l0.373,-0.097l0.376,-0.096l0.375,-0.094l0.377,-0.092l0.378,-0.091l0.378,-0.088l0.379,-0.087l0.381,-0.085l0.381,-0.084l0.383,-0.081l0.382,-0.08l0.384,-0.078l0.385,-0.076l0.386,-0.075l0.386,-0.073l0.388,-0.072l0.388,-0.069l0.389,-0.068l0.39,-0.067l0.391,-0.064l0.391,-0.064l0.191,-0.029l0.202,-0.032l0.394,-0.059l0.394,-0.058l0.395,-0.057l0.396,-0.054l0.396,-0.053l0.398,-0.052l0.397,-0.05l0.4,-0.049l0.399,-0.047l0.401,-0.045l0.401,-0.044l0.403,-0.043l0.402,-0.041l0.404,-0.04l0.404,-0.038l0.405,-0.037l0.406,-0.035l0.406,-0.034l0.408,-0.033l0.408,-0.031l0.408,-0.03l0.409,-0.028l0.41,-0.027l0.41,-0.026l0.412,-0.024l0.412,-0.023l0.413,-0.022l0.413,-0.02l0.414,-0.019l0.415,-0.018l0.415,-0.017l0.416,-0.015l0.417,-0.014l0.417,-0.013l0.418,-0.012l0.418,-0.01l0.419,-0.009l0.421,-0.008l0.419,-0.007l0.421,-0.006l0.421,-0.004l0.423,-0.003l0.423,-0.002l0.423,-0.001l0.424,0l0.424,0.001l0.425,0.002l0.425,0.004l0.427,0.004l0.426,0.006l0.428,0.007l0.427,0.007l0.428,0.009l0.149,0.004l0.28,0.006l0.43,0.012l0.428,0.012l0.431,0.013l0.43,0.014l0.432,0.016l0.432,0.016l0.432,0.017l0.433,0.018l0.433,0.019l0.435,0.02l0.433,0.021l0.434,0.022l0.434,0.023l0.438,0.023l0.435,0.025l0.437,0.025l0.436,0.026l0.438,0.027l0.437,0.028l0.438,0.029l0.438,0.03l0.438,0.03l0.441,0.031l0.439,0.032l0.44,0.033l0.441,0.033l0.44,0.034l0.441,0.035l0.44,0.035l0.443,0.037l0.442,0.037l0.443,0.038l0.444,0.038l0.441,0.039l0.445,0.04l0.446,0.041l0.442,0.041l0.446,0.042l0.444,0.042l0.444,0.043l0.446,0.043l0.892,0.089l0.893,0.092l0.893,0.093l0.895,0.096l0.896,0.097l0.897,0.1l0.898,0.101l0.11,0.013l0.789,0.092l0.901,0.106l0.899,0.108l0.9,0.109l0.901,0.111l0.001,-0.002l0.085,0.011l0.152,-0.152l0.246,-0.243l0.247,-0.244l0.245,-0.24l0.245,-0.239l0.246,-0.238l0.248,-0.238l0.244,-0.233l0.248,-0.235l0.246,-0.232l0.247,-0.23l0.246,-0.228l0.247,-0.226l0.25,-0.228l0.247,-0.223l0.249,-0.221l0.247,-0.22l0.248,-0.217l0.25,-0.217l0.248,-0.213l0.25,-0.212l0.25,-0.21l0.25,-0.208l0.25,-0.206l0.251,-0.203l0.25,-0.2l0.251,-0.199l0.251,-0.196l0.253,-0.194l0.251,-0.191l0.254,-0.19l0.251,-0.185l0.129,-0.094l0.126,-0.091l0.126,-0.09l0.128,-0.091l0.126,-0.09l0.127,-0.088l0.128,-0.089l0.126,-0.086l0.129,-0.088l0.127,-0.086l0.127,-0.085l0.128,-0.085l0.128,-0.084l0.128,-0.083l0.128,-0.083l0.128,-0.082l0.129,-0.081l0.127,-0.08l0.128,-0.079l0.13,-0.079l0.128,-0.078l0.129,-0.077l0.13,-0.077l0.129,-0.076l0.128,-0.074l0.131,-0.075l0.129,-0.073l0.13,-0.072l0.13,-0.072l0.129,-0.071l0.131,-0.07l0.13,-0.069l0.131,-0.068l0.13,-0.067l0.13,-0.067l0.132,-0.066l0.13,-0.064l0.132,-0.064l0.131,-0.063l0.131,-0.063l0.132,-0.061l0.132,-0.06l0.131,-0.059l0.133,-0.059l0.132,-0.057l0.133,-0.057l0.132,-0.056l0.133,-0.054l0.133,-0.054l0.133,-0.053l0.133,-0.051l0.133,-0.051l0.134,-0.05l0.133,-0.049l0.134,-0.047l0.135,-0.047l0.134,-0.046l0.134,-0.044l0.135,-0.044l0.128,-0.04l0.267,-0.061l0.273,-0.017l0.273,0.026l0.265,0.069l0.25,0.111l0,0l0.046,0.024l0.061,0.035l0.059,0.035l0.059,0.036l0.058,0.038l0.057,0.039l0.055,0.039l0.055,0.04l0.054,0.041l0.053,0.042l0.051,0.043l0.052,0.043l0.05,0.045l0.048,0.044l0.048,0.046l0.048,0.046l0.046,0.047l0.045,0.047l0.044,0.048l0.043,0.048l0.043,0.049l0.041,0.049l0.04,0.049l0.044,0.055l0.073,0.097l0.074,0.102l0.071,0.105l0.068,0.105l0.065,0.107l0.063,0.109l0.06,0.109l0.058,0.111l0.055,0.111l0.054,0.112l0.051,0.114l0.025,0.056l0.025,0.06l0.048,0.116l0.046,0.117l0.044,0.119l0.043,0.119l0.042,0.121l0.04,0.122l0.038,0.122l0.037,0.125l0.036,0.124l0.035,0.127l0.034,0.128l0.032,0.128l0.031,0.131l0.03,0.13l0.03,0.133l0.028,0.134l0.027,0.134l0.027,0.136l0.025,0.138l0.025,0.137l0.023,0.139l0.023,0.142l0.022,0.14l0.022,0.144l0.02,0.144l0.02,0.145l0.019,0.147l0.018,0.147l0.018,0.15l0.017,0.148l0.016,0.153l0.016,0.15l0.015,0.153l0.014,0.152l0.014,0.158l0.013,0.155l0.013,0.158l0.012,0.155l0.011,0.161l0.011,0.161l0.02,0.322l0.019,0.326l0.016,0.33l0.015,0.335l0.013,0.335l0.011,0.341l0.009,0.343l0.009,0.345l0.007,0.349l0.005,0.35l0.004,0.354l0.004,0.355l0.002,0.355l0.001,0.363l0,0.361l0,0.36l-0.001,0.366l-0.002,0.364l-0.005,0.73l-0.007,0.728l-0.008,0.762l-0.005,0.39l-0.012,1.058l0,-0.002l-0.006,0.553l0.173,0.125l0.182,0.133l0.179,0.131l0.183,0.135l0.179,0.133l0.182,0.136l0.18,0.135l0.178,0.135l0.177,0.135l0.178,0.137l0.176,0.135l0.177,0.138l0.179,0.139l0.174,0.137l0.175,0.139l0.175,0.139l0.175,0.14l0.172,0.138l0.174,0.141l0.173,0.141l0.172,0.141l0.172,0.142l0.172,0.143l0.169,0.141l0.173,0.145l0.17,0.144l0.168,0.142l0.17,0.145l0.168,0.145l0.169,0.145l0.168,0.147l0.165,0.144l0.167,0.147l0.167,0.147l0.166,0.147l0.163,0.146l0.166,0.149l0.165,0.149l0.164,0.149l0.164,0.15l0.16,0.147l0.164,0.151l0.162,0.15l0.163,0.152l0.161,0.151l0.161,0.152l0.32,0.304l0.212,0.203l0.106,0.102l0.318,0.308l0.314,0.309l0.314,0.311l0.311,0.311l0.311,0.314l0.307,0.313l0.307,0.316l0.306,0.318l0.305,0.32l0.3,0.318l0.302,0.322l0.299,0.323l0.299,0.325l0.296,0.325l0.295,0.326l0.293,0.327l0.292,0.329l0.291,0.331l0.289,0.33l0.287,0.332l0.287,0.334l0.286,0.336l0.285,0.337l0.281,0.334l0.283,0.339l0.28,0.339l0.279,0.34l0.277,0.341l0.277,0.342l0.276,0.345l0.273,0.342l0.274,0.346l0.274,0.347l0.269,0.346l0.209,0.268l0.161,-0.016l0.283,-0.027l0.284,-0.025l0.283,-0.025l0.281,-0.022l0.28,-0.021l0.28,-0.02l0.28,-0.018l0.279,-0.017l0.278,-0.015l0.275,-0.014l0.277,-0.013l0.275,-0.01l0.275,-0.01l0.274,-0.008l0.272,-0.006l0.271,-0.005l0.114,-0.001l0.157,-0.002l0.271,-0.002l0.27,0l0.268,0.001l0.267,0.002ZM66.762,117.677l0.274,0.106l0.269,0.103l0.27,0.101l0.269,0.1l0.267,0.097l0.266,0.096l0.266,0.094l0.266,0.092l0.261,0.09l0.264,0.089l0.26,0.086l0.26,0.085l0.258,0.082l0.259,0.082l0.258,0.08l0.257,0.078l0.256,0.076l0.255,0.074l0.252,0.073l0.252,0.07l0.252,0.07l0.252,0.068l0.249,0.065l0.249,0.064l0.247,0.063l0.248,0.061l0.246,0.059l0.244,0.058l0.245,0.056l0.244,0.054l0.241,0.053l0.243,0.051l0.239,0.049l0.242,0.049l0.238,0.046l0.24,0.045l0.235,0.043l0.237,0.042l0.237,0.041l0.234,0.038l0.233,0.038l0.233,0.035l0.232,0.035l0.233,0.033l0.229,0.031l0.229,0.03l0.231,0.028l0.226,0.027l0.229,0.026l0.227,0.024l0.226,0.022l0.223,0.022l0.225,0.02l0.224,0.018l0.222,0.017l0.223,0.016l0.221,0.014l0.22,0.013l0.221,0.012l0.219,0.01l0.217,0.009l0.217,0.008l0.218,0.006l0.216,0.005l0.215,0.004l0.216,0.003l0.213,0.001l0.213,0l0.214,-0.002l0.211,-0.002l0.211,-0.004l0.212,-0.005l0.21,-0.006l0.209,-0.008l0.21,-0.008l0.208,-0.01l0.207,-0.011l0.208,-0.013l0.205,-0.013l0.207,-0.015l0.203,-0.015l0.205,-0.017l0.204,-0.018l0.204,-0.02l0.203,-0.02l0.201,-0.021l0.202,-0.023l0.202,-0.024l0.201,-0.024l0.199,-0.026l0.199,-0.027l0.2,-0.028l0.196,-0.029l0.199,-0.03l0.197,-0.031l0.197,-0.032l0.198,-0.034l0.194,-0.034l0.196,-0.035l0.195,-0.036l0.194,-0.037l0.192,-0.038l0.195,-0.04l0.194,-0.04l0.19,-0.041l0.194,-0.043l0.191,-0.043l0.189,-0.043l0.192,-0.045l0.19,-0.046l0.19,-0.047l0.189,-0.048l0.19,-0.049l0.186,-0.049l0.19,-0.05l0.187,-0.052l0.187,-0.052l0.187,-0.053l0.185,-0.053l0.189,-0.056l0.185,-0.055l0.184,-0.056l0.184,-0.057l0.187,-0.059l0.183,-0.059l0.184,-0.06l0.184,-0.06l0.187,-0.063l0.244,-0.06l0.252,-0.02l0.251,0.021l0.244,0.062l0.232,0.099l0.212,0.136l0.188,0.169l0.158,0.196l0.124,0.219l0.087,0.237l0.06,0.213l0.057,0.203l0.117,0.412l0.119,0.411l0.119,0.408l0.12,0.405l0.121,0.402l0.123,0.4l0.123,0.398l0.124,0.394l0.125,0.393l0.127,0.39l0.128,0.387l0.128,0.384l0.13,0.381l0.131,0.378l0.132,0.376l0.134,0.375l0.134,0.368l0.069,0.185l-0.002,-0.004l0.07,0.187l-0.002,-0.004l0.07,0.186l-0.002,-0.004l0.07,0.184l0.069,0.18l0.069,0.18l0.069,0.177l0.071,0.179l0.07,0.177l0.071,0.177l0.07,0.175l0.072,0.176l0.071,0.173l0.072,0.172l0.072,0.173l0.072,0.17l0.074,0.172l0.073,0.168l0.073,0.169l0.074,0.167l0.075,0.17l0.074,0.163l0.076,0.167l0.075,0.164l0.076,0.164l0.076,0.162l0.075,0.16l0.077,0.161l0.077,0.159l0.078,0.16l0.077,0.156l0.079,0.157l0.078,0.156l0.08,0.155l0.078,0.153l0.08,0.152l0.08,0.153l0.08,0.15l0.081,0.15l0.081,0.148l0.081,0.148l0.082,0.146l0.082,0.145l0.083,0.145l0.082,0.143l0.084,0.143l0.082,0.139l0.086,0.142l0.084,0.139l0.085,0.139l0.084,0.135l0.086,0.137l0.087,0.136l0.086,0.133l0.086,0.133l0.087,0.131l0.087,0.13l0.088,0.13l0.089,0.128l0.087,0.126l0.09,0.126l0.089,0.125l0.09,0.124l0.091,0.124l0.09,0.12l0.091,0.12l0.091,0.12l0.091,0.117l0.092,0.117l0.093,0.115l0.093,0.115l0.093,0.113l0.093,0.111l0.094,0.111l0.095,0.11l0.095,0.108l0.095,0.107l0.095,0.106l0.095,0.104l0.097,0.104l0.097,0.102l0.097,0.101l0.097,0.099l0.098,0.099l0.098,0.098l0.098,0.095l0.1,0.096l0.099,0.093l0.027,0.025l0.251,0.022l0.254,0.02l0.254,0.02l0.253,0.019l0.255,0.018l0.253,0.016l0.252,0.016l0.252,0.015l0.254,0.014l0.249,0.013l0.253,0.012l0.248,0.011l0.253,0.01l0.25,0.01l0.249,0.008l0.25,0.007l0.249,0.007l0.248,0.006l0.249,0.005l0.248,0.003l0.248,0.004l0.244,0.002l0.251,0.001l0.244,0.001l0.247,-0.001l0.243,-0.001l0.247,-0.002l0.246,-0.003l0.243,-0.003l0.245,-0.005l0.246,-0.005l0.242,-0.006l0.245,-0.007l0.245,-0.007l0.244,-0.009l-0.006,0.001l0.248,-0.01l0.241,-0.01l0.241,-0.01l0.241,-0.011l0.244,-0.013l0.24,-0.012l0.241,-0.014l0.24,-0.014l0.243,-0.015l0.24,-0.016l0.236,-0.016l0.243,-0.017l0.239,-0.018l0.24,-0.018l0.239,-0.019l0.235,-0.02l0.241,-0.02l0.237,-0.021l0.239,-0.022l0.239,-0.022l0.234,-0.023l0.24,-0.024l-0.004,0.001l0.241,-0.025l-0.004,0.001l0.238,-0.025l0.231,-0.025l1.684,-1.404l-0.004,-0.002l5.81,-27.225l-0.033,-0.007l0.075,-0.253l0.115,-0.238l0.152,-0.217l0.184,-0.189l0.213,-0.158l0,0l0.225,-0.141l0.226,-0.142l0.223,-0.141l0.225,-0.142l0.222,-0.142l0.226,-0.144l0.224,-0.145l-0.004,0.003l0.225,-0.146l0.224,-0.146l0.224,-0.146l-0.004,0.002l0.224,-0.148l0.224,-0.148l0.15,-0.1l0.069,-0.046l0.223,-0.149l0.221,-0.149l0.223,-0.151l0.22,-0.151l0.223,-0.153l0.22,-0.152l0.22,-0.153l0.222,-0.156l-0.004,0.003l0.221,-0.156l0.221,-0.157l0.22,-0.157l0.22,-0.158l0.219,-0.159l0.219,-0.16l0.216,-0.159l0.22,-0.163l0.217,-0.162l0.219,-0.164l0.216,-0.164l0.22,-0.168l0.215,-0.166l0.217,-0.167l0.215,-0.168l0.216,-0.17l0.217,-0.172l0.217,-0.174l0.214,-0.173l0.216,-0.175l0.215,-0.176l0.212,-0.175l0.214,-0.179l0.215,-0.18l0.214,-0.181l0.213,-0.182l0.212,-0.183l0.213,-0.184l0.213,-0.187l0.211,-0.187l0.212,-0.189l0.212,-0.19l0.212,-0.192l0.211,-0.193l0.212,-0.196l0.21,-0.195l0.208,-0.196l0.21,-0.199l0.21,-0.201l0.207,-0.2l0.211,-0.205l0.209,-0.206l0.206,-0.204l0.208,-0.209l0.207,-0.209l0.206,-0.21l0.208,-0.214l0.207,-0.215l0.206,-0.216l0.205,-0.217l0.206,-0.22l0.204,-0.22l0.205,-0.224l0.205,-0.225l0.204,-0.226l0.205,-0.23l0.201,-0.227l0.205,-0.234l0.201,-0.233l0.202,-0.235l0.202,-0.238l0.202,-0.239l0.201,-0.241l0.2,-0.243l0.202,-0.246l0.199,-0.246l0.2,-0.249l0.199,-0.251l0.198,-0.252l0.199,-0.257l0.199,-0.257l0.198,-0.26l0.195,-0.258l0.198,-0.265l0.197,-0.265l0.196,-0.268l0.196,-0.27l0.195,-0.271l0.194,-0.274l0.196,-0.278l0.194,-0.277l0.193,-0.281l0.194,-0.283l0.192,-0.285l0.192,-0.287l0.193,-0.291l0.191,-0.29l0.192,-0.296l0.19,-0.296l0.19,-0.298l0.191,-0.304l0.187,-0.301l0.19,-0.308l0.188,-0.308l0.188,-0.312l0.188,-0.314l0.187,-0.316l0.188,-0.32l0.185,-0.319l0.186,-0.326l0.185,-0.325l0.184,-0.328l0.186,-0.334l0.183,-0.333l0.183,-0.336l0.182,-0.339l0.185,-0.346l0,0l0.137,-0.216l0,0l0.168,-0.192l0.195,-0.165l0.218,-0.134l0.235,-0.099l0.248,-0.063l0.254,-0.024l9.301,-0.19l0.026,-0.089l0.074,-0.252l0.074,-0.252l0.071,-0.247l0.071,-0.252l0.07,-0.25l0.069,-0.252l0.068,-0.249l0.068,-0.253l0.066,-0.252l0.065,-0.25l0.065,-0.253l0.063,-0.249l0.063,-0.253l0.061,-0.249l0.061,-0.252l0.06,-0.254l0.059,-0.249l0.058,-0.252l0.057,-0.253l0.055,-0.25l0.055,-0.25l0.055,-0.255l0.052,-0.25l0.053,-0.253l0.051,-0.252l0.05,-0.253l0.049,-0.25l0.049,-0.256l0.047,-0.25l0.046,-0.253l0.046,-0.253l0.044,-0.253l0.043,-0.25l0.043,-0.253l0.042,-0.256l0.04,-0.25l0.04,-0.256l0.039,-0.253l0.037,-0.254l0.037,-0.25l0.036,-0.256l0.034,-0.253l0.034,-0.254l0.033,-0.253l0.032,-0.256l0.031,-0.251l0.03,-0.257l0.028,-0.253l0.028,-0.254l0.027,-0.253l0.026,-0.254l0.025,-0.254l0.024,-0.254l0.023,-0.257l0.022,-0.256l0.021,-0.251l0.02,-0.257l0.019,-0.254l0.017,-0.255l0.017,-0.254l0.016,-0.257l0.015,-0.254l0.013,-0.228l0.001,-0.027l0.013,-0.257l0.012,-0.258l0.011,-0.254l0.01,-0.255l0.009,-0.258l0.008,-0.255l0.007,-0.255l0.006,-0.255l0.005,-0.258l0.004,-0.257l0.003,-0.256l0.002,-0.255l0,-0.258l0,-0.256l-0.001,-0.258l-0.002,-0.256l-0.004,-0.259l-0.004,-0.256l-0.005,-0.259l-0.007,-0.256l-0.007,-0.259l-0.009,-0.256l-0.009,-0.259l-0.011,-0.257l-0.011,-0.256l-0.013,-0.257l-0.013,-0.26l-0.015,-0.259l-0.016,-0.257l-0.017,-0.26l-0.017,-0.258l-0.019,-0.257l-0.02,-0.26l-0.021,-0.258l-0.022,-0.261l-0.023,-0.257l-0.025,-0.261l-0.025,-0.258l-0.026,-0.261l-0.028,-0.259l-0.028,-0.261l-0.03,-0.259l-0.03,-0.261l-0.032,-0.259l-0.033,-0.259l-0.034,-0.262l-0.034,-0.26l-0.036,-0.262l-0.037,-0.26l-0.038,-0.259l-0.039,-0.26l-0.04,-0.26l-0.042,-0.263l-0.042,-0.261l-0.044,-0.263l-0.037,-0.218l-0.015,-0.003l-0.217,-0.049l-0.218,-0.047l-0.219,-0.046l-0.221,-0.044l-0.219,-0.043l-0.223,-0.042l-0.223,-0.04l-0.223,-0.039l-0.224,-0.038l-0.226,-0.037l-0.226,-0.034l-0.228,-0.034l-0.228,-0.032l-0.229,-0.031l-0.23,-0.03l-0.231,-0.028l-0.232,-0.027l-0.232,-0.025l-0.234,-0.024l-0.235,-0.023l-0.235,-0.021l-0.236,-0.02l-0.238,-0.019l-0.238,-0.017l-0.24,-0.016l-0.24,-0.015l-0.241,-0.013l-0.243,-0.012l-0.242,-0.01l-0.244,-0.009l-0.244,-0.008l-0.247,-0.006l-0.247,-0.005l-0.246,-0.003l-0.249,-0.002l-0.25,-0.001l-0.249,0l-0.252,0.002l-0.147,0.002l-0.106,0.002l-0.253,0.005l-0.254,0.006l-0.254,0.007l-0.257,0.009l-0.257,0.01l-0.257,0.012l-0.259,0.013l-0.26,0.014l-0.261,0.016l-0.262,0.018l-0.262,0.018l-0.263,0.02l-0.265,0.022l-0.266,0.023l-0.265,0.024l-0.267,0.025l-0.269,0.027l-0.269,0.029l-0.269,0.03l-0.276,0.031l0,0l-0.297,0.009l-0.295,-0.043l-0.283,-0.092l-0.263,-0.139l-0.236,-0.183l-0.2,-0.219l-0.264,-0.344l-0.263,-0.341l-0.262,-0.338l-0.263,-0.336l-0.266,-0.337l-0.266,-0.336l-0.267,-0.334l-0.268,-0.334l-0.27,-0.333l-0.27,-0.331l-0.272,-0.332l-0.271,-0.327l-0.275,-0.329l-0.273,-0.326l-0.276,-0.325l-0.277,-0.326l-0.277,-0.322l-0.28,-0.322l-0.279,-0.319l-0.282,-0.32l-0.282,-0.317l-0.284,-0.317l-0.284,-0.314l-0.288,-0.316l-0.288,-0.312l-0.288,-0.311l-0.29,-0.31l-0.292,-0.309l-0.293,-0.306l-0.294,-0.306l-0.295,-0.303l-0.297,-0.302l-0.299,-0.302l-0.3,-0.3l-0.301,-0.298l-0.303,-0.296l-0.305,-0.296l-0.102,-0.098l-0.204,-0.195l-0.307,-0.293l-0.154,-0.145l-0.154,-0.145l-0.155,-0.144l-0.157,-0.146l-0.155,-0.143l-0.156,-0.144l-0.156,-0.143l-0.156,-0.142l-0.159,-0.143l-0.158,-0.142l-0.157,-0.141l-0.158,-0.141l-0.159,-0.14l-0.159,-0.14l-0.159,-0.139l-0.162,-0.141l-0.16,-0.139l-0.161,-0.138l-0.161,-0.138l-0.163,-0.138l-0.16,-0.136l-0.165,-0.138l-0.162,-0.136l-0.163,-0.135l-0.164,-0.136l-0.166,-0.136l-0.162,-0.133l-0.168,-0.135l-0.164,-0.133l-0.168,-0.135l-0.165,-0.131l-0.166,-0.132l-0.167,-0.131l-0.17,-0.133l-0.167,-0.129l-0.17,-0.132l-0.171,-0.131l-0.169,-0.129l-0.168,-0.128l-0.173,-0.13l-0.171,-0.128l-0.171,-0.127l-0.173,-0.128l-0.172,-0.126l-0.173,-0.126l-0.173,-0.126l-0.174,-0.125l-0.175,-0.125l-0.176,-0.125l-0.177,-0.125l-0.214,-0.178l-0.183,-0.211l0,0l-0.147,-0.237l-0.107,-0.257l-0.064,-0.272l-0.02,-0.278l0.007,-0.73l0.008,-0.737l0.014,-1.073l0.005,-0.395l0,0.001l0.01,-0.734l0,0.002l0.008,-0.73l0.007,-0.725l0,0.004l0.003,-0.362l0,0.003l0.002,-0.358l0.001,-0.357l0,0.004l0,-0.357l0,0.004l0,-0.35l-0.002,-0.349l-0.002,-0.345l-0.003,-0.341l-0.005,-0.339l-0.006,-0.334l-0.007,-0.33l-0.008,-0.328l-0.01,-0.324l-0.012,-0.317l-0.013,-0.312l-0.014,-0.309l-0.017,-0.305l-0.018,-0.301l-0.01,-0.145l-0.01,-0.144l-0.01,-0.144l-0.012,-0.145l-0.011,-0.142l-0.012,-0.138l-0.013,-0.14l-0.013,-0.137l-0.014,-0.134l-0.014,-0.134l-0.015,-0.133l-0.015,-0.13l-0.015,-0.127l-0.016,-0.126l-0.017,-0.126l-0.017,-0.121l-0.018,-0.121l-0.018,-0.118l-0.019,-0.117l-0.019,-0.115l-0.02,-0.112l-0.02,-0.112l-0.021,-0.108l-0.021,-0.106l-0.022,-0.104l-0.022,-0.103l-0.023,-0.098l-0.023,-0.097l-0.023,-0.094l-0.024,-0.092l-0.025,-0.089l-0.025,-0.088l-0.025,-0.083l-0.025,-0.082l-0.025,-0.078l-0.026,-0.077l-0.026,-0.073l-0.026,-0.07l-0.027,-0.067l-0.026,-0.064l-0.013,-0.032l-0.013,-0.029l-0.026,-0.058l-0.024,-0.052l-0.005,0.002l-0.111,0.042l-0.112,0.044l-0.111,0.045l-0.112,0.045l-0.112,0.046l-0.112,0.048l-0.113,0.048l-0.112,0.049l-0.112,0.05l-0.113,0.051l-0.113,0.052l-0.113,0.053l-0.113,0.054l-0.113,0.054l-0.113,0.056l-0.114,0.056l-0.113,0.057l-0.114,0.059l-0.114,0.058l-0.113,0.06l-0.114,0.061l-0.114,0.061l-0.115,0.063l-0.114,0.063l-0.114,0.064l-0.115,0.065l-0.115,0.066l-0.115,0.067l-0.115,0.067l-0.115,0.068l-0.115,0.069l-0.115,0.07l-0.115,0.07l-0.115,0.072l-0.116,0.072l-0.115,0.073l-0.116,0.074l-0.115,0.075l-0.117,0.075l-0.116,0.077l-0.115,0.076l-0.116,0.077l-0.117,0.08l-0.116,0.078l-0.116,0.08l-0.115,0.08l-0.118,0.083l-0.116,0.081l-0.117,0.083l-0.116,0.083l-0.116,0.084l-0.234,0.172l-0.235,0.174l-0.234,0.175l-0.234,0.18l-0.236,0.182l-0.235,0.184l-0.235,0.187l-0.236,0.189l-0.236,0.192l-0.234,0.194l-0.237,0.197l-0.237,0.2l-0.236,0.201l-0.237,0.203l-0.237,0.207l-0.236,0.207l-0.239,0.211l-0.238,0.213l-0.237,0.214l-0.237,0.215l-0.238,0.219l-0.238,0.22l-0.239,0.223l-0.238,0.224l-0.239,0.226l-0.238,0.227l-0.241,0.231l-0.237,0.229l-0.238,0.231l-0.241,0.236l-0.24,0.236l-0.238,0.235l-0.239,0.238l-0.242,0.242l-0.193,0.166l-0.216,0.135l0,0l-0.233,0.101l-0.247,0.064l-0.253,0.026l-0.254,-0.013l-0.898,-0.115l-0.897,-0.114l-0.894,-0.113l-0.895,-0.111l-0.892,-0.109l-0.783,-0.094l-0.109,-0.014l-0.891,-0.106l-0.89,-0.105l-0.889,-0.103l-0.887,-0.101l-0.886,-0.099l-0.884,-0.096l-0.883,-0.094l-0.442,-0.046l0.002,0l-0.441,-0.046l-0.442,-0.045l-0.438,-0.044l-0.44,-0.044l-0.44,-0.043l-0.439,-0.042l-0.437,-0.042l-0.439,-0.041l-0.436,-0.04l-0.439,-0.04l-0.436,-0.039l-0.436,-0.038l-0.435,-0.038l-0.435,-0.036l-0.436,-0.036l-0.433,-0.035l-0.435,-0.035l-0.434,-0.034l-0.432,-0.033l-0.435,-0.032l0.003,0l-0.434,-0.031l-0.431,-0.031l-0.431,-0.029l-0.431,-0.029l-0.431,-0.028l-0.429,-0.027l-0.428,-0.026l-0.43,-0.026l-0.427,-0.024l-0.428,-0.024l-0.426,-0.022l-0.426,-0.022l-0.426,-0.021l-0.425,-0.02l-0.425,-0.019l-0.424,-0.018l-0.424,-0.017l-0.424,-0.016l-0.421,-0.015l-0.422,-0.014l-0.276,-0.009l-0.145,-0.004l-0.421,-0.013l-0.42,-0.011l-0.42,-0.011l-0.418,-0.009l-0.418,-0.008l-0.418,-0.008l-0.417,-0.006l-0.416,-0.005l-0.415,-0.004l-0.416,-0.003l-0.414,-0.002l-0.414,0l-0.412,0l-0.412,0.002l-0.413,0.003l-0.41,0.003l-0.41,0.006l-0.41,0.006l-0.408,0.007l-0.409,0.009l-0.407,0.01l-0.406,0.011l-0.406,0.012l-0.406,0.014l-0.404,0.015l-0.404,0.016l-0.403,0.017l-0.402,0.019l-0.402,0.02l-0.401,0.021l-0.399,0.023l-0.399,0.023l-0.399,0.026l-0.397,0.026l-0.397,0.028l-0.396,0.029l-0.395,0.031l-0.395,0.032l-0.393,0.033l-0.393,0.035l-0.392,0.036l-0.391,0.038l-0.39,0.039l-0.389,0.04l-0.389,0.042l-0.388,0.044l-0.387,0.045l-0.386,0.046l-0.384,0.047l-0.385,0.05l-0.383,0.051l-0.383,0.052l-0.381,0.054l-0.197,0.028l-0.184,0.027l-0.379,0.056l-0.38,0.058l-0.378,0.059l-0.377,0.061l-0.376,0.063l-0.375,0.064l-0.374,0.066l-0.374,0.067l-0.372,0.069l-0.372,0.071l-0.37,0.072l-0.37,0.074l-0.369,0.076l-0.367,0.077l-0.367,0.079l-0.366,0.08l-0.365,0.082l-0.363,0.084l-0.363,0.086l-0.362,0.087l-0.361,0.089l-0.359,0.091l-0.359,0.093l-0.358,0.094l-0.357,0.097l-0.355,0.097l-0.355,0.1l-0.354,0.101l-0.352,0.104l-0.352,0.105l-0.35,0.107l-0.35,0.109l-0.348,0.11l-0.347,0.113l-0.347,0.114l-0.345,0.116l-0.344,0.118l-0.343,0.12l-0.342,0.122l-0.341,0.124l-0.341,0.126l-0.168,0.063l-0.169,0.064l-0.169,0.065l-0.169,0.065l-0.168,0.065l-0.168,0.066l-0.168,0.067l-0.168,0.067l-0.167,0.067l-0.167,0.069l-0.167,0.068l-0.166,0.069l-0.166,0.069l-0.166,0.07l-0.165,0.071l-0.165,0.07l-0.165,0.072l-0.166,0.072l-0.164,0.073l-0.164,0.073l-0.164,0.073l-0.164,0.074l-0.163,0.075l-0.163,0.075l-0.162,0.075l-0.163,0.076l-0.162,0.077l-0.161,0.077l-0.163,0.078l-0.161,0.078l-0.16,0.078l-0.162,0.08l-0.16,0.079l-0.16,0.08l-0.16,0.081l-0.159,0.081l-0.16,0.082l-0.159,0.083l-0.159,0.083l-0.158,0.083l-0.158,0.084l-0.158,0.084l-0.157,0.085l-0.157,0.086l-0.157,0.086l-0.156,0.086l-0.156,0.087l-0.157,0.088l-0.155,0.088l-0.156,0.089l-0.155,0.089l-0.155,0.09l-0.154,0.091l-0.154,0.091l-0.154,0.091l-0.154,0.092l-0.153,0.093l-0.153,0.093l-0.153,0.094l-0.152,0.094l-0.152,0.095l-0.152,0.095l-0.151,0.096l-0.151,0.097l-0.151,0.097l-0.151,0.097l-0.15,0.099l-0.15,0.098l-0.15,0.1l-0.149,0.1l-0.149,0.1l-0.149,0.101l-0.148,0.102l-0.148,0.102l-0.148,0.103l-0.147,0.103l-0.148,0.104l-0.146,0.105l-0.147,0.105l-0.146,0.106l-0.146,0.106l-0.145,0.107l-0.146,0.107l-0.144,0.108l-0.145,0.109l-0.145,0.109l-0.143,0.11l-0.144,0.111l-0.144,0.111l-0.142,0.111l-0.143,0.113l-0.143,0.112l-0.142,0.114l-0.141,0.114l-0.142,0.115l-0.141,0.115l-0.141,0.116l-0.141,0.117l-0.14,0.117l-0.034,0.029l-0.106,0.088l-0.139,0.118l-0.139,0.119l-0.14,0.119l-0.139,0.12l-0.138,0.121l-0.138,0.121l-0.138,0.122l-0.137,0.122l-0.137,0.123l-0.137,0.124l-0.137,0.124l-0.136,0.125l-0.136,0.126l-0.135,0.126l-0.135,0.126l-0.135,0.128l-0.135,0.129l-0.134,0.128l-0.134,0.13l-0.133,0.13l-0.134,0.131l-0.132,0.131l-0.132,0.131l-0.133,0.133l-0.132,0.134l-0.131,0.134l-0.131,0.134l-0.132,0.136l-0.13,0.136l-0.13,0.136l-0.13,0.137l-0.129,0.138l-0.13,0.139l-0.128,0.139l-0.129,0.14l-0.128,0.14l-0.128,0.142l-0.127,0.141l-0.127,0.143l-0.127,0.143l-0.127,0.144l-0.126,0.145l-0.126,0.145l-0.125,0.146l-0.125,0.147l-0.125,0.147l-0.124,0.148l-0.124,0.149l-0.124,0.149l-0.123,0.15l-0.123,0.151l-0.123,0.152l-0.122,0.152l-0.122,0.152l-0.121,0.154l-0.121,0.154l-0.121,0.155l-0.121,0.156l-0.12,0.156l-0.12,0.157l-0.119,0.158l-0.12,0.159l-0.118,0.159l-0.119,0.16l-0.117,0.16l-0.118,0.161l-0.118,0.163l-0.116,0.162l-0.117,0.163l-0.116,0.165l-0.116,0.165l-0.115,0.165l-0.116,0.167l-0.115,0.167l-0.114,0.167l-0.114,0.169l-0.113,0.169l-0.114,0.17l-0.113,0.171l-0.112,0.171l-0.113,0.173l-0.111,0.173l-0.112,0.173l-0.111,0.174l-0.11,0.175l-0.112,0.178l-0.088,0.123l-0.104,0.109l-0.119,0.094l-0.131,0.076l-0.05,0.024l-0.064,0.03l-0.072,0.031l-0.079,0.03l-0.085,0.03l-0.086,0.026l-0.053,0.014l-0.049,0.011l-0.05,0.011l-0.051,0.01l-0.052,0.009l-0.052,0.007l-0.054,0.007l-0.054,0.005l-0.054,0.004l-0.055,0.003l-0.056,0.002l-0.056,0.001l-0.057,-0.001l-0.057,-0.001l-0.058,-0.003l-0.059,-0.004l-0.059,-0.004l-0.059,-0.006l-0.06,-0.007l-0.062,-0.008l-0.061,-0.009l-0.063,-0.01l-0.064,-0.011l-0.064,-0.012l-0.066,-0.013l-0.067,-0.015l-0.068,-0.015l-0.069,-0.016l-0.071,-0.018l-0.071,-0.018l-0.074,-0.02l-0.075,-0.021l-0.076,-0.022l-0.078,-0.023l-0.08,-0.025l-0.081,-0.025l-0.083,-0.027l-0.086,-0.028l-0.086,-0.03l-0.091,-0.031l-0.183,-0.065l-0.192,-0.071l-0.202,-0.077l-0.211,-0.083l-0.221,-0.089l-0.166,-0.069l-0.217,-0.059l-0.273,-0.074l-0.038,-0.01l0.015,0.066l0.019,0.092l0.018,0.09l0.017,0.091l0.017,0.091l0.016,0.09l0.015,0.091l0.014,0.09l0.014,0.09l0.013,0.091l0.012,0.09l0.011,0.09l0.011,0.089l0.01,0.09l0.009,0.09l0.008,0.089l0.008,0.09l0.007,0.089l0.006,0.089l0.005,0.089l0.005,0.089l0.004,0.089l0.003,0.089l0.003,0.088l0.001,0.089l0.001,0.059l0.153,0.087l0.171,0.098l0.174,0.101l0.174,0.102l0.177,0.105l0.178,0.106l0.179,0.107l0.182,0.11l0.181,0.111l0.184,0.112l0.185,0.115l0.186,0.115l0.189,0.118l0.187,0.118l0.164,0.124l0.143,0.148l0.117,0.169l0.089,0.185l0.058,0.198l0.025,0.204l-0.007,0.206l-0.037,0.32l-0.036,0.317l-0.035,0.318l-0.035,0.318l-0.034,0.316l-0.033,0.316l-0.033,0.316l-0.032,0.315l-0.032,0.315l-0.03,0.314l-0.031,0.314l-0.029,0.314l-0.029,0.312l-0.029,0.313l-0.027,0.312l-0.027,0.311l-0.027,0.312l-0.025,0.31l-0.025,0.31l-0.025,0.31l-0.023,0.309l-0.024,0.309l-0.022,0.308l-0.022,0.307l-0.021,0.307l-0.02,0.307l-0.02,0.306l-0.019,0.305l-0.019,0.306l-0.018,0.304l-0.017,0.305l-0.017,0.303l-0.015,0.304l-0.016,0.302l-0.014,0.303l-0.014,0.301l-0.013,0.302l-0.013,0.3l-0.012,0.3l-0.011,0.3l-0.01,0.299l-0.01,0.299l-0.009,0.298l-0.009,0.298l-0.008,0.296l-0.007,0.297l-0.006,0.297l-0.006,0.295l-0.005,0.295l-0.004,0.295l-0.004,0.294l-0.003,0.293l-0.003,0.294l-0.001,0.292l-0.001,0.292l0,0.292l0,0.291l0.001,0.29l0.002,0.29l0.002,0.289l0.004,0.29l0.003,0.288l0.005,0.288l0.005,0.287l0.006,0.287l0.007,0.286l0.007,0.286l0.008,0.285l0.009,0.285l0.01,0.285l0.01,0.283l0.011,0.283l0.011,0.283l0.013,0.282l0.013,0.281l0.013,0.281l0.015,0.28l0.015,0.28l0.016,0.28l0.016,0.279l0.018,0.278l0.018,0.278l0.019,0.277l0.019,0.276l0.02,0.276l0.021,0.276l0.022,0.275l0.022,0.275l0.023,0.273l0.024,0.274l0.024,0.273l0.026,0.272l0.026,0.272l0.026,0.271l0.028,0.27l0.028,0.271l0.029,0.269l0.03,0.269l0.03,0.268l0.031,0.269l0.032,0.267l0.033,0.266l0.033,0.266l0.034,0.266l0.035,0.265l0.035,0.265l0.037,0.264l0.037,0.263l0.037,0.263l0.039,0.262l0.039,0.262l0.04,0.26l0.041,0.261l0.042,0.26l0.042,0.259l0.043,0.259l0.044,0.258l0.044,0.258l0.045,0.257l0.047,0.257l0.046,0.256l0.048,0.255l0.048,0.254l0.049,0.255l0.05,0.253l0.051,0.254l0.051,0.252l0.052,0.252l0.053,0.251l0.054,0.251l0.054,0.25l0.055,0.249l0.056,0.25l0.057,0.248l0.058,0.248l0.058,0.247l0.059,0.247l0.06,0.246l0.06,0.245l0.062,0.245l0.062,0.244l0.063,0.244l0.064,0.243l0.064,0.243l0.065,0.241l0.066,0.241l0.067,0.241l0.068,0.24l0.068,0.24l0.07,0.239l0.07,0.238l0.07,0.237l0.072,0.238l0.072,0.237l0.073,0.235l0.074,0.236l0.075,0.234l0.075,0.233l0.077,0.235l0.077,0.233l0.078,0.232l0.079,0.232l0.079,0.231l0.08,0.23l0.081,0.23l0.082,0.229l0.083,0.229l0.084,0.228l0.084,0.227l0.085,0.227l0.086,0.227l0.087,0.226l0.087,0.224l0.089,0.224l0.089,0.224l0.09,0.223l0.091,0.222l0.091,0.223l0.093,0.22l0.093,0.222l0.094,0.219l0.095,0.22l0.095,0.218l0.097,0.219l0.097,0.217l0.099,0.218l0.099,0.216l0.099,0.215l0.101,0.215l0.101,0.215l0.103,0.213l0.103,0.214l0.104,0.213l0.105,0.211l0.106,0.212l0.106,0.21l0.107,0.21l0.108,0.209l0.109,0.21l0.11,0.208l0.111,0.208l0.111,0.206l0.113,0.207l0.113,0.205l0.113,0.205l0.115,0.205l0.116,0.203l0.117,0.204l0.117,0.203l0.118,0.201l0.12,0.202l0.12,0.2l0.12,0.2l0.122,0.2l0.122,0.198l0.124,0.199l0.125,0.197l0.124,0.197l0.126,0.195l0.127,0.196l0.128,0.195l0.128,0.195l0.13,0.194l0.13,0.193l0.131,0.191l0.132,0.192l0.133,0.192l0.134,0.19l0.134,0.189l0.135,0.189l0.137,0.189l0.138,0.188l0.138,0.188l0.139,0.186l0.14,0.185l0.14,0.185l0.142,0.185l0.142,0.184l0.144,0.184l0.145,0.183l0.145,0.181l0.146,0.182l0.146,0.18l0.149,0.181l0.149,0.18l0.149,0.178l0.151,0.178l0.152,0.178l0.152,0.176l0.153,0.177l0.155,0.176l0.155,0.175l0.156,0.174l0.157,0.173l0.157,0.173l0.161,0.175l0.132,0.166l0.104,0.185l0,0l0.076,0.198l0.046,0.207l0.013,0.212l-0.003,0.401l-0.002,0.396l-0.001,0.395l0.002,0.393l0.003,0.394l0.005,0.391l0.007,0.39l0.009,0.389l0.01,0.388l0.012,0.386l0.014,0.386l0.016,0.384l0.017,0.382l0.019,0.382l0.022,0.38l0.022,0.378l0.025,0.379l0.027,0.376l0.028,0.375l0.03,0.374l0.032,0.372l0.034,0.371l0.036,0.37l0.038,0.368l0.039,0.367l0.041,0.366l0.044,0.364l0.045,0.363l0.047,0.362l0.049,0.36l0.05,0.359l0.053,0.358l0.055,0.357l0.056,0.355l0.058,0.353l0.061,0.352l0.062,0.351l0.064,0.35l0.066,0.348l0.069,0.347l0.034,0.173l0.036,0.172l0.036,0.172l0.036,0.172l0.036,0.171l0.038,0.171l0.037,0.171l0.039,0.17l0.038,0.171l0.039,0.169l0.04,0.169l0.04,0.169l0.041,0.169l0.041,0.167l0.042,0.168l0.042,0.169l0.043,0.166l0.043,0.167l0.044,0.167l0.044,0.166l0.045,0.166l0.045,0.165l0.045,0.165l0.047,0.165l0.046,0.164l0.048,0.164l0.047,0.164l0.048,0.162l0.049,0.163l0.05,0.163l0.049,0.162l0.05,0.161l0.051,0.162l0.051,0.161l0.052,0.161l0.053,0.161l0.052,0.159l0.053,0.16l0.054,0.158l0.055,0.16l0.055,0.159l0.055,0.158l0.056,0.158l0.056,0.156l0.001,0.005l0.073,0.025l0.234,0.08l0.114,0.039l0.117,0.039l0.117,0.038l0.116,0.037l0.119,0.038l0.117,0.036l0.118,0.037l0.117,0.035l0.119,0.035l0.119,0.035l0.12,0.035l0.12,0.034l0.12,0.033l0.119,0.033l0.121,0.032l0.121,0.032l0.122,0.032l0.122,0.031l0.122,0.031l0.123,0.03l0.123,0.03l0.121,0.028l0.125,0.029l0.124,0.029l0.125,0.027l0.124,0.028l0.123,0.026l0.126,0.026l0.127,0.026l0.127,0.025l0.126,0.025l0.125,0.024l0.127,0.024l0.127,0.023l0.128,0.023l0.129,0.022l0.126,0.021l0.131,0.022l0.13,0.021l0.13,0.02l0.13,0.02l0.128,0.018l0.131,0.019l0.132,0.018l0.132,0.018l0.132,0.017l0.132,0.017l0.134,0.016l0.131,0.015l0.136,0.015l0.132,0.015l0.135,0.014l0.135,0.013l0.135,0.013l0.134,0.012l0.136,0.012l0.137,0.012l0.137,0.01l0.138,0.011l0.136,0.009l0.139,0.009l0.139,0.009l0.137,0.008l0.138,0.007l0.142,0.007l0.139,0.007l0.139,0.006l0.142,0.005l0.14,0.005l0.142,0.004l0.143,0.004l0.142,0.003l0.144,0.002l0.142,0.002l0.145,0.001l0.143,0.001l0.146,0.001l0.142,-0.001l0.147,-0.001l0.147,-0.001l0.143,-0.002l0.149,-0.003l0.146,-0.003l0.147,-0.004l0.148,-0.004l0.15,-0.005l0.149,-0.006l0.149,-0.006l0.149,-0.006l0.15,-0.008l0.15,-0.008l0.151,-0.008l0.152,-0.009l0.152,-0.01l0.152,-0.01l0.153,-0.011l0.153,-0.011l0.155,-0.012l0.154,-0.013l0.155,-0.013l0.156,-0.014l0.153,-0.014l0.159,-0.016l0.155,-0.015l0.155,-0.017l0.16,-0.017l0.156,-0.017l0.157,-0.018l0.16,-0.019l0.16,-0.02l0.158,-0.019l0.161,-0.021l0.159,-0.021l0.163,-0.022l0.163,-0.023l0.16,-0.023l0.164,-0.024l0.009,-0.002l0.007,-0.006l0.064,-0.071l0.066,-0.073l0.065,-0.074l0.066,-0.076l0.066,-0.079l0.066,-0.079l0.066,-0.082l0.067,-0.083l0.067,-0.086l0.067,-0.087l0.067,-0.089l0.067,-0.091l0.068,-0.094l0.068,-0.094l0.068,-0.096l0.067,-0.098l0.069,-0.101l0.068,-0.101l0.069,-0.104l0.068,-0.105l0.069,-0.108l0.069,-0.108l0.069,-0.112l0.069,-0.112l0.069,-0.114l0.069,-0.116l0.069,-0.117l0.069,-0.12l0.07,-0.122l0.069,-0.123l0.07,-0.125l0.069,-0.127l0.07,-0.127l0.069,-0.13l0.07,-0.132l0.069,-0.132l0.07,-0.136l0.07,-0.136l0.07,-0.138l0.07,-0.141l0.07,-0.142l0.07,-0.143l0.069,-0.145l0.071,-0.148l0.069,-0.147l0.07,-0.151l0.07,-0.151l0.07,-0.153l0.07,-0.156l0.07,-0.156l0.07,-0.16l0.069,-0.159l0.071,-0.162l0.069,-0.163l0.07,-0.164l0.07,-0.167l0.07,-0.168l0.07,-0.169l0.069,-0.171l0.07,-0.172l0.07,-0.176l0.07,-0.176l0.07,-0.178l0.069,-0.178l0.07,-0.181l0.07,-0.181l0.069,-0.184l0.07,-0.186l0.07,-0.187l0.069,-0.188l0.07,-0.189l0.139,-0.385l0.139,-0.391l0.138,-0.396l0.139,-0.403l0.139,-0.409l0.138,-0.415l0.138,-0.421l0.139,-0.427l0.137,-0.431l0.138,-0.439l0.137,-0.444l0.138,-0.45l0.137,-0.457l0.137,-0.461l0.137,-0.467l0.137,-0.474l0.136,-0.478l0.137,-0.483l0.136,-0.49l0.136,-0.496l0.136,-0.502l0.136,-0.505l0.135,-0.514l0.135,-0.516l0.136,-0.523l0.135,-0.531l0.085,-0.241l0.123,-0.224l0.16,-0.199l0.19,-0.17l0.217,-0.136l0.236,-0.097l0.25,-0.056l0.255,-0.013l0.254,0.03l0.245,0.072ZM11.002,45.948l-0.046,0.015l-0.045,0.015l-0.044,0.015l-0.044,0.016l-0.044,0.016l-0.042,0.017l-0.042,0.017l-0.041,0.018l-0.041,0.018l-0.04,0.018l-0.04,0.019l-0.039,0.019l-0.039,0.02l-0.038,0.02l-0.038,0.021l-0.037,0.021l-0.037,0.021l-0.037,0.022l-0.036,0.023l-0.036,0.023l-0.035,0.023l-0.035,0.024l-0.035,0.024l-0.034,0.025l-0.034,0.026l-0.034,0.025l-0.034,0.027l-0.033,0.027l-0.033,0.028l-0.033,0.028l-0.033,0.029l-0.032,0.029l-0.033,0.03l-0.032,0.03l-0.032,0.032l-0.028,0.028l-0.063,0.066l-0.068,0.072l-0.068,0.072l-0.067,0.072l-0.065,0.072l-0.065,0.072l-0.064,0.072l-0.063,0.071l-0.062,0.071l-0.062,0.071l-0.06,0.071l-0.06,0.07l-0.058,0.07l-0.058,0.07l-0.056,0.07l-0.056,0.069l-0.055,0.069l-0.054,0.069l-0.053,0.068l-0.052,0.069l-0.051,0.068l-0.05,0.067l-0.049,0.068l-0.048,0.066l-0.048,0.067l-0.046,0.066l-0.046,0.066l-0.044,0.066l-0.044,0.065l-0.043,0.065l-0.042,0.064l-0.04,0.064l-0.04,0.064l-0.039,0.063l-0.038,0.063l-0.038,0.062l-0.036,0.062l-0.035,0.061l-0.034,0.061l-0.034,0.061l-0.032,0.06l-0.031,0.059l-0.031,0.06l-0.03,0.058l-0.029,0.058l-0.027,0.057l-0.027,0.057l-0.026,0.057l-0.025,0.055l-0.024,0.056l-0.023,0.054l-0.023,0.054l-0.021,0.053l-0.021,0.053l-0.019,0.052l-0.019,0.052l-0.018,0.05l-0.016,0.05l-0.016,0.05l-0.015,0.048l-0.015,0.048l-0.013,0.047l-0.012,0.044l-0.019,0.126l-0.024,0.17l-0.011,0.082l-0.011,0.083l-0.01,0.082l-0.009,0.082l-0.008,0.081l-0.009,0.08l-0.007,0.08l-0.007,0.079l-0.006,0.078l-0.006,0.078l-0.005,0.077l-0.005,0.077l-0.004,0.076l-0.003,0.075l-0.003,0.075l-0.002,0.074l-0.002,0.074l-0.001,0.072l-0.001,0.073l0,0.071l0,0.071l0.001,0.07l0.002,0.07l0.002,0.069l0.002,0.068l0.003,0.068l0.004,0.067l0.004,0.066l0.004,0.066l0.005,0.065l0.006,0.064l0.006,0.064l0.006,0.063l0.007,0.063l0.008,0.062l0.008,0.061l0.008,0.061l0.009,0.06l0.009,0.059l0.01,0.058l0.011,0.058l0.01,0.058l0.011,0.057l0.012,0.056l0.012,0.055l0.012,0.055l0.013,0.054l0.014,0.054l0.013,0.052l0.014,0.053l0.015,0.051l0.015,0.051l0.015,0.051l0.016,0.049l0.016,0.049l0.016,0.049l0.017,0.048l0.017,0.047l0.018,0.047l0.018,0.046l0.018,0.045l0.019,0.045l0.019,0.044l0.019,0.044l0.02,0.043l0.02,0.042l0.02,0.042l0.021,0.041l0.021,0.041l0.021,0.04l0.022,0.04l0.022,0.039l0.022,0.038l0.022,0.038l0.023,0.038l0.024,0.037l0.023,0.036l0.024,0.036l0.024,0.035l0.024,0.035l0.025,0.034l0.025,0.034l0.026,0.033l0.025,0.033l0.026,0.032l0.026,0.032l0.027,0.031l0.027,0.031l0.027,0.03l0.027,0.03l0.028,0.029l0.028,0.029l0.029,0.029l0.028,0.028l0.029,0.028l0.03,0.027l0.029,0.027l0.031,0.026l0.03,0.026l0.031,0.026l0.031,0.025l0.031,0.025l0.032,0.024l0.032,0.024l0.032,0.024l0.033,0.023l0.033,0.022l0.034,0.023l0.033,0.022l0.035,0.021l0.034,0.022l0.035,0.02l0.035,0.021l0.036,0.02l0.036,0.02l0.037,0.019l0.037,0.019l0.037,0.018l0.038,0.018l0.038,0.018l0.039,0.018l0.039,0.017l0.039,0.016l0.04,0.016l0.05,0.02l0.049,0.019l0.05,0.018l0.049,0.018l0.05,0.017l0.049,0.016l0.05,0.016l0.049,0.014l0.049,0.015l0.049,0.014l0.049,0.013l0.049,0.012l0.049,0.012l0.049,0.011l0.049,0.011l0.048,0.01l0.049,0.009l0.049,0.009l0.048,0.008l0.049,0.008l0.048,0.007l0.049,0.006l0.048,0.006l0.048,0.005l0.049,0.005l0.048,0.004l0.048,0.004l0.048,0.002l0.048,0.003l0.048,0.001l0.048,0.001l0.048,0.001l0.047,0l0.048,-0.001l0.048,-0.001l0.048,-0.002l0.047,-0.002l0.048,-0.003l0.048,-0.003l0.047,-0.005l0.048,-0.004l0.047,-0.005l0.048,-0.006l0.047,-0.007l0.048,-0.007l0.047,-0.007l0.047,-0.008l0.048,-0.009l0.047,-0.009l0.048,-0.01l0.047,-0.011l0.047,-0.011l0.047,-0.011l0.048,-0.012l0.047,-0.013l0.047,-0.014l0.047,-0.014l0.047,-0.014l0.048,-0.015l0.047,-0.016l0.047,-0.017l0.047,-0.017l0.047,-0.017l0.047,-0.018l0.047,-0.019l0.047,-0.02l0.048,-0.02l0.046,-0.02l0.047,-0.021l0.047,-0.022l0.047,-0.023l0.047,-0.023l0.047,-0.024l0.047,-0.024l0.047,-0.025l0.047,-0.026l0.046,-0.026l0.047,-0.027l0.047,-0.027l0.046,-0.028l0.047,-0.029l0.047,-0.03l0.046,-0.03l0.047,-0.031l0.046,-0.031l0.046,-0.032l0.046,-0.033l0.047,-0.033l0.046,-0.034l0.046,-0.035l0.046,-0.035l0.046,-0.036l0.046,-0.037l0.046,-0.037l0.045,-0.038l0.046,-0.039l0.045,-0.039l0.046,-0.04l0.045,-0.041l0.046,-0.041l0.045,-0.042l0.045,-0.043l0.045,-0.043l0.044,-0.044l0.045,-0.045l0.045,-0.046l0.044,-0.046l0.045,-0.047l0.044,-0.047l0.044,-0.048l0.044,-0.049l0.044,-0.05l0.043,-0.05l0.044,-0.051l0.043,-0.052l0.043,-0.052l0.043,-0.053l0.043,-0.054l0.043,-0.054l0.042,-0.055l0.042,-0.056l0.043,-0.056l0.042,-0.057l0.041,-0.058l0.042,-0.059l0.041,-0.059l0.041,-0.06l0.023,-0.033l0.061,-0.105l0.075,-0.131l0.073,-0.131l0.071,-0.132l0.069,-0.131l0.068,-0.132l0.065,-0.131l0.064,-0.132l0.062,-0.132l0.059,-0.132l0.058,-0.131l0.056,-0.133l0.054,-0.132l0.052,-0.132l0.05,-0.132l0.048,-0.133l0.045,-0.132l0.044,-0.133l0.042,-0.133l0.041,-0.135l0.018,-0.064l0.019,-0.067l0.018,-0.067l0.018,-0.066l0.017,-0.067l0.016,-0.067l0.017,-0.067l0.015,-0.066l0.015,-0.067l0.015,-0.067l0.014,-0.067l0.013,-0.067l0.013,-0.068l0.013,-0.067l0.011,-0.067l0.009,-0.052l-0.042,-0.023l-0.143,-0.073l-0.14,-0.072l-0.138,-0.068l-0.135,-0.067l-0.134,-0.065l-0.13,-0.061l-0.128,-0.06l-0.126,-0.058l-0.123,-0.054l-0.122,-0.053l-0.117,-0.05l-0.061,-0.025l-0.001,0.023l-0.003,0.072l-0.004,0.073l-0.005,0.072l-0.006,0.071l-0.006,0.071l-0.008,0.071l-0.008,0.07l-0.009,0.07l-0.01,0.07l-0.012,0.069l-0.012,0.069l-0.013,0.068l-0.014,0.068l-0.015,0.068l-0.017,0.067l-0.017,0.067l-0.019,0.067l-0.02,0.067l-0.022,0.066l-0.022,0.066l-0.025,0.066l-0.026,0.066l-0.027,0.065l-0.037,0.082l-0.108,0.207l-0.092,0.175l-0.091,0.171l-0.091,0.166l-0.09,0.162l-0.088,0.156l-0.089,0.153l-0.087,0.147l-0.086,0.144l-0.086,0.138l-0.086,0.135l-0.085,0.131l-0.084,0.126l-0.084,0.122l-0.084,0.118l-0.084,0.114l-0.083,0.111l-0.084,0.106l-0.085,0.103l-0.082,0.097l-0.045,0.051l-0.043,0.047l-0.043,0.047l-0.044,0.046l-0.044,0.045l-0.044,0.044l-0.045,0.044l-0.045,0.042l-0.046,0.042l-0.046,0.041l-0.047,0.04l-0.047,0.04l-0.049,0.039l-0.05,0.038l-0.05,0.036l-0.052,0.036l-0.052,0.035l-0.054,0.035l-0.055,0.033l-0.057,0.032l-0.058,0.031l-0.06,0.029l-0.061,0.029l-0.063,0.026l-0.065,0.025l-0.067,0.024l-0.068,0.021l-0.071,0.019l-0.071,0.017l-0.074,0.014l-0.076,0.011l-0.077,0.009l-0.078,0.005l-0.079,0.002l-0.08,-0.002l-0.081,-0.005l-0.08,-0.009l-0.081,-0.013l-0.08,-0.017l-0.078,-0.02l-0.078,-0.023l-0.076,-0.027l-0.074,-0.03l-0.071,-0.033l-0.07,-0.036l-0.067,-0.037l-0.064,-0.04l-0.062,-0.042l-0.059,-0.044l-0.057,-0.045l-0.053,-0.046l-0.052,-0.047l-0.049,-0.048l0,0l-0.046,-0.049l-0.045,-0.049l-0.042,-0.05l-0.04,-0.05l-0.039,-0.05l-0.036,-0.051l-0.035,-0.051l-0.034,-0.052l-0.032,-0.051l-0.03,-0.052l-0.03,-0.053l-0.028,-0.052l-0.027,-0.053l-0.026,-0.053l-0.025,-0.053l-0.025,-0.053l-0.023,-0.054l-0.023,-0.055l-0.023,-0.058l-0.04,-0.106l-0.039,-0.113l-0.037,-0.113l-0.035,-0.116l-0.033,-0.119l-0.031,-0.12l-0.029,-0.123l-0.036,-0.16l-0.021,-0.137l-0.013,-0.107l-0.01,-0.108l-0.008,-0.107l-0.005,-0.107l-0.002,-0.107l0.001,-0.107l0.004,-0.106l0.006,-0.106l0.009,-0.106l0.012,-0.105l0.014,-0.104l0.017,-0.104l0.019,-0.103l0.022,-0.102l0.025,-0.102l0.027,-0.1l0.029,-0.1l0.031,-0.099l0.034,-0.098l0.036,-0.097l0.037,-0.096l0.04,-0.095l0.042,-0.094l0.044,-0.093l0.046,-0.091l0.047,-0.092l0.049,-0.09l0.051,-0.089l0.053,-0.088l0.054,-0.087l0.056,-0.086l0.057,-0.086l0.059,-0.084l0.06,-0.084l0.062,-0.083l0.063,-0.082l0.064,-0.081l0.066,-0.081l0.066,-0.079l0.069,-0.079l0.069,-0.078l0.071,-0.078l0.072,-0.077l0.073,-0.076l0.074,-0.075l0.075,-0.075l0.077,-0.075l0.077,-0.074l0.079,-0.073l0.079,-0.073l0.081,-0.072l0.082,-0.072l0.082,-0.071l0.084,-0.071l0.084,-0.07l0.086,-0.07l0.087,-0.069l0.087,-0.069l0.089,-0.069l0.089,-0.068l0.09,-0.068l0.092,-0.067l0.136,-0.1l-0.011,-0.024l-0.026,-0.055l-0.026,-0.054l-0.027,-0.054l-0.027,-0.054l-0.028,-0.053l-0.028,-0.053l-0.029,-0.052l-0.03,-0.052l-0.03,-0.051l-0.03,-0.05l-0.031,-0.05l-0.032,-0.05l-0.032,-0.048l-0.032,-0.048l-0.034,-0.048l-0.033,-0.047l-0.034,-0.046l-0.035,-0.045l-0.035,-0.045l-0.036,-0.044l-0.035,-0.043l-0.037,-0.043l-0.037,-0.041l-0.037,-0.041l-0.038,-0.04l-0.038,-0.04l-0.039,-0.039l-0.028,-0.027l-0.038,0.012ZM12.417,50.141l-0.06,0.055l-0.058,0.055l-0.056,0.055l-0.055,0.054l-0.054,0.055l-0.052,0.053l-0.05,0.054l-0.05,0.053l-0.047,0.054l-0.046,0.052l-0.044,0.053l-0.043,0.052l-0.042,0.051l-0.04,0.052l-0.038,0.051l-0.036,0.05l-0.036,0.051l-0.033,0.049l-0.032,0.05l-0.031,0.048l-0.029,0.049l-0.028,0.047l-0.026,0.048l-0.024,0.046l-0.023,0.047l-0.022,0.045l-0.021,0.046l-0.019,0.044l-0.017,0.045l-0.017,0.043l-0.015,0.044l-0.014,0.043l-0.012,0.042l-0.012,0.042l-0.01,0.042l-0.009,0.042l-0.008,0.041l-0.007,0.041l-0.006,0.041l-0.005,0.041l-0.003,0.041l-0.003,0.041l-0.002,0.041l0,0.041l0,0.042l0.002,0.042l0.003,0.042l0.004,0.043l0.005,0.043l0.055,-0.075l0.063,-0.088l0.065,-0.093l0.067,-0.099l0.068,-0.105l0.071,-0.11l0.072,-0.116l0.074,-0.121l0.076,-0.127l0.077,-0.132l0.079,-0.138l0.08,-0.143l0.082,-0.149l0.084,-0.155l0.085,-0.159l0.072,-0.139l0.002,-0.004l0.005,-0.013l0.006,-0.015l0.006,-0.017l0.006,-0.02l0.007,-0.02l0.006,-0.023l0.007,-0.024l0.006,-0.027l0.006,-0.027l0.007,-0.029l0.006,-0.031l0.005,-0.032l0.006,-0.034l0.005,-0.034l0.005,-0.037l0.001,-0.002l-0.041,0.036ZM13.986,45.814l0.042,0.079l0.04,0.079l0.04,0.08l0.039,0.079l0.037,0.08l0.037,0.08l0.036,0.08l0.034,0.08l0.034,0.081l0.033,0.081l0.032,0.081l0.031,0.081l0.03,0.081l0.029,0.081l0.028,0.081l0.019,0.055l0.017,0.004l0.126,0.033l0.128,0.036l0.128,0.038l0.13,0.041l0.131,0.042l0.132,0.046l0.133,0.047l0.135,0.05l0.136,0.052l0.137,0.055l0.139,0.057l0.141,0.059l0.142,0.061l0.144,0.063l0.075,0.034l-0.004,-0.02l-0.012,-0.072l-0.013,-0.072l-0.014,-0.073l-0.014,-0.072l-0.015,-0.073l-0.015,-0.073l-0.016,-0.073l-0.017,-0.073l-0.018,-0.073l-0.018,-0.074l-0.018,-0.073l-0.02,-0.074l-0.02,-0.074l-0.021,-0.074l-0.021,-0.075l-0.022,-0.074l-0.023,-0.075l-0.023,-0.075l-0.024,-0.075l-0.025,-0.076l-0.025,-0.075l-0.026,-0.074l-0.046,-0.01l-0.219,-0.044l-0.213,-0.041l-0.208,-0.039l-0.206,-0.037l-0.2,-0.033l-0.196,-0.032l-0.192,-0.029l-0.187,-0.026l-0.183,-0.024l-0.18,-0.021l-0.066,-0.007l0.005,0.008ZM8.231,42.429l0.273,0.047l0.275,0.049l0.279,0.05l0.281,0.053l0.284,0.055l0.283,0.056l0.145,0.03l0.147,0.031l0.099,0.023l0.103,0.025l0.101,0.027l0.1,0.029l0.1,0.031l0.098,0.032l0.097,0.035l0.096,0.036l0.094,0.038l0.094,0.039l0.092,0.041l0.092,0.043l0.09,0.045l0.088,0.046l0.088,0.047l0.086,0.049l0.085,0.05l0.083,0.052l0.083,0.053l0.031,0.021l0.005,0l0.085,-0.005l0.085,-0.005l0.085,-0.003l0.086,-0.003l0.087,-0.002l0.087,-0.002l0.088,0l0.089,0l0.089,0.001l0.089,0.001l0.091,0.002l0.09,0.003l0.092,0.004l0.093,0.004l0.092,0.005l0.094,0.005l0.094,0.007l0.095,0.007l0.098,0.007l0.192,0.018l0.196,0.019l0.199,0.023l0.138,0.017l-0.039,-0.037l-0.051,-0.048l-0.051,-0.047l-0.051,-0.048l-0.053,-0.046l-0.052,-0.047l-0.053,-0.046l-0.053,-0.045l-0.054,-0.045l-0.053,-0.045l-0.055,-0.044l-0.054,-0.043l-0.055,-0.043l-0.056,-0.043l-0.055,-0.042l-0.056,-0.042l-0.056,-0.042l-0.056,-0.041l-0.057,-0.04l-0.057,-0.04l-0.057,-0.039l-0.057,-0.039l-0.058,-0.039l-0.058,-0.037l-0.058,-0.038l-0.058,-0.037l-0.058,-0.036l-0.059,-0.036l-0.059,-0.035l-0.058,-0.035l-0.059,-0.035l-0.059,-0.033l-0.06,-0.034l-0.059,-0.032l-0.059,-0.032l-0.059,-0.032l-0.06,-0.031l-0.06,-0.03l-0.059,-0.03l-0.06,-0.03l-0.06,-0.029l-0.059,-0.028l-0.06,-0.027l-0.059,-0.027l-0.06,-0.027l-0.059,-0.026l-0.06,-0.025l-0.059,-0.025l-0.06,-0.024l-0.059,-0.024l-0.059,-0.023l-0.059,-0.022l-0.059,-0.022l-0.058,-0.021l-0.059,-0.021l-0.059,-0.02l-0.057,-0.019l-0.058,-0.019l-0.058,-0.019l-0.058,-0.017l-0.057,-0.017l-0.057,-0.016l-0.057,-0.016l-0.057,-0.015l-0.056,-0.015l-0.056,-0.014l-0.056,-0.013l-0.055,-0.013l-0.054,-0.012l-0.055,-0.011l-0.055,-0.011l-0.053,-0.01l-0.054,-0.01l-0.053,-0.009l-0.052,-0.008l-0.052,-0.008l-0.052,-0.007l-0.051,-0.006l-0.051,-0.006l-0.05,-0.006l-0.049,-0.004l-0.05,-0.004l-0.048,-0.004l-0.048,-0.003l-0.047,-0.002l-0.047,-0.002l-0.018,0l-0.028,-0.001l-0.046,0l-0.044,0l-0.045,0l-0.043,0.001l-0.043,0.002l-0.042,0.002l-0.055,0.004l-0.269,0.015l-0.252,0.015l-0.244,0.017l-0.237,0.019l-0.229,0.019l-0.221,0.021l-0.215,0.021l-0.206,0.023l-0.199,0.023l-0.192,0.024l-0.185,0.026l-0.177,0.025l-0.17,0.027l-0.164,0.028l-0.156,0.027l-0.149,0.029l-0.143,0.029l-0.136,0.029l-0.129,0.03l-0.122,0.03l-0.089,0.023l0.046,0.011l0.091,0.022l0.094,0.021l0.096,0.021l0.099,0.021l0.102,0.021l0.103,0.021l0.217,0.042l0.224,0.042l0.232,0.042l0.24,0.042l0.245,0.043l0.255,0.043l-0.001,0l0.525,0.089l0.266,0.046Z" style="fill:#000;"/></g><g><path d="M60.763,31.166c3.094,-2.18 6.555,-2.864 10.105,-3.184c9.131,-0.752 23.974,-1.267 27.993,-0.238c2.897,0.743 4.554,1.311 4.666,2.548c0.13,1.439 -0.069,2.367 -0.607,3.21c-0.283,0.56 -3.353,-0.148 -6.44,-0.526c-6.499,-0.798 -30.102,0.422 -32.888,1.746c-0.993,0.472 -1.997,0.479 -2.172,0.111c-0.663,-1.395 -0.835,-2.488 -0.657,-3.667Z" style="fill:#3e525d;"/><path d="M98.104,34.324l-0.072,-0.011l-0.278,-0.043l-0.28,-0.043l-0.282,-0.042l-0.282,-0.04l-0.282,-0.039l-0.281,-0.038l-0.146,-0.018l-0.153,-0.018l-0.158,-0.017l-0.166,-0.017l-0.172,-0.016l-0.178,-0.015l-0.185,-0.015l-0.19,-0.014l-0.196,-0.014l-0.201,-0.013l-0.208,-0.012l-0.212,-0.012l-0.218,-0.011l-0.223,-0.011l-0.228,-0.01l-0.232,-0.009l-0.238,-0.009l-0.241,-0.008l-0.246,-0.008l-0.251,-0.007l-0.256,-0.006l-0.258,-0.006l-0.264,-0.005l-0.266,-0.005l-0.271,-0.004l-0.275,-0.004l-0.277,-0.003l-0.281,-0.002l-0.285,-0.002l-0.288,-0.001l-0.585,-0.002l-0.597,0.002l-0.606,0.003l-0.616,0.005l-0.625,0.007l-0.065,0.001l-0.568,0.008l-0.64,0.011l-0.646,0.013l-0.652,0.015l-0.655,0.016l-0.658,0.018l-0.662,0.021l-0.663,0.021l-0.664,0.024l-0.663,0.025l-0.663,0.027l-0.662,0.028l-0.658,0.03l-0.655,0.031l-0.65,0.033l-0.645,0.034l-0.638,0.036l-0.632,0.037l-0.623,0.038l-0.616,0.04l-0.605,0.041l-0.594,0.042l-0.583,0.043l-0.57,0.044l-0.558,0.046l-0.272,0.023l-0.27,0.023l-0.266,0.023l-0.262,0.024l-0.258,0.024l-0.253,0.025l-0.25,0.024l-0.245,0.025l-0.241,0.025l-0.236,0.025l-0.232,0.026l-0.227,0.025l-0.222,0.026l-0.216,0.026l-0.212,0.026l-0.205,0.026l-0.201,0.027l-0.195,0.027l-0.125,0.017l-0.065,0.009l-0.183,0.027l-0.178,0.027l-0.171,0.027l-0.165,0.027l-0.159,0.027l-0.152,0.027l-0.146,0.028l-0.138,0.027l-0.131,0.027l-0.124,0.027l-0.116,0.026l-0.108,0.027l-0.1,0.026l-0.091,0.025l-0.084,0.025l-0.036,0.011l-0.034,0.012l-0.033,0.011l-0.029,0.011l-0.027,0.01l-0.024,0.009l-0.02,0.009l-0.024,0.01l-0.05,0.023l-0.055,0.025l-0.056,0.023l-0.056,0.024l-0.056,0.022l-0.055,0.021l-0.056,0.021l-0.055,0.02l-0.055,0.019l-0.056,0.019l-0.055,0.017l-0.055,0.017l-0.054,0.016l-0.057,0.016l-0.106,0.028l-0.108,0.026l-0.107,0.022l-0.106,0.02l-0.105,0.017l-0.101,0.013l-0.054,0.006l-0.051,0.005l-0.051,0.004l-0.051,0.003l-0.05,0.003l-0.051,0.002l-0.05,0.001l-0.05,0l-0.049,0l-0.05,-0.002l-0.049,-0.002l-0.049,-0.003l-0.049,-0.005l-0.049,-0.005l-0.049,-0.006l-0.048,-0.007l-0.049,-0.009l-0.049,-0.009l-0.049,-0.011l-0.048,-0.013l-0.049,-0.013l-0.05,-0.016l-0.049,-0.017l-0.05,-0.019l-0.049,-0.022l-0.05,-0.023l-0.051,-0.027l-0.05,-0.029l-0.05,-0.032l-0.05,-0.035l-0.05,-0.039l-0.048,-0.043l-0.048,-0.046l-0.046,-0.051l-0.044,-0.055l-0.042,-0.059l-0.038,-0.063l-0.029,-0.056l-0.068,-0.151l-0.062,-0.139l-0.058,-0.137l-0.055,-0.136l-0.053,-0.136l-0.05,-0.134l-0.047,-0.133l-0.045,-0.133l-0.041,-0.132l-0.039,-0.131l-0.036,-0.129l-0.017,-0.067l-0.017,-0.064l-0.015,-0.065l-0.015,-0.065l-0.015,-0.064l-0.013,-0.064l-0.013,-0.064l-0.012,-0.065l-0.012,-0.064l-0.011,-0.063l-0.01,-0.064l-0.009,-0.064l-0.009,-0.064l-0.008,-0.063l-0.008,-0.063l-0.006,-0.064l-0.006,-0.062l-0.006,-0.064l-0.004,-0.063l-0.004,-0.063l-0.004,-0.063l-0.002,-0.063l-0.002,-0.062l-0.002,-0.063l0,-0.062l-0.001,-0.063l0.001,-0.062l0.001,-0.064l0.005,-0.123l0.007,-0.124l0.009,-0.124l0.012,-0.124l0.014,-0.123l0.017,-0.124l0.018,-0.117l0.028,-0.122l0.047,-0.116l0.066,-0.107l0.082,-0.094l0.097,-0.08l0,0l0.144,-0.111l0.148,-0.111l0.15,-0.108l0.15,-0.107l0.151,-0.104l0.152,-0.103l0.152,-0.1l0.153,-0.098l0.154,-0.096l0.154,-0.094l0.155,-0.092l0.156,-0.09l0.156,-0.087l0.157,-0.086l0.158,-0.084l0.052,-0.027l0.106,-0.054l0.159,-0.079l0.16,-0.077l0.16,-0.075l0.161,-0.073l0.161,-0.072l0.162,-0.069l0.162,-0.068l0.163,-0.066l0.162,-0.065l0.164,-0.063l0.163,-0.061l0.164,-0.059l0.165,-0.058l0.164,-0.057l0.165,-0.055l0.166,-0.053l0.165,-0.052l0.166,-0.05l0.167,-0.049l0.166,-0.048l0.167,-0.046l0.167,-0.045l0.167,-0.044l0.167,-0.042l0.168,-0.041l0.168,-0.04l0.168,-0.039l0.168,-0.037l0.168,-0.037l0.168,-0.035l0.168,-0.034l0.001,0l0.169,-0.032l0.169,-0.031l0.17,-0.031l0.169,-0.029l0.17,-0.028l0.168,-0.027l0.17,-0.027l0.169,-0.025l0.171,-0.025l0.169,-0.024l0.169,-0.023l0.17,-0.023l0.17,-0.021l0.17,-0.021l0.169,-0.021l0.169,-0.019l0.175,-0.02l0.439,-0.045l0.13,-0.013l0.312,-0.03l0.449,-0.041l0.457,-0.042l0.464,-0.041l0.469,-0.04l0.476,-0.04l0.482,-0.039l0.488,-0.039l0.194,-0.016l0.298,-0.021l0.497,-0.035l0.501,-0.034l0.506,-0.034l0.508,-0.033l0.512,-0.032l0.513,-0.031l0.516,-0.031l0.256,-0.014l0.264,-0.014l0.519,-0.027l0.522,-0.025l0.524,-0.025l0.317,-0.014l0.204,-0.009l0.523,-0.021l0.523,-0.02l0.522,-0.018l0.421,-0.015l0.1,-0.003l0.519,-0.015l0.518,-0.013l0.516,-0.013l0.511,-0.011l0.51,-0.011l0.508,-0.008l0.184,-0.003l0.318,-0.004l0.5,-0.006l0.495,-0.004l0.49,-0.003l0.484,-0.001l0.48,0.001l0.473,0.001l0.468,0.003l0.445,0.005l0.016,0l0.454,0.007l0.446,0.009l0.439,0.01l0.431,0.012l0.423,0.013l0.414,0.016l0.404,0.017l0.395,0.018l0.195,0.01l0.192,0.011l0.189,0.011l0.187,0.012l0.184,0.012l0.181,0.012l0.179,0.013l0.176,0.014l0.174,0.013l0.171,0.015l0.167,0.015l0.165,0.015l0.163,0.017l0.159,0.016l0.157,0.017l0.153,0.018l0.151,0.019l0.148,0.018l0.145,0.02l0.141,0.02l0.139,0.021l0.137,0.022l0.133,0.022l0.13,0.023l0.127,0.024l0.124,0.024l0.122,0.026l0.119,0.026l0.116,0.028l0.109,0.028l0.275,0.072l0.266,0.071l0.259,0.07l0.251,0.07l0.246,0.069l0.24,0.071l0.231,0.069l0.116,0.036l0.114,0.036l0.111,0.036l0.087,0.028l0.023,0.008l0.108,0.036l0.107,0.037l0.105,0.037l0.103,0.037l0.103,0.038l0.101,0.039l0.1,0.039l0.098,0.039l0.097,0.04l0.095,0.041l0.094,0.041l0.093,0.043l0.091,0.043l0.09,0.044l0.089,0.045l0.088,0.046l0.086,0.048l0.085,0.049l0.084,0.05l0.083,0.051l0.081,0.054l0.081,0.054l0.078,0.057l0.078,0.059l0.076,0.061l0.075,0.063l0.073,0.065l0.072,0.068l0.069,0.07l0.068,0.072l0.066,0.076l0.063,0.079l0.061,0.081l0.059,0.084l0.052,0.082l0.029,0.049l0.026,0.045l0.025,0.046l0.024,0.046l0.022,0.046l0.022,0.048l0.022,0.048l0.02,0.049l0.019,0.049l0.018,0.049l0.017,0.051l0.016,0.05l0.015,0.05l0.014,0.051l0.012,0.051l0.012,0.053l0.011,0.051l0.009,0.052l0.008,0.051l0.008,0.053l0.006,0.052l0.005,0.05l0.012,0.151l0.009,0.145l0.008,0.144l0.005,0.141l0.004,0.14l0.001,0.138l-0.001,0.136l-0.004,0.135l-0.005,0.133l-0.008,0.132l-0.011,0.13l-0.013,0.129l-0.015,0.127l-0.018,0.126l-0.02,0.122l-0.012,0.065l-0.012,0.062l-0.013,0.061l-0.013,0.06l-0.014,0.061l-0.014,0.06l-0.016,0.06l-0.016,0.06l-0.016,0.058l-0.017,0.059l-0.018,0.058l-0.019,0.059l-0.019,0.057l-0.02,0.057l-0.02,0.057l-0.022,0.058l-0.022,0.055l-0.023,0.06l-0.046,0.106l-0.049,0.109l-0.052,0.108l-0.054,0.106l-0.057,0.104l-0.058,0.102l-0.061,0.101l-0.042,0.067l-0.012,0.021l-0.054,0.083l-0.059,0.076l-0.061,0.069l-0.063,0.063l-0.064,0.056l-0.064,0.05l-0.064,0.044l-0.062,0.039l-0.061,0.033l-0.06,0.03l-0.058,0.027l-0.056,0.023l-0.056,0.02l-0.053,0.018l-0.053,0.015l-0.051,0.014l-0.056,0.014l-0.092,0.018l-0.095,0.016l-0.093,0.012l-0.092,0.009l-0.092,0.006l-0.091,0.004l-0.092,0.002l-0.092,0l-0.093,-0.001l-0.094,-0.003l-0.096,-0.004l-0.096,-0.005l-0.098,-0.007l-0.1,-0.007l-0.102,-0.009l-0.103,-0.009l-0.104,-0.011l-0.107,-0.011l-0.109,-0.013l-0.22,-0.027l-0.227,-0.03l-0.235,-0.032l-0.241,-0.035l-0.246,-0.037l-0.251,-0.039l-0.518,-0.082l-0.536,-0.085l0.002,0.001l-0.478,-0.076ZM91.552,31.663l0.269,0.002l0.264,0.002l0.261,0.003l0.257,0.004l0.253,0.004l0.249,0.005l0.244,0.006l0.24,0.006l0.236,0.007l0.231,0.008l0.227,0.009l0.222,0.009l0.216,0.01l0.213,0.011l0.207,0.011l0.202,0.013l0.197,0.013l0.192,0.014l0.187,0.015l0.182,0.015l0.176,0.017l0.171,0.018l0.165,0.018l0.297,0.035l0.295,0.037l0.293,0.038l0.291,0.04l0.287,0.039l0.285,0.041l0.074,0.01l0.482,0.07l0.536,0.079l0.513,0.074l0.244,0.035l0.238,0.033l0.229,0.03l0.219,0.028l0.21,0.025l0.2,0.022l0.094,0.01l0.092,0.009l0.089,0.008l0.085,0.006l0.082,0.006l0.078,0.005l0.075,0.004l0.071,0.003l0.066,0.002l0.062,0.001l0.031,0l0.017,-0.037l0.026,-0.059l0.026,-0.063l0.01,-0.027l0.012,-0.03l0.01,-0.031l0.011,-0.03l0.01,-0.031l0.01,-0.032l0.01,-0.031l0.009,-0.032l0.009,-0.033l0.009,-0.031l0.008,-0.034l0.008,-0.033l0.008,-0.033l0.008,-0.035l0.007,-0.035l0.006,-0.035l0.007,-0.037l0.006,-0.033l0.011,-0.078l0.01,-0.077l0.009,-0.08l0.007,-0.082l0.006,-0.086l0.005,-0.089l0.002,-0.091l0.002,-0.094l-0.001,-0.098l-0.002,-0.101l-0.003,-0.104l-0.006,-0.109l-0.007,-0.111l-0.009,-0.116l-0.011,-0.116l-0.001,-0.008l0,-0.004l-0.001,-0.005l-0.001,-0.005l-0.001,-0.003l-0.001,-0.005l-0.001,-0.003l-0.001,-0.003l-0.001,-0.003l-0.001,-0.003l-0.001,-0.002l-0.001,-0.003l-0.001,-0.003l-0.002,-0.003l-0.001,-0.002l-0.001,-0.004l-0.002,-0.003l-0.002,-0.003l-0.002,-0.003l-0.002,-0.004l-0.008,-0.014l0.012,0.02l-0.006,-0.009l-0.01,-0.015l-0.007,-0.01l-0.01,-0.012l-0.011,-0.013l-0.013,-0.015l-0.016,-0.016l-0.018,-0.017l-0.02,-0.019l-0.023,-0.02l-0.026,-0.02l-0.028,-0.023l-0.031,-0.022l-0.035,-0.024l-0.037,-0.025l-0.039,-0.025l-0.044,-0.027l-0.045,-0.026l-0.049,-0.027l-0.052,-0.028l-0.054,-0.028l-0.057,-0.028l-0.06,-0.028l-0.063,-0.029l-0.066,-0.029l-0.068,-0.029l-0.071,-0.03l-0.074,-0.029l-0.076,-0.03l-0.079,-0.03l-0.081,-0.03l-0.084,-0.03l-0.087,-0.03l-0.088,-0.03l-0.092,-0.03l-0.094,-0.03l-0.02,-0.007l-0.076,-0.024l-0.098,-0.031l-0.101,-0.03l-0.102,-0.031l-0.214,-0.062l-0.222,-0.063l-0.231,-0.063l-0.24,-0.064l-0.247,-0.065l-0.257,-0.066l-0.26,-0.066l-0.083,-0.02l-0.084,-0.019l-0.089,-0.019l-0.094,-0.019l-0.099,-0.018l-0.103,-0.019l-0.107,-0.018l-0.113,-0.017l-0.116,-0.018l-0.12,-0.017l-0.125,-0.016l-0.128,-0.017l-0.133,-0.015l-0.136,-0.016l-0.14,-0.015l-0.143,-0.014l-0.147,-0.014l-0.15,-0.013l-0.154,-0.013l-0.157,-0.013l-0.16,-0.012l-0.164,-0.012l-0.166,-0.011l-0.171,-0.011l-0.172,-0.01l-0.175,-0.01l-0.179,-0.01l-0.182,-0.008l-0.184,-0.009l-0.186,-0.008l-0.383,-0.015l-0.392,-0.013l-0.402,-0.011l-0.411,-0.009l-0.42,-0.008l-0.429,-0.006l-0.436,-0.005l-0.445,-0.003l-0.016,0l-0.436,-0.002l-0.459,0l-0.466,0.001l-0.473,0.003l-0.476,0.004l-0.484,0.005l-0.488,0.007l-0.493,0.008l-0.315,0.007l-0.182,0.003l-0.501,0.01l-0.504,0.011l-0.507,0.013l-0.511,0.014l-0.511,0.015l-0.516,0.016l-0.099,0.003l-0.416,0.013l-0.517,0.016l-0.517,0.018l-0.518,0.019l-0.202,0.008l-0.316,0.011l-0.518,0.019l-0.516,0.02l-0.516,0.021l-0.261,0.011l-0.254,0.01l-0.513,0.02l-0.511,0.021l-0.507,0.022l-0.505,0.023l-0.501,0.024l-0.496,0.024l-0.493,0.025l-0.295,0.015l-0.194,0.009l-0.484,0.024l-0.478,0.024l-0.472,0.025l-0.468,0.025l-0.459,0.026l-0.453,0.026l-0.446,0.027l-0.309,0.019l-0.129,0.008l-0.426,0.025l-0.158,0.011l-0.164,0.012l-0.162,0.012l-0.163,0.013l-0.161,0.014l-0.162,0.014l-0.161,0.015l-0.16,0.015l-0.161,0.016l-0.16,0.017l-0.16,0.018l-0.16,0.018l-0.159,0.019l-0.159,0.02l-0.158,0.021l-0.158,0.022l-0.159,0.023l0,0l-0.157,0.022l-0.157,0.023l-0.157,0.025l-0.157,0.025l-0.156,0.026l-0.156,0.027l-0.155,0.028l-0.155,0.03l-0.155,0.03l-0.155,0.032l-0.154,0.032l-0.154,0.034l-0.153,0.035l-0.153,0.036l-0.153,0.038l-0.152,0.038l-0.152,0.04l-0.151,0.042l-0.151,0.042l-0.151,0.044l-0.151,0.045l-0.149,0.047l-0.15,0.048l-0.15,0.05l-0.149,0.051l-0.148,0.052l-0.148,0.054l-0.148,0.056l-0.148,0.057l-0.147,0.058l-0.147,0.061l-0.098,0.041l-0.048,0.02l-0.147,0.063l-0.147,0.064l-0.146,0.066l-0.146,0.067l-0.145,0.069l-0.146,0.072l-0.144,0.072l-0.145,0.075l-0.145,0.077l-0.144,0.079l-0.144,0.081l-0.143,0.082l-0.143,0.085l-0.007,0.004l-0.003,0.045l-0.005,0.094l-0.003,0.093l-0.002,0.095l0,0.045l0.001,0.046l0.001,0.046l0.002,0.047l0.002,0.046l0.002,0.046l0.003,0.047l0.004,0.046l0.004,0.047l0.004,0.046l0.005,0.047l0.006,0.046l0.006,0.048l0.006,0.047l0.007,0.047l0.008,0.047l0.008,0.047l0.009,0.048l0.009,0.048l0.01,0.048l0.01,0.049l0.011,0.048l0.011,0.049l0.012,0.049l0.013,0.049l0.013,0.05l0.014,0.05l0.014,0.049l0.031,0.104l0.033,0.103l0.036,0.104l0.038,0.107l0.041,0.108l0.043,0.11l0.047,0.112l0.049,0.113l0.052,0.116l0.014,0.031l0.013,0l0.02,0.001l0.02,0l0.022,0l0.022,-0.001l0.024,-0.001l0.025,-0.002l0.026,-0.002l0.026,-0.002l0.028,-0.003l0.028,-0.003l0.026,-0.004l0.062,-0.009l0.063,-0.012l0.064,-0.013l0.067,-0.016l0.068,-0.018l0.073,-0.02l0.033,-0.01l0.036,-0.012l0.036,-0.012l0.036,-0.012l0.036,-0.013l0.037,-0.014l0.037,-0.014l0.037,-0.015l0.037,-0.015l0.037,-0.016l0.037,-0.016l0.037,-0.017l0.038,-0.018l0.043,-0.021l0.044,-0.02l0.05,-0.023l0.051,-0.021l0.052,-0.021l0.053,-0.02l0.053,-0.02l0.055,-0.02l0.058,-0.019l0.112,-0.037l0.121,-0.036l0.125,-0.035l0.131,-0.035l0.136,-0.034l0.142,-0.034l0.147,-0.034l0.154,-0.033l0.159,-0.033l0.164,-0.033l0.17,-0.033l0.176,-0.032l0.181,-0.033l0.186,-0.032l0.192,-0.032l0.068,-0.011l0.13,-0.021l0.202,-0.031l0.208,-0.032l0.212,-0.031l0.218,-0.031l0.222,-0.031l0.227,-0.031l0.232,-0.03l0.236,-0.031l0.241,-0.03l0.246,-0.03l0.249,-0.03l0.253,-0.03l0.258,-0.029l0.262,-0.029l0.266,-0.029l0.269,-0.029l0.273,-0.029l0.277,-0.028l0.562,-0.057l0.577,-0.055l0.588,-0.054l0.6,-0.053l0.61,-0.052l0.619,-0.051l0.629,-0.049l0.636,-0.049l0.643,-0.047l0.65,-0.045l0.654,-0.044l0.659,-0.043l0.663,-0.041l0.665,-0.04l0.668,-0.038l0.668,-0.036l0.668,-0.035l0.668,-0.033l0.666,-0.031l0.664,-0.029l0.66,-0.027l0.657,-0.026l0.651,-0.023l0.646,-0.021l0.573,-0.017l0.065,-0.002l0.632,-0.017l0.623,-0.014l0.613,-0.012l0.603,-0.01l0.593,-0.007l0.292,-0.003l0.29,-0.002l0.285,-0.002l0.283,-0.001l0.279,0l0.276,0l0.271,0.001ZM102.377,32.559l0,0l0.004,-0.001l-0.004,0.001ZM102.383,32.558l0.001,0l0.007,-0.002l0.004,-0.001l-0.012,0.003Z" style="fill:#000;"/></g><g><path d="M139.134,46.55c-1.931,-0.329 -3.24,0.245 -3.455,3.141c-0.144,1.945 0.74,3.381 2.429,3.89c1.367,0.411 2.493,-0.813 3.139,-3.803c0.164,-1.833 -0.712,-2.759 -2.113,-3.228Z" style="fill:#fff;"/><path d="M138.967,47.02l-0.086,0.013l-0.084,0.013l-0.082,0.015l-0.08,0.016l-0.078,0.017l-0.039,0.01l-0.035,0.006l-0.073,0.015l-0.071,0.017l-0.068,0.017l-0.066,0.018l-0.063,0.02l-0.061,0.02l-0.058,0.022l-0.055,0.023l-0.053,0.023l-0.051,0.025l-0.047,0.025l-0.045,0.026l-0.042,0.027l-0.043,0.029l-0.009,0.007l-0.006,0.005l-0.019,0.012l-0.018,0.013l-0.017,0.012l-0.017,0.013l-0.016,0.013l-0.016,0.013l-0.015,0.013l-0.015,0.013l-0.014,0.014l-0.014,0.013l-0.013,0.014l-0.012,0.013l-0.013,0.014l-0.011,0.014l-0.012,0.014l-0.011,0.014l-0.01,0.014l-0.011,0.015l-0.009,0.015l-0.01,0.014l-0.005,0.009l-0.004,0.006l-0.01,0.014l-0.01,0.014l-0.01,0.014l-0.009,0.015l-0.009,0.015l-0.009,0.016l-0.009,0.015l-0.008,0.016l-0.009,0.017l-0.008,0.017l-0.009,0.017l-0.008,0.017l-0.008,0.018l-0.008,0.019l-0.008,0.019l-0.007,0.019l-0.008,0.021l-0.008,0.02l-0.007,0.022l-0.008,0.021l-0.007,0.023l-0.003,0.011l-0.005,0.011l-0.009,0.023l-0.008,0.024l-0.009,0.024l-0.009,0.025l-0.008,0.026l-0.008,0.026l-0.009,0.027l-0.008,0.029l-0.008,0.028l-0.007,0.03l-0.008,0.031l-0.008,0.031l-0.007,0.033l-0.008,0.033l-0.007,0.034l-0.006,0.034l-0.007,0.036l-0.005,0.033l-0.006,0.037l-0.01,0.042l-0.015,0.078l-0.014,0.083l-0.013,0.086l-0.01,0.068l-0.003,0.021l-0.015,0.094l-0.014,0.097l-0.012,0.1l-0.008,0.077l-0.004,0.029l-0.014,0.108l-0.012,0.113l-0.011,0.116l-0.006,0.072l-0.005,0.07l-0.003,0.07l-0.001,0.023l-0.002,0.045l-0.002,0.067l-0.002,0.065l0,0.066l0.001,0.064l0.002,0.063l0.003,0.061l0.004,0.062l0.006,0.059l0.006,0.059l0.006,0.054l0.001,0.004l0.007,0.057l0.008,0.056l0.009,0.055l0.01,0.054l0.011,0.054l0.012,0.052l0.013,0.051l0.014,0.051l0.014,0.048l0.015,0.049l0.017,0.048l0.017,0.046l0.017,0.046l0.019,0.045l0.019,0.044l0.021,0.044l0.021,0.043l0.022,0.042l0.023,0.041l0.023,0.04l0.025,0.04l0.025,0.039l0.026,0.038l0.027,0.038l0.028,0.037l0.029,0.037l0.03,0.036l0.03,0.035l0.028,0.03l0.004,0.004l0.033,0.035l0.033,0.034l0.034,0.034l0.035,0.033l0.037,0.032l0.038,0.032l0.039,0.031l0.04,0.031l0.041,0.03l0.043,0.03l0.043,0.029l0.045,0.029l0.047,0.027l0.048,0.028l0.049,0.026l0.05,0.026l0.052,0.025l0.053,0.025l0.055,0.024l0.056,0.023l0.054,0.021l0.033,0.013l0.033,0.011l0.01,0.004l0.013,0.004l0.013,0.004l0.013,0.004l0.012,0.003l0.013,0.003l0.012,0.003l0.011,0.003l0.011,0.002l0.011,0.002l0.011,0.002l0.011,0.001l0.01,0.002l0.011,0.001l0.01,0.001l0.01,0.001l0.01,0l0.01,0.001l0.01,0l0.01,0l0.009,0l0.01,-0.001l0.01,0l0.009,-0.001l0.001,0l0.01,-0.001l0.01,-0.001l0.011,-0.002l0.01,-0.001l0.011,-0.002l0.011,-0.002l0.011,-0.003l0.011,-0.003l0.012,-0.003l0.012,-0.004l0.012,-0.004l0.012,-0.004l0.013,-0.005l0.013,-0.005l0.013,-0.006l0.013,-0.006l0.014,-0.006l0.014,-0.007l0.015,-0.008l0.014,-0.008l0.015,-0.009l0.012,-0.007l0.035,-0.023l0.032,-0.023l0.034,-0.025l0.035,-0.028l0.035,-0.031l0.037,-0.033l0.037,-0.037l0.038,-0.039l0.039,-0.042l0.039,-0.045l0.04,-0.048l0.04,-0.051l0.04,-0.054l0.041,-0.057l0.042,-0.061l0.041,-0.063l0.042,-0.066l0.042,-0.069l0.041,-0.072l0.042,-0.075l0.042,-0.078l0.042,-0.082l0.005,-0.009l0.037,-0.075l0.042,-0.087l0.042,-0.09l0.042,-0.093l0.042,-0.096l0.041,-0.098l0.041,-0.102l0.041,-0.105l0.04,-0.108l0.041,-0.111l0.039,-0.113l0.04,-0.117l0.039,-0.119l0.039,-0.122l0.039,-0.125l0.037,-0.128l0.028,-0.086l0.008,-0.035l-0.001,0.012l0.01,-0.078l0.008,-0.07l0.007,-0.069l0.006,-0.067l0.004,-0.066l0.003,-0.064l0.002,-0.063l0,-0.062l0,-0.06l-0.002,-0.059l-0.003,-0.058l-0.004,-0.056l-0.006,-0.055l-0.006,-0.054l-0.007,-0.053l-0.009,-0.052l-0.009,-0.051l-0.01,-0.049l-0.012,-0.048l-0.012,-0.048l-0.014,-0.046l-0.014,-0.046l-0.015,-0.045l-0.016,-0.043l-0.017,-0.043l-0.018,-0.043l-0.019,-0.041l-0.02,-0.041l-0.021,-0.04l-0.022,-0.04l-0.023,-0.039l-0.024,-0.038l-0.022,-0.034l-0.003,-0.004l-0.026,-0.037l-0.027,-0.037l-0.027,-0.037l-0.029,-0.036l-0.03,-0.035l-0.032,-0.035l-0.032,-0.035l-0.033,-0.034l-0.035,-0.034l-0.036,-0.034l-0.037,-0.033l-0.038,-0.032l-0.039,-0.032l-0.04,-0.032l-0.042,-0.031l-0.042,-0.031l-0.044,-0.031l-0.045,-0.03l-0.046,-0.029l-0.048,-0.03l-0.048,-0.028l-0.05,-0.029l-0.051,-0.027l-0.051,-0.028l-0.053,-0.026l-0.054,-0.027l-0.056,-0.026l-0.056,-0.025l-0.057,-0.025l-0.009,-0.004l-0.068,0.008ZM139.425,46.15l0.072,0.022l0.07,0.023l0.071,0.024l0.069,0.024l0.069,0.026l0.069,0.027l0.068,0.028l0.067,0.029l0.067,0.03l0.066,0.031l0.065,0.032l0.065,0.034l0.063,0.034l0.064,0.036l0.062,0.037l0.062,0.039l0.061,0.039l0.06,0.041l0.059,0.042l0.058,0.044l0.057,0.045l0.057,0.047l0.055,0.048l0.055,0.049l0.053,0.051l0.052,0.052l0.051,0.053l0.05,0.055l0.006,0.006l0.043,0.051l0.047,0.058l0.046,0.059l0.045,0.061l0.043,0.062l0.042,0.064l0.041,0.065l0.039,0.067l0.037,0.067l0.036,0.069l0.035,0.071l0.033,0.072l0.031,0.073l0.03,0.074l0.028,0.076l0.027,0.076l0.025,0.078l0.023,0.079l0.022,0.081l0.02,0.081l0.018,0.083l0.017,0.083l0.015,0.085l0.013,0.086l0.012,0.088l0.01,0.088l0.009,0.09l0.007,0.09l0.005,0.092l0.004,0.093l0.002,0.094l0,0.095l-0.001,0.096l-0.011,0.14l0.005,0.001l-0.034,0.193l-0.025,0.144l-0.025,0.142l-0.027,0.14l-0.028,0.138l-0.028,0.135l-0.03,0.134l-0.03,0.131l-0.032,0.129l-0.032,0.126l-0.034,0.125l-0.035,0.122l-0.035,0.12l-0.037,0.118l-0.038,0.116l-0.039,0.114l-0.036,0.1l-0.004,0.012l-0.042,0.109l-0.043,0.108l-0.044,0.105l-0.045,0.103l-0.047,0.101l-0.047,0.1l-0.05,0.097l-0.05,0.095l-0.052,0.093l-0.053,0.092l-0.055,0.089l-0.057,0.087l-0.058,0.085l-0.06,0.084l-0.061,0.081l-0.063,0.078l-0.065,0.077l-0.068,0.075l-0.069,0.072l-0.07,0.07l-0.074,0.068l-0.072,0.063l-0.041,0.034l-0.039,0.031l-0.04,0.03l-0.04,0.03l-0.04,0.028l-0.041,0.029l-0.042,0.027l-0.042,0.027l-0.043,0.025l-0.043,0.025l-0.044,0.025l-0.044,0.023l-0.045,0.023l-0.045,0.021l-0.046,0.021l-0.046,0.02l-0.046,0.019l-0.047,0.018l-0.047,0.017l-0.048,0.017l-0.048,0.015l-0.049,0.014l-0.003,0.001l-0.045,0.012l-0.05,0.012l-0.049,0.011l-0.049,0.011l-0.05,0.009l-0.05,0.008l-0.05,0.007l-0.05,0.006l-0.05,0.005l-0.051,0.004l-0.05,0.003l-0.051,0.002l-0.05,0.001l-0.051,0l-0.05,-0.001l-0.051,-0.002l-0.05,-0.003l-0.05,-0.004l-0.051,-0.005l-0.05,-0.005l-0.05,-0.007l-0.049,-0.007l-0.05,-0.009l-0.054,-0.01l-0.094,-0.02l-0.095,-0.023l-0.103,-0.028l-0.099,-0.029l-0.097,-0.031l-0.097,-0.032l-0.095,-0.035l-0.095,-0.036l-0.094,-0.038l-0.092,-0.04l-0.092,-0.043l-0.09,-0.044l-0.089,-0.046l-0.089,-0.048l-0.086,-0.05l-0.086,-0.052l-0.084,-0.053l-0.083,-0.056l-0.081,-0.057l-0.08,-0.06l-0.079,-0.061l-0.077,-0.063l-0.076,-0.064l-0.01,-0.01l-0.063,-0.057l-0.072,-0.069l-0.071,-0.07l-0.068,-0.072l-0.067,-0.074l-0.065,-0.075l-0.064,-0.077l-0.062,-0.078l-0.06,-0.08l-0.057,-0.081l-0.057,-0.083l-0.054,-0.084l-0.053,-0.085l-0.05,-0.087l-0.049,-0.088l-0.047,-0.089l-0.045,-0.09l-0.043,-0.091l-0.04,-0.092l-0.04,-0.094l-0.037,-0.095l-0.035,-0.095l-0.034,-0.097l-0.031,-0.097l-0.03,-0.099l-0.027,-0.099l-0.026,-0.1l-0.024,-0.101l-0.021,-0.102l-0.002,-0.007l-0.018,-0.095l-0.017,-0.103l-0.015,-0.105l-0.013,-0.104l-0.012,-0.106l-0.01,-0.106l-0.007,-0.106l-0.006,-0.108l-0.004,-0.108l-0.003,-0.108l0,-0.072l0,-0.037l0.003,-0.109l0.004,-0.11l0.006,-0.11l0.011,-0.152l0.013,-0.149l0.014,-0.146l0.005,-0.039l0.014,-0.104l0.022,-0.14l0.024,-0.138l0.026,-0.136l0.007,-0.032l0.024,-0.101l0.033,-0.13l0.035,-0.127l0.038,-0.126l0.021,-0.064l0.019,-0.055l0.024,-0.063l0.023,-0.059l0.023,-0.059l0.024,-0.058l0.025,-0.056l0.025,-0.058l0.026,-0.056l0.026,-0.055l0.027,-0.056l0.027,-0.054l0.028,-0.054l0.028,-0.053l0.03,-0.053l0.03,-0.053l0.03,-0.051l0.031,-0.051l0.032,-0.05l0.032,-0.049l0.017,-0.025l0.016,-0.023l0.036,-0.047l0.035,-0.046l0.037,-0.046l0.036,-0.044l0.038,-0.045l0.038,-0.043l0.038,-0.042l0.04,-0.042l0.039,-0.041l0.041,-0.04l0.04,-0.039l0.042,-0.039l0.041,-0.037l0.043,-0.037l0.043,-0.035l0.043,-0.035l0.044,-0.034l0.044,-0.033l0.045,-0.032l0.046,-0.031l0.045,-0.03l0.019,-0.012l0.028,-0.017l0.047,-0.027l0.047,-0.026l0.048,-0.025l0.048,-0.024l0.048,-0.023l0.049,-0.022l0.048,-0.02l0.049,-0.02l0.049,-0.019l0.049,-0.019l0.05,-0.017l0.049,-0.016l0.05,-0.015l0.049,-0.014l0.049,-0.013l0.05,-0.012l0.049,-0.012l0.05,-0.01l0.05,-0.01l0.049,-0.008l0.021,-0.004l0.032,-0.004l0.097,-0.009l0.099,-0.006l0.099,-0.003l0.098,0l0.098,0.003l0.097,0.005l0.097,0.009l0.096,0.011l0.096,0.013l0.095,0.016l0.095,0.018l0.095,0.02l0.094,0.022l0.094,0.024l0.044,0.013l0.049,0.016l0.093,0.032l0.093,0.035l0.092,0.036l0.093,0.037l0.092,0.04l0.079,0.036l0.154,0.042l0.072,0.021Z" style="fill:#000;"/></g><path d="M66.538,31.726c-22.951,-37.514 50.901,-40.455 32.002,-0.629c-10.491,-1.035 -21.26,-0.645 -32.002,0.629Z" style="fill:none;stroke-width:2.5px;stroke:#000;"/><path d="M66.538,33.69c-22.951,-37.514 50.901,-40.454 32.002,-0.628c-10.491,-1.035 -21.26,-0.646 -32.002,0.628Z" style="fill:#FFC91C;stroke-width:2.5px;stroke:#000;"/><path d="M76.431,9.651l2.206,0.052l4.547,0.162l6.306,0.3l1.367,0.607l0.568,1.328l-0.568,1.329l-1.367,0.606l-6.306,0.301l-4.547,0.162l-2.061,0.048l0.273,4.553l0.105,-0.057l0.118,-0.062l0.118,-0.061l0.119,-0.06l0.12,-0.058l0.121,-0.057l0.12,-0.055l0.122,-0.054l0.122,-0.052l0.123,-0.051l0.123,-0.05l0.123,-0.047l0.124,-0.047l0.125,-0.044l0.126,-0.044l0.125,-0.041l0.127,-0.04l0.126,-0.039l0.127,-0.037l0.128,-0.035l0.128,-0.034l0.128,-0.032l0.129,-0.03l0.129,-0.029l0.13,-0.027l0.13,-0.025l0.13,-0.023l0.131,-0.022l0.131,-0.021l0.131,-0.018l0.132,-0.017l0.132,-0.015l0.132,-0.013l0.132,-0.011l0.133,-0.01l0.133,-0.008l0.133,-0.006l0.134,-0.004l0.133,-0.003l0.133,0l0.134,0.001l0.134,0.003l0.134,0.005l0.134,0.007l0.134,0.008l0.134,0.011l0.134,0.012l0.134,0.014l0.134,0.017l0.134,0.018l0.134,0.02l0.134,0.022l0.134,0.023l0.134,0.026l0.133,0.028l0.134,0.029l0.133,0.031l0.133,0.033l0.133,0.035l0.133,0.037l0.132,0.039l0.132,0.041l0.132,0.042l0.132,0.045l0.131,0.046l0.131,0.048l0.131,0.05l0.13,0.052l0.13,0.053l0.13,0.056l0.129,0.057l0.129,0.059l0.128,0.061l0.128,0.063l0.128,0.065l0.127,0.066l0.127,0.069l0.126,0.07l0.126,0.072l0.125,0.073l0.125,0.076l0.125,0.077l0.124,0.08l0.123,0.081l0.123,0.082l0.122,0.085l0.122,0.086l0.121,0.088l0.121,0.09l0.12,0.091l0.118,0.092l0.1,0.08l0.098,0.079l0.096,0.079l0.096,0.08l0.094,0.08l0.094,0.081l0.092,0.081l0.091,0.081l0.091,0.082l0.089,0.083l0.088,0.083l0.088,0.083l0.086,0.084l0.085,0.084l0.084,0.085l0.083,0.085l0.082,0.086l0.081,0.086l0.079,0.087l0.079,0.087l0.078,0.087l0.077,0.089l0.075,0.088l0.075,0.089l0.073,0.09l0.072,0.089l0.071,0.091l0.07,0.091l0.069,0.091l0.068,0.092l0.066,0.092l0.066,0.093l0.064,0.093l0.063,0.094l0.062,0.094l0.061,0.095l0.06,0.095l0.058,0.095l0.057,0.096l0.056,0.097l0.055,0.097l0.053,0.097l0.053,0.098l0.051,0.098l0.05,0.099l0.048,0.099l0.047,0.099l0.046,0.1l0.045,0.101l0.043,0.1l0.042,0.101l0.041,0.102l0.039,0.102l0.038,0.102l0.037,0.103l0.035,0.103l0.034,0.103l0.032,0.104l0.031,0.104l0.03,0.104l0.029,0.105l0.026,0.105l0.026,0.105l0.024,0.106l0.023,0.105l0.021,0.107l0.019,0.106l0.019,0.106l0.017,0.107l0.015,0.106l0.014,0.108l0.012,0.107l0.011,0.107l0.009,0.108l0.008,0.107l0.007,0.107l0.005,0.108l0.003,0.108l0.002,0.108l0,0.108l-0.001,0.107l-0.002,0.108l-0.004,0.108l-0.006,0.108l-0.007,0.108l-0.008,0.107l-0.01,0.108l-0.012,0.107l-0.013,0.108l-0.014,0.107l-0.016,0.107l-0.018,0.107l-0.019,0.107l-0.02,0.106l-0.022,0.107l-0.023,0.106l-0.024,0.106l-0.026,0.106l-0.028,0.106l-0.029,0.105l-0.03,0.105l-0.032,0.105l-0.033,0.104l-0.034,0.105l-0.036,0.103l-0.037,0.104l-0.039,0.103l-0.04,0.103l-0.041,0.103l-0.042,0.102l-0.044,0.103l-0.046,0.101l-0.046,0.101l-0.048,0.102l-0.049,0.1l-0.05,0.101l-0.052,0.099l-0.053,0.1l-0.054,0.099l-0.056,0.099l-0.056,0.099l-0.058,0.098l-0.059,0.098l-0.061,0.097l-0.061,0.097l-0.063,0.097l-0.064,0.096l-0.06,0.088l-1.238,0.821l-1.444,-0.273l-0.814,-1.22l0.267,-1.462l0.046,-0.073l0.04,-0.064l0.038,-0.064l0.038,-0.063l0.036,-0.063l0.035,-0.063l0.034,-0.063l0.033,-0.062l0.032,-0.062l0.031,-0.062l0.03,-0.061l0.029,-0.061l0.028,-0.062l0.027,-0.06l0.026,-0.06l0.026,-0.061l0.024,-0.059l0.023,-0.06l0.022,-0.059l0.021,-0.058l0.02,-0.059l0.02,-0.058l0.018,-0.058l0.018,-0.058l0.017,-0.057l0.016,-0.057l0.014,-0.057l0.015,-0.057l0.013,-0.056l0.012,-0.056l0.012,-0.055l0.011,-0.056l0.01,-0.055l0.009,-0.055l0.008,-0.054l0.008,-0.055l0.007,-0.054l0.006,-0.054l0.005,-0.054l0.004,-0.054l0.004,-0.053l0.003,-0.053l0.002,-0.053l0.002,-0.053l0.001,-0.053l0,-0.052l-0.001,-0.053l-0.001,-0.052l-0.003,-0.052l-0.002,-0.052l-0.004,-0.052l-0.004,-0.052l-0.005,-0.052l-0.006,-0.052l-0.007,-0.052l-0.007,-0.051l-0.008,-0.052l-0.008,-0.052l-0.01,-0.052l-0.01,-0.051l-0.011,-0.052l-0.011,-0.051l-0.012,-0.052l-0.014,-0.052l-0.013,-0.052l-0.015,-0.052l-0.015,-0.051l-0.016,-0.053l-0.017,-0.052l-0.018,-0.052l-0.019,-0.052l-0.019,-0.053l-0.02,-0.052l-0.021,-0.052l-0.022,-0.053l-0.022,-0.053l-0.024,-0.053l-0.024,-0.053l-0.025,-0.053l-0.026,-0.053l-0.027,-0.054l-0.028,-0.053l-0.028,-0.053l-0.03,-0.055l-0.03,-0.053l-0.031,-0.054l-0.033,-0.054l-0.033,-0.055l-0.034,-0.054l-0.035,-0.054l-0.036,-0.055l-0.037,-0.054l-0.038,-0.055l-0.039,-0.055l-0.04,-0.055l-0.041,-0.055l-0.041,-0.055l-0.043,-0.056l-0.044,-0.055l-0.045,-0.055l-0.046,-0.056l-0.047,-0.056l-0.048,-0.055l-0.048,-0.056l-0.051,-0.056l-0.05,-0.055l-0.052,-0.056l-0.053,-0.056l-0.055,-0.056l-0.055,-0.056l-0.056,-0.056l-0.057,-0.056l-0.059,-0.056l-0.059,-0.056l-0.06,-0.056l-0.062,-0.056l-0.063,-0.056l-0.063,-0.055l-0.065,-0.056l-0.066,-0.056l-0.067,-0.056l-0.067,-0.056l-0.07,-0.056l-0.07,-0.055l-0.071,-0.056l-0.072,-0.055l-0.074,-0.056l-0.073,-0.054l-0.085,-0.062l-0.084,-0.06l-0.083,-0.057l-0.083,-0.057l-0.083,-0.054l-0.083,-0.053l-0.083,-0.052l-0.082,-0.05l-0.083,-0.049l-0.082,-0.047l-0.081,-0.046l-0.082,-0.044l-0.081,-0.043l-0.081,-0.041l-0.081,-0.04l-0.08,-0.039l-0.08,-0.037l-0.08,-0.036l-0.08,-0.034l-0.08,-0.034l-0.079,-0.032l-0.079,-0.03l-0.078,-0.03l-0.079,-0.028l-0.078,-0.027l-0.078,-0.025l-0.078,-0.024l-0.077,-0.024l-0.077,-0.022l-0.077,-0.02l-0.077,-0.02l-0.077,-0.018l-0.076,-0.017l-0.076,-0.017l-0.076,-0.015l-0.075,-0.014l-0.076,-0.012l-0.075,-0.012l-0.075,-0.011l-0.075,-0.009l-0.075,-0.009l-0.074,-0.007l-0.075,-0.006l-0.074,-0.006l-0.072,-0.004l-0.002,0l-0.074,-0.003l-0.073,-0.003l-0.074,-0.001l-0.074,-0.001l-0.073,0.001l-0.073,0.001l-0.073,0.003l-0.074,0.003l-0.072,0.005l-0.073,0.006l-0.073,0.006l-0.073,0.008l-0.073,0.008l-0.072,0.01l-0.073,0.01l-0.072,0.012l-0.073,0.012l-0.072,0.013l-0.072,0.015l-0.073,0.015l-0.072,0.017l-0.072,0.017l-0.072,0.018l-0.072,0.019l-0.073,0.021l-0.072,0.021l-0.071,0.022l-0.073,0.024l-0.072,0.024l-0.072,0.025l-0.071,0.026l-0.072,0.028l-0.072,0.028l-0.072,0.029l-0.072,0.03l-0.071,0.031l-0.072,0.033l-0.072,0.033l-0.071,0.034l-0.071,0.035l-0.072,0.037l-0.071,0.037l-0.072,0.038l-0.071,0.04l-0.071,0.04l-0.071,0.042l-0.071,0.042l-0.071,0.043l-0.07,0.045l-0.071,0.045l-0.07,0.047l-0.071,0.047l-0.07,0.049l-0.07,0.049l-0.07,0.051l-0.07,0.052l-0.069,0.052l-0.07,0.054l-0.069,0.055l-0.069,0.055l-0.069,0.057l-0.069,0.058l-0.068,0.059l-0.068,0.059l-0.069,0.061l-0.067,0.062l-0.068,0.063l-0.067,0.064l-0.067,0.065l-0.067,0.066l-0.067,0.066l-0.066,0.068l-0.066,0.069l-0.066,0.07l-0.065,0.071l-0.065,0.072l-0.065,0.072l-0.064,0.074l-0.065,0.075l-0.063,0.076l-0.064,0.077l-0.062,0.077l-0.07,0.087l0,0l-0.276,0.284l-0.32,0.234l-0.355,0.177l-0.381,0.113l-0.394,0.048l-0.398,-0.02l-0.388,-0.087l-0.369,-0.152l-0.338,-0.213l-0.297,-0.266l-0.247,-0.314l-0.191,-0.351l-0.129,-0.379l-0.063,-0.396l-0.24,-3.121l-0.619,-8.308l-0.021,-0.293l0,0l0.004,-0.401l0.069,-0.394l0.133,-0.379l0.193,-0.352l0.247,-0.316l0.297,-0.272l0.337,-0.22l0.368,-0.162l0.391,-0.1l0.402,-0.035l0.449,-0.002l2.004,0.019Z" style="fill:#000;"/></g></svg>