<svg xmlns="http://www.w3.org/2000/svg" width="256" height="256"><path class="st0" d="M237.94 147.38a103.95 103.95 0 001.58-19.38A111.4 111.4 0 00128 16.48c-6.72 0-13.05.4-19.38 1.58a66.7 66.7 0 00-32.82-8.7A66.33 66.33 0 009.36 75.8a65.59 65.59 0 008.7 32.82A103.95 103.95 0 0016.48 128 111.4 111.4 0 00128 239.52c6.72 0 13.05-.4 19.38-1.58a66.7 66.7 0 0032.82 8.7 66.33 66.33 0 0066.44-66.44 66.7 66.7 0 00-8.7-32.82zm-57.74 82.26c-8.7 0-17-2.38-24.52-6.33l-5.14-3.17-5.93 1.2c-5.14.78-10.68 1.57-16.61 1.57a94.52 94.52 0 01-94.52-94.51c0-5.54.4-11.08 1.58-16.61l1.2-5.94-3.57-5.53c-4.35-7.52-6.33-15.82-6.33-24.52A49.45 49.45 0 0175.8 26.36c8.7 0 17 2.38 24.52 6.33l5.14 3.17 5.93-1.2c5.54-.78 11.07-1.57 16.61-1.57a94.52 94.52 0 0194.52 94.51c0 5.54-.4 11.08-1.58 16.61l-1.2 5.94 3.17 5.14c4.35 7.51 6.33 15.82 6.33 24.52a48.96 48.96 0 01-49.04 49.83z" fill="#a0a0a0"/><path class="st0" d="M148.17 117.32l-24.92-5.53c-9.49-2.38-20.16-5.15-20.16-14.24 0-9.1 7.5-15.42 21.35-15.42 28.08 0 25.7 19.37 39.55 19.37 7.12 0 13.44-3.95 13.44-11.47 0-17.4-27.68-30.45-51.4-30.45-25.32 0-52.2 10.29-52.2 39.55 0 13.84 4.74 28.87 32.02 35.99l34.01 8.7c10.29 2.37 13.45 8.3 13.45 13.44 0 8.7-9.1 18.2-24.52 18.2-30.45 0-26.1-24.13-42.31-24.13-7.12 0-13.05 5.14-13.05 12.26 0 14.24 17.4 33.62 55.36 33.62 36.38 0 54.58-18.2 54.58-41.92-.4-15.82-7.52-31.64-35.2-37.97z" fill="#a0a0a0"/></svg>