<svg xmlns="http://www.w3.org/2000/svg" xmlns:xlink="http://www.w3.org/1999/xlink" version="1.1" x="0px" y="0px" viewBox="0 0 100 125" enable-background="new 0 0 100 100" xml:space="preserve">
  <path d="M48.666,59.819l-1.807-5.994c-0.164-0.541,0.079-1.249,0.523-1.605c1.261-1.002,2.415-2.156,3.439-3.443  c0.355-0.443,1.064-0.683,1.612-0.518l5.986,1.805c0.547,0.167,1.225-0.099,1.499-0.599c0.512-0.934,0.983-1.908,1.401-2.917  c0.415-1.009,0.769-2.03,1.07-3.052c0.159-0.552-0.136-1.217-0.637-1.483l-5.513-2.955c-0.501-0.27-0.831-0.941-0.77-1.505  c0.187-1.634,0.182-3.267,0.002-4.873c-0.063-0.563,0.27-1.236,0.771-1.506l5.509-2.955c0.502-0.269,0.797-0.931,0.638-1.483  c-0.204-0.698-0.437-1.398-0.696-2.091c-0.199-0.536-0.551-1.389-0.788-1.902c-0.308-0.677-0.637-1.337-0.99-1.978  c-0.274-0.496-0.952-0.762-1.496-0.595l-5.988,1.803c-0.545,0.165-1.256-0.072-1.609-0.519c-1.004-1.26-2.155-2.412-3.439-3.437  c-0.446-0.356-0.691-1.068-0.525-1.609l1.808-5.993c0.161-0.546-0.1-1.225-0.599-1.497c-0.934-0.513-1.907-0.98-2.917-1.401  c-1.011-0.417-2.026-0.771-3.056-1.073c-0.545-0.161-1.211,0.134-1.48,0.638l-2.957,5.515c-0.27,0.501-0.941,0.832-1.505,0.767  c-1.635-0.188-3.263-0.184-4.866-0.002c-0.563,0.066-1.239-0.267-1.509-0.766l-2.955-5.513c-0.27-0.5-0.938-0.799-1.484-0.643  c-0.701,0.211-1.396,0.44-2.094,0.701c-0.533,0.198-1.384,0.55-1.901,0.792c-0.675,0.302-1.333,0.632-1.974,0.985  c-0.501,0.274-0.762,0.95-0.599,1.498l1.808,5.99c0.164,0.542-0.081,1.251-0.524,1.608c-1.259,1.004-2.414,2.156-3.438,3.443  c-0.357,0.443-1.062,0.684-1.61,0.515l-5.989-1.802c-0.55-0.167-1.225,0.099-1.5,0.598c-0.511,0.935-0.983,1.906-1.401,2.919  c-0.417,1.009-0.769,2.03-1.075,3.048c-0.156,0.552,0.138,1.218,0.642,1.487l5.512,2.952c0.5,0.271,0.833,0.943,0.767,1.509  c-0.185,1.632-0.183,3.264-0.001,4.874c0.062,0.562-0.27,1.234-0.769,1.505l-5.509,2.954c-0.504,0.266-0.8,0.931-0.639,1.484  c0.205,0.697,0.439,1.4,0.696,2.09c0.198,0.539,0.553,1.389,0.787,1.901c0.311,0.678,0.642,1.338,0.991,1.976  c0.274,0.499,0.95,0.765,1.497,0.598l5.986-1.805c0.547-0.161,1.257,0.076,1.612,0.518c1.003,1.265,2.155,2.416,3.44,3.444  c0.444,0.355,0.69,1.063,0.523,1.604l-1.806,5.997c-0.166,0.546,0.097,1.224,0.598,1.495c0.932,0.513,1.907,0.979,2.918,1.401  c1.009,0.416,2.025,0.771,3.053,1.075c0.545,0.157,1.211-0.136,1.48-0.638l2.956-5.518c0.273-0.501,0.944-0.832,1.508-0.768  c1.632,0.185,3.262,0.183,4.865,0.004c0.568-0.067,1.241,0.265,1.508,0.767l2.959,5.513c0.265,0.502,0.936,0.798,1.48,0.641  c0.7-0.211,1.401-0.44,2.094-0.702c0.535-0.195,1.388-0.551,1.905-0.786c0.674-0.305,1.332-0.636,1.973-0.989  C48.566,61.045,48.833,60.366,48.666,59.819z M43.797,39.293c-2.309,5.565-8.688,8.205-14.253,5.902  c-5.565-2.308-8.211-8.687-5.905-14.258c2.307-5.562,8.69-8.204,14.254-5.9C43.455,27.338,46.102,33.724,43.797,39.293z" />
  <path d="M94.903,33.378c-0.034-0.308-0.318-0.578-0.622-0.607l-3.351-0.334c-0.305-0.031-0.607-0.297-0.692-0.59  c-0.244-0.851-0.583-1.662-1.003-2.423c-0.147-0.267-0.121-0.67,0.073-0.908l2.131-2.604c0.194-0.237,0.204-0.627,0.011-0.869  c-0.245-0.305-0.504-0.605-0.776-0.896c-0.21-0.225-0.561-0.577-0.783-0.783c-0.293-0.273-0.593-0.534-0.9-0.78  c-0.238-0.19-0.63-0.183-0.866,0.012l-2.607,2.13c-0.237,0.194-0.639,0.223-0.906,0.073c-0.759-0.42-1.568-0.755-2.419-1  c-0.295-0.085-0.563-0.389-0.593-0.692l-0.335-3.353c-0.032-0.305-0.302-0.588-0.605-0.621c-0.57-0.063-1.151-0.095-1.74-0.096  c-0.588,0.001-1.166,0.034-1.741,0.096c-0.304,0.033-0.574,0.317-0.604,0.622l-0.335,3.352c-0.031,0.305-0.297,0.607-0.591,0.691  c-0.852,0.243-1.66,0.581-2.42,1.001c-0.267,0.149-0.672,0.123-0.908-0.07l-2.605-2.133c-0.237-0.194-0.631-0.204-0.87-0.014  c-0.305,0.249-0.604,0.506-0.897,0.78c-0.224,0.208-0.574,0.558-0.782,0.785c-0.273,0.289-0.532,0.589-0.778,0.896  c-0.192,0.24-0.184,0.63,0.011,0.868l2.133,2.607c0.193,0.236,0.218,0.639,0.071,0.908c-0.42,0.759-0.757,1.569-1,2.42  c-0.087,0.294-0.388,0.559-0.695,0.588l-3.349,0.337c-0.309,0.03-0.589,0.302-0.623,0.606c-0.062,0.57-0.097,1.15-0.096,1.741  c0.001,0.587,0.035,1.167,0.093,1.737c0.036,0.307,0.319,0.577,0.626,0.607l3.35,0.333c0.304,0.031,0.608,0.297,0.691,0.592  c0.245,0.85,0.582,1.661,1.004,2.423c0.146,0.267,0.12,0.669-0.072,0.907l-2.131,2.604c-0.196,0.236-0.207,0.628-0.013,0.87  c0.246,0.304,0.508,0.606,0.777,0.896c0.209,0.227,0.561,0.577,0.782,0.783c0.295,0.273,0.596,0.533,0.9,0.778  c0.239,0.191,0.63,0.185,0.868-0.011l2.604-2.131c0.239-0.193,0.641-0.221,0.908-0.075c0.76,0.423,1.569,0.758,2.42,1.005  c0.295,0.085,0.563,0.386,0.591,0.689l0.337,3.354c0.031,0.306,0.301,0.589,0.605,0.62c0.569,0.063,1.15,0.095,1.74,0.096  c0.588-0.001,1.166-0.034,1.74-0.094c0.304-0.035,0.574-0.317,0.604-0.623l0.334-3.353c0.032-0.306,0.298-0.608,0.591-0.692  c0.85-0.245,1.66-0.581,2.421-1c0.269-0.15,0.671-0.124,0.907,0.071l2.607,2.132c0.235,0.195,0.63,0.204,0.868,0.014  c0.305-0.249,0.606-0.507,0.896-0.78c0.226-0.208,0.577-0.561,0.785-0.784c0.272-0.291,0.531-0.591,0.777-0.898  c0.191-0.237,0.185-0.629-0.011-0.867l-2.134-2.609c-0.193-0.235-0.218-0.637-0.07-0.905c0.421-0.758,0.757-1.571,1.001-2.421  c0.085-0.293,0.388-0.559,0.694-0.589l3.349-0.336c0.307-0.03,0.589-0.301,0.623-0.607C94.966,36.286,95,35.704,95,35.116  C94.998,34.529,94.964,33.949,94.903,33.378z M78.919,40.989c-3.243-0.001-5.873-2.628-5.874-5.875  c0.002-3.241,2.632-5.87,5.874-5.87c3.239-0.002,5.871,2.628,5.872,5.873C84.79,38.361,82.161,40.988,78.919,40.989z" />
  <path d="M91.229,68.596l-4.547-0.454c-0.414-0.042-0.824-0.402-0.939-0.801c-0.331-1.155-0.791-2.255-1.361-3.289  c-0.2-0.362-0.164-0.91,0.099-1.232l2.893-3.534c0.263-0.321,0.277-0.851,0.015-1.18c-0.333-0.414-0.685-0.821-1.054-1.216  c-0.285-0.306-0.761-0.784-1.063-1.063c-0.397-0.371-0.804-0.726-1.223-1.059c-0.323-0.258-0.854-0.248-1.175,0.018l-3.538,2.891  c-0.321,0.264-0.868,0.302-1.23,0.099c-1.03-0.569-2.129-1.025-3.282-1.357c-0.4-0.116-0.766-0.528-0.805-0.939l-0.455-4.55  c-0.044-0.414-0.409-0.799-0.822-0.843c-0.773-0.085-1.562-0.129-2.36-0.13c-0.799,0.001-1.583,0.045-2.362,0.13  c-0.413,0.044-0.78,0.43-0.82,0.844l-0.454,4.549c-0.043,0.414-0.403,0.824-0.802,0.938c-1.156,0.33-2.254,0.788-3.285,1.358  c-0.361,0.202-0.911,0.167-1.232-0.095l-3.535-2.895c-0.322-0.263-0.856-0.277-1.182-0.019c-0.413,0.338-0.818,0.688-1.218,1.059  c-0.304,0.282-0.779,0.758-1.062,1.065c-0.37,0.392-0.723,0.799-1.057,1.216c-0.261,0.325-0.248,0.854,0.015,1.179l2.896,3.537  c0.262,0.32,0.295,0.867,0.096,1.232c-0.569,1.029-1.026,2.13-1.357,3.284c-0.117,0.399-0.525,0.759-0.942,0.798l-4.546,0.459  c-0.418,0.04-0.799,0.409-0.846,0.822c-0.083,0.774-0.131,1.561-0.129,2.362c0.001,0.797,0.048,1.584,0.126,2.357  c0.049,0.416,0.434,0.783,0.85,0.823l4.545,0.452c0.413,0.043,0.826,0.403,0.939,0.804c0.332,1.153,0.789,2.254,1.362,3.289  c0.199,0.361,0.163,0.908-0.099,1.23l-2.892,3.534c-0.267,0.32-0.28,0.853-0.017,1.181c0.333,0.412,0.688,0.821,1.054,1.216  c0.284,0.308,0.762,0.783,1.063,1.063c0.399,0.37,0.808,0.723,1.222,1.056c0.324,0.261,0.854,0.251,1.178-0.015l3.535-2.892  c0.324-0.262,0.869-0.3,1.232-0.103c1.031,0.574,2.13,1.029,3.285,1.364c0.399,0.115,0.763,0.523,0.801,0.936l0.458,4.552  c0.041,0.415,0.408,0.8,0.821,0.843c0.772,0.086,1.562,0.128,2.361,0.13c0.798-0.001,1.582-0.046,2.361-0.128  c0.412-0.047,0.78-0.43,0.821-0.845l0.452-4.55c0.044-0.415,0.405-0.825,0.803-0.939c1.153-0.332,2.254-0.789,3.285-1.357  c0.364-0.204,0.911-0.169,1.232,0.096l3.538,2.894c0.319,0.265,0.854,0.276,1.178,0.019c0.413-0.339,0.822-0.688,1.217-1.06  c0.307-0.281,0.783-0.76,1.066-1.063c0.369-0.395,0.721-0.802,1.055-1.22c0.26-0.321,0.25-0.854-0.016-1.177l-2.896-3.54  c-0.262-0.319-0.296-0.865-0.096-1.229c0.571-1.029,1.027-2.131,1.358-3.286c0.115-0.397,0.527-0.758,0.942-0.8l4.546-0.456  c0.416-0.04,0.798-0.408,0.845-0.823c0.083-0.772,0.13-1.562,0.13-2.359c-0.002-0.797-0.049-1.585-0.131-2.359  C92.027,69.002,91.643,68.635,91.229,68.596z M70.381,79.747c-4.401-0.002-7.971-3.566-7.972-7.972  c0.002-4.398,3.572-7.967,7.972-7.967c4.396-0.002,7.969,3.567,7.97,7.971C78.349,76.181,74.78,79.745,70.381,79.747z" />
</svg>