<?xml version="1.0" standalone="no"?>
<!DOCTYPE svg PUBLIC "-//W3C//DTD SVG 20010904//EN"
 "http://www.w3.org/TR/2001/REC-SVG-20010904/DTD/svg10.dtd">
<svg version="1.0" xmlns="http://www.w3.org/2000/svg"
 width="700.000000pt" height="700.000000pt" viewBox="0 0 700.000000 700.000000"
 preserveAspectRatio="xMidYMid meet">
<metadata>
Created by potrace 1.14, written by Peter Selinger 2001-2017
</metadata>
<g transform="translate(0.000000,700.000000) scale(0.100000,-0.100000)"
fill="#000000" stroke="none">
<path d="M0 3500 l0 -3500 3500 0 3500 0 0 3500 0 3500 -3500 0 -3500 0 0
-3500z m5131 2413 c380 -108 644 -390 720 -768 12 -58 14 -332 14 -1635 l0
-1565 -23 -89 c-47 -186 -129 -334 -257 -462 -161 -163 -353 -257 -575 -284
-68 -8 -523 -10 -1620 -8 -1386 4 -1531 6 -1592 21 -376 93 -646 361 -740 733
l-23 89 0 1565 c0 1303 2 1577 14 1635 71 356 318 636 660 750 133 44 113 43
1771 42 l1575 -2 76 -22z"/>
<path d="M1889 5396 c-155 -43 -284 -183 -318 -344 -15 -70 -16 -2974 -1
-3053 33 -176 174 -321 348 -358 75 -16 2989 -16 3064 0 174 37 315 182 348
358 15 79 14 2983 -1 3053 -35 164 -164 302 -323 344 -73 20 -3046 19 -3117 0z
m2371 -706 c338 -96 570 -401 570 -753 0 -125 -21 -219 -74 -332 -92 -194
-250 -338 -448 -406 -204 -70 -414 -57 -603 38 -94 47 -150 89 -226 171 -149
160 -217 346 -206 567 18 375 293 678 672 739 65 10 241 -3 315 -24z"/>
</g>
</svg>
