<svg xmlns="http://www.w3.org/2000/svg" viewBox="0 0 100 125" x="0px" y="0px">
  <g data-name="Layer 12">
    <path d="M89.13,40a20,20,0,0,0,5.7-11.54,2.42,2.42,0,0,0-2.44-2.84,3,3,0,0,0-2.13.93l-3.81,3.81a7.72,7.72,0,0,1-5.39,2.32A6.31,6.31,0,0,1,79,32.29L75.47,31.1l-2.09-.72a5.81,5.81,0,0,1-3.7-3.82l-.64-2-1.2-3.87a7.4,7.4,0,0,1,2-7.33l3.59-3.59c1.82-1.82.79-4.6-1.51-4.6a2.56,2.56,0,0,0-.39,0A20,20,0,0,0,60,10.84a20.26,20.26,0,0,0-4.63,21.3l-7.56,7.58,8.58,8.57.93-.93a2.91,2.91,0,0,1,4.12,0l1.76,1.75,4.54-4.55a20.62,20.62,0,0,0,7.13,1.27A20.07,20.07,0,0,0,89.13,40Z" />
    <path d="M47.39,57.31l.88-.88-8.56-8.56L7.76,79.9a8.76,8.76,0,1,0,12.4,12.39l29-29.08-1.77-1.77A2.92,2.92,0,0,1,47.39,57.31Z" />
    <path d="M57.22,64.52a3.3,3.3,0,0,0,0,4.67L81.79,93.77a3.3,3.3,0,0,0,4.67,0l7.29-7.29a3.3,3.3,0,0,0,0-4.67L69.17,57.24a3.3,3.3,0,0,0-4.67,0Z" />
    <rect x="33.48" y="17.1" width="8.51" height="41.3" transform="translate(-15.64 37.74) rotate(-45)" />
    <polygon points="21.91 11.33 10.6 5.04 5.05 10.58 11.36 21.88 18.85 25.32 25.34 18.83 21.91 11.33" />
    <path d="M59.4,48a1.4,1.4,0,0,0-1,.41l-9.95,9.95a1.4,1.4,0,0,0,0,2l4.4,4.4a1.41,1.41,0,0,0,2,0l1.31-1.31,7.28-7.28,1.36-1.36a1.42,1.42,0,0,0,0-2l-4.4-4.4A1.38,1.38,0,0,0,59.4,48Z" />
  </g>
</svg>