<?xml version="1.0" encoding="UTF-8" standalone="no"?>
<!DOCTYPE svg PUBLIC "-//W3C//DTD SVG 1.1//EN" "http://www.w3.org/Graphics/SVG/1.1/DTD/svg11.dtd">
<svg width="100%" height="100%" viewBox="0 0 218 218" version="1.1" xmlns="http://www.w3.org/2000/svg" xmlns:xlink="http://www.w3.org/1999/xlink" xml:space="preserve" xmlns:serif="http://www.serif.com/" style="fill-rule:evenodd;clip-rule:evenodd;stroke-linecap:round;stroke-linejoin:round;stroke-miterlimit:1.5;">
    <g id="Artboard1" transform="matrix(1.092698,0,0,1.092698,0,0)">
        <rect x="0" y="0" width="200" height="200" style="fill:none;"/>
        <g transform="matrix(1.242425,0,0,1.242425,-54.94584,-38.014034)">
            <path d="M124.712,43.488C162.02,43.488 192.309,73.777 192.309,111.084C192.309,148.392 162.02,178.681 124.712,178.681C87.405,178.681 57.116,148.392 57.116,111.084C57.116,73.777 87.405,43.488 124.712,43.488ZM124.712,77.286C143.366,77.286 158.511,92.431 158.511,111.084C158.511,129.738 143.366,144.883 124.712,144.883C106.059,144.883 90.914,129.738 90.914,111.084C90.914,92.431 106.059,77.286 124.712,77.286Z" style="fill:none;stroke:rgb(133,255,0);stroke-width:2.21px;"/>
        </g>
        <g transform="matrix(0.915166,0,0,0.915166,6.541958,8.862702)">
            <g transform="matrix(25.644632,-25.265646,25.265646,25.644632,52.571005,67.112159)">
                <path d="M0.218,-0.097L0.478,-0.097L0.512,-0L0.686,-0L0.459,-0.61L0.237,-0.61L0.009,-0L0.184,-0L0.218,-0.097ZM0.426,-0.245L0.269,-0.245L0.33,-0.42L0.348,-0.476C0.352,-0.46 0.358,-0.442 0.365,-0.42L0.426,-0.245Z" style="fill:white;fill-rule:nonzero;"/>
            </g>
            <g transform="matrix(33.195391,-13.930759,13.930759,33.195391,69.905669,50.282699)">
                <path d="M0.209,-0.483L0.049,-0.483L0.049,0.154L0.209,0.154L0.209,-0.053C0.248,-0.015 0.278,0.009 0.352,0.009C0.454,0.009 0.544,-0.065 0.544,-0.246C0.544,-0.419 0.481,-0.492 0.363,-0.492C0.304,-0.492 0.257,-0.469 0.209,-0.43L0.209,-0.483ZM0.209,-0.305C0.236,-0.34 0.266,-0.359 0.305,-0.359C0.357,-0.359 0.387,-0.327 0.387,-0.246C0.387,-0.158 0.352,-0.122 0.301,-0.122C0.257,-0.122 0.234,-0.14 0.209,-0.173L0.209,-0.305Z" style="fill:white;fill-rule:nonzero;"/>
            </g>
            <g transform="matrix(35.868393,-3.075451,3.075451,35.868393,86.482314,42.791579)">
                <path d="M0.209,-0.483L0.049,-0.483L0.049,0.154L0.209,0.154L0.209,-0.053C0.248,-0.015 0.278,0.009 0.352,0.009C0.454,0.009 0.544,-0.065 0.544,-0.246C0.544,-0.419 0.481,-0.492 0.363,-0.492C0.304,-0.492 0.257,-0.469 0.209,-0.43L0.209,-0.483ZM0.209,-0.305C0.236,-0.34 0.266,-0.359 0.305,-0.359C0.357,-0.359 0.387,-0.327 0.387,-0.246C0.387,-0.158 0.352,-0.122 0.301,-0.122C0.257,-0.122 0.234,-0.14 0.209,-0.173L0.209,-0.305Z" style="fill:white;fill-rule:nonzero;"/>
            </g>
            <g transform="matrix(35.452644,6.253802,-6.253802,35.452644,105.357024,41.334452)">
                <path d="M0.363,-0.122C0.336,-0.12 0.321,-0.12 0.298,-0.12C0.251,-0.12 0.238,-0.141 0.238,-0.184L0.238,-0.352L0.356,-0.352L0.356,-0.483L0.238,-0.483L0.238,-0.59L0.078,-0.59L0.078,-0.483L0.01,-0.483L0.01,-0.352L0.078,-0.352L0.078,-0.177C0.078,-0.045 0.125,0.007 0.238,0.007C0.287,0.007 0.343,-0.006 0.378,-0.026L0.363,-0.122Z" style="fill:white;fill-rule:nonzero;"/>
            </g>
            <g transform="matrix(33.486891,13.214693,-13.214693,33.486891,118.829452,43.902317)">
                <path d="M0.045,-0.624C0.045,-0.569 0.088,-0.542 0.135,-0.542C0.182,-0.542 0.225,-0.569 0.225,-0.624C0.225,-0.678 0.182,-0.705 0.135,-0.705C0.088,-0.705 0.045,-0.678 0.045,-0.624ZM0.215,-0L0.215,-0.483L0.055,-0.483L0.055,-0L0.215,-0Z" style="fill:white;fill-rule:nonzero;"/>
            </g>
            <g transform="matrix(30.037319,19.843373,-19.843373,30.037319,125.352124,45.519441)">
                <path d="M0.367,-0L0.565,-0.483L0.406,-0.483L0.305,-0.236C0.296,-0.213 0.29,-0.186 0.282,-0.161C0.275,-0.186 0.269,-0.212 0.26,-0.236L0.169,-0.483L0.01,-0.483L0.198,-0L0.367,-0Z" style="fill:white;fill-rule:nonzero;"/>
            </g>
            <g transform="matrix(23.693948,27.103446,-27.103446,23.693948,139.767778,54.663535)">
                <path d="M0.095,-0.348C0.164,-0.363 0.216,-0.369 0.252,-0.369C0.309,-0.369 0.324,-0.347 0.324,-0.293L0.228,-0.293C0.092,-0.293 0.024,-0.246 0.024,-0.143C0.024,-0.029 0.081,0.009 0.183,0.009C0.241,0.009 0.285,-0.017 0.324,-0.057L0.324,-0L0.48,-0L0.48,-0.293C0.48,-0.433 0.424,-0.492 0.282,-0.492C0.232,-0.492 0.183,-0.486 0.072,-0.456L0.095,-0.348ZM0.324,-0.208L0.324,-0.147C0.3,-0.122 0.273,-0.105 0.236,-0.105C0.195,-0.105 0.171,-0.127 0.171,-0.163C0.171,-0.203 0.198,-0.208 0.249,-0.208L0.324,-0.208Z" style="fill:white;fill-rule:nonzero;"/>
            </g>
            <g transform="matrix(22.58364,28.035321,-28.035321,22.58364,33.111001,140.580919)">
                <path d="M0.542,-0.182C0.46,-0.149 0.411,-0.137 0.343,-0.137C0.256,-0.137 0.199,-0.204 0.199,-0.304C0.199,-0.417 0.252,-0.474 0.353,-0.474C0.401,-0.474 0.451,-0.464 0.524,-0.443L0.573,-0.565C0.502,-0.602 0.422,-0.62 0.345,-0.62C0.15,-0.62 0.034,-0.506 0.034,-0.304C0.034,-0.103 0.15,0.009 0.335,0.009C0.429,0.009 0.507,-0.012 0.595,-0.061L0.542,-0.182Z" style="fill:white;fill-rule:nonzero;"/>
            </g>
            <g transform="matrix(30.244376,19.526334,-19.526334,30.244376,50.473344,160.829315)">
                <path d="M0.209,-0.645L0.049,-0.645L0.049,-0L0.209,-0L0.209,-0.277C0.236,-0.311 0.267,-0.333 0.304,-0.333C0.35,-0.333 0.36,-0.311 0.36,-0.252L0.36,-0L0.52,-0L0.52,-0.307C0.52,-0.437 0.471,-0.492 0.368,-0.492C0.308,-0.492 0.26,-0.466 0.209,-0.409L0.209,-0.645Z" style="fill:white;fill-rule:nonzero;"/>
            </g>
            <g transform="matrix(34.220413,11.1787,-11.1787,34.220413,68.828229,172.322941)">
                <path d="M0.095,-0.348C0.164,-0.363 0.216,-0.369 0.252,-0.369C0.309,-0.369 0.324,-0.347 0.324,-0.293L0.228,-0.293C0.092,-0.293 0.024,-0.246 0.024,-0.143C0.024,-0.029 0.081,0.009 0.183,0.009C0.241,0.009 0.285,-0.017 0.324,-0.057L0.324,-0L0.48,-0L0.48,-0.293C0.48,-0.433 0.424,-0.492 0.282,-0.492C0.232,-0.492 0.183,-0.486 0.072,-0.456L0.095,-0.348ZM0.324,-0.208L0.324,-0.147C0.3,-0.122 0.273,-0.105 0.236,-0.105C0.195,-0.105 0.171,-0.127 0.171,-0.163C0.171,-0.203 0.198,-0.208 0.249,-0.208L0.324,-0.208Z" style="fill:white;fill-rule:nonzero;"/>
            </g>
            <g transform="matrix(35.92031,2.394021,-2.394021,35.92031,89.818168,178.412516)">
                <path d="M0.363,-0.122C0.336,-0.12 0.321,-0.12 0.298,-0.12C0.251,-0.12 0.238,-0.141 0.238,-0.184L0.238,-0.352L0.356,-0.352L0.356,-0.483L0.238,-0.483L0.238,-0.59L0.078,-0.59L0.078,-0.483L0.01,-0.483L0.01,-0.352L0.078,-0.352L0.078,-0.177C0.078,-0.045 0.125,0.007 0.238,0.007C0.287,0.007 0.343,-0.006 0.378,-0.026L0.363,-0.122Z" style="fill:white;fill-rule:nonzero;"/>
            </g>
            <g transform="matrix(35.290074,-7.114119,7.114119,35.290074,107.406227,179.59697)">
                <path d="M0.209,-0.645L0.049,-0.645L0.049,-0L0.209,-0L0.209,-0.054C0.249,-0.015 0.277,0.009 0.352,0.009C0.454,0.009 0.544,-0.065 0.544,-0.246C0.544,-0.419 0.481,-0.492 0.363,-0.492C0.304,-0.492 0.257,-0.469 0.209,-0.419L0.209,-0.645ZM0.209,-0.304C0.236,-0.34 0.266,-0.359 0.305,-0.359C0.357,-0.359 0.387,-0.327 0.387,-0.246C0.387,-0.158 0.352,-0.122 0.301,-0.122C0.257,-0.122 0.234,-0.14 0.209,-0.174L0.209,-0.304Z" style="fill:white;fill-rule:nonzero;"/>
            </g>
            <g transform="matrix(31.899481,-16.686016,16.686016,31.899481,129.948397,174.718108)">
                <path d="M0.28,-0.492C0.122,-0.492 0.029,-0.401 0.029,-0.239C0.029,-0.081 0.122,0.009 0.28,0.009C0.439,0.009 0.532,-0.081 0.532,-0.239C0.532,-0.401 0.439,-0.492 0.28,-0.492ZM0.28,-0.118C0.219,-0.118 0.186,-0.15 0.186,-0.239C0.186,-0.332 0.22,-0.365 0.28,-0.365C0.341,-0.365 0.375,-0.332 0.375,-0.239C0.375,-0.15 0.341,-0.118 0.28,-0.118Z" style="fill:white;fill-rule:nonzero;"/>
            </g>
            <g transform="matrix(26.747409,-24.095147,24.095147,26.747409,150.097489,163.311192)">
                <path d="M0.363,-0.122C0.336,-0.12 0.321,-0.12 0.298,-0.12C0.251,-0.12 0.238,-0.141 0.238,-0.184L0.238,-0.352L0.356,-0.352L0.356,-0.483L0.238,-0.483L0.238,-0.59L0.078,-0.59L0.078,-0.483L0.01,-0.483L0.01,-0.352L0.078,-0.352L0.078,-0.177C0.078,-0.045 0.125,0.007 0.238,0.007C0.287,0.007 0.343,-0.006 0.378,-0.026L0.363,-0.122Z" style="fill:white;fill-rule:nonzero;"/>
            </g>
            <g transform="matrix(20.911513,-29.30373,29.30373,20.911513,161.883435,152.638427)">
                <path d="M0.437,-0.455C0.349,-0.484 0.276,-0.493 0.219,-0.493C0.108,-0.493 0.046,-0.43 0.046,-0.328C0.046,-0.26 0.088,-0.214 0.178,-0.186C0.251,-0.163 0.286,-0.159 0.286,-0.134C0.286,-0.118 0.273,-0.11 0.246,-0.11C0.202,-0.11 0.128,-0.132 0.066,-0.155L0.028,-0.048C0.09,-0.017 0.158,0.009 0.244,0.009C0.376,0.009 0.446,-0.047 0.446,-0.151C0.446,-0.234 0.41,-0.265 0.316,-0.291C0.238,-0.313 0.196,-0.317 0.196,-0.347C0.196,-0.365 0.209,-0.374 0.23,-0.374C0.262,-0.374 0.327,-0.364 0.398,-0.345L0.437,-0.455Z" style="fill:white;fill-rule:nonzero;"/>
            </g>
        </g>
        <g transform="matrix(0.97871,0,0,0.780374,2.294274,23.987172)">
            <path d="M196.078,80.32L196.078,114.492C196.078,120.778 192.009,125.882 186.996,125.882L12.666,125.882C7.654,125.882 3.584,120.778 3.584,114.492L3.584,80.32C3.584,74.033 7.654,68.929 12.666,68.929L186.996,68.929C192.009,68.929 196.078,74.033 196.078,80.32Z" style="fill:rgb(133,255,0);"/>
        </g>
        <g transform="matrix(0.915166,0,0,0.915166,4.369459,8.240957)">
            <g transform="matrix(46,0,0,46,18.705298,113.96192)">
                <path d="M0.475,-0L0.475,-0.136L0.35,-0.136L0.35,-0.61L0.222,-0.61C0.162,-0.567 0.097,-0.531 0.023,-0.505L0.054,-0.41C0.104,-0.415 0.149,-0.423 0.19,-0.434L0.19,-0.136L0.051,-0.136L0.051,-0L0.475,-0Z" style="fill:rgb(6,48,98);fill-rule:nonzero;"/>
            </g>
            <g transform="matrix(46,0,0,46,40.739298,113.96192)">
                <path d="M0.313,-0.62C0.125,-0.62 0.034,-0.506 0.034,-0.304C0.034,-0.103 0.125,0.009 0.313,0.009C0.501,0.009 0.591,-0.103 0.591,-0.304C0.591,-0.506 0.501,-0.62 0.313,-0.62ZM0.313,-0.137C0.227,-0.137 0.199,-0.194 0.199,-0.304C0.199,-0.417 0.227,-0.474 0.313,-0.474C0.398,-0.474 0.426,-0.417 0.426,-0.304C0.426,-0.194 0.398,-0.137 0.313,-0.137Z" style="fill:rgb(6,48,98);fill-rule:nonzero;"/>
            </g>
            <g transform="matrix(46,0,0,46,78.689298,113.96192)">
                <path d="M0.423,-0.61L0.26,-0.61L0.26,-0.242C0.26,-0.169 0.232,-0.139 0.178,-0.139C0.134,-0.139 0.097,-0.148 0.048,-0.163L0.011,-0.045C0.076,-0.013 0.149,0.009 0.216,0.009C0.362,0.009 0.423,-0.069 0.423,-0.242L0.423,-0.61Z" style="fill:rgb(6,48,98);fill-rule:nonzero;"/>
            </g>
            <g transform="matrix(46,0,0,46,100.079298,113.96192)">
                <path d="M0.095,-0.348C0.164,-0.363 0.216,-0.369 0.252,-0.369C0.309,-0.369 0.324,-0.347 0.324,-0.293L0.228,-0.293C0.092,-0.293 0.024,-0.246 0.024,-0.143C0.024,-0.029 0.081,0.009 0.183,0.009C0.241,0.009 0.285,-0.017 0.324,-0.057L0.324,-0L0.48,-0L0.48,-0.293C0.48,-0.433 0.424,-0.492 0.282,-0.492C0.232,-0.492 0.183,-0.486 0.072,-0.456L0.095,-0.348ZM0.324,-0.208L0.324,-0.147C0.3,-0.122 0.273,-0.105 0.236,-0.105C0.195,-0.105 0.171,-0.127 0.171,-0.163C0.171,-0.203 0.198,-0.208 0.249,-0.208L0.324,-0.208Z" style="fill:rgb(6,48,98);fill-rule:nonzero;"/>
            </g>
            <g transform="matrix(46,0,0,46,123.815298,113.96192)">
                <path d="M0.209,-0.645L0.049,-0.645L0.049,-0L0.209,-0L0.209,-0.277C0.236,-0.311 0.267,-0.333 0.304,-0.333C0.35,-0.333 0.36,-0.311 0.36,-0.252L0.36,-0L0.52,-0L0.52,-0.307C0.52,-0.437 0.471,-0.492 0.368,-0.492C0.308,-0.492 0.26,-0.466 0.209,-0.409L0.209,-0.645Z" style="fill:rgb(6,48,98);fill-rule:nonzero;"/>
            </g>
            <g transform="matrix(46,0,0,46,149.621298,113.96192)">
                <path d="M0.209,-0.483L0.049,-0.483L0.049,-0L0.209,-0L0.209,-0.241C0.229,-0.311 0.271,-0.33 0.33,-0.33C0.347,-0.33 0.363,-0.33 0.387,-0.328L0.398,-0.489C0.371,-0.492 0.355,-0.492 0.338,-0.492C0.282,-0.492 0.242,-0.458 0.209,-0.394L0.209,-0.483Z" style="fill:rgb(6,48,98);fill-rule:nonzero;"/>
            </g>
            <g transform="matrix(46,0,0,46,167.469298,113.96192)">
                <path d="M0.451,-0.159C0.391,-0.127 0.345,-0.115 0.28,-0.115C0.226,-0.115 0.194,-0.141 0.184,-0.195L0.495,-0.195C0.498,-0.22 0.499,-0.24 0.499,-0.26C0.498,-0.413 0.41,-0.492 0.274,-0.492C0.123,-0.492 0.029,-0.406 0.029,-0.238C0.029,-0.074 0.125,0.009 0.273,0.009C0.354,0.009 0.423,-0.014 0.496,-0.069L0.451,-0.159ZM0.182,-0.29C0.191,-0.352 0.221,-0.381 0.274,-0.381C0.326,-0.381 0.358,-0.353 0.362,-0.29L0.182,-0.29Z" style="fill:rgb(6,48,98);fill-rule:nonzero;"/>
            </g>
        </g>
    </g>
</svg>
