<svg width="442" height="442" viewBox="-30 -30 502 502" fill="none" xmlns="http://www.w3.org/2000/svg">
<rect x="0.00012207" width="441.999" height="441.999" rx="16" fill="#85FF00"/>
<rect x="37" y="37" width="367.999" height="367.999" rx="16" fill="#0B1C39"/>
<path d="M169.875 189.5C175.467 189.5 180.124 184.898 178.741 179.48C178.265 177.617 177.656 175.786 176.917 174.001C174.882 169.088 171.899 164.623 168.138 160.862C164.377 157.101 159.912 154.118 154.999 152.083C150.085 150.048 144.819 149 139.5 149C134.181 149 128.915 150.048 124.001 152.083C119.088 154.118 114.623 157.101 110.862 160.862C107.101 164.623 104.118 169.088 102.083 174.001C101.344 175.786 100.735 177.617 100.259 179.48C98.8756 184.898 103.533 189.5 109.125 189.5H111.298C115.69 189.5 119.111 185.808 120.791 181.751C121.809 179.294 123.301 177.061 125.181 175.181C127.061 173.301 129.294 171.809 131.751 170.791C134.208 169.774 136.841 169.25 139.5 169.25C142.159 169.25 144.792 169.774 147.249 170.791C149.706 171.809 151.939 173.301 153.819 175.181C155.699 177.061 157.191 179.294 158.209 181.751C159.889 185.808 163.31 189.5 167.702 189.5H169.875Z" fill="#85FF00"/>
<path d="M332.875 189.5C338.467 189.5 343.124 184.898 341.741 179.48C341.265 177.617 340.656 175.786 339.917 174.001C337.882 169.088 334.899 164.623 331.138 160.862C327.377 157.101 322.912 154.118 317.999 152.083C313.085 150.048 307.819 149 302.5 149C297.181 149 291.915 150.048 287.001 152.083C282.088 154.118 277.623 157.101 273.862 160.862C270.101 164.623 267.118 169.088 265.083 174.001C264.344 175.786 263.735 177.617 263.259 179.48C261.876 184.898 266.533 189.5 272.125 189.5H274.298C278.69 189.5 282.111 185.808 283.791 181.751C284.809 179.294 286.301 177.061 288.181 175.181C290.061 173.301 292.294 171.809 294.751 170.791C297.208 169.774 299.841 169.25 302.5 169.25C305.159 169.25 307.792 169.774 310.249 170.791C312.706 171.809 314.939 173.301 316.819 175.181C318.699 177.061 320.191 179.294 321.209 181.751C322.889 185.808 326.31 189.5 330.702 189.5H332.875Z" fill="#85FF00"/>
<path d="M257 283.5C261.418 283.5 265.08 287.116 264.212 291.448C263.696 294.028 262.929 296.557 261.917 298.999C259.882 303.912 256.899 308.377 253.138 312.138C249.377 315.899 244.912 318.882 239.999 320.917C235.085 322.952 229.819 324 224.5 324C219.181 324 213.915 322.952 209.001 320.917C204.088 318.882 199.623 315.899 195.862 312.138C192.101 308.377 189.118 303.912 187.083 298.999C186.071 296.557 185.304 294.028 184.788 291.448C183.92 287.116 187.582 283.5 192 283.5L224.5 283.5H257Z" fill="#85FF00"/>
</svg>
