<svg xmlns="http://www.w3.org/2000/svg" fill="none" viewBox="0 0 560 453" height="453" width="560">
<rect fill="#85FF00" rx="16" height="264" width="150" x="410"></rect>
<rect fill="#85FF00" rx="16" height="244" width="347.999" y="49"></rect>
<rect fill="#85FF00" rx="8" height="37" width="115.999" y="309" x="116"></rect>
<rect stroke-width="15" stroke="#063062" fill="#063062" rx="8.5" height="229" width="332.999" y="216.5" x="192.5"></rect>
<rect fill="#85FF00" rx="16" height="214" width="318" y="224" x="200"></rect>
<path stroke-linecap="round" stroke-width="16" stroke="#063062" d="M257.938 317H339.617"></path>
<path stroke-linecap="round" stroke-width="16" stroke="#063062" d="M369.32 317H451"></path>
<path stroke-linecap="round" stroke-width="16" stroke="#063062" d="M301.254 285H382.933"></path>
<path stroke-linecap="round" stroke-width="16" stroke="#063062" d="M257.938 285H271.551"></path>
<path stroke-linecap="round" stroke-width="16" stroke="#063062" d="M412.633 285H426.246"></path>
<path stroke-linecap="round" stroke-width="16" stroke="#063062" d="M227 253H308.68"></path>
<path stroke-linecap="round" stroke-width="16" stroke="#063062" d="M338.383 253H351.996"></path>
<path stroke-linecap="round" stroke-width="16" stroke="#063062" d="M381.695 253H395.309"></path>
<path stroke-linecap="round" stroke-width="16" stroke="#063062" d="M257.938 413H339.617"></path>
<path stroke-linecap="round" stroke-width="16" stroke="#063062" d="M369.32 413H451"></path>
<path stroke-linecap="round" stroke-width="16" stroke="#063062" d="M227 349H308.68"></path>
<path stroke-linecap="round" stroke-width="16" stroke="#063062" d="M338.383 349H351.996"></path>
<path stroke-linecap="round" stroke-width="16" stroke="#063062" d="M301.254 381H382.933"></path>
<path stroke-linecap="round" stroke-width="16" stroke="#063062" d="M257.938 381H271.551"></path>
<path stroke-linecap="round" stroke-width="16" stroke="#063062" d="M412.633 381H426.246"></path>
</svg>
