<svg xmlns="http://www.w3.org/2000/svg" xmlns:xlink="http://www.w3.org/1999/xlink" width="2160" zoomAndPan="magnify" viewBox="0 0 1620 1619.99993" height="2160" preserveAspectRatio="xMidYMid meet" version="1.0"><path fill="#85ff00" d="M 1165.1875 722.332031 C 1149.921875 552.066406 1009.710938 414.792969 839.011719 403.011719 C 822.265625 401.847656 805.863281 401.847656 789.058594 403.011719 C 618.359375 414.792969 478.132812 552.066406 462.882812 722.332031 C 453.035156 832.390625 493.640625 938.417969 574.269531 1013.242188 C 617.582031 1053.417969 642.421875 1109.734375 642.421875 1167.769531 L 642.421875 1304.8125 C 642.421875 1348.933594 675.628906 1385.453125 718.355469 1390.679688 C 731.558594 1426.277344 768.207031 1458 814.027344 1458 C 859.847656 1458 896.511719 1426.277344 909.703125 1390.664062 C 952.441406 1385.4375 985.632812 1348.917969 985.632812 1304.796875 L 985.632812 1167.753906 C 985.632812 1109.734375 1010.488281 1053.417969 1053.789062 1013.226562 C 1134.441406 938.417969 1175.050781 832.390625 1165.1875 722.332031 Z M 928.03125 1189.367188 L 928.03125 1211.082031 L 700.023438 1211.082031 L 700.023438 1189.367188 Z M 747.515625 828.171875 L 719.289062 828.171875 C 703.738281 828.171875 691.082031 815.515625 691.082031 799.964844 C 691.082031 784.410156 703.738281 771.753906 719.289062 771.753906 C 734.855469 771.753906 747.515625 784.410156 747.515625 799.964844 Z M 790.714844 871.371094 L 837.34375 871.371094 L 837.34375 1146.167969 L 790.714844 1146.167969 Z M 700.023438 1276 L 700.023438 1254.28125 L 928.03125 1254.28125 L 928.03125 1276 Z M 814.027344 1400.398438 C 797.484375 1400.398438 783.269531 1389.425781 775.953125 1377.71875 L 852.085938 1377.71875 C 844.800781 1389.425781 830.574219 1400.398438 814.027344 1400.398438 Z M 899.148438 1333.714844 L 886.199219 1333.714844 C 883.953125 1333.714844 881.78125 1334.03125 879.679688 1334.519531 L 748.421875 1334.519531 C 746.320312 1334.03125 744.144531 1333.714844 741.898438 1333.714844 L 728.925781 1333.714844 C 718.253906 1333.714844 709.023438 1327.839844 704.011719 1319.199219 L 924.042969 1319.199219 C 919.046875 1327.824219 909.816406 1333.714844 899.148438 1333.714844 Z M 1014.621094 971.007812 C 964.96875 1017.058594 934.6875 1079.972656 929.183594 1146.167969 L 880.554688 1146.167969 L 880.554688 871.371094 L 908.78125 871.371094 C 948.148438 871.371094 980.191406 839.332031 980.191406 799.964844 C 980.191406 760.59375 948.148438 728.554688 908.78125 728.554688 C 869.394531 728.554688 837.355469 760.59375 837.355469 799.964844 L 837.355469 828.171875 L 790.730469 828.171875 L 790.730469 799.964844 C 790.730469 760.578125 758.6875 728.554688 719.304688 728.554688 C 679.933594 728.554688 647.894531 760.59375 647.894531 799.964844 C 647.894531 839.332031 679.933594 871.371094 719.304688 871.371094 L 747.527344 871.371094 L 747.527344 1146.167969 L 698.898438 1146.167969 C 693.398438 1079.957031 663.117188 1017.058594 613.464844 971.007812 C 545.988281 908.410156 512.015625 819.632812 520.269531 727.460938 C 533.027344 585.101562 650.285156 470.332031 793.03125 460.46875 C 800.105469 459.980469 807.101562 459.835938 814.042969 459.835938 C 820.996094 459.835938 827.996094 459.980469 835.050781 460.46875 C 977.800781 470.332031 1095.074219 585.101562 1107.816406 727.472656 C 1116.066406 819.632812 1082.113281 908.410156 1014.621094 971.007812 Z M 880.554688 828.171875 L 880.554688 799.964844 C 880.554688 784.398438 893.214844 771.753906 908.78125 771.753906 C 924.332031 771.753906 936.988281 784.410156 936.988281 799.964844 C 936.988281 815.515625 924.332031 828.171875 908.78125 828.171875 Z M 880.554688 828.171875 " fill-opacity="1" fill-rule="nonzero"/><path fill="#85ff00" d="M 814.042969 307.714844 C 826.597656 307.714844 836.882812 297.433594 836.882812 284.875 L 836.882812 184.839844 C 836.867188 172.28125 826.597656 162 814.042969 162 C 801.484375 162 791.203125 172.28125 791.203125 184.839844 L 791.203125 284.890625 C 791.203125 297.433594 801.484375 307.714844 814.042969 307.714844 Z M 814.042969 307.714844 " fill-opacity="1" fill-rule="nonzero"/><path fill="#85ff00" d="M 1164.265625 277.949219 C 1154.113281 270.5625 1139.757812 272.835938 1132.371094 283.003906 L 1073.558594 363.945312 C 1066.1875 374.113281 1068.449219 388.453125 1078.613281 395.839844 C 1088.78125 403.230469 1103.121094 400.953125 1110.511719 390.789062 L 1169.320312 309.84375 C 1176.691406 299.691406 1174.429688 285.335938 1164.265625 277.949219 Z M 1164.265625 277.949219 " fill-opacity="1" fill-rule="nonzero"/><path fill="#85ff00" d="M 1269.644531 637.316406 L 1364.800781 606.398438 C 1376.738281 602.511719 1383.332031 589.566406 1379.457031 577.628906 C 1375.570312 565.691406 1362.625 559.09375 1350.6875 562.96875 L 1255.53125 593.882812 C 1243.59375 597.757812 1237 610.71875 1240.875 622.65625 C 1244.746094 634.59375 1257.691406 641.1875 1269.644531 637.316406 Z M 1269.644531 637.316406 " fill-opacity="1" fill-rule="nonzero"/><path fill="#85ff00" d="M 1362.742188 917.769531 L 1267.585938 886.851562 C 1255.648438 882.980469 1242.6875 889.574219 1238.8125 901.511719 C 1234.925781 913.449219 1241.519531 926.394531 1253.472656 930.285156 L 1348.628906 961.199219 C 1360.566406 965.074219 1373.511719 958.476562 1377.398438 946.539062 C 1381.273438 934.601562 1374.679688 921.65625 1362.742188 917.769531 Z M 1362.742188 917.769531 " fill-opacity="1" fill-rule="nonzero"/><path fill="#85ff00" d="M 1105.136719 1130.960938 C 1097.75 1120.808594 1083.410156 1118.535156 1073.242188 1125.90625 C 1063.089844 1133.292969 1060.816406 1147.636719 1068.1875 1157.804688 L 1126.996094 1238.746094 C 1134.371094 1248.898438 1148.726562 1251.171875 1158.894531 1243.800781 C 1169.046875 1236.414062 1171.320312 1222.070312 1163.949219 1211.902344 Z M 1105.136719 1130.960938 " fill-opacity="1" fill-rule="nonzero"/><path fill="#85ff00" d="M 542.820312 1122.003906 C 532.652344 1114.617188 518.308594 1116.894531 510.921875 1127.058594 L 452.113281 1208 C 444.726562 1218.167969 447 1232.511719 457.167969 1239.898438 C 467.332031 1247.285156 481.675781 1245.007812 489.0625 1234.84375 L 547.875 1153.902344 C 555.246094 1143.734375 552.96875 1129.390625 542.820312 1122.003906 Z M 542.820312 1122.003906 " fill-opacity="1" fill-rule="nonzero"/><path fill="#85ff00" d="M 380.558594 895.191406 C 376.6875 883.253906 363.726562 876.644531 351.789062 880.53125 L 256.632812 911.449219 C 244.695312 915.320312 238.085938 928.28125 241.972656 940.21875 C 245.863281 952.15625 258.808594 958.75 270.746094 954.878906 L 365.898438 923.960938 C 377.851562 920.089844 384.449219 907.140625 380.558594 895.191406 Z M 380.558594 895.191406 " fill-opacity="1" fill-rule="nonzero"/><path fill="#85ff00" d="M 367.960938 587.5625 L 272.804688 556.644531 C 260.867188 552.773438 247.921875 559.367188 244.03125 571.304688 C 240.144531 583.242188 246.753906 596.1875 258.691406 600.078125 L 353.847656 630.992188 C 365.785156 634.867188 378.746094 628.273438 382.617188 616.335938 C 386.492188 604.382812 379.898438 591.4375 367.960938 587.5625 Z M 367.960938 587.5625 " fill-opacity="1" fill-rule="nonzero"/><path fill="#85ff00" d="M 516.292969 386.886719 C 523.679688 397.035156 538.023438 399.3125 548.191406 391.9375 C 558.355469 384.550781 560.617188 370.210938 553.246094 360.042969 L 494.433594 279.101562 C 487.046875 268.933594 472.707031 266.671875 462.539062 274.046875 C 452.371094 281.433594 450.113281 295.777344 457.484375 305.941406 Z M 516.292969 386.886719 " fill-opacity="1" fill-rule="nonzero"/></svg>