<?xml version="1.0" standalone="no"?>
<!DOCTYPE svg PUBLIC "-//W3C//DTD SVG 1.1//EN" "http://www.w3.org/Graphics/SVG/1.1/DTD/svg11.dtd">
<svg xmlns="http://www.w3.org/2000/svg" xmlns:xlink="http://www.w3.org/1999/xlink" width="100%" height="100%" style="fill-rule:evenodd;clip-rule:evenodd;stroke-linecap:round;stroke-linejoin:round;stroke-miterlimit:1.41421;" version="1.1" viewBox="0 0 540 110" xml:space="preserve">
    <g transform="matrix(1,0,0,1,-310,-530)">
        <g transform="matrix(1,0,0,1,98.7861,351.154)">
            <g transform="matrix(0.359156,0,0,0.359156,323.226,98.4241)">
                <path d="M299.69,307.559L238.377,307.559L238.377,524.02L299.69,524.02L299.69,453.899C312.563,467.787 321.709,475.579 346.777,475.579C380.99,475.579 411.139,450.172 411.139,388.52C411.139,329.916 390.475,304.849 350.164,304.849C331.194,304.849 315.95,311.624 299.69,326.19L299.69,307.559ZM299.69,371.921C307.82,361.42 316.289,356 327.468,356C342.373,356 350.503,365.485 350.503,388.181C350.503,413.926 341.695,425.105 326.113,425.105C313.579,425.105 306.465,420.024 299.69,410.2L299.69,371.921Z" style="fill:white;fill-rule:nonzero;"/>
            </g>
            <g transform="matrix(0.359156,0,0,0.359156,323.226,98.4241)">
                <path d="M734.984,426.121C727.193,426.46 721.095,426.46 713.982,426.46C698.738,426.46 695.012,419.346 695.012,407.151L695.012,358.371L733.629,358.371L733.629,307.897L695.012,307.897L695.012,272.667L633.698,272.667L633.698,307.897L611.34,307.897L611.34,358.371L633.698,358.371L633.698,409.861C633.698,456.947 650.635,475.24 690.269,475.24C708.562,475.24 729.564,470.159 741.082,463.045L734.984,426.121Z" style="fill:white;fill-rule:nonzero;"/>
            </g>
            <g transform="matrix(-0.359156,0,0,-0.359156,603.948,465.302)">
                <path d="M626.262,548.924L564.948,548.924L564.948,713.896L626.262,713.896L626.262,695.264C639.134,709.153 648.281,716.944 673.348,716.944C707.562,716.944 737.711,691.538 737.711,629.886C737.711,571.282 717.047,546.214 676.736,546.214C657.766,546.214 642.522,552.989 626.262,567.556L626.262,548.924ZM626.262,613.287C634.392,602.786 642.861,597.366 654.039,597.366C668.944,597.366 677.074,606.851 677.074,629.547C677.074,655.292 668.267,666.471 652.684,666.471C640.151,666.471 633.037,661.389 626.262,651.566L626.262,613.287Z" style="fill:white;fill-rule:nonzero;"/>
            </g>
            <g transform="matrix(0.359156,0,0,0.359156,323.226,98.4241)">
                <rect width="61.314" height="164.971" x="758.697" y="307.559" style="fill:white;"/>
            </g>
            <g transform="matrix(0.359156,0,0,0.359156,323.226,98.4241)">
                <path d="M490.407,307.559L429.093,307.559L429.093,524.02L490.407,524.02L490.407,453.899C503.279,467.787 512.425,475.579 537.493,475.579C571.707,475.579 601.855,450.172 601.855,388.52C601.855,329.916 581.192,304.849 540.88,304.849C521.91,304.849 506.667,311.624 490.407,326.19L490.407,307.559ZM490.407,371.921C498.537,361.42 507.005,356 518.184,356C533.089,356 541.219,365.485 541.219,388.181C541.219,413.926 532.412,425.105 516.829,425.105C504.295,425.105 497.182,420.024 490.407,410.2L490.407,371.921Z" style="fill:white;fill-rule:nonzero;"/>
            </g>
            <g transform="matrix(0.359156,0,0,0.359156,323.226,98.4241)">
                <path d="M963.64,472.53L1024.95,307.897L961.608,307.897L936.879,382.761C934.508,390.552 932.137,399.021 929.765,407.151C927.733,399.021 925.362,390.552 922.99,382.761L898.262,307.897L834.915,307.897L896.229,472.53L963.64,472.53Z" style="fill:white;fill-rule:nonzero;"/>
            </g>
            <g transform="matrix(-0.359156,0,0,-0.359156,954.512,465.302)">
                <path d="M626.262,548.924L564.948,548.924L564.948,713.896L626.262,713.896L626.262,695.264C639.134,709.153 648.281,716.944 673.348,716.944C707.562,716.944 737.711,691.538 737.711,629.886C737.711,571.282 717.047,546.214 676.736,546.214C657.766,546.214 642.522,552.989 626.262,567.556L626.262,548.924ZM626.262,613.287C634.392,602.786 642.861,597.366 654.039,597.366C668.944,597.366 677.074,606.851 677.074,629.547C677.074,655.292 668.267,666.471 652.684,666.471C640.151,666.471 633.037,661.389 626.262,651.566L626.262,613.287Z" style="fill:white;fill-rule:nonzero;"/>
            </g>
            <g>
                <g transform="matrix(0.253212,-4.49488e-18,-4.66579e-18,0.262289,176.37,94.9153)">
                    <path d="M493.371,439.058C493.371,409.714 468.695,385.891 438.3,385.891L214.444,385.891C184.049,385.891 159.372,409.714 159.372,439.058L159.372,655.544C159.372,684.887 184.049,708.71 214.444,708.71L438.3,708.71C468.695,708.71 493.371,684.887 493.371,655.544L493.371,439.058Z" style="fill:none;stroke-width:40.64px;stroke:rgb(128,215,65);"/>
                </g>
                <g transform="matrix(0.177465,0,0,0.177465,-11.6245,-874.907)">
                    <circle cx="1591.5" cy="6227.85" r="86.381" style="fill:white;"/>
                </g>
            </g>
            <g transform="matrix(0.359156,0,0,0.359156,-70.444,-1237.05)">
                <path d="M1850.73,3978.16C1850.73,3998.82 1867.33,4009.32 1885.28,4009.32C1903.24,4009.32 1919.83,3998.82 1919.83,3978.16C1919.83,3957.15 1903.24,3946.65 1885.28,3946.65C1867.33,3946.65 1850.73,3957.15 1850.73,3978.16Z" style="fill:rgb(128,215,65);"/>
            </g>
        </g>
    </g>
</svg>
