<svg xmlns="http://www.w3.org/2000/svg" xmlns:xlink="http://www.w3.org/1999/xlink" width="502" zoomAndPan="magnify" viewBox="0 0 376.5 376.499997" height="502" preserveAspectRatio="xMidYMid meet" version="1.0"><path fill="#85ff00" d="M 117.730469 33.289062 L 258.429688 33.289062 C 258.789062 33.289062 259.148438 33.324219 259.5 33.394531 C 259.855469 33.464844 260.199219 33.570312 260.53125 33.707031 C 260.863281 33.847656 261.179688 34.015625 261.480469 34.214844 C 261.78125 34.417969 262.058594 34.644531 262.3125 34.898438 C 262.566406 35.152344 262.792969 35.429688 262.996094 35.730469 C 263.195312 36.03125 263.363281 36.347656 263.503906 36.679688 C 263.640625 37.011719 263.746094 37.355469 263.816406 37.710938 C 263.886719 38.0625 263.921875 38.421875 263.921875 38.78125 L 263.921875 179.480469 C 263.921875 179.839844 263.886719 180.199219 263.816406 180.550781 C 263.746094 180.90625 263.640625 181.25 263.503906 181.582031 C 263.363281 181.914062 263.195312 182.230469 262.996094 182.53125 C 262.792969 182.832031 262.566406 183.109375 262.3125 183.363281 C 262.058594 183.617188 261.78125 183.847656 261.480469 184.046875 C 261.179688 184.246094 260.863281 184.414062 260.53125 184.554688 C 260.199219 184.691406 259.855469 184.796875 259.5 184.867188 C 259.148438 184.9375 258.789062 184.972656 258.429688 184.972656 L 117.730469 184.972656 C 117.371094 184.972656 117.011719 184.9375 116.660156 184.867188 C 116.304688 184.796875 115.960938 184.691406 115.628906 184.554688 C 115.296875 184.414062 114.980469 184.246094 114.679688 184.046875 C 114.378906 183.847656 114.101562 183.617188 113.847656 183.363281 C 113.59375 183.109375 113.367188 182.832031 113.164062 182.53125 C 112.964844 182.230469 112.796875 181.914062 112.65625 181.582031 C 112.519531 181.25 112.414062 180.90625 112.34375 180.550781 C 112.273438 180.199219 112.238281 179.839844 112.238281 179.480469 L 112.238281 38.78125 C 112.238281 38.421875 112.273438 38.0625 112.34375 37.710938 C 112.414062 37.355469 112.519531 37.011719 112.65625 36.679688 C 112.796875 36.347656 112.964844 36.03125 113.164062 35.730469 C 113.367188 35.429688 113.59375 35.152344 113.847656 34.898438 C 114.101562 34.644531 114.378906 34.417969 114.679688 34.214844 C 114.980469 34.015625 115.296875 33.847656 115.628906 33.707031 C 115.960938 33.570312 116.304688 33.464844 116.660156 33.394531 C 117.011719 33.324219 117.371094 33.289062 117.730469 33.289062 Z M 117.730469 33.289062 " fill-opacity="1" fill-rule="nonzero"/><path fill="#0b1c39" d="M 130.429688 45.988281 L 245.734375 45.988281 C 246.09375 45.988281 246.449219 46.023438 246.804688 46.09375 C 247.15625 46.164062 247.5 46.269531 247.832031 46.40625 C 248.167969 46.542969 248.484375 46.714844 248.78125 46.914062 C 249.082031 47.113281 249.359375 47.339844 249.613281 47.597656 C 249.871094 47.851562 250.097656 48.128906 250.296875 48.429688 C 250.5 48.726562 250.667969 49.042969 250.804688 49.378906 C 250.941406 49.710938 251.046875 50.054688 251.117188 50.40625 C 251.1875 50.761719 251.222656 51.117188 251.222656 51.480469 L 251.222656 166.785156 C 251.222656 167.144531 251.1875 167.5 251.117188 167.855469 C 251.046875 168.207031 250.941406 168.550781 250.804688 168.882812 C 250.667969 169.21875 250.5 169.535156 250.296875 169.835938 C 250.097656 170.132812 249.871094 170.410156 249.613281 170.667969 C 249.359375 170.921875 249.082031 171.148438 248.78125 171.347656 C 248.484375 171.550781 248.167969 171.71875 247.832031 171.855469 C 247.5 171.996094 247.15625 172.097656 246.804688 172.167969 C 246.449219 172.238281 246.09375 172.273438 245.734375 172.273438 L 130.429688 172.273438 C 130.066406 172.273438 129.710938 172.238281 129.355469 172.167969 C 129.003906 172.097656 128.660156 171.996094 128.328125 171.855469 C 127.992188 171.71875 127.675781 171.550781 127.378906 171.347656 C 127.078125 171.148438 126.800781 170.921875 126.546875 170.667969 C 126.289062 170.410156 126.0625 170.132812 125.863281 169.835938 C 125.664062 169.535156 125.492188 169.21875 125.355469 168.882812 C 125.21875 168.550781 125.113281 168.207031 125.042969 167.855469 C 124.972656 167.5 124.9375 167.144531 124.9375 166.785156 L 124.9375 51.480469 C 124.9375 51.117188 124.972656 50.761719 125.042969 50.40625 C 125.113281 50.054688 125.21875 49.710938 125.355469 49.378906 C 125.492188 49.042969 125.664062 48.726562 125.863281 48.429688 C 126.0625 48.128906 126.289062 47.851562 126.546875 47.597656 C 126.800781 47.339844 127.078125 47.113281 127.378906 46.914062 C 127.675781 46.714844 127.992188 46.542969 128.328125 46.40625 C 128.660156 46.269531 129.003906 46.164062 129.355469 46.09375 C 129.710938 46.023438 130.066406 45.988281 130.429688 45.988281 Z M 130.429688 45.988281 " fill-opacity="1" fill-rule="nonzero"/><path fill="#85ff00" d="M 170.535156 98.320312 C 172.453125 98.320312 174.054688 96.742188 173.578125 94.882812 C 173.414062 94.242188 173.207031 93.617188 172.953125 93.003906 C 172.253906 91.316406 171.230469 89.785156 169.941406 88.492188 C 168.648438 87.203125 167.117188 86.179688 165.429688 85.480469 C 163.746094 84.78125 161.9375 84.421875 160.113281 84.421875 C 158.285156 84.421875 156.480469 84.78125 154.792969 85.480469 C 153.105469 86.179688 151.574219 87.203125 150.285156 88.492188 C 148.992188 89.785156 147.96875 91.316406 147.273438 93.003906 C 147.019531 93.617188 146.808594 94.242188 146.644531 94.882812 C 146.171875 96.742188 147.769531 98.320312 149.6875 98.320312 L 150.433594 98.320312 C 151.941406 98.320312 153.113281 97.054688 153.691406 95.664062 C 154.039062 94.820312 154.554688 94.054688 155.199219 93.40625 C 155.84375 92.761719 156.609375 92.25 157.453125 91.902344 C 158.296875 91.550781 159.199219 91.371094 160.113281 91.371094 C 161.023438 91.371094 161.929688 91.550781 162.769531 91.902344 C 163.613281 92.25 164.378906 92.761719 165.027344 93.40625 C 165.671875 94.054688 166.183594 94.820312 166.53125 95.664062 C 167.109375 97.054688 168.28125 98.320312 169.789062 98.320312 Z M 170.535156 98.320312 " fill-opacity="1" fill-rule="nonzero"/><path fill="#85ff00" d="M 226.472656 98.320312 C 228.390625 98.320312 229.988281 96.742188 229.515625 94.882812 C 229.351562 94.242188 229.144531 93.617188 228.890625 93.003906 C 228.191406 91.316406 227.167969 89.785156 225.875 88.492188 C 224.585938 87.203125 223.054688 86.179688 221.367188 85.480469 C 219.679688 84.78125 217.875 84.421875 216.046875 84.421875 C 214.222656 84.421875 212.417969 84.78125 210.730469 85.480469 C 209.042969 86.179688 207.511719 87.203125 206.222656 88.492188 C 204.929688 89.785156 203.90625 91.316406 203.207031 93.003906 C 202.953125 93.617188 202.746094 94.242188 202.582031 94.882812 C 202.109375 96.742188 203.707031 98.320312 205.625 98.320312 L 206.371094 98.320312 C 207.878906 98.320312 209.050781 97.054688 209.628906 95.664062 C 209.976562 94.820312 210.488281 94.054688 211.136719 93.40625 C 211.78125 92.761719 212.546875 92.25 213.390625 91.902344 C 214.234375 91.550781 215.136719 91.371094 216.046875 91.371094 C 216.960938 91.371094 217.863281 91.550781 218.707031 91.902344 C 219.550781 92.25 220.316406 92.761719 220.960938 93.40625 C 221.609375 94.054688 222.121094 94.820312 222.46875 95.664062 C 223.046875 97.054688 224.21875 98.320312 225.726562 98.320312 Z M 226.472656 98.320312 " fill-opacity="1" fill-rule="nonzero"/><path fill="#85ff00" d="M 200.433594 130.578125 C 201.949219 130.578125 203.207031 131.820312 202.910156 133.308594 C 202.730469 134.191406 202.46875 135.058594 202.121094 135.898438 C 201.421875 137.585938 200.398438 139.117188 199.109375 140.40625 C 197.820312 141.699219 196.285156 142.722656 194.601562 143.417969 C 192.914062 144.117188 191.105469 144.476562 189.28125 144.476562 C 187.457031 144.476562 185.648438 144.117188 183.960938 143.417969 C 182.277344 142.722656 180.746094 141.699219 179.453125 140.40625 C 178.164062 139.117188 177.140625 137.585938 176.441406 135.898438 C 176.09375 135.058594 175.832031 134.191406 175.652344 133.308594 C 175.355469 131.820312 176.613281 130.578125 178.128906 130.578125 Z M 200.433594 130.578125 " fill-opacity="1" fill-rule="nonzero"/><path fill="#85ff00" d="M 31.675781 198.296875 L 172.375 198.296875 C 172.734375 198.296875 173.089844 198.332031 173.445312 198.402344 C 173.800781 198.472656 174.140625 198.574219 174.476562 198.714844 C 174.808594 198.851562 175.125 199.019531 175.425781 199.222656 C 175.722656 199.421875 176 199.648438 176.257812 199.902344 C 176.511719 200.160156 176.738281 200.4375 176.9375 200.734375 C 177.140625 201.035156 177.308594 201.351562 177.445312 201.683594 C 177.585938 202.019531 177.6875 202.363281 177.757812 202.714844 C 177.828125 203.070312 177.863281 203.425781 177.863281 203.785156 L 177.863281 344.484375 C 177.863281 344.847656 177.828125 345.203125 177.757812 345.554688 C 177.6875 345.910156 177.585938 346.253906 177.445312 346.585938 C 177.308594 346.917969 177.140625 347.234375 176.9375 347.535156 C 176.738281 347.835938 176.511719 348.113281 176.257812 348.367188 C 176 348.621094 175.722656 348.851562 175.425781 349.050781 C 175.125 349.25 174.808594 349.421875 174.476562 349.558594 C 174.140625 349.695312 173.800781 349.800781 173.445312 349.871094 C 173.089844 349.941406 172.734375 349.976562 172.375 349.976562 L 31.675781 349.976562 C 31.3125 349.976562 30.957031 349.941406 30.605469 349.871094 C 30.25 349.800781 29.90625 349.695312 29.574219 349.558594 C 29.242188 349.421875 28.925781 349.25 28.625 349.050781 C 28.324219 348.851562 28.046875 348.621094 27.792969 348.367188 C 27.539062 348.113281 27.308594 347.835938 27.109375 347.535156 C 26.910156 347.234375 26.738281 346.917969 26.601562 346.585938 C 26.464844 346.253906 26.359375 345.910156 26.289062 345.554688 C 26.21875 345.203125 26.183594 344.847656 26.183594 344.484375 L 26.183594 203.785156 C 26.183594 203.425781 26.21875 203.070312 26.289062 202.714844 C 26.359375 202.363281 26.464844 202.019531 26.601562 201.683594 C 26.738281 201.351562 26.910156 201.035156 27.109375 200.734375 C 27.308594 200.4375 27.539062 200.160156 27.792969 199.902344 C 28.046875 199.648438 28.324219 199.421875 28.625 199.222656 C 28.925781 199.019531 29.242188 198.851562 29.574219 198.714844 C 29.90625 198.574219 30.25 198.472656 30.605469 198.402344 C 30.957031 198.332031 31.3125 198.296875 31.675781 198.296875 Z M 31.675781 198.296875 " fill-opacity="1" fill-rule="nonzero"/><path fill="#0b1c39" d="M 44.371094 210.992188 L 159.675781 210.992188 C 160.039062 210.992188 160.394531 211.027344 160.746094 211.097656 C 161.101562 211.167969 161.445312 211.273438 161.777344 211.410156 C 162.109375 211.546875 162.425781 211.71875 162.726562 211.917969 C 163.027344 212.117188 163.304688 212.347656 163.558594 212.601562 C 163.8125 212.855469 164.042969 213.132812 164.242188 213.433594 C 164.441406 213.734375 164.613281 214.050781 164.75 214.382812 C 164.886719 214.714844 164.992188 215.058594 165.0625 215.414062 C 165.132812 215.765625 165.167969 216.121094 165.167969 216.484375 L 165.167969 331.789062 C 165.167969 332.148438 165.132812 332.503906 165.0625 332.859375 C 164.992188 333.210938 164.886719 333.554688 164.75 333.890625 C 164.613281 334.222656 164.441406 334.539062 164.242188 334.839844 C 164.042969 335.136719 163.8125 335.414062 163.558594 335.671875 C 163.304688 335.925781 163.027344 336.152344 162.726562 336.351562 C 162.425781 336.554688 162.109375 336.722656 161.777344 336.859375 C 161.445312 337 161.101562 337.101562 160.746094 337.171875 C 160.394531 337.242188 160.039062 337.277344 159.675781 337.277344 L 44.371094 337.277344 C 44.011719 337.277344 43.65625 337.242188 43.300781 337.171875 C 42.949219 337.101562 42.605469 337 42.269531 336.859375 C 41.9375 336.722656 41.621094 336.554688 41.320312 336.351562 C 41.023438 336.152344 40.746094 335.925781 40.488281 335.671875 C 40.234375 335.414062 40.007812 335.136719 39.808594 334.839844 C 39.605469 334.539062 39.4375 334.222656 39.300781 333.890625 C 39.160156 333.554688 39.058594 333.210938 38.988281 332.859375 C 38.917969 332.503906 38.882812 332.148438 38.882812 331.789062 L 38.882812 216.484375 C 38.882812 216.121094 38.917969 215.765625 38.988281 215.414062 C 39.058594 215.058594 39.160156 214.714844 39.300781 214.382812 C 39.4375 214.050781 39.605469 213.734375 39.808594 213.433594 C 40.007812 213.132812 40.234375 212.855469 40.488281 212.601562 C 40.746094 212.347656 41.023438 212.117188 41.320312 211.917969 C 41.621094 211.71875 41.9375 211.546875 42.269531 211.410156 C 42.605469 211.273438 42.949219 211.167969 43.300781 211.097656 C 43.65625 211.027344 44.011719 210.992188 44.371094 210.992188 Z M 44.371094 210.992188 " fill-opacity="1" fill-rule="nonzero"/><path fill="#85ff00" d="M 84.480469 263.324219 C 86.398438 263.324219 87.996094 261.746094 87.523438 259.886719 C 87.359375 259.25 87.148438 258.621094 86.898438 258.007812 C 86.199219 256.320312 85.175781 254.789062 83.882812 253.5 C 82.59375 252.207031 81.0625 251.183594 79.375 250.484375 C 77.6875 249.789062 75.882812 249.425781 74.054688 249.425781 C 72.230469 249.425781 70.425781 249.789062 68.738281 250.484375 C 67.050781 251.183594 65.519531 252.207031 64.230469 253.5 C 62.9375 254.789062 61.914062 256.320312 61.214844 258.007812 C 60.960938 258.621094 60.753906 259.25 60.589844 259.886719 C 60.117188 261.746094 61.714844 263.324219 63.632812 263.324219 L 64.378906 263.324219 C 65.886719 263.324219 67.058594 262.058594 67.636719 260.667969 C 67.984375 259.824219 68.496094 259.058594 69.140625 258.414062 C 69.789062 257.765625 70.554688 257.253906 71.398438 256.90625 C 72.242188 256.558594 73.144531 256.375 74.054688 256.375 C 74.96875 256.375 75.871094 256.558594 76.714844 256.90625 C 77.558594 257.253906 78.324219 257.765625 78.96875 258.414062 C 79.617188 259.058594 80.128906 259.824219 80.476562 260.667969 C 81.054688 262.058594 82.226562 263.324219 83.734375 263.324219 Z M 84.480469 263.324219 " fill-opacity="1" fill-rule="nonzero"/><path fill="#85ff00" d="M 140.417969 263.324219 C 142.335938 263.324219 143.933594 261.746094 143.460938 259.886719 C 143.296875 259.25 143.085938 258.621094 142.832031 258.007812 C 142.136719 256.320312 141.113281 254.789062 139.820312 253.5 C 138.53125 252.207031 136.996094 251.183594 135.3125 250.484375 C 133.625 249.789062 131.816406 249.425781 129.992188 249.425781 C 128.167969 249.425781 126.359375 249.789062 124.675781 250.484375 C 122.988281 251.183594 121.457031 252.207031 120.164062 253.5 C 118.875 254.789062 117.851562 256.320312 117.152344 258.007812 C 116.898438 258.621094 116.691406 259.25 116.527344 259.886719 C 116.050781 261.746094 117.648438 263.324219 119.570312 263.324219 L 120.316406 263.324219 C 121.820312 263.324219 122.996094 262.058594 123.574219 260.667969 C 123.921875 259.824219 124.433594 259.058594 125.078125 258.414062 C 125.722656 257.765625 126.492188 257.253906 127.332031 256.90625 C 128.175781 256.558594 129.082031 256.375 129.992188 256.375 C 130.90625 256.375 131.808594 256.558594 132.652344 256.90625 C 133.496094 257.253906 134.261719 257.765625 134.90625 258.414062 C 135.550781 259.058594 136.0625 259.824219 136.414062 260.667969 C 136.988281 262.058594 138.164062 263.324219 139.671875 263.324219 Z M 140.417969 263.324219 " fill-opacity="1" fill-rule="nonzero"/><path fill="#85ff00" d="M 114.378906 295.585938 C 115.894531 295.585938 117.152344 296.824219 116.855469 298.3125 C 116.675781 299.195312 116.414062 300.066406 116.066406 300.902344 C 115.367188 302.589844 114.34375 304.121094 113.054688 305.410156 C 111.761719 306.703125 110.230469 307.726562 108.542969 308.425781 C 106.859375 309.121094 105.050781 309.484375 103.226562 309.484375 C 101.402344 309.484375 99.59375 309.121094 97.90625 308.425781 C 96.222656 307.726562 94.6875 306.703125 93.398438 305.410156 C 92.105469 304.121094 91.082031 302.589844 90.386719 300.902344 C 90.039062 300.066406 89.773438 299.195312 89.597656 298.3125 C 89.300781 296.824219 90.554688 295.585938 92.074219 295.585938 Z M 114.378906 295.585938 " fill-opacity="1" fill-rule="nonzero"/><path fill="#85ff00" d="M 203.785156 198.296875 L 344.484375 198.296875 C 344.847656 198.296875 345.203125 198.332031 345.554688 198.402344 C 345.910156 198.472656 346.253906 198.574219 346.585938 198.714844 C 346.917969 198.851562 347.234375 199.019531 347.535156 199.222656 C 347.835938 199.421875 348.113281 199.648438 348.367188 199.902344 C 348.621094 200.160156 348.851562 200.4375 349.050781 200.734375 C 349.25 201.035156 349.421875 201.351562 349.558594 201.683594 C 349.695312 202.019531 349.800781 202.363281 349.871094 202.714844 C 349.941406 203.070312 349.976562 203.425781 349.976562 203.785156 L 349.976562 344.484375 C 349.976562 344.847656 349.941406 345.203125 349.871094 345.554688 C 349.800781 345.910156 349.695312 346.253906 349.558594 346.585938 C 349.421875 346.917969 349.25 347.234375 349.050781 347.535156 C 348.851562 347.835938 348.621094 348.113281 348.367188 348.367188 C 348.113281 348.621094 347.835938 348.851562 347.535156 349.050781 C 347.234375 349.25 346.917969 349.421875 346.585938 349.558594 C 346.253906 349.695312 345.910156 349.800781 345.554688 349.871094 C 345.203125 349.941406 344.847656 349.976562 344.484375 349.976562 L 203.785156 349.976562 C 203.425781 349.976562 203.070312 349.941406 202.714844 349.871094 C 202.363281 349.800781 202.019531 349.695312 201.683594 349.558594 C 201.351562 349.421875 201.035156 349.25 200.734375 349.050781 C 200.4375 348.851562 200.160156 348.621094 199.902344 348.367188 C 199.648438 348.113281 199.421875 347.835938 199.222656 347.535156 C 199.019531 347.234375 198.851562 346.917969 198.714844 346.585938 C 198.574219 346.253906 198.472656 345.910156 198.402344 345.554688 C 198.332031 345.203125 198.296875 344.847656 198.296875 344.484375 L 198.296875 203.785156 C 198.296875 203.425781 198.332031 203.070312 198.402344 202.714844 C 198.472656 202.363281 198.574219 202.019531 198.714844 201.683594 C 198.851562 201.351562 199.019531 201.035156 199.222656 200.734375 C 199.421875 200.4375 199.648438 200.160156 199.902344 199.902344 C 200.160156 199.648438 200.4375 199.421875 200.734375 199.222656 C 201.035156 199.019531 201.351562 198.851562 201.683594 198.714844 C 202.019531 198.574219 202.363281 198.472656 202.714844 198.402344 C 203.070312 198.332031 203.425781 198.296875 203.785156 198.296875 Z M 203.785156 198.296875 " fill-opacity="1" fill-rule="nonzero"/><path fill="#0b1c39" d="M 216.484375 210.992188 L 331.789062 210.992188 C 332.148438 210.992188 332.503906 211.027344 332.859375 211.097656 C 333.210938 211.167969 333.554688 211.273438 333.890625 211.410156 C 334.222656 211.546875 334.539062 211.71875 334.839844 211.917969 C 335.136719 212.117188 335.414062 212.347656 335.671875 212.601562 C 335.925781 212.855469 336.152344 213.132812 336.351562 213.433594 C 336.554688 213.734375 336.722656 214.050781 336.859375 214.382812 C 337 214.714844 337.101562 215.058594 337.171875 215.414062 C 337.242188 215.765625 337.277344 216.121094 337.277344 216.484375 L 337.277344 331.789062 C 337.277344 332.148438 337.242188 332.503906 337.171875 332.859375 C 337.101562 333.210938 337 333.554688 336.859375 333.890625 C 336.722656 334.222656 336.554688 334.539062 336.351562 334.839844 C 336.152344 335.136719 335.925781 335.414062 335.671875 335.671875 C 335.414062 335.925781 335.136719 336.152344 334.839844 336.351562 C 334.539062 336.554688 334.222656 336.722656 333.890625 336.859375 C 333.554688 337 333.210938 337.101562 332.859375 337.171875 C 332.503906 337.242188 332.148438 337.277344 331.789062 337.277344 L 216.484375 337.277344 C 216.121094 337.277344 215.765625 337.242188 215.414062 337.171875 C 215.058594 337.101562 214.714844 337 214.382812 336.859375 C 214.050781 336.722656 213.734375 336.554688 213.433594 336.351562 C 213.132812 336.152344 212.855469 335.925781 212.601562 335.671875 C 212.347656 335.414062 212.117188 335.136719 211.917969 334.839844 C 211.71875 334.539062 211.546875 334.222656 211.410156 333.890625 C 211.273438 333.554688 211.167969 333.210938 211.097656 332.859375 C 211.027344 332.503906 210.992188 332.148438 210.992188 331.789062 L 210.992188 216.484375 C 210.992188 216.121094 211.027344 215.765625 211.097656 215.414062 C 211.167969 215.058594 211.273438 214.714844 211.410156 214.382812 C 211.546875 214.050781 211.71875 213.734375 211.917969 213.433594 C 212.117188 213.132812 212.347656 212.855469 212.601562 212.601562 C 212.855469 212.347656 213.132812 212.117188 213.433594 211.917969 C 213.734375 211.71875 214.050781 211.546875 214.382812 211.410156 C 214.714844 211.273438 215.058594 211.167969 215.414062 211.097656 C 215.765625 211.027344 216.121094 210.992188 216.484375 210.992188 Z M 216.484375 210.992188 " fill-opacity="1" fill-rule="nonzero"/><path fill="#85ff00" d="M 256.589844 263.324219 C 258.511719 263.324219 260.109375 261.746094 259.632812 259.886719 C 259.46875 259.25 259.261719 258.621094 259.007812 258.007812 C 258.308594 256.320312 257.285156 254.789062 255.996094 253.5 C 254.703125 252.207031 253.171875 251.183594 251.488281 250.484375 C 249.800781 249.789062 247.992188 249.425781 246.167969 249.425781 C 244.34375 249.425781 242.535156 249.789062 240.847656 250.484375 C 239.164062 251.183594 237.628906 252.207031 236.339844 253.5 C 235.050781 254.789062 234.027344 256.320312 233.328125 258.007812 C 233.074219 258.621094 232.863281 259.25 232.703125 259.886719 C 232.226562 261.746094 233.824219 263.324219 235.742188 263.324219 L 236.488281 263.324219 C 237.996094 263.324219 239.171875 262.058594 239.746094 260.667969 C 240.097656 259.824219 240.609375 259.058594 241.253906 258.414062 C 241.898438 257.765625 242.664062 257.253906 243.507812 256.90625 C 244.351562 256.558594 245.253906 256.375 246.167969 256.375 C 247.082031 256.375 247.984375 256.558594 248.828125 256.90625 C 249.671875 257.253906 250.4375 257.765625 251.082031 258.414062 C 251.726562 259.058594 252.238281 259.824219 252.589844 260.667969 C 253.164062 262.058594 254.339844 263.324219 255.84375 263.324219 Z M 256.589844 263.324219 " fill-opacity="1" fill-rule="nonzero"/><path fill="#85ff00" d="M 312.527344 263.324219 C 314.445312 263.324219 316.046875 261.746094 315.570312 259.886719 C 315.40625 259.25 315.199219 258.621094 314.945312 258.007812 C 314.246094 256.320312 313.222656 254.789062 311.933594 253.5 C 310.640625 252.207031 309.109375 251.183594 307.421875 250.484375 C 305.738281 249.789062 303.929688 249.425781 302.105469 249.425781 C 300.277344 249.425781 298.472656 249.789062 296.785156 250.484375 C 295.097656 251.183594 293.566406 252.207031 292.277344 253.5 C 290.984375 254.789062 289.960938 256.320312 289.265625 258.007812 C 289.011719 258.621094 288.800781 259.25 288.636719 259.886719 C 288.164062 261.746094 289.761719 263.324219 291.679688 263.324219 L 292.425781 263.324219 C 293.933594 263.324219 295.105469 262.058594 295.683594 260.667969 C 296.035156 259.824219 296.546875 259.058594 297.191406 258.414062 C 297.835938 257.765625 298.601562 257.253906 299.445312 256.90625 C 300.289062 256.558594 301.191406 256.375 302.105469 256.375 C 303.015625 256.375 303.921875 256.558594 304.761719 256.90625 C 305.605469 257.253906 306.371094 257.765625 307.019531 258.414062 C 307.664062 259.058594 308.175781 259.824219 308.523438 260.667969 C 309.101562 262.058594 310.273438 263.324219 311.78125 263.324219 Z M 312.527344 263.324219 " fill-opacity="1" fill-rule="nonzero"/><path fill="#85ff00" d="M 286.488281 295.585938 C 288.007812 295.585938 289.261719 296.824219 288.964844 298.3125 C 288.789062 299.195312 288.523438 300.066406 288.175781 300.902344 C 287.480469 302.589844 286.457031 304.121094 285.164062 305.410156 C 283.875 306.703125 282.34375 307.726562 280.65625 308.425781 C 278.96875 309.121094 277.164062 309.484375 275.335938 309.484375 C 273.511719 309.484375 271.703125 309.121094 270.019531 308.425781 C 268.332031 307.726562 266.800781 306.703125 265.507812 305.410156 C 264.21875 304.121094 263.195312 302.589844 262.496094 300.902344 C 262.148438 300.066406 261.886719 299.195312 261.710938 298.3125 C 261.410156 296.824219 262.667969 295.585938 264.183594 295.585938 Z M 286.488281 295.585938 " fill-opacity="1" fill-rule="nonzero"/></svg>