<svg xmlns="http://www.w3.org/2000/svg" fill="none" viewBox="0 0 32 32" height="32" width="32">
<path fill="#063062" d="M23.3338 18.3288L19.3338 16.3288C19.2156 16.27 19.0841 16.2434 18.9524 16.2518C18.8207 16.2601 18.6936 16.3031 18.5838 16.3762L16.6238 17.6825C15.6315 17.1745 14.8242 16.3673 14.3163 15.375L15.6238 13.4163C15.697 13.3065 15.7399 13.1793 15.7482 13.0476C15.7566 12.9159 15.73 12.7844 15.6713 12.6663L13.6713 8.66625C13.6091 8.54111 13.5132 8.43582 13.3943 8.36228C13.2755 8.28873 13.1385 8.24984 12.9988 8.25C11.739 8.25 10.5308 8.75045 9.64001 9.64124C8.74922 10.532 8.24877 11.7402 8.24877 13C8.25208 15.8501 9.38573 18.5824 11.401 20.5977C13.4163 22.613 16.1487 23.7467 18.9988 23.75C20.2585 23.75 21.4667 23.2496 22.3575 22.3588C23.2483 21.468 23.7488 20.2598 23.7488 19C23.7488 18.8606 23.71 18.7239 23.6367 18.6054C23.5634 18.4868 23.4585 18.391 23.3338 18.3288ZM18.9988 22.25C16.5464 22.247 14.1954 21.2715 12.4613 19.5374C10.7273 17.8034 9.75175 15.4523 9.74877 13C9.74884 12.2156 10.0326 11.4577 10.5477 10.8662C11.0627 10.2746 11.7744 9.88925 12.5513 9.78125L14.1338 12.9462L12.835 14.8938C12.7668 14.9965 12.7249 15.1144 12.7131 15.2372C12.7014 15.3599 12.72 15.4837 12.7675 15.5975C13.4572 17.2372 14.7616 18.5416 16.4013 19.2313C16.5151 19.2787 16.6388 19.2974 16.7616 19.2856C16.8844 19.2738 17.0023 19.232 17.105 19.1637L19.0525 17.865L22.2175 19.4475C22.1095 20.2244 21.7242 20.936 21.1326 21.4511C20.541 21.9662 19.7832 22.2499 18.9988 22.25ZM15.9988 3.25C13.7885 3.24954 11.6161 3.82366 9.69463 4.91604C7.77318 6.00843 6.16871 7.58155 5.03863 9.48107C3.90854 11.3806 3.29167 13.5413 3.24852 15.7511C3.20538 17.961 3.73744 20.1441 4.79252 22.0863L3.34002 26.445C3.23719 26.7533 3.22227 27.0842 3.29692 27.4006C3.37158 27.7169 3.53287 28.0062 3.7627 28.2361C3.99254 28.4659 4.28184 28.6272 4.59819 28.7018C4.91454 28.7765 5.24543 28.7616 5.55377 28.6588L9.91252 27.2062C11.6187 28.1322 13.5139 28.6563 15.4534 28.7385C17.3929 28.8208 19.3257 28.4591 21.1042 27.681C22.8827 26.903 24.4601 25.729 25.716 24.2488C26.9719 22.7685 27.8733 21.021 28.3513 19.1395C28.8293 17.258 28.8713 15.2922 28.4742 13.3919C28.0772 11.4917 27.2514 9.70725 26.0599 8.17462C24.8685 6.64199 23.3427 5.40167 21.5991 4.54822C19.8555 3.69478 17.94 3.25075 15.9988 3.25ZM15.9988 27.25C14.0212 27.2505 12.0784 26.7296 10.3663 25.74C10.2521 25.6744 10.1229 25.6395 9.99127 25.6388C9.91057 25.6392 9.83044 25.6523 9.75377 25.6775L5.08002 27.235C5.03597 27.2497 4.9887 27.2518 4.94351 27.2412C4.89832 27.2305 4.85699 27.2075 4.82415 27.1746C4.79132 27.1418 4.76828 27.1005 4.75761 27.0553C4.74695 27.0101 4.74908 26.9628 4.76377 26.9188L6.32127 22.25C6.35497 22.1491 6.36682 22.0422 6.35605 21.9364C6.34527 21.8306 6.31211 21.7283 6.25877 21.6362C5.01784 19.4926 4.51904 16.9994 4.83976 14.5433C5.16048 12.0873 6.28278 9.8057 8.03256 8.0526C9.78233 6.2995 12.0618 5.17287 14.5172 4.84749C16.9726 4.52211 19.4668 5.01618 21.6128 6.25304C23.7588 7.4899 25.4366 9.40041 26.3859 11.6882C27.3353 13.9759 27.5031 16.513 26.8633 18.9059C26.2235 21.2987 24.8119 23.4136 22.8475 24.9223C20.8831 26.431 18.4757 27.2492 15.9988 27.25Z"></path>
</svg>
