<svg viewBox="0 0 16046 7592" xmlns="http://www.w3.org/2000/svg" fill-rule="evenodd" clip-rule="evenodd" stroke-linejoin="round" stroke-miterlimit="2"><path d="M-135 2601l2629-20a8 8 0 008-8l-2-2080a9 9 0 00-9-9l-2652 11a10 10 0 00-10 11l13 2171a11 11 0 0012 11l2845-15a13 13 0 0012-13l-22-2251c0-7-6-13-14-13 0 0-711-1-1422 1-303 0-606 1-854 3l-569 3a7 7 0 000 13 218035 218035 0 001423 7h1409l24 2225-2821 17v-64zm0-13l2621-23-4-2063-2632 14 14 2072z"/><path d="M-285 649a6735 6735 0 00278 7l749-3 1749-8a7 7 0 000-13l-1749-3H-7a8120 8120 0 00-178 3 6710 6710 0 00-100 4 7 7 0 000 13zm270 282a1338 1338 0 0083 6l26 1 131-1 294-2 1 132-543 2a7 7 0 000 13l553 5a11 11 0 0011-10l1-154a11 11 0 00-12-11l-305-1H94a1587 1587 0 00-109 7 7 7 0 000 13zm578-14a7 7 0 00-7 6l-4 56-2 37-2 61a13 13 0 0014 13l633-2c6 0 11-5 11-11l-1-154c0-5-5-10-10-10l-632 4zm7 13l615 3-1 133-609-2a3322 3322 0 00-1-48 1820 1820 0 00-1-37 2718 2718 0 00-3-49zm666-13a7 7 0 00-7 7l6 153a8 8 0 008 7l679 4a11 11 0 0011-11l-4-154a12 12 0 00-12-11l-381-2h-164l-81 3-55 4zm7 13l48 3a2593 2593 0 0081 3h164l370-1 5 131-661 3-7-139zm-524 196a7 7 0 00-7 7l-2 155a7 7 0 008 7l783 4a11 11 0 0011-12l-7-156a12 12 0 00-12-11l-434-1H873l-93 3-62 4zm6 14l56 3a3292 3292 0 0093 3l185-1a122464 122464 0 00423-2l7 134-764 3v-140zm-942 591a7 7 0 00-7 7l-1 155a7 7 0 007 7l783 4a11 11 0 0011-12l-7-156c0-6-5-11-11-11l-434-1H-62a3296 3296 0 00-93 3l-62 4zm6 14a3327 3327 0 00149 6h186l423-2 7 133-764 3v-140zm819-9a7 7 0 00-6 6l-2 155a8 8 0 008 8l501-1a11 11 0 0011-12l-6-156a12 12 0 00-12-11s-200 0-346 2a1362 1362 0 00-103 5 1381 1381 0 00-45 4zm7 14a1651 1651 0 0082 4h59l334-5 8 133-483 8v-141zm537-19a7 7 0 00-6 7l-2 155a8 8 0 008 7l602 4a11 11 0 0011-12l-7-156a12 12 0 00-12-11l-332-1h-100a2110 2110 0 00-102 3l-60 4zm7 14a2253 2253 0 00155 6l100-1 321-1 7 133-583 3v-140zM-22 1936a7 7 0 00-6 7l-2 155a8 8 0 008 8l602 3a11 11 0 0011-11l-7-156a12 12 0 00-12-11l-332-1-100-1a2111 2111 0 00-102 3l-60 4zm7 14a2257 2257 0 00155 6h100l321-2 7 133-583 4v-141zm623-14a7 7 0 00-6 7l-2 155a7 7 0 008 8l699 3a11 11 0 0011-11l-8-156a12 12 0 00-11-11l-387-2H796l-50 1-82 3-56 3zm7 14a3111 3111 0 00132 6h165l376-2 8 133-681 4v-141zm721-8a7 7 0 00-7 6l-1 155a8 8 0 007 8l633 4a11 11 0 0011-12l-7-156a12 12 0 00-12-11l-349-1h-105a2055 2055 0 00-120 3 1607 1607 0 00-50 4zm6 13a2691 2691 0 00119 6l45 1 105-1 338-2 7 134-613 3-1-141zM6113 490a7 7 0 00-6 7l-5 2087a9 9 0 0010 9l1275 2a11 11 0 0011-11l-14-2097a13 13 0 00-13-13l-528 4a42163 42163 0 00-478 6l-252 6zm7 14a42880 42880 0 00723 1l515-5 18 2073-1255 1-1-2071z"/><path d="M6113 680a1417 1417 0 00126 7c86 1 208-1 340-2l793-5a7 7 0 000-13l-793-6c-132-1-254-2-340-1l-50 1a1147 1147 0 00-31 2l-45 4a7 7 0 000 13zm183 260a7 7 0 002 9l27 17 1 33a7 7 0 007 7l912 10a10 10 0 0010-11l-9-274c-1-6-6-11-12-11l-625-2-269-1a13 13 0 00-13 13l-4 71-4 104-23 35zm15 2l24-29a9 9 0 001-5l12-106 5-58h256l615-1 10 253-894-4-2-30a7 7 0 00-3-5l-24-15zM671 1132l-4 31a704 704 0 00-3 59v53l-686 6a7 7 0 000 13l699 7c8 0 14-6 14-13v-66l-1-28a690 690 0 00-2-31 655 655 0 00-4-31 7 7 0 00-13 0z"/><path d="M682 1123l-26-4a376 376 0 00-17-2 549 549 0 00-29-1H416l-453 4a7 7 0 000 13l453 7 194 3a547 547 0 0046-3l26-4a7 7 0 000-13zm5653-51a7 7 0 00-7 6l-5 79a5765 5765 0 00-5 80 6949 6949 0 00-4 100l-25 26a13 13 0 003 21l30 19 2 18a13 13 0 0013 12l904-2a11 11 0 0011-11l-2-342a10 10 0 00-9-9l-906 3zm6 13l890 3-1 321-881-2v-13a13 13 0 00-7-10l-22-14 17-18a14 14 0 004-9l2-106a6439 6439 0 00-2-152zm-8 402a7 7 0 00-7 6l-4 53-36 31a11 11 0 001 18l37 25-3 27a13 13 0 0014 14h271l633-3a11 11 0 0011-11l-4-161a10 10 0 00-10-10l-903 11zm7 13l886-3 2 139-622-1h-257l1-21a13 13 0 00-6-12l-32-19 26-26a9 9 0 003-6l-1-51zm-213 861a1381 1381 0 00125 7c86 2 207 0 338 0l790-2a7 7 0 000-13l-789-9-339-3a1642 1642 0 00-80 3l-45 4a7 7 0 000 13zm1108 47a7 7 0 00-9 7l2 75a9 9 0 0012 8l84-34a12 12 0 000-22s-34-18-60-28a82 82 0 00-11-4 59 59 0 00-9-1l-9-1zm5 23l3 2 10 5a607 607 0 0036 16l-44 21-5-44z"/><path d="M3155 61a7 7 0 00-7 6l-2 518a195642 195642 0 001 982l5 1087a13 13 0 0013 13l4581 7a11 11 0 0011-11L7745 59a9 9 0 00-9-10L3155 61zm6 13l4565-6 9 2584-4557-12-4-1073a197379 197379 0 00-7-982 185220 185220 0 00-6-511zm5010 642a7 7 0 00-6 6l8 1959a10 10 0 0010 9l930-17a11 11 0 0010-11l1-1946a13 13 0 00-13-13s-235 0-470 3l-282 5-188 5zm7 13l181 2a29921 29921 0 00739-1l3 1922-909 19-14-1942z"/><path d="M8260 1743a7 7 0 00-6 6l-5 33a787 787 0 00-5 33l-3 43a13 13 0 0014 15l375-3a11 11 0 0011-11l-2-114a10 10 0 00-10-10l-369 8zm7 13l353-1-1 93-350-2v-30a771 771 0 00-2-60zm389-16a7 7 0 00-7 7l-2 34a819 819 0 000 80 13 13 0 0013 13h371a11 11 0 0011-11l-2-118a10 10 0 00-10-10l-374 5zm8 13l356 2v97l-347-5-2-32a806 806 0 00-4-34l-4-28zm-490-203a772 772 0 0094 7c64 1 155 0 253-1l591-4a7 7 0 000-14l-590-6c-99-1-190-3-254-2a921 921 0 00-60 3 771 771 0 00-34 4 7 7 0 000 13zm80 333a7 7 0 00-7 6l-3 58-1 59a12 12 0 0012 12l78 1c196 2 698 2 698 2a11 11 0 0011-11l-2-112a10 10 0 00-10-10l-776-5zm7 13l759 12v91l-687-7a4199 4199 0 00-66 1 3364 3364 0 00-6-97zm-7 152a7 7 0 00-6 6l-3 79a11 11 0 0011 11l61 2 93 1h614a11 11 0 0011-11l1-78a11 11 0 00-10-11l-771 1zm8 13l753 7-2 57-603-5h-92l-52 1-4-60zM9462 692a7 7 0 00-7 6l-2 176a27497 27497 0 00-2 411c1 576 7 1369 7 1369a12 12 0 0012 12l903-2a11 11 0 0011-11l-29-1956a8 8 0 00-8-8l-885 3zm7 13h870l23 1937-880-1c0-101-1-822-4-1356a34341 34341 0 00-2-235 28080 28080 0 00-7-345z"/><path d="M9901 1147c-27 1-50 18-66 44-19 30-29 73-29 114-1 77 35 149 112 145 77-5 103-80 94-156-5-40-18-82-39-110-7-9-15-18-23-24a73 73 0 00-18-10 57 57 0 00-31-3zm1 13c8 1 15 4 22 9a88 88 0 0117 17l14 19a239 239 0 0132 92c8 62-8 125-71 131-64 5-91-58-93-123-1-38 8-78 25-106 13-22 31-37 54-39zm-387 672a7 7 0 00-7 6l-4 53a1515 1515 0 00-3 78c-1 91 1 196 1 196a13 13 0 0013 13l372-9a11 11 0 0010-10l2-318a9 9 0 00-9-9h-375zm7 13l359 4-5 299-348 4v-183a1515 1515 0 00-3-78 2265 2265 0 00-3-46zm403-12a7 7 0 00-7 7l-2 51a1918 1918 0 00-1 75 9182 9182 0 005 190 13 13 0 0013 12l370 7a11 11 0 0011-11l3-326a9 9 0 00-9-9l-383 4zm7 13l367 1-7 305-346-9c-1-30-2-108-5-177a1212 1212 0 00-1-31 1886 1886 0 00-4-45l-4-44z"/><path d="M9660 2006s-1 1 4 6a7 7 0 003 1h21l49-3a7 7 0 001-13l-49-8-21-3a7 7 0 00-3 2l-5 5a7 7 0 000 13zm406-1s-1 2 5 6a9 9 0 004 1c6 1 15 0 24-1l57-5a7 7 0 000-13l-57-6c-9-1-18-3-24-2a9 9 0 00-4 2c-5 3-5 5-5 5a7 7 0 000 13z"/><path d="M10103 1949s-1-1-5 5a9 9 0 00-1 4c-1 6 0 15 1 25 1 27 5 60 5 60a7 7 0 0013 0l6-59c0-10 2-20 1-26a9 9 0 00-1-4c-4-6-5-5-5-5a7 7 0 00-14-1zm725-1245a7 7 0 00-6 6l-4 176a27496 27496 0 00-7 409c-5 574-7 1364-7 1364a12 12 0 0012 12l904-1a11 11 0 0011-11l-11-1955a8 8 0 00-8-8l-884 8zm7 13l869-5 5 1937-881-2c1-102 8-820 10-1352a34234 34234 0 00-1-409l-2-169z"/><path d="M10877 1289a7 7 0 00-6 6l-4 95-2 95a6538 6538 0 00-1 85l1 199a13 13 0 0013 13l785-6a11 11 0 0010-11l-3-469a9 9 0 00-9-9l-784 2zm7 13l768 3v449l-761 2a23332 23332 0 00-1-271l-2-95a6084 6084 0 00-4-88z"/><path d="M10924 1363a49 49 0 0014 6l9 2 61 1a13578 13578 0 00144 2 7 7 0 000-13l-143-13c-24-2-46-5-61-4l-9 1a41 41 0 00-6 1l-8 3a7 7 0 00-1 14zm-38 165a534 534 0 0047 6l31 2c54 1 129 0 211-1l493-2a7 7 0 000-13l-492-9c-82-1-158-3-211-2a663 663 0 00-50 3l-29 3a7 7 0 000 13zm-5 277a7 7 0 00-7 6l-5 74a6265 6265 0 00-5 110l-2 56-3 129a13 13 0 0013 13h778a11 11 0 0011-11l3-384a10 10 0 00-10-10l-773 17zm7 13l757-11-6 364-753-4a12989 12989 0 004-171 6364 6364 0 00-2-178z"/><path d="M10878 1952a525 525 0 0046 5l31 2c53 1 128-1 209-1l488-5a7 7 0 000-14l-488-5c-81-1-156-3-209-2a637 637 0 00-31 2 437 437 0 00-18 1 527 527 0 00-28 4 7 7 0 000 13zm48-76l9 3a46 46 0 005 2l10 2h65l153-2a7 7 0 000-13l-152-9c-25-1-49-4-65-3a64 64 0 00-10 1 46 46 0 00-6 2l-9 3a7 7 0 000 14zm-52 337a7 7 0 00-6 6l-5 76-4 115a8620 8620 0 00-3 190 13 13 0 0013 13l782-2a11 11 0 0011-11v-390a10 10 0 00-9-9l-779 12zm7 13l762-6-3 368-757-1 2-177a5278 5278 0 00-4-184z"/><path d="M10872 2361a531 531 0 0047 6l31 1c53 2 129 0 211 0l491-2a7 7 0 000-14l-491-8c-82-1-157-3-211-2a659 659 0 00-50 2l-28 4a7 7 0 000 13zm50-78s0 2 6 5a10 10 0 004 1c7 1 16-1 26-3l62-8a7 7 0 00-1-13l-62-2c-10-1-20-2-26-1l-4 2c-6 4-6 6-6 6a7 7 0 001 13zm-36-1454h-2l-1 1h-1v1h-1v1h-1v4l-4 26a488 488 0 00-3 43l1 38a13 13 0 0012 13l228 5a11 11 0 0011-10l3-121a10 10 0 00-10-10l-232 9zm8 13a494 494 0 016 47v41l204 9 4-100-214 3zm279 52a44 44 0 0013 5l9 2h59l137-3a7 7 0 000-14l-137-7c-23-1-44-4-58-3a51 51 0 00-22 7 7 7 0 00-1 13zm-5 59a136 136 0 0024 5l15 1c27 1 65-1 106-2l246-8a7 7 0 000-14l-246-2c-41 0-79-2-106 0a164 164 0 00-25 3l-14 4a7 7 0 000 13zm-245 113a51 51 0 0013 6l10 2c16 2 38 1 63 2l148 2a7 7 0 001-13l-148-13c-24-2-47-5-63-5a60 60 0 00-9 1l-6 1a51 51 0 00-9 3 7 7 0 000 14zm7 57l8 3a46 46 0 0013 4c14 1 34-1 55-1l130-5a7 7 0 000-13l-129-6c-22-1-42-3-56-2l-8 1a34 34 0 00-5 2l-7 3a7 7 0 00-1 14zm394-51a76 76 0 0017 6l12 1c19 1 47 0 77-1l181-4a7 7 0 000-13l-180-7c-30-1-58-3-78-2l-11 2a63 63 0 00-7 1l-11 4a7 7 0 000 13zm12 59a65 65 0 0015 5l11 1c18 1 44-1 71-2l167-6a7 7 0 00-1-14l-166-4c-28 0-53-2-71 0a75 75 0 00-11 1 54 54 0 00-6 2c-7 2-9 4-9 4a7 7 0 000 13zm-5 53a66 66 0 0016 6l11 1c18 2 44 0 73 0l171-2a7 7 0 000-14l-171-8-73-3a81 81 0 00-27 7 7 7 0 000 13zm864-762a7 7 0 00-7 7l-2 355v532c1 617 6 1330 6 1330a13 13 0 0013 13l3049 6a11 11 0 0011-11l-4-2227a9 9 0 00-9-9l-3057 4zm7 14h3041v2207l-3025-10a292991 292991 0 00-11-1849 77796 77796 0 00-5-348z"/><path d="M12401 506a7 7 0 00-7 6l-3 332a86682 86682 0 00-1 498l4 1244a13 13 0 0013 13l2652-5c6 0 11-5 11-11l-2-2062c0-5-4-9-9-9l-2658-6zm6 13l2642 11-1 2042-2628 1c0-95-1-701-4-1231l-1-199a86715 86715 0 00-8-624z"/><path d="M12856 514l-3 124a13677 13677 0 00-1 221c0 241 4 519 4 519a13 13 0 0013 13l1763-5a9 9 0 009-9l-13-869a7 7 0 00-13 0l9 860-1742-3c0-57-1-296-4-506a12876 12876 0 00-4-221 11399 11399 0 00-5-124 7 7 0 00-13 0zm8 996a2424 2424 0 00167 6c114 2 275 0 450-1 475-1 1051-5 1051-5a7 7 0 000-13l-1051-6c-175 0-336-2-450-1l-67 1a2008 2008 0 00-40 2l-60 3a7 7 0 000 14zm-23 138a601 601 0 0082 8c57 2 137 1 223 1h520a7 7 0 001-13l-521-11c-86-2-166-4-223-4l-33 1a497 497 0 00-19 2l-30 3a7 7 0 000 13zm22 324a140 140 0 0024 5l16 2c27 1 65-1 107-1l250-4a7 7 0 000-13l-250-7c-41-1-80-3-107-2a169 169 0 00-25 3l-15 3a7 7 0 000 14zm2 123a7 7 0 00-7 7l3 134a10 10 0 0011 10l175 3 176 1h1405a11 11 0 0011-12l-9-148a11 11 0 00-10-10l-1755 15zm7 13l1738-6 6 126-1393-5h-176l-166 2-9-117z"/><path d="M12913 2189l5 3a18 18 0 008 3c9 0 21-2 34-4l78-12a7 7 0 00-1-13l-79 1-34 1a19 19 0 00-8 4l-4 4a7 7 0 001 13zm-45 102a7 7 0 00-7 7l-4 152c0 5 5 10 11 10l173 4 174 1c507 4 1389 8 1389 8a11 11 0 0011-11l3-176a11 11 0 00-11-11l-1739 16zm6 14l1722-8-3 154c-102-1-904-9-1378-12-65-1-124-2-174-1l-163 1-4-134z"/><path d="M12919 2383l6 4a35 35 0 0012 4l47 1 111-1a7 7 0 001-13l-111-10c-18-2-35-4-47-4a35 35 0 00-12 3l-6 3a7 7 0 00-1 13zm-38 196v-63l76 2 87 1 470-1 1091-2 7 65a7 7 0 0014-2l-8-71a7 7 0 00-7-6l-1097-7-470-3h-87l-87 3a11 11 0 00-10 11l8 74a7 7 0 0013-1zM-75 4723a8091 8091 0 00218 13 8796 8796 0 0099 4l217 8 21 1907-536 25a7 7 0 001 14l544-23a8 8 0 007-8l-11-1928a13 13 0 00-13-13l-229-9a8867 8867 0 00-208-4H-75a7 7 0 000 14z"/><path d="M475 5083l-21-4a353 353 0 00-37-4H261a87416 87416 0 00-364 1 7 7 0 000 13l364 10c61 1 117 4 156 3a346 346 0 0023-1 244 244 0 0014-1l21-4a7 7 0 000-13zm573-637a7 7 0 00-7 7l-7 353a105607 105607 0 00-7 531c-8 615-12 1326-12 1326a13 13 0 0013 13l3058-1c6 0 11-4 11-10l3-2209a9 9 0 00-9-9l-3043-1zm6 13l3028 6-7 2189-3034-4c1-100 8-747 12-1313a105495 105495 0 001-878z"/><path d="M1230 4510a7 7 0 00-7 6l-4 335a90260 90260 0 00-4 502c-2 582-2 1254-2 1254a13 13 0 0013 13l2666 14a11 11 0 0011-11l-7-2107a9 9 0 00-9-9l-2657 3zm7 13l2641 2 3 2087-2642-18c1-96 3-707 3-1241l-1-201a88549 88549 0 00-4-629z"/><path d="M1230 4659a6174 6174 0 00265 7h718l1675-4a7 7 0 000-13l-1675-7-717-3a7446 7446 0 00-171 3l-95 4a7 7 0 000 13zm2663 95l-96-3a7533 7533 0 00-170-4c-181-1-438 1-717 1l-1673 5a7 7 0 000 13l1673 6c279 1 536 3 717 2a7512 7512 0 00170-3l95-3a7 7 0 000-14zm-1942 273a7 7 0 00-7 6l-3 105a5877 5877 0 00-2 156c1 256 5 609 5 609a12 12 0 0013 12l515-9c6 0 11-5 11-11l-7-860a8 8 0 00-9-8h-516zm7 13l501 3 2 841-492 6c0-65 0-368-3-596a5877 5877 0 00-4-156l-4-98zm589-10a7 7 0 00-7 7l-3 104a5877 5877 0 00-1 157c0 256 5 608 5 608a12 12 0 0012 13l515-9c6 0 11-5 11-11l-7-861a8 8 0 00-8-8h-517zm7 14l502 3 1 841-492 6c0-65 0-369-3-596a5877 5877 0 00-4-157l-4-97zm587-9a7 7 0 00-7 7l-3 104a5877 5877 0 00-1 156c0 256 5 609 5 609a12 12 0 0012 12l515-9c6 0 11-5 11-11l-7-860a8 8 0 00-8-8h-517zm7 13l502 3 1 841-492 6c0-65 0-368-3-596a5877 5877 0 00-4-156l-4-98z"/><clipPath id="a"><path d="M3106 5849h598v767h-598z"/></clipPath><g clip-path="url(#a)"><path d="M3134 5947a7 7 0 00-7 7l-3 112-2 85a6770 6770 0 000 84c1 277 5 658 5 658a12 12 0 0013 12l515-9a11 11 0 0011-11l-7-930a8 8 0 00-9-8h-516zm7 13l501 3 2 911-492 6-3-645a7016 7016 0 00-4-169 9646 9646 0 00-5-106z"/></g><clipPath id="b"><path d="M2504 5877h603v738h-603z"/></clipPath><g clip-path="url(#b)"><path d="M2551 5934a7 7 0 00-7 7l-3 104a5877 5877 0 00-2 157c1 256 5 608 5 608a12 12 0 0013 12l515-9c6 0 11-5 11-11l-7-860a8 8 0 00-9-8h-516zm7 13l501 4 2 841-492 6c0-65 0-369-3-596a5877 5877 0 00-4-157l-4-98z"/></g><clipPath id="c"><path d="M1909 5915h604v700h-604z"/></clipPath><g clip-path="url(#c)"><path d="M1953 5934a7 7 0 00-7 7l-3 104a5877 5877 0 00-1 157c0 256 5 608 5 608a12 12 0 0012 12l515-9c6 0 11-5 11-11l-7-860a8 8 0 00-8-8h-517zm7 13l502 4 1 841-492 6c0-65 0-369-3-596a5877 5877 0 00-4-157l-4-98z"/></g><path d="M1402 5020a45 45 0 0013 6l8 2 59 1 136 2a7 7 0 001-13l-136-13c-23-2-43-4-58-4a51 51 0 00-9 1l-5 1-8 3a7 7 0 00-1 14zm8 105s-2 1 3 6a5 5 0 003 2c4 1 11-1 18-1l42-4a7 7 0 000-13l-41-7c-7-1-13-3-18-2a5 5 0 00-2 1c-6 4-5 5-5 5a7 7 0 000 13zm20 99s-1 1 4 6l3 2c5 2 13 1 21 1h48a7 7 0 002-13l-47-11-21-4-3 1c-6 4-5 5-5 5a7 7 0 00-2 13zm-1 75a7 7 0 002 13l4 5 2 1c3 1 7-2 11-3l25-9a7 7 0 00-2-13l-27-2c-4 0-8-1-11 1l-1 1-3 6zm1 102a81 81 0 0018 5l11 2c21 2 49 1 80 1h187a7 7 0 001-13l-187-11-80-4a95 95 0 00-30 6 7 7 0 000 14zm-3 97l6 4a30 30 0 0010 3l44-3 102-8a7 7 0 000-13l-103-3c-17 0-32-2-44 0a30 30 0 00-10 3l-6 4a7 7 0 001 13zm3 89l5 5a8 8 0 004 1l23-3 53-9a7 7 0 00-1-14l-54-1h-23a8 8 0 00-3 2c-6 4-5 5-5 5a7 7 0 001 14zm-1 92s0 2 6 5l4 1c7 1 17-1 28-2a2788 2788 0 0065-7 7 7 0 00-1-13l-65-4c-10 0-20-2-27 0a11 11 0 00-4 1c-6 4-6 6-6 6a7 7 0 000 13zm2 82l7 4a37 37 0 005 2l9 2h58l135-1a7 7 0 001-13l-135-10c-23-1-44-4-58-3a50 50 0 00-14 3l-8 3a7 7 0 000 13zm3 101s-2 0 3 5l2 1c4 1 9-1 14-2l33-8a7 7 0 00-1-13l-33-3c-6 0-11-2-15 0l-2 1c-4 6-2 6-2 6a7 7 0 001 13zm-3 83a49 49 0 0013 6l9 2c16 2 38 2 62 3l145 4a7 7 0 001-13l-144-15c-24-2-47-5-62-5a58 58 0 00-15 2l-9 3a7 7 0 000 13zm-4 96l10 4a53 53 0 006 1l11 1c18 1 43-2 70-4l164-10a7 7 0 000-13l-165-1-70 1-11 2a53 53 0 00-6 2l-9 4a7 7 0 000 13zm-73-1458a150 150 0 0025 5l16 1c28 1 68-2 111-3a44472 44472 0 00260-10 7 7 0 00-1-14h-370a181 181 0 00-17 2l-10 2-14 4a7 7 0 000 13zm3336 388a131 131 0 0023 6l15 1c26 2 63 0 103 0l242-3a7 7 0 000-13l-241-8-104-3a160 160 0 00-24 3l-14 4a7 7 0 000 13zm3 89a59 59 0 0015 6l10 1c17 1 41 0 68-1l159-4a7 7 0 000-13l-159-7c-26-1-51-3-68-2l-10 2a50 50 0 00-6 1l-9 4a7 7 0 000 13zm3 147a7 7 0 00-7 7l-6 53-4 36a11 11 0 0012 12l62 2 95-1 628-9a11 11 0 0011-10l4-85a11 11 0 00-11-11l-784 6zm6 14l767 1-4 64-618 3-94 1-51 2v-71zm-13 158a7 7 0 00-7 7l-6 87a11 11 0 0011 11l65 2 96 1 643-1a11 11 0 0011-11l2-82a11 11 0 00-10-11l-805-3zm7 13l787 11-3 61-632-4h-96l-54 1-2-69zm29 153a52 52 0 0014 6 60 60 0 009 2 5903 5903 0 00212 4 7 7 0 001-13l-148-13c-24-2-47-5-63-4a60 60 0 00-15 2l-9 3a7 7 0 00-1 13zm23 79l10 4a64 64 0 007 2l12 2c19 2 48 1 78 1l183 1a7 7 0 000-13l-182-12-78-4a91 91 0 00-19 3c-7 1-10 3-10 3a7 7 0 00-1 13zm2 97a73 73 0 0017 6l11 2h254a7 7 0 001-13l-178-11c-29-1-57-4-76-3a86 86 0 00-28 6 7 7 0 00-1 13zm-6 97l11 3a61 61 0 006 2l12 2c19 1 46-1 76-1l177-4a7 7 0 001-13l-178-7c-30-1-57-3-76-2l-11 1a61 61 0 00-7 2l-10 3a7 7 0 00-1 14zm-57 157a7 7 0 00-7 6l-2 75c0 6 5 10 11 10l80 3 80 1h641a11 11 0 0011-11l-3-74a11 11 0 00-10-11l-801 1zm7 13l783 8 2 52-630-5h-80l-70 1-5-56zm-2 180a7 7 0 00-7 7l-3 84a11 11 0 0011 11l63 2h96l635-4a11 11 0 0011-10l6-73a11 11 0 00-11-11l-801-6zm7 14l783 13-5 51-625-1-96 1-53 1-4-65zm-2 285a7 7 0 00-6 7l-6 64a2451 2451 0 00-3 43 12 12 0 0011 12l80 3c201 4 715 7 715 7a11 11 0 0011-11l-7-122c0-5-5-9-10-9l-785 6zm7 14h768l5 100a68907 68907 0 00-772-12 2590 2590 0 00-1-88z"/><path d="M4978 6530a45 45 0 0013 5l9 2 58-3c62-2 137-7 137-7a7 7 0 00-1-13l-136-4h-59a50 50 0 00-21 7 7 7 0 000 13z"/><path d="M4627 4733a7 7 0 00-7 7l-4 209a36124 36124 0 00-4 371c-3 570-3 1354-3 1354a12 12 0 0012 12l909 5a11 11 0 0011-11l10-1932a8 8 0 00-8-8l-916-7zm7 14l900 9-15 1913-885-8 5-1341a35144 35144 0 00-2-371 33080 33080 0 00-4-202zm1424-662a7 7 0 00-7 7l-5 521a198672 198672 0 00-4 989l-2 1093a13 13 0 0013 13l4563-4a11 11 0 0011-11l15-2618a9 9 0 00-9-10l-4575 20zm6 14l4559-15-18 2598H6066l3-1080a197831 197831 0 00-2-989l-3-514z"/><path d="M6056 4860a18173 18173 0 00458 7c311 2 754 0 1234 0l2880-3a7 7 0 000-14l-2880-7c-480-1-923-3-1234-2a22500 22500 0 00-293 2l-165 4a7 7 0 000 13zm2034-571a7 7 0 00-6 7l1 55a7 7 0 008 7l537-4a11 11 0 0010-13l-13-61a11 11 0 00-11-9l-295 6-126 3a1366 1366 0 00-63 5l-42 4zm7 14a1425 1425 0 0073 3l26 1 126-4 285-9 9 39-517 11-2-41zm-1284 39a132 132 0 0023 6l15 1c26 2 63 0 104 0l241-4a7 7 0 000-13l-241-7c-40-1-78-3-104-2a155 155 0 00-24 3l-14 3a7 7 0 000 13zm546-10l3 5 3 2 4 2c8 3 20 3 33 5l75 9a7 7 0 003-13l-74-19-32-8a17 17 0 00-8 2l-5 2a7 7 0 00-2 14zm283 1a51 51 0 0014 5l9 2c16 2 39 0 63 0l146-1a7 7 0 001-13l-146-10-63-3a59 59 0 00-23 6 7 7 0 00-1 14zm1140-3l5 4a21 21 0 008 4c9 1 23-1 37-1l85-3a7 7 0 001-13l-86-8c-14-1-27-3-36-2a21 21 0 00-9 3l-5 3a7 7 0 000 13zm287 6a125 125 0 0023 5l15 1c25 1 61-1 101-2a36382 36382 0 00235-7 7 7 0 000-13l-236-4c-39 0-75-2-100-1a150 150 0 00-24 4l-14 3a7 7 0 000 14zm526-1a63 63 0 0015 5l11 2h70l165-3a7 7 0 000-13l-164-8-71-3a73 73 0 00-17 3l-9 4a7 7 0 000 13zM6962 5521a700 700 0 0054 5l36 2c61 1 148 0 242-1 255 0 565-3 565-3a7 7 0 000-13l-565-7c-94-1-181-4-242-3a851 851 0 00-57 3 704 704 0 00-33 4 7 7 0 000 13zm-9 96a481 481 0 0045 4l30 1c50 1 122-2 200-4l467-13a7 7 0 000-13l-467 2c-78 0-150 0-201 2a585 585 0 00-29 2l-18 1-27 4a7 7 0 000 14zm-1 331a726 726 0 0055 6l36 2c63 1 152 0 248-1l578-2a7 7 0 000-14l-578-8c-96-1-185-3-248-2a915 915 0 00-58 2l-33 4a7 7 0 000 13zm-2 103l36 4a697 697 0 0023 1l40 1c67 1 162-1 265-2l619-9a7 7 0 000-13l-619-2c-103-1-198-2-266-1a1036 1036 0 00-62 4l-36 4a7 7 0 000 13zm8 292a670 670 0 0052 5l35 2c60 1 145-1 237-1l553-5a7 7 0 000-13l-553-6c-92-1-177-3-236-2a805 805 0 00-57 3 675 675 0 00-31 4 7 7 0 000 13zm-2 91a868 868 0 0060 5l40 1c68 0 165-3 270-5l629-13a7 7 0 000-13l-630 2c-105 1-202 0-270 2a1069 1069 0 00-64 4 874 874 0 00-36 4 7 7 0 001 13zm1120-946a7 7 0 00-7 7l-2 49-2 34v55a13 13 0 0013 13l561 1a11 11 0 0011-11l-5-141a10 10 0 00-10-10l-559 3zm7 13l542 4 3 120-537-6a2664 2664 0 00-4-75 2195 2195 0 00-4-43zm-9 410a7 7 0 00-7 6l-5 51a1471 1471 0 00-3 34l-2 57a13 13 0 0013 14l564 3a11 11 0 0011-10l1-147a10 10 0 00-10-10l-562 2zm7 13l545 5-3 125-540-8a2559 2559 0 000-77l-2-45zm-39 392a7 7 0 00-7 6l-5 51a1471 1471 0 00-3 34l-3 57a13 13 0 0014 14l564 3a11 11 0 0011-10l1-147a10 10 0 00-10-10l-563 2zm7 13l545 5-3 125-540-8a2559 2559 0 00-1-77l-2-45z"/><clipPath id="d"><path d="M8012 6541h638v163h-638z"/></clipPath><g clip-path="url(#d)"><path d="M8048 6572a7 7 0 00-6 7l-5 51a1471 1471 0 00-3 34l-3 56a13 13 0 0013 14l564 4a11 11 0 0011-11l2-146a10 10 0 00-10-11l-563 2zm7 14l545 4-2 126-540-8a2559 2559 0 00-1-78l-2-44z"/></g><path d="M8643 6308a7 7 0 00-7 7l-4 42a1529 1529 0 00-4 43l-2 56a14 14 0 0013 14l520 4a11 11 0 0011-11l1-146a10 10 0 00-10-11l-518 2zm7 14l501 4-2 126-496-8a1776 1776 0 00-1-86l-2-36z"/><clipPath id="e"><path d="M8618 6538h571v155h-571z"/></clipPath><g clip-path="url(#e)"><path d="M8650 6565a7 7 0 00-7 6l-5 43a1529 1529 0 00-3 42l-2 57a14 14 0 0013 14l520 3a11 11 0 0011-11l1-146a10 10 0 00-10-10l-519 2zm7 13l501 5-3 125-495-8a1776 1776 0 00-2-86l-2-36z"/></g><path d="M9212 6309a7 7 0 00-7 7l-4 42a1488 1488 0 00-3 43l-3 56a13 13 0 0013 14l514 4a11 11 0 0011-11l2-147a10 10 0 00-10-10l-513 2zm7 13l495 5-2 125-490-8v-43a1763 1763 0 00-3-79z"/><clipPath id="f"><path d="M9194 6527h566v160h-566z"/></clipPath><g clip-path="url(#f)"><path d="M9219 6566a7 7 0 00-7 6l-4 43a1488 1488 0 00-4 42l-2 57a13 13 0 0013 13l514 4a11 11 0 0011-11l1-146a10 10 0 00-10-10l-512 2zm7 13l495 5-2 125-490-8v-43a1763 1763 0 00-3-79z"/></g><path d="M11142 4742a7 7 0 00-7 7l-4 314-5 470c-4 546-5 1176-5 1176a13 13 0 0014 14l2722-4a11 11 0 0011-11l-8-1970a9 9 0 00-10-9l-2708 13zm7 14l2692-9 5 1950-2698-1c0-93 4-663 4-1163a83257 83257 0 00-3-777z"/><path d="M11200 4855a7 7 0 00-7 6l-2 277-1 415a332772 332772 0 006 1038 13 13 0 0013 13l2593-1a11 11 0 0011-11l-8-1733a9 9 0 00-10-9l-2595 5zm7 13h2579l5 1713-2569-3-4-817-2-208a87493 87493 0 00-5-415 54018 54018 0 00-4-270z"/><path d="M11342 5062a163 163 0 0026 5l17 2c29 2 70 1 114 1l268-1a7 7 0 001-13l-268-10c-45-2-86-4-115-4a193 193 0 00-27 3 162 162 0 00-16 3 7 7 0 000 14zm8 509a319 319 0 0037 6l24 2 165 1h383a7 7 0 001-13l-384-11c-64-2-123-5-164-4a407 407 0 00-39 2l-22 4a7 7 0 00-1 13zm1 203a7 7 0 00-6 7l-4 74a4228 4228 0 00-3 112c-1 182 1 434 1 434a13 13 0 0013 12l432-5a11 11 0 0011-11l-5-609a9 9 0 00-8-8l-431-6zm7 14l415 9v590l-408 1v-421a2573 2573 0 00-1-45 4363 4363 0 00-6-134zm596-14a7 7 0 00-6 7l-3 74a4265 4265 0 00-2 67 2524 2524 0 00-1 45c0 182 4 433 4 433a13 13 0 0013 12l433-6c6 0 11-5 11-11l-4-613a9 9 0 00-8-8h-437zm7 14l421 3-1 593-410 3c0-53 0-262-2-420l-1-45a4386 4386 0 00-7-134zm608-12a7 7 0 00-6 7l-4 74a4207 4207 0 00-3 111c-2 181-1 431-1 431a13 13 0 0013 13l437-5a11 11 0 0011-11l-8-607a9 9 0 00-8-8l-431-5zm7 13l415 9 3 587-414 1a29337 29337 0 001-463 4342 4342 0 00-5-134zm601-4a7 7 0 00-6 7l-4 72a4222 4222 0 00-3 109c-1 179 1 425 1 425a13 13 0 0013 12l436-9c6 0 11-5 11-11l-8-602a9 9 0 00-8-9l-432 6zm7 13l416-2 3 583-413 6c1-53 2-257 1-412l-1-43a4211 4211 0 00-6-132zm-1675-457a3313 3313 0 00194 9c132 2 320 2 524 3l1224 6a7 7 0 000-14l-1223-16c-204-2-392-6-525-6a3984 3984 0 00-124 2 3291 3291 0 00-70 3 7 7 0 000 13zm-55 89l6 4a33 33 0 0011 3c12 1 29-1 47-2l109-6a7 7 0 000-13l-109-5c-18-1-35-2-47-1a33 33 0 00-11 3c-5 2-6 4-6 4a7 7 0 000 13zm388 4l5 3 4 2a22 22 0 005 2c10 1 24-1 38-2l89-5a7 7 0 000-13l-89-6c-14 0-28-2-37-1l-6 1a18 18 0 00-3 2l-5 3a7 7 0 00-1 14zm387-3l4 3 3 2 4 2c8 1 19-1 31-1l71-4a7 7 0 000-13l-71-7c-11-1-22-3-30-2l-5 1a13 13 0 00-2 2l-4 3a7 7 0 00-1 14zm333-9l7 4a46 46 0 0013 4c14 2 34 1 56 1h130a7 7 0 000-13l-129-11c-22-2-41-4-55-4a46 46 0 00-21 6 7 7 0 00-1 13zm420 5l4 4 3 1 4 2c8 1 20 0 32-1l75-3a7 7 0 000-13l-74-8c-13-1-24-3-32-2a16 16 0 00-8 3l-4 4a7 7 0 000 13zm338 3a39 39 0 0012 5l8 1c14 1 34-1 55-2l128-7a7 7 0 00-1-13l-127-4c-22 0-41-2-55 0a45 45 0 00-13 3 40 40 0 00-7 4 7 7 0 000 13zm1018-679a7 7 0 00-6 6l-4 210-2 139-1 233c-2 571 0 1357 0 1357a12 12 0 0013 12l909-4a11 11 0 0011-11l-24-1944a8 8 0 00-8-8l-888 10zm7 13l873-7 18 1925-886 2c0-102 3-816 2-1345a35447 35447 0 00-3-372l-4-203z"/><path d="M14461 4921a212 212 0 0030 6l19 2h439a7 7 0 000-13l-307-10c-51-2-98-4-131-4a253 253 0 00-32 3 211 211 0 00-17 3 7 7 0 00-1 13zm226 400l7 4a41 41 0 0013 3c13 1 31-1 52-2l121-6a7 7 0 000-14l-122-4c-20-1-39-2-52-1a41 41 0 00-12 3l-7 4a7 7 0 000 13zm-41 60a66 66 0 0016 6 77 77 0 0011 2c18 2 44 1 72 1a18619 18619 0 00168 2 7 7 0 000-14l-167-12-72-4a77 77 0 00-17 3c-7 1-10 3-10 3a7 7 0 000 13zm128 228l-21 13a456 456 0 00-21 13 652 652 0 00-27 19 6609 6609 0 00-149 118 12 12 0 003 21l165 50-76 205a7 7 0 005 10l59 19a7 7 0 004-13l-51-17 81-207a10 10 0 00-6-13l-151-50c29-22 88-66 133-102a652 652 0 0025-21 456 456 0 0018-17l17-17a7 7 0 00-8-11z"/><path d="M14632 5732a192 192 0 0028 18 301 301 0 0021 9c38 16 89 34 110 42l-61 208a8 8 0 005 10l67 22a7 7 0 004-13l-59-21 70-210a12 12 0 00-7-14s-69-30-119-49a301 301 0 00-21-8 196 196 0 00-33-6 7 7 0 00-5 12z"/><path d="M14728 5644l1 11a80 80 0 007 23c20 45 60 120 60 120a11 11 0 0012 6l133-35a7 7 0 00-3-12l-126 25c-8-21-34-80-52-116a111 111 0 00-6-11 79 79 0 00-7-9l-7-7a7 7 0 00-12 5z"/><path d="M14788 5634v10a42 42 0 004 13 959 959 0 0042 78 11 11 0 0010 6l118-6a7 7 0 000-13l-111-3c-6-14-22-52-35-74a42 42 0 00-9-11l-7-6a7 7 0 00-12 6zm-27-45a7 7 0 004 9l87 29c4 2 8 0 10-4l42-74c3-5 1-12-4-14l-87-50a13 13 0 00-17 6l-24 53-5 14a154 154 0 00-5 19l-1 12zm17-1l3-4a154 154 0 0010-16l6-13a1728 1728 0 0017-41l67 35-31 60-72-21zm-389 854a7 7 0 00-6 6l-4 71-3 70a13 13 0 0013 13h72l169-3 561-9a11 11 0 0011-12l-9-159a10 10 0 00-10-9l-794 32zm7 13l777-24 7 137a424093 424093 0 00-551 5l-168 2-60 1a3783 3783 0 00-5-121z"/></svg>