<?xml version="1.0" encoding="UTF-8" standalone="no"?><!DOCTYPE svg PUBLIC "-//W3C//DTD SVG 1.1//EN" "http://www.w3.org/Graphics/SVG/1.1/DTD/svg11.dtd"><svg width="100%" height="100%" viewBox="0 0 811 158" version="1.1" xmlns="http://www.w3.org/2000/svg" xmlns:xlink="http://www.w3.org/1999/xlink" xml:space="preserve" xmlns:serif="http://www.serif.com/" style="fill-rule:evenodd;clip-rule:evenodd;stroke-linejoin:round;stroke-miterlimit:1.41421;"><g><circle cx="71.38" cy="71.546" r="71.214" style="fill:#88db5a;"/><clipPath id="_clip1"><circle cx="71.38" cy="71.546" r="71.214"/></clipPath><g clip-path="url(#_clip1)"><path d="M72.639,6.812l25.461,1.911l6.876,24.589l25.46,1.911l6.876,24.59l-25.461,-1.911l6.875,24.589l-25.461,-1.911l-6.875,-24.589l-25.461,-1.911l-6.875,-24.589l25.461,1.911l-6.876,-24.59Z" style="fill:#fff;"/></g><g><path d="M182.854,32.689l0,80.897l31.563,0c28.911,0 45.223,-14.588 45.223,-40.448c0,-25.861 -16.312,-40.449 -45.223,-40.449l-31.563,0Zm24.8,59.811l0,-38.857l6.763,0c12.864,0 20.158,7.029 20.158,19.495c0,12.466 -7.294,19.362 -20.158,19.362l-6.763,0Z" style="fill-rule:nonzero;"/><path d="M273.432,68.761c9.018,-1.856 15.914,-2.785 20.556,-2.785c6.498,0 8.089,2.785 8.089,8.355l-11.272,0c-18.169,0 -27.319,6.366 -27.319,20.026c0,15.781 7.692,20.423 21.086,20.423c7.029,0 12.599,-3.183 17.505,-8.753l0,7.559l23.739,0l0,-39.255c0,-18.699 -8.09,-26.523 -27.319,-26.523c-6.499,0 -12.997,0.795 -28.646,5.039l3.581,15.914Zm28.645,16.843l0,8.089c-2.519,2.122 -5.57,3.846 -9.415,3.846c-4.112,0 -6.897,-2.387 -6.897,-6.233c0,-4.243 3.051,-5.702 8.355,-5.702l7.957,0Z" style="fill-rule:nonzero;"/><path d="M390.268,52.184c-12.333,-3.713 -18.964,-4.376 -29.308,-4.376c-15.384,0 -24.8,7.692 -24.8,20.953c0,10.212 5.57,16.445 17.373,20.026c10.079,3.05 13.394,3.713 13.394,6.365c0,1.592 -1.193,2.387 -4.509,2.387c-5.039,0 -14.19,-2.652 -24.003,-7.161l-5.836,16.179c9.947,4.907 22.545,8.223 31.563,8.223c16.047,0 26.657,-7.692 26.657,-21.882c0,-10.477 -5.172,-15.517 -17.373,-19.097c-11.538,-3.316 -14.721,-3.316 -14.721,-6.366c0,-1.989 2.122,-2.917 5.172,-2.917c5.438,0 11.007,1.061 21.352,3.713l5.039,-16.047Z" style="fill-rule:nonzero;"/><path d="M423.157,28.313l-24.003,0l0,85.273l24.003,0l0,-36.47c3.183,-3.58 6.631,-5.968 10.742,-5.968c4.907,0 5.968,2.122 5.968,8.886l0,33.552l24.004,0l0,-41.111c0,-17.506 -5.172,-24.535 -18.699,-24.535c-7.294,0 -13.527,3.051 -22.015,10.345l0,-29.972Z" style="fill-rule:nonzero;"/><path d="M498.086,28.313l-24.004,0l0,85.273l24.004,0l0,-7.294c5.04,5.437 8.62,8.488 18.434,8.488c13.394,0 25.197,-10.079 25.197,-34.216c0,-22.81 -8.089,-32.624 -23.871,-32.624c-7.426,0 -13.394,2.653 -19.76,9.018l0,-28.645Zm0,45.886c3.183,-4.111 6.498,-6.233 10.875,-6.233c5.835,0 9.018,3.713 9.018,12.598c0,10.079 -3.448,14.456 -9.549,14.456c-4.906,0 -7.691,-1.99 -10.344,-5.836l0,-14.985Z" style="fill-rule:nonzero;"/><path d="M581.37,47.808c-21.351,0 -33.95,12.201 -33.95,33.817c0,21.086 12.599,33.155 33.95,33.155c21.352,0 33.95,-12.069 33.95,-33.155c0,-21.616 -12.598,-33.817 -33.95,-33.817Zm0,48.14c-6.631,0 -10.477,-3.581 -10.477,-14.323c0,-11.272 3.979,-14.986 10.477,-14.986c6.498,0 10.477,3.714 10.477,14.986c0,10.742 -3.979,14.323 -10.477,14.323Z" style="fill-rule:nonzero;"/><path d="M629.51,68.761c9.018,-1.856 15.914,-2.785 20.556,-2.785c6.498,0 8.09,2.785 8.09,8.355l-11.273,0c-18.168,0 -27.319,6.366 -27.319,20.026c0,15.781 7.692,20.423 21.086,20.423c7.029,0 12.599,-3.183 17.506,-8.753l0,7.559l23.738,0l0,-39.255c0,-18.699 -8.089,-26.523 -27.319,-26.523c-6.498,0 -12.997,0.795 -28.645,5.039l3.58,15.914Zm28.646,16.843l0,8.089c-2.52,2.122 -5.57,3.846 -9.416,3.846c-4.111,0 -6.896,-2.387 -6.896,-6.233c0,-4.243 3.05,-5.702 8.355,-5.702l7.957,0Z" style="fill-rule:nonzero;"/><path d="M715.844,49.001l-24.003,0l0,64.585l24.003,0l0,-29.972c2.52,-9.15 7.825,-11.139 15.649,-11.139c2.255,0 4.377,0 7.559,0.265l1.592,-24.402c-3.581,-0.398 -5.703,-0.398 -7.957,-0.398c-7.162,0 -12.068,4.112 -16.843,13.527l0,-12.466Z" style="fill-rule:nonzero;"/><path d="M810.533,113.586l0,-85.273l-24.003,0l0,27.584c-6.366,-6.365 -12.334,-8.089 -19.761,-8.089c-14.72,0 -23.871,9.946 -23.871,32.756c0,24.137 11.803,34.216 25.198,34.216c9.681,0 13.394,-3.051 18.434,-8.488l0,7.294l24.003,0Zm-24.003,-24.402c-2.653,3.846 -5.438,5.703 -10.477,5.703c-5.968,0 -9.549,-4.244 -9.549,-14.323c0,-8.885 3.183,-12.598 9.151,-12.598c4.376,0 7.692,2.122 10.875,6.233l0,14.985Z" style="fill-rule:nonzero;"/></g><path d="M505.109,133.847c-0.684,-0.18 -1.728,-0.252 -3.024,-0.252c-3.492,0 -4.788,1.836 -4.788,5.328l0,1.872l-2.484,0l0,1.332l2.484,0l0,15.372l1.548,0l0,-15.372l5.724,0l0,-1.332l-5.724,0l0,-1.872c0,-2.556 0.792,-3.996 3.42,-3.996c1.044,0 2.016,0.072 2.7,0.18l0.144,-1.26Z" style="fill:#4a646f;fill-rule:nonzero;"/><path d="M511.049,134.567c-0.612,0 -1.08,0.396 -1.08,1.08c0,0.648 0.468,1.044 1.08,1.044c0.648,0 1.08,-0.396 1.08,-1.044c0,-0.684 -0.432,-1.08 -1.08,-1.08Zm6.336,0c-0.612,0 -1.08,0.396 -1.08,1.08c0,0.648 0.468,1.044 1.08,1.044c0.612,0 1.116,-0.396 1.116,-1.044c0,-0.684 -0.504,-1.08 -1.116,-1.08Zm2.088,22.932l1.548,0l0,-16.704l-1.548,0l0,11.664c-1.584,2.376 -4.068,3.924 -6.588,3.924c-3.132,0 -4.212,-1.836 -4.212,-5.58l0,-10.008l-1.584,0l0,10.26c0,4.5 1.584,6.768 5.472,6.768c2.7,0 5.184,-1.404 6.912,-3.528l0,3.204Z" style="fill:#4a646f;fill-rule:nonzero;"/><path d="M528.617,140.795l-1.584,0l0,16.704l1.584,0l0,-10.584c0.972,-3.24 2.988,-4.896 5.364,-4.896c0.612,0 1.188,0 2.052,0.072l0.144,-1.512c-0.972,-0.108 -1.548,-0.108 -2.16,-0.108c-2.412,0 -4.68,1.692 -5.4,4.104l0,-3.78Z" style="fill:#4a646f;fill-rule:nonzero;"/><path d="M561.197,157.499l1.548,0l0,-23.688l-1.548,0l0,9.792c-1.656,-1.908 -4.212,-3.132 -6.876,-3.132c-3.996,0 -6.84,2.268 -6.84,8.676c0,6.3 3.564,8.676 7.272,8.676c2.988,0 4.68,-1.152 6.444,-3.204l0,2.88Zm0,-4.572c-1.728,2.16 -3.42,3.528 -6.156,3.528c-2.988,0 -6.012,-1.908 -6.012,-7.308c0,-5.508 2.376,-7.308 5.652,-7.308c2.484,0 4.86,1.332 6.516,3.456l0,7.632Z" style="fill:#4a646f;fill-rule:nonzero;"/><path d="M568.433,135.899c0,0.648 0.468,1.044 1.08,1.044c0.612,0 1.08,-0.396 1.08,-1.044c0,-0.648 -0.468,-1.008 -1.08,-1.008c-0.612,0 -1.08,0.36 -1.08,1.008Zm1.872,21.6l0,-16.704l-1.584,0l0,16.704l1.584,0Z" style="fill:#4a646f;fill-rule:nonzero;"/><path d="M588.917,154.079c-1.836,1.764 -3.924,2.412 -6.156,2.412c-3.24,0 -6.084,-1.764 -6.156,-6.948l13.464,0c0.072,-0.396 0.072,-0.648 0.072,-0.936c-0.18,-5.76 -3.096,-8.136 -7.236,-8.136c-4.212,0 -7.812,2.448 -7.812,8.82c0,6.192 3.456,8.532 7.632,8.532c2.664,0 5.04,-0.792 6.876,-2.772l-0.684,-0.972Zm-12.276,-5.796c0.288,-4.788 3.168,-6.48 6.264,-6.48c3.24,0 5.616,1.8 5.796,6.48l-12.06,0Z" style="fill:#4a646f;fill-rule:nonzero;"/><path d="M621.929,157.499l0,-21.96l-1.62,0l0,19.26l-14.544,-19.26l-1.512,0l0,21.96l1.62,0l0,-19.188l14.58,19.188l1.476,0Z" style="fill:#4a646f;fill-rule:nonzero;"/><path d="M635.177,140.471c-5.112,0 -8.172,3.276 -8.172,8.82c0,5.328 3.024,8.532 8.136,8.532c5.148,0 8.208,-3.204 8.208,-8.532c0,-5.544 -3.06,-8.82 -8.172,-8.82Zm-0.036,15.984c-4.176,0 -6.624,-2.664 -6.624,-7.164c0,-4.68 2.484,-7.452 6.66,-7.452c4.14,0 6.624,2.772 6.624,7.452c0,4.5 -2.484,7.164 -6.66,7.164Z" style="fill:#4a646f;fill-rule:nonzero;"/><path d="M655.985,155.843c-1.476,0.252 -2.052,0.252 -2.7,0.252c-2.232,0 -3.384,-0.756 -3.384,-3.6l0,-10.368l5.544,0l0,-1.332l-5.544,0l0,-4.536l-1.584,0l0,4.536l-2.628,0l0,1.332l2.628,0l0,10.404c0,3.492 1.332,5.004 4.608,5.004c0.792,0 1.62,-0.072 3.24,-0.504l-0.18,-1.188Z" style="fill:#4a646f;fill-rule:nonzero;"/><path d="M660.269,142.775c2.52,-0.648 4.392,-0.9 5.976,-0.9c3.384,0 4.32,1.404 4.32,5.616c-1.872,-0.036 -3.06,-0.036 -5.364,-0.036c-4.68,0 -6.912,1.656 -6.912,5.22c0,3.348 1.872,5.148 5.76,5.148c2.988,0 4.932,-1.404 6.516,-3.42l0,3.096l1.548,0l0,-9.972c0,-4.932 -1.188,-7.056 -5.688,-7.056c-1.872,0 -3.672,0.252 -6.444,1.008l0.288,1.296Zm10.296,5.904l0,4.176c-1.584,2.268 -3.528,3.708 -6.228,3.708c-3.096,0 -4.572,-1.476 -4.572,-3.996c0,-2.808 1.764,-3.888 5.58,-3.888l5.22,0Z" style="fill:#4a646f;fill-rule:nonzero;"/><path d="M689.609,157.499l1.548,0l0,-16.704l-1.548,0l0,11.664c-1.584,2.376 -4.068,3.924 -6.588,3.924c-3.132,0 -4.212,-1.836 -4.212,-5.58l0,-10.008l-1.584,0l0,10.26c0,4.5 1.584,6.768 5.472,6.768c2.7,0 5.184,-1.404 6.912,-3.528l0,3.204Z" style="fill:#4a646f;fill-rule:nonzero;"/><path d="M705.089,133.847c-0.684,-0.18 -1.728,-0.252 -3.024,-0.252c-3.492,0 -4.788,1.836 -4.788,5.328l0,1.872l-2.484,0l0,1.332l2.484,0l0,15.372l1.548,0l0,-15.372l5.724,0l0,-1.332l-5.724,0l0,-1.872c0,-2.556 0.792,-3.996 3.42,-3.996c1.044,0 2.016,0.072 2.7,0.18l0.144,-1.26Z" style="fill:#4a646f;fill-rule:nonzero;"/><path d="M709.337,140.795l-1.584,0l0,16.704l1.584,0l0,-11.772c1.692,-2.376 4.032,-3.78 6.624,-3.78c3.204,0 4.176,1.728 4.176,5.472l0,10.08l1.548,0l0,-10.368c0,-4.5 -1.584,-6.66 -5.544,-6.66c-2.772,0 -5.112,1.26 -6.804,3.42l0,-3.096Z" style="fill:#4a646f;fill-rule:nonzero;"/><path d="M727.733,142.775c2.52,-0.648 4.392,-0.9 5.976,-0.9c3.384,0 4.32,1.404 4.32,5.616c-1.872,-0.036 -3.06,-0.036 -5.364,-0.036c-4.68,0 -6.912,1.656 -6.912,5.22c0,3.348 1.872,5.148 5.76,5.148c2.988,0 4.932,-1.404 6.516,-3.42l0,3.096l1.548,0l0,-9.972c0,-4.932 -1.188,-7.056 -5.688,-7.056c-1.872,0 -3.672,0.252 -6.444,1.008l0.288,1.296Zm10.296,5.904l0,4.176c-1.584,2.268 -3.528,3.708 -6.228,3.708c-3.096,0 -4.572,-1.476 -4.572,-3.996c0,-2.808 1.764,-3.888 5.58,-3.888l5.22,0Z" style="fill:#4a646f;fill-rule:nonzero;"/><path d="M746.597,133.811l-1.584,0l0,23.688l1.584,0l0,-11.664c1.692,-2.412 4.032,-3.852 6.624,-3.852c3.204,0 4.176,1.764 4.176,5.472l0,10.044l1.548,0l0,-10.368c0,-4.5 -1.476,-6.66 -5.4,-6.66c-2.844,0 -5.256,1.296 -6.948,3.528l0,-10.188Z" style="fill:#4a646f;fill-rule:nonzero;"/><path d="M784.181,140.471c-2.268,0 -4.464,1.08 -6.624,3.78c-0.504,-2.556 -2.196,-3.78 -4.896,-3.78c-2.412,0 -4.68,1.296 -6.336,3.456l0,-3.132l-1.584,0l0,16.704l1.584,0l0,-11.736c1.692,-2.412 3.996,-3.816 6.156,-3.816c2.808,0 3.816,1.764 3.816,5.472l0,10.08l1.548,0l0,-10.62c0,-0.324 -0.036,-0.684 -0.072,-1.08c2.052,-2.592 4.212,-3.852 6.228,-3.852c2.808,0 3.78,1.764 3.78,5.472l0,10.08l1.584,0l0,-10.368c0,-4.5 -1.584,-6.66 -5.184,-6.66Z" style="fill:#4a646f;fill-rule:nonzero;"/><path d="M807.473,154.079c-1.836,1.764 -3.924,2.412 -6.156,2.412c-3.24,0 -6.084,-1.764 -6.156,-6.948l13.464,0c0.072,-0.396 0.072,-0.648 0.072,-0.936c-0.18,-5.76 -3.096,-8.136 -7.236,-8.136c-4.212,0 -7.812,2.448 -7.812,8.82c0,6.192 3.456,8.532 7.632,8.532c2.664,0 5.04,-0.792 6.876,-2.772l-0.684,-0.972Zm-12.276,-5.796c0.288,-4.788 3.168,-6.48 6.264,-6.48c3.24,0 5.616,1.8 5.796,6.48l-12.06,0Z" style="fill:#4a646f;fill-rule:nonzero;"/></g></svg>