<svg id="visual" viewBox="0 500 900 100" width="900" height="100" xmlns="http://www.w3.org/2000/svg"
  xmlns:xlink="http://www.w3.org/1999/xlink" version="1.1">
  <rect x="0" y="0" width="900" height="600" fill="#FFFFFF"></rect>
  <path
    d="M0 557L15 556.5C30 556 60 555 90 547.7C120 540.3 150 526.7 180 527.3C210 528 240 543 270 548.2C300 553.3 330 548.7 360 540.7C390 532.7 420 521.3 450 516C480 510.7 510 511.3 540 510.3C570 509.3 600 506.7 630 509.2C660 511.7 690 519.3 720 525.5C750 531.7 780 536.3 810 541.5C840 546.7 870 552.3 885 555.2L900 558L900 601L885 601C870 601 840 601 810 601C780 601 750 601 720 601C690 601 660 601 630 601C600 601 570 601 540 601C510 601 480 601 450 601C420 601 390 601 360 601C330 601 300 601 270 601C240 601 210 601 180 601C150 601 120 601 90 601C60 601 30 601 15 601L0 601Z"
    fill="#eaf8ff"></path>
  <path
    d="M0 568L15 561.2C30 554.3 60 540.7 90 533C120 525.3 150 523.7 180 525.7C210 527.7 240 533.3 270 537.3C300 541.3 330 543.7 360 547C390 550.3 420 554.7 450 552.7C480 550.7 510 542.3 540 535.7C570 529 600 524 630 528.5C660 533 690 547 720 552.7C750 558.3 780 555.7 810 553.7C840 551.7 870 550.3 885 549.7L900 549L900 601L885 601C870 601 840 601 810 601C780 601 750 601 720 601C690 601 660 601 630 601C600 601 570 601 540 601C510 601 480 601 450 601C420 601 390 601 360 601C330 601 300 601 270 601C240 601 210 601 180 601C150 601 120 601 90 601C60 601 30 601 15 601L0 601Z"
    fill="#aad6f0"></path>
  <path
    d="M0 564L15 562.7C30 561.3 60 558.7 90 558.3C120 558 150 560 180 556.2C210 552.3 240 542.7 270 541C300 539.3 330 545.7 360 550.8C390 556 420 560 450 565.2C480 570.3 510 576.7 540 576.3C570 576 600 569 630 565.2C660 561.3 690 560.7 720 559.8C750 559 780 558 810 554.5C840 551 870 545 885 542L900 539L900 601L885 601C870 601 840 601 810 601C780 601 750 601 720 601C690 601 660 601 630 601C600 601 570 601 540 601C510 601 480 601 450 601C420 601 390 601 360 601C330 601 300 601 270 601C240 601 210 601 180 601C150 601 120 601 90 601C60 601 30 601 15 601L0 601Z"
    fill="#6bb2e4"></path>
  <path
    d="M0 594L15 593C30 592 60 590 90 585.8C120 581.7 150 575.3 180 575.7C210 576 240 583 270 586.5C300 590 330 590 360 587.5C390 585 420 580 450 575.8C480 571.7 510 568.3 540 566.8C570 565.3 600 565.7 630 570.8C660 576 690 586 720 586C750 586 780 576 810 571.8C840 567.7 870 569.3 885 570.2L900 571L900 601L885 601C870 601 840 601 810 601C780 601 750 601 720 601C690 601 660 601 630 601C600 601 570 601 540 601C510 601 480 601 450 601C420 601 390 601 360 601C330 601 300 601 270 601C240 601 210 601 180 601C150 601 120 601 90 601C60 601 30 601 15 601L0 601Z"
    fill="#008fd7"></path>
</svg>