<svg width="100%" height="100%" viewBox="0 0 1928 100" version="1.1"
  xmlns="http://www.w3.org/2000/svg" xmlns:xlink="http://www.w3.org/1999/xlink">
  <rect x="0" y="0" width="1928.15" height="100" style="fill:none;" />
  <rect x="-0" y="0" width="1928.15" height="100" style="fill:#fff;" />
  <path
    d="M0,44.523c86.022,-3.859 170.767,-33.869 291.806,-28.897c72.227,2.967 191.542,42.398 237.267,40.874c15,-0.5 45,-1.5 75,-8.8c30,-7.4 60,-21 90,-20.4c30,0.7 60,15.7 90,20.9c30,5.1 60,0.5 90,-7.5c30,-8 60,-19.4 90,-24.7c30,-5.3 60,-4.7 90,-5.7c30,-1 60,-3.6 90,-1.1c30,2.5 60,10.1 90,16.3c30,6.2 60,10.8 90,16c30,5.2 60,10.8 75,13.7c138.226,-32.045 270.261,-69.445 529.073,2.8l-0,43l-1928.15,0l0,-56.477Z"
    style="fill:#eaf8ff;fill-rule:nonzero;" />
  <path
    d="M-0,29.754c102.612,12.719 86.31,19.689 174.428,11.828c46.079,-4.111 105.299,-16.67 155.911,-11.828c91.188,8.723 104.031,25.038 145.405,24.819c28.649,-0.152 98.329,-13.873 128.329,-21.573c30,-7.7 60,-9.3 90,-7.3c30,2 60,7.6 90,11.6c30,4 60,6.4 90,9.7c30,3.3 60,7.7 90,5.7c30,-2 60,-10.4 90,-17c30,-6.7 60,-11.7 90,-7.2c30,4.5 60,18.5 90,24.2c30,5.6 60,3 90,1c30,-2 59.988,-4.107 75,-4c80.575,0.572 103.505,-7.607 211.824,-6.947c42.487,0.259 80.972,2.665 126.211,0.27c67.303,-3.563 141.853,7.507 191.038,5.977l-0,52l-1928.15,0l-0,-71.246Z"
    style="fill:#aad6f0;fill-rule:nonzero;" />
  <path
    d="M0,64c170.058,4.377 338.954,9.642 529.073,-1.3c15,-1.4 45,-4 75,-4.4c30,-0.3 60,1.7 90,-2.1c30,-3.9 60,-13.5 90,-15.2c30,-1.7 60,4.7 90,9.8c30,5.2 60,9.2 90,14.4c30,5.1 60,11.5 90,11.1c30,-0.3 60,-7.3 90,-11.1c30,-3.9 60,-4.5 90,-5.4c30,-0.8 60,-1.8 90,-5.3c30,-3.5 78.034,-5.548 96.463,-4.5c51.031,2.901 90.215,13.556 153.451,12.957c48.275,-0.458 129.94,-18.199 181.227,-21.787c67.797,-4.743 105.636,-3.797 172.932,-2.17l-0,62l-1928.15,0l0,-37Z"
    style="fill:#6bb2e4;fill-rule:nonzero;" />
  <path
    d="M0,94c26.295,0.841 66.748,-29.643 107.334,-31.043c32.293,-1.115 107.113,29.477 138.119,27.008c66.048,-5.26 73.864,-16.098 118.998,-16.142c83.346,-0.083 79.781,23.155 164.622,19.177c15,-1 45,-3 75,-7.2c30,-4.1 60,-10.5 90,-10.1c30,0.3 60,7.3 90,10.8c30,3.5 60,3.5 90,1c30,-2.5 60,-7.5 90,-11.7c30,-4.1 60,-7.5 90,-9c30,-1.5 60,-1.1 90,4c30,5.2 60,15.2 90,15.2c30,0 60,-10 90,-14.2c30,-4.1 60,-2.5 75,-1.6c175.608,18.244 352.587,3.601 529.073,0.8l-0,30l-1928.15,0l-0,-7Z"
    style="fill:#008fd7;fill-rule:nonzero;" />
</svg>