<svg viewBox="0 0 131 40" xmlns="http://www.w3.org/2000/svg" fill-rule="evenodd" clip-rule="evenodd" stroke-linecap="round" stroke-linejoin="round" stroke-miterlimit="1.41"><path d="M52.83 6.99h-5.29v18.65h5.29V19.6c1.1 1.2 1.9 1.87 4.05 1.87 2.95 0 5.55-2.2 5.55-7.5 0-5.06-1.78-7.22-5.25-7.22-1.64 0-2.95.59-4.35 1.84V7zm0 5.54c.7-.9 1.43-1.37 2.39-1.37 1.28 0 1.99.82 1.99 2.77 0 2.22-.76 3.19-2.1 3.19-1.09 0-1.7-.44-2.28-1.29v-3.3z" fill="#00a1df" fill-rule="nonzero"/><path d="M52.83 6.99h-5.29v18.65h5.29V19.6c1.1 1.2 1.9 1.87 4.05 1.87 2.95 0 5.55-2.2 5.55-7.5 0-5.06-1.78-7.22-5.25-7.22-1.64 0-2.95.59-4.35 1.84V7zm0 5.54c.7-.9 1.43-1.37 2.39-1.37 1.28 0 1.99.82 1.99 2.77 0 2.22-.76 3.19-2.1 3.19-1.09 0-1.7-.44-2.28-1.29v-3.3z" fill="#00a1df" fill-rule="nonzero"/><path d="M90.35 17.2c-.67.04-1.2.04-1.81.04-1.32 0-1.64-.62-1.64-1.67v-4.2h3.33V7.02H86.9V3.97h-5.28V7h-1.93v4.36h1.93v4.43c0 4.06 1.46 5.64 4.87 5.64 1.58 0 3.39-.44 4.38-1.05l-.52-3.18z" fill="#00a0dd" fill-rule="nonzero"/><path d="M90.35 17.2c-.67.04-1.2.04-1.81.04-1.32 0-1.64-.62-1.64-1.67v-4.2h3.33V7.02H86.9V3.97h-5.28V7h-1.93v4.36h1.93v4.43c0 4.06 1.46 5.64 4.87 5.64 1.58 0 3.39-.44 4.38-1.05l-.52-3.18zM40.38 21.21h5.29V6.99h-5.29v1.6c-1.1-1.2-1.9-1.86-4.06-1.86-2.94 0-5.54 2.19-5.54 7.5 0 5.05 1.78 7.21 5.25 7.21 1.64 0 2.95-.58 4.35-1.84v1.61zm0-5.55c-.7.9-1.43 1.37-2.4 1.37-1.27 0-1.98-.81-1.98-2.77 0-2.22.76-3.18 2.1-3.18 1.09 0 1.7.44 2.28 1.28v3.3z" fill="#00a0dd" fill-rule="nonzero"/><path fill="#00a0dd" d="M92.39 6.99h5.29v14.22h-5.29z"/><path fill="#00a0dd" d="M92.39 6.99h5.29v14.22h-5.29z"/><path d="M69.26 6.99h-5.28v18.65h5.28V19.6c1.11 1.2 1.9 1.87 4.06 1.87 2.95 0 5.55-2.2 5.55-7.5 0-5.06-1.78-7.22-5.26-7.22-1.63 0-2.94.59-4.35 1.84V7zm0 5.54c.7-.9 1.43-1.37 2.4-1.37 1.28 0 1.98.82 1.98 2.77 0 2.22-.76 3.19-2.1 3.19-1.08 0-1.7-.44-2.28-1.29v-3.3z" fill="#00a1df" fill-rule="nonzero"/><path d="M69.26 6.99h-5.28v18.65h5.28V19.6c1.11 1.2 1.9 1.87 4.06 1.87 2.95 0 5.55-2.2 5.55-7.5 0-5.06-1.78-7.22-5.26-7.22-1.63 0-2.94.59-4.35 1.84V7zm0 5.54c.7-.9 1.43-1.37 2.4-1.37 1.28 0 1.98.82 1.98 2.77 0 2.22-.76 3.19-2.1 3.19-1.08 0-1.7-.44-2.28-1.29v-3.3z" fill="#00a1df" fill-rule="nonzero"/><path d="M110.06 21.2l5.28-14.19h-5.46l-2.13 6.46-.61 2.1c-.18-.7-.38-1.43-.59-2.1L104.42 7h-5.46l5.29 14.2h5.8z" fill="#00a0dd" fill-rule="nonzero"/><path d="M110.06 21.2l5.28-14.19h-5.46l-2.13 6.46-.61 2.1c-.18-.7-.38-1.43-.59-2.1L104.42 7h-5.46l5.29 14.2h5.8zM124.52 21.21h5.28V6.99h-5.28v1.6c-1.11-1.2-1.9-1.86-4.06-1.86-2.95 0-5.55 2.19-5.55 7.5 0 5.05 1.78 7.21 5.26 7.21 1.63 0 2.95-.58 4.35-1.84v1.61zm0-5.55c-.7.9-1.43 1.37-2.4 1.37-1.28 0-1.98-.81-1.98-2.77 0-2.22.76-3.18 2.1-3.18 1.08 0 1.7.44 2.28 1.28v3.3z" fill="#00a0dd" fill-rule="nonzero"/><path d="M124.52 21.21h5.28V6.99h-5.28v1.6c-1.11-1.2-1.9-1.86-4.06-1.86-2.95 0-5.55 2.19-5.55 7.5 0 5.05 1.78 7.21 5.26 7.21 1.63 0 2.95-.58 4.35-1.84v1.61zm0-5.55c-.7.9-1.43 1.37-2.4 1.37-1.28 0-1.98-.81-1.98-2.77 0-2.22.76-3.18 2.1-3.18 1.08 0 1.7.44 2.28 1.28v3.3z" fill="#00a0dd" fill-rule="nonzero"/><path d="M21.73 7.27c0-1.85-1.5-3.34-3.35-3.34H4.78a3.35 3.35 0 0 0-3.35 3.34V20.9c0 1.85 1.5 3.35 3.35 3.35h13.6c1.85 0 3.35-1.5 3.35-3.35V7.27z" fill="none" stroke="#80d741" stroke-width="2.51"/><path d="M21.73 7.27c0-1.85-1.5-3.34-3.35-3.34H4.78a3.35 3.35 0 0 0-3.35 3.34V20.9c0 1.85 1.5 3.35 3.35 3.35h13.6c1.85 0 3.35-1.5 3.35-3.35V7.27z" fill="none" stroke="#80d741" stroke-width="2.51"/><circle cx="14.41" cy="12.13" r="3.68" fill="#008fd7"/><circle cx="14.41" cy="12.13" r="3.68" fill="#00a0dd"/><path d="M92.04 2.87c0 1.78 1.43 2.69 2.98 2.69S98 4.64 98 2.85c0-1.8-1.43-2.7-2.98-2.7s-2.98.9-2.98 2.7z" fill="#80d741"/><path d="M92.04 2.87c0 1.78 1.43 2.69 2.98 2.69S98 4.64 98 2.85c0-1.8-1.43-2.7-2.98-2.7s-2.98.9-2.98 2.7z" fill="#80d741"/><path d="M.15 30.95v6.25h.46v-2.1h1.5c1.6 0 2.42-.69 2.42-2.07 0-1.4-.81-2.08-2.44-2.08H.15zm.46 3.72v-3.29H2.1c1.33 0 1.99.54 1.99 1.65 0 1.1-.66 1.64-1.98 1.64H.6zM5.53 33a6.8 6.8 0 0 1 1.7-.25c.97 0 1.23.4 1.23 1.6H6.94c-1.34 0-1.97.46-1.97 1.48 0 .95.53 1.46 1.64 1.46.85 0 1.4-.4 1.85-.97v.88h.44v-2.84c0-1.4-.33-2-1.62-2-.53 0-1.04.07-1.83.28l.08.37zm2.93 1.69v1.19c-.45.64-1 1.05-1.77 1.05-.88 0-1.3-.42-1.3-1.13 0-.8.5-1.11 1.59-1.11h1.48zM13.4 32.77a4 4 0 0 0-1.74-.42c-.93 0-1.49.45-1.49 1.21 0 .7.44.97 1.54 1.32 1.1.37 1.46.57 1.46 1.15 0 .68-.55.87-1.2.87-.67 0-1.37-.26-1.83-.7l-.2.3c.49.5 1.33.8 2.04.8.89 0 1.6-.37 1.6-1.27 0-.78-.41-1.08-1.66-1.5-.9-.3-1.33-.46-1.33-.98 0-.51.4-.83 1.06-.83.5 0 1.14.16 1.6.4l.14-.35zM17.67 32.77a4 4 0 0 0-1.73-.42c-.93 0-1.48.45-1.48 1.21 0 .7.44.97 1.53 1.32 1.1.37 1.46.57 1.46 1.15 0 .68-.54.87-1.19.87-.68 0-1.37-.26-1.83-.7l-.2.3c.48.5 1.32.8 2.03.8.9 0 1.6-.37 1.6-1.27 0-.78-.41-1.08-1.66-1.5-.9-.3-1.32-.46-1.32-.98 0-.51.39-.83 1.05-.83.5 0 1.14.16 1.61.4l.13-.35zM23.16 32.45h-.45v.78a2.73 2.73 0 0 0-1.95-.88c-1.15 0-1.95.65-1.95 2.46 0 1.58.98 2.17 2.06 2.17.85 0 1.33-.31 1.84-.9v.46c0 1.24-.63 1.8-1.6 1.8-.78 0-1.36-.19-1.93-.52l-.13.34c.56.37 1.23.58 2.1.58 1.17 0 2-.65 2-2.2v-4.1zm-.45 3.15c-.49.62-.97 1.02-1.75 1.02-.85 0-1.7-.45-1.7-1.8 0-1.57.67-2.08 1.6-2.08.7 0 1.36.38 1.86.99v1.87zM28.2 36.23c-.52.5-1.1.68-1.75.68-.92 0-1.73-.5-1.75-1.97h3.83c.03-.12.03-.19.03-.27-.05-1.64-.88-2.32-2.06-2.32-1.2 0-2.23.7-2.23 2.51 0 1.77.99 2.43 2.18 2.43.75 0 1.43-.22 1.95-.79l-.2-.27zm-3.49-1.65c.08-1.37.9-1.85 1.79-1.85.92 0 1.6.51 1.65 1.85H24.7zM30.28 32.45h-.45v4.75h.45v-3.35a2.33 2.33 0 0 1 1.88-1.08c.92 0 1.2.5 1.2 1.56v2.87h.43v-2.95c0-1.28-.45-1.9-1.58-1.9-.78 0-1.45.36-1.93.98v-.88zM35.51 33a6.8 6.8 0 0 1 1.7-.25c.97 0 1.23.4 1.23 1.6h-1.52c-1.34 0-1.97.46-1.97 1.48 0 .95.53 1.46 1.64 1.46.85 0 1.4-.4 1.85-.97v.88h.44v-2.84c0-1.4-.33-2-1.61-2a6.6 6.6 0 0 0-1.84.28l.08.37zm2.93 1.69v1.19c-.45.64-1 1.05-1.77 1.05-.88 0-1.3-.42-1.3-1.13 0-.8.5-1.11 1.59-1.11h1.48zM43.86 37.2h.44v-4.75h-.44v3.31A2.35 2.35 0 0 1 42 36.88c-.9 0-1.2-.52-1.2-1.59v-2.85h-.45v2.92c0 1.29.45 1.93 1.56 1.93.76 0 1.47-.4 1.96-1v.91zM49.51 36.23c-.52.5-1.12.68-1.75.68-.92 0-1.73-.5-1.75-1.97h3.83c.02-.12.02-.19.02-.27-.05-1.64-.88-2.32-2.06-2.32-1.2 0-2.22.7-2.22 2.51 0 1.77.98 2.43 2.17 2.43.76 0 1.43-.22 1.96-.79l-.2-.27zm-3.5-1.65c.09-1.37.9-1.85 1.79-1.85.92 0 1.6.51 1.65 1.85h-3.43zM57.62 31.36a5.01 5.01 0 0 0-2.22-.51c-1.14 0-1.86.63-1.86 1.5 0 1.08.64 1.35 1.96 1.79 1.5.5 1.89.79 1.89 1.55s-.51 1.18-1.54 1.18c-.83 0-1.7-.3-2.4-.9l-.22.35c.69.62 1.66.97 2.63.97 1.05 0 2-.43 2-1.65 0-.95-.56-1.38-2.03-1.86-1.4-.47-1.82-.7-1.82-1.46 0-.56.53-1.06 1.4-1.06.7 0 1.42.15 2.05.47l.15-.37zM61.05 32.35c-1.46 0-2.33.94-2.33 2.51 0 1.52.86 2.43 2.32 2.43s2.33-.91 2.33-2.43c0-1.57-.87-2.5-2.32-2.5zm-.01 4.55c-1.2 0-1.89-.76-1.89-2.04 0-1.33.7-2.12 1.9-2.12 1.18 0 1.88.8 1.88 2.12 0 1.28-.7 2.04-1.9 2.04zM67.03 30.47c-.2-.05-.49-.07-.86-.07-1 0-1.36.52-1.36 1.51v.53h-.7v.38h.7v4.38h.44v-4.38h1.63v-.38h-1.63v-.53c0-.73.22-1.14.97-1.14.3 0 .58.03.77.06l.04-.36zM70.1 36.73c-.41.07-.58.07-.76.07-.64 0-.97-.21-.97-1.02v-2.96h1.58v-.37h-1.58v-1.3h-.45v1.3h-.74v.37h.74v2.97c0 .99.38 1.42 1.32 1.42.22 0 .46-.02.92-.14l-.05-.34zM75.82 37.2l1.7-4.75h-.45L75.8 36l-.22.68-.2-.68-1.13-3.56h-.43L72.68 36c-.08.25-.15.47-.2.68l-.22-.68-1.28-3.56h-.44l1.69 4.76h.5l1.3-4.03 1.3 4.03h.5zM78.48 33a6.8 6.8 0 0 1 1.7-.25c.96 0 1.23.4 1.23 1.6h-1.53c-1.33 0-1.97.46-1.97 1.48 0 .95.54 1.46 1.64 1.46.85 0 1.4-.4 1.86-.97v.88h.44v-2.84c0-1.4-.34-2-1.62-2-.53 0-1.05.07-1.84.28l.09.37zm2.93 1.69v1.19c-.45.64-1 1.05-1.77 1.05-.89 0-1.3-.42-1.3-1.13 0-.8.5-1.11 1.58-1.11h1.49zM83.9 32.45h-.45v4.75h.45v-3.01c.27-.92.85-1.4 1.52-1.4.18 0 .34 0 .59.02l.04-.43c-.28-.03-.44-.03-.62-.03-.68 0-1.33.49-1.53 1.17v-1.07zM90.31 36.23c-.52.5-1.12.68-1.75.68-.92 0-1.73-.5-1.75-1.97h3.83c.02-.12.02-.19.02-.27-.05-1.64-.88-2.32-2.06-2.32-1.2 0-2.22.7-2.22 2.51 0 1.77.98 2.43 2.17 2.43.76 0 1.43-.22 1.96-.79l-.2-.27zm-3.5-1.65c.09-1.37.9-1.85 1.8-1.85.91 0 1.59.51 1.64 1.85h-3.43zM91.93 30.46h.45v6.74h-.45zM95.1 30.67c-.17 0-.3.11-.3.31 0 .18.13.3.3.3.2 0 .32-.12.32-.3 0-.2-.13-.3-.31-.3zm1.81 0c-.17 0-.3.11-.3.31 0 .18.13.3.3.3.18 0 .32-.12.32-.3 0-.2-.15-.3-.32-.3zm-.9 1.68c-1.45 0-2.32.94-2.32 2.51 0 1.52.86 2.43 2.32 2.43s2.34-.91 2.34-2.43c0-1.57-.88-2.5-2.33-2.5zm0 4.55c-1.19 0-1.89-.76-1.89-2.04 0-1.33.71-2.12 1.9-2.12 1.18 0 1.88.8 1.88 2.12 0 1.28-.7 2.04-1.9 2.04zM102.56 32.77a4 4 0 0 0-1.74-.42c-.93 0-1.48.45-1.48 1.21 0 .7.44.97 1.54 1.32 1.1.37 1.45.57 1.45 1.15 0 .68-.54.87-1.19.87-.67 0-1.37-.26-1.83-.7l-.2.3c.48.5 1.32.8 2.03.8.9 0 1.61-.37 1.61-1.27 0-.78-.42-1.08-1.67-1.5-.9-.3-1.32-.46-1.32-.98 0-.51.39-.83 1.05-.83.5 0 1.14.16 1.61.4l.14-.35zM107.45 37.2h.44v-4.75h-.44v3.31a2.35 2.35 0 0 1-1.87 1.12c-.9 0-1.2-.52-1.2-1.59v-2.85h-.45v2.92c0 1.29.45 1.93 1.56 1.93.77 0 1.47-.4 1.96-1v.91zM110.06 32.45h-.45v4.75h.45v-3.35a2.33 2.33 0 0 1 1.88-1.08c.91 0 1.2.5 1.2 1.56v2.87h.43v-2.95c0-1.28-.45-1.9-1.58-1.9a2.4 2.4 0 0 0-1.93.98v-.88zM119.19 32.45h-.44v.78a2.73 2.73 0 0 0-1.96-.88c-1.15 0-1.95.65-1.95 2.46 0 1.58.99 2.17 2.06 2.17.85 0 1.33-.31 1.85-.9v.46c0 1.24-.64 1.8-1.61 1.8-.78 0-1.35-.19-1.93-.52l-.13.34c.56.37 1.23.58 2.1.58 1.17 0 2-.65 2-2.2v-4.1zm-.44 3.15c-.5.62-.98 1.02-1.76 1.02-.85 0-1.7-.45-1.7-1.8 0-1.57.67-2.08 1.6-2.08.7 0 1.36.38 1.86.99v1.87zM124.24 36.23c-.52.5-1.12.68-1.75.68-.93 0-1.74-.5-1.76-1.97h3.84c.02-.12.02-.19.02-.27-.06-1.64-.89-2.32-2.06-2.32-1.2 0-2.23.7-2.23 2.51 0 1.77.99 2.43 2.18 2.43.75 0 1.43-.22 1.95-.79l-.2-.27zm-3.5-1.65c.09-1.37.9-1.85 1.79-1.85.92 0 1.6.51 1.65 1.85h-3.44zM126.3 32.45h-.44v4.75h.45v-3.35a2.33 2.33 0 0 1 1.88-1.08c.92 0 1.2.5 1.2 1.56v2.87h.43v-2.95c0-1.28-.45-1.9-1.58-1.9a2.4 2.4 0 0 0-1.93.98v-.88z" fill="gray" fill-rule="nonzero"/></svg>