<svg viewBox="0 0 542 107" xmlns="http://www.w3.org/2000/svg" fill-rule="evenodd" clip-rule="evenodd" stroke-linecap="round" stroke-linejoin="round" stroke-miterlimit="1.4"><path d="M220.1 29.3h-22V107h22V81.8c4.6 5 8 7.8 17 7.8 12.2 0 23-9.1 23-31.3 0-21-7.4-30-21.9-30-6.8 0-12.3 2.4-18.1 7.6v-6.7zm0 23c3-3.7 6-5.6 10-5.6 5.3 0 8.2 3.3 8.2 11.5 0 9.3-3.1 13.3-8.7 13.3-4.5 0-7-1.9-9.5-5.4V52.4z" fill="#00a0dd" fill-rule="nonzero"/><path d="M220.1 29.3h-22V107h22V81.8c4.6 5 8 7.8 17 7.8 12.2 0 23-9.1 23-31.3 0-21-7.4-30-21.9-30-6.8 0-12.3 2.4-18.1 7.6v-6.7zm0 23c3-3.7 6-5.6 10-5.6 5.3 0 8.2 3.3 8.2 11.5 0 9.3-3.1 13.3-8.7 13.3-4.5 0-7-1.9-9.5-5.4V52.4zm156.3 19.5c-2.8.2-5 .2-7.5.2-5.5 0-6.8-2.6-6.8-7V47.5h13.8V29.4h-13.8V16.7h-22v12.7h-8v18.1h8V66c0 16.9 6 23.5 20.3 23.5 6.6 0 14-1.9 18.2-4.4l-2.2-13.3z" fill="#00a0dd" fill-rule="nonzero"/><path d="M376.4 71.8c-2.8.2-5 .2-7.5.2-5.5 0-6.8-2.6-6.8-7V47.5h13.8V29.4h-13.8V16.7h-22v12.7h-8v18.1h8V66c0 16.9 6 23.5 20.3 23.5 6.6 0 14-1.9 18.2-4.4l-2.2-13.3zM168.3 88.5h22V29.3h-22V36c-4.7-5-8-7.8-17-7.8-12.2 0-23 9.1-23 31.2 0 21 7.4 30 21.8 30 6.9 0 12.3-2.3 18.2-7.6v6.7zm0-23.1c-3 3.8-6 5.7-10 5.7-5.4 0-8.3-3.4-8.3-11.5 0-9.3 3.2-13.3 8.8-13.3 4.5 0 7 1.8 9.5 5.3v13.8z" fill="#00a0dd" fill-rule="nonzero"/><path fill="#00a0dd" d="M385 29.3h22v59.2h-22z"/><path fill="#00a0dd" d="M385 29.3h22v59.2h-22z"/><path d="M288.6 29.3h-22V107h22V81.8c4.6 5 7.9 7.8 17 7.8 12.2 0 23-9.1 23-31.3 0-21-7.4-30-21.9-30-6.8 0-12.3 2.4-18.1 7.6v-6.7zm0 23c3-3.7 6-5.6 10-5.6 5.3 0 8.3 3.3 8.3 11.5 0 9.3-3.2 13.3-8.8 13.3-4.5 0-7-1.9-9.5-5.4V52.4z" fill="#00a0dd" fill-rule="nonzero"/><path d="M288.6 29.3h-22V107h22V81.8c4.6 5 7.9 7.8 17 7.8 12.2 0 23-9.1 23-31.3 0-21-7.4-30-21.9-30-6.8 0-12.3 2.4-18.1 7.6v-6.7zm0 23c3-3.7 6-5.6 10-5.6 5.3 0 8.3 3.3 8.3 11.5 0 9.3-3.2 13.3-8.8 13.3-4.5 0-7-1.9-9.5-5.4V52.4zm170 36.2l22-59.1h-22.8L449 56.3l-2.5 8.7-2.4-8.7-9-27h-22.7l22 59.2h24.3z" fill="#00a0dd" fill-rule="nonzero"/><path d="M458.6 88.5l22-59.1h-22.8L449 56.3l-2.5 8.7-2.4-8.7-9-27h-22.7l22 59.2h24.3zm60.2 0h22V29.3h-22V36c-4.6-5-7.9-7.8-16.9-7.8-12.3 0-23.1 9.1-23.1 31.2 0 21 7.4 30 21.9 30 6.8 0 12.3-2.3 18.1-7.6v6.7zm0-23.1c-2.9 3.8-6 5.7-10 5.7-5.3 0-8.2-3.4-8.2-11.5 0-9.3 3.1-13.3 8.7-13.3 4.5 0 7 1.8 9.5 5.3v13.8z" fill="#00a0dd" fill-rule="nonzero"/><path d="M518.8 88.5h22V29.3h-22V36c-4.6-5-7.9-7.8-16.9-7.8-12.3 0-23.1 9.1-23.1 31.2 0 21 7.4 30 21.9 30 6.8 0 12.3-2.3 18.1-7.6v6.7zm0-23.1c-2.9 3.8-6 5.7-10 5.7-5.3 0-8.2-3.4-8.2-11.5 0-9.3 3.1-13.3 8.7-13.3 4.5 0 7 1.8 9.5 5.3v13.8z" fill="#00a0dd" fill-rule="nonzero"/><path d="M493.4 439a54.2 54.2 0 0 0-55.1-53.1H214.4c-30.4 0-55 23.8-55 53.2v216.4a54.2 54.2 0 0 0 55 53.2h223.9c30.4 0 55-23.8 55-53.2V439.1z" fill="none" stroke-width="40.6" stroke="#80d741" transform="matrix(.25321 0 0 .26229 -34.4 -84.7)"/><path d="M493.4 439a54.2 54.2 0 0 0-55.1-53.1H214.4c-30.4 0-55 23.8-55 53.2v216.4a54.2 54.2 0 0 0 55 53.2h223.9c30.4 0 55-23.8 55-53.2V439.1z" fill="none" stroke-width="40.6" stroke="#80d741" transform="matrix(.25321 0 0 .26229 -34.4 -84.7)"/><circle cx="1591.5" cy="6227.9" r="86.4" fill="#00a1df" transform="translate(-222.4 -1054.5) scale(.17747)"/><circle cx="1591.5" cy="6227.9" r="86.4" fill="#00a0dd" transform="translate(-222.4 -1054.5) scale(.17747)"/><path d="M383.5 12.1c0 7.4 6 11.2 12.4 11.2 6.5 0 12.4-3.8 12.4-11.2 0-7.5-6-11.3-12.4-11.3S383.5 4.6 383.5 12z" fill="#80d741"/><path d="M383.5 12.1c0 7.4 6 11.2 12.4 11.2 6.5 0 12.4-3.8 12.4-11.2 0-7.5-6-11.3-12.4-11.3S383.5 4.6 383.5 12z" fill="#80d741"/></svg>