<?xml version="1.0" encoding="UTF-8" standalone="no"?>
<!DOCTYPE svg PUBLIC "-//W3C//DTD SVG 1.1//EN" "http://www.w3.org/Graphics/SVG/1.1/DTD/svg11.dtd">
<svg width="100%" height="100%" viewBox="0 0 318 240" version="1.1" xmlns="http://www.w3.org/2000/svg" xmlns:xlink="http://www.w3.org/1999/xlink" xml:space="preserve" xmlns:serif="http://www.serif.com/" style="fill-rule:evenodd;clip-rule:evenodd;stroke-linejoin:round;stroke-miterlimit:2;">
    <g transform="matrix(2,0,0,2,0,0)">
        <path d="M15.471,88.126L15.275,88.126C13.178,88.132 10.684,86.894 9.663,84.865C9.566,84.668 9.499,84.439 9.498,84.242C9.496,83.523 10.117,83.029 10.774,83.027C11.165,83.026 11.593,83.156 11.888,83.581C12.71,84.66 14.121,85.64 15.334,85.637L15.497,85.636C17.495,85.631 18.639,84.514 18.637,83.433C18.692,79.075 10.117,82.374 10.1,76.15C10.093,73.005 13.399,71.947 15.463,71.942L15.594,71.942C17.855,71.936 19.329,72.915 19.889,73.34C20.217,73.601 20.348,73.928 20.349,74.289C20.351,74.878 19.862,75.469 19.173,75.471C18.945,75.471 18.715,75.406 18.451,75.276C17.763,74.949 17.04,74.395 15.567,74.399L15.435,74.4C13.601,74.403 12.62,75.226 12.591,76.176C12.533,79.746 21.111,76.842 21.127,83.361L21.127,83.492C21.135,86.506 18.222,88.118 15.471,88.126Z" style="fill:white;fill-rule:nonzero;"/>
        <path d="M43.237,73.444L39.406,87.148C39.276,87.573 38.884,88.065 38.196,88.068L37.934,88.069C37.344,88.069 36.819,87.548 36.687,87.121C35.893,84.306 33.777,76.448 33.58,75.958C33.417,76.483 31.341,84.351 30.593,87.137C30.497,87.564 30.007,88.089 29.383,88.09L29.089,88.091C28.401,88.093 28.007,87.603 27.875,87.177L24.007,73.492C23.973,73.361 23.94,73.264 23.94,73.132C23.938,72.444 24.462,71.919 25.215,71.917C25.706,71.916 26.199,72.176 26.396,72.831L29.239,82.783L32.162,72.784C32.325,72.227 32.783,71.898 33.569,71.896L33.601,71.896C34.585,71.893 34.881,72.286 35.012,72.776L38.019,82.793L40.843,72.794C41.039,72.138 41.497,71.875 41.988,71.874C42.742,71.872 43.267,72.396 43.269,73.083C43.269,73.215 43.27,73.313 43.237,73.444Z" style="fill:white;fill-rule:nonzero;"/>
        <path d="M48.411,68.221C47.789,68.223 47.165,67.798 47.163,66.979L47.161,66.259C47.159,65.439 47.781,65.013 48.403,65.011C49.026,65.009 49.649,65.434 49.651,66.253L49.653,66.974C49.655,67.792 49.034,68.219 48.411,68.221ZM48.462,88.041C47.84,88.043 47.216,87.618 47.214,86.8L47.179,73.106C47.177,72.286 47.799,71.86 48.421,71.858C49.044,71.856 49.667,72.28 49.669,73.1L49.704,86.794C49.706,87.612 49.085,88.039 48.462,88.041Z" style="fill:white;fill-rule:nonzero;"/>
        <path d="M59.611,88.013L59.415,88.013C57.318,88.019 54.825,86.78 53.804,84.752C53.706,84.555 53.64,84.324 53.639,84.129C53.637,83.409 54.258,82.916 54.914,82.914C55.306,82.913 55.733,83.043 56.029,83.468C56.85,84.547 58.262,85.526 59.474,85.524L59.638,85.524C61.636,85.519 62.78,84.4 62.777,83.319C62.832,78.962 54.257,82.261 54.241,76.036C54.233,72.892 57.539,71.834 59.603,71.829L59.734,71.828C61.995,71.822 63.47,72.803 64.03,73.227C64.357,73.487 64.489,73.814 64.49,74.176C64.492,74.765 64.002,75.356 63.313,75.358C63.085,75.358 62.855,75.293 62.592,75.163C61.904,74.837 61.181,74.282 59.707,74.285L59.576,74.286C57.742,74.291 56.761,75.112 56.731,76.063C56.673,79.633 65.251,76.729 65.267,83.248L65.267,83.379C65.275,86.393 62.363,88.006 59.611,88.013Z" style="fill:white;fill-rule:nonzero;"/>
        <path d="M74.566,87.975L74.37,87.975C72.273,87.981 69.78,86.742 68.759,84.714C68.661,84.517 68.595,84.286 68.594,84.091C68.592,83.371 69.213,82.878 69.869,82.876C70.261,82.875 70.688,83.005 70.984,83.43C71.805,84.509 73.217,85.488 74.429,85.485L74.593,85.485C76.591,85.48 77.735,84.362 77.732,83.281C77.787,78.924 69.212,82.223 69.196,75.998C69.188,72.854 72.494,71.796 74.558,71.791L74.689,71.79C76.95,71.784 78.425,72.764 78.985,73.189C79.312,73.449 79.444,73.776 79.445,74.138C79.447,74.727 78.957,75.318 78.268,75.319C78.04,75.319 77.81,75.255 77.547,75.125C76.859,74.799 76.136,74.243 74.662,74.247L74.531,74.248C72.697,74.252 71.716,75.074 71.686,76.025C71.628,79.595 80.206,76.69 80.222,83.21L80.222,83.341C80.23,86.355 77.318,87.967 74.566,87.975Z" style="fill:white;fill-rule:nonzero;"/>
        <path d="M110.657,87.882C110.035,87.884 109.412,87.459 109.41,86.641L109.386,76.944C109.381,75.142 108.264,74.194 106.593,74.199L106.298,74.199C104.726,74.203 103.485,75.419 103.488,77.025L103.513,86.59C103.515,87.443 102.894,87.901 102.271,87.902C101.649,87.905 101.026,87.448 101.024,86.596L100.999,77.03C100.995,75.392 99.746,74.217 98.174,74.221L97.879,74.221C96.404,74.225 95.064,75.244 95.068,76.751L95.095,86.678C95.096,87.496 94.473,87.923 93.851,87.925C93.228,87.927 92.605,87.502 92.603,86.684L92.568,72.989C92.566,72.203 93.187,71.743 93.843,71.741C94.367,71.74 94.925,72.067 95.057,72.722C95.645,72.13 96.725,71.733 97.873,71.731L98.168,71.731C99.805,71.726 101.249,72.444 102.235,73.587C103.215,72.438 104.655,71.714 106.292,71.709L106.587,71.709C109.372,71.701 111.865,73.333 111.875,76.938L111.9,86.635C111.902,87.453 111.28,87.88 110.657,87.882Z" style="fill:white;fill-rule:nonzero;"/>
        <path d="M127.219,87.839L126.99,87.808C125.875,87.647 125.187,87.157 124.759,86.535C123.812,87.358 122.568,87.852 121.224,87.855L120.929,87.856C118.276,87.862 115.651,86.198 115.643,83.152C115.643,83.021 115.642,82.89 115.642,82.759C115.858,77.582 123.134,78.481 123.917,77.364C124.015,77.233 124.014,76.972 124.013,76.808C124.008,74.875 122.793,74.157 121.353,74.161L121.123,74.161C119.78,74.165 119.094,74.724 118.475,75.806C118.214,76.266 117.787,76.463 117.362,76.464C116.739,76.465 116.116,76.009 116.114,75.321C116.114,75.125 116.146,74.928 116.244,74.731C117.286,72.37 119.381,71.676 121.117,71.671L121.347,71.671C124.263,71.663 126.496,73.885 126.502,76.702L126.523,84.303C126.525,84.893 126.787,85.286 127.376,85.381C128.098,85.511 128.427,86.034 128.429,86.559C128.431,87.214 128.006,87.838 127.219,87.839ZM124.022,79.985C121.599,80.647 118.225,80.525 118.132,82.818C118.133,83.014 118.132,82.916 118.133,83.079C118.137,84.488 119.252,85.37 120.923,85.366L121.218,85.365C122.758,85.361 124.032,84.113 124.029,82.573L124.022,79.985Z" style="fill:white;fill-rule:nonzero;"/>
        <path d="M141.054,87.804C140.496,87.806 139.906,87.48 139.84,86.824C139.382,87.285 138.433,87.811 137.025,87.814L136.73,87.815C133.78,87.822 131.416,85.471 131.409,82.555L131.395,76.92C131.386,74.005 133.739,71.639 136.689,71.632L136.917,71.631C138.065,71.628 139.212,72.019 139.771,72.705L139.753,66.023C139.751,65.203 140.372,64.776 140.995,64.774C141.617,64.773 142.241,65.197 142.243,66.016L142.296,86.622C142.298,87.407 141.676,87.803 141.054,87.804ZM139.78,76.637C139.777,75.13 138.463,74.117 136.989,74.121L136.695,74.122C135.121,74.126 133.881,75.373 133.884,76.913L133.9,82.548C133.904,84.088 135.151,85.33 136.691,85.326L137.019,85.324C138.492,85.321 139.8,84.335 139.796,82.731L139.78,76.637Z" style="fill:white;fill-rule:nonzero;"/>
        <path d="M156.401,80.819L149.259,80.838L149.264,82.509C149.268,84.049 150.515,85.291 152.055,85.286L152.383,85.286C153.66,85.282 154.51,84.526 154.933,83.608C155.161,83.051 155.586,82.82 156.012,82.819C156.667,82.818 157.292,83.373 157.294,84.094C157.294,84.258 157.262,84.453 157.163,84.65C156.382,86.487 154.584,87.77 152.389,87.775L152.061,87.775C149.145,87.783 146.78,85.431 146.774,82.515L146.759,76.88C146.751,73.965 149.104,71.6 152.02,71.592L152.348,71.592C155.263,71.584 157.628,73.839 157.636,76.886L157.643,79.572C157.645,80.227 157.088,80.818 156.401,80.819ZM155.146,76.892C155.142,75.286 153.827,74.078 152.386,74.082L152.059,74.082C150.519,74.086 149.245,75.334 149.25,76.874L149.253,78.513L155.15,78.497L155.146,76.892Z" style="fill:white;fill-rule:nonzero;"/>
        <path d="M15.551,119.326L15.355,119.326C13.258,119.332 10.764,118.092 9.743,116.065C9.645,115.868 9.578,115.638 9.578,115.442C9.576,114.722 10.198,114.229 10.853,114.227C11.245,114.226 11.673,114.356 11.969,114.781C12.789,115.86 14.201,116.839 15.413,116.837L15.577,116.836C17.575,116.831 18.72,115.714 18.717,114.632C18.77,110.275 10.197,113.574 10.18,107.349C10.172,104.205 13.478,103.147 15.543,103.141L15.674,103.141C17.934,103.135 19.409,104.115 19.969,104.54C20.297,104.8 20.429,105.128 20.429,105.488C20.43,106.078 19.942,106.669 19.253,106.671C19.025,106.671 18.795,106.606 18.531,106.476C17.844,106.149 17.12,105.594 15.647,105.598L15.515,105.599C13.681,105.603 12.7,106.425 12.671,107.376C12.613,110.946 21.191,108.042 21.206,114.561L21.206,114.692C21.215,117.706 18.303,119.318 15.551,119.326Z" style="fill:white;fill-rule:nonzero;"/>
        <path d="M30.444,119.287L30.116,119.288C27.2,119.296 24.836,116.943 24.828,114.027L24.814,108.392C24.806,105.476 27.159,103.112 30.075,103.104L30.403,103.103C33.318,103.096 35.683,105.449 35.691,108.365L35.705,114C35.713,116.916 33.359,119.28 30.444,119.287ZM33.201,108.371C33.197,106.831 31.948,105.589 30.409,105.593L30.081,105.594C28.541,105.598 27.301,106.846 27.305,108.386L27.318,114.021C27.322,115.561 28.57,116.802 30.143,116.798L30.438,116.797C31.977,116.794 33.219,115.546 33.215,114.006L33.201,108.371Z" style="fill:white;fill-rule:nonzero;"/>
        <path d="M45.041,98.709C43.992,98.712 43.307,99.533 43.31,100.549L43.316,103.17L44.856,103.166C45.708,103.163 46.103,103.784 46.103,104.407C46.105,105.029 45.681,105.652 44.862,105.655L43.322,105.659L43.354,118.009C43.356,118.829 42.735,119.256 42.112,119.257C41.49,119.259 40.866,118.835 40.864,118.015L40.832,105.665L40.111,105.667C39.293,105.669 38.866,105.047 38.864,104.425C38.863,103.802 39.287,103.179 40.105,103.177L40.826,103.175L40.819,100.555C40.813,98.064 42.61,96.226 45.035,96.22C45.854,96.218 46.281,96.839 46.283,97.462C46.285,98.084 45.86,98.707 45.041,98.709Z" style="fill:white;fill-rule:nonzero;"/>
        <path d="M55.833,119.222C53.442,119.228 51.537,117.3 51.531,114.91L51.507,105.637L50.36,105.64C49.541,105.642 49.114,105.021 49.112,104.399C49.111,103.776 49.535,103.153 50.354,103.151L51.501,103.148L51.486,97.448C51.484,96.629 52.105,96.202 52.729,96.201C53.351,96.198 53.974,96.623 53.976,97.443L53.99,103.142L55.76,103.137C56.579,103.135 57.007,103.756 57.008,104.38C57.01,105.002 56.585,105.625 55.766,105.627L53.996,105.631L54.021,114.871C54.023,116.017 54.909,116.67 55.926,116.733C56.712,116.763 57.073,117.385 57.075,117.974C57.077,118.597 56.686,119.22 55.833,119.222Z" style="fill:white;fill-rule:nonzero;"/>
        <path d="M79.47,104.55L75.638,118.255C75.509,118.68 75.117,119.172 74.429,119.174L74.166,119.175C73.576,119.176 73.052,118.655 72.92,118.228C72.126,115.413 70.01,107.556 69.811,107.065C69.65,107.59 67.573,115.458 66.825,118.244C66.729,118.671 66.24,119.197 65.616,119.197L65.322,119.198C64.634,119.2 64.239,118.71 64.108,118.284L60.24,104.599C60.204,104.468 60.173,104.371 60.173,104.239C60.171,103.551 60.695,103.026 61.448,103.024C61.939,103.023 62.43,103.285 62.629,103.938L65.471,113.891L68.394,103.891C68.557,103.334 69.015,103.005 69.802,103.003L69.834,103.003C70.818,103.001 71.114,103.393 71.244,103.883L74.251,113.901L77.075,103.901C77.27,103.247 77.729,102.982 78.221,102.981C78.974,102.979 79.499,103.503 79.502,104.19C79.502,104.322 79.502,104.42 79.47,104.55Z" style="fill:white;fill-rule:nonzero;"/>
        <path d="M94.021,119.124L93.793,119.092C92.679,118.931 91.988,118.442 91.561,117.82C90.614,118.642 89.37,119.136 88.026,119.14L87.731,119.14C85.078,119.147 82.453,117.483 82.445,114.437C82.444,114.305 82.444,114.174 82.444,114.044C82.66,108.868 89.936,109.765 90.721,108.649C90.816,108.518 90.816,108.256 90.815,108.092C90.81,106.16 89.596,105.442 88.155,105.446L87.926,105.447C86.583,105.45 85.896,106.008 85.277,107.091C85.016,107.55 84.59,107.748 84.164,107.749C83.542,107.751 82.919,107.294 82.917,106.606C82.917,106.41 82.948,106.213 83.047,106.016C84.089,103.655 86.183,102.961 87.92,102.957L88.149,102.956C91.065,102.948 93.299,105.171 93.305,107.988L93.325,115.589C93.326,116.178 93.589,116.571 94.179,116.666C94.9,116.797 95.229,117.32 95.231,117.844C95.233,118.499 94.808,119.123 94.021,119.124ZM90.824,111.27C88.401,111.932 85.027,111.809 84.934,114.103C84.934,114.299 84.934,114.202 84.935,114.365C84.938,115.774 86.055,116.656 87.725,116.651L88.02,116.651C89.56,116.647 90.834,115.398 90.83,113.858L90.824,111.27Z" style="fill:white;fill-rule:nonzero;"/>
        <path d="M105.987,106.547C105.658,106.547 105.298,106.418 104.97,106.09C104.706,105.83 104.28,105.405 103.46,105.407C101.528,105.412 101.269,106.526 101.272,107.607L101.298,117.796C101.3,118.68 100.678,119.107 100.056,119.11C99.433,119.111 98.809,118.686 98.807,117.801L98.772,104.173C98.77,103.387 99.425,102.927 100.048,102.925C100.474,102.924 100.9,103.12 101.13,103.578C101.13,103.578 101.784,102.921 103.488,102.917C104.733,102.914 106.11,103.369 106.899,104.513C107.129,104.839 107.195,105.102 107.196,105.364C107.197,106.052 106.642,106.546 105.987,106.547Z" style="fill:white;fill-rule:nonzero;"/>
        <path d="M119.871,112.113L112.73,112.131L112.734,113.802C112.738,115.342 113.986,116.584 115.526,116.58L115.854,116.58C117.131,116.576 117.981,115.82 118.404,114.902C118.632,114.344 119.057,114.114 119.483,114.113C120.138,114.111 120.763,114.666 120.765,115.387C120.765,115.551 120.732,115.747 120.634,115.944C119.853,117.781 118.055,119.063 115.86,119.069L115.531,119.069C112.615,119.077 110.251,116.724 110.243,113.808L110.23,108.173C110.222,105.257 112.574,102.893 115.49,102.885L115.819,102.885C118.734,102.878 121.099,105.132 121.107,108.179L121.113,110.866C121.114,111.521 120.559,112.111 119.871,112.113ZM118.616,108.185C118.612,106.58 117.298,105.372 115.857,105.374L115.53,105.376C113.989,105.38 112.715,106.628 112.721,108.168L112.724,109.806L118.62,109.79L118.616,108.185Z" style="fill:white;fill-rule:nonzero;"/>
        <g transform="matrix(0.480017,0,0,0.48002,4.11,3.694)">
            <clipPath id="_clip1">
                <rect x="1.002" y="1.002" width="116.996" height="98.996"/>
            </clipPath>
            <g clip-path="url(#_clip1)">
                <clipPath id="_clip2">
                    <rect x="1.002" y="1.002" width="116.996" height="98.996"/>
                </clipPath>
                <g clip-path="url(#_clip2)">
                    <g transform="matrix(1.04163,-0,-0,1.04162,-8.5622,-7.69552)">
                        <use xlink:href="#_Image3" x="9.238" y="8.434" width="112.32px" height="95.04px" transform="matrix(0.993982,0,0,0.99,0,0)"/>
                    </g>
                </g>
            </g>
        </g>
        <path d="M48.185,11.776L32.724,11.776C32.236,10.56 31.736,9.314 31.736,9.314C31.259,8.123 30.105,7.342 28.822,7.342L15.632,7.342C14.377,7.342 13.244,8.089 12.748,9.24L9.714,16.291C9.545,16.682 9.458,17.105 9.458,17.531L9.458,37.419C9.458,39.152 10.864,40.559 12.599,40.559L48.185,40.559C49.92,40.559 51.326,39.152 51.326,37.419L51.326,14.916C51.326,13.181 49.92,11.776 48.185,11.776Z" style="fill:rgb(237,28,36);fill-rule:nonzero;"/>
        <path d="M36.291,27.334L32.013,27.334L32.013,31.612C32.013,32.63 31.239,33.159 30.465,33.159C29.691,33.159 28.917,32.63 28.917,31.612L28.917,27.334L24.639,27.334C23.621,27.334 23.092,26.559 23.092,25.785C23.092,25.012 23.621,24.238 24.639,24.238L28.917,24.238L28.917,19.96C28.917,18.941 29.691,18.412 30.465,18.412C31.239,18.412 32.013,18.941 32.013,19.96L32.013,24.238L36.291,24.238C37.31,24.238 37.839,25.012 37.839,25.785C37.839,26.559 37.31,27.334 36.291,27.334Z" style="fill:white;fill-rule:nonzero;"/>
    </g>
</svg>
