<?xml version="1.0" encoding="UTF-8" standalone="no"?><!DOCTYPE svg PUBLIC "-//W3C//DTD SVG 1.1//EN" "http://www.w3.org/Graphics/SVG/1.1/DTD/svg11.dtd"><svg width="100%" height="100%" viewBox="0 0 3820 85" version="1.1" xmlns="http://www.w3.org/2000/svg" xmlns:xlink="http://www.w3.org/1999/xlink" xml:space="preserve" xmlns:serif="http://www.serif.com/" style="fill-rule:evenodd;clip-rule:evenodd;stroke-linejoin:round;stroke-miterlimit:2;"><rect id="Artboard1" x="0" y="0" width="3820" height="84.069" style="fill:none;"/><clipPath id="_clip1"><rect x="0" y="0" width="3820" height="84.069"/></clipPath><g clip-path="url(#_clip1)"><rect x="-0" y="2" width="3820" height="84.069" style="fill:#fff;"/><path d="M3820,33c0,0 -265.455,-28.999 -487.388,-18.025c-128.871,6.372 -184.869,53.594 -317.489,56.407c-84.796,1.798 -148.127,-40.077 -206.66,-43.597c-64.354,-3.871 -123.021,30.503 -200.691,31.018c-130.315,0.864 -204.671,-20.315 -262.774,-19.003c-26.702,0.603 -45,20.5 -75,28.2c-30,7.7 -60,9.3 -90,7.3c-30,-2 -60,-7.6 -90,-11.6c-30,-4 -60,-6.4 -90,-9.7c-30,-3.3 -60,-7.7 -90,-5.7c-30,2 -60,10.4 -90,17c-30,6.7 -60,11.7 -90,7.2c-30,-4.5 -60,-18.5 -90,-24.2c-30,-5.6 -60,-3 -90,-1c-30,2 -49.964,3.924 -75,4c-46.384,0.141 -125.301,18.219 -213.334,12.915c-55.205,-3.327 -84.49,-42.288 -155.722,-42.247c-45.088,0.025 -143.356,20.047 -190.936,20.066c-163.859,0.069 -211.706,30.177 -363.638,30.197c-96.287,0.012 -200.804,-33.334 -294.648,-37.19c-142.147,-5.84 -256.724,16.959 -256.724,16.959l-0,-52l3820,0l0,33Z" style="fill:#008fd7;fill-rule:nonzero;"/></g></svg>