<?xml version="1.0" encoding="UTF-8" standalone="no"?><!DOCTYPE svg PUBLIC "-//W3C//DTD SVG 1.1//EN" "http://www.w3.org/Graphics/SVG/1.1/DTD/svg11.dtd"><svg width="100%" height="100%" viewBox="0 0 900 85" version="1.1" xmlns="http://www.w3.org/2000/svg" xmlns:xlink="http://www.w3.org/1999/xlink" xml:space="preserve" xmlns:serif="http://www.serif.com/" style="fill-rule:evenodd;clip-rule:evenodd;stroke-linejoin:round;stroke-miterlimit:2;"><rect id="Artboard1" x="0" y="0" width="900" height="84.069" style="fill:none;"/><clipPath id="_clip1"><rect x="0" y="0" width="900" height="84.069"/></clipPath><g clip-path="url(#_clip1)"><rect x="0" y="0" width="900" height="600" style="fill:#fff;"/><path d="M900,33l-15,6.8c-15,6.9 -45,20.5 -75,28.2c-30,7.7 -60,9.3 -90,7.3c-30,-2 -60,-7.6 -90,-11.6c-30,-4 -60,-6.4 -90,-9.7c-30,-3.3 -60,-7.7 -90,-5.7c-30,2 -60,10.4 -90,17c-30,6.7 -60,11.7 -90,7.2c-30,-4.5 -60,-18.5 -90,-24.2c-30,-5.6 -60,-3 -90,-1c-30,2 -60,3.4 -75,4l-15,0.7l0,-52l900,0l0,33Z" style="fill:#008fd7;fill-rule:nonzero;"/></g></svg>