<svg height="300" viewBox="-2 -131 385.1 300" width="385.1" xmlns="http://www.w3.org/2000/svg"><path d="m170.7-103.4-1.9-.6-12.7 38.6 1.9.6 5.5-16.8 20.9 6.9 7.2-21.9zm11.8 18-4.2-1.4-1.4 4.2-3.6-1.2 1.4-4.2-4.2-1.4 1.2-3.6 4.2 1.4 1.4-4.2 3.6 1.2-1.4 4.2 4.2 1.4z" fill="#c1000d"/><g clip-rule="evenodd" fill-rule="evenodd"><path d="m18 152.4 133.4-231 133.3 231z" fill="#c1000d"/><path d="m160.2 152.4 102.4-177.4 102.4 177.4z" fill="#c1000d"/><path d="m151.4-78.6 33.4 188.4 37.7-65.2z" fill="#a1000b"/><path d="m151.4-78.6 56.4 148.6 14.7-25.4z" fill="#870009"/><path d="m262.6-25 32 177.4h70.4z" fill="#a1000b"/><path d="m262.6-25 78.9 177.4h23.5z" fill="#870009"/><path d="m249.1 27.6 5.2 4.4 12.2-7.9 12.4 12.2 3.6-5.7 7.1 1.9-27-46.8-27.5 47.7z" fill="#fff"/><path d="m272.5 30-7.1-39.5 24.2 42-7.1-1.9-3.6 5.7z" fill="#d9d9d9"/><path d="m133.7-7.7 6.9 5.8 15.9-10.4 16 15.9 4.7-7.4 9.3 2.4-35.1-60.9-35.9 62.1z" fill="#fff"/><path d="m164.2-4.6-8.8-50.6 31.1 53.8-9.3-2.4-4.7 7.4z" fill="#d9d9d9"/><path d="m176.2 113.2c-21.6 0-39.1 17.5-39.1 39.1h78.2c.1-21.5-17.4-39.1-39.1-39.1z" fill="#870009"/><path d="m182.2 119.2c-18.3 0-33.2 14.9-33.2 33.2h66.4c0-18.4-14.9-33.2-33.2-33.2z" fill="#610006"/></g></svg>