<svg version="1" xmlns="http://www.w3.org/2000/svg" width="1034.667" height="1034.667" viewBox="0 0 776.000000 776.000000"><path d="M146 9.1c-3.6.4-8.1.9-10 1.3-1.9.3-5.3.8-7.5 1.2-2.2.3-4.8 1-5.7 1.5-1 .5-1.8.7-1.8.5 0-.9-20.2 6.4-27.5 9.9-9 4.4-14.4 7.6-22.5 13.3-9.5 6.8-9.6 6.9-19.5 16.7-17.3 17.2-29.1 36-37 58.9-1.5 4.4-2.8 8.7-3 9.5-.2.9-.8 3.4-1.3 5.6-1.3 4.7-2 9-3 16.5-.9 7.4-.9 481.8 0 489.5.4 3.3 1 7.1 1.3 8.5.3 1.4.8 3.8 1.1 5.5.9 4.4 1.2 6 1.4 6 .1 0 .3.7.5 1.5.2 1.2 2.1 8.1 3 11 .2.6 2.3 5.9 3.2 8 .3.8.7 1.7.7 2 .1.3.5 1.1.9 1.7.5.7.5 1.3 0 1.3-.4 0-.3.4.2.8.6.4 2.2 3.2 3.7 6.2 3.4 6.9 6.1 11.4 7.1 11.8.4.2.7.8.7 1.3 0 3.2 22.4 28.6 32 36.3 5 4 21 14.6 21 13.9 0-.5.4-.3.8.2.9 1.4 17.8 9.5 19.7 9.5.7 0 1.6.4 1.9.9.3.5 1.6 1.1 2.8 1.4 1.3.3 6.6 1.6 11.8 3 10 2.7 13.5 3.3 24 4.4 6.5.7 474.2.8 483.2.1 2.7-.1 4.8-.5 4.8-.8 0-.3 1.2-.5 2.8-.6 1.5 0 4.5-.3 6.7-.7 2.2-.5 5-.9 6.1-1.1 1.2-.2 3.1-.9 4.3-1.5 1.1-.7 2.1-1 2.1-.7 0 .5 10.7-3.1 16.5-5.5 1.7-.7 3.2-1.3 3.5-1.4.9-.3 13.4-6.7 15.5-7.9 15.5-9 33.7-25.3 44.4-39.6 3.1-4.1 5.9-7.6 6.4-7.8.4-.2.7-.7.7-1.2s2-4.3 4.5-8.4c2.5-4.2 4.5-7.9 4.5-8.1 0-.2 1.2-3 2.6-6.1 2.5-5.5 7.9-21.3 8.9-26.1 1.3-6.1 1.6-7.5 2-10.5.3-1.8.8-6.7 1.2-10.8.9-9.2.9-476.5 0-483.5-1.2-10.2-1.9-14.2-3.3-20-2.1-8.4-5.5-18.8-6.7-20.3-.5-.6-.6-1.2-.3-1.2.4 0 .1-1-.6-2.3-.7-1.2-1.3-2.4-1.3-2.7-.4-1.5-5.4-11.1-6.5-12.5-.7-.8-.9-1.5-.5-1.5s-.8-1.8-2.5-4-2.9-4-2.6-4c.4 0-2.6-4.2-6.6-9.3-7.2-9.2-17.6-20-23.7-24.7-1.8-1.4-4.7-3.7-6.4-5.2-1.8-1.5-4-3-4.9-3.4-1-.3-1.8-1-1.8-1.5s-.5-.9-1.1-.9c-.6 0-2.4-.9-4-2.1-6.8-4.8-29.3-14.6-38.9-16.9-2.5-.6-5.3-1.3-6.2-1.5-3.9-1.1-6.5-1.6-11.3-2.1-2.7-.3-5.4-.9-6-1.2-1.3-.9-476.1-.9-484.5-.1zm478.5 84.1c1.1.2 3.8.8 6 1.3 2.2.4 7.4 2.3 11.4 4.3 21.8 10.1 36.2 29.3 40 53.1.9 6 .8 473.4-.1 476.6-.3 1.1-1.1 4-1.8 6.5-3.7 13.8-14.7 29.5-26.5 37.7-8.6 6-20.6 10.9-29.5 12.1-2.5.4-110.5.7-240 .7H148.5l-7.5-2.4c-8.4-2.6-19-7.8-23.5-11.6-5.6-4.7-11.5-10.9-14.3-15-1.5-2.2-2.9-4.2-3.2-4.5-.3-.3-2-3.7-3.7-7.5-5.3-12.1-5.7-14.5-6.5-45.1-.1-2.8.1-5.5.4-6 .2-.5.3-1.8.2-2.9-.1-1.1-.3-3.1-.4-4.5-.1-1.4-.2-62.6-.1-136 0-73.4 0-135.8-.1-138.6-.1-2.8.1-5.5.4-6 .2-.5.3-1.8.2-2.9-.5-4.4-.6-8.4-.5-44.5 0-20.6 0-39.8-.1-42.6-.1-2.8.1-5.5.4-6 .2-.5.3-1.8.2-2.9-.5-4.3-.6-7.7-.4-29.5.1-24.4 1.1-31.6 5.8-42.5 4.6-10.9 16.1-25 24-29.5 1.4-.8 3.4-2.1 4.3-2.9 4-3.2 16.4-7.7 24.4-8.8 2.2-.3 4.1-.6 4.3-.8.5-.5 469.6.2 471.7.7z"/><path d="M468.8 201.6c-.2.1-2.6.6-5.3.9-7.8 1-19.9 4.2-26.8 7-3.4 1.4-6.6 2.7-7.2 2.8-.5.1-1.6.8-2.3 1.5-.8.7-1.7 1-2.2.7-.5-.3-1.1-.1-1.5.5-.3.6-2.5 2-4.8 3.1-2.2 1.2-4.7 2.8-5.5 3.5-.7.8-1.7 1.4-2.1 1.4-.4 0-1.7.8-2.8 1.7-1.2 1-5 4.3-8.5 7.3s-8.4 7.9-10.9 10.9c-2.4 3-5.1 6.1-5.9 7-4.2 4.5-14.5 23.4-17.5 32.1-.1.3-.5 1.2-.8 2-3.6 8.9-6.1 24.7-6.1 40 0 15.4 1.5 25.1 6 39 1.9 5.8 8.7 20.4 9.6 20.8.5.2.8.8.8 1.4 0 .5 2.4 4.4 5.3 8.6 5 7.3 23.8 27.2 25.7 27.2.5 0 1.5.6 2.3 1.4 3.7 3.7 25 15.2 30 16.1.9.2 2.3.7 3 1.2.6.4 1.7.8 2.2 1 .6.1 2.1.4 3.4.7 1.3.3 3.8 1 5.5 1.5 1.7.6 5.1 1.3 7.6 1.6 2.5.3 5.9.8 7.5 1.1 6.6 1.2 24.3.6 35-1.2 9.7-1.6 22.3-5.8 32.9-11.1 7.5-3.7 16.8-9.4 18.6-11.4.3-.3 1.5-1.2 2.8-2.1 8.2-5.6 23.3-22.7 29.3-33.3 5.7-10.1 14.9-32.5 13.4-32.5-.3 0 0-1.1.5-2.4.5-1.4 1.2-4.8 1.5-7.7.3-2.9.8-5.6 1.1-6.1 1-1.5.5-25.3-.5-31.8-.6-3.6-1.2-7.4-1.4-8.5-.1-1.1-.5-2.5-.9-3-.3-.6-.9-2.6-1.3-4.5-1.2-6-8.2-21.8-13.6-31-12.1-20.4-37.8-41.5-61-50-6.1-2.2-15.7-4.9-20.4-5.6-1.6-.3-4.1-.7-5.5-1-3-.5-28.8-1.3-29.2-.8z"/></svg>