<?xml version="1.0" encoding="UTF-8" standalone="no"?><!DOCTYPE svg PUBLIC "-//W3C//DTD SVG 1.1//EN" "http://www.w3.org/Graphics/SVG/1.1/DTD/svg11.dtd"><svg width="100%" height="100%" viewBox="0 0 179 64" version="1.1" xmlns="http://www.w3.org/2000/svg" xmlns:xlink="http://www.w3.org/1999/xlink" xml:space="preserve" xmlns:serif="http://www.serif.com/" style="fill-rule:evenodd;clip-rule:evenodd;stroke-linecap:round;stroke-miterlimit:10;"><path d="M137.12,47.47l27.312,-8.249l-8.249,-27.313" style="fill:none;fill-rule:nonzero;stroke:#008fd7;stroke-width:6.26px;"/><path d="M165.85,36.429c1.541,0.782 2.157,2.669 1.374,4.21c-0.783,1.541 -2.669,2.157 -4.21,1.374c-4.552,-1.953 -9.495,-3.571 -14.715,-5.128c-4.821,-1.438 -9.877,-2.691 -15.104,-3.883c-5.946,-1.356 -12.097,-2.625 -18.405,-3.588c-9.166,-1.399 -18.622,-2.318 -28.077,-2.54c-27.818,-0.653 -55.563,4.263 -74.857,17.023c-1.426,0.977 -3.377,0.612 -4.354,-0.814c-0.977,-1.425 -0.612,-3.376 0.813,-4.353c19.948,-14.155 49.056,-20.591 78.479,-20.751c9.881,-0.053 19.8,0.569 29.393,1.924c6.636,0.937 13.135,2.148 19.318,3.817c5.464,1.474 10.68,3.271 15.587,5.305c5.332,2.209 10.242,4.729 14.758,7.404Z" style="fill:#008fd7;"/></svg>