<?xml version="1.0" encoding="UTF-8" standalone="no"?><!DOCTYPE svg PUBLIC "-//W3C//DTD SVG 1.1//EN" "http://www.w3.org/Graphics/SVG/1.1/DTD/svg11.dtd"><svg width="100%" height="100%" viewBox="0 0 136 84" version="1.1" xmlns="http://www.w3.org/2000/svg" xmlns:xlink="http://www.w3.org/1999/xlink" xml:space="preserve" xmlns:serif="http://www.serif.com/" style="fill-rule:evenodd;clip-rule:evenodd;stroke-linejoin:round;stroke-miterlimit:2;"><path d="M29.95,72.308l-0.002,-0c-7.739,0.711 -12.419,-2.097 -15.126,-5.344c-3.874,-4.647 -3.922,-11.628 -0.797,-17.507c2.611,-4.913 7.566,-8.692 13.535,-9.549c0.326,-0.046 0.657,-0.084 0.991,-0.111c0.645,-4.14 2.576,-7.518 5.063,-9.824c3.099,-2.874 7.684,-4.587 13.173,-3.904c2.869,-5.353 8.303,-8.684 13.939,-9.484c3.773,-0.535 7.854,0.053 11.502,2.106c5.127,-5.862 11.408,-8.734 17.609,-9.643c11.723,-1.717 24.145,4.415 31.296,14.178c6.864,9.434 8.528,22.183 4.417,32.35c-3.903,9.653 -12.813,17.538 -28.197,18.289l-0.035,0.001c0,0 -16.83,0.55 -33.669,0.302c-7.203,-0.106 -14.347,-0.428 -20.235,-0.778c-7.58,-0.451 -12.918,-1.023 -13.464,-1.082Zm-0.275,-6.489l67.276,-2.372c21.602,-0.904 25.064,-21.75 16.057,-34.465c-9.105,-12.852 -30.843,-17.447 -39.676,6.01c-3.679,-15.568 -22.109,-10.889 -19.972,2.464c-12.175,-8.406 -21.192,0.161 -15.407,13.126c-16.244,-13.267 -29.433,16.662 -8.278,15.237Z" style="fill:#484848;"/></svg>