<?xml version="1.0" encoding="UTF-8" standalone="no"?><!DOCTYPE svg PUBLIC "-//W3C//DTD SVG 1.1//EN" "http://www.w3.org/Graphics/SVG/1.1/DTD/svg11.dtd"><svg width="100%" height="100%" viewBox="0 0 102 92" version="1.1" xmlns="http://www.w3.org/2000/svg" xmlns:xlink="http://www.w3.org/1999/xlink" xml:space="preserve" xmlns:serif="http://www.serif.com/" style="fill-rule:evenodd;clip-rule:evenodd;stroke-linejoin:round;stroke-miterlimit:2;"><g><path d="M13.209,2.543c12.424,-0.382 24.976,-0.72 37.673,-0.971c12.425,-0.246 24.983,-0.406 37.686,-0.517c2.656,-0.02 5.095,0.993 6.959,2.639c1.873,1.653 3.124,3.991 3.434,6.642l0.002,0.011c0.876,7.75 1.499,15.502 1.859,23.257c0.361,7.782 0.451,15.565 0.28,23.352l-0,0.014c-0.07,2.716 -1.231,5.15 -3.026,6.93c-1.801,1.786 -4.276,2.875 -7.001,2.923l-0.001,-0c-13.034,0.212 -26.065,0.378 -39.095,0.421c-13.035,0.043 -26.068,-0.037 -39.099,-0.161c-2.762,-0.054 -5.299,-1.108 -7.201,-2.865c-1.895,-1.752 -3.197,-4.163 -3.467,-6.904c-0.001,-0.005 -0.002,-0.011 -0.002,-0.017c-0.652,-7.574 -1.064,-15.137 -0.991,-22.699c0.073,-7.564 0.607,-15.097 1.405,-22.635c-0,-0.006 0,-0.012 0.001,-0.017c0.348,-2.741 1.558,-5.196 3.535,-6.857c1.921,-1.614 4.365,-2.672 7.047,-2.546l0.002,0Zm0.11,6.487c-0.916,0.075 -1.654,0.622 -2.242,1.249c-0.535,0.572 -0.742,1.378 -0.755,2.199c-0.207,7.332 -0.014,14.631 0.333,21.942c0.345,7.273 0.863,14.543 1.758,21.79c0.018,0.149 0.119,0.263 0.223,0.356c0.099,0.088 0.236,0.12 0.376,0.121c15.591,0.253 31.185,0.376 46.782,0.453c10.396,0.052 20.792,0.097 31.19,0.077c0.162,-0 0.32,-0.039 0.429,-0.144c0.115,-0.111 0.214,-0.252 0.221,-0.41c0.302,-7.573 0.344,-15.147 0.135,-22.724c-0.208,-7.568 -0.66,-15.136 -1.365,-22.697c-0.046,-0.483 -0.242,-0.924 -0.577,-1.233c-0.343,-0.316 -0.786,-0.539 -1.284,-0.546c-12.676,-0.185 -25.207,-0.292 -37.608,-0.363c-12.676,-0.073 -25.209,-0.108 -37.616,-0.07Z" style="fill:#484848;"/><path d="M44.129,58.701l15.607,-0.542c1.044,0.003 2.041,0.431 2.761,1.186c0.72,0.756 1.101,1.772 1.055,2.814c-0.049,3.849 0.7,7.522 2.235,10.914c1.449,3.199 3.687,6.094 6.71,8.633c1.369,1.216 1.887,3.128 1.318,4.868c-0.569,1.74 -2.116,2.977 -3.939,3.149c-5.763,0.675 -11.598,1.031 -17.512,1.135c-5.712,0.101 -11.491,-0.048 -17.341,-0.248c-1.982,-0.095 -3.738,-1.307 -4.529,-3.126c-0.792,-1.819 -0.481,-3.93 0.801,-5.445c2.73,-3.018 4.763,-6.135 6.278,-9.299c0.979,-2.046 1.837,-4.034 2.373,-6.155c0.375,-1.483 0.787,-2.908 0.935,-4.453c-0.052,-0.893 0.268,-1.768 0.883,-2.417c0.614,-0.65 1.47,-1.017 2.365,-1.014Zm3.724,6.639c0.128,1.722 0.098,3.442 -0.075,5.189c-0.193,1.949 -0.677,3.861 -1.317,5.778c-0.493,1.475 -1.119,2.93 -1.861,4.371c3.731,0.154 7.435,0.249 11.112,0.263c1.492,0.006 2.979,0.002 4.461,-0.019c-0.876,-1.481 -1.615,-3.008 -2.217,-4.578c-1.306,-3.408 -2.021,-6.99 -2.143,-10.683l-7.96,-0.321Z" style="fill:#484848;"/></g></svg>