<?xml version="1.0" encoding="UTF-8" standalone="no"?><!DOCTYPE svg PUBLIC "-//W3C//DTD SVG 1.1//EN" "http://www.w3.org/Graphics/SVG/1.1/DTD/svg11.dtd"><svg width="100%" height="100%" viewBox="0 0 102 159" version="1.1" xmlns="http://www.w3.org/2000/svg" xmlns:xlink="http://www.w3.org/1999/xlink" xml:space="preserve" xmlns:serif="http://www.serif.com/" style="fill-rule:evenodd;clip-rule:evenodd;stroke-linejoin:round;stroke-miterlimit:2;"><g id="lamp"><path d="M39.489,120.693c0,-0 -0.856,-5.936 -2.633,-11.505c-0.779,-2.44 -1.734,-4.809 -2.931,-6.434c-4.361,-5.954 -9.154,-11.957 -13.667,-18.204c-4.594,-6.359 -8.924,-12.945 -12.342,-19.865c-4.786,-9.689 -7.75,-20.033 -7.536,-31.21c0.304,-12.161 6.279,-20.015 15.201,-25.015c10.775,-6.037 26.231,-7.636 40.25,-7.84c12.311,-0.168 22.941,0.804 30.594,5.222c8.172,4.719 13.479,13.161 13.704,28.564c0.158,11.194 -1.958,20.698 -5.23,29.337c-5.248,13.858 -13.528,25.414 -19.711,38.384c-1.411,2.961 -2.166,5.974 -2.549,8.655c-0.734,5.141 -0.132,9.061 -0.132,9.061c0.154,0.919 -0.104,1.859 -0.706,2.571c-0.602,0.711 -1.487,1.121 -2.418,1.121l-26.937,-0.194c-1.517,0 -2.79,-1.141 -2.957,-2.648Zm5.628,-3.32c-0,-0 20.795,-0.15 20.795,-0.15c-0.084,-1.916 -0.061,-4.457 0.305,-7.311c0.42,-3.276 1.302,-6.959 2.971,-10.592c5.911,-12.872 13.941,-24.363 18.924,-38.094c2.858,-7.874 4.674,-16.513 4.395,-26.662c-0.315,-11.656 -3.802,-18.287 -10.032,-21.782c-6.642,-3.727 -15.869,-4.095 -26.478,-3.819c-12.577,0.316 -26.481,1.618 -36.101,7.119c-6.225,3.559 -10.425,9.058 -10.58,17.586c-0.233,9.732 2.508,18.675 6.515,27.19c6.324,13.436 15.86,25.828 23.912,37.835c1.468,2.223 2.675,5.368 3.525,8.641c0.966,3.719 1.543,7.566 1.849,10.039Z" style="fill:#ffd436;"/><path d="M40.978,125.036c-0.019,0.003 -0.04,0.015 -0.063,0.038c-0.104,0.097 -0.024,0.18 0.157,0.257c0.03,0.123 0.048,0.251 0.054,0.381c-0.002,-0.105 -0.005,-0.242 -0.016,-0.366c0.345,0.136 0.993,0.255 1.477,0.41c3.094,0.985 8.378,1.685 13.717,2.265c8.808,0.956 17.765,1.467 17.765,1.467c1.474,0.105 2.643,1.284 2.736,2.758c0.093,1.475 -0.919,2.791 -2.367,3.08c-0,0 -7.766,1.579 -16.148,2.947c6.746,1.015 13.155,1.848 14.906,1.861c1.225,0.009 1.875,0.486 2.172,0.759c0.899,0.824 1.185,1.821 0.708,3.016c-0.149,0.373 -0.795,1.357 -2.361,2.067c-2.634,1.195 -9.643,3.311 -15.851,3.862c-2.685,0.236 -5.697,0.399 -8.483,0.507c2.407,0.98 4.68,1.913 5.783,2.383c0.555,0.237 1.627,0.473 2.821,0.498c0.907,0.019 1.892,-0.072 2.771,-0.435c2.634,-1.089 4.698,-2.062 6.303,-2.905c1.818,-0.955 3.027,-1.725 3.796,-2.294c0.908,-0.684 2.202,-0.502 2.886,0.407c0.685,0.909 0.502,2.202 -0.407,2.887c-0.868,0.665 -2.229,1.578 -4.29,2.705c-1.679,0.919 -3.84,1.985 -6.602,3.182c-1.428,0.619 -3.028,0.846 -4.512,0.839c-1.895,-0.008 -3.59,-0.416 -4.476,-0.776c-3.173,-1.29 -13.208,-4.615 -15.229,-6.078c-1.225,-0.887 -1.349,-1.981 -1.289,-2.579c0.064,-0.639 0.348,-1.254 1.01,-1.756c0.33,-0.251 1.082,-0.625 2.446,-0.637c1.327,-0.011 4.681,-0.108 8.511,-0.318c2.772,-0.151 5.795,-0.362 8.478,-0.644c1.31,-0.135 2.66,-0.348 3.987,-0.608c-7.621,-0.971 -16.704,-2.31 -20.775,-3.175c-1.753,-0.372 -2.843,-0.854 -3.153,-1.078c-0.827,-0.598 -1.078,-1.321 -1.182,-1.841c-0.199,-0.99 -0.002,-2.006 1.057,-2.859c0.243,-0.196 1.172,-0.748 3.077,-0.758c2.956,-0.016 7.881,-0.676 13.015,-1.468c0.251,-0.039 0.503,-0.078 0.755,-0.118c-3.389,-0.555 -6.681,-1.19 -9.36,-1.89c-2.752,-0.72 -4.908,-1.54 -6.059,-2.351c-1.275,-0.901 -1.769,-1.942 -1.738,-2.869c0,-1.137 0.924,-2.061 2.062,-2.061c0.864,0 1.605,0.533 1.911,1.288Zm-0,0c0.079,-0.013 0.115,0.134 0.132,0.31c-0.013,-0.005 -0.026,-0.01 -0.038,-0.015c-0.024,-0.102 -0.056,-0.2 -0.094,-0.295Z" style="fill:#7e7e7e;"/></g></svg>