<?xml version="1.0" encoding="UTF-8" standalone="no"?><!DOCTYPE svg PUBLIC "-//W3C//DTD SVG 1.1//EN" "http://www.w3.org/Graphics/SVG/1.1/DTD/svg11.dtd"><svg width="100%" height="100%" viewBox="0 0 38 29" version="1.1" xmlns="http://www.w3.org/2000/svg" xmlns:xlink="http://www.w3.org/1999/xlink" xml:space="preserve" xmlns:serif="http://www.serif.com/" style="fill-rule:evenodd;clip-rule:evenodd;stroke-linejoin:round;stroke-miterlimit:2;"><rect id="Artboard1" x="0.388" y="0" width="36.842" height="28.847" style="fill:none;"/><g id="Artboard11" serif:id="Artboard1"><path d="M21.236,1.549l-19.054,0l-0,16.169c-0,5.256 4.26,9.516 9.516,9.516c0.005,0 0.011,0 0.016,0c5.259,0 9.522,-4.263 9.522,-9.522c0,-7.31 0,-16.163 0,-16.163Z" style="fill:#f00;"/><clipPath id="_clip1"><path d="M21.236,1.549l-19.054,0l-0,16.169c-0,5.256 4.26,9.516 9.516,9.516c0.005,0 0.011,0 0.016,0c5.259,0 9.522,-4.263 9.522,-9.522c0,-7.31 0,-16.163 0,-16.163Z"/></clipPath><g clip-path="url(#_clip1)"><path d="M18.943,10.449l0,4.823l-4.823,0l0,4.823l-4.823,0l0,-4.823l-4.823,0l0,-4.823l4.823,0l0,-4.823l4.823,0l0,4.823l4.823,0Z" style="fill:#fff;"/></g><path d="M22.736,1.549l0,16.163c0,6.088 -4.935,11.022 -11.022,11.022l-0.016,0c-6.084,0 -11.016,-4.932 -11.016,-11.016l-0,-16.169c-0,-0.828 0.671,-1.5 1.5,-1.5l19.054,0c0.829,0 1.5,0.672 1.5,1.5Zm-1.5,0l-19.054,0l-0,16.169c-0,5.256 4.26,9.516 9.516,9.516l0.016,0c5.259,0 9.522,-4.263 9.522,-9.522l0,-16.163Z"/><path d="M35.426,1.549l-19.054,0l-0,16.169c-0,5.256 4.26,9.516 9.516,9.516c0.005,0 0.011,0 0.016,0c5.259,0 9.522,-4.263 9.522,-9.522c0,-7.31 0,-16.163 0,-16.163Z" style="fill:#fff;"/><clipPath id="_clip2"><path d="M35.426,1.549l-19.054,0l-0,16.169c-0,5.256 4.26,9.516 9.516,9.516c0.005,0 0.011,0 0.016,0c5.259,0 9.522,-4.263 9.522,-9.522c0,-7.31 0,-16.163 0,-16.163Z"/></clipPath><g clip-path="url(#_clip2)"><rect x="14.457" y="0.174" width="11.442" height="30.218" style="fill:#0082c7;"/></g><path d="M36.926,1.549l0,16.163c0,6.088 -4.935,11.022 -11.022,11.022l-0.016,0c-6.084,0 -11.016,-4.932 -11.016,-11.016l-0,-16.169c-0,-0.828 0.671,-1.5 1.5,-1.5l19.054,0c0.829,0 1.5,0.672 1.5,1.5Zm-1.5,0l-19.054,0l-0,16.169c-0,5.256 4.26,9.516 9.516,9.516l0.016,0c5.259,0 9.522,-4.263 9.522,-9.522l0,-16.163Z"/></g></svg>