<?xml version="1.0" encoding="UTF-8" standalone="no"?><!DOCTYPE svg PUBLIC "-//W3C//DTD SVG 1.1//EN" "http://www.w3.org/Graphics/SVG/1.1/DTD/svg11.dtd"><svg width="100%" height="100%" viewBox="0 0 66 100" version="1.1" xmlns="http://www.w3.org/2000/svg" xmlns:xlink="http://www.w3.org/1999/xlink" xml:space="preserve" xmlns:serif="http://www.serif.com/" style="fill-rule:evenodd;clip-rule:evenodd;stroke-linejoin:round;stroke-miterlimit:2;"><path d="M11.996,2.713c6.694,-0.373 13.45,-0.677 20.277,-0.896c6.699,-0.215 13.463,-0.345 20.298,-0.404l0.004,0c2.653,-0.018 5.069,1.035 6.879,2.718c1.82,1.694 2.982,4.073 3.157,6.735l0,0.004c0.833,13.005 1.499,26.009 1.959,39.019c0.461,13.023 0.714,26.046 0.793,39.073l0,0.004c0.012,2.75 -1.102,5.242 -2.877,7.079c-1.78,1.844 -4.266,2.99 -7.023,3.075l-0.006,0c-7.202,0.21 -14.404,0.332 -21.608,0.351c-7.204,0.02 -14.408,-0.065 -21.613,-0.235l-0.005,0c-2.82,-0.069 -5.371,-1.233 -7.266,-3.064c-1.899,-1.834 -3.115,-4.367 -3.283,-7.188l0,-0.006c-0.65,-12.719 -1.192,-25.437 -1.261,-38.156c-0.035,-6.366 0.048,-12.727 0.249,-19.088c0.2,-6.365 0.572,-12.708 0.947,-19.067l0,-0.004c0.211,-2.814 1.335,-5.374 3.284,-7.14c1.893,-1.715 4.351,-2.875 7.091,-2.81l0.004,-0Zm0.268,6.482l-0.002,0c-0.93,0.102 -1.659,0.686 -2.23,1.346c-0.519,0.599 -0.692,1.424 -0.662,2.27c0.148,7.073 0.454,14.125 0.66,21.196c0.307,10.585 0.615,21.165 1.025,31.752c0.293,7.552 0.536,15.108 0.926,22.663c0.008,0.154 0.059,0.298 0.162,0.4c0.107,0.106 0.243,0.193 0.398,0.199c7.117,0.257 14.234,0.42 21.352,0.501c7.119,0.082 14.238,0.085 21.354,-0.011c0.164,-0.002 0.322,-0.044 0.43,-0.152c0.114,-0.114 0.21,-0.259 0.213,-0.428c0.165,-12.941 0.134,-25.881 -0.054,-38.824c-0.188,-12.941 -0.53,-25.881 -1.062,-38.822c-0.025,-0.605 -0.254,-1.161 -0.658,-1.555c-0.414,-0.405 -0.963,-0.687 -1.58,-0.698c-6.778,-0.121 -13.488,-0.159 -20.135,-0.132c-6.778,0.028 -13.487,0.122 -20.137,0.295Z" style="fill:#484848;"/></svg>