<?xml version="1.0" encoding="utf-8"?>
<!-- Generator: Adobe Illustrator 22.1.0, SVG Export Plug-In . SVG Version: 6.00 Build 0)  -->
<svg version="1.1" id="Ebene_1" xmlns="http://www.w3.org/2000/svg"
  xmlns:xlink="http://www.w3.org/1999/xlink" x="0px" y="0px"
  viewBox="0 0 184.3 29.5" style="enable-background:new 0 0 184.3 29.5;" xml:space="preserve">
<style type="text/css">
	.st0{fill:#000;}
	.st1{fill:#000;}
</style>
<g>
	<g>
		<path class="st0" d="M93,13.5L95.5,7h0.9l2.7,6.5h-1l-0.8-2h-2.7l-0.7,2H93z M94.9,10.9h2.2l-0.7-1.8c-0.2-0.5-0.4-1-0.5-1.3
			c-0.1,0.4-0.2,0.8-0.4,1.2L94.9,10.9z"/>
		<path class="st0" d="M102.8,13.5v-0.7c-0.4,0.5-0.9,0.8-1.5,0.8c-0.3,0-0.5-0.1-0.8-0.2c-0.2-0.1-0.4-0.2-0.5-0.4
			c-0.1-0.2-0.2-0.4-0.2-0.6c0-0.2,0-0.4,0-0.7V8.8h0.8v2.6c0,0.4,0,0.7,0,0.8c0.1,0.2,0.2,0.4,0.3,0.5c0.2,0.1,0.4,0.2,0.6,0.2
			s0.5-0.1,0.7-0.2c0.2-0.1,0.4-0.3,0.4-0.5c0.1-0.2,0.1-0.5,0.1-0.9V8.8h0.8v4.7H102.8z"/>
		<path class="st0" d="M104.4,12.1l0.8-0.1c0,0.3,0.2,0.6,0.4,0.7c0.2,0.2,0.5,0.3,0.8,0.3c0.4,0,0.6-0.1,0.8-0.2
			c0.2-0.1,0.3-0.3,0.3-0.5c0-0.2-0.1-0.3-0.2-0.4c-0.1-0.1-0.4-0.2-0.8-0.3c-0.6-0.1-1-0.3-1.2-0.4c-0.2-0.1-0.4-0.3-0.5-0.4
			c-0.1-0.2-0.2-0.4-0.2-0.6c0-0.2,0-0.4,0.1-0.6c0.1-0.2,0.2-0.3,0.4-0.4c0.1-0.1,0.3-0.2,0.5-0.2c0.2-0.1,0.4-0.1,0.7-0.1
			c0.4,0,0.7,0.1,1,0.2c0.3,0.1,0.5,0.3,0.6,0.4c0.1,0.2,0.2,0.4,0.3,0.7l-0.8,0.1c0-0.2-0.1-0.4-0.3-0.6c-0.2-0.1-0.4-0.2-0.7-0.2
			c-0.4,0-0.6,0.1-0.8,0.2c-0.2,0.1-0.2,0.3-0.2,0.4c0,0.1,0,0.2,0.1,0.3c0.1,0.1,0.2,0.2,0.3,0.2c0.1,0,0.3,0.1,0.7,0.2
			c0.6,0.2,1,0.3,1.2,0.4c0.2,0.1,0.4,0.2,0.5,0.4c0.1,0.2,0.2,0.4,0.2,0.7c0,0.3-0.1,0.5-0.2,0.8c-0.2,0.2-0.4,0.4-0.7,0.5
			c-0.3,0.1-0.6,0.2-1,0.2c-0.6,0-1.1-0.1-1.4-0.4C104.7,13,104.5,12.6,104.4,12.1z"/>
		<path class="st0" d="M109.1,13.9l0.8,0.1c0,0.2,0.1,0.4,0.3,0.5c0.2,0.1,0.5,0.2,0.8,0.2c0.4,0,0.7-0.1,0.9-0.2
			c0.2-0.1,0.3-0.4,0.4-0.6c0-0.2,0.1-0.5,0.1-1c-0.3,0.4-0.8,0.6-1.3,0.6c-0.6,0-1.1-0.2-1.5-0.7c-0.4-0.5-0.5-1-0.5-1.7
			c0-0.4,0.1-0.9,0.2-1.2c0.2-0.4,0.4-0.7,0.7-0.9c0.3-0.2,0.7-0.3,1.1-0.3c0.6,0,1,0.2,1.4,0.7V8.8h0.7v4.1c0,0.7-0.1,1.3-0.2,1.6
			c-0.1,0.3-0.4,0.5-0.7,0.7c-0.3,0.2-0.7,0.3-1.2,0.3c-0.6,0-1-0.1-1.4-0.4S109.1,14.4,109.1,13.9z M109.8,11.1
			c0,0.6,0.1,1.1,0.4,1.4c0.2,0.3,0.6,0.4,0.9,0.4c0.4,0,0.7-0.1,0.9-0.4c0.2-0.3,0.4-0.7,0.4-1.3c0-0.6-0.1-1-0.4-1.3
			c-0.3-0.3-0.6-0.4-0.9-0.4c-0.4,0-0.7,0.1-0.9,0.4C109.9,10.1,109.8,10.5,109.8,11.1z"/>
		<path class="st0" d="M114.3,13.5V7h0.8v6.5H114.3z"/>
		<path class="st0" d="M119.6,12l0.8,0.1c-0.1,0.5-0.4,0.9-0.7,1.1c-0.4,0.3-0.8,0.4-1.3,0.4c-0.7,0-1.2-0.2-1.6-0.6
			c-0.4-0.4-0.6-1-0.6-1.8c0-0.8,0.2-1.4,0.6-1.8c0.4-0.4,0.9-0.7,1.6-0.7c0.6,0,1.1,0.2,1.5,0.6c0.4,0.4,0.6,1,0.6,1.8
			c0,0,0,0.1,0,0.2h-3.5c0,0.5,0.2,0.9,0.4,1.2c0.3,0.3,0.6,0.4,1,0.4c0.3,0,0.5-0.1,0.7-0.2C119.3,12.6,119.5,12.4,119.6,12z
			 M117,10.7h2.6c0-0.4-0.1-0.7-0.3-0.9c-0.3-0.3-0.6-0.5-1-0.5c-0.4,0-0.7,0.1-0.9,0.4C117.1,10,117,10.3,117,10.7z"/>
		<path class="st0" d="M121.4,8V7h0.8V8H121.4z M121.4,13.5V8.8h0.8v4.7H121.4z"/>
		<path class="st0" d="M126.5,11.8l0.8,0.1c-0.1,0.5-0.3,1-0.7,1.3c-0.4,0.3-0.8,0.5-1.3,0.5c-0.6,0-1.2-0.2-1.6-0.6
			c-0.4-0.4-0.6-1-0.6-1.8c0-0.5,0.1-1,0.3-1.3c0.2-0.4,0.4-0.7,0.8-0.9c0.3-0.2,0.7-0.3,1.1-0.3c0.5,0,0.9,0.1,1.3,0.4
			c0.3,0.3,0.5,0.6,0.6,1.1l-0.8,0.1c-0.1-0.3-0.2-0.6-0.4-0.7c-0.2-0.2-0.4-0.2-0.7-0.2c-0.4,0-0.7,0.1-1,0.4
			c-0.3,0.3-0.4,0.7-0.4,1.4c0,0.6,0.1,1.1,0.4,1.4c0.2,0.3,0.6,0.4,0.9,0.4c0.3,0,0.6-0.1,0.8-0.3
			C126.3,12.5,126.4,12.2,126.5,11.8z"/>
		<path class="st0" d="M128,13.5V7h0.8v2.3c0.4-0.4,0.8-0.6,1.4-0.6c0.3,0,0.7,0.1,0.9,0.2c0.3,0.1,0.4,0.3,0.6,0.6
			c0.1,0.2,0.2,0.6,0.2,1.1v3H131v-3c0-0.4-0.1-0.7-0.3-0.9c-0.2-0.2-0.4-0.3-0.7-0.3c-0.2,0-0.5,0.1-0.7,0.2
			c-0.2,0.1-0.4,0.3-0.4,0.5c-0.1,0.2-0.1,0.5-0.1,0.9v2.6H128z"/>
		<path class="st0" d="M132.7,12.1l0.8-0.1c0,0.3,0.2,0.6,0.4,0.7c0.2,0.2,0.5,0.3,0.8,0.3c0.4,0,0.6-0.1,0.8-0.2
			c0.2-0.1,0.3-0.3,0.3-0.5c0-0.2-0.1-0.3-0.2-0.4c-0.1-0.1-0.4-0.2-0.8-0.3c-0.6-0.1-1-0.3-1.2-0.4c-0.2-0.1-0.4-0.3-0.5-0.4
			c-0.1-0.2-0.2-0.4-0.2-0.6c0-0.2,0-0.4,0.1-0.6c0.1-0.2,0.2-0.3,0.4-0.4c0.1-0.1,0.3-0.2,0.5-0.2c0.2-0.1,0.4-0.1,0.7-0.1
			c0.4,0,0.7,0.1,1,0.2c0.3,0.1,0.5,0.3,0.6,0.4c0.1,0.2,0.2,0.4,0.3,0.7l-0.8,0.1c0-0.2-0.1-0.4-0.3-0.6c-0.2-0.1-0.4-0.2-0.7-0.2
			c-0.4,0-0.6,0.1-0.8,0.2c-0.2,0.1-0.2,0.3-0.2,0.4c0,0.1,0,0.2,0.1,0.3c0.1,0.1,0.2,0.2,0.3,0.2c0.1,0,0.3,0.1,0.7,0.2
			c0.6,0.2,1,0.3,1.2,0.4c0.2,0.1,0.4,0.2,0.5,0.4c0.1,0.2,0.2,0.4,0.2,0.7c0,0.3-0.1,0.5-0.2,0.8c-0.2,0.2-0.4,0.4-0.7,0.5
			c-0.3,0.1-0.6,0.2-1,0.2c-0.6,0-1.1-0.1-1.4-0.4C133,13,132.8,12.6,132.7,12.1z"/>
		<path class="st0" d="M137.5,13.5V7h0.8v3.7l1.9-1.9h1l-1.8,1.7l2,3h-1l-1.6-2.4l-0.6,0.5v1.9H137.5z"/>
		<path class="st0" d="M145.1,13c-0.3,0.3-0.6,0.4-0.9,0.5c-0.3,0.1-0.6,0.2-0.9,0.2c-0.5,0-0.9-0.1-1.2-0.4c-0.3-0.3-0.4-0.6-0.4-1
			c0-0.2,0.1-0.4,0.2-0.6c0.1-0.2,0.2-0.3,0.4-0.5c0.2-0.1,0.4-0.2,0.6-0.3c0.2,0,0.4-0.1,0.7-0.1c0.6-0.1,1.1-0.2,1.4-0.3
			c0-0.1,0-0.2,0-0.2c0-0.3-0.1-0.6-0.2-0.7c-0.2-0.2-0.5-0.3-0.9-0.3c-0.4,0-0.7,0.1-0.8,0.2c-0.2,0.1-0.3,0.4-0.4,0.7l-0.8-0.1
			c0.1-0.3,0.2-0.6,0.4-0.8c0.2-0.2,0.4-0.4,0.7-0.5c0.3-0.1,0.7-0.2,1.1-0.2c0.4,0,0.7,0,1,0.1c0.3,0.1,0.4,0.2,0.6,0.4
			c0.1,0.1,0.2,0.3,0.2,0.5c0,0.1,0,0.4,0,0.7v1.1c0,0.7,0,1.2,0.1,1.4c0,0.2,0.1,0.4,0.2,0.6h-0.8C145.2,13.4,145.2,13.2,145.1,13z
			 M145.1,11.2c-0.3,0.1-0.7,0.2-1.3,0.3c-0.3,0-0.6,0.1-0.7,0.2c-0.1,0.1-0.2,0.1-0.3,0.3c-0.1,0.1-0.1,0.2-0.1,0.4
			c0,0.2,0.1,0.4,0.2,0.5c0.2,0.1,0.4,0.2,0.7,0.2c0.3,0,0.6-0.1,0.8-0.2c0.2-0.1,0.4-0.3,0.5-0.6c0.1-0.2,0.1-0.4,0.1-0.8V11.2z"/>
		<path class="st0" d="M146.8,12.1l0.8-0.1c0,0.3,0.2,0.6,0.4,0.7c0.2,0.2,0.5,0.3,0.8,0.3c0.4,0,0.6-0.1,0.8-0.2
			c0.2-0.1,0.3-0.3,0.3-0.5c0-0.2-0.1-0.3-0.2-0.4c-0.1-0.1-0.4-0.2-0.8-0.3c-0.6-0.1-1-0.3-1.2-0.4c-0.2-0.1-0.4-0.3-0.5-0.4
			c-0.1-0.2-0.2-0.4-0.2-0.6c0-0.2,0-0.4,0.1-0.6c0.1-0.2,0.2-0.3,0.4-0.4c0.1-0.1,0.3-0.2,0.5-0.2c0.2-0.1,0.4-0.1,0.7-0.1
			c0.4,0,0.7,0.1,1,0.2c0.3,0.1,0.5,0.3,0.6,0.4c0.1,0.2,0.2,0.4,0.3,0.7l-0.8,0.1c0-0.2-0.1-0.4-0.3-0.6c-0.2-0.1-0.4-0.2-0.7-0.2
			c-0.4,0-0.6,0.1-0.8,0.2c-0.2,0.1-0.2,0.3-0.2,0.4c0,0.1,0,0.2,0.1,0.3c0.1,0.1,0.2,0.2,0.3,0.2c0.1,0,0.3,0.1,0.7,0.2
			c0.6,0.2,1,0.3,1.2,0.4c0.2,0.1,0.4,0.2,0.5,0.4c0.1,0.2,0.2,0.4,0.2,0.7c0,0.3-0.1,0.5-0.2,0.8c-0.2,0.2-0.4,0.4-0.7,0.5
			c-0.3,0.1-0.6,0.2-1,0.2c-0.6,0-1.1-0.1-1.4-0.4C147.1,13,146.9,12.6,146.8,12.1z"/>
		<path class="st0" d="M151.3,12.1l0.8-0.1c0,0.3,0.2,0.6,0.4,0.7c0.2,0.2,0.5,0.3,0.8,0.3c0.4,0,0.6-0.1,0.8-0.2
			c0.2-0.1,0.3-0.3,0.3-0.5c0-0.2-0.1-0.3-0.2-0.4c-0.1-0.1-0.4-0.2-0.8-0.3c-0.6-0.1-1-0.3-1.2-0.4c-0.2-0.1-0.4-0.3-0.5-0.4
			c-0.1-0.2-0.2-0.4-0.2-0.6c0-0.2,0-0.4,0.1-0.6c0.1-0.2,0.2-0.3,0.4-0.4c0.1-0.1,0.3-0.2,0.5-0.2c0.2-0.1,0.4-0.1,0.7-0.1
			c0.4,0,0.7,0.1,1,0.2c0.3,0.1,0.5,0.3,0.6,0.4c0.1,0.2,0.2,0.4,0.3,0.7l-0.8,0.1c0-0.2-0.1-0.4-0.3-0.6c-0.2-0.1-0.4-0.2-0.7-0.2
			c-0.4,0-0.6,0.1-0.8,0.2c-0.2,0.1-0.2,0.3-0.2,0.4c0,0.1,0,0.2,0.1,0.3c0.1,0.1,0.2,0.2,0.3,0.2c0.1,0,0.3,0.1,0.7,0.2
			c0.6,0.2,1,0.3,1.2,0.4c0.2,0.1,0.4,0.2,0.5,0.4c0.1,0.2,0.2,0.4,0.2,0.7c0,0.3-0.1,0.5-0.2,0.8c-0.2,0.2-0.4,0.4-0.7,0.5
			c-0.3,0.1-0.6,0.2-1,0.2c-0.6,0-1.1-0.1-1.4-0.4C151.6,13,151.4,12.6,151.3,12.1z"/>
		<path class="st0" d="M159.4,12l0.8,0.1c-0.1,0.5-0.4,0.9-0.7,1.1c-0.4,0.3-0.8,0.4-1.3,0.4c-0.7,0-1.2-0.2-1.6-0.6
			c-0.4-0.4-0.6-1-0.6-1.8c0-0.8,0.2-1.4,0.6-1.8c0.4-0.4,0.9-0.7,1.6-0.7c0.6,0,1.1,0.2,1.5,0.6s0.6,1,0.6,1.8c0,0,0,0.1,0,0.2
			h-3.5c0,0.5,0.2,0.9,0.4,1.2c0.3,0.3,0.6,0.4,1,0.4c0.3,0,0.5-0.1,0.7-0.2C159.1,12.6,159.3,12.4,159.4,12z M156.8,10.7h2.6
			c0-0.4-0.1-0.7-0.3-0.9c-0.3-0.3-0.6-0.5-1-0.5c-0.4,0-0.7,0.1-0.9,0.4C157,10,156.8,10.3,156.8,10.7z"/>
		<path class="st0" d="M96.7,23.2v-0.6c-0.3,0.5-0.7,0.7-1.3,0.7c-0.4,0-0.7-0.1-1-0.3c-0.3-0.2-0.6-0.5-0.7-0.9
			c-0.2-0.4-0.3-0.8-0.3-1.3c0-0.5,0.1-0.9,0.2-1.3c0.2-0.4,0.4-0.7,0.7-0.9c0.3-0.2,0.7-0.3,1.1-0.3c0.3,0,0.5,0.1,0.8,0.2
			c0.2,0.1,0.4,0.3,0.5,0.5v-2.3h0.8v6.5H96.7z M94.2,20.8c0,0.6,0.1,1.1,0.4,1.4c0.3,0.3,0.6,0.4,0.9,0.4c0.3,0,0.6-0.1,0.9-0.4
			c0.2-0.3,0.4-0.7,0.4-1.3c0-0.6-0.1-1.1-0.4-1.4c-0.2-0.3-0.6-0.5-0.9-0.5c-0.4,0-0.7,0.1-0.9,0.4C94.3,19.8,94.2,20.2,94.2,20.8z
			"/>
		<path class="st0" d="M101.9,21.7l0.8,0.1c-0.1,0.5-0.4,0.9-0.7,1.1c-0.4,0.3-0.8,0.4-1.3,0.4c-0.7,0-1.2-0.2-1.6-0.6
			c-0.4-0.4-0.6-1-0.6-1.8c0-0.8,0.2-1.4,0.6-1.8c0.4-0.4,0.9-0.7,1.6-0.7c0.6,0,1.1,0.2,1.5,0.6c0.4,0.4,0.6,1,0.6,1.8
			c0,0,0,0.1,0,0.2h-3.5c0,0.5,0.2,0.9,0.4,1.2c0.3,0.3,0.6,0.4,1,0.4c0.3,0,0.5-0.1,0.7-0.2C101.6,22.3,101.8,22,101.9,21.7z
			 M99.3,20.4h2.6c0-0.4-0.1-0.7-0.3-0.9c-0.3-0.3-0.6-0.5-1-0.5c-0.4,0-0.7,0.1-0.9,0.4C99.5,19.7,99.3,20,99.3,20.4z"/>
		<path class="st0" d="M103.4,21.8l0.8-0.1c0,0.3,0.2,0.6,0.4,0.7c0.2,0.2,0.5,0.3,0.8,0.3c0.4,0,0.6-0.1,0.8-0.2
			c0.2-0.1,0.3-0.3,0.3-0.5c0-0.2-0.1-0.3-0.2-0.4c-0.1-0.1-0.4-0.2-0.8-0.3c-0.6-0.1-1-0.3-1.2-0.4c-0.2-0.1-0.4-0.3-0.5-0.4
			c-0.1-0.2-0.2-0.4-0.2-0.6c0-0.2,0-0.4,0.1-0.6c0.1-0.2,0.2-0.3,0.4-0.4c0.1-0.1,0.3-0.2,0.5-0.2c0.2-0.1,0.4-0.1,0.7-0.1
			c0.4,0,0.7,0.1,1,0.2c0.3,0.1,0.5,0.3,0.6,0.4c0.1,0.2,0.2,0.4,0.3,0.7l-0.8,0.1c0-0.2-0.1-0.4-0.3-0.6c-0.2-0.1-0.4-0.2-0.7-0.2
			c-0.4,0-0.6,0.1-0.8,0.2c-0.2,0.1-0.2,0.3-0.2,0.4c0,0.1,0,0.2,0.1,0.3c0.1,0.1,0.2,0.2,0.3,0.2c0.1,0,0.3,0.1,0.7,0.2
			c0.6,0.2,1,0.3,1.2,0.4c0.2,0.1,0.4,0.2,0.5,0.4c0.1,0.2,0.2,0.4,0.2,0.7c0,0.3-0.1,0.5-0.2,0.8c-0.2,0.2-0.4,0.4-0.7,0.5
			c-0.3,0.1-0.6,0.2-1,0.2c-0.6,0-1.1-0.1-1.4-0.4C103.7,22.7,103.5,22.3,103.4,21.8z"/>
		<path class="st0" d="M110.9,23.2v-6.5h0.9v3.2l3.2-3.2h1.2l-2.7,2.6l2.8,3.9h-1.1l-2.3-3.3l-1.1,1v2.3H110.9z"/>
		<path class="st0" d="M119.9,22.6c-0.3,0.3-0.6,0.4-0.9,0.5c-0.3,0.1-0.6,0.2-0.9,0.2c-0.5,0-0.9-0.1-1.2-0.4
			c-0.3-0.3-0.4-0.6-0.4-1c0-0.2,0.1-0.4,0.2-0.6c0.1-0.2,0.2-0.3,0.4-0.5c0.2-0.1,0.4-0.2,0.6-0.3c0.2,0,0.4-0.1,0.7-0.1
			c0.6-0.1,1.1-0.2,1.4-0.3c0-0.1,0-0.2,0-0.2c0-0.3-0.1-0.6-0.2-0.7c-0.2-0.2-0.5-0.3-0.9-0.3c-0.4,0-0.7,0.1-0.8,0.2
			c-0.2,0.1-0.3,0.4-0.4,0.7l-0.8-0.1c0.1-0.3,0.2-0.6,0.4-0.8c0.2-0.2,0.4-0.4,0.7-0.5c0.3-0.1,0.7-0.2,1.1-0.2c0.4,0,0.7,0,1,0.1
			c0.3,0.1,0.4,0.2,0.6,0.4c0.1,0.1,0.2,0.3,0.2,0.5c0,0.1,0,0.4,0,0.7v1.1c0,0.7,0,1.2,0.1,1.4c0,0.2,0.1,0.4,0.2,0.6h-0.8
			C120,23,120,22.8,119.9,22.6z M119.9,20.8c-0.3,0.1-0.7,0.2-1.3,0.3c-0.3,0-0.6,0.1-0.7,0.2c-0.1,0.1-0.2,0.1-0.3,0.3
			c-0.1,0.1-0.1,0.2-0.1,0.4c0,0.2,0.1,0.4,0.2,0.5c0.2,0.1,0.4,0.2,0.7,0.2c0.3,0,0.6-0.1,0.8-0.2c0.2-0.1,0.4-0.3,0.5-0.6
			c0.1-0.2,0.1-0.4,0.1-0.8V20.8z"/>
		<path class="st0" d="M121.9,23.2v-4.7h0.7v0.7c0.3-0.5,0.8-0.8,1.5-0.8c0.3,0,0.5,0.1,0.8,0.2c0.2,0.1,0.4,0.2,0.5,0.4
			c0.1,0.2,0.2,0.4,0.2,0.6c0,0.1,0,0.4,0,0.8v2.9h-0.8v-2.9c0-0.3,0-0.6-0.1-0.7c-0.1-0.2-0.2-0.3-0.3-0.4
			c-0.2-0.1-0.3-0.1-0.6-0.1c-0.3,0-0.6,0.1-0.9,0.3c-0.2,0.2-0.4,0.6-0.4,1.2v2.6H121.9z"/>
		<path class="st0" d="M128.7,22.5l0.1,0.7c-0.2,0-0.4,0.1-0.6,0.1c-0.3,0-0.5,0-0.7-0.1c-0.2-0.1-0.3-0.2-0.3-0.4
			c-0.1-0.1-0.1-0.5-0.1-0.9v-2.7h-0.6v-0.6h0.6v-1.2l0.8-0.5v1.6h0.8v0.6h-0.8v2.8c0,0.2,0,0.4,0,0.4c0,0.1,0.1,0.1,0.1,0.2
			c0.1,0,0.2,0.1,0.3,0.1C128.4,22.5,128.5,22.5,128.7,22.5z"/>
		<path class="st0" d="M129.2,20.8c0-0.9,0.2-1.5,0.7-1.9c0.4-0.3,0.9-0.5,1.5-0.5c0.6,0,1.2,0.2,1.6,0.6c0.4,0.4,0.6,1,0.6,1.8
			c0,0.6-0.1,1.1-0.3,1.4c-0.2,0.3-0.4,0.6-0.8,0.8c-0.3,0.2-0.7,0.3-1.1,0.3c-0.7,0-1.2-0.2-1.6-0.6
			C129.4,22.2,129.2,21.6,129.2,20.8z M130,20.8c0,0.6,0.1,1.1,0.4,1.4c0.3,0.3,0.6,0.4,1,0.4c0.4,0,0.7-0.2,1-0.5
			c0.3-0.3,0.4-0.8,0.4-1.4c0-0.6-0.1-1-0.4-1.3c-0.3-0.3-0.6-0.4-1-0.4c-0.4,0-0.7,0.1-1,0.4C130.1,19.8,130,20.2,130,20.8z"/>
		<path class="st0" d="M134.5,23.2v-4.7h0.7v0.7c0.3-0.5,0.8-0.8,1.5-0.8c0.3,0,0.5,0.1,0.8,0.2c0.2,0.1,0.4,0.2,0.5,0.4
			c0.1,0.2,0.2,0.4,0.2,0.6c0,0.1,0,0.4,0,0.8v2.9h-0.8v-2.9c0-0.3,0-0.6-0.1-0.7c-0.1-0.2-0.2-0.3-0.3-0.4
			c-0.2-0.1-0.3-0.1-0.6-0.1c-0.3,0-0.6,0.1-0.9,0.3c-0.2,0.2-0.4,0.6-0.4,1.2v2.6H134.5z"/>
		<path class="st0" d="M139.2,21.8l0.8-0.1c0,0.3,0.2,0.6,0.4,0.7c0.2,0.2,0.5,0.3,0.8,0.3c0.4,0,0.6-0.1,0.8-0.2
			c0.2-0.1,0.3-0.3,0.3-0.5c0-0.2-0.1-0.3-0.2-0.4c-0.1-0.1-0.4-0.2-0.8-0.3c-0.6-0.1-1-0.3-1.2-0.4c-0.2-0.1-0.4-0.3-0.5-0.4
			c-0.1-0.2-0.2-0.4-0.2-0.6c0-0.2,0-0.4,0.1-0.6c0.1-0.2,0.2-0.3,0.4-0.4c0.1-0.1,0.3-0.2,0.5-0.2c0.2-0.1,0.4-0.1,0.7-0.1
			c0.4,0,0.7,0.1,1,0.2c0.3,0.1,0.5,0.3,0.6,0.4c0.1,0.2,0.2,0.4,0.3,0.7l-0.8,0.1c0-0.2-0.1-0.4-0.3-0.6c-0.2-0.1-0.4-0.2-0.7-0.2
			c-0.4,0-0.6,0.1-0.8,0.2c-0.2,0.1-0.2,0.3-0.2,0.4c0,0.1,0,0.2,0.1,0.3c0.1,0.1,0.2,0.2,0.3,0.2c0.1,0,0.3,0.1,0.7,0.2
			c0.6,0.2,1,0.3,1.2,0.4c0.2,0.1,0.4,0.2,0.5,0.4c0.1,0.2,0.2,0.4,0.2,0.7c0,0.3-0.1,0.5-0.2,0.8c-0.2,0.2-0.4,0.4-0.7,0.5
			c-0.3,0.1-0.6,0.2-1,0.2c-0.6,0-1.1-0.1-1.4-0.4C139.5,22.7,139.3,22.3,139.2,21.8z"/>
		<path class="st0" d="M146.4,21.1l0.8-0.1c0,0.3,0.1,0.6,0.3,0.8c0.1,0.2,0.4,0.4,0.7,0.5c0.3,0.1,0.6,0.2,1,0.2
			c0.3,0,0.6,0,0.9-0.1c0.3-0.1,0.4-0.2,0.6-0.4c0.1-0.2,0.2-0.4,0.2-0.6c0-0.2-0.1-0.4-0.2-0.5c-0.1-0.2-0.3-0.3-0.6-0.4
			c-0.2-0.1-0.6-0.2-1.2-0.3c-0.6-0.1-1-0.3-1.3-0.4c-0.3-0.2-0.5-0.4-0.7-0.6c-0.2-0.2-0.2-0.5-0.2-0.8c0-0.3,0.1-0.6,0.3-0.9
			c0.2-0.3,0.5-0.5,0.8-0.6c0.4-0.1,0.8-0.2,1.2-0.2c0.5,0,0.9,0.1,1.3,0.2c0.4,0.2,0.7,0.4,0.8,0.7c0.2,0.3,0.3,0.6,0.3,1l-0.8,0.1
			c0-0.4-0.2-0.7-0.4-0.9c-0.3-0.2-0.6-0.3-1.1-0.3c-0.5,0-0.9,0.1-1.1,0.3c-0.2,0.2-0.4,0.4-0.4,0.7c0,0.2,0.1,0.4,0.3,0.6
			c0.2,0.2,0.6,0.3,1.3,0.5c0.7,0.2,1.2,0.3,1.4,0.4c0.4,0.2,0.7,0.4,0.8,0.7c0.2,0.3,0.3,0.6,0.3,0.9c0,0.3-0.1,0.7-0.3,1
			c-0.2,0.3-0.5,0.5-0.9,0.7c-0.4,0.2-0.8,0.3-1.3,0.3c-0.6,0-1.1-0.1-1.5-0.3c-0.4-0.2-0.7-0.4-0.9-0.8
			C146.6,21.9,146.4,21.5,146.4,21.1z"/>
		<path class="st0" d="M152.4,20.8c0-0.9,0.2-1.5,0.7-1.9c0.4-0.3,0.9-0.5,1.5-0.5c0.6,0,1.2,0.2,1.6,0.6c0.4,0.4,0.6,1,0.6,1.8
			c0,0.6-0.1,1.1-0.3,1.4c-0.2,0.3-0.4,0.6-0.8,0.8c-0.3,0.2-0.7,0.3-1.1,0.3c-0.7,0-1.2-0.2-1.6-0.6
			C152.6,22.2,152.4,21.6,152.4,20.8z M153.2,20.8c0,0.6,0.1,1.1,0.4,1.4c0.3,0.3,0.6,0.4,1,0.4c0.4,0,0.7-0.2,1-0.5
			c0.3-0.3,0.4-0.8,0.4-1.4c0-0.6-0.1-1-0.4-1.3c-0.3-0.3-0.6-0.4-1-0.4c-0.4,0-0.7,0.1-1,0.4C153.3,19.8,153.2,20.2,153.2,20.8z"/>
		<path class="st0" d="M157.7,23.2v-6.5h0.8v6.5H157.7z"/>
		<path class="st0" d="M159.4,20.8c0-0.9,0.2-1.5,0.7-1.9c0.4-0.3,0.9-0.5,1.5-0.5c0.6,0,1.2,0.2,1.6,0.6c0.4,0.4,0.6,1,0.6,1.8
			c0,0.6-0.1,1.1-0.3,1.4c-0.2,0.3-0.4,0.6-0.8,0.8c-0.3,0.2-0.7,0.3-1.1,0.3c-0.7,0-1.2-0.2-1.6-0.6
			C159.6,22.2,159.4,21.6,159.4,20.8z M160.3,20.8c0,0.6,0.1,1.1,0.4,1.4c0.3,0.3,0.6,0.4,1,0.4c0.4,0,0.7-0.2,1-0.5
			c0.3-0.3,0.4-0.8,0.4-1.4c0-0.6-0.1-1-0.4-1.3c-0.3-0.3-0.6-0.4-1-0.4c-0.4,0-0.7,0.1-1,0.4C160.4,19.8,160.3,20.2,160.3,20.8z"/>
		<path class="st0" d="M166.5,22.5l0.1,0.7c-0.2,0-0.4,0.1-0.6,0.1c-0.3,0-0.5,0-0.7-0.1s-0.3-0.2-0.3-0.4c-0.1-0.1-0.1-0.5-0.1-0.9
			v-2.7h-0.6v-0.6h0.6v-1.2l0.8-0.5v1.6h0.8v0.6h-0.8v2.8c0,0.2,0,0.4,0,0.4c0,0.1,0.1,0.1,0.1,0.2c0.1,0,0.2,0.1,0.3,0.1
			C166.3,22.5,166.4,22.5,166.5,22.5z"/>
		<path class="st0" d="M167.3,23.2v-6.5h0.8V19c0.4-0.4,0.8-0.6,1.4-0.6c0.3,0,0.7,0.1,0.9,0.2s0.4,0.3,0.6,0.6
			c0.1,0.2,0.2,0.6,0.2,1.1v3h-0.8v-3c0-0.4-0.1-0.7-0.3-0.9c-0.2-0.2-0.4-0.3-0.7-0.3c-0.2,0-0.5,0.1-0.7,0.2
			c-0.2,0.1-0.4,0.3-0.4,0.5c-0.1,0.2-0.1,0.5-0.1,0.9v2.6H167.3z"/>
		<path class="st0" d="M175.4,23.2v-0.7c-0.4,0.5-0.9,0.8-1.5,0.8c-0.3,0-0.5-0.1-0.8-0.2c-0.2-0.1-0.4-0.2-0.5-0.4
			c-0.1-0.2-0.2-0.4-0.2-0.6c0-0.2,0-0.4,0-0.7v-2.9h0.8v2.6c0,0.4,0,0.7,0,0.8c0.1,0.2,0.2,0.4,0.3,0.5c0.2,0.1,0.4,0.2,0.6,0.2
			s0.5-0.1,0.7-0.2c0.2-0.1,0.4-0.3,0.4-0.5c0.1-0.2,0.1-0.5,0.1-0.9v-2.5h0.8v4.7H175.4z"/>
		<path class="st0" d="M177.4,23.2v-4.7h0.7v0.7c0.2-0.3,0.4-0.6,0.5-0.7c0.2-0.1,0.3-0.2,0.5-0.2c0.3,0,0.5,0.1,0.8,0.3l-0.3,0.7
			c-0.2-0.1-0.4-0.2-0.6-0.2c-0.2,0-0.3,0.1-0.5,0.2c-0.1,0.1-0.2,0.3-0.3,0.4c-0.1,0.3-0.1,0.6-0.1,0.9v2.5H177.4z"/>
		<path class="st0" d="M180.4,23.2v-4.7h0.7v0.7c0.3-0.5,0.8-0.8,1.5-0.8c0.3,0,0.5,0.1,0.8,0.2c0.2,0.1,0.4,0.2,0.5,0.4
			c0.1,0.2,0.2,0.4,0.2,0.6c0,0.1,0,0.4,0,0.8v2.9h-0.8v-2.9c0-0.3,0-0.6-0.1-0.7c-0.1-0.2-0.2-0.3-0.3-0.4
			c-0.2-0.1-0.3-0.1-0.6-0.1c-0.3,0-0.6,0.1-0.9,0.3c-0.2,0.2-0.4,0.6-0.4,1.2v2.6H180.4z"/>
	</g>
	<g>
		<g>
			<rect x="88.2" class="st0" width="0.6" height="29.5"/>
		</g>
	</g>
	<g>
		<path class="st1" d="M6.5,10.4h6.7l6.5,12.8h-5.9L12.9,21H6.3l-1,2.1H0L6.5,10.4z M11.6,18.3l-2-4.5l-2.1,4.5H11.6z"/>
		<path class="st1" d="M21.1,10.4h5.4v12.8h-5.4V10.4z M26.5,16.5l4.6-6.1h6.6l-5.1,5.8l5.7,7h-6.8L26.5,16.5z"/>
		<g>
			<path class="st1" d="M40.4,16.3c-0.5-0.4-0.7-1-0.8-1.5v4.3h5.3c0,0.7,0.2,1.2,0.5,1.6c0.4,0.3,0.8,0.5,1.5,0.5
				c1.1,0,2.3-0.3,2.3-1.3c0-0.2-0.1-0.4-0.2-0.6C48.2,18.4,42.1,17.8,40.4,16.3z"/>
			<path class="st1" d="M39.5,20.8v2.4h3.1C40.6,22.7,39.8,21.8,39.5,20.8z"/>
			<path class="st1" d="M39.5,0.4v13c0.4-2.3,3-3.3,7.6-3.3c5.4,0,7.1,1.5,7.1,4.1H49c0-0.7-0.3-1.2-0.7-1.4
				c-0.4-0.3-0.9-0.4-1.6-0.4c-1.1,0-1.7,0.4-1.7,1.1c0,0.2,0.1,0.4,0.2,0.6c0.8,0.8,6.7,1.4,8.4,2.9c0.5,0.4,1,1.1,1,2.4
				c0,1.8-1.2,3.2-4.1,3.8h11.1c-3.7-0.9-5.2-3.3-5.2-6.4c0-2.5,1-4.3,2.5-5.3c1.2-0.9,2.8-1.4,6.1-1.4c6.2,0,8.5,2.9,8.5,6.7
				c0,2-0.6,3.5-1.7,4.5c-0.9,0.8-2.1,1.5-3.6,1.9h14.1V0.4H39.5z"/>
			<path class="st1" d="M68.2,16.8c0-2.6-1.3-3.8-3.1-3.8c-1.8,0-3.1,1.2-3.1,3.8c0,2.6,1.3,3.8,3.1,3.8
				C66.9,20.6,68.2,19.4,68.2,16.8z"/>
		</g>
	</g>
</g>
</svg>