<svg version="1" xmlns="http://www.w3.org/2000/svg" width="708.712" height="211.967"
  viewBox="0 0 708.712 211.967">
  <style type="text/css">
    .red{fill:#000;}
  </style>
  <path class="red"
    d="M658.902 67.797l-85.465.056 18.908-46.124h-20.969l-52.209 108.573 29.207.046 19.6-48.821 86.334.124z" />
  <path class="red"
    d="M681.333 145.922l10.941-48.076s1.995-7.624-.229-11.192c-3.742-6.018-11.248-5.77-11.248-5.77h-26.236l-15.368 48.902-90.478.091-19.056 47.031h114.016s16.248.226 27.085-9.233c8.095-7.076 10.573-21.753 10.573-21.753M657.952 68.735l24.414.01s4.751.339 10.167-1.904c6.227-2.611 7.278-11.44 7.278-11.44l8.528-42.084s1.897-7.154-2.859-10.822C701.578-.501 691.586.04 691.586.04h-90.614l-9.068 22.563h81.505l-15.457 46.132zM27.793 91.692c0 3.709-2.496 6.2-6.963 6.2H10.525V85.481H20.83c4.467 0 6.963 2.485 6.963 6.211m11.283 22.784c0-7.206-4.176-10.608-7.428-12.114 2.723-1.293 6.664-5.143 6.664-11.124C38.313 82 32.18 76.1 21.66 76.1H0v53.888h22.572c9.608 0 16.504-5.446 16.504-15.512m-10.533-.536c0 3.64-2.262 6.667-7.039 6.667H10.525v-13.259h10.979c4.777 0 7.039 2.955 7.039 6.592M69.195 115.445c0 2.419-.377 4.032-1.428 5.009-1.746 1.662-3.486 1.894-6.227 1.894-3.846 0-5.676-1.815-5.676-4.542 0-2.798 1.977-4.466 5.529-4.466h7.801v2.105zm9.834 14.543v-25.964c0-9.237-5.744-13.926-16.797-13.926-6.588 0-10.369 1.208-14.238 5.449l6.281 6.133c2.055-2.354 3.795-3.256 7.592-3.256 5.205 0 7.328 1.9 7.328 6.211v1.959h-9.316c-9.146 0-13.469 5.152-13.469 11.44 0 3.481 1.127 6.654 3.256 8.865 2.354 2.338 5.6 3.464 10.072 3.464 4.543 0 7.039-1.126 9.686-3.784v3.409h9.605zM112.484 129.988v-3.638c-2.574 2.727-6.211 4.092-9.828 4.092-3.947 0-7.119-1.29-9.313-3.481-3.184-3.17-4.01-6.889-4.01-11.199V90.555h9.842v23.843c0 5.367 3.402 7.186 6.506 7.186 3.105 0 6.58-1.819 6.58-7.186V90.555h9.844v39.433h-9.621zM179.178 129.988v-23.832c0-5.388-3.402-7.207-6.508-7.207-3.025 0-6.586 1.819-6.586 6.972v24.067h-9.854v-23.832c0-5.388-3.396-7.207-6.502-7.207-3.104 0-6.574 1.819-6.574 7.207v23.832h-9.848V90.555h9.611v3.628c2.574-2.648 6.211-4.085 9.848-4.085 4.375 0 7.941 1.594 10.432 5.006 3.342-3.484 6.904-5.006 11.809-5.006 3.947 0 7.502 1.28 9.689 3.465 3.184 3.184 4.33 6.908 4.33 11.212v25.213h-9.847zM220.883 109.167c0 5.231-.678 10.301-6.5 10.301-5.834 0-6.441-5.07-6.441-10.301 0-5.221.607-10.217 6.441-10.217 5.822 0 6.5 4.996 6.5 10.217m9.842 19.378v-37.99h-9.531v3.689c-2.729-3.007-5.445-4.146-9.611-4.146-3.863 0-7.279 1.28-9.463 3.465-3.709 3.726-4.014 8.728-4.014 15.604 0 6.896.305 11.957 4.014 15.679 2.184 2.207 5.518 3.474 9.383 3.474 3.867 0 6.805-1.061 9.381-3.928v4.007c0 4.003-2.043 8.166-7.943 8.166-3.336 0-5.521-.901-7.725-3.018l-6.133 6.201c4.088 3.935 8.258 5.158 14.311 5.158 10.594 0 17.331-6.902 17.331-16.361M261.91 115.445c0 2.419-.381 4.032-1.434 5.009-1.75 1.662-3.49 1.894-6.197 1.894-3.869 0-5.688-1.815-5.688-4.542 0-2.798 1.969-4.466 5.525-4.466h7.793v2.105zm9.842 14.543v-25.964c0-9.237-5.75-13.926-16.807-13.926-6.588 0-10.357 1.208-14.227 5.449l6.273 6.133c2.053-2.354 3.793-3.256 7.584-3.256 5.199 0 7.334 1.9 7.334 6.211v1.959H252.6c-9.158 0-13.473 5.152-13.473 11.44 0 3.481 1.131 6.654 3.262 8.865 2.338 2.338 5.6 3.464 10.057 3.464 4.539 0 7.043-1.126 9.691-3.784v3.409h9.615zM303.934 101.294c-1.521-1.505-2.818-2.345-5.248-2.345-3.018 0-6.34 2.276-6.34 7.278v23.76h-9.836V90.555h9.6v3.769c1.904-2.257 5.678-4.226 9.926-4.226 3.859 0 6.586.979 9.301 3.709l-7.403 7.487zM329.424 129.988c-8.016 0-11.424-5.678-11.424-11.291V99.178h-4.168v-7.486H318V80.035h9.848v11.657h6.957v7.486h-6.957v18.935c0 2.256 1.055 3.559 3.395 3.559h3.563v8.316h-5.382zM366.84 129.988v-23.832c0-5.388-3.43-7.207-6.527-7.207-3.102 0-6.586 1.819-6.586 7.207v23.832h-9.844V90.555h9.611v3.628c2.584-2.72 6.211-4.085 9.848-4.085 3.936 0 7.109 1.28 9.303 3.465 3.184 3.184 4.025 6.908 4.025 11.212v25.213h-9.83zM410.124 106.594h-14.99c.061-1.73.297-2.782.91-4.232 1.064-2.344 3.256-4.094 6.586-4.094 3.326 0 5.518 1.75 6.586 4.094.6 1.45.835 2.502.908 4.232m9.69 6.745v-4.401c0-10.811-6.207-18.84-17.185-18.84-10.223 0-17.188 7.262-17.188 20.143 0 15.963 8.939 20.202 18.236 20.202 7.124 0 10.993-2.194 14.997-6.211l-5.992-5.831c-2.481 2.504-4.599 3.716-8.927 3.716-5.529 0-8.623-3.716-8.623-8.777h24.682zM450.46 101.294c-1.498-1.505-2.808-2.345-5.224-2.345-3.021 0-6.36 2.276-6.36 7.278v23.76h-9.825V90.555h9.6v3.769c1.903-2.257 5.679-4.226 9.93-4.226 3.847 0 6.586.979 9.302 3.709l-7.423 7.487zM0 157.624v53.905h10.539v-21.886h21.266v-9.388H10.539v-13.243h24.979v-9.388zM64.254 188.128h-14.98c.078-1.741.297-2.809.908-4.235 1.059-2.351 3.262-4.098 6.586-4.098 3.33 0 5.523 1.747 6.586 4.098.613 1.426.832 2.494.9 4.235m9.695 6.735v-4.385c0-10.834-6.227-18.854-17.182-18.854-10.223 0-17.186 7.278-17.186 20.14 0 15.97 8.928 20.202 18.242 20.202 7.119 0 10.988-2.191 14.992-6.211l-5.977-5.828c-2.52 2.504-4.627 3.729-8.943 3.729-5.518 0-8.623-3.729-8.623-8.793h24.677zM106.117 211.529v-23.855c0-5.368-3.393-7.2-6.504-7.2-3.105 0-6.586 1.832-6.586 7.2v23.855H83.18v-39.438h9.619v3.615c2.568-2.717 6.197-4.082 9.834-4.082 3.938 0 7.121 1.287 9.309 3.481 3.184 3.183 4.016 6.89 4.016 11.202v25.221h-9.841zM139.646 211.967c-6.201 0-11.797-.67-16.799-5.672l6.43-6.433c3.262 3.249 7.506 3.706 10.525 3.706 3.402 0 6.955-1.137 6.955-4.088 0-1.966-1.047-3.324-4.152-3.628l-6.211-.61c-7.117-.676-11.51-3.791-11.51-11.053 0-8.166 7.209-12.564 15.225-12.564 6.123 0 11.275 1.068 15.061 4.617l-6.051 6.129c-2.283-2.044-5.756-2.648-9.166-2.648-3.934 0-5.596 1.819-5.596 3.795 0 1.427.594 3.104 4.088 3.402l6.203.606c7.795.751 11.729 4.914 11.729 11.579 0 8.711-7.418 12.862-16.731 12.862M176.367 211.529c-8.029 0-11.432-5.688-11.432-11.285v-19.538h-4.166v-7.497h4.166v-11.656h9.834v11.656h6.961v7.497h-6.961v18.931c0 2.27 1.068 3.55 3.41 3.55h3.551v8.343h-5.363zM213.285 188.128h-14.99c.078-1.741.311-2.809.912-4.235 1.064-2.351 3.254-4.098 6.586-4.098 3.34 0 5.523 1.747 6.586 4.098.609 1.426.828 2.494.906 4.235m9.692 6.735v-4.385c0-10.834-6.211-18.854-17.184-18.854-10.215 0-17.176 7.278-17.176 20.14 0 15.97 8.92 20.202 18.223 20.202 7.125 0 10.984-2.191 15.01-6.211l-5.99-5.828c-2.496 2.504-4.621 3.729-8.922 3.729-5.537 0-8.643-3.729-8.643-8.793h24.682zM253.627 182.821c-1.506-1.498-2.789-2.334-5.209-2.334-3.043 0-6.367 2.263-6.367 7.265v23.777h-9.838v-39.438h9.607v3.771c1.893-2.272 5.678-4.238 9.922-4.238 3.857 0 6.586 1 9.313 3.706l-7.428 7.491z" />
</svg>