<?xml version="1.0" encoding="UTF-8"?>
<svg xmlns="http://www.w3.org/2000/svg" width="1157pt" height="236pt" viewBox="0 0 1157 236"
  version="1.1">
  <g id="#53af30ff">
    <path fill="#000" opacity="1.00"
      d=" M 565.41 9.43 C 569.85 8.63 574.76 9.72 577.93 13.07 C 583.36 18.38 582.99 28.28 577.05 33.07 C 570.77 38.65 559.57 36.48 556.16 28.69 C 552.27 21.24 556.96 10.84 565.41 9.43 Z"></path>
    <path fill="#000" opacity="1.00"
      d=" M 37.65 68.63 C 51.63 60.17 69.34 59.54 84.70 64.27 C 97.79 68.26 108.70 78.36 113.90 90.99 C 118.70 101.88 119.58 113.97 119.48 125.73 C 89.71 125.72 59.95 125.72 30.19 125.74 C 29.95 136.86 33.38 148.58 41.55 156.46 C 52.26 166.77 69.66 168.22 82.62 161.48 C 89.81 157.67 95.02 150.93 98.15 143.54 C 104.57 143.54 110.98 143.51 117.40 143.56 C 112.05 159.39 99.77 173.43 83.64 178.71 C 72.07 182.43 59.33 182.69 47.65 179.28 C 35.52 175.69 24.95 167.32 18.68 156.32 C 10.16 141.88 9.54 124.21 12.52 108.08 C 15.40 92.42 23.68 76.99 37.65 68.63 M 49.27 81.22 C 38.20 86.84 31.75 98.93 30.53 110.97 C 53.73 111.03 76.92 111.00 100.12 110.99 C 99.14 102.74 96.44 94.40 90.91 88.05 C 80.88 76.43 62.60 74.61 49.27 81.22 Z"></path>
    <path fill="#000" opacity="1.00"
      d=" M 171.41 65.36 C 182.51 60.80 195.05 60.81 206.58 63.62 C 214.81 65.72 222.79 70.17 227.67 77.29 C 232.77 84.40 234.39 93.36 234.46 101.95 C 234.47 127.46 234.46 152.97 234.47 178.47 C 228.49 178.45 222.51 178.47 216.54 178.46 C 216.54 154.96 216.53 131.45 216.54 107.94 C 216.42 99.63 214.50 90.65 208.34 84.66 C 202.26 78.71 193.23 77.16 185.05 77.91 C 176.25 78.62 167.13 81.48 160.97 88.10 C 154.16 95.21 151.79 105.38 151.72 114.96 C 151.75 136.21 151.70 157.47 151.74 178.72 C 145.75 178.73 139.77 178.73 133.78 178.71 C 133.78 140.73 133.78 102.76 133.77 64.78 C 139.76 64.77 145.74 64.77 151.73 64.78 C 151.72 71.02 151.75 77.27 151.71 83.51 C 155.55 75.15 162.88 68.67 171.41 65.36 Z"></path>
    <path fill="#000" opacity="1.00"
      d=" M 273.58 69.54 C 286.73 60.80 303.67 59.65 318.71 63.29 C 331.12 66.29 342.34 74.34 348.54 85.57 C 355.55 97.66 357.14 112.00 356.71 125.73 C 326.94 125.73 297.17 125.71 267.39 125.74 C 267.51 136.30 270.30 147.41 277.76 155.23 C 288.67 167.09 308.07 168.64 321.61 160.53 C 328.10 156.70 332.48 150.27 335.54 143.53 C 341.93 143.56 348.33 143.45 354.72 143.61 C 349.46 159.23 337.43 173.11 321.58 178.50 C 309.29 182.55 295.59 182.87 283.29 178.71 C 269.81 174.29 258.67 163.69 253.18 150.66 C 247.20 137.00 247.26 121.48 250.07 107.07 C 253.01 92.32 260.72 77.86 273.58 69.54 M 284.40 82.52 C 274.63 88.57 268.98 99.76 267.89 110.99 C 291.11 111.00 314.34 111.01 337.56 110.99 C 336.23 101.33 332.78 91.34 325.10 84.89 C 313.89 75.68 296.69 75.05 284.40 82.52 Z"></path>
    <path fill="#000" opacity="1.00"
      d=" M 468.30 63.53 C 478.22 60.69 489.12 60.41 498.86 64.15 C 508.57 67.72 516.71 74.83 522.27 83.49 C 522.28 77.17 522.25 70.84 522.29 64.52 C 528.19 64.55 534.09 64.54 539.99 64.53 C 540.01 95.36 539.99 126.20 540.00 157.03 C 540.16 169.97 540.39 183.33 535.51 195.56 C 531.63 205.99 523.80 214.90 513.72 219.71 C 503.59 224.61 492.17 226.22 481.01 226.02 C 468.38 226.19 455.07 223.05 445.37 214.58 C 437.93 208.14 433.87 198.49 433.16 188.79 C 439.65 188.77 446.14 188.77 452.63 188.78 C 453.95 195.71 457.70 202.44 464.00 205.97 C 472.54 210.72 482.84 210.58 492.24 209.13 C 501.79 207.64 510.92 202.26 515.70 193.69 C 522.55 181.65 522.29 167.31 522.32 153.89 C 517.61 163.91 509.00 172.10 498.43 175.62 C 483.00 180.77 464.97 178.86 451.52 169.48 C 439.63 161.11 432.67 147.22 430.44 133.09 C 428.12 117.98 429.60 101.77 437.31 88.32 C 443.93 76.47 455.22 67.27 468.30 63.53 M 475.42 78.64 C 468.75 80.23 462.55 83.83 458.08 89.06 C 451.24 96.98 448.60 107.75 448.70 118.02 C 448.55 129.53 450.55 141.85 457.98 151.04 C 466.95 162.05 483.25 164.68 496.23 160.25 C 506.69 156.80 515.03 148.14 518.83 137.89 C 522.69 127.50 523.31 115.91 520.51 105.19 C 518.33 96.99 513.75 89.23 506.83 84.18 C 497.96 77.56 486.01 76.12 475.42 78.64 Z"></path>
    <path fill="#000" opacity="1.00"
      d=" M 618.26 69.30 C 631.50 60.71 648.44 59.64 663.47 63.40 C 675.89 66.50 686.99 74.73 693.15 86.01 C 699.90 98.02 701.50 112.15 701.00 125.72 C 671.22 125.74 641.45 125.71 611.68 125.73 C 611.92 136.22 614.51 147.26 621.92 155.08 C 632.23 166.43 650.24 168.41 663.68 161.82 C 671.23 158.11 676.57 151.12 679.88 143.54 C 686.28 143.53 692.68 143.53 699.09 143.53 C 694.50 157.15 684.85 169.37 671.96 175.96 C 659.21 182.16 644.18 183.22 630.54 179.62 C 616.77 176.00 604.94 166.06 598.75 153.26 C 591.27 138.41 591.33 120.92 594.85 104.99 C 598.06 90.84 605.87 77.28 618.26 69.30 M 621.61 88.53 C 616.13 94.77 613.17 102.83 612.15 111.00 C 635.39 110.99 658.63 111.02 681.87 110.99 C 680.53 100.34 676.22 89.23 666.99 83.03 C 653.21 73.99 632.59 75.85 621.61 88.53 Z"></path>
    <path fill="#000" opacity="1.00"
      d=" M 409.11 65.14 C 415.03 62.43 421.64 62.67 428.00 62.79 C 428.00 69.01 428.00 75.23 427.99 81.45 C 418.77 81.25 408.62 81.96 401.34 88.32 C 391.71 96.53 389.41 109.98 389.07 121.98 C 388.91 140.80 389.04 159.64 389.00 178.46 C 383.10 178.46 377.20 178.46 371.29 178.47 C 371.25 140.49 371.28 102.52 371.28 64.54 C 377.09 64.53 382.90 64.54 388.71 64.53 C 388.75 72.49 388.69 80.45 388.75 88.41 C 392.72 78.76 399.16 69.31 409.11 65.14 Z"></path>
    <path fill="#000" opacity="1.00"
      d=" M 559.28 178.47 C 559.27 140.49 559.28 102.51 559.28 64.53 C 565.26 64.54 571.23 64.54 577.21 64.54 C 577.24 102.51 577.22 140.49 577.22 178.46 C 571.24 178.47 565.26 178.45 559.28 178.47 Z"></path>
  </g>
  <g id="#000">
    <path fill="#000" opacity="1.00"
      d=" M 731.05 23.12 C 740.75 12.94 755.27 8.82 769.01 8.97 C 781.80 8.72 795.07 12.67 804.55 21.50 C 822.04 37.23 823.22 68.38 805.50 84.38 C 802.02 87.88 797.53 90.00 793.54 92.80 C 804.76 97.28 814.64 105.97 818.73 117.56 C 824.06 132.71 822.49 150.72 812.89 163.88 C 805.02 174.83 792.22 181.48 779.08 183.58 C 761.56 186.42 742.52 182.67 728.51 171.45 C 719.90 164.67 714.06 154.50 712.90 143.57 C 717.80 143.57 722.70 143.56 727.60 143.57 C 729.35 150.98 733.73 157.69 739.83 162.23 C 750.08 169.99 763.78 172.19 776.26 170.04 C 787.19 168.19 797.42 161.58 802.79 151.77 C 810.11 138.75 808.28 120.23 796.62 110.28 C 787.78 102.77 775.82 100.49 764.55 99.95 C 764.58 95.44 764.55 90.94 764.59 86.44 C 773.63 86.39 783.02 84.79 790.61 79.58 C 805.47 69.78 808.10 46.10 795.92 33.18 C 788.92 25.51 778.15 22.29 767.99 22.65 C 757.53 22.69 746.49 26.39 739.76 34.74 C 735.18 40.14 733.24 47.25 732.93 54.21 C 728.22 54.20 723.50 54.20 718.79 54.20 C 719.29 42.89 722.93 31.30 731.05 23.12 Z"></path>
    <path fill="#000" opacity="1.00"
      d=" M 868.04 16.97 C 882.17 8.35 900.29 6.53 915.90 11.98 C 930.38 16.99 941.94 30.10 943.91 45.48 C 939.23 45.39 934.55 45.45 929.87 45.43 C 928.51 39.05 924.89 33.22 919.56 29.42 C 908.84 21.41 893.88 20.81 881.76 25.82 C 871.89 29.95 864.52 38.50 859.88 47.94 C 853.01 61.94 850.64 77.62 849.63 93.04 C 856.47 81.54 867.35 72.41 880.17 68.37 C 895.86 63.30 914.05 65.74 927.35 75.69 C 938.73 84.00 946.00 97.12 948.62 110.83 C 951.59 126.62 949.78 143.63 942.03 157.84 C 935.36 170.21 923.41 179.60 909.70 182.84 C 895.66 186.14 880.21 184.59 867.59 177.39 C 858.42 172.17 851.29 163.91 846.48 154.60 C 840.40 142.87 837.51 129.76 836.09 116.71 C 833.86 94.56 834.80 71.62 842.52 50.54 C 847.42 37.18 855.79 24.60 868.04 16.97 M 886.53 80.75 C 875.38 83.49 865.75 91.33 860.35 101.41 C 853.64 113.68 852.76 128.70 856.88 141.95 C 860.09 152.44 867.38 161.89 877.39 166.64 C 892.17 173.95 911.95 171.86 923.43 159.49 C 933.36 148.72 936.28 133.26 935.11 119.06 C 934.08 106.42 928.35 93.65 917.81 86.17 C 908.91 79.69 897.09 77.97 886.53 80.75 Z"></path>
    <path fill="#000" opacity="1.00"
      d=" M 1021.19 9.10 C 1033.32 8.08 1045.87 11.05 1055.85 18.14 C 1067.96 26.54 1076.00 39.61 1080.85 53.31 C 1087.20 71.45 1088.52 91.00 1087.09 110.05 C 1085.58 126.60 1081.49 143.29 1072.52 157.45 C 1065.59 168.53 1055.24 177.84 1042.66 181.87 C 1027.59 186.77 1010.25 184.84 997.00 176.00 C 984.98 168.07 976.71 155.51 971.70 142.20 C 964.35 122.68 963.13 101.37 964.94 80.75 C 967.03 61.48 972.89 41.77 985.98 27.02 C 994.91 16.89 1007.64 10.05 1021.19 9.10 M 1017.39 23.58 C 1002.36 27.12 991.69 40.15 986.06 53.89 C 978.06 73.42 976.81 95.20 979.59 115.95 C 981.73 130.56 986.40 145.40 996.22 156.74 C 1003.53 165.36 1014.54 170.98 1025.94 170.83 C 1037.36 170.95 1048.35 165.21 1055.53 156.45 C 1066.28 143.59 1070.74 126.73 1072.41 110.36 C 1073.97 92.04 1072.76 73.10 1066.10 55.81 C 1061.82 44.90 1055.12 34.36 1044.96 28.09 C 1036.87 22.92 1026.70 21.40 1017.39 23.58 Z"></path>
    <path fill="#000" opacity="1.00"
      d=" M 1111.40 9.70 C 1120.92 7.40 1131.61 10.54 1138.14 17.90 C 1148.32 28.86 1147.16 48.09 1135.70 57.71 C 1125.74 66.57 1109.33 66.32 1099.45 57.47 C 1088.53 47.98 1087.35 29.61 1096.71 18.66 C 1100.44 14.18 1105.70 10.97 1111.40 9.70 M 1112.33 18.53 C 1102.84 21.39 1096.89 32.58 1100.09 42.02 C 1102.62 51.39 1113.32 57.80 1122.73 54.86 C 1132.16 52.30 1138.22 41.59 1135.69 32.18 C 1133.60 22.12 1122.20 15.02 1112.33 18.53 Z"></path>
  </g>
</svg>