<?xml version="1.0" encoding="UTF-8" standalone="no"?>
<!-- Created with Inkscape (http://www.inkscape.org/) -->
<svg
  xmlns:dc="http://purl.org/dc/elements/1.1/"
  xmlns:cc="http://creativecommons.org/ns#"
  xmlns:rdf="http://www.w3.org/1999/02/22-rdf-syntax-ns#"
  xmlns:svg="http://www.w3.org/2000/svg"
  xmlns="http://www.w3.org/2000/svg"
  xmlns:sodipodi="http://sodipodi.sourceforge.net/DTD/sodipodi-0.dtd"
  xmlns:inkscape="http://www.inkscape.org/namespaces/inkscape"
  width="500"
  height="179.99001"
  id="svg2"
  sodipodi:version="0.32"
  inkscape:version="0.46"
  version="1.0"
  sodipodi:docname="Logo Globus.svg"
  inkscape:output_extension="org.inkscape.output.svg.inkscape">
  <defs
    id="defs4">
    <inkscape:perspective
      sodipodi:type="inkscape:persp3d"
      inkscape:vp_x="0 : 526.18109 : 1"
      inkscape:vp_y="0 : 1000 : 0"
      inkscape:vp_z="744.09448 : 526.18109 : 1"
      inkscape:persp3d-origin="372.04724 : 350.78739 : 1"
      id="perspective10" />
    <clipPath
      id="clipPath2756"
      clipPathUnits="userSpaceOnUse">
      <path
        id="path2758"
        d="M 0.015,841.89 L 1190.565,841.89 L 1190.565,0 L 0.015,0 L 0.015,841.89 z" />
    </clipPath>
    <clipPath
      id="clipPath2748"
      clipPathUnits="userSpaceOnUse">
      <path
        id="path2750"
        d="M 1199.06,850.394 L -8.504,850.394 L -8.504,-8.504 L 1199.06,-8.504 L 1199.06,850.394 z" />
    </clipPath>
    <clipPath
      id="clipPath2566"
      clipPathUnits="userSpaceOnUse">
      <path
        id="path2568"
        d="M 0.015,841.89 L 1190.565,841.89 L 1190.565,0 L 0.015,0 L 0.015,841.89 z" />
    </clipPath>
    <clipPath
      id="clipPath2558"
      clipPathUnits="userSpaceOnUse">
      <path
        id="path2560"
        d="M 1199.06,850.394 L -8.504,850.394 L -8.504,-8.504 L 1199.06,-8.504 L 1199.06,850.394 z" />
    </clipPath>
    <clipPath
      id="clipPath2550"
      clipPathUnits="userSpaceOnUse">
      <path
        id="path2552"
        d="M 1150.87,99.212 L 944.881,99.212 L 944.881,30.047 L 1150.87,30.047 L 1150.87,99.212 z" />
    </clipPath>
    <clipPath
      id="clipPath2542"
      clipPathUnits="userSpaceOnUse">
      <path
        id="path2544"
        d="M 961.89,94.488 L 1150.05,94.488 L 1150.05,18.258 L 961.89,18.258 L 961.89,94.488" />
    </clipPath>
    <clipPath
      id="clipPath2534"
      clipPathUnits="userSpaceOnUse">
      <path
        id="path2536"
        d="M 1149.98,94.488 L 961.89,94.488 L 961.89,18.335 L 1149.98,18.335 L 1149.98,94.488 z" />
    </clipPath>
    <clipPath
      id="clipPath2520"
      clipPathUnits="userSpaceOnUse">
      <path
        id="path2522"
        d="M 0.015,841.89 L 1190.565,841.89 L 1190.565,0 L 0.015,0 L 0.015,841.89 z" />
    </clipPath>
    <clipPath
      id="clipPath2512"
      clipPathUnits="userSpaceOnUse">
      <path
        id="path2514"
        d="M 1199.06,850.394 L -8.504,850.394 L -8.504,-8.504 L 1199.06,-8.504 L 1199.06,850.394 z" />
    </clipPath>
    <clipPath
      id="clipPath2504"
      clipPathUnits="userSpaceOnUse">
      <path
        id="path2506"
        d="M 1199.06,850.394 L 595.276,850.394 L 595.276,-8.503 L 1199.06,-8.503 L 1199.06,850.394 z" />
    </clipPath>
    <clipPath
      id="clipPath2496"
      clipPathUnits="userSpaceOnUse">
      <path
        id="path2498"
        d="M 1196.87,851.394 L 594.169,851.394 L 594.169,-9.359 L 1196.87,-9.359 L 1196.87,851.394 z" />
    </clipPath>
    <clipPath
      id="clipPath2482"
      clipPathUnits="userSpaceOnUse">
      <path
        id="path2484"
        d="M 0.015,841.89 L 1190.565,841.89 L 1190.565,0 L 0.015,0 L 0.015,841.89 z" />
    </clipPath>
    <clipPath
      id="clipPath2474"
      clipPathUnits="userSpaceOnUse">
      <path
        id="path2476"
        d="M 1199.06,850.394 L -8.504,850.394 L -8.504,-8.504 L 1199.06,-8.504 L 1199.06,850.394 z" />
    </clipPath>
    <clipPath
      id="clipPath2466"
      clipPathUnits="userSpaceOnUse">
      <path
        id="path2468"
        d="M 595.276,850.394 L -34.016,850.394 L -34.016,-8.503 L 595.276,-8.503 L 595.276,850.394 z" />
    </clipPath>
    <clipPath
      id="clipPath2458"
      clipPathUnits="userSpaceOnUse">
      <path
        id="path2460"
        d="M 596.152,851.48 L -9.64,851.48 L -9.64,-9.456 L 596.152,-9.456 L 596.152,851.48 z" />
    </clipPath>
    <inkscape:perspective
      id="perspective2450"
      inkscape:persp3d-origin="372.04724 : 350.78739 : 1"
      inkscape:vp_z="744.09448 : 526.18109 : 1"
      inkscape:vp_y="0 : 1000 : 0"
      inkscape:vp_x="0 : 526.18109 : 1"
      sodipodi:type="inkscape:persp3d" />
  </defs>
  <sodipodi:namedview
    id="base"
    pagecolor="#ffffff"
    bordercolor="#666666"
    borderopacity="1.0"
    inkscape:pageopacity="0.0"
    inkscape:pageshadow="2"
    inkscape:zoom="0.35"
    inkscape:cx="8.5714286"
    inkscape:cy="520"
    inkscape:document-units="px"
    inkscape:current-layer="layer1"
    showgrid="false"
    inkscape:window-width="1280"
    inkscape:window-height="750"
    inkscape:window-x="-8"
    inkscape:window-y="-8" />
  <metadata
    id="metadata7">
    <rdf:RDF>
      <cc:Work
        rdf:about="">
        <dc:format>image/svg+xml</dc:format>
        <dc:type
          rdf:resource="http://purl.org/dc/dcmitype/StillImage" />
      </cc:Work>
    </rdf:RDF>
  </metadata>
  <g
    inkscape:label="Ebene 1"
    inkscape:groupmode="layer"
    id="layer1"
    transform="translate(-243.64402,-205.43963)">
    <g
      id="g4451"
      transform="matrix(2.4190348,0,0,2.4190348,-335.73935,-508.56106)">
      <path
        id="path3098"
        style="fill:#000;fill-opacity:1;fill-rule:nonzero;stroke:none"
        d="M 243.64402,365.43156 L 442.07027,365.43156 L 442.07027,299.29281 L 243.64402,299.29281 L 243.64402,365.43156 z" />
      <path
        d="M 284.37902,321.58532 C 283.88902,321.31282 283.39902,321.04032 282.88152,320.79532 C 282.17402,320.49532 280.02402,319.65157 277.68277,319.65157 C 273.98027,319.65157 270.98527,321.77532 270.98527,325.72282 C 270.98527,326.45782 271.09402,328.44407 272.72777,329.91532 C 273.51777,330.62282 274.30652,330.92157 274.68777,331.03032 C 275.58652,331.33032 276.45777,331.33032 276.81152,331.33032 C 278.30902,331.33032 279.20652,330.97657 279.83277,330.75907 L 279.83277,328.52657 L 277.38277,328.52657 L 277.38277,324.82407 L 284.46027,324.98782 L 284.46027,333.26282 C 283.91652,333.56282 283.39902,333.86157 282.82777,334.10657 C 280.13277,335.30407 277.60027,335.46782 276.56652,335.46782 C 275.88527,335.46782 274.22527,335.41282 272.42902,334.76032 C 268.45402,333.29032 265.94902,329.77907 265.94902,325.53157 C 265.97652,320.65907 269.10777,318.12782 270.55027,317.20157 C 271.77527,316.41282 273.78902,315.43282 277.16527,315.43282 C 278.03652,315.43282 280.51277,315.48657 282.90902,316.49407 C 283.42652,316.71157 283.91652,316.95657 284.37902,317.22907 L 284.37902,321.58532"
        style="fill:#ffffff;fill-opacity:1;fill-rule:nonzero;stroke:none"
        id="path3102" />
      <path
        d="M 296.10527,335.05906 L 296.10527,315.84031 L 300.92277,315.84031 L 300.92277,331.33031 L 310.23277,331.33031 L 310.23277,335.05906 L 296.10527,335.05906"
        style="fill:#ffffff;fill-opacity:1;fill-rule:nonzero;stroke:none"
        id="path3106" />
      <path
        d="M 333.73278,322.7553 C 332.37153,319.8703 329.40403,319.67905 328.42528,319.67905 C 327.85278,319.67905 326.00153,319.73405 324.50528,320.95905 C 323.19778,322.0203 322.59903,323.7353 322.59903,325.36905 C 322.59903,325.8853 322.62653,327.00155 323.25278,328.25405 C 324.66778,331.00405 327.58028,331.19405 328.47903,331.19405 C 331.80028,331.19405 334.33153,328.8803 334.35903,325.53155 C 334.35903,325.04155 334.30403,323.9528 333.73278,322.7553 z M 336.94528,332.0928 C 335.55653,333.61655 333.08028,335.4678 328.34278,335.4678 C 327.90778,335.4678 326.84528,335.4403 325.64778,335.2228 C 324.50528,335.0053 321.70028,334.2428 319.60528,331.5753 C 318.18903,329.77905 317.56278,327.7103 317.56278,325.3953 C 317.59028,320.7678 320.23028,318.2903 321.67278,317.28405 C 323.74278,315.8403 325.94778,315.4328 328.45153,315.4328 C 329.73153,315.4328 333.10653,315.4328 336.02028,317.8828 C 337.21778,318.8903 339.34028,321.2303 339.39528,325.31405 C 339.39528,326.56655 339.25903,329.47905 336.94528,332.0928"
        style="fill:#ffffff;fill-opacity:1;fill-rule:nonzero;stroke:none"
        id="path3110" />
      <path
        d="M 360.22026,330.5678 C 359.73026,331.16655 359.15776,331.3578 357.71526,331.38405 L 355.04776,331.38405 L 355.04776,327.05655 L 357.79651,327.05655 C 358.72276,327.05655 359.70276,327.1103 360.30151,327.98155 C 360.62776,328.47155 360.65526,329.04405 360.65526,329.23405 C 360.65526,329.72405 360.51901,330.15905 360.22026,330.5678 z M 354.95151,319.39155 L 356.38151,319.39155 L 356.54026,319.39155 C 357.36776,319.3878 358.39776,319.38405 358.99276,320.1678 C 359.16151,320.40405 359.36401,320.8003 359.36401,321.3403 C 359.36401,321.8828 359.17151,322.2653 359.10526,322.39655 C 358.89401,322.75905 358.50401,323.2578 357.56526,323.39655 C 357.34026,323.42405 357.11651,323.42405 356.89901,323.42405 L 354.95151,323.42405 L 354.95151,319.39155 z M 363.48651,325.36905 C 362.91526,324.9878 362.42526,324.85155 361.74401,324.7153 C 362.12526,324.55155 362.39776,324.4428 362.69651,324.1978 C 363.24151,323.7353 364.11276,322.64655 364.11276,320.8228 C 364.11276,318.48155 362.61526,316.6853 360.38276,316.1128 C 359.56651,315.8953 358.88651,315.8678 358.06901,315.8403 L 350.25651,315.8403 L 350.25651,335.05905 L 358.61401,335.05905 C 359.89276,335.0053 360.95526,334.9778 362.18026,334.5153 C 364.27526,333.67155 365.55526,331.8753 365.58276,329.6153 C 365.58276,328.00905 364.90276,326.29405 363.48651,325.36905"
        style="fill:#ffffff;fill-opacity:1;fill-rule:nonzero;stroke:none"
        id="path3114" />
      <path
        d="M 394.61527,326.45781 C 394.61527,326.97406 394.61527,327.51906 394.58777,328.03656 C 394.50652,329.58781 394.04277,331.00406 393.03652,332.22906 C 391.13027,334.54281 388.05402,335.46781 385.14277,335.46781 C 384.16152,335.46781 381.82152,335.38656 379.45277,333.99781 C 378.39027,333.37156 377.73777,332.74531 377.41152,332.39156 C 377.13902,332.09281 376.75777,331.65656 376.40402,330.84031 C 375.88652,329.69656 375.72277,328.71656 375.66777,326.34906 L 375.66777,315.84031 L 380.48652,315.84031 L 380.48652,325.85906 C 380.54152,327.11031 380.59527,327.79156 380.75902,328.36281 C 381.30277,330.35031 383.18152,331.27531 385.11527,331.24906 C 386.42152,331.24906 387.37402,330.86781 387.81027,330.62281 C 389.82402,329.53406 389.74277,327.54656 389.76902,325.61406 L 389.76902,315.84031 L 394.61527,315.84031 L 394.61527,326.45781"
        style="fill:#ffffff;fill-opacity:1;fill-rule:nonzero;stroke:none"
        id="path3118" />
      <path
        d="M 405.48403,329.17906 C 406.21903,329.64281 406.95403,330.13281 407.71653,330.56781 C 408.28778,330.86781 409.73028,331.60281 411.55403,331.60281 C 411.74528,331.60281 412.72528,331.60281 413.43278,331.19406 C 414.19528,330.78531 414.35903,330.15906 414.35903,329.80531 C 414.33153,329.26156 413.97653,328.82531 413.86903,328.71656 C 413.32403,328.06406 412.42528,327.71031 411.63653,327.41031 L 410.87403,327.11031 C 409.75778,326.67531 408.66903,326.26656 407.63403,325.61406 C 405.40153,324.17031 405.10278,322.26531 405.10278,321.20406 C 405.10278,320.36031 405.29278,318.50906 407.03528,317.01156 C 407.90653,316.27656 409.37653,315.40531 411.99028,315.40531 C 414.95653,315.40531 416.91778,316.49406 417.92403,317.01156 L 417.92403,320.95906 C 417.29903,320.57781 415.14778,319.13531 412.61653,319.13531 C 411.60903,319.13531 410.82028,319.43406 410.52028,319.67906 C 410.11153,319.97906 410.05653,320.38656 410.05653,320.57781 C 410.05653,320.68656 410.08403,320.93156 410.22028,321.17656 C 410.52028,321.74781 411.09153,322.12906 412.23528,322.61906 L 413.73278,323.24531 C 415.12028,323.79031 415.69153,324.06156 416.34528,324.47031 C 418.93153,326.10406 419.31278,328.11781 419.28528,329.42406 C 419.28528,332.14656 417.65153,333.58906 416.83528,334.13406 C 414.95653,335.38656 412.48028,335.46781 411.90778,335.46781 C 408.72278,335.46781 406.49153,334.10656 405.45653,333.53531 L 405.48403,329.17906"
        style="fill:#ffffff;fill-opacity:1;fill-rule:nonzero;stroke:none"
        id="path3122" />
      <path
        d="M 267.14152,349.52407 C 267.40277,349.69032 267.66652,349.86407 267.93777,350.02032 C 268.14277,350.12782 268.65777,350.39032 269.30902,350.39032 C 269.37652,350.39032 269.72652,350.39032 269.98027,350.24407 C 270.25152,350.09782 270.31027,349.87407 270.31027,349.74782 C 270.30027,349.55282 270.17402,349.39782 270.13527,349.35907 C 269.94152,349.12532 269.62027,348.99907 269.33777,348.89157 L 269.06652,348.78532 C 268.66777,348.62907 268.27777,348.48407 267.90902,348.25032 C 267.11152,347.73532 267.00527,347.05407 267.00527,346.67532 C 267.00527,346.37407 267.07277,345.71282 267.69527,345.17782 C 268.00652,344.91532 268.53152,344.60532 269.46402,344.60532 C 270.52402,344.60532 271.22402,344.99407 271.58402,345.17782 L 271.58402,346.58782 C 271.36027,346.45282 270.59277,345.93657 269.68777,345.93657 C 269.32902,345.93657 269.04652,346.04407 268.93902,346.13157 C 268.79402,346.23782 268.77402,346.38407 268.77402,346.45282 C 268.77402,346.49032 268.78402,346.57907 268.83277,346.66532 C 268.93902,346.87032 269.14402,347.00657 269.55152,347.18157 L 270.08652,347.40532 C 270.58277,347.59907 270.78652,347.69657 271.02027,347.84282 C 271.94402,348.42532 272.08027,349.14532 272.07027,349.61157 C 272.07027,350.58407 271.48652,351.09907 271.19527,351.29407 C 270.52402,351.74032 269.63902,351.77032 269.43527,351.77032 C 268.29777,351.77032 267.50027,351.28407 267.13152,351.07907 L 267.14152,349.52407"
        style="fill:#ffffff;fill-opacity:1;fill-rule:nonzero;stroke:none"
        id="path3126" />
      <path
        d="M 283.54277,346.79282 L 282.64777,349.12532 L 284.45652,349.12532 L 283.54277,346.79282 z M 285.48652,351.62407 L 284.99027,350.43782 L 282.11277,350.43782 L 281.63652,351.62407 L 279.78027,351.62407 L 282.59902,344.76032 L 284.54402,344.76032 L 287.32402,351.62407 L 285.48652,351.62407"
        style="fill:#ffffff;fill-opacity:1;fill-rule:nonzero;stroke:none"
        id="path3130" />
      <path
        d="M 296.98776,351.62406 L 293.87651,344.76031 L 295.73401,344.76031 L 297.05651,347.72531 C 297.29901,348.28906 297.35776,348.44531 297.43526,348.78531 C 297.48401,348.60031 297.54276,348.42531 297.60026,348.25031 C 297.68776,348.01656 297.77526,347.79406 297.86276,347.57031 L 299.12651,344.76031 L 300.98401,344.76031 L 297.86276,351.62406 L 296.98776,351.62406"
        style="fill:#ffffff;fill-opacity:1;fill-rule:nonzero;stroke:none"
        id="path3134" />
      <path
        d="M 314.36152,347.23031 C 313.87527,346.19906 312.81527,346.13156 312.46652,346.13156 C 312.26152,346.13156 311.60027,346.15031 311.06527,346.58781 C 310.59902,346.96781 310.38527,347.57906 310.38527,348.16281 C 310.38527,348.34781 310.39527,348.74656 310.61902,349.19406 C 311.12402,350.17531 312.16402,350.24406 312.48527,350.24406 C 313.67152,350.24406 314.57527,349.41781 314.58527,348.22156 C 314.58527,348.04656 314.56652,347.65781 314.36152,347.23031 z M 315.50902,350.56531 C 315.01277,351.10906 314.12777,351.77031 312.43652,351.77031 C 312.28152,351.77031 311.90152,351.76031 311.47402,351.68281 C 311.06527,351.60531 310.06402,351.33281 309.31527,350.37906 C 308.81027,349.73781 308.58652,348.99906 308.58652,348.17281 C 308.59652,346.52031 309.53902,345.63531 310.05527,345.27531 C 310.79402,344.76031 311.58152,344.61406 312.47527,344.61406 C 312.93277,344.61406 314.13777,344.61406 315.17902,345.48906 C 315.60652,345.84906 316.36402,346.68531 316.38402,348.14406 C 316.38402,348.59156 316.33527,349.63156 315.50902,350.56531"
        style="fill:#ffffff;fill-opacity:1;fill-rule:nonzero;stroke:none"
        id="path3138" />
      <path
        id="path3140"
        style="fill:#ffffff;fill-opacity:1;fill-rule:nonzero;stroke:none"
        d="M 325.03652,351.62406 L 326.65027,351.62406 L 326.65027,344.76031 L 325.03652,344.76031 L 325.03652,351.62406 z" />
      <path
        d="M 337.96652,347.5503 C 338.28777,347.5603 338.64777,347.5603 338.88152,347.2878 C 338.94902,347.2103 339.03652,347.08405 339.03652,346.83155 C 339.03652,346.5978 338.94902,346.36405 338.76402,346.2278 C 338.56027,346.0828 338.30777,346.0828 338.07402,346.0828 L 337.59777,346.0828 L 337.59777,347.5503 L 337.96652,347.5503 z M 339.75652,351.62405 C 339.56152,351.1678 339.35777,350.7203 339.14277,350.2728 C 339.10527,350.1953 338.87152,349.64155 338.58027,349.2903 C 338.54152,349.24155 338.43402,349.10655 338.26777,349.00905 C 338.11277,348.92155 337.94777,348.8728 337.59777,348.8828 L 337.59777,351.62405 L 335.85777,351.62405 L 335.85777,344.7603 L 338.26777,344.7603 C 338.96902,344.7703 339.67777,344.79905 340.24277,345.2953 C 340.49527,345.50905 340.83527,345.94655 340.83527,346.7528 C 340.83527,347.31655 340.62152,347.8428 340.14527,348.1628 C 340.00902,348.2503 339.94152,348.28905 339.67777,348.38655 C 340.22277,348.65905 340.38777,348.8153 340.82527,349.7478 L 340.92277,350.0003 C 341.35027,350.93405 341.46652,351.1278 341.77902,351.62405 L 339.75652,351.62405"
        style="fill:#ffffff;fill-opacity:1;fill-rule:nonzero;stroke:none"
        id="path3144" />
      <path
        d="M 362.45777,351.62406 L 359.34652,344.76031 L 361.20277,344.76031 L 362.52527,347.72531 C 362.76902,348.28906 362.82652,348.44531 362.90402,348.78531 C 362.95277,348.60031 363.01152,348.42531 363.07027,348.25031 C 363.15777,348.01656 363.24527,347.79406 363.33277,347.57031 L 364.59652,344.76031 L 366.45277,344.76031 L 363.33277,351.62406 L 362.45777,351.62406"
        style="fill:#ffffff;fill-opacity:1;fill-rule:nonzero;stroke:none"
        id="path3148" />
      <path
        id="path3150"
        style="fill:#ffffff;fill-opacity:1;fill-rule:nonzero;stroke:none"
        d="M 374.62027,351.62406 L 376.23402,351.62406 L 376.23402,344.76031 L 374.62027,344.76031 L 374.62027,351.62406 z" />
      <path
        d="M 387.55028,351.62406 L 384.43903,344.76031 L 386.29528,344.76031 L 387.61903,347.72531 C 387.86153,348.28906 387.92028,348.44531 387.99778,348.78531 C 388.04528,348.60031 388.10403,348.42531 388.16278,348.25031 C 388.25028,348.01656 388.33778,347.79406 388.42528,347.57031 L 389.68903,344.76031 L 391.54653,344.76031 L 388.42528,351.62406 L 387.55028,351.62406"
        style="fill:#ffffff;fill-opacity:1;fill-rule:nonzero;stroke:none"
        id="path3154" />
      <path
        d="M 401.81276,347.5503 C 402.13401,347.5603 402.49401,347.5603 402.72651,347.2878 C 402.79526,347.2103 402.88276,347.08405 402.88276,346.83155 C 402.88276,346.5978 402.79526,346.36405 402.61026,346.2278 C 402.40651,346.0828 402.15276,346.0828 401.92026,346.0828 L 401.44401,346.0828 L 401.44401,347.5503 L 401.81276,347.5503 z M 403.60151,351.62405 C 403.40651,351.1678 403.20276,350.7203 402.98901,350.2728 C 402.95026,350.1953 402.71776,349.64155 402.42526,349.2903 C 402.38651,349.24155 402.27901,349.10655 402.11401,349.00905 C 401.95901,348.92155 401.79401,348.8728 401.44401,348.8828 L 401.44401,351.62405 L 399.70276,351.62405 L 399.70276,344.7603 L 402.11401,344.7603 C 402.81401,344.7703 403.52401,344.79905 404.08776,345.2953 C 404.34026,345.50905 404.68151,345.94655 404.68151,346.7528 C 404.68151,347.31655 404.46776,347.8428 403.99026,348.1628 C 403.85401,348.2503 403.78651,348.28905 403.52401,348.38655 C 404.06901,348.65905 404.23401,348.8153 404.67151,349.7478 L 404.76776,350.0003 C 405.19651,350.93405 405.31276,351.1278 405.62401,351.62405 L 403.60151,351.62405"
        style="fill:#ffffff;fill-opacity:1;fill-rule:nonzero;stroke:none"
        id="path3158" />
      <path
        d="M 413.77152,351.62406 L 413.77152,344.76031 L 418.49652,344.76031 L 418.49652,346.07281 L 415.50152,346.07281 L 415.50152,347.46281 L 418.34027,347.46281 L 418.34027,348.78531 L 415.50152,348.78531 L 415.50152,350.31156 L 418.56402,350.31156 L 418.56402,351.62406 L 413.77152,351.62406"
        style="fill:#ffffff;fill-opacity:1;fill-rule:nonzero;stroke:none"
        id="path3162" />
    </g>
  </g>
</svg>