<?xml version="1.0" encoding="UTF-8"?>
<svg width="230px" height="99px" viewBox="0 0 230 99" version="1.1"
  xmlns="http://www.w3.org/2000/svg" xmlns:xlink="http://www.w3.org/1999/xlink">
  <title>GCB_Logo_Neu_Beta</title>
  <defs>
    <polygon id="path-1"
      points="0.044516129 0.642383459 229.374548 0.642383459 229.374548 98.9553383 0.044516129 98.9553383"></polygon>
  </defs>
  <g id="00-Startseite" stroke="none" stroke-width="1" fill="none" fill-rule="evenodd">
    <g id="_ELEMENTE-1440" transform="translate(-606.000000, -150.000000)">
      <g id="Mainnav-1440-00-Initial" transform="translate(-38.000000, 85.000000)">
        <g id="GCB_Logo_Neu_Beta-Weiss">
          <g transform="translate(644.000000, 65.000000)">
            <g id="GCB_Logo_Neu_Beta">
              <path
                d="M59.5900323,59.8175865 C58.523871,63.2654662 55.8543871,66.0344887 50.8834194,66.0344887 C45.7195484,66.0344887 41.5884516,62.252391 41.5884516,56.4508421 C41.5884516,50.5956992 45.7195484,46.8136015 50.8834194,46.8136015 C54.9477419,46.8136015 57.9214194,48.6566391 59.1010968,52.5131729 L68.9918387,52.5131729 C68.6216129,50.6321729 67.9946774,48.8665489 67.1540645,47.2832932 C64.2204516,41.3395714 57.638,38.214 50.8834194,38.214 C41.020129,38.214 31.9833548,45.208015 31.9833548,56.4508421 C31.9833548,67.6408195 41.020129,74.5827293 50.8834194,74.5827293 C56.2602258,74.5827293 60.6027742,72.8550677 63.7433871,70.0585038 C66.5419677,67.6825038 68.5377742,64.6447669 69.1639677,59.8175865 L59.5900323,59.8175865"
                id="Fill-1" fill="#000"></path>
              <path
                d="M82.2576452,59.7163534 L85.9754839,48.7333083 L89.7452581,59.7163534 L82.2576452,59.7163534 Z M80.8635484,38.8898797 L68.057,73.8599549 L77.4550968,73.8599549 L79.6245161,67.4353759 L92.379129,67.4353759 L94.5485484,73.8599549 L103.893968,73.8599549 L91.0881613,38.8898797 L80.8635484,38.8898797 L80.8635484,38.8898797 Z"
                id="Fill-2" fill="#000"></path>
              <polygon id="Fill-3" fill="#000"
                points="139.347355 73.8599549 148.694258 73.8599549 148.694258 38.8898797 139.347355 38.8898797"></polygon>
              <polyline id="Fill-4" fill="#000"
                points="164.082742 51.2730677 180.195355 73.8599549 188.094742 73.8599549 188.094742 38.8898797 178.955581 38.8898797 178.955581 56.8155789 166.458419 38.8898797 154.942839 38.8898797 154.942839 73.8599549 164.082742 73.8599549 164.082742 51.2730677"></polyline>
              <path
                d="M210.534581,65.934 C205.369968,65.934 201.238871,62.3074737 201.238871,56.4530752 C201.238871,50.6500376 205.369968,46.9200451 210.534581,46.9200451 C215.698452,46.9200451 219.829548,50.6500376 219.829548,56.4530752 C219.829548,62.3074737 215.698452,65.934 210.534581,65.934 Z M229.435387,56.5051805 C229.435387,45.261609 220.397871,38.2683383 210.534581,38.2683383 C200.723226,38.2683383 191.634516,45.261609 191.634516,56.5051805 C191.634516,67.6430526 200.723226,74.6370677 210.534581,74.6370677 C220.397871,74.6370677 229.435387,67.6430526 229.435387,56.5051805 L229.435387,56.5051805 Z"
                id="Fill-5" fill="#000"></path>
              <g id="Group-14">
                <mask id="mask-2" fill="white">
                  <use xlink:href="#path-1"></use>
                </mask>
                <g id="Clip-7"></g>
                <path
                  d="M123.699194,52.4119398 C120.703258,51.7382932 120.291484,51.7903985 118.380258,51.3750451 C115.850258,50.9083308 114.868677,50.0284962 114.868677,48.475015 C114.868677,46.8165789 116.779903,45.4171805 119.361839,45.4171805 C122.321419,45.4171805 123.945516,46.6111353 124.512355,49.0593383 L133.604774,49.0593383 C133.604032,48.7124662 133.594387,48.3730376 133.561742,48.0596617 C133.09729,42.5156617 127.62329,38.2169774 119.361839,38.2169774 C111.202774,38.2169774 105.574452,42.7240827 105.574452,48.7846692 C105.574452,54.4328797 109.394677,57.7996241 116.263516,59.2496391 C118.380258,59.7163534 118.84471,59.7163534 120.807129,60.1309624 C124.112452,60.8559699 125.248355,61.8407594 125.248355,63.4984511 C125.248355,65.5714962 123.492935,67.3326541 119.82629,67.3326541 C116.385935,67.3326541 114.050323,65.5305564 113.461968,62.0789549 L104.355452,62.0789549 C104.357677,62.5211053 104.364355,62.9424135 104.386613,63.2907744 C104.799129,70.1307068 110.841452,74.6370677 119.464226,74.6370677 C128.553677,74.6370677 134.594516,69.9751353 134.594516,63.0317368 C134.594516,57.4884812 130.721613,53.8619549 123.699194,52.4119398"
                  id="Fill-6" fill="#000" mask="url(#mask-2)"></path>
                <path
                  d="M24.0936129,21.2366165 C29.302,12.1301053 43.0700968,2.64918045 46.126129,2.64918045 C46.126871,2.64918045 46.1283548,2.64918045 46.1290968,2.64918045 C46.6469677,2.65066917 47.1218065,3.1985188 47.2568387,3.95181203 C47.5269032,5.44946617 46.7634516,7.47561654 45.1074516,9.65808271 C41.4400645,14.4904737 33.3833871,20.0530827 24.0936129,21.2366165 Z M40.2974839,30.483812 C41.6537419,28.3251654 42.9714194,26.226812 44.0887742,24.5006391 C44.1956129,24.3406015 44.7535484,23.5054286 46.1854839,21.3906992 C46.3843226,21.1182632 46.5609032,20.8875113 46.7070645,20.7125865 C46.8710323,20.5183083 47.0127419,20.3210526 47.138871,20.131985 C48.0418065,19.0973233 48.840129,18.657406 49.5234516,18.8241429 C49.6614516,18.8576391 49.6985484,18.9149549 49.7252581,18.970782 C49.8884839,19.3161654 49.8217097,20.2726692 48.5856452,22.8600677 C48.2094839,23.5791203 47.8088387,24.3182707 47.4237742,25.028391 C45.6935806,28.2172331 44.7223871,30.0662256 44.884129,30.9631805 C45.1081935,32.2040301 45.9488065,33.5409023 47.2664839,33.5438797 C47.2664839,33.5438797 47.2672258,33.5438797 47.2679677,33.5438797 C47.4586452,33.5438797 47.6352258,33.4448797 47.7353871,33.2818647 C49.9508065,29.6769248 53.9943548,23.3550677 55.9092903,20.926218 C55.8981613,20.9946992 55.89,21.0646692 55.8848065,21.1353835 C55.8810968,21.1822782 55.8833226,21.2291729 55.8914839,21.2753233 C55.9960968,21.8536917 56.4427419,22.4618346 57.0563226,22.8615564 C57.2306774,22.9754436 57.4532581,22.9806541 57.6328065,22.8756992 C59.0365484,22.0531805 59.4861613,20.626985 59.3103226,19.6503835 C59.2064516,19.0764812 58.9319355,17.5520301 57.3382581,17.5490526 C57.3375161,17.5490526 57.3360323,17.5490526 57.3352903,17.5490526 C56.3982258,17.5490526 55.5709677,18.3805038 54.8156774,19.2796917 C54.4907097,19.6667594 53.8096129,20.6068872 52.9912581,21.7948872 C53.0535806,21.4896992 53.0765806,21.2187519 53.0565484,20.988 C53.0632258,19.7985113 52.6373548,17.9822707 50.1644839,17.2304662 C47.1121613,16.3029925 44.2111935,17.8021353 40.7611935,22.0926316 C40.7582258,22.095609 40.7567419,22.0985865 40.7545161,22.1023083 C40.3375484,22.5831654 39.9027742,23.1012406 39.4309032,23.6654662 L38.8670323,24.3391128 C32.8343548,31.5221955 29.0912903,33.0325038 27.0116452,33.0325038 C27.0086774,33.0325038 27.0049677,33.0325038 27.002,33.0325038 C24.4000323,33.0265489 22.8085806,31.5147519 22.2721613,28.5380526 C21.9909677,26.9771278 22.2795806,25.1713083 23.1298387,23.1645113 C33.3344194,22.3196617 42.389,16.2486541 46.5223226,10.9100977 C48.5708065,8.26389474 49.5034194,5.72339098 49.1495161,3.75753383 C48.7778065,1.69565414 47.4349032,0.647593985 45.1579032,0.642383459 C45.1512258,0.642383459 45.1452903,0.642383459 45.1393548,0.642383459 C41.3807097,0.642383459 35.8814839,3.18437594 30.7821613,7.28059398 C25.4372581,11.5740677 21.5606452,16.7034586 20.0797419,21.4227068 C17.9622581,21.1755789 15.973129,19.0764812 15.6570645,17.3235113 C15.1985484,14.7792857 16.134871,11.9529474 18.2939032,9.36629323 C21.5606452,5.45169925 27.0198065,2.72287218 31.5797419,2.72287218 C31.5879032,2.72287218 31.5968065,2.72287218 31.6049677,2.72287218 C33.0205806,2.72659398 33.9420645,2.95362406 34.4933226,3.08984211 C34.7819355,3.16130075 34.9726129,3.20819549 35.1514194,3.20893985 C35.4259355,3.19554135 35.6997097,3.07718797 35.8844516,2.85611278 C36.041,2.66778947 36.1062903,2.44894737 36.0684516,2.24052632 C36.0365484,2.06634586 35.9222903,1.91747368 35.7627742,1.84154887 C34.4792258,1.23191729 33.0791935,0.934172932 31.4832903,0.930451128 C25.5693226,0.920030075 19.2205806,3.75157895 15.6889677,7.98401504 C13.5254839,10.5758797 12.65,13.4319925 13.1567419,16.2426992 C13.9023871,20.3783684 16.9109355,22.6516466 19.6145484,23.1526015 C19.3096129,24.6934286 19.285871,26.2610526 19.5492581,27.7214887 C20.4210323,32.5598346 23.3769032,35.4546541 27.4553226,35.4635865 C27.4605161,35.4635865 27.4649677,35.4635865 27.4709032,35.4635865 C30.1448387,35.4628421 32.5754194,33.9287143 35.408129,31.0234737 C26.7883226,44.279797 21.7342581,50.9388496 11.7975161,50.9388496 C11.7811935,50.9388496 11.764129,50.9388496 11.7470645,50.9388496 C7.73467742,50.9306617 3.10870968,49.0444511 2.15977419,43.7795865 C1.83258065,41.9618571 2.37122581,40.0488496 3.63770968,38.5310977 C4.8656129,37.0594962 6.57874194,36.2168797 8.33935484,36.2168797 C8.34380645,36.2168797 8.34825806,36.2168797 8.35270968,36.2168797 C11.7834194,36.2243233 14.6539677,38.3405414 15.1777742,41.2472707 C15.41,42.5365038 15.0687097,43.8406241 14.2421935,44.8254135 C14.110129,44.9824737 13.9328065,45.1276241 13.7614194,45.2683083 C13.4223548,45.5466992 13.0380323,45.8623083 13.1226129,46.3386992 C13.1856774,46.6855714 13.4720645,47.0562632 14.0893548,47.0577519 C14.9485161,47.0525414 15.9753548,46.4071805 16.9710323,45.2214135 C18.0223548,43.9701429 18.4682581,42.2141955 18.1640645,40.5244962 C17.457,36.6002256 13.8400645,33.8527895 9.36841935,33.8423684 C6.34503226,33.8408797 3.72970968,34.9715639 2.00248387,37.0401429 C0.382096774,38.9821805 -0.316064516,41.633594 0.134290323,44.1324135 C0.587612903,46.6498421 1.99506452,48.9692707 4.09622581,50.6626917 C6.41329032,52.5310376 9.41219355,53.5225263 12.7701935,53.5307143 C12.788,53.5307143 12.8043226,53.5307143 12.822871,53.5307143 C25.8215806,53.5307143 32.5242258,42.8595564 39.0057742,32.5404812 L40.2974839,30.483812 L40.2974839,30.483812 Z"
                  id="Fill-8" fill="#000" mask="url(#mask-2)"></path>
                <path
                  d="M101.918194,23.9557669 C101.907806,23.9713985 101.898903,23.9885188 101.89,24.0048947 L101.826194,24.1336692 C101.178484,25.1072932 100.466968,25.9469323 99.7139032,26.8349549 C99.5573548,27.0195564 99.4000645,27.2049023 99.2412903,27.3939699 C97.2291613,29.7893233 94.6249677,31.5906767 93.9164194,31.5906767 L93.9156774,31.5906767 C93.8266452,31.5899323 93.7747097,31.5795113 93.7405806,31.5616466 C93.7405806,28.3385639 100.303,21.1197519 102.903484,20.1654812 C102.931677,20.2421504 102.954677,20.3381729 102.980645,20.4773684 C103.161677,21.4815113 102.763258,22.4774662 102.386355,23.1570677 C102.240194,23.4496015 102.083645,23.6952406 101.918194,23.9557669 Z M66.861,24.4008947 C66.1153548,25.5278571 65.4105161,26.5922932 64.802871,27.3165564 C62.7907419,29.7126541 60.1858065,31.5132632 59.4772581,31.5132632 L59.4765161,31.5132632 C59.3808065,31.5132632 59.328129,31.500609 59.294,31.4805113 C59.1240968,28.0415639 65.1337742,20.8562481 68.1282258,20.0612707 C68.1645806,20.150594 68.1927742,20.2659699 68.2269032,20.4528045 C68.4042258,21.4353609 67.9917097,22.6918421 67.0019677,24.1872632 L66.861,24.4008947 Z M56.3062258,29.8741805 C56.8767742,33.0399474 58.638129,33.5163383 59.6367742,33.5185714 C59.6375161,33.5185714 59.639,33.5185714 59.6397419,33.5185714 C60.8075484,33.5185714 62.916129,32.0082632 64.7138387,30.2902782 C64.722,30.3721579 64.733129,30.4518045 64.7472258,30.5299624 C64.929,31.5422932 65.3519032,32.3305714 66.0025806,32.8746992 C66.5108065,33.3004737 67.0924839,33.5349474 67.6385484,33.5364361 C67.6400323,33.5364361 67.6415161,33.5364361 67.643,33.5364361 C68.9940645,33.5364361 70.8555806,32.193609 72.4974839,30.671391 C72.4885806,30.7994211 72.4915484,30.9185188 72.5108387,31.0249624 C72.7341613,32.265812 73.5747742,33.6026842 74.8924516,33.6056617 C74.8931935,33.6056617 74.8931935,33.6056617 74.8939355,33.6056617 C75.083871,33.6056617 75.2604516,33.507406 75.3606129,33.3458797 C77.2710968,30.2612481 79.200871,27.4758496 80.9407097,25.290406 C84.3996129,20.9485489 86.6736452,19.4092105 87.5713871,19.4092105 C87.6144194,19.4106992 87.6826774,19.4188872 87.7642903,19.4345188 C87.7034516,20.0806241 86.3123226,21.9497143 85.4546452,23.1027293 C83.5998065,25.5948496 81.4979032,28.4189549 81.8666452,30.4622256 C82.0484194,31.473812 82.5143548,32.2985639 83.248871,32.913406 C83.7570968,33.3391805 84.3387742,33.5736541 84.8848387,33.5751429 C84.8863226,33.5751429 84.8878065,33.5751429 84.8892903,33.5751429 C86.5386129,33.5751429 88.9499032,31.5743008 90.792129,29.6873459 C90.8010323,29.8689699 90.8173548,30.0468722 90.8477742,30.2165865 C91.2105806,32.2345489 92.5512581,33.5922632 94.1835161,33.595985 C94.185,33.595985 94.1857419,33.595985 94.1864839,33.595985 C95.3772903,33.5952406 97.6876774,31.8802331 99.578871,29.9523383 C99.578129,30.2426391 99.6040968,30.5299624 99.6567742,30.8202632 C99.7984839,31.6092857 100.274065,32.4064962 100.92771,32.9536015 C101.451516,33.3912857 102.038387,33.6131053 102.672,33.614594 C102.673484,33.614594 102.674968,33.614594 102.676452,33.614594 C104.874065,33.614594 108.426452,30.061015 110.179645,27.9604286 C112.19771,25.542 112.084194,24.9122707 112.047097,24.7053383 C111.993677,24.4105714 111.797806,24.1597218 111.522548,24.0346692 C111.271032,23.920782 110.975742,24.011594 110.830323,24.2453233 C109.304903,26.6957594 105.184194,31.0934436 102.842645,31.6122632 C102.757323,30.5738797 103.517065,28.8960902 105.944677,24.5244586 C106.626516,23.2798872 107.737194,21.4703459 109.022968,19.3757143 C113.356613,12.3147068 116.398548,7.17861654 116.07729,5.3936391 C115.929645,4.57335338 115.239645,3.44043609 113.780258,2.94766917 C113.596258,2.88588722 113.392968,2.92533835 113.246065,3.05262406 C113.099161,3.18065414 113.029419,3.37642105 113.06429,3.56846617 C113.320258,4.98572932 108.348548,13.204218 105.377839,18.1147669 C105.093677,18.5844586 104.81471,19.045218 104.544645,19.4933233 C104.079452,18.8025564 103.163161,18.2122782 101.807645,17.7329098 C101.745323,17.7105789 101.678548,17.6994135 101.612516,17.7016466 C98.8399032,17.7619398 95.7727419,20.3359398 93.8273871,22.7253383 C92.9036774,23.8582556 92.1758387,25.0038271 91.6609355,26.0980376 C89.8046129,28.3728045 87.0460968,31.0018872 85.226871,31.5281504 C85.4858065,30.6803233 86.3694516,29.2846466 87.1677742,28.0229549 C88.8126452,25.4236466 90.677129,22.4782105 90.2757419,20.2503383 C89.9708065,18.5591504 88.6019355,17.6718722 87.4066774,17.6696391 C87.4044516,17.6696391 87.4022258,17.6696391 87.4007419,17.6696391 C85.6534839,17.6696391 83.5152258,19.2573609 80.5615806,22.7737218 C80.9102903,21.8231729 81.029,21.1167744 80.9355161,20.6016767 C80.8205161,19.9615263 80.6060968,18.7690602 78.9196774,18.1601729 C78.7653548,18.1043459 78.5939677,18.1207218 78.4522581,18.2048346 C78.3120323,18.2889474 78.2155806,18.4318647 78.1903548,18.5948797 C77.9677742,20.0463835 76.440129,22.7461805 75.0920323,25.1281353 C75.0423226,25.2152256 74.9963226,25.2971053 74.9480968,25.3819624 C73.0999355,27.8152782 69.8903226,31.0018872 67.8930323,31.5132632 C68.0184194,30.1123759 69.425871,27.6790602 70.5840323,25.6767293 C72.0174516,23.1980075 72.8202258,21.7517143 72.6577419,20.8480602 C72.5241935,20.1103985 72.323129,18.9953459 70.6953226,18.4073008 C70.5231935,18.3447744 70.3295484,18.3730602 70.1819032,18.4832256 C70.0335161,18.593391 69.9511613,18.7705489 69.9608065,18.9551504 C69.9630323,18.9938571 69.9578387,19.1404962 69.8265161,19.4903459 C69.3746774,18.7452406 68.4539355,18.1400752 67.0398065,17.6525188 C66.9811935,17.6324211 66.918871,17.6234887 66.8565484,17.6234887 C64.5439355,17.6443308 61.7357097,19.3891128 59.3437097,22.2891429 C57.5964516,24.407594 55.8810968,27.5130677 56.3062258,29.8741805 L56.3062258,29.8741805 Z"
                  id="Fill-9" fill="#000" mask="url(#mask-2)"></path>
                <path
                  d="M166.977032,93.6815414 C166.977032,92.1890977 165.922742,91.0494812 164.030065,91.0494812 L157.728065,91.0494812 L157.728065,96.3686842 L164.191806,96.3686842 C166.031065,96.3686842 166.977032,95.173985 166.977032,93.6815414 Z M157.728065,83.3163158 L157.728065,88.4174211 L163.542613,88.4174211 C165.381871,88.4174211 166.436903,87.3053459 166.436903,85.8396992 C166.436903,84.3472556 165.462742,83.3163158 163.624226,83.3163158 L157.728065,83.3163158 Z M169.872065,93.7358797 C169.872065,96.8294436 167.546097,99 164.110935,99 L154.942839,99 L154.942839,80.6842556 L163.542613,80.6842556 C167.059387,80.6842556 169.303742,82.665 169.303742,85.6774286 C169.303742,87.3321429 168.411194,88.7159098 166.923613,89.5570376 C168.736161,90.2626917 169.872065,91.7283383 169.872065,93.7358797 L169.872065,93.7358797 Z"
                  id="Fill-10" fill="#000" mask="url(#mask-2)"></path>
                <polyline id="Fill-11" fill="#000" mask="url(#mask-2)"
                  points="175.254806 80.6842556 188.479806 80.6842556 188.479806 83.4517895 178.040032 83.4517895 178.040032 88.1464737 185.288 88.1464737 185.288 90.9140075 178.040032 90.9140075 178.040032 96.2324662 189.15571 96.2324662 189.15571 99 175.254806 99 175.254806 80.6842556"></polyline>
                <path
                  d="M196.269387,88.4717594 L202.67971,88.4717594 C204.599097,88.4717594 205.60071,87.4408195 205.60071,85.9491203 C205.60071,84.4566767 204.62729,83.4517895 202.706419,83.4517895 L196.269387,83.4517895 L196.269387,88.4717594 Z M205.816613,99 L200.488774,91.1856992 L196.269387,91.1856992 L196.269387,99 L193.484161,99 L193.484161,80.6842556 L202.490516,80.6842556 C206.249161,80.6842556 208.440097,82.7736767 208.440097,85.8940376 C208.440097,88.5536391 206.519968,90.5611805 203.761452,91.0770226 L209.278484,99 L205.816613,99 L205.816613,99 Z"
                  id="Fill-12" fill="#000" mask="url(#mask-2)"></path>
                <polyline id="Fill-13" fill="#000" mask="url(#mask-2)"
                  points="229.374548 80.6842556 229.374548 99 227.021129 99 216.581355 84.0763083 216.581355 99 213.796129 99 213.796129 80.6842556 217.473903 80.6842556 226.588581 93.600406 226.588581 80.6842556 229.374548 80.6842556"></polyline>
              </g>
            </g>
          </g>
        </g>
      </g>
    </g>
  </g>
</svg>