<svg id="Ebene_1" data-name="Ebene 1" xmlns="http://www.w3.org/2000/svg" viewBox="0 0 283.46 59.05">
  <defs>
    <style>.cls-1{fill:#000;}.cls-2{fill:#000;}</style>
  </defs>
  <title>hbTec_Logo</title>
  <path class="cls-1"
    d="M53,85.55V61.08C53,55.77,49.62,54,46.46,54S40,55.85,40,61.08V85.55H30V30.77H40V49.16A13.24,13.24,0,0,1,49.62,45C58.39,45,63,51.16,63,59.62V85.55Z"
    transform="translate(-30 -26.95)" />
  <path class="cls-1"
    d="M99.16,82.39A14,14,0,0,1,89.39,86c-4.23,0-7.23-1.15-10-4.23v3.77H69.69V30.77h10V49c2.62-2.92,5.62-4,9.69-4a14,14,0,0,1,9.77,3.62c4,4,4.08,10.85,4.08,16.85S103.16,78.39,99.16,82.39ZM86.46,54c-6,0-6.77,4.92-6.77,11.46S80.46,77,86.46,77s6.77-5,6.77-11.54S92.46,54,86.46,54Z"
    transform="translate(-30 -26.95)" />
  <path class="cls-2" d="M127.51,40.31V85.55H116.81V40.31H102.5V30.77h39.31v9.54Z"
    transform="translate(-30 -26.95)" />
  <path class="cls-2"
    d="M146.85,68.62c0,5.15,3.15,8.92,8.77,8.92a11.09,11.09,0,0,0,9.08-3.77l6.08,5.92c-4.08,4.08-8,6.31-15.23,6.31C146.08,86,137,81.7,137,65.47,137,52.39,144.08,45,154.47,45c11.16,0,17.46,8.16,17.46,19.16v4.46Zm14.31-11.16a7.47,7.47,0,0,0-13.39,0,11,11,0,0,0-.92,4.31h15.23A11.05,11.05,0,0,0,161.16,57.47Z"
    transform="translate(-30 -26.95)" />
  <path class="cls-2"
    d="M194.55,86c-8,0-17.92-4.31-17.92-20.54S186.55,45,194.55,45c5.54,0,9.69,1.69,13.23,5.39L201,57.16c-2.08-2.23-3.85-3.15-6.46-3.15a6.94,6.94,0,0,0-5.69,2.62c-1.54,1.92-2.23,4.62-2.23,8.85s.69,7,2.23,8.92A6.94,6.94,0,0,0,194.55,77c2.62,0,4.39-.92,6.46-3.15l6.77,6.69A17.13,17.13,0,0,1,194.55,86Z"
    transform="translate(-30 -26.95)" />
  <path class="cls-2"
    d="M226.86,40.37v-.88a3.25,3.25,0,0,1-2.67,1,3.3,3.3,0,0,1-2.62-.85,2.67,2.67,0,0,1-.7-1.88c0-1.62,1.13-2.67,3.2-2.67h2.79V34.2c0-1.35-.68-2-2.37-2a2.43,2.43,0,0,0-2.33,1.05l-.92-.85A3.59,3.59,0,0,1,224.51,31c2.48,0,3.71,1.07,3.71,3.09v6.29Zm0-4.27h-2.6c-1.39,0-2.07.56-2.07,1.64s.66,1.58,2.13,1.58a2.71,2.71,0,0,0,2.07-.62,2.14,2.14,0,0,0,.47-1.6Z"
    transform="translate(-30 -26.95)" />
  <path class="cls-2"
    d="M237.36,40.37v-1a3.39,3.39,0,0,1-2.62,1.15,3.29,3.29,0,0,1-2.39-.87,3.45,3.45,0,0,1-.94-2.6V31.11h1.36v5.7c0,1.64.87,2.46,2.26,2.46a2.19,2.19,0,0,0,2.31-2.46v-5.7h1.36v9.26Z"
    transform="translate(-30 -26.95)" />
  <path class="cls-2"
    d="M244.68,40.37a2.27,2.27,0,0,1-2.37-2.48V32.2h-1.17v-1h1.17v-2.9h1.36v2.9h2v1h-2v5.65c0,.85.39,1.35,1.26,1.35h.72v1.17Z"
    transform="translate(-30 -26.95)" />
  <path class="cls-2"
    d="M254.13,39.43a3.87,3.87,0,0,1-5.31,0,5,5,0,0,1-1.13-3.69,5,5,0,0,1,1.13-3.69,3.87,3.87,0,0,1,5.31,0,5,5,0,0,1,1.13,3.69A5,5,0,0,1,254.13,39.43Zm-1-6.55a2.37,2.37,0,0,0-1.69-.68,2.33,2.33,0,0,0-1.67.68,4,4,0,0,0-.75,2.86,4,4,0,0,0,.75,2.86,2.33,2.33,0,0,0,1.67.68,2.37,2.37,0,0,0,1.69-.68,4,4,0,0,0,.73-2.86A4,4,0,0,0,253.17,32.88Z"
    transform="translate(-30 -26.95)" />
  <path class="cls-2"
    d="M270,40.37v-5.7a2.3,2.3,0,1,0-4.59-.15v5.85H264.1v-5.7a2.16,2.16,0,0,0-2.28-2.47,2.19,2.19,0,0,0-2.31,2.47v5.7h-1.35V31.11h1.35v1A3.38,3.38,0,0,1,262.13,31,3.05,3.05,0,0,1,265,32.54,3.54,3.54,0,0,1,268,31a3.37,3.37,0,0,1,2.39.87,3.44,3.44,0,0,1,1,2.58v5.93Z"
    transform="translate(-30 -26.95)" />
  <path class="cls-2"
    d="M279.95,40.37v-.88a3.25,3.25,0,0,1-2.67,1,3.3,3.3,0,0,1-2.62-.85,2.67,2.67,0,0,1-.7-1.88c0-1.62,1.13-2.67,3.2-2.67h2.79V34.2c0-1.35-.68-2-2.37-2a2.43,2.43,0,0,0-2.33,1.05l-.92-.85A3.59,3.59,0,0,1,277.6,31c2.48,0,3.71,1.07,3.71,3.09v6.29Zm0-4.27h-2.6c-1.39,0-2.07.56-2.07,1.64s.66,1.58,2.13,1.58a2.71,2.71,0,0,0,2.07-.62,2.14,2.14,0,0,0,.47-1.6Z"
    transform="translate(-30 -26.95)" />
  <path class="cls-2"
    d="M287.19,40.37a2.27,2.27,0,0,1-2.37-2.48V32.2h-1.17v-1h1.17v-2.9h1.36v2.9h2v1h-2v5.65c0,.85.4,1.35,1.26,1.35h.72v1.17Z"
    transform="translate(-30 -26.95)" />
  <path class="cls-2" d="M290.77,28.48V27h1.52v1.52Zm.08,11.89V31.11h1.35v9.26Z"
    transform="translate(-30 -26.95)" />
  <path class="cls-2"
    d="M301.55,39.43a3.87,3.87,0,0,1-5.31,0,5,5,0,0,1-1.13-3.69,5,5,0,0,1,1.13-3.69,3.87,3.87,0,0,1,5.31,0,5,5,0,0,1,1.13,3.69A5,5,0,0,1,301.55,39.43Zm-1-6.55a2.37,2.37,0,0,0-1.69-.68,2.33,2.33,0,0,0-1.67.68,4,4,0,0,0-.75,2.86,4,4,0,0,0,.75,2.86,2.33,2.33,0,0,0,1.67.68,2.37,2.37,0,0,0,1.69-.68,4,4,0,0,0,.73-2.86A4,4,0,0,0,300.59,32.88Z"
    transform="translate(-30 -26.95)" />
  <path class="cls-2"
    d="M311.51,40.37v-5.7a2.16,2.16,0,0,0-2.28-2.47,2.18,2.18,0,0,0-2.3,2.47v5.7h-1.35V31.11h1.35v1a3.34,3.34,0,0,1,2.6-1.13,3.25,3.25,0,0,1,2.37.87,3.42,3.42,0,0,1,1,2.58v5.93Z"
    transform="translate(-30 -26.95)" />
  <path class="cls-2"
    d="M224.53,63.07a5.1,5.1,0,0,1-3.8-1.34l.9-.9a3.79,3.79,0,0,0,2.88,1.07c1.52,0,2.47-.55,2.47-1.64,0-.81-.47-1.26-1.54-1.36l-1.52-.13c-1.81-.15-2.77-1-2.77-2.48,0-1.69,1.43-2.71,3.41-2.71a5.24,5.24,0,0,1,3.33,1l-.88.88a4,4,0,0,0-2.47-.73c-1.35,0-2.07.58-2.07,1.52,0,.79.45,1.26,1.62,1.36l1.49.13c1.62.15,2.73.77,2.73,2.5S226.77,63.07,224.53,63.07Z"
    transform="translate(-30 -26.95)" />
  <path class="cls-2" d="M230.87,51.06V49.54h1.52v1.52ZM230.94,63V53.7h1.35V63Z"
    transform="translate(-30 -26.95)" />
  <path class="cls-2"
    d="M239.3,63.07c-2.33,0-4.1-1.58-4.1-4.74s1.77-4.74,4.1-4.74a3.67,3.67,0,0,1,3,1.37l-.92.87a2.54,2.54,0,0,0-2.13-1,2.51,2.51,0,0,0-2.15,1.05,4,4,0,0,0-.6,2.48,4,4,0,0,0,.6,2.48,2.51,2.51,0,0,0,2.15,1.05,2.56,2.56,0,0,0,2.13-1.05l.92.88A3.67,3.67,0,0,1,239.3,63.07Z"
    transform="translate(-30 -26.95)" />
  <path class="cls-2"
    d="M250.85,63V57.23a2.14,2.14,0,0,0-2.26-2.45,2.18,2.18,0,0,0-2.31,2.45V63h-1.35V49.56h1.35v5.16a3.3,3.3,0,0,1,2.6-1.13A3.13,3.13,0,0,1,252.21,57V63Z"
    transform="translate(-30 -26.95)" />
  <path class="cls-2"
    d="M256.35,58.68c0,2,1,3.2,2.73,3.2a3,3,0,0,0,2.43-1.05l.92.81A4.24,4.24,0,0,1,259,63.07c-2.45,0-4-1.47-4-4.74,0-3,1.45-4.74,3.8-4.74s3.8,1.73,3.8,4.48v.62ZM261,56.12a2.38,2.38,0,0,0-4.33,0,3.9,3.9,0,0,0-.28,1.54h4.89A3.9,3.9,0,0,0,261,56.12Z"
    transform="translate(-30 -26.95)" />
  <path class="cls-2"
    d="M270.65,55.46a1.94,1.94,0,0,0-1.6-.68,2.26,2.26,0,0,0-2.22,2.48V63h-1.35V53.7h1.35v1.13a3.11,3.11,0,0,1,2.6-1.24,2.85,2.85,0,0,1,2.22.87Z"
    transform="translate(-30 -26.95)" />
  <path class="cls-2"
    d="M279.33,63V57.23a2.14,2.14,0,0,0-2.26-2.45,2.18,2.18,0,0,0-2.31,2.45V63H273.4V49.56h1.35v5.16a3.3,3.3,0,0,1,2.6-1.13A3.13,3.13,0,0,1,280.68,57V63Z"
    transform="translate(-30 -26.95)" />
  <path class="cls-2"
    d="M284.82,58.68c0,2,1,3.2,2.73,3.2A3,3,0,0,0,290,60.83l.92.81a4.24,4.24,0,0,1-3.39,1.43c-2.45,0-4-1.47-4-4.74,0-3,1.45-4.74,3.8-4.74s3.8,1.73,3.8,4.48v.62Zm4.61-2.56a2.38,2.38,0,0,0-4.33,0,3.9,3.9,0,0,0-.28,1.54h4.89A3.9,3.9,0,0,0,289.43,56.12Z"
    transform="translate(-30 -26.95)" />
  <path class="cls-2" d="M293.87,51.06V49.54h1.52v1.52ZM293.95,63V53.7h1.35V63Z"
    transform="translate(-30 -26.95)" />
  <path class="cls-2"
    d="M301.31,63a2.27,2.27,0,0,1-2.37-2.48V54.79h-1.17v-1h1.17v-2.9h1.36v2.9h2v1h-2v5.65c0,.85.39,1.35,1.26,1.35h.72V63Z"
    transform="translate(-30 -26.95)" />
  <path class="cls-2"
    d="M233.5,85.54v-5.7a2.3,2.3,0,1,0-4.59-.15v5.85h-1.35v-5.7a2.16,2.16,0,0,0-2.28-2.46A2.19,2.19,0,0,0,223,79.83v5.7h-1.35V76.28H223v1a3.38,3.38,0,0,1,2.62-1.13,3.05,3.05,0,0,1,2.84,1.54,3.54,3.54,0,0,1,3-1.54,3.37,3.37,0,0,1,2.39.87,3.44,3.44,0,0,1,1,2.58v5.93Z"
    transform="translate(-30 -26.95)" />
  <path class="cls-2"
    d="M244,85.54v-1a3.39,3.39,0,0,1-2.62,1.15,3.29,3.29,0,0,1-2.39-.87,3.45,3.45,0,0,1-.94-2.6V76.28h1.36V82c0,1.64.87,2.47,2.26,2.47A2.19,2.19,0,0,0,244,82v-5.7h1.36v9.26Z"
    transform="translate(-30 -26.95)" />
  <path class="cls-2"
    d="M251,85.54a2.21,2.21,0,0,1-2.35-2.47V72.14H250V83c0,.9.3,1.35,1.24,1.35H252v1.17Z"
    transform="translate(-30 -26.95)" />
  <path class="cls-2"
    d="M256.91,85.54a2.27,2.27,0,0,1-2.37-2.48V77.37h-1.17v-1h1.17v-2.9h1.36v2.9h2v1h-2V83c0,.85.39,1.35,1.26,1.35h.72v1.17Z"
    transform="translate(-30 -26.95)" />
  <path class="cls-2" d="M260.49,73.64V72.12H262v1.52Zm.08,11.89V76.28h1.35v9.26Z"
    transform="translate(-30 -26.95)" />
  <path class="cls-2"
    d="M277.22,85.54v-5.7a2.3,2.3,0,1,0-4.59-.15v5.85h-1.36v-5.7A2.16,2.16,0,0,0,269,77.37a2.19,2.19,0,0,0-2.31,2.46v5.7h-1.35V76.28h1.35v1a3.38,3.38,0,0,1,2.62-1.13,3.05,3.05,0,0,1,2.84,1.54,3.54,3.54,0,0,1,3-1.54,3.37,3.37,0,0,1,2.39.87,3.44,3.44,0,0,1,1,2.58v5.93Z"
    transform="translate(-30 -26.95)" />
  <path class="cls-2"
    d="M282.71,81.26c0,2,1,3.2,2.73,3.2a3,3,0,0,0,2.43-1.05l.92.81a4.24,4.24,0,0,1-3.39,1.43c-2.45,0-4-1.47-4-4.74,0-3,1.45-4.74,3.8-4.74s3.8,1.73,3.8,4.48v.62Zm4.61-2.56a2.38,2.38,0,0,0-4.33,0,3.9,3.9,0,0,0-.28,1.54h4.89A3.9,3.9,0,0,0,287.33,78.71Z"
    transform="translate(-30 -26.95)" />
  <path class="cls-2"
    d="M297.37,85.54V84.43a3,3,0,0,1-2.63,1.22,3.23,3.23,0,0,1-2.26-.81,5.53,5.53,0,0,1-1.13-3.93A5.53,5.53,0,0,1,292.48,77a3.22,3.22,0,0,1,2.26-.81,3,3,0,0,1,2.62,1.19V72.14h1.36v13.4ZM295,77.37c-2,0-2.33,1.73-2.33,3.54s.32,3.54,2.33,3.54,2.31-1.73,2.31-3.54S297.05,77.37,295,77.37Z"
    transform="translate(-30 -26.95)" />
  <path class="cls-2" d="M302,73.64V72.12h1.52v1.52Zm.08,11.89V76.28h1.35v9.26Z"
    transform="translate(-30 -26.95)" />
  <path class="cls-2"
    d="M312.11,85.54v-.88a3.25,3.25,0,0,1-2.67,1,3.3,3.3,0,0,1-2.62-.85,2.67,2.67,0,0,1-.7-1.88c0-1.62,1.13-2.67,3.2-2.67h2.79v-.88c0-1.35-.68-2-2.37-2a2.43,2.43,0,0,0-2.33,1.05l-.92-.85a3.59,3.59,0,0,1,3.27-1.37c2.48,0,3.71,1.07,3.71,3.09v6.29Zm0-4.27h-2.6c-1.39,0-2.07.56-2.07,1.64s.66,1.58,2.13,1.58a2.71,2.71,0,0,0,2.07-.62,2.14,2.14,0,0,0,.47-1.6Z"
    transform="translate(-30 -26.95)" />
</svg>