<?xml version="1.0" encoding="UTF-8"?> <!-- Generator: Adobe Illustrator 21.1.0, SVG Export Plug-In . SVG
Version: 6.00 Build 0) -->
<svg xmlns="http://www.w3.org/2000/svg" xmlns:xlink="http://www.w3.org/1999/xlink" id="Ebene_1"
  x="0px" y="0px" viewBox="0 0 283.5 22.7" style="enable-background:new 0 0 283.5 22.7;"
  xml:space="preserve"> <style type="text/css"> .st0{fill:#000;} .st1{fill:#000;} .grp{fill:#FFF} </style> <g> <g> <path class="st0" d="M0,22.2V0h5.8v8.5c1.3-1.5,2.9-2.2,4.8-2.2c3.3,0,5.8,2.2,5.8,5.6v10.3h-5.8v-9.1c-0.1-1.5-0.4-3.1-2.2-3.1 c-2.9,0-2.5,3.2-2.5,3.4v8.9H0z"></path> <path class="st0" d="M36.8,14.5c0,5.7-4.2,8.2-9,8.2c-4.8,0-9-2.5-9-8.2s4.2-8.2,9-8.2C32.7,6.3,36.8,8.8,36.8,14.5z M27.8,19.3 c2.5,0,3-2.6,3-4.8s-0.5-4.8-3-4.8s-3,2.6-3,4.8S25.4,19.3,27.8,19.3z"></path> <path class="st0" d="M47.3,11.5c0-0.5-0.1-1-0.4-1.3c-0.3-0.3-0.8-0.6-1.6-0.6c-0.9,0-1.4,0.5-1.4,1.4c0,1.1,2.4,1.1,6,2.2 c1.8,0.6,3.1,1.7,3.1,4.2c0,4.1-3.8,5.1-7.4,5.1c-3.8,0-7.5-0.8-7.4-5.5h5.5c-0.1,0.5,0.1,1,0.4,1.4c0.3,0.4,0.8,0.7,1.4,0.7 c1.1,0,2-0.4,2-1.4c0-2.7-9.1-1.1-9.1-6.7c0-3.8,4.1-4.9,7.1-4.9c3.7,0,7,1,7.3,5.2H47.3z"></path> <path class="st0" d="M57.2,6.8V2.2H63v4.6h3.4v3.7H63v6.1c0,0.4-0.2,2.4,1.1,2.4c0.8,0,1.6,0,2.2-0.1v3.5 c-1.3,0.2-2.3,0.3-3.1,0.3c-4,0-6.4-0.6-6.1-5.3v-6.9h-3V6.8H57.2z"></path> <path class="st0" d="M73.1,15.7c0,2,0.5,3.7,2.7,3.7c1.6,0,2.6-0.8,2.9-2.2H84c-0.2,2-1.4,3.4-2.9,4.3c-1.4,0.9-3.1,1.2-4.9,1.2 c-6.2,0-8.6-2.6-8.6-8.7c0-4.9,3.7-7.7,8.3-7.7c6.3,0,8.3,3.6,8.3,9.3H73.1z M78.6,12.5c0-0.8-0.2-1.7-0.7-2.3c-0.5-0.6-1.1-1-2-1 c-2,0.1-2.5,1.5-2.7,3.3H78.6z"></path> <path class="st0" d="M87.8,6.8V2.2h5.8v4.6H97v3.7h-3.4v6.1c0,0.4-0.2,2.4,1.1,2.4c0.8,0,1.6,0,2.2-0.1v3.5 c-1.3,0.2-2.3,0.3-3.1,0.3c-4,0-6.4-0.6-6.1-5.3v-6.9h-3V6.8H87.8z"></path> <path class="st0" d="M101.7,6.8V2.2h5.8v4.6h3.4v3.7h-3.4v6.1c0,0.4-0.2,2.4,1.1,2.4c0.8,0,1.6,0,2.2-0.1v3.5 c-1.3,0.2-2.3,0.3-3.1,0.3c-4,0-6.4-0.6-6.1-5.3v-6.9h-3V6.8H101.7z"></path> <path class="st0" d="M113.6,22.2v-20h5.8v20H113.6z"></path> <path class="st0" d="M127,15.7c0,2,0.5,3.7,2.7,3.7c1.6,0,2.6-0.8,2.9-2.2h5.4c-0.2,2-1.4,3.4-2.9,4.3c-1.4,0.9-3.1,1.2-4.9,1.2 c-6.2,0-8.6-2.6-8.6-8.7c0-4.9,3.7-7.7,8.3-7.7c6.3,0,8.3,3.6,8.3,9.3H127z M132.5,12.5c0-0.8-0.2-1.7-0.7-2.3c-0.5-0.6-1.1-1-2-1 c-2,0.1-2.5,1.5-2.7,3.3H132.5z"></path> <path class="st0" d="M146.2,9.7L146.2,9.7c0.7-2.6,2.6-3.4,5.2-3.4l0.6,0l-1,4.9c0,0-0.5,0-0.8,0c-3,0-4.1,1.8-4,4.8v6.2h-5.8 V10.7c0-1.4,0-2.3-0.2-4h5.9L146.2,9.7z"></path> </g> <polygon class="st1" points="283.5,22.2 154.5,22.2 157.9,6.3 283.5,6.3 "></polygon> <g> <path class="grp" d="M165.6,11.9l0.2-1h2.4l-1.2,5.5c-0.2,0.9-0.4,1.6-0.6,1.9s-0.5,0.7-0.8,1c-0.4,0.3-0.8,0.5-1.4,0.7 s-1.2,0.3-1.8,0.3c-0.9,0-1.7-0.1-2.2-0.4s-0.8-0.7-0.8-1.3c0-0.1,0-0.1,0-0.2c0-0.1,0-0.2,0-0.3h2.4c0,0,0,0.1,0,0.1v0.1 c0,0.2,0.1,0.4,0.2,0.5c0.2,0.1,0.4,0.2,0.7,0.2c0.5,0,0.8-0.1,1.1-0.4c0.3-0.2,0.5-0.7,0.6-1.2l0.2-0.9c-0.3,0.3-0.6,0.6-1.1,0.8 c-0.4,0.2-0.9,0.3-1.3,0.3c-0.7,0-1.3-0.2-1.7-0.6c-0.4-0.4-0.6-1-0.7-1.7c0-0.9,0.3-1.7,0.6-2.4c0.4-0.7,0.9-1.1,1.4-1.4 c0.6-0.3,1.1-0.5,1.8-0.5C164.7,10.8,165.3,11.2,165.6,11.9z M163,13.1c-0.3,0.6-0.5,1.2-0.5,1.8c0,0.3,0.1,0.6,0.2,0.8 c0.2,0.2,0.4,0.3,0.7,0.3c0.6,0,1-0.3,1.3-0.9c0.3-0.6,0.4-1.2,0.4-1.8c0-0.7-0.3-1.1-0.9-1.1C163.7,12.2,163.3,12.5,163,13.1z"></path> <path class="grp" d="M175.1,10.9l-0.5,2.1c-0.1,0-0.2,0-0.3,0h-0.3c-0.6,0-1,0.2-1.4,0.5c-0.4,0.3-0.6,0.8-0.8,1.4l-0.6,2.7h-2.5 l1.1-5.1c0-0.1,0.1-0.2,0.1-0.4l0.1-0.5c0-0.2,0-0.3,0.1-0.4s0-0.2,0.1-0.3h2.4l-0.3,1.4c0.3-0.5,0.6-0.9,1-1.1 c0.4-0.2,0.8-0.3,1.3-0.3H175.1z"></path> <path class="grp" d="M182.2,16.4c-0.8,0.9-1.9,1.4-3.4,1.4c-2.2,0-3.4-0.9-3.4-2.6c0-1.2,0.4-2.3,1.3-3.1c0.8-0.9,2-1.3,3.5-1.3 c1,0,1.8,0.2,2.4,0.7c0.6,0.5,0.8,1.1,0.9,1.9C183.4,14.5,183,15.5,182.2,16.4z M180.3,15.4c0.3-0.7,0.5-1.4,0.5-2.1 c0-0.8-0.3-1.1-1-1.1c-0.6,0-1.1,0.3-1.4,1c-0.3,0.7-0.5,1.4-0.5,2c0,0.4,0.1,0.7,0.2,0.9c0.2,0.2,0.4,0.3,0.7,0.3 C179.5,16.4,180,16.1,180.3,15.4z"></path> <path class="grp" d="M187.9,11l-0.8,3.7c-0.1,0.2-0.1,0.4-0.1,0.5c0,0.1,0,0.1,0,0.2c0,0.5,0.3,0.8,0.8,0.8c0.3,0,0.6-0.1,0.9-0.3 c0.2-0.2,0.4-0.5,0.5-1l0.8-3.9h2.5l-1.1,5.3c-0.1,0.4-0.1,0.6-0.2,0.8c0,0.2-0.1,0.4-0.1,0.6h-2.5l0.2-1c-0.3,0.3-0.6,0.6-1,0.8 c-0.4,0.2-0.8,0.3-1.4,0.3c-1.3,0-2-0.6-2-1.8c0-0.2,0-0.3,0-0.5c0-0.2,0.1-0.4,0.1-0.8l0.8-3.8H187.9z"></path> <path class="grp" d="M200.3,16.3c-0.7,1-1.6,1.4-2.8,1.4c-0.4,0-0.8-0.1-1.1-0.2s-0.5-0.4-0.8-0.7l-0.7,3.3h-2.5l1.7-7.9l0.1-0.7 c0-0.2,0.1-0.3,0.1-0.4c0-0.1,0-0.2,0-0.2h2.4l-0.2,0.9c0.4-0.4,0.8-0.7,1.1-0.9s0.8-0.3,1.3-0.3c0.7,0,1.2,0.2,1.6,0.6 c0.4,0.4,0.6,1,0.6,1.7C201.3,14.3,201,15.4,200.3,16.3z M198.3,15.3c0.3-0.7,0.5-1.3,0.5-1.9c0-0.7-0.3-1.1-0.9-1.1 c-0.6,0-1,0.3-1.3,1s-0.5,1.3-0.5,1.9c0,0.8,0.3,1.2,0.9,1.2C197.5,16.3,197.9,16,198.3,15.3z"></path> </g> </g> </svg> 