<svg xmlns="http://www.w3.org/2000/svg" viewBox="0 0 181.82 24.758">
  <path
    d="M20.68,18.99h-1.1V6.74c0-2.36-2.75-3.95-3.84-4.28l-.95,1.51c.55.2,2.53.91,2.53,2.72V17.36c-2.06-1.46-3.54-3.25-3.54-5.73V1.76H27.56v9.87c0,2.49-1.48,4.27-3.54,5.73V6.69c0-1.82,1.98-2.52,2.53-2.72L25.6,2.46c-1.08.33-3.83,1.92-3.83,4.28V18.98H20.68Z"
    fill="#000" />
  <polygon
    points="39.7 8.83 39.71 23.42 42.35 23.42 42.32 12.94 48.61 23.49 51.67 23.49 51.67 8.93 49.06 8.93 49.03 19.47 42.62 8.83 39.7 8.83"
    fill="#000" />
  <polygon points="32.38 8.93 32.36 23.42 35.17 23.42 35.16 8.93 32.38 8.93" fill="#000" />
  <path
    d="M62.31,8.94a8.818,8.818,0,0,1,1.93.82l.07.04-.04.07-1.03,2.01-.04.08-.07-.05a6.464,6.464,0,0,0-1.34-.7,3.441,3.441,0,0,0-1.15-.26,2.352,2.352,0,0,0-1.6.54,1.9,1.9,0,0,0-.62,1.43h0c.01,1.17,1.09,1.63,2.31,2.15,1.66.7,3.57,1.52,3.57,4.32h0v.03h0a3.947,3.947,0,0,1-1.34,2.97,5.147,5.147,0,0,1-3.48,1.21h-.05a8.257,8.257,0,0,1-2.5-.45,12.563,12.563,0,0,1-2.12-.96l-.07-.04.04-.07,1.18-2.01L56,20l.07.04c.11.06.23.12.35.19a6.77,6.77,0,0,0,2.8,1.07,2.6,2.6,0,0,0,1.65-.52,1.63,1.63,0,0,0,.61-1.31c0-1.18-1.14-1.68-2.41-2.25-1.68-.75-3.59-1.6-3.59-4.2a4.178,4.178,0,0,1,1.38-3.14A5.07,5.07,0,0,1,60.3,8.64a8.953,8.953,0,0,1,2.01.3"
    fill="#000" />
  <polygon points="80.62 8.93 80.61 23.42 89.03 23.42 89.03 20.98 83.42 20.98 83.38 8.93 80.62 8.93"
    fill="#000" />
  <polygon
    points="68.18 8.93 68.15 23.42 76 23.42 76 20.98 70.91 20.98 70.93 17.21 75.92 17.21 75.92 14.89 70.88 14.89 70.89 11.37 76 11.37 76 8.93 68.18 8.93"
    fill="#000" />
  <path
    d="M168.09,23.36V21.87h-5.76l.04-5h5.45V15.38h-5.47l.04-4.87H168V9.01h-7.38l-.01,14.35Zm-17.77.02.02-6.04h2.03c2.34,0,5.05-1.09,5.05-4.25,0-2.71-1.83-4.08-4.51-4.08h-4.29l-.02,14.37Zm.04-13.14h2.13c2.3,0,3.16,1.34,3.16,2.85a2.826,2.826,0,0,1-3.08,2.89h-2.26ZM138.45,23.38V17.34h2.03c2.34,0,5.05-1.09,5.05-4.25,0-2.71-1.83-4.08-4.52-4.08h-4.29l-.01,14.37Zm.03-13.14h2.13c2.3,0,3.16,1.34,3.16,2.85a2.826,2.826,0,0,1-3.08,2.89h-2.26Zm-7.96-1.23-.06,8.74c-.02,3.24-1.76,4.27-3.86,4.27-2.5,0-3.88-1.19-3.88-3.78,0-1.31.02-2.67.04-4l.04-5.23h-1.77L121,13.94c-.02,1.44-.04,2.75-.04,3.88,0,4.31,2.44,5.69,5.52,5.69,2.77,0,5.68-1.09,5.75-5.65l.06-8.85Zm-20.73,1.23h2.11c2.3,0,3.16,1.34,3.16,2.85,0,2.07-1.81,2.69-3.55,2.69h-1.77Zm-.01,13.14V17.14h1.13c1.35,0,1.76.82,2.65,1.95l3.16,4.29h2.24l-3.34-4.46c-.6-.74-1.4-2.01-2.34-2.2v-.04a3.838,3.838,0,0,0,3.57-3.94c0-2.36-1.83-3.73-4.52-3.73h-4.29V23.38Zm-7.8-7.45-.08,5.5a7.434,7.434,0,0,1-2.85.6,5.654,5.654,0,0,1-5.64-5.91,5.654,5.654,0,0,1,5.64-5.91,7.766,7.766,0,0,1,3.72.92l.68-1.4a10.046,10.046,0,0,0-4.39-1,7.264,7.264,0,0,0-7.53,7.39c0,4.64,3.32,7.39,7.53,7.39a11.261,11.261,0,0,0,4.62-1.05l.08-6.53Z"
    fill="#000" />
</svg>