<?xml version="1.0" encoding="UTF-8" standalone="no"?><!DOCTYPE svg PUBLIC "-//W3C//DTD SVG 1.1//EN" "http://www.w3.org/Graphics/SVG/1.1/DTD/svg11.dtd"><svg width="100%" height="100%" viewBox="0 0 481 94" version="1.1" xmlns="http://www.w3.org/2000/svg" xmlns:xlink="http://www.w3.org/1999/xlink" xml:space="preserve" xmlns:serif="http://www.serif.com/" style="fill-rule:evenodd;clip-rule:evenodd;stroke-linejoin:round;stroke-miterlimit:2;"><rect id="Artboard1" x="0" y="0" width="480.988" height="93.721" style="fill:none;"/><g id="Ebene-1" serif:id="Ebene 1"><path id="path2618" d="M3.914,50.326c-0.129,-16.547 8.652,-32.622 24.219,-41.048c22.448,-12.152 50.495,-3.805 62.646,18.641c3.861,7.134 5.65,14.833 5.579,22.409l3.254,0.003c0.074,-8.101 -1.84,-16.333 -5.97,-23.96c-13.009,-24.029 -43.03,-32.963 -67.059,-19.953c-16.655,9.014 -26.054,26.205 -25.923,43.91l3.254,-0.002" style="fill-rule:nonzero;"/><rect id="path2620" x="45.769" y="50.657" width="3.904" height="34.475" style="fill-rule:nonzero;"/><path id="path2622" d="M75.452,85.132l-3.906,0l0,-4.259c-2.129,1.908 -4.88,4.792 -8.874,4.792c-4.037,-0 -6.521,-2.44 -6.477,-7.409l0,-19.346l3.904,-0l0,17.925c0,2.663 0.621,5.282 3.86,5.282c3.639,0 5.99,-2.663 7.587,-4.526l0,-18.681l3.906,-0l-0,26.222" style="fill-rule:nonzero;"/><path id="path2624" d="M98.566,58.91l-0,3.018l-14.331,20.099l14.641,-0l0,3.105l-19.3,0l-0,-2.972l14.465,-20.143l-13.887,-0l-0,-3.107l18.412,-0" style="fill-rule:nonzero;"/><path id="path2626" d="M105.665,73.02c0.178,7.055 3.46,9.539 6.965,9.539c4.26,0 5.902,-3.194 6.301,-4.613l3.416,1.196c-1.686,4.038 -4.924,6.523 -9.717,6.523c-9.316,-0 -11.048,-8.342 -11.048,-13.665c0,-5.281 1.732,-13.623 11.048,-13.623c7.543,0 10.249,6.523 10.249,12.691l0,1.952l-17.214,-0m13.133,-2.928c-0,-4.704 -2.13,-8.608 -6.301,-8.608c-4.081,0 -6.301,3.239 -6.832,8.608l13.133,-0" style="fill-rule:nonzero;"/><path id="path2628" d="M127.672,58.91l3.904,-0l-0,4.659l0.09,0c2.305,-3.195 5.368,-4.925 8.65,-4.925l0,3.905c-1.952,-0 -5.458,-0 -8.74,4.393l-0,18.19l-3.904,0l-0,-26.222" style="fill-rule:nonzero;"/><path id="path2630" d="M144.087,58.91l3.906,-0l-0,4.26c2.129,-1.908 4.881,-4.793 8.872,-4.793c4.04,0 6.523,2.442 6.478,7.41l0,19.345l-3.904,0l0,-17.925c0,-2.662 -0.621,-5.279 -3.859,-5.279c-3.639,-0 -5.99,2.662 -7.587,4.525l-0,18.679l-3.906,0l0,-26.222" style="fill-rule:nonzero;"/><path id="path2632" d="M172.217,73.02c0.178,7.055 3.46,9.539 6.965,9.539c4.26,0 5.902,-3.194 6.301,-4.613l3.417,1.196c-1.687,4.038 -4.925,6.523 -9.718,6.523c-9.316,-0 -11.048,-8.342 -11.048,-13.665c0,-5.281 1.732,-13.623 11.048,-13.623c7.543,0 10.249,6.523 10.249,12.691l0,1.952l-17.214,-0m13.134,-2.928c0,-4.704 -2.131,-8.608 -6.301,-8.608c-4.081,0 -6.3,3.239 -6.833,8.608l13.134,-0" style="fill-rule:nonzero;"/><path id="path2634" d="M194.224,58.91l3.905,-0l0,4.659l0.089,0c2.307,-3.195 5.368,-4.925 8.652,-4.925l-0,3.905c-1.953,-0 -5.458,-0 -8.741,4.393l0,18.19l-3.905,0l-0,-26.222" style="fill-rule:nonzero;"/><path id="path2636" d="M223.147,50.657l-0,19.922l10.117,-11.669l4.969,-0l-10.871,12.114l11.625,14.108l-5.058,0l-10.694,-13.487l-0.088,-0l-0,13.487l-3.904,0l-0,-34.475l3.904,-0" style="fill-rule:nonzero;"/><path id="path2638" d="M241.959,64.945c1.198,-3.15 3.151,-6.568 9.495,-6.568c7.766,0 8.785,5.281 8.785,9.896l0,13.798c0,0.577 0,1.597 0.223,3.061l-4.125,0l-0,-4.436l-0.09,-0c-2.531,3.327 -5.105,4.702 -8.209,4.702c-5.414,0 -7.321,-3.992 -7.321,-7.408c-0,-5.99 4.615,-9.009 11.847,-9.009l3.773,0l-0,-1.685c-0,-1.775 -0,-5.989 -5.105,-5.989c-3.24,-0 -4.747,1.819 -5.9,4.658l-3.373,-1.02m11.536,6.966c-5.591,-0 -8.873,1.774 -8.873,5.723c0,2.397 1.152,4.659 4.392,4.659c1.597,0 3.725,-0.399 7.323,-4.481l-0,-5.901l-2.842,-0" style="fill-rule:nonzero;"/><path id="path2640" d="M266.095,58.91l3.904,-0l-0,4.26c2.131,-1.908 4.881,-4.793 8.874,-4.793c4.038,0 6.521,2.442 6.478,7.41l0,19.345l-3.904,0l0,-17.925c0,-2.662 -0.621,-5.279 -3.859,-5.279c-3.641,-0 -5.991,2.662 -7.589,4.525l-0,18.679l-3.904,0l-0,-26.222" style="fill-rule:nonzero;"/><path id="path2642" d="M293.425,54.517l3.905,-1.642l0,8.121l6.168,0l0,2.928l-6.168,0l0,14.464c0,2.175 0.222,4.171 3.106,4.171c1.242,0 1.907,-0.222 3.283,-0.754l-0,3.105c-1.463,0.577 -3.017,0.755 -3.681,0.755c-5.637,-0 -6.613,-3.86 -6.613,-6.788l0,-14.953l-3.947,0l0,-2.928l3.947,0l0,-6.479" style="fill-rule:nonzero;"/><path id="path2644" d="M305.761,72c-0,-6.744 3.015,-13.623 11.047,-13.623c9.316,0 11.046,8.342 11.046,13.623c0,6.788 -3.015,13.665 -11.046,13.665c-9.317,-0 -11.047,-8.342 -11.047,-13.665m4.08,-0.045c-0,5.146 1.421,10.604 6.967,10.604c5.544,0 6.965,-5.458 6.965,-10.604c0,-5.059 -1.421,-10.471 -6.965,-10.471c-5.546,0 -6.967,5.412 -6.967,10.471" style="fill-rule:nonzero;"/><path id="path2646" d="M332.648,58.91l3.903,-0l-0,4.26c2.131,-1.908 4.88,-4.793 8.875,-4.793c4.036,0 6.52,2.442 6.477,7.41l0,19.345l-3.905,0l-0,-17.925c-0,-2.662 -0.621,-5.279 -3.86,-5.279c-3.637,-0 -5.989,2.662 -7.587,4.525l-0,18.679l-3.903,0l0,-26.222" style="fill-rule:nonzero;"/><path id="path2648" d="M359.533,77.946c0.976,2.75 2.662,4.613 5.945,4.613c4.171,0 5.415,-2.662 5.415,-4.393c0,-2.662 -1.998,-3.638 -5.282,-4.658l-1.95,-0.621c-3.551,-1.109 -6.699,-2.839 -6.699,-7.233c-0,-5.323 5.013,-7.277 8.828,-7.277c5.945,0 7.497,3.816 8.386,5.946l-3.417,1.198c-0.71,-2.75 -2.795,-4.037 -5.102,-4.037c-2.53,0 -4.793,1.242 -4.793,3.949c0,1.996 0.933,2.883 3.817,3.905l3.595,1.241c4.346,1.509 6.52,3.372 6.52,7.411c-0,2.926 -1.951,7.675 -9.408,7.675c-4.346,-0 -8.204,-2.174 -9.313,-6.612l3.458,-1.107" style="fill-rule:nonzero;"/><path id="path2650" d="M380.873,77.946c0.976,2.75 2.665,4.613 5.946,4.613c4.172,0 5.414,-2.662 5.414,-4.393c-0,-2.662 -1.997,-3.638 -5.281,-4.658l-1.95,-0.621c-3.551,-1.109 -6.7,-2.839 -6.7,-7.233c-0,-5.323 5.012,-7.277 8.829,-7.277c5.945,0 7.496,3.816 8.386,5.946l-3.417,1.198c-0.712,-2.75 -2.797,-4.037 -5.102,-4.037c-2.532,0 -4.793,1.242 -4.793,3.949c0,1.996 0.933,2.883 3.816,3.905l3.594,1.241c4.348,1.509 6.523,3.372 6.523,7.411c0,2.926 -1.952,7.675 -9.408,7.675c-4.346,-0 -8.205,-2.174 -9.316,-6.612l3.459,-1.107" style="fill-rule:nonzero;"/><path id="path2652" d="M400.796,58.91l3.903,-0l-0,3.417l0.088,0c0.888,-1.419 3.153,-3.95 7.188,-3.95c5.902,0 9.497,5.059 9.497,13.756c-0,10.604 -5.102,13.532 -9.14,13.532c-2.618,-0 -4.837,-0.799 -7.633,-3.949l-0,11.669l-3.903,0l0,-34.475m3.903,19.568c1.422,1.996 3.816,3.904 6.346,3.904c5.634,-0 6.344,-6.567 6.344,-9.983c0,-4.303 -0.933,-10.737 -6.387,-10.737c-3.374,-0 -5.594,2.44 -6.303,3.948l-0,12.868" style="fill-rule:nonzero;"/><path id="path2654" d="M426.352,50.657l4.349,-0l-0,3.904l-4.349,-0l-0,-3.904Zm0.221,8.253l3.903,-0l-0,26.222l-3.903,0l0,-26.222Z" style="fill-rule:nonzero;"/><path id="path2656" d="M438.863,54.517l3.904,-1.642l0,8.121l6.166,0l0,2.928l-6.166,0l0,14.464c0,2.175 0.222,4.171 3.106,4.171c1.243,0 1.907,-0.222 3.284,-0.754l-0,3.105c-1.466,0.577 -3.017,0.755 -3.684,0.755c-5.632,-0 -6.61,-3.86 -6.61,-6.788l0,-14.953l-3.949,0l-0,-2.928l3.949,0l0,-6.479" style="fill-rule:nonzero;"/><path id="path2658" d="M452.306,64.945c1.198,-3.15 3.149,-6.568 9.495,-6.568c7.764,0 8.786,5.281 8.786,9.896l-0,13.798c-0,0.577 -0,1.597 0.22,3.061l-4.126,0l0,-4.436l-0.088,-0c-2.529,3.327 -5.102,4.702 -8.209,4.702c-5.414,0 -7.32,-3.992 -7.32,-7.408c0,-5.99 4.613,-9.009 11.844,-9.009l3.773,0l0,-1.685c0,-1.775 0,-5.989 -5.101,-5.989c-3.239,-0 -4.747,1.819 -5.903,4.658l-3.371,-1.02m11.535,6.966c-5.59,-0 -8.874,1.774 -8.874,5.723c-0,2.397 1.155,4.659 4.393,4.659c1.599,0 3.728,-0.399 7.321,-4.481l0,-5.901l-2.84,-0" style="fill-rule:nonzero;"/><rect id="path2660" x="476.753" y="50.657" width="3.905" height="34.475" style="fill-rule:nonzero;"/></g></svg>