<svg id="logo" fill="#000" xmlns="http://www.w3.org/2000/svg" viewBox="279.3 272 283.4 51.3">
  <path class="st0"
    d="M339.5 322h14.9v-29.1c0-13.2-3.9-20.5-16.3-20.5-6.8 0-12 2.8-15.7 8.2-2.3-5.3-6.7-8.2-14.4-8.2-7.3 0-11.7 3.9-13.8 7.5v-6.4h-14.9V322h14.9v-25.2c0-8.6 1.8-12.8 8.2-12.8 6.8 0 7 5.7 7 12.6V322h14.9v-25.2c0-8.6 1.6-12.8 8.2-12.8 6.9 0 7 5.7 7 12.6V322zm52.7-20.4c0 8.9-4.5 11.5-10.5 11.5-3.9 0-6.3-2.1-6.3-5.2 0-5.2 6.8-6.7 16.8-7.4v1.1zm15.2 20.4c-.9-4.1-1.2-12.8-1.1-19.1l.2-10.5c.3-14.8-7.8-20.4-21.6-20.4-16.5 0-22.5 8.1-23.2 17.2h13.9c.5-4.7 3.3-7.1 8-7.1 5.3 0 8.2 2.1 8.2 7.8v1.9c-19.5 1.3-31.7 5.1-31.7 17.2 0 8.8 7.6 14.2 16.8 14.2 6.9 0 12.1-1.9 15.7-7l.2 5.9h14.6zm36.2-25l16.9-23.4H445l-9.2 13.1-8.8-13.1h-16.9l17 24.2-17.7 24.2h15.8l9.7-14 9.6 14h16.8l-17.7-25zm51.9.6c0 10.2-4.5 14.1-10.5 14.1s-10.5-3.9-10.5-14.1c0-10.3 4.7-14.1 10.5-14.1 5.8.1 10.5 3.8 10.5 14.1m15.1 0c0-17.6-12.3-25.6-25.7-25.6-13.4 0-25.7 8-25.7 25.6s12.3 25.7 25.7 25.7c13.4 0 25.7-8.1 25.7-25.7m52.1 24.4v-29.1c0-13.2-3.9-20.5-16.3-20.5-7.6 0-12.9 3.9-15.1 7.5v-6.4h-14.9V322h14.9v-24.9c0-8.9 2.7-13.2 9-13.2 7.2 0 7.5 5.7 7.5 12.6V322h14.9z" />
</svg>