<?xml version="1.0" encoding="utf-8"?>
<!-- Generator: Adobe Illustrator 27.2.0, SVG Export Plug-In . SVG Version: 6.00 Build 0)  -->
<svg version="1.1" id="Ebene_1" xmlns="http://www.w3.org/2000/svg"
  xmlns:xlink="http://www.w3.org/1999/xlink" x="0px" y="0px"
  viewBox="0 0 525.5 110.1" style="enable-background:new 0 0 525.5 110.1;" xml:space="preserve">
<style type="text/css">
	.st0{fill:#000;}
	.st1{fill:#FFFFFF;}
</style>
<g>
	<g>
		<rect class="st0" width="525.5" height="110.1"/>
	</g>
	<g>
		<path class="st1" d="M133.9,51.6c4.2-16.3,15.7-26.5,31-26.5c19.5,0,27.3,15.3,22.6,33.4C183.3,74.7,171.5,85,156.8,85
			C137.9,85,129,70.4,133.9,51.6z M178.9,57.3c3.4-12.8-0.6-24.3-14.7-24.3c-9.3,0-18.2,7.3-21.5,19.7c-3.4,12.6,0.4,24.4,14.8,24.4
			C167.7,77.2,175.5,69.7,178.9,57.3z"/>
		<path class="st1" d="M192,60.8c2.9-11.5,11.9-18.7,22-18.7c13.4,0,19.2,10.5,15.9,22.9l-0.3,1.3h-30.3
			c-0.3,6.5,2.9,11.4,10.8,11.4c5.2,0,8.4-2.8,10.7-6.1l6.8,4.2c-3.6,5.2-9.6,8.9-17.8,8.9C194.8,84.8,188.5,74.3,192,60.8z
			 M222.5,59.9c1-5.2-1.3-10.8-9.3-10.8c-5.8,0-10.8,3.9-12.7,10.8H222.5z"/>
		<path class="st1" d="M248.2,25.6h8.4l-9.6,35.6L267.7,43h10.8l-19.1,16.2l8.9,24.4h-8.5L253,64.3l-8.8,7.4l-3.2,12h-8.4
			L248.2,25.6z"/>
		<path class="st1" d="M276.1,60.9c3-11.4,12-18.8,22.5-18.8C312,42.2,319,53,315.4,66c-3,11.2-11.9,18.6-22.4,18.6
			C279.6,84.6,272.5,73.9,276.1,60.9z M307,65.1c2.2-8.4-0.4-15.7-9.1-15.7c-6.3,0-11.3,4.7-13.3,12.5c-2.2,7.7,0.2,15.4,9.2,15.4
			C300.2,77.3,304.9,73,307,65.1z"/>
		<path class="st1" d="M324.3,26.5h8.9L332.4,70l23.8-43.5h9l0.5,44.8l22.9-44.8h10.2l-31.4,57.2h-8.9l-0.7-44.5l-24.4,44.5H325
			L324.3,26.5z"/>
		<path class="st1" d="M386.9,71.2c1.6-7.6,8.7-10.2,18.8-11.2c6.4-0.6,11.4-0.7,12.6-3.1l0.2-0.4c1.2-5.3-3.6-7.1-8.8-7.1
			c-4.8,0-8,2.2-9.3,6.1l-0.2,0.6l-8.3-1.1c2.4-8,9.4-12.7,18.2-12.7c11.9,0,18.7,5.9,15.4,18.3l-6.1,23.1h-8.3l1.4-5.2
			c-3.9,4.4-8.4,6.2-13.9,6.2C389.8,84.7,385,79.1,386.9,71.2z M415.8,67.3l0.9-4c-2.3,1.4-6.2,1.7-9.9,2.2
			c-5.2,0.6-10.2,1.6-11.4,6.2c-0.9,4,1.8,6.5,6.8,6.5C407.7,78.2,413.4,74.6,415.8,67.3z"/>
		<path class="st1" d="M434.3,73.6l6.1-23.2h-6.5l1.9-7.3h6.5l2.2-7.9l9.6-5.1l-3.5,13h8.5l-1.9,7.3h-8.6L442.7,73
			c-0.7,2.7-0.1,3.6,2.8,3.6h4.6l-2,7.1h-5.8C434.3,83.7,432.6,79.9,434.3,73.6z"/>
		<path class="st1" d="M463.5,73.6l6.1-23.2h-6.5L465,43h6.5l2.2-7.9l9.6-5.1l-3.5,13h8.5l-1.9,7.3h-8.6L471.9,73
			c-0.7,2.7-0.1,3.6,2.8,3.6h4.6l-2,7.1h-5.8C463.6,83.7,461.8,79.9,463.5,73.6z"/>
	</g>
</g>
</svg>