<?xml version="1.0" encoding="UTF-8" standalone="no"?>
<!-- Generator: Adobe Illustrator 27.2.0, SVG Export Plug-In . SVG Version: 6.00 Build 0)  -->

<svg
   version="1.1"
   id="Layer_1"
   x="0px"
   y="0px"
   viewBox="0 0 52.700001 34"
   xml:space="preserve"
   sodipodi:docname="post-logo.svg"
   width="52.700001"
   height="34"
   inkscape:version="1.4.2 (ebf0e940d0, 2025-05-08)"
   xmlns:inkscape="http://www.inkscape.org/namespaces/inkscape"
   xmlns:sodipodi="http://sodipodi.sourceforge.net/DTD/sodipodi-0.dtd"
   xmlns="http://www.w3.org/2000/svg"
   xmlns:svg="http://www.w3.org/2000/svg"><defs
   id="defs1" /><sodipodi:namedview
   id="namedview1"
   pagecolor="#ffffff"
   bordercolor="#000000"
   borderopacity="0.25"
   inkscape:showpageshadow="2"
   inkscape:pageopacity="0.0"
   inkscape:pagecheckerboard="0"
   inkscape:deskcolor="#d1d1d1"
   inkscape:zoom="9.0972222"
   inkscape:cx="26.051908"
   inkscape:cy="16.983206"
   inkscape:window-width="1512"
   inkscape:window-height="912"
   inkscape:window-x="0"
   inkscape:window-y="0"
   inkscape:window-maximized="1"
   inkscape:current-layer="Layer_1" />
<style
   type="text/css"
   id="style1">
	.st0{fill:none;}
</style>

<g
   id="Logo"
   transform="translate(-10,-19)">
	<polygon
   points="19.7,53 34,53 34,39.7 30.6,39.7 30.6,49.8 23.1,49.8 23.1,39.7 13.4,39.7 13.4,32.3 23.1,32.3 23.1,22.2 30.6,22.2 30.6,32.3 34,32.3 34,19 19.7,19 19.7,29.1 10,29.1 10,42.9 19.7,42.9 "
   id="polygon1" />
	<path
   d="m 53.6,31.1 c 0,2.4 -2,4.3 -4.5,4.3 H 45.3 V 27.1 H 49 c 2.7,0 4.6,1.7 4.6,4 z M 50.7,19 H 36 v 34 h 9.2 V 42.9 h 5.5 c 6.8,0 12,-5.2 12,-11.8 0,-6.7 -5.3,-12.1 -12,-12.1 z"
   id="path1" />
</g>
</svg>
