<?xml version="1.0" encoding="UTF-8" standalone="no"?>
<svg
   width="1162"
   height="397"
   viewBox="0 0 1162 397"
   version="1.1"
   id="svg2"
   xmlns="http://www.w3.org/2000/svg"
   xmlns:svg="http://www.w3.org/2000/svg">
  <defs
     id="defs2" />
  <path
     d="m 1076.176,59.07 c -10.701,2.106 -21.607,9.794 -26.409,18.616 -3.995,7.342 -5.062,13.407 -3.794,21.58 1.352,8.711 4.625,15.187 10.338,20.453 5.235,4.826 8.759,6.731 22.77,12.313 11.772,4.69 15.335,6.938 17.434,10.997 4.741,9.168 -1.077,16.67 -12.214,15.746 -7.705,-0.639 -12.874,-4.544 -17.179,-12.977 l -3.378,-6.617 -4.122,1.787 c -2.267,0.983 -7.861,3.53 -12.431,5.66 l -8.308,3.872 3.249,6.5 c 11.595,23.198 40.061,32.274 63.869,20.363 8.54,-4.272 15.962,-12.085 19.111,-20.116 3.412,-8.703 3.271,-21.92 -0.307,-28.787 -5.021,-9.638 -11.337,-14.072 -32.805,-23.032 -13.16,-5.492 -18,-9.366 -18,-14.405 0,-4.564 4.673,-9.023 9.455,-9.023 5.484,0 10.1,2.403 13.421,6.988 1.65,2.278 3.148,4.584 3.329,5.126 0.18,0.541 4.82,-0.889 10.311,-3.178 5.491,-2.289 11.008,-4.554 12.259,-5.034 l 2.274,-0.871 -2.416,-4.768 c -3.131,-6.178 -12.218,-14.729 -18.88,-17.765 -5.135,-2.339 -15.768,-4.584 -20.753,-4.381 -1.375,0.056 -4.446,0.485 -6.824,0.953 M 405.5,60.399 c -9.656,3.054 -18.858,10.574 -23.35,19.081 -2.334,4.422 -2.648,6.152 -2.632,14.52 0.016,8.14 0.395,10.31 2.651,15.155 4.686,10.064 11.01,14.873 29.203,22.209 12.356,4.982 17.084,7.97 18.998,12.003 2.52,5.312 2.075,8.388 -1.77,12.233 -3.009,3.009 -4.008,3.4 -8.684,3.4 -9.558,0 -17.625,-6.131 -21.07,-16.012 -0.573,-1.643 -1.626,-2.988 -2.34,-2.988 -1.136,0 -22.376,9.537 -23.301,10.462 -1.039,1.038 5.704,12.406 10.309,17.38 9.696,10.473 20.6,14.603 36.957,13.997 9.396,-0.348 10.815,-0.676 17.778,-4.118 13.626,-6.734 21.357,-18.007 22.491,-32.796 1.345,-17.545 -7.669,-28.192 -32.049,-37.856 C 411.016,100.063 406.368,96.341 407.376,90 c 0.801,-5.039 4.617,-8 10.312,-8 5.822,0 9.995,2.547 13.653,8.335 l 2.826,4.471 10.667,-4.5 c 5.866,-2.475 11.216,-4.724 11.887,-4.999 1.394,-0.569 -1.347,-6.623 -5.42,-11.973 C 447.756,68.677 439.197,63.163 432.073,60.946 424.826,58.69 411.753,58.421 405.5,60.399 M 465,72.5 V 84 h 13.5 13.5 v 48 48 H 507.5 523 V 132 84 h 13 13 V 72.5 61 h -42 -42 v 11.5 m 97.679,46.762 C 555.156,151.307 549,178.095 549,178.793 c 0,0.971 2.874,1.203 12.25,0.988 L 573.5,179.5 575.995,167.75 578.49,156 h 13.688 c 12.178,0 13.743,0.193 14.189,1.75 0.276,0.963 1.236,5.575 2.133,10.25 0.897,4.675 1.857,9.287 2.133,10.25 0.449,1.566 2.071,1.75 15.434,1.75 C 634.28,180 641,179.694 641,179.319 641,178.669 617.459,67.922 616.328,63.25 615.786,61.011 615.685,61 596.071,61 h -19.712 l -13.68,58.262 M 658,120.5 V 180 h 21.451 c 23.367,0 28.929,-0.74 38.123,-5.072 18.82,-8.868 29.437,-35.161 26.347,-65.253 -2.707,-26.363 -15.844,-42.372 -38.758,-47.228 -4.464,-0.946 -13.347,-1.418 -26.913,-1.43 L 658,61 v 59.5 m 91,-48 V 84 h 13.5 13.5 v 48 48 h 15 15 V 132 84 H 819.5 833 V 72.5 61 h -42 -42 v 11.5 m 98,48.001 v 59.636 l 28.75,-0.343 c 26.977,-0.322 29.094,-0.481 34.329,-2.577 7.588,-3.037 13.248,-8.146 16.61,-14.993 2.482,-5.055 2.811,-6.835 2.811,-15.224 0,-8.64 -0.266,-9.98 -2.936,-14.801 -3.207,-5.788 -8.512,-10.25 -15.242,-12.82 l -4.326,-1.652 4.773,-2.211 c 9.567,-4.433 15.077,-12.727 15.987,-24.068 C 928.733,79.279 917.78238,68.004272 907.84052,64.395138 897.89865,60.786003 888.29005,61.312514 876.275,61.182 L 847,60.865 v 59.636 m 100,-15.05 c 0,29.103 0.388,46.28 1.124,49.75 2.332,10.991 9.102,19.799 18.365,23.897 6.96,3.079 18.081,4.289 27.678,3.011 19.144,-2.549 29.809,-12.672 32.773,-31.109 0.605,-3.764 1.048,-24.074 1.052,-48.25 L 1028,61 h -13 -13 l -0.01,43.25 c 0,26.415 -0.404,44.685 -1.029,46.936 -0.563,2.027 -2.452,4.888 -4.199,6.357 -2.73,2.297 -3.853,2.607 -8.003,2.208 -5.729,-0.55 -9.302,-3.432 -10.759,-8.677 -0.586,-2.111 -0.995,-21.282 -0.998,-46.824 L 977,61 h -15 -15 v 44.451 M 688,120.5 V 159 h 3.532 c 5.042,0 9.512,-2.147 13.191,-6.337 4.789,-5.455 6.392,-12.049 6.969,-28.663 0.819,-23.63 -2.713,-34.715 -12.667,-39.75 C 696.578,83.013 693.097,82 691.288,82 H 688 v 38.5 M 877,94.894 V 108 h 6.032 C 894.548,108 899,104.318 899,94.793 c 0,-4.948 -0.41,-6.221 -2.908,-9.016 -2.755,-3.083 -3.332,-3.273 -11,-3.621 L 877,81.788 v 13.106 m -288.926,14.357 c -2.434,11.687 -4.624,22.261 -4.867,23.499 -0.432,2.209 -0.264,2.25 9.285,2.25 9.579,0 9.717,-0.034 9.182,-2.25 -0.298,-1.238 -2.23,-11.812 -4.293,-23.5 -2.062,-11.687 -4.005,-21.25 -4.316,-21.249 -0.311,10e-4 -2.557,9.563 -4.991,21.25 M 877,143 v 15 l 6.75,-0.004 c 11.054,-0.006 16.464,-4.673 16.604,-14.322 0.148,-10.301 -5.71,-15.67 -17.104,-15.672 L 877,128 v 15 m -696.983,70.75 c 0.009,0.963 5.542,28.075 12.295,60.25 l 12.278,58.5 h 6.383 6.382 l 10.518,-48.221 c 5.784,-26.522 10.646,-48.093 10.804,-47.935 0.158,0.157 2.293,9.932 4.745,21.721 3.888,18.691 8.78,41.741 14.153,66.685 l 1.561,7.25 h 6.203 6.203 l 13.523,-59.25 13.523,-59.25 -5.407,-0.303 c -2.974,-0.167 -5.653,-0.059 -5.952,0.24 -0.299,0.3 -4.973,20.911 -10.387,45.804 -5.414,24.892 -10.206,46.113 -10.649,47.157 -0.736,1.737 -5.599,-19.93 -18.043,-80.398 l -2.778,-13.5 -6.067,-0.295 c -5.609,-0.272 -6.109,-0.121 -6.635,2 -0.314,1.262 -5.114,22.754 -10.668,47.76 -5.554,25.006 -10.222,45.588 -10.372,45.738 -0.15,0.15 -4.216,-19.184 -9.036,-42.965 -4.819,-23.781 -9.212,-45.375 -9.761,-47.988 L 191.834,212 h -5.917 c -4.975,0 -5.914,0.279 -5.9,1.75 M 310,219.5 v 6.5 h 6 6 v -6.5 -6.5 h -6 -6 v 6.5 m 332,53 V 332 h 6 6 V 299.585 267.17 l 4.588,-4.038 c 8.965,-7.892 18.361,-10.32 23.696,-6.123 4.082,3.21 4.716,9.068 4.716,43.54 V 332 h 6.089 6.09 l -0.391,-34.25 c -0.373,-32.697 -0.493,-34.509 -2.646,-39.958 -1.24,-3.14 -3.6,-6.841 -5.244,-8.224 -8.168,-6.873 -22.575,-5.601 -32.659,2.884 -1.665,1.401 -3.3,2.548 -3.633,2.548 -0.333,0 -0.606,-9.45 -0.606,-21 v -21 h -6 -6 v 59.5 m -221,-39 V 247 h -6.5 -6.5 v 5.5 5.5 h 6.438 6.438 l 0.312,32.75 c 0.294,30.828 0.431,32.953 2.347,36.215 3.886,6.614 12.342,9.24 22.776,7.074 L 452,332.858 v -4.523 -4.523 l -4.965,0.683 c -6.296,0.866 -11.368,-0.736 -12.888,-4.071 C 433.366,318.709 433,308.356 433,287.953 V 258 h 9.5 9.5 V 252.5 247 H 442.5 433 V 233.5 220 h -6 -6 v 13.5 m 177,-0.048 v 13.453 l -6.25,0.297 -6.25,0.298 v 5 5 l 6.167,0.296 6.166,0.295 0.341,32.205 c 0.33,31.151 0.415,32.342 2.594,36.433 1.238,2.327 3.586,4.92 5.217,5.763 4.352,2.251 13.7,2.882 19.015,1.284 4.305,-1.294 4.513,-1.533 4.804,-5.494 l 0.304,-4.14 -7.518,0.179 c -6.619,0.158 -7.79,-0.093 -9.804,-2.097 -2.269,-2.26 -2.288,-2.507 -2.589,-33.213 l -0.303,-30.937 9.803,-0.287 9.803,-0.287 v -5 -5 l -9.75,-0.286 -9.75,-0.286 V 233.464 220 h -6 -6 v 13.452 m -230.118,12.929 c -4.304,1.538 -10.169,5.055 -11.892,7.131 -1.973,2.377 -2.847,1.755 -3.18,-2.262 l -0.31,-3.75 -5.75,-0.3 -5.75,-0.3 V 289.45 332 h 6 6 V 299.585 267.17 l 4.588,-4.038 c 12.475,-10.981 24.858,-10.815 27.44,0.368 0.509,2.2 0.935,18.512 0.948,36.25 L 386,332 h 6.08 6.08 l -0.416,-34.25 c -0.434,-35.62 -0.75,-38.453 -5.013,-44.868 -4.536,-6.826 -15.737,-9.757 -24.849,-6.501 m 115.45,0.47 c -9.555,3.302 -15.464,9.577 -19.512,20.722 -2.625,7.228 -3.715,28.797 -1.898,37.552 3.83,18.447 15.616,29.214 32.078,29.305 10.047,0.055 17.012,-2.426 23.287,-8.295 4.301,-4.024 8.458,-9.854 7.537,-10.574 -0.178,-0.139 -2.08,-1.422 -4.226,-2.852 l -3.901,-2.6 -3.373,4.418 c -4.926,6.451 -11.45,9.966 -18.316,9.869 -12.468,-0.177 -19.61,-8.915 -21.59,-26.419 L 472.742,292 h 25.61 25.61 l 0.618,-2.462 c 0.893,-3.558 -1.345,-18.835 -3.669,-25.045 -6.028,-16.113 -21.281,-23.274 -37.579,-17.642 m 86.826,0.422 c -4.367,1.397 -11.222,8.32 -13.696,13.832 l -1.962,4.371 -0.5,-8.988 -0.5,-8.988 -5.75,-0.3 -5.75,-0.3 V 289.45 332 h 6 6 v -24.471 c 0,-24.025 0.046,-24.577 2.537,-30.209 5.35,-12.096 14.164,-20.32 21.779,-20.32 2.587,0 2.684,-0.199 2.684,-5.5 V 246 l -3.75,0.102 c -2.062,0.056 -5.254,0.583 -7.092,1.171 m 251.333,0.592 c -4.54,2.063 -9.412,7.194 -12.735,13.413 L 806.5,265.5 806.212,256.25 805.925,247 H 799.962 794 v 42.5 42.5 h 6 6 V 307.855 283.71 l 3.434,-7.139 C 815.163,264.659 823.368,257 830.401,257 832.885,257 833,256.756 833,251.5 V 246 l -3.75,0.022 c -2.062,0.012 -5.554,0.841 -7.759,1.843 M 310,289.5 V 332 h 6 6 V 289.5 247 h -6 -6 v 42.5 m 407.192,-7.25 c 0.303,34.672 0.347,35.336 2.691,40.523 2.83,6.261 6.669,9.759 12.412,11.309 8.028,2.165 17.21,-0.417 25.955,-7.299 l 3.75,-2.951 v 4.084 4.084 h 6 6 V 289.5 247 h -6 -6 v 32.977 32.976 l -5.25,4.17 c -8.83,7.013 -16.057,9.389 -20.812,6.844 -1.063,-0.569 -2.945,-2.931 -4.185,-5.25 -2.189,-4.097 -2.262,-5.179 -2.574,-37.967 L 728.858,247 h -5.987 -5.988 l 0.309,35.25 M 486.121,257.169 c -6.677,3.305 -12.101,12.966 -12.115,21.581 L 474,282 h 19.114 19.113 l -0.687,-4.583 c -1.564,-10.432 -5.842,-17.909 -11.885,-20.776 -4.65,-2.207 -8.296,-2.065 -13.534,0.528"
     stroke="none"
     fill="#371e26"
     fill-rule="evenodd"
     id="path1"/>
  <path
     d="m 14.398508,140.83834 c 0,0.966 20.544,36.95 21.906,38.37 0.408,0.426 8.446,0.651 17.861,0.5 l 17.119,-0.274 -11.333,-19.5 -11.332,-19.5 -17.111,-0.274 c -10.343,-0.165 -17.11,0.103 -17.11,0.678 m 69.167,-0.038 c 0.183,0.477 5.283,9.473 11.333,19.992 l 11.000002,19.126 17.25,0.008 c 9.488,0.004 17.25,-0.238 17.25,-0.539 0,-0.301 -5.054,-9.301 -11.231,-20 l -11.23,-19.453 h -17.353 c -9.544002,0 -17.203002,0.39 -17.019002,0.866 m 69.833002,-0.027 c 0,0.894 20.601,36.996 21.933,38.435 0.393,0.426 8.419,0.651 17.835,0.5 l 17.119,-0.274 -11.258,-19.5 -11.257,-19.5 -17.186,-0.274 c -9.528,-0.151 -17.186,0.122 -17.186,0.613 m 69.167,0.015 c 0.183,0.47 5.283,9.464 11.333,19.986 l 11,19.132 17.25,0.014 c 9.488,0.008 17.25,-0.162 17.25,-0.377 0,-0.215 -4.902,-8.877 -10.893,-19.25 l -10.894,-18.859 -4.356,-0.676 c -6.394,-0.992 -31.08,-0.968 -30.69,0.03 m 71.027,2.396 c 0.783,1.238 5.879,10.012 11.326,19.5 l 9.902,17.25 h 17.346 17.345 l -2.55,-4.25 c -1.402,-2.338 -6.489,-11.113 -11.303,-19.5 l -8.754,-15.25 h -17.368 -17.368 l 1.424,2.25"
     style="fill:#ff0000;fill-rule:evenodd;stroke:#ff0000"
     id="path1-3" />
</svg>
