<?xml version="1.0" encoding="UTF-8"?>
<svg xmlns="http://www.w3.org/2000/svg" xmlns:xlink="http://www.w3.org/1999/xlink" width="174px"
  height="50px" viewBox="0 0 173 50" version="1.1">
  <g id="surface1">
    <path style=" stroke:none;fill-rule:nonzero;fill:#000;fill-opacity:1;"
      d="M 90.699219 0.664062 L 90.699219 7.839844 L 96.726562 6.644531 L 96.726562 0.664062 Z M 76.929688 8.136719 L 82.996094 6.933594 L 82.996094 0.664062 L 76.929688 0.664062 Z M 76.929688 8.136719 " />
    <path style=" stroke:none;fill-rule:nonzero;fill:rgb(0%,0%,0%);fill-opacity:1;"
      d="M 24.832031 43.523438 L 27.785156 43.523438 L 27.785156 44.113281 C 27.785156 46.195312 27.195312 48.015625 25.046875 48.015625 C 22.957031 48.015625 22.03125 46.171875 22.03125 42.117188 C 22.03125 37.914062 23.039062 36.296875 25.007812 36.296875 C 26.808594 36.296875 27.433594 37.621094 27.585938 39.535156 L 30.082031 39.09375 C 29.890625 36.382812 28.402344 34.371094 25.054688 34.371094 C 21.453125 34.371094 19.484375 36.804688 19.484375 42.125 C 19.484375 47.398438 21.199219 50 24.40625 50 C 26.394531 50 27.691406 48.929688 28.210938 47.207031 L 28.332031 49.640625 L 30.15625 49.640625 L 30.15625 41.59375 L 24.832031 41.59375 Z M 41.425781 42.957031 L 46.597656 42.957031 L 46.597656 41.003906 L 41.425781 41.003906 L 41.425781 36.679688 L 46.933594 36.679688 L 46.933594 34.730469 L 38.976562 34.730469 L 38.976562 49.640625 L 47.078125 49.640625 L 47.078125 47.6875 L 41.425781 47.6875 Z M 54.265625 36.804688 L 57.988281 36.804688 L 57.988281 49.640625 L 60.414062 49.640625 L 60.414062 36.804688 L 64.136719 36.804688 L 64.136719 34.722656 L 54.265625 34.722656 Z M 81.109375 39.078125 C 81.109375 36.488281 79.835938 34.730469 76.488281 34.730469 L 71.796875 34.730469 L 71.796875 49.640625 L 74.246094 49.640625 L 74.246094 43.867188 L 76.203125 43.484375 L 76.210938 43.484375 L 78.789062 49.640625 L 81.46875 49.640625 L 78.625 43.066406 C 80.269531 42.476562 81.109375 41.003906 81.109375 39.078125 Z M 76.210938 41.394531 C 75.488281 41.570312 74.246094 41.785156 74.246094 41.785156 L 74.246094 36.535156 L 76.191406 36.535156 C 77.867188 36.535156 78.492188 37.414062 78.492188 39.078125 C 78.492188 40.738281 77.027344 41.195312 76.210938 41.394531 Z M 116.867188 43.355469 C 116.867188 44.382812 116.890625 45.332031 116.949219 46.257812 L 116.914062 46.257812 C 116.722656 45.332031 116.539062 44.703125 116.179688 43.945312 L 111.617188 34.722656 L 108.855469 34.722656 L 108.855469 49.632812 L 111.136719 49.632812 L 111.136719 40.460938 C 111.136719 39.476562 111.097656 38.570312 111.054688 37.777344 L 111.097656 37.777344 C 111.289062 38.59375 111.457031 39.269531 111.871094 40.109375 L 116.578125 49.648438 L 119.15625 49.648438 L 119.15625 34.730469 L 116.875 34.730469 L 116.875 43.355469 Z M 138.386719 34.730469 L 135.625 34.730469 L 130.917969 41.953125 L 130.917969 34.730469 L 128.46875 34.730469 L 128.46875 49.640625 L 130.917969 49.640625 L 130.917969 44.980469 L 132.574219 42.476562 L 135.902344 49.640625 L 138.640625 49.640625 L 134.261719 40.667969 Z M 148.9375 42.957031 L 154.109375 42.957031 L 154.109375 41.003906 L 148.9375 41.003906 L 148.9375 36.679688 L 154.445312 36.679688 L 154.445312 34.730469 L 146.488281 34.730469 L 146.488281 49.640625 L 154.589844 49.640625 L 154.589844 47.6875 L 148.9375 47.6875 Z M 93.300781 34.730469 L 89.027344 49.640625 L 91.523438 49.640625 L 92.546875 45.691406 L 96.964844 45.691406 L 97.984375 49.640625 L 100.457031 49.640625 L 96.183594 34.730469 Z M 93.050781 43.824219 L 94.371094 38.777344 C 94.492188 38.164062 94.621094 37.597656 94.726562 36.886719 L 94.765625 36.886719 C 94.871094 37.597656 94.996094 38.164062 95.140625 38.777344 L 96.460938 43.824219 Z M 91.15625 34.730469 L 89 34.730469 L 89 36.894531 L 91.15625 36.894531 Z M 98.34375 36.886719 L 100.503906 36.886719 L 100.503906 34.722656 L 98.34375 34.722656 Z M 14.234375 12.476562 L 10.246094 11.144531 C 8.054688 10.402344 7.042969 9.1875 7.042969 7.492188 C 7.042969 5.726562 8.332031 4.546875 10.367188 4.546875 C 12.753906 4.546875 14.59375 6.078125 15.371094 9.53125 L 20.300781 7.058594 C 19.164062 2.042969 15.609375 0 10.597656 0 C 5.117188 0 1.25 3.023438 1.25 8.121094 C 1.25 12.046875 3.089844 14.910156 7.042969 16.167969 L 11.03125 17.421875 C 13.335938 18.125 14.082031 19.226562 14.082031 21.113281 C 14.082031 23.03125 12.832031 24.328125 10.679688 24.328125 C 7.863281 24.328125 6.261719 22.597656 5.363281 18.953125 L 0.0390625 21.308594 C 1.328125 26.371094 4.804688 29.203125 10.445312 29.203125 C 16.546875 29.203125 20.0625 25.589844 20.0625 20.53125 C 20.0625 16.367188 18.386719 13.894531 14.234375 12.476562 Z M 45.125 19.113281 L 39.144531 17.820312 C 38.867188 22.566406 37.464844 24.296875 35.078125 24.296875 C 32.0625 24.296875 30.421875 22.023438 30.421875 14.566406 C 30.421875 7.109375 32.1875 4.875 35.039062 4.875 C 37.578125 4.875 38.867188 6.292969 39.066406 11.3125 L 45.09375 10.210938 C 44.925781 3.375 41.136719 0 35.078125 0 C 28.425781 0 24.207031 3.765625 24.207031 14.597656 C 24.207031 25.589844 27.996094 29.195312 35.039062 29.195312 C 40.859375 29.195312 44.660156 25.703125 45.125 19.113281 Z M 64.417969 10.953125 L 56.515625 12.460938 L 56.515625 0.664062 L 50.449219 0.664062 L 50.449219 28.527344 L 56.515625 28.527344 L 56.515625 17.160156 L 64.417969 15.652344 L 64.417969 28.519531 L 70.484375 28.519531 L 70.484375 0.664062 L 64.417969 0.664062 Z M 166.90625 0.664062 L 166.90625 10.945312 L 159 12.453125 L 159 0.664062 L 152.9375 0.664062 L 152.9375 28.527344 L 159 28.527344 L 159 17.160156 L 166.90625 15.652344 L 166.90625 28.519531 L 172.96875 28.519531 L 172.96875 0.664062 Z M 122.34375 9.023438 C 122.34375 3.882812 119.53125 0.664062 113.074219 0.664062 L 103.179688 0.664062 L 103.179688 28.527344 L 109.246094 28.527344 L 109.246094 18.109375 L 112.296875 17.5 L 116.402344 28.527344 L 122.894531 28.527344 L 117.890625 16.402344 C 120.734375 15.261719 122.34375 12.675781 122.34375 9.023438 Z M 112.175781 13.554688 L 109.238281 14.0625 L 109.238281 4.867188 L 112.175781 4.867188 C 114.875 4.867188 115.964844 6.285156 115.964844 9.023438 C 115.964844 11.847656 114.761719 13.089844 112.175781 13.554688 Z M 141.347656 17.820312 C 141.074219 22.566406 139.667969 24.296875 137.28125 24.296875 C 134.269531 24.296875 132.628906 22.023438 132.628906 14.566406 C 132.628906 7.109375 134.390625 4.875 137.242188 4.875 C 139.785156 4.875 141.074219 6.292969 141.273438 11.3125 L 147.296875 10.210938 C 147.136719 3.375 143.347656 0 137.28125 0 C 130.628906 0 126.410156 3.765625 126.410156 14.597656 C 126.410156 25.589844 130.203125 29.195312 137.242188 29.195312 C 143.070312 29.195312 146.863281 25.703125 147.335938 19.105469 Z M 96.726562 20.246094 L 96.726562 11.070312 L 90.699219 12.261719 L 90.699219 19.980469 C 90.699219 22.605469 89.25 24.179688 86.824219 24.179688 C 84.398438 24.179688 82.996094 22.613281 82.996094 19.980469 L 82.996094 11.359375 L 76.929688 12.5625 L 76.929688 20.246094 C 76.929688 25.742188 80.570312 29.195312 86.824219 29.195312 C 93.125 29.195312 96.726562 25.742188 96.726562 20.246094 Z M 96.726562 20.246094 " />
  </g>
</svg>