<svg height="120" viewBox="0 0 284 120" width="284" xmlns="http://www.w3.org/2000/svg">
  <g fill="#000">
    <path
      d="m99.7 59.8 7.1-2.8c1.3 2.6 3.6 3.9 6.7 3.9 3 0 4.6-1.5 4.6-3.2 0-2.1-3.1-2.6-6.8-3.3-4.9-1-10.3-2.5-10.3-8.7 0-4.9 4.7-9.1 11.9-9.1 6.1 0 9.8 2.3 12.5 6.2l-6.8 2.7c-1.2-1.9-3-3.1-5.7-3.1-2.9 0-4.3 1.2-4.3 2.8 0 1.8 2.4 2.3 6.6 3.2 4.8 1 10.5 2.6 10.5 8.9 0 4.5-4 9.6-12.5 9.6-6.8.1-11.2-2.5-13.5-7.1z" />
    <path
      d="m129.9 51.9c0-8.5 6.6-15.1 15.2-15.1 6.7 0 11.9 3.7 14.1 9.2l-6.8 2.7c-1.2-3.1-3.9-5-7.2-5-4.5 0-7.9 3.7-7.9 8.2 0 4.4 3.5 8.1 8 8.1 3.4 0 6-2.1 7.2-5.1l6.9 2.8c-2.5 5.4-7.3 9.2-14.2 9.2-8.8.1-15.3-6.6-15.3-15z" />
    <path
      d="m164.3 37.4h7.3v4.5c1.4-3.4 4.3-5 8-5 1.9 0 3.7.5 4.9 1.1l-2.7 7.3c-.8-.6-2.2-1-3.9-1-3.8 0-6.3 1.9-6.3 6.8v15.3h-7.4v-29z" />
    <path
      d="m185.6 52c0-8.4 6.6-15.2 15.2-15.2 8.7 0 15 6.3 15 14.9v2.8h-23c1 3.8 4 6.1 8.3 6.1 3.4 0 5.7-1.5 7.2-3.9l6.1 3.5c-2.9 4.1-7 6.7-13.4 6.7-9.4.1-15.4-6.5-15.4-14.9zm7.4-3.3h15.5c-1-3.6-3.8-5.6-7.6-5.6s-6.7 2.2-7.9 5.6z" />
    <path
      d="m220.5 52c0-8.4 6.6-15.2 15.2-15.2 8.7 0 15 6.3 15 14.9v2.8h-23c1 3.8 4 6.1 8.3 6.1 3.4 0 5.7-1.5 7.2-3.9l6.1 3.5c-2.9 4.1-7 6.7-13.4 6.7-9.4.1-15.4-6.5-15.4-14.9zm7.4-3.3h15.5c-1-3.6-3.8-5.6-7.6-5.6s-6.7 2.2-7.9 5.6z" />
    <path
      d="m256.7 37.4h7.4v3.7c1.9-2.6 4.9-4.2 8.5-4.2 6.9 0 11.2 4.5 11.2 12.1v17.5h-7.6v-16.5c0-4.1-2-6.7-5.9-6.7-3.5 0-6.2 2.6-6.2 7.1v16h-7.5v-29z" />
    <path d="m102.8 78h7.6v29h-7.6z" />
    <path
      d="m118.8 78h7.4v3.4c1.8-2.5 4.6-4 8.1-4 4.4 0 7.3 1.8 8.9 4.9 1.8-3 5.1-4.9 9.1-4.9 7.4 0 11.1 4.5 11.1 11.8v17.8h-7.6v-16.8c0-3.9-1.6-6.3-5.4-6.3-3.3 0-5.5 2.3-5.5 6.8v16.3h-7.6v-17c0-3.9-1.6-6.1-5.2-6.1-3.5 0-5.7 2.3-5.7 7v16.1h-7.5v-29z" />
    <path
      d="m168.7 98.9c0-6 5-9.7 13.1-9.7h7.6v-.4c0-3.1-2.1-5.3-6.3-5.3-3.3 0-5.5 1.4-6.8 3.8l-6.8-3.4c3-3.9 7.2-6.6 13.7-6.6 8.5 0 13.4 4.5 13.4 11.8v17.9h-7.1v-4.5c-2.1 3-6.1 5.1-10.6 5.1-6.4 0-10.2-3.6-10.2-8.7zm20.8-2.7v-1.6h-6.8c-4.4 0-6.2 1.4-6.2 3.7 0 2.1 1.4 3.2 4.5 3.2 3.5 0 7-2.2 8.5-5.3z" />
    <path
      d="m202.3 92.4c0-9.2 6.7-15 14.1-15 3.9 0 7.1 1.7 9 4.4v-3.8h7.4v26.9c0 8.4-6.3 14.6-15.2 14.6-6.6 0-11-1.9-14.2-5.7l6.1-4.8c1.9 2.5 4.1 3.9 7.9 3.9 4.7 0 8-3.2 8-7.7v-2.2c-2 2.8-5.4 4.6-9.1 4.6-7.2-.2-14-6-14-15.2zm23.5 0c0-4.6-3.5-8.2-8.1-8.2-4.5 0-8.1 3.5-8.1 8.2 0 4.6 3.6 8.2 8.1 8.2 4.6-.1 8.1-3.7 8.1-8.2z" />
    <path
      d="m237.7 92.5c0-8.4 6.6-15.2 15.2-15.2 8.7 0 15 6.3 15 14.9v2.8h-23c1 3.8 4 6.1 8.3 6.1 3.4 0 5.7-1.5 7.2-3.9l6.1 3.5c-2.9 4.1-7 6.7-13.4 6.7-9.3.2-15.4-6.4-15.4-14.9zm7.4-3.2h15.5c-1-3.6-3.8-5.6-7.6-5.6s-6.7 2.2-7.9 5.6z" />
    <path
      d="m75.5 38.5-38.2-38.2-5.4 5.4 31.6 31.7h-63.1v7.6h63.1l-31.6 31.7 5.4 5.4 38.2-38.2c1.4-1.5 1.4-3.9 0-5.4z" />
  </g>
</svg>