<?xml version="1.0" encoding="UTF-8"?>
<svg xmlns="http://www.w3.org/2000/svg" xmlns:xlink="http://www.w3.org/1999/xlink" id="Ebene_1"
  x="0px" y="0px" viewBox="0 0 715.9 330.1" style="enable-background:new 0 0 715.9 330.1;"
  xml:space="preserve"> <style type="text/css"> .st0{fill:#000;} .st1{fill:#000;} .st2{fill:#000;} .st3{fill:#000;} .st4{fill:#000;} .st5{fill:#000;} </style> <polygon class="st0" points="656.9,92.8 656.9,246 715.3,246 715.3,103.7 "></polygon> <polygon class="st1" points="445,53.3 445,246 502.8,246 502.8,64.1 "></polygon> <polygon class="st2" points="373.8,40.1 373.8,246 432.2,246 432.2,51 "></polygon> <polygon class="st3" points="515.6,66.5 515.6,246 573.5,246 573.5,77.3 "></polygon> <polygon class="st4" points="586.2,79.6 586.2,246 644.1,246 644.1,90.4 "></polygon> <path class="st5" d="M700.2,312.3v4.4c-1.7,1.1-3.3,1.9-4.7,2.4c-1.4,0.5-2.8,0.7-4.2,0.7c-3.2,0-5.6-1.1-7.3-3.2 c-1.8-2.2-2.6-5.9-2.6-11c0-4.8,0.9-8.3,2.6-10.5c1.7-2.2,4-3.3,6.9-3.3c2,0,3.6,0.5,4.9,1.5c1.3,0.9,2.2,2.3,2.7,4.1l12.8-2.5 c-0.8-3.1-1.9-5.6-3.5-7.6c-1.5-2-3.5-3.5-5.8-4.4c-2.4-1-5.9-1.5-10.7-1.5c-5,0-8.9,0.8-11.8,2.3c-3.7,2-6.6,4.9-8.5,8.7 c-1.9,3.8-2.9,8.3-2.9,13.4c0,4.9,0.9,9.2,2.6,13c1.8,3.8,4.3,6.6,7.5,8.5c3.2,1.9,7.4,2.9,12.5,2.9c4.2,0,7.8-0.5,10.8-1.6 c3-1,6.5-3.1,10.4-5.9v-20.1h-20.6v9.8H700.2z M647.5,311.3h-9.4l4.7-16.9L647.5,311.3z M652.5,329.3h14l-16.2-47.1h-14.5 l-16.2,47.1h13.6l2.1-7.8h15.1L652.5,329.3z M578.6,295.2h-4.4v9.5h4.4v12.1c0,3.8,0.4,6.6,1.1,8.2c0.7,1.7,1.7,3,3.1,3.8 c1.4,0.8,3.6,1.3,6.6,1.3c2.5,0,5.3-0.4,8.2-1.1l-0.9-9c-1.6,0.6-2.8,0.9-3.7,0.9c-1,0-1.7-0.4-2.1-1.1c-0.3-0.5-0.3-1.5-0.3-2.9 v-12.1h6.5v-9.5h-6.5v-13l-12,6.7V295.2z M556.6,329.3h12v-47.1h-12V329.3z M537.3,313.1v2.1c0,1.6-0.2,2.9-0.7,3.9 c-0.5,1-1.3,1.9-2.4,2.6c-1.2,0.7-2.4,1.1-3.8,1.1c-1.3,0-2.2-0.3-2.9-1c-0.6-0.6-0.9-1.5-0.9-2.5c0-0.9,0.3-1.7,0.9-2.4 c0.7-0.7,2.2-1.4,4.7-2.1C533.9,314.3,535.6,313.8,537.3,313.1 M536.4,303.2c0.6,0.6,0.9,1.8,0.9,3.4c-1.5,0.7-2.9,1.2-4.2,1.5 c-1.3,0.4-4.2,1.1-8.7,2.1c-3.8,0.8-6.3,2-7.7,3.7c-1.3,1.7-2.1,3.8-2.1,6.4c0,2.8,1,5.1,2.9,7c1.9,1.9,4.8,2.8,8.5,2.8 c2.8,0,5.2-0.5,7.3-1.4c1.6-0.7,3.1-1.9,4.7-3.5c0.1,1,0.3,1.7,0.4,2.2c0.2,0.5,0.4,1.2,0.9,2h11.2c-0.6-1.4-1-2.6-1.2-3.5 c-0.2-0.9-0.3-2.1-0.3-3.7V307c0-1.6-0.3-3.3-0.9-5.1c-0.6-1.8-1.4-3.1-2.4-4.1c-1.5-1.4-3.3-2.3-5.4-2.8c-2.2-0.4-5.1-0.6-8.6-0.6 c-2.3,0-4.3,0.2-6.2,0.6c-1.9,0.4-3.4,0.9-4.5,1.5c-1.5,1-2.7,2-3.5,3.3c-0.8,1.2-1.5,3-1.9,5.1l11.5,1.3c0.4-1.5,1.1-2.5,1.8-3 c1-0.6,2.4-1,4.4-1C534.7,302.2,535.8,302.6,536.4,303.2 M487.8,329.3v-16.4c0-3.1,0.4-5.3,1.4-6.5c0.9-1.2,2.1-1.8,3.5-1.8 c1.3,0,2.3,0.4,3.1,1.3c0.7,0.9,1.1,2.4,1.1,4.5v18.8h12.1v-21.7c0-4.5-1-7.8-2.8-10c-1.9-2.1-4.4-3.2-7.7-3.2 c-2.2,0-4.1,0.4-5.7,1.2c-1.6,0.8-3.3,2.1-4.9,4v-17.4h-11.9v47.1H487.8z M461.2,329.3v-11.4c0-5.5,0.6-9.2,1.9-11.2 c0.8-1.4,2.1-2.1,3.6-2.1c0.8,0,1.9,0.3,3.3,1l3.8-9.3c-2.1-1.2-4.1-1.8-5.8-1.8c-1.7,0-3.1,0.4-4.3,1.3c-1.1,0.9-2.2,2.6-3.3,5.1 v-5.6h-11.2v34.1H461.2z M419.7,309.2c0.2-2,0.6-3.6,1.3-4.6c1.2-1.7,2.7-2.5,4.6-2.5c1.6,0,3,0.6,4,1.6c1,1.1,1.6,2.9,1.8,5.5 H419.7z M421.1,320.2c-0.8-1-1.4-2.6-1.6-4.7h24V314c0-4.5-0.7-8.1-2-10.9c-1.4-2.8-3.3-5-5.9-6.4c-2.6-1.5-6.1-2.2-10.5-2.2 c-5.6,0-9.8,1.6-13,5c-3.2,3.3-4.7,7.6-4.7,12.9c0,3.8,0.8,7,2.4,9.7c1.6,2.8,3.5,4.8,5.9,6.1c2.3,1.3,5.6,1.9,9.7,1.9 c4.8,0,8.4-0.8,11-2.3c2.6-1.5,4.7-3.9,6.5-7.3l-11.8-1.2c-0.7,1-1.4,1.8-2.1,2.2c-1.1,0.6-2.2,1-3.4,1 C423.8,322.4,422.3,321.7,421.1,320.2 M396.6,316.9v-12.1h6.5v-9.5h-6.5v-13l-12,6.7v6.3h-4.4v9.5h4.4v12.1c0,3.8,0.4,6.6,1.1,8.2 c0.7,1.7,1.7,3,3.1,3.8c1.4,0.8,3.6,1.3,6.6,1.3c2.6,0,5.3-0.4,8.3-1.1l-0.9-9c-1.6,0.6-2.8,0.9-3.7,0.9c-1,0-1.7-0.4-2.1-1.1 C396.8,319.3,396.6,318.3,396.6,316.9 M353.2,295.2H342v34.1H354v-16.4c0-3.1,0.4-5.3,1.4-6.5c0.9-1.2,2.1-1.8,3.5-1.8 c1.3,0,2.3,0.4,3.1,1.3c0.7,0.9,1.1,2.4,1.1,4.5v18.8h12v-21.7c0-4.5-1-7.8-2.8-10c-1.9-2.1-4.4-3.2-7.7-3.2c-2.5,0-4.6,0.5-6.3,1.4 c-1.7,1-3.4,2.6-5.1,4.9V295.2z M281.2,169.9c0,13.1-2.5,22.6-7.5,28.4c-5,5.9-11.2,8.7-18.5,8.7c-7.1,0-12.8-2.9-17.6-8.7 c-4.6-5.7-7.1-14.8-7.1-27.2c0-13.3,2.3-22.7,6.9-28.4c4.6-5.5,10.3-8.3,17.1-8.3c7.6,0,14.1,2.8,19.1,8.7 C278.7,148.9,281.2,158,281.2,169.9 M280.8,51.1v58.1c-5.7-6-12.3-10.6-19.8-13.7c-7.3-3-15.7-4.6-24.7-4.6c-18.7,0-34,6.8-46,20.1 C178,124.2,172,143.5,172,168.7c0,22.6,5.5,41.6,16.6,57.4c10.8,15.8,26.7,23.5,47.5,23.5c10.3,0,19.6-2.1,28-6.4 c6.4-3.4,13.4-9.8,21-19.4v22.4h54.7V39.7L280.8,51.1z M318.6,328.7c1.7-1,3.4-2.6,5-4.9v5.5h11.2v-34.1h-12v16.4 c0,3.1-0.4,5.3-1.4,6.5c-0.9,1.2-2,1.8-3.5,1.8c-1.3,0-2.3-0.4-3.1-1.4c-0.7-0.9-1.1-2.4-1.1-4.6v-18.8h-12V317c0,4.5,1,7.7,2.8,9.9 c1.8,2.1,4.4,3.2,7.7,3.2C314.8,330.1,316.9,329.6,318.6,328.7 M272.4,309.2c0.2-2,0.6-3.6,1.3-4.6c1.2-1.7,2.7-2.5,4.6-2.5 c1.6,0,3,0.6,4,1.6c1,1.1,1.6,2.9,1.8,5.5H272.4z M264.9,299.4c-3.2,3.3-4.7,7.6-4.7,12.9c0,3.8,0.8,7,2.4,9.7 c1.6,2.8,3.5,4.8,5.9,6.1c2.4,1.3,5.6,1.9,9.7,1.9c4.8,0,8.4-0.8,11-2.3c2.6-1.5,4.7-3.9,6.5-7.3l-11.8-1.2c-0.7,1-1.4,1.8-2.1,2.2 c-1.1,0.6-2.2,1-3.4,1c-1.8,0-3.4-0.7-4.5-2.2c-0.8-1-1.3-2.6-1.5-4.7h24V314c0-4.5-0.7-8.1-2-10.9c-1.4-2.8-3.3-5-5.9-6.4 c-2.6-1.5-6.1-2.2-10.6-2.2C272.4,294.4,268,296.1,264.9,299.4 M242.4,312.2c0,3-0.5,5.1-1.5,6.4c-1,1.3-2.3,2-3.8,2 c-1.5,0-2.6-0.6-3.6-2c-0.9-1.3-1.5-3.3-1.5-6.1c0-3,0.5-5.1,1.4-6.4c1-1.2,2.1-1.9,3.5-1.9c1.6,0,2.9,0.7,3.9,2 C241.9,307.5,242.4,309.5,242.4,312.2 M243.2,324.3v5.1h11.2v-47.1h-12.1v16.3c-1.2-1.4-2.5-2.4-4.1-3.1c-1.5-0.7-3.2-1-5.1-1 c-3.9,0-7,1.5-9.4,4.5c-2.5,3-3.8,7.3-3.8,13c0,5.1,1.1,9.3,3.4,12.9c2.2,3.6,5.5,5.3,9.7,5.3c2.1,0,4-0.5,5.8-1.5 C240.2,327.9,241.6,326.4,243.2,324.3 M203.1,329.3h11.1v-34.1h-11.9v16.4c0,3.1-0.5,5.3-1.4,6.5c-0.9,1.2-2.1,1.8-3.6,1.8 c-1.3,0-2.3-0.4-3.1-1.4c-0.7-0.9-1.1-2.4-1.1-4.6v-18.8h-12V317c0,4.5,0.9,7.7,2.8,9.9c1.8,2.1,4.5,3.2,7.7,3.2 c2.4,0,4.5-0.5,6.3-1.4c1.7-1,3.4-2.6,5.1-4.9V329.3z M151.7,319.3c0-0.9,0.3-1.7,1-2.4c0.7-0.7,2.2-1.4,4.7-2.1 c1.8-0.5,3.5-1.1,5.1-1.7v2.1c0,1.6-0.2,2.9-0.7,3.9c-0.5,1-1.3,1.9-2.4,2.6c-1.1,0.7-2.4,1.1-3.7,1.1c-1.3,0-2.2-0.3-2.9-1 C152.1,321.2,151.7,320.3,151.7,319.3 M141.8,313.9c-1.4,1.7-2.1,3.8-2.1,6.4c0,2.8,1,5.1,2.9,7c1.9,1.9,4.7,2.8,8.5,2.8 c2.8,0,5.3-0.5,7.4-1.4c1.6-0.7,3.1-1.9,4.7-3.5c0.1,1,0.3,1.7,0.4,2.2c0.1,0.5,0.4,1.2,0.9,2h11.3c-0.6-1.4-1-2.6-1.2-3.5 c-0.2-0.9-0.3-2.1-0.3-3.7V307c0-1.6-0.3-3.3-0.9-5.1c-0.6-1.8-1.4-3.1-2.4-4.1c-1.5-1.4-3.3-2.3-5.5-2.8c-2.2-0.4-5.1-0.6-8.6-0.6 c-2.2,0-4.3,0.2-6.3,0.6c-1.9,0.4-3.4,0.9-4.5,1.5c-1.5,1-2.7,2-3.5,3.3c-0.8,1.2-1.5,3-1.9,5.1l11.4,1.3c0.5-1.5,1.1-2.5,1.9-3 c1-0.6,2.5-1,4.5-1c1.5,0,2.6,0.3,3.1,0.9c0.6,0.6,0.9,1.8,0.9,3.4c-1.5,0.7-2.9,1.2-4.2,1.5c-1.3,0.4-4.2,1.1-8.7,2.1 C145.8,311,143.2,312.2,141.8,313.9 M160,290.9h7.7v-8H160V290.9z M147.5,290.9h7.7v-8h-7.7V290.9z M113.1,312.2 c0-2.6,0.5-4.7,1.5-6c1-1.3,2.4-2,4-2c1.4,0,2.5,0.7,3.5,1.9c0.9,1.3,1.4,3.3,1.4,5.9c0,3.1-0.5,5.3-1.5,6.6c-1,1.3-2.2,2-3.6,2 c-1.6,0-2.8-0.7-3.9-2C113.6,317.2,113.1,315.1,113.1,312.2 M113.2,282.2h-12.1v47.1h11.2v-5.1c1.5,2.1,2.9,3.6,4.3,4.4 c1.7,1,3.7,1.5,5.8,1.5c2.5,0,4.7-0.7,6.7-2.1c2-1.4,3.5-3.5,4.7-6.4c1.1-2.9,1.7-6.1,1.7-9.8c0-5.6-1.2-9.9-3.8-12.9 c-2.5-3-5.6-4.5-9.4-4.5c-1.9,0-3.5,0.4-5,1c-1.6,0.7-2.9,1.7-4.1,3.1V282.2z M72.2,309.2c0.2-2,0.6-3.6,1.4-4.6 c1.2-1.7,2.7-2.5,4.6-2.5c1.6,0,3,0.6,4,1.6c1,1.1,1.6,2.9,1.8,5.5H72.2z M64.7,299.4c-3.2,3.3-4.7,7.6-4.7,12.9 c0,3.8,0.8,7,2.4,9.7c1.6,2.8,3.5,4.8,5.9,6.1c2.4,1.3,5.7,1.9,9.8,1.9c4.8,0,8.4-0.8,11-2.3c2.6-1.5,4.7-3.9,6.5-7.3l-11.8-1.2 c-0.7,1-1.4,1.8-2.1,2.2c-1.1,0.6-2.2,1-3.4,1c-1.8,0-3.4-0.7-4.5-2.2c-0.8-1-1.4-2.6-1.6-4.7h24V314c0-4.5-0.7-8.1-2-10.9 c-1.4-2.8-3.3-5-6-6.4c-2.6-1.5-6.1-2.2-10.5-2.2C72.1,294.4,67.8,296.1,64.7,299.4 M13.4,292.4c-2,3.8-2.9,8.3-2.9,13.4 c0,4.9,0.9,9.2,2.7,13c1.8,3.8,4.3,6.6,7.5,8.5c3.2,1.9,7.4,2.9,12.5,2.9c4.1,0,7.7-0.5,10.8-1.6c3-1,6.4-3.1,10.4-5.9v-20.1H33.8 v9.8h8.9v4.4c-1.8,1.1-3.3,1.9-4.7,2.4c-1.3,0.5-2.7,0.7-4.2,0.7c-3.2,0-5.6-1.1-7.3-3.2c-1.8-2.2-2.7-5.9-2.7-11 c0-4.8,0.9-8.3,2.6-10.5c1.8-2.2,4.1-3.3,7-3.3c1.9,0,3.5,0.5,4.8,1.5c1.3,0.9,2.2,2.3,2.7,4.1l12.9-2.5c-0.8-3.1-2-5.6-3.5-7.6 c-1.5-2-3.5-3.5-5.8-4.4c-2.4-1-5.9-1.5-10.7-1.5c-4.9,0-8.9,0.8-11.8,2.3C18.2,285.7,15.3,288.6,13.4,292.4 M58.3,198.5L0.4,204 c3.2,14.6,10.9,25.9,22.8,33.8c11.8,7.8,31.6,11.7,59.3,11.7c19.6,0,35.3-2.5,46.7-7.1c11.4-5,19.8-11.6,25.1-19.9 c5.4-8.3,8-16.7,8-25.6c0-8.7-2.5-16.7-7.5-23.8c-5.2-7.3-12.5-12.8-21.9-16.7c-9.4-4.1-23.9-7.1-43.3-9.2 c-12.8-1.4-21-3.2-24.9-5.2c-3.9-2-5.7-4.7-5.7-8.3c0-3.4,1.6-6.2,4.6-8.5c3-2.3,7.6-3.5,14.3-3.5c6.4,0,12.1,1.6,16.7,4.6 c3.2,2.3,5.7,5.9,7.1,10.6l55.4-5.3c-3.9-9.9-8.7-17.8-14.4-23.6c-5.9-5.9-13-10.1-21.7-13c-8.7-2.6-22.1-4.1-40.2-4.1 c-17.1,0-31.1,1.8-41.2,5.3c-10.1,3.6-18.2,9.1-24,16.4c-5.9,7.1-8.7,15.8-8.7,25.7c0,9.2,2.7,17.4,8.2,24.4 c5.2,7.3,11.9,12.4,20,15.3c7.8,3,21.9,6.4,42.1,9.8c13.7,2.5,21.9,4.5,25.1,6c4.5,2.3,6.6,5.5,6.6,9.8c0,3.7-1.6,6.7-5,9.2 c-4.3,3.4-10.3,5-18.2,5c-7.1,0-13-1.4-17.3-4.4C64,210.3,60.8,205.5,58.3,198.5 M715.9,68.1L354.1,0.7h0L6.1,68.1l0.1,19.4 l348-67.3l361.2,67.5L715.9,68.1z"></path> </svg> 