<?xml version="1.0" encoding="UTF-8" standalone="no"?>
<!-- Generator: Adobe Illustrator 22.1.0, SVG Export Plug-In . SVG Version: 6.00 Build 0)  -->

<svg
  xmlns:dc="http://purl.org/dc/elements/1.1/"
  xmlns:cc="http://creativecommons.org/ns#"
  xmlns:rdf="http://www.w3.org/1999/02/22-rdf-syntax-ns#"
  xmlns:svg="http://www.w3.org/2000/svg"
  xmlns="http://www.w3.org/2000/svg"
  xmlns:sodipodi="http://sodipodi.sourceforge.net/DTD/sodipodi-0.dtd"
  xmlns:inkscape="http://www.inkscape.org/namespaces/inkscape"
  version="1.1"
  id="Ebene_1"
  x="0px"
  y="0px"
  viewBox="0 0 999.99997 471.00001"
  xml:space="preserve"
  sodipodi:docname="SHV Logo.svg"
  width="1000"
  height="471"
  inkscape:version="0.92.2 (5c3e80d, 2017-08-06)"><metadata
     id="metadata98"><rdf:RDF><cc:Work
         rdf:about=""><dc:format>image/svg+xml</dc:format><dc:type
           rdf:resource="http://purl.org/dc/dcmitype/StillImage" /><dc:title></dc:title></cc:Work></rdf:RDF></metadata><defs
     id="defs96" /><sodipodi:namedview
     pagecolor="#ffffff"
     bordercolor="#666666"
     borderopacity="1"
     objecttolerance="10"
     gridtolerance="10"
     guidetolerance="10"
     inkscape:pageopacity="0"
     inkscape:pageshadow="2"
     inkscape:window-width="3840"
     inkscape:window-height="2093"
     id="namedview94"
     showgrid="false"
     inkscape:zoom="2.2425964"
     inkscape:cx="349.06704"
     inkscape:cy="189.94922"
     inkscape:window-x="-9"
     inkscape:window-y="-9"
     inkscape:window-maximized="1"
     inkscape:current-layer="Ebene_1" /><style
     type="text/css"
     id="style2">
	.st0{fill:#FFFFFF;}
	.st1{fill:url(#SVGID_1_);}
	.st2{fill:url(#SVGID_2_);}
	.st3{fill:url(#SVGID_3_);}
</style><linearGradient
     id="SVGID_1_"
     gradientUnits="userSpaceOnUse"
     x1="-2775.4941"
     y1="1764.4137"
     x2="-2756.083"
     y2="1665.7422"
     gradientTransform="matrix(0.0308,-0.5374,0.7986,0.0458,-937.6734,-1207.8444)"><stop
       offset="0"
       style="stop-color:#000000"
       id="stop6" /><stop
       offset="0.4049"
       style="stop-color:#000000"
       id="stop8" /><stop
       offset="0.6135"
       style="stop-color:#000000;stop-opacity:0.6503"
       id="stop10" /><stop
       offset="0.9816"
       style="stop-color:#000000;stop-opacity:0"
       id="stop12" /></linearGradient><linearGradient
     id="SVGID_2_"
     gradientUnits="userSpaceOnUse"
     x1="-3104.8879"
     y1="2616.166"
     x2="-3077.4746"
     y2="2476.8191"
     gradientTransform="matrix(-0.0087,-0.5383,0.5786,-0.0093,-1173.4642,-1301.6399)"><stop
       offset="0"
       style="stop-color:#000000"
       id="stop17" /><stop
       offset="0.2945"
       style="stop-color:#000000"
       id="stop19" /><stop
       offset="0.5153"
       style="stop-color:#000000;stop-opacity:0.6503"
       id="stop21" /><stop
       offset="0.9448"
       style="stop-color:#000000;stop-opacity:0"
       id="stop23" /></linearGradient><linearGradient
     id="SVGID_3_"
     gradientUnits="userSpaceOnUse"
     x1="-3595.2566"
     y1="3496.0493"
     x2="-3554.6633"
     y2="3289.7068"
     gradientTransform="matrix(-0.0688,-0.5339,0.4331,-0.0558,-1378.1086,-1401.0695)"><stop
       offset="0"
       style="stop-color:#000000"
       id="stop28" /><stop
       offset="0.3313"
       style="stop-color:#000000"
       id="stop30" /><stop
       offset="0.5276"
       style="stop-color:#000000;stop-opacity:0.6503"
       id="stop32" /><stop
       offset="0.8712"
       style="stop-color:#000000;stop-opacity:0"
       id="stop34" /></linearGradient><g
     id="g1001"
     transform="matrix(1.2350023,0,0,1.2350023,-59.088873,-105.57853)"><polygon
       transform="matrix(3.6523009,0,0,3.6523009,-986.48647,-920.44191)"
       id="polygon15"
       points="383.4,350.7 383.4,371.5 308,363 307.6,350 "
       class="st1"
       style="fill:url(#SVGID_1_)" /><polygon
       transform="matrix(3.6523009,0,0,3.6523009,-986.48647,-920.44191)"
       id="polygon26"
       points="366.7,328.1 366.6,348.6 283.2,348.6 285.4,337 "
       class="st2"
       style="fill:url(#SVGID_2_)" /><polygon
       transform="matrix(3.6523009,0,0,3.6523009,-986.48647,-920.44191)"
       id="polygon37"
       points="383.4,301.1 383.4,324.3 290.6,335.4 302.8,319.9 "
       class="st3"
       style="fill:url(#SVGID_3_)" /><path
       style="stroke-width:3.65230083"
       id="path39"
       d="m 652.66617,244.64208 28.48795,-3.28707 24.47042,111.02994 -28.12272,0.36523 -2.19138,-16.80058 -25.93134,0.36523 -4.74799,16.43535 -24.10518,-0.36523 z m 18.26151,68.66325 -6.20891,-36.523 -9.86122,37.61869 z"
       inkscape:connector-curvature="0" /><path
       style="stroke-width:3.65230083"
       id="path41"
       d="m 558.80204,254.86852 39.81008,-4.38276 c 22.27904,-2.55661 24.47042,12.41782 25.20088,19.35719 0.73046,9.86122 -5.47845,23.37473 -14.60921,23.37473 7.66984,0 16.80059,12.78305 14.24398,29.58364 -3.28707,23.00949 -13.87875,30.31409 -36.15778,30.31409 h -29.94887 z m 20.81812,34.69686 12.41782,-1.09569 c 6.93937,-1.09569 9.49598,-3.6523 9.49598,-9.49598 0,-5.11323 -3.6523,-7.30461 -10.9569,-6.57415 l -10.9569,1.09569 z m -0.73046,39.44485 12.05259,-0.73046 c 5.47845,0 10.59167,-2.55661 10.9569,-11.32214 0,-5.47845 -2.92184,-9.86121 -9.13075,-9.86121 l -13.51351,0.73046 z"
       inkscape:connector-curvature="0" /><path
       style="stroke-width:3.65230083"
       id="path43"
       d="m 712.92914,238.06794 29.21841,-3.28708 -2.55661,88.75092 35.06208,-1.09569 -0.36523,30.31409 -64.64572,-0.36523 z"
       inkscape:connector-curvature="0" /><path
       style="stroke-width:3.65230083"
       id="path45"
       d="m 784.51424,230.76333 33.60116,-4.01753 -4.01753,94.22937 43.46238,-1.82615 -1.82615,33.60116 h -75.23739 z"
       inkscape:connector-curvature="0" /><path
       style="stroke-width:3.65230083"
       id="path47"
       d="m 589.8466,137.99489 -27.39226,108.83857 20.45289,-2.19138 4.38276,-16.07013 25.5661,-3.6523 2.92184,16.07013 26.6618,-2.92184 -24.83564,-106.64719 z m 3.28707,64.64573 8.40029,-37.98393 6.57414,35.42732 z"
       inkscape:connector-curvature="0" /><polygon
       transform="matrix(3.6523009,0,0,3.6523009,-986.48647,-920.44191)"
       id="polygon49"
       points="455.1,298.8 462,315.1 470.3,314 471.2,280.4 463.3,282.2 462.9,299.5 455.6,284.1 447.9,286 447.1,316.7 454.7,315.9 " /><path
       style="stroke-width:3.65230083"
       id="path51"
       d="m 808.98465,86.132218 c -5.47845,1.09569 -64.28049,14.974432 -64.28049,14.974432 l -3.6523,124.54346 50.40175,-6.20891 c 41.63623,-5.84368 66.8371,-41.271 60.26296,-88.02045 -1.82615,-13.51351 -5.84368,-29.58364 -16.80058,-39.07962 -5.47845,-4.382762 -15.33966,-8.035062 -25.93134,-6.208912 z m 6.57414,62.454342 c 0.36523,21.18335 -6.57414,35.42732 -27.02702,39.07962 l -13.14829,1.46092 1.09569,-63.91526 14.97444,-2.92184 c 19.35719,-4.01753 24.10518,15.70489 24.10518,26.29656 z"
       inkscape:connector-curvature="0" /><path
       style="stroke-width:3.65230083"
       id="path53"
       d="m 492.69539,160.63916 21.91381,-5.11322 v 33.23593 l 21.18335,-4.01753 v -34.69686 l 24.10518,-5.47845 -1.46092,101.8992 -22.64426,2.92184 v -39.81008 l -21.18335,3.6523 v 38.71439 l -21.91381,2.92184 z"
       inkscape:connector-curvature="0" /><path
       style="stroke-width:3.65230083"
       id="path55"
       d="m 501.09569,387.08181 c 0,1.82615 0,2.55661 0.36523,3.28707 0.73046,2.55661 2.55661,2.55661 4.38276,2.55661 1.46092,0 4.01753,-0.36523 4.01753,-3.6523 0,-2.19138 -1.46092,-2.55661 -6.57414,-4.74799 -4.74799,-1.82615 -10.22645,-3.6523 -10.22645,-12.05259 0,-9.49598 5.84369,-12.78305 12.0526,-12.78305 6.57414,0 12.41782,2.92184 12.78305,13.14828 l -8.76552,-0.36523 c 0,-2.19138 -0.36523,-2.92184 -1.09569,-3.6523 -0.73046,-0.73046 -1.82615,-1.09569 -2.92184,-1.09569 -1.09569,0 -3.28707,0.36523 -3.28707,2.92184 0,2.92184 4.38276,3.6523 8.76552,5.11322 4.38276,1.46092 8.76552,4.38276 8.76552,11.68736 0,10.59167 -7.3046,13.87875 -14.24397,13.87875 -3.28707,0 -13.14829,-2.19138 -13.51352,-15.7049 z"
       inkscape:connector-curvature="0" /><path
       style="stroke-width:3.65230083"
       id="path57"
       d="m 501.09569,431.27465 c 0,1.82615 0.36523,1.82615 0.36523,2.55661 0.73046,2.19138 2.55661,2.55661 4.38276,2.55661 1.46092,0 4.01753,-0.36523 4.01753,-3.28707 0,-2.19138 -1.46092,-2.55661 -6.57414,-4.38276 -4.74799,-1.82615 -10.22645,-3.6523 -10.22645,-11.32213 0,-9.13075 6.20892,-12.41782 12.41783,-12.05259 6.93937,0.36523 12.41782,1.82615 12.41782,12.78305 l -8.76552,-0.73046 c 0,-2.19138 -0.36523,-2.55661 -1.09569,-3.28707 -0.73046,-0.73046 -1.82615,-1.09569 -2.92184,-1.09569 -1.09569,0 -3.28707,0.36523 -3.28707,2.55661 0,2.92184 4.38276,3.28707 8.76552,5.11322 4.38276,1.46092 8.76552,4.01753 8.76552,11.32213 0,10.22645 -7.3046,13.51352 -14.24397,13.51352 -3.28707,0 -13.14829,-1.82615 -13.51352,-15.33967 z"
       inkscape:connector-curvature="0" /><path
       style="stroke-width:3.65230083"
       id="path59"
       d="m 543.09715,377.2206 c -0.36523,-2.19138 -1.46092,-6.20891 -5.84368,-6.20891 -4.748,0 -6.20892,5.47845 -6.20892,11.32213 0,5.84368 1.09569,11.68736 6.20892,11.68736 3.6523,0 5.11322,-2.92184 5.84368,-6.93937 l 10.22644,0.36523 c 0,8.76552 -5.47845,17.53105 -15.33966,17.53105 -10.95691,0 -17.16582,-9.86122 -17.16582,-22.64427 0,-13.51351 6.57414,-21.9138 17.16582,-21.9138 9.13075,0 14.6092,5.47845 15.33966,17.16581 z"
       inkscape:connector-curvature="0" /><path
       style="stroke-width:3.65230083"
       id="path61"
       d="m 555.8802,361.51571 h 11.68736 v 14.97443 h 10.22645 v -14.6092 h 12.41782 v 45.65376 l -12.41782,-0.73046 V 388.1775 h -10.22645 v 17.89628 l -11.68736,-0.73046 z"
       inkscape:connector-curvature="0" /><path
       style="stroke-width:3.65230083"
       id="path63"
       d="m 635.50036,409.72608 -12.78305,-0.73046 -3.6523,-29.58364 v 0 l -5.11323,29.21841 -12.78305,-0.73046 -9.13075,-46.01899 h 12.05259 l 4.38276,28.85317 v 0 l 5.47845,-28.48794 h 11.68737 l 4.38276,28.85317 v 0 l 6.20891,-28.85317 14.24397,0.36523 z"
       inkscape:connector-curvature="0" /><path
       style="stroke-width:3.65230083"
       id="path65"
       d="m 652.66617,362.24617 39.81008,0.36523 -0.36523,13.51351 -25.93133,-0.73046 v 5.47845 l 20.81811,0.73046 -0.36523,10.59167 -20.45288,-0.73046 -0.36523,6.57414 25.93133,1.0957 -0.36523,13.87874 -39.44485,-2.55661 z"
       inkscape:connector-curvature="0" /><path
       style="stroke-width:3.65230083"
       id="path67"
       d="m 697.22424,362.6114 16.80059,0.36523 -1.46092,51.13221 -16.43536,-0.73046 z"
       inkscape:connector-curvature="0" /><path
       style="stroke-width:3.65230083"
       id="path69"
       d="m 717.3119,402.42148 27.02703,-25.56611 -24.10519,-0.36523 v -13.14828 h 48.21037 l -0.36523,12.05259 -28.48794,27.39226 29.2184,1.09569 -0.36523,13.51351 -50.76698,-2.55661 z"
       inkscape:connector-curvature="0" /><path
       style="stroke-width:3.65230083"
       id="path71"
       d="m 551.86267,434.56172 c 0,11.32214 -4.38276,16.43536 -14.6092,15.33967 -8.76553,-0.73046 -14.97444,-5.84368 -14.60921,-15.33967 v -26.66179 l 9.86121,0.73046 v 23.00949 c 0,4.01753 -0.36523,7.3046 4.38277,8.03507 4.74799,0.73046 5.11322,-3.65231 5.11322,-8.03507 v -22.27903 l 9.86121,0.73046 z"
       inkscape:connector-curvature="0" /><path
       style="stroke-width:3.65230083"
       id="path73"
       d="m 555.51497,410.45654 12.05259,0.73046 v 41.63623 l -12.05259,-1.46092 z"
       inkscape:connector-curvature="0" /><path
       style="stroke-width:3.65230083"
       id="path75"
       d="m 582.542,440.77064 c 0,2.55661 0.73046,5.47845 5.47845,6.20891 2.92184,0.36523 5.84368,-0.36523 5.84368,-3.6523 0,-2.19138 -2.55661,-3.6523 -9.13075,-5.47846 -6.20891,-1.82615 -12.0526,-4.74799 -12.0526,-13.51351 0,-9.86121 6.57415,-12.78305 15.7049,-12.41782 9.86121,0.36523 16.07012,2.92184 16.07012,14.6092 l -11.32213,-0.73046 c 0.36523,-2.55661 -0.73046,-2.92184 -1.46092,-3.6523 -1.09569,-0.73046 -2.19138,-1.09569 -3.6523,-1.09569 -1.46092,0 -4.38276,0.36523 -4.38276,2.92184 0.36523,2.92184 5.84368,3.6523 11.32213,5.47845 5.47845,1.82615 10.9569,5.47845 10.9569,13.51352 0,11.32213 -9.13075,14.24397 -17.89627,13.51351 -4.38276,-0.36523 -17.16582,-1.46092 -17.16582,-16.80058 z"
       inkscape:connector-curvature="0" /><path
       style="stroke-width:3.65230083"
       id="path77"
       d="m 621.98685,444.42294 c 0,1.09569 0,2.19138 0.36523,2.92184 1.09569,2.55661 2.92184,2.92184 5.47845,2.92184 2.92184,0.36523 5.84368,-0.36523 5.84368,-3.28707 0,-2.19138 -3.6523,-3.28707 -10.9569,-6.20891 -7.30461,-2.92185 -12.0526,-5.84369 -12.41783,-11.68737 -0.73046,-9.86121 6.93938,-15.33966 17.53105,-14.6092 9.13075,0.36523 17.16581,5.11322 17.53104,15.70489 l -12.41782,-1.09569 c 0.36523,-1.46092 -0.73046,-2.55661 -1.82615,-3.28707 -1.09569,-0.73046 -2.55661,-1.09569 -4.01753,-1.09569 -1.82615,0 -4.74799,0.36523 -4.74799,2.92184 0.36523,2.92184 6.20891,3.6523 12.41782,5.47845 6.20891,1.82615 12.05259,4.38276 12.05259,12.41783 0,11.32213 -7.66983,16.80058 -19.72242,15.33966 -4.74799,-0.36523 -18.99197,-2.55661 -18.62674,-17.53104 z"
       inkscape:connector-curvature="0" /><path
       style="stroke-width:3.65230083"
       id="path79"
       d="m 651.57048,416.66545 38.71439,2.55661 -0.36523,11.68736 -25.20087,-1.82615 -0.36523,5.47845 20.45288,1.82615 -0.36523,10.22645 -20.45288,-1.82615 -0.36523,6.93937 25.5661,2.55661 -0.73046,12.41782 -38.71439,-4.74799 z"
       inkscape:connector-curvature="0" /><g
       transform="matrix(3.6523009,0,0,3.6523009,-986.48647,-920.44191)"
       id="g81" /><g
       transform="matrix(3.6523009,0,0,3.6523009,-986.48647,-920.44191)"
       id="g83" /><g
       transform="matrix(3.6523009,0,0,3.6523009,-986.48647,-920.44191)"
       id="g85" /><g
       transform="matrix(3.6523009,0,0,3.6523009,-986.48647,-920.44191)"
       id="g87" /><g
       transform="matrix(3.6523009,0,0,3.6523009,-986.48647,-920.44191)"
       id="g89" /><g
       transform="matrix(3.6523009,0,0,3.6523009,-986.48647,-920.44191)"
       id="g91" /></g></svg>