<?xml version="1.0" encoding="utf-8"?>
<!-- Generator: Adobe Illustrator 25.4.1, SVG Export Plug-In . SVG Version: 6.00 Build 0)  -->
<svg version="1.1" id="Ebene_1" xmlns="http://www.w3.org/2000/svg" xmlns:xlink="http://www.w3.org/1999/xlink" x="0px"
    y="0px" viewBox="0 0 297.6 66.4" style="enable-background:new 0 0 297.6 66.4;" xml:space="preserve">
    <style type="text/css">
        .st0 {
            fill: #f0f0f0;
        }

        .st1 {
            fill: #000;
        }
    </style>
    <polygon class="st0" points="297.6,25.8 280.1,25.8 297.6,8.3 " />
    <polygon class="st1" points="297.6,8.3 280.2,25.8 271.9,25.8 297.6,0 " />
    <g>
        <path class="st1" d="M23.1,17.7H6.2v5.5h16c2.5,0,4.1,0.4,5.1,1.2c0.9,0.8,1.4,2.4,1.4,4.8v3.5c0,2.4-0.5,4-1.4,4.8
		c-0.9,0.8-2.6,1.2-5,1.2H6.4c-2.5,0-4.1-0.4-5-1.2C0.5,36.8,0,35.2,0,32.8v-0.7L5.3,31v3h18.2v-5.9h-16c-2.5,0-4.1-0.4-5-1.2
		c-0.9-0.8-1.3-2.4-1.3-4.8v-2.8c0-2.4,0.4-4,1.3-4.8c0.9-0.8,2.6-1.2,5-1.2H22c2.4,0,4,0.4,4.9,1.2c0.9,0.8,1.4,2.3,1.4,4.4v0.5
		l-5.3,1.2L23.1,17.7L23.1,17.7z" />
        <path class="st1" d="M41.1,38.9V13.2h6v25.7H41.1z" />
        <path class="st1" d="M60.2,38.9V13.2H65l12.1,15.5l11.8-15.5h4.8v25.7h-5.5V23c0-0.6,0.1-1.5,0.2-2.7c-0.6,1.3-1.1,2.2-1.5,2.7
		l-9.6,12.8H76l-9.6-12.9c-0.7-0.9-1.2-1.8-1.5-2.6c0.1,1,0.1,1.9,0.1,2.7v15.9L60.2,38.9L60.2,38.9z" />
        <path class="st1" d="M101.3,38.9l14.5-25.7h5.8l14.7,25.7h-6.7l-3.1-5.6h-16.3l-3,5.6H101.3z M112.8,28.6h11.2l-5.5-10.5
		L112.8,28.6z" />
        <path class="st1" d="M144.6,38.9V13.2h6v10.7l14.2-10.7h8.7l-17,12.1l19.1,13.6H166l-15.4-11.3v11.3H144.6z" />
        <path class="st1" d="M183.6,19.3c0-2.4,0.4-4,1.3-4.8c0.9-0.8,2.6-1.2,5-1.2h18.9c2.5,0,4.1,0.4,5,1.2c0.9,0.8,1.3,2.4,1.3,4.8
		v13.5c0,2.4-0.4,4-1.3,4.8c-0.9,0.8-2.6,1.2-5,1.2H190c-2.5,0-4.1-0.4-5-1.2c-0.9-0.8-1.3-2.4-1.3-4.8L183.6,19.3L183.6,19.3z
		 M189.6,34h19.7V17.8h-19.7V34z" />
        <path class="st1" d="M227.8,38.9V13.2h4.8l12.1,15.5l11.8-15.5h4.8v25.7h-5.5V23c0-0.6,0.1-1.5,0.2-2.7c-0.6,1.3-1.1,2.2-1.5,2.7
		l-9.6,12.8h-1.2L234,22.9c-0.7-0.9-1.2-1.8-1.5-2.6c0.1,1,0.1,1.9,0.1,2.7v15.9L227.8,38.9L227.8,38.9z" />
    </g>
    <g>
        <path class="st1" d="M60.2,46.5h2.7l5.3,11.6h0l5.3-11.6h2.7v14.8h-1.8V48.9h0l-5.6,12.4h-1.1l-5.6-12.4h0v12.4h-1.8L60.2,46.5
		L60.2,46.5z" />
        <path class="st1" d="M80.4,52.8c1.1-1,2.6-1.5,4.1-1.5c3,0,4.3,1.4,4.3,4.1v4.2c0,0.6,0.1,1.2,0.2,1.7h-1.6c-0.1-0.4-0.1-1-0.1-1.5
		h0c-0.7,1-1.8,1.7-3.4,1.7c-2.1,0-3.8-1-3.8-2.9c0-3.2,4-3.4,6.5-3.4h0.7V55c0-1.4-0.9-2.2-2.5-2.2c-1.1,0-2.2,0.4-3.1,1.1
		L80.4,52.8z M85.4,56.6c-2.2,0-3.6,0.6-3.6,1.9c0,1.2,1,1.7,2.3,1.7c2,0,3-1.4,3-3v-0.6H85.4z" />
        <path class="st1" d="M92.7,53.9c0-0.9-0.1-1.7-0.1-2.3h1.6c0,0.5,0,1.1,0,1.6h0c0.5-1,1.7-1.9,3.4-1.9c2.7,0,3.9,1.6,3.9,4v6h-1.7
		v-5.9c0-1.6-0.7-2.7-2.4-2.7c-2.2,0-3.2,1.5-3.2,3.8v4.8h-1.7L92.7,53.9L92.7,53.9z" />
        <path class="st1"
            d="M105.5,52.8c1.1-1,2.6-1.5,4.1-1.5c3,0,4.3,1.4,4.3,4.1v4.2c0,0.6,0.1,1.2,0.2,1.7h-1.6
		c-0.1-0.4-0.1-1-0.1-1.5h0c-0.7,1-1.8,1.7-3.4,1.7c-2.1,0-3.8-1-3.8-2.9c0-3.2,4-3.4,6.5-3.4h0.7V55c0-1.4-0.9-2.2-2.5-2.2
		c-1.1,0-2.2,0.4-3.1,1.1L105.5,52.8z M110.4,56.6c-2.2,0-3.6,0.6-3.6,1.9c0,1.2,1,1.7,2.3,1.7c2,0,3-1.4,3-3v-0.6H110.4z" />
        <path class="st1" d="M128,60.9c0,3.5-2,5.5-5.6,5.5c-2,0-3.6-0.5-5.1-1.9l1.2-1.3c1.1,1.1,2.2,1.7,3.8,1.7c3.1,0,3.9-1.9,3.9-4
		v-1.3h0c-0.8,1.3-2.3,1.8-3.6,1.8c-3.2,0-5.5-2.1-5.5-5c0-3.2,2.2-5.1,5.5-5.1c1.4,0,2.9,0.6,3.6,1.9h0v-1.7h1.7V60.9z M122.6,60
		c2.4,0,3.7-1.7,3.7-3.6c0-2.1-1.5-3.6-3.7-3.6c-2.2,0-3.6,1.6-3.6,3.6C119,58.4,120.6,60,122.6,60z" />
        <path class="st1"
            d="M141.1,59.6c-1.2,1.5-2.7,2-4.6,2c-3.2,0-5.2-2.3-5.2-5.1c0-3,2.2-5.1,5.3-5.1c2.9,0,4.9,1.9,4.9,5.1v0.5h-8.3
		c0.1,1.7,1.5,3.1,3.4,3.1c1.5,0,2.5-0.5,3.3-1.5L141.1,59.6z M139.6,55.6c-0.1-1.7-1.2-2.8-3.1-2.8s-3.1,1.1-3.4,2.8H139.6z" />
        <path class="st1" d="M144.8,53.9c0-0.9-0.1-1.7-0.1-2.3h1.6c0,0.5,0,1.1,0,1.6h0c0.5-1,1.7-1.9,3.4-1.9c2.2,0,2.9,1.2,3.3,1.9
		c0.7-1.2,1.7-1.9,3.3-1.9c2.9,0,3.9,1.6,3.9,4.1v5.9h-1.7v-5.9c0-1.4-0.5-2.7-2.5-2.7c-1.4,0-2.7,1.1-2.7,2.9v5.7h-1.7v-5.5
		c0-2.2-0.6-3-2-3c-2.2,0-3.2,1.5-3.2,3.8v4.8h-1.7L144.8,53.9L144.8,53.9z" />
        <path class="st1"
            d="M173.5,59.6c-1.2,1.5-2.7,2-4.6,2c-3.2,0-5.2-2.3-5.2-5.1c0-3,2.2-5.1,5.3-5.1c2.9,0,4.9,1.9,4.9,5.1v0.5h-8.3
		c0.1,1.7,1.5,3.1,3.4,3.1c1.5,0,2.5-0.5,3.3-1.5L173.5,59.6z M172,55.6c-0.1-1.7-1.2-2.8-3.1-2.8s-3.1,1.1-3.4,2.8H172z" />
        <path class="st1" d="M177.2,53.9c0-0.9-0.1-1.7-0.1-2.3h1.6c0,0.5,0,1.1,0,1.6h0c0.5-1,1.7-1.9,3.4-1.9c2.7,0,3.9,1.6,3.9,4v6h-1.7
		v-5.9c0-1.6-0.7-2.7-2.4-2.7c-2.2,0-3.2,1.5-3.2,3.8v4.8h-1.7L177.2,53.9L177.2,53.9z" />
        <path class="st1" d="M195.8,52.9h-3v4.9c0,1.3,0,2.3,1.5,2.3c0.5,0,1.1-0.1,1.5-0.3l0.1,1.5c-0.6,0.3-1.4,0.4-2,0.4
		c-2.4,0-2.8-1.3-2.8-3.3v-5.4h-2.2v-1.4h2.2v-2.8h1.7v2.8h3L195.8,52.9L195.8,52.9z" />
        <path class="st1" d="M198.9,58.8c0.7,0.8,1.4,1.3,2.6,1.3c1.1,0,2.3-0.4,2.3-1.5c0-1-1.1-1.3-2.2-1.5c-2-0.4-3.6-0.8-3.6-2.8
		c0-1.9,1.9-2.9,3.8-2.9c1.5,0,2.8,0.5,3.5,1.8l-1.4,0.9c-0.4-0.7-1.2-1.2-2.2-1.2c-0.9,0-2,0.4-2,1.4c0,0.8,1.2,1.2,2.6,1.4
		c1.8,0.3,3.4,1,3.4,2.9c0,2.2-2.1,3.1-4.1,3.1c-1.7,0-3-0.4-4-1.8L198.9,58.8z" />
        <path class="st1" d="M216.1,54c-0.7-0.8-1.6-1.2-2.6-1.2c-2.3,0-3.5,1.6-3.5,3.6c0,2,1.4,3.6,3.5,3.6c1.1,0,2-0.4,2.6-1.2l1.3,1.2
		c-1,1.1-2.4,1.6-3.9,1.6c-3.2,0-5.3-2.1-5.3-5.1c0-3,2.2-5.1,5.3-5.1c1.5,0,2.9,0.5,4,1.5L216.1,54z" />
        <path class="st1" d="M220.1,45.5h1.7v7.4h0c0.5-0.8,1.7-1.6,3.3-1.6c2.7,0,3.9,1.6,3.9,4v6h-1.7v-5.9c0-1.6-0.7-2.7-2.4-2.7
		c-2.2,0-3.2,1.5-3.2,3.8v4.8h-1.7L220.1,45.5L220.1,45.5z" />
        <path class="st1" d="M242,59c0,0.9,0.1,1.7,0.1,2.3h-1.6c0-0.5,0-1.1,0-1.6h0c-0.5,1-1.7,1.9-3.4,1.9c-2.7,0-3.9-1.6-3.9-4v-6h1.7
		v5.9c0,1.6,0.7,2.7,2.4,2.7c2.2,0,3.2-1.5,3.2-3.8v-4.8h1.7L242,59L242,59z" />
        <path class="st1" d="M246.1,45.5h1.7v15.8h-1.7V45.5z" />
        <path class="st1"
            d="M261.1,59.6c-1.2,1.5-2.7,2-4.6,2c-3.2,0-5.2-2.3-5.2-5.1c0-3,2.2-5.1,5.3-5.1c2.9,0,4.9,1.9,4.9,5.1v0.5h-8.3
		c0.1,1.7,1.5,3.1,3.4,3.1c1.5,0,2.5-0.5,3.3-1.5L261.1,59.6z M259.7,55.6c-0.1-1.7-1.2-2.8-3.1-2.8c-1.9,0-3.1,1.1-3.4,2.8H259.7z" />
    </g>
</svg>