<?xml version="1.0" encoding="UTF-8" standalone="no"?><!DOCTYPE svg PUBLIC "-//W3C//DTD SVG 1.1//EN" "http://www.w3.org/Graphics/SVG/1.1/DTD/svg11.dtd"><svg width="100%" height="100%" viewBox="0 0 317 60" version="1.1" xmlns="http://www.w3.org/2000/svg" xmlns:xlink="http://www.w3.org/1999/xlink" xml:space="preserve" xmlns:serif="http://www.serif.com/" style="fill-rule:evenodd;clip-rule:evenodd;stroke-linejoin:round;stroke-miterlimit:2;"><rect id="Artboard1" x="0" y="0" width="316.1" height="59.813" style="fill:none;"/><clipPath id="_clip1"><rect x="0" y="0" width="316.1" height="59.813"/></clipPath><g clip-path="url(#_clip1)"><rect x="0" y="0" width="316.1" height="81.5" style="fill:none;"/><g><g id="Bildmarke"><path d="M83,39c-0.3,0 -0.6,0.1 -0.9,0.2c-0.4,-1.4 -0.8,-2.8 -1.1,-4.2l1.6,-2.2c0.2,-0.3 2.9,-3.7 2.9,-6.9c0,-4.7 -4,-4.8 -4.4,-4.8c-1,0 -2.5,0.4 -3.4,1.6c-0.9,1.1 -1.1,2.6 -0.7,4.4c0.1,0.3 1,3.9 2,7.5l-1.6,2.1l-3.5,-13.4l8,-5.9c2.2,-1.7 3.5,-4.4 3.5,-7.2c0,-4.3 -3,-8 -7.1,-8.9l0,-0.9l-1.6,-0.4l0,1l-4.6,-0.3l-1.5,-0l0,3.7l1.5,-0c0.4,-0 0.8,0.4 0.8,0.8c0,0.4 -0.4,0.8 -0.8,0.8l-5,-0.5l0.4,1.6l4.5,0.4l0.1,-0c1.3,-0 2.3,-1 2.3,-2.3c-0,-1.3 -1,-2.3 -2.3,-2.3l-0,-0.6l4.5,0.3l-0,4.3c-0,0.5 -0.2,0.9 -0.5,1.2c-0.3,0.3 -0.8,0.5 -1.3,0.4l-5.1,-0.3l0.4,1.5c-1.4,0.9 -2.6,2.1 -3.5,3.4l-2,-4.3c0.3,-0.5 0.4,-1.1 0.4,-1.6c-0,-2 -1.6,-3.6 -3.6,-3.6c-1.3,-0 -2.4,0.6 -3,1.6l0.4,-4.2l-32.1,-0l0.3,4.3c-0.6,-1 -1.8,-1.6 -3,-1.6c-2,-0 -3.6,1.6 -3.6,3.6c-0,0.6 0.1,1.1 0.4,1.6l-2,4.3c-0.9,-1.4 -2.1,-2.5 -3.5,-3.4l0.4,-1.5l-5.1,0.3c-0.5,-0 -0.9,-0.1 -1.3,-0.4c-0.3,-0.5 -0.4,-0.9 -0.4,-1.4l-0,-4.3l4.5,-0.3l-0,0.6c-1.3,-0 -2.3,1.1 -2.3,2.3c-0,1.3 1,2.3 2.3,2.3l0.1,-0l4.5,-0.3l0.4,-1.6l-5,0.5c-0.4,-0 -0.8,-0.4 -0.8,-0.8c-0,-0.4 0.4,-0.8 0.8,-0.8l1.5,-0l-0,-3.6l-1.5,-0l-4.5,0.2l-0,-1l-1.6,0.4l-0,0.8c-4.2,0.9 -7.1,4.6 -7.1,8.9c-0,2.8 1.3,5.5 3.5,7.2l8,5.9l-3.5,13.5l-1.6,-2.1c1,-3.5 1.9,-7.1 2,-7.5c0.4,-1.8 0.2,-3.3 -0.7,-4.4c-0.9,-1.2 -2.4,-1.6 -3.4,-1.6c-0.5,0 -4.5,0.2 -4.5,4.9c-0,3.1 2.7,6.5 2.9,6.9l1.6,2.1c-0.4,1.4 -0.8,2.8 -1.1,4.2c-0.2,-0.1 -0.5,-0.2 -0.8,-0.2c-1.2,0 -2.2,1 -2.2,2.2c-0,1.2 1,2.2 2.2,2.2c1,0 1.9,-0.7 2.1,-1.6c0.1,-0.5 0.7,-2.5 1.3,-4.8l1.6,2.1l-4.2,15.8c-0.1,0.3 -0.1,0.5 -0.1,0.8c-0,2 1.6,3.6 3.6,3.6c2,-0 3.6,-1.6 3.6,-3.6c-0,-0.9 -0.3,-1.7 -0.9,-2.4l3.7,-6l7.4,10.4c0.7,1 1.8,1.5 3,1.5c2,-0 3.6,-1.6 3.6,-3.6c-0,-2 -1.6,-3.6 -3.6,-3.6l-0.2,0l-5,-14.2c-0.5,-1.3 -1.6,-2.2 -3,-2.4l-0.6,0l3.4,-7.4l4.5,3.3c0.6,0.5 1.4,0.8 2.2,0.8c0.2,0 0.4,0 0.7,-0.1l1.3,13.1c0.4,3.6 2.3,7.1 5.3,9.8c3.1,2.8 6.8,4.3 10.6,4.3c3.8,0 7.6,-1.5 10.6,-4.3c3,-2.7 4.9,-6.3 5.3,-9.8l1.2,-13c0.2,0 0.4,0.1 0.7,0.1c0.8,0 1.6,-0.3 2.2,-0.8l4.5,-3.3l3.4,7.4l-0.6,0c-1.4,0.2 -2.5,1.1 -3,2.4l-5,14.2l-0.2,0c-2,0 -3.6,1.6 -3.6,3.6c-0,2 1.6,3.6 3.6,3.6c1.2,0 2.3,-0.6 3,-1.5l7.4,-10.4l3.7,6c-0.8,0.6 -1.1,1.4 -1.1,2.3c-0,2 1.6,3.6 3.6,3.6c2,-0 3.6,-1.6 3.6,-3.6c-0,-0.3 -0,-0.5 -0.1,-0.8l-4.1,-15.8l1.6,-2.1c0.6,2.3 1.2,4.3 1.3,4.8c0.2,0.9 1.1,1.6 2.1,1.6c1.2,-0 2.2,-1 2.2,-2.2c-0,-1.2 -1,-2.2 -2.2,-2.2Zm-77.8,-6.3l-0.7,-1c-0.7,-0.9 -2.5,-3.6 -2.5,-5.7c-0,-2.6 1.8,-2.9 2.5,-2.9c0.6,-0 1.4,0.2 2,0.9c0.5,0.6 0.6,1.6 0.4,2.8c-0.2,0.2 -0.9,2.7 -1.7,5.9Zm56.4,-27.2c1,-0 1.7,0.8 1.7,1.7c-0,0.4 -0.1,0.7 -0.3,1l-0.3,0.4l3.1,6.5c-0.4,1.1 -0.7,2.2 -0.7,3.4l-5,-10.8c-0.1,-0.2 -0.1,-0.4 -0.1,-0.6c-0.2,-0.8 0.6,-1.6 1.6,-1.6Zm-10.7,4.8l-4.4,-0l-0,-2.1l4.5,-0l-0.1,2.1Zm-5.9,-0l-4.4,-0l-0,-2.1l4.4,-0l-0,2.1Zm-5.9,-0l-4.4,-0l-0.1,-2.1l4.4,-0l0.1,2.1Zm-6,-0l-4.1,-0l-0.2,-2.1l4.3,-0l-0,2.1Zm23.4,1.6l-0.2,2.5l-27,-0l-0.2,-2.5l27.4,-0Zm0.1,-1.6l-4.2,-0l0.1,-2.1l4.3,-0l-0.2,2.1Zm-2.4,-7.7l-0.1,2.7l1.5,-0l0.1,-2.7l1.5,-0l-0.3,4.1l-4.4,-0l0.1,-4.1l1.6,-0Zm-6.1,-0l-0.1,2.7l1.5,-0l0.1,-2.7l1.5,-0l-0.1,4.1l-4.5,-0l0.1,-4.1l1.5,-0Zm-6.1,-0l-0,2.7l1.5,-0l-0,-2.7l1.5,-0l-0,4.1l-4.5,-0l-0.1,-4.1l1.6,-0Zm-6.1,-0l0.1,2.7l1.5,-0l-0.1,-2.7l1.6,-0l-0,4.1l-4.5,-0l-0.1,-4.1l1.5,-0Zm-6.1,-0l0.2,2.7l1.5,-0l-0.1,-2.7l1.5,-0l0.1,4.1l-4.4,-0l-0.3,-4.1l1.5,-0Zm-2.5,6.1l0.6,7.2l29.8,-0l0.6,-7.2l6.5,14l-3.3,2.4c-0.2,-0.1 -0.5,-0.1 -0.8,-0.1l0.6,-6.5l-37,-0l0.6,6.5c-0.3,-0 -0.6,-0 -0.9,0.1l-3.3,-2.4l6.6,-14Zm1.1,18.7l3.9,-0l2.5,2.4l-6.4,-0c0.1,-0.4 0.2,-0.8 0.2,-1.2c-0,-0.4 -0.1,-0.8 -0.2,-1.2Zm-1,-1.5c-0.1,-0.1 -0.3,-0.3 -0.5,-0.4l-0.3,-3.6l4.1,3.9l-3.3,-0l-0,0.1Zm-4.5,-17.2l-0.3,-0.4c-0.2,-0.3 -0.3,-0.7 -0.3,-1c-0,-1 0.8,-1.7 1.7,-1.7c1,-0 1.7,0.8 1.7,1.7c-0,0.2 -0,0.4 -0.1,0.6l-5,10.8c-0.1,-1.2 -0.3,-2.3 -0.7,-3.4l3,-6.6Zm-7.7,28.7c0.4,0.1 1.2,0.3 1.5,1.2l5.6,15.8l0.9,-0.3c0.2,-0.1 0.4,-0.1 0.5,-0.1c1,0 1.7,0.8 1.7,1.7c-0,0.9 -0.8,1.7 -1.7,1.7c-0.6,0 -1.1,-0.3 -1.4,-0.7l-7.8,-11.1l0.5,-0.9c0.3,-0.6 0.5,-1.2 0.5,-1.8c-0,-1.6 -1.1,-3 -2.6,-3.4l0.8,-1.8c0.3,-0.2 0.9,-0.4 1.5,-0.3Zm-4.5,2.4l1.1,1.5l0.3,-0c0.9,-0 1.6,0.7 1.6,1.6c-0,0.3 -0.1,0.6 -0.2,0.8l-6.3,10l0.8,0.5c0.5,0.3 0.8,0.9 0.8,1.4c-0,1 -0.8,1.7 -1.7,1.7c-0.9,-0 -1.7,-0.8 -1.7,-1.7l-0,-0.4l8.1,-30.9l3.4,2.5l-6.2,13Zm14.3,-9.5c-0.4,-0 -0.8,-0.1 -1.1,-0.4l-19,-14.1c-1.8,-1.4 -2.8,-3.5 -2.8,-5.7c-0,-3.3 2.2,-6.1 5.2,-7l-0,3.6c-0,0.9 0.4,1.7 1,2.3c0.6,0.7 1.4,1 2.2,1l0.2,-0l1.4,-0.1c0.3,0.1 0.6,0.2 0.7,0.2c3.8,1.5 6.3,5.2 6.3,9.3c-0,0.6 -0.1,1.3 -0.2,1.9l-4,-2.9l-0.5,2l9.3,6.9l0.5,-0.2c0.4,-0.2 0.9,-0.2 1.4,-0c0.6,0.3 1.1,0.9 1.1,1.6c-0,0.6 -0.3,1.1 -0.8,1.4c-0.3,0.1 -0.6,0.2 -0.9,0.2Zm2.4,1l8.9,-0l2.5,2.4l-11.1,-0l-0.3,-2.4Zm0.4,3.9l12.6,-0l2.5,2.4l-14.8,-0l-0.3,-2.4Zm0.4,3.9l16.3,-0l2.5,2.4l-18.6,-0l-0.2,-2.4Zm0.6,6l-0.2,-2l20,-0l2.5,2.4l-22.3,-0l-0,-0.4Zm0.3,1.9l23.5,-0l2.5,2.4l-25,-0c-0.4,-0.8 -0.7,-1.6 -1,-2.4Zm13.7,10.5c-2.8,-0 -5.6,-1 -7.9,-2.6l15.8,-0c-2.3,1.6 -5.1,2.6 -7.9,2.6Zm9.7,-4.2l-19.5,-0c-0.8,-0.7 -1.4,-1.5 -2,-2.4l23.6,-0c-0.6,0.9 -1.3,1.7 -2.1,2.4Zm4.3,-8.2c-0.1,0.9 -0.3,1.8 -0.6,2.7l-28.5,-27.4l31.5,-0l-0.5,5.1c-1,0.7 -1.7,1.8 -1.7,3.1c-0,1 0.4,2 1.1,2.6l-1.3,13.9Zm4.9,-15.2c-0.3,0.3 -0.7,0.4 -1.1,0.4c-0.3,-0 -0.7,-0.1 -1,-0.3c-0.5,-0.3 -0.8,-0.9 -0.8,-1.4c-0,-0.7 0.4,-1.3 1.1,-1.6c0.4,-0.2 0.9,-0.2 1.4,-0l0.5,0.2l9.3,-6.9l-0.5,-2l-4,2.9c-0.1,-0.6 -0.2,-1.2 -0.2,-1.9c-0,-4.1 2.5,-7.7 6.3,-9.3c0.1,-0 0.4,-0.1 0.7,-0.2l1.4,0.1l0.2,-0c0.8,-0 1.6,-0.3 2.2,-0.9c0.6,-0.6 1,-1.4 1,-2.3l-0,-3.6c3.1,0.9 5.2,3.7 5.2,7c-0,2.2 -1,4.3 -2.8,5.7l-18.9,14.1Zm1.6,26.8c-0.3,0.5 -0.9,0.7 -1.4,0.7c-1,-0 -1.7,-0.8 -1.7,-1.7c-0,-0.9 0.8,-1.7 1.7,-1.7c0.2,-0 0.4,-0 0.5,0.1l0.9,0.3l5.6,-15.8c0.3,-0.9 1.1,-1.1 1.5,-1.2c0.6,-0.1 1.2,0.1 1.4,0.3l0.8,1.8c-1.5,0.4 -2.6,1.8 -2.6,3.5c-0,0.6 0.2,1.3 0.5,1.8l0.5,0.9l-7.7,11Zm17,-1.3l-0,0.4c-0,1 -0.8,1.7 -1.7,1.7c-0.9,0 -1.7,-0.8 -1.7,-1.7c-0,-0.6 0.3,-1.1 0.8,-1.4l0.8,-0.5l-6.3,-10c-0.2,-0.3 -0.2,-0.5 -0.2,-0.8c-0,-0.9 0.7,-1.6 1.6,-1.6l0.3,0l1.1,-1.5l-6,-12.9l3.4,-2.5l7.9,30.8Zm-1.5,-28.7c-0.3,-1.3 -0.2,-2.2 0.4,-2.8c0.5,-0.6 1.4,-0.9 2,-0.9c0.8,-0 2.5,0.3 2.5,2.9c-0,2.5 -2.5,5.6 -2.5,5.7l-0.8,1c-0.8,-3.1 -1.5,-5.6 -1.6,-5.9Z" style="fill-rule:nonzero;"/></g><g id="Stadt_Zürich"><g><g><path d="M112.2,2.2c2.2,0 3.9,0.5 5.2,1.5c1.3,1 1.9,2.4 1.9,4.2l-3.8,0c0,-0.9 -0.4,-1.6 -0.9,-2c-0.6,-0.4 -1.4,-0.7 -2.6,-0.7c-0.8,0 -1.5,0.2 -2,0.5c-0.5,0.3 -0.8,0.9 -0.8,1.5c0,0.5 0.2,0.9 0.5,1.1c0.3,0.2 0.7,0.4 1.3,0.6c0.6,0.2 1.6,0.4 3,0.8c1.5,0.4 2.6,0.8 3.4,1.2c0.8,0.4 1.4,1 1.8,1.7c0.4,0.7 0.6,1.5 0.6,2.5c0,1.1 -0.3,2.1 -0.9,3c-0.6,0.9 -1.5,1.6 -2.6,2c-1.1,0.4 -2.4,0.7 -3.9,0.7c-2.2,0 -4,-0.6 -5.5,-1.7c-1.4,-1.1 -2.1,-2.6 -2.1,-4.6l0,-0.1l3.8,0c0,1 0.4,1.9 1.1,2.4c0.7,0.6 1.7,0.9 2.8,0.9c1,0 1.9,-0.2 2.5,-0.6c0.6,-0.4 1,-0.9 1,-1.7c0,-0.5 -0.2,-0.9 -0.5,-1.2c-0.3,-0.3 -0.8,-0.6 -1.4,-0.8c-0.6,-0.2 -1.6,-0.5 -2.9,-0.8c-1.6,-0.4 -2.8,-0.8 -3.5,-1.3c-0.7,-0.5 -1.3,-1 -1.7,-1.6c-0.4,-0.6 -0.6,-1.4 -0.6,-2.3c0,-1.1 0.3,-2.1 1,-2.9c0.6,-0.8 1.5,-1.4 2.5,-1.8c1.1,-0.3 2.2,-0.5 3.3,-0.5Z" style="fill-rule:nonzero;"/><path d="M126.4,3.7l0,3.9l2.6,0l0,2.4l-2.6,0l0,6.4c0,0.6 0.1,1 0.3,1.2c0.2,0.2 0.6,0.3 1.2,0.3c0.4,0 0.8,0 1.1,-0.1l0,2.8c-0.5,0.1 -1.2,0.1 -2.1,0.1c-1.4,0 -2.4,-0.2 -3,-0.7c-0.7,-0.5 -1,-1.3 -1,-2.4l0,-7.7l-2.1,-0l0,-2.4l2.1,-0l0,-3.8l3.5,-0Z" style="fill-rule:nonzero;"/><path d="M137.1,7.2c3.8,0 5.6,1.2 5.6,3.7l0,6.8c0,1.3 0.1,2.2 0.5,2.7l-3.6,0c-0.1,-0.4 -0.2,-0.8 -0.2,-1.2c-1,1.1 -2.5,1.6 -4.3,1.6c-1.3,0 -2.4,-0.3 -3.2,-1c-0.8,-0.7 -1.2,-1.6 -1.2,-2.8c0,-1.2 0.4,-2.1 1.1,-2.7c0.8,-0.7 2.2,-1.1 4.2,-1.3c1.4,-0.1 2.3,-0.3 2.7,-0.6c0.4,-0.2 0.6,-0.6 0.6,-1c0,-0.6 -0.2,-1 -0.5,-1.3c-0.4,-0.3 -0.9,-0.4 -1.8,-0.4c-0.7,0 -1.3,0.2 -1.7,0.5c-0.4,0.3 -0.6,0.8 -0.7,1.5l-3.6,0c0.1,-1.4 0.7,-2.5 1.8,-3.2c1,-0.9 2.5,-1.3 4.3,-1.3Zm-3,9.6c-0,1.1 0.7,1.6 2.2,1.6c1.9,0 2.9,-1 2.9,-2.9l-0,-1.4c-0.3,0.3 -1,0.5 -2.1,0.6c-1,0.1 -1.7,0.3 -2.2,0.6c-0.5,0.4 -0.8,0.8 -0.8,1.5Z" style="fill-rule:nonzero;"/><path d="M158,2.6l0,17.8l-3.4,0l0,-1.6c-0.8,1.3 -2.1,2 -3.9,2c-1.8,0 -3.2,-0.6 -4.2,-1.9c-1,-1.3 -1.6,-3 -1.6,-5c0,-2 0.5,-3.6 1.6,-4.8c1.1,-1.2 2.4,-1.9 4.1,-1.9c0.8,0 1.5,0.2 2.2,0.5c0.7,0.3 1.2,0.8 1.6,1.4l0.1,0l0,-6.5l3.5,-0Zm-9.6,11.4c0,1.2 0.3,2.2 0.8,3c0.6,0.8 1.3,1.2 2.3,1.2c1,0 1.8,-0.4 2.3,-1.1c0.5,-0.7 0.8,-1.8 0.8,-3.1c0,-1.3 -0.3,-2.3 -0.8,-3c-0.5,-0.7 -1.3,-1.1 -2.3,-1.1c-1,0 -1.8,0.4 -2.3,1.1c-0.5,0.7 -0.8,1.7 -0.8,3Z" style="fill-rule:nonzero;"/><path d="M165.5,3.7l0,3.9l2.6,0l0,2.4l-2.6,0l0,6.4c0,0.6 0.1,1 0.3,1.2c0.2,0.2 0.6,0.3 1.2,0.3c0.4,0 0.8,0 1.1,-0.1l0,2.8c-0.5,0.1 -1.2,0.1 -2.1,0.1c-1.4,0 -2.4,-0.2 -3,-0.7c-0.7,-0.5 -1,-1.3 -1,-2.4l0,-7.7l-2.1,-0l0,-2.4l2.1,-0l0,-3.8l3.5,-0Z" style="fill-rule:nonzero;"/><path d="M190,2.6l0,3.1l-9.6,11.4l9.8,0l0,3.3l-15,0l0,-3.1l9.6,-11.4l-8.8,0l0,-3.3l14,0Z" style="fill-rule:nonzero;"/><path d="M195.6,7.5l0,7.3c0,1 0.2,1.8 0.5,2.3c0.3,0.5 0.9,0.8 1.8,0.8c1,0 1.7,-0.3 2.1,-0.9c0.4,-0.6 0.6,-1.5 0.6,-2.8l0,-6.7l3.5,-0l0,12.9l-3.4,-0l0,-1.8l-0.1,-0c-0.9,1.4 -2.2,2.1 -4,2.1c-1.7,-0 -2.9,-0.4 -3.6,-1.3c-0.7,-0.9 -1.1,-2.2 -1.1,-4l0,-8l3.7,0.1Zm1.7,-4.9l0,2.9l-3.4,-0l0,-2.9l3.4,-0Zm5.1,-0l0,2.9l-3.4,-0l0,-2.9l3.4,-0Z" style="fill-rule:nonzero;"/><path d="M214.7,7.2c0.3,0 0.6,0 0.8,0.1l-0,3.3c-0.4,-0.1 -0.8,-0.1 -1.3,-0.1c-2.3,0 -3.5,1.4 -3.5,4.1l-0,5.8l-3.5,0l-0,-12.9l3.4,0l-0,2.4c0.3,-0.8 0.9,-1.5 1.7,-2c0.7,-0.5 1.5,-0.7 2.4,-0.7Z" style="fill-rule:nonzero;"/><path d="M220.9,2.6l0,2.9l-3.5,0l0,-2.9l3.5,0Zm0,4.9l0,12.9l-3.5,0l0,-12.9l3.5,0Z" style="fill-rule:nonzero;"/><path d="M229.7,7.2c1.8,0 3.2,0.4 4.3,1.3c1.1,0.9 1.7,2.1 1.8,3.6l-3.5,0c-0.2,-1.5 -1.1,-2.2 -2.6,-2.2c-0.9,0 -1.7,0.4 -2.2,1.1c-0.5,0.8 -0.8,1.8 -0.8,3c-0,1.2 0.3,2.2 0.8,2.9c0.5,0.7 1.2,1.1 2.2,1.1c1.6,0 2.6,-0.9 2.8,-2.6l3.4,0c-0.2,1.7 -0.9,3 -2,3.9c-1.1,0.9 -2.5,1.4 -4.2,1.4c-1.9,0 -3.5,-0.6 -4.7,-1.8c-1.2,-1.2 -1.8,-2.8 -1.8,-4.8c-0,-2.1 0.6,-3.8 1.8,-5.1c1.1,-1.2 2.7,-1.8 4.7,-1.8Z" style="fill-rule:nonzero;"/><path d="M241.5,2.6l0,6.7l0.1,0c0.4,-0.7 0.9,-1.2 1.6,-1.6c0.7,-0.4 1.4,-0.6 2.2,-0.6c1.6,0 2.8,0.4 3.6,1.2c0.7,0.8 1.1,2.1 1.1,3.9l0,8.1l-3.5,0l0,-7.3c0,-1 -0.2,-1.8 -0.5,-2.3c-0.3,-0.5 -0.9,-0.8 -1.8,-0.8c-1,0 -1.6,0.3 -2.1,0.9c-0.4,0.6 -0.7,1.5 -0.7,2.8l0,6.8l-3.5,0l0,-17.8c-0.1,0 3.5,0 3.5,0Z" style="fill-rule:nonzero;"/></g></g></g><g id="Finanzdepartement"><g><path d="M117.2,33.2l0,2l-9.3,0l0,5.6l8.1,0l0,2l-8.1,0l0,8.1l-2.4,0l0,-17.7l11.7,0Z" style="fill-rule:nonzero;"/><path d="M121.3,33.2l0,2.6l-2.1,0l0,-2.6l2.1,0Zm0,4.9l0,12.8l-2.1,0l0,-12.8l2.1,-0Z" style="fill-rule:nonzero;"/><path d="M130.7,37.8c2.9,-0 4.4,1.5 4.4,4.6l0,8.5l-2.1,-0l0,-8.8c0,-0.7 -0.2,-1.3 -0.7,-1.8c-0.5,-0.5 -1.1,-0.7 -2,-0.7c-1.2,-0 -2.1,0.4 -2.8,1.1c-0.7,0.7 -1,1.7 -1,2.9l0,7.3l-2.1,-0l0,-12.8l2,-0l0,2c1,-1.6 2.4,-2.3 4.3,-2.3Z" style="fill-rule:nonzero;"/><path d="M143.4,37.8c3.2,-0 4.8,1.1 4.8,3.4l0,7.4c0,0.5 0.2,0.7 0.7,0.7c0.2,-0 0.4,-0 0.6,-0.1l0,1.6c-0.4,0.2 -0.9,0.3 -1.5,0.3c-1.2,-0 -1.8,-0.7 -1.8,-2c-1.1,1.3 -2.6,2 -4.5,2c-1.3,-0 -2.4,-0.3 -3.1,-0.9c-0.8,-0.6 -1.1,-1.5 -1.1,-2.7c0,-1.1 0.4,-2 1.1,-2.7c0.7,-0.7 2.5,-1.2 5.2,-1.5c0.9,-0.1 1.5,-0.3 1.9,-0.5c0.3,-0.2 0.5,-0.6 0.5,-1.1c0,-1.4 -1,-2.1 -2.9,-2.1c-1,-0 -1.8,0.2 -2.3,0.6c-0.5,0.4 -0.8,1 -0.9,1.8l-2.1,-0c0.1,-2.8 1.9,-4.2 5.4,-4.2Zm-3.7,9.6c0,0.6 0.2,1.1 0.6,1.4c0.4,0.3 1,0.5 1.8,0.5c1.1,0 2.1,-0.3 2.8,-0.8c0.7,-0.6 1.1,-1.2 1.1,-2l0,-2.2c-0.4,0.3 -0.9,0.4 -1.5,0.5l-2.2,0.3c-0.9,0.1 -1.6,0.4 -2.1,0.8c-0.3,0.3 -0.5,0.9 -0.5,1.5Z" style="fill-rule:nonzero;"/><path d="M157.7,37.8c2.9,-0 4.4,1.5 4.4,4.6l-0,8.5l-2.1,-0l-0,-8.8c-0,-0.7 -0.2,-1.3 -0.7,-1.8c-0.5,-0.5 -1.1,-0.7 -2,-0.7c-1.2,-0 -2.1,0.4 -2.8,1.1c-0.7,0.7 -1,1.7 -1,2.9l-0,7.3l-2.1,-0l-0,-12.8l2,-0l-0,2c1.1,-1.6 2.5,-2.3 4.3,-2.3Z" style="fill-rule:nonzero;"/><path d="M174.4,38.1l0,1.4l-7.8,9.5l8.2,0l0,1.9l-10.8,0l0,-1.6l7.7,-9.3l-7.2,0l0,-1.9l9.9,0Z" style="fill-rule:nonzero;"/><path d="M188,33.2l0,17.7l-2.1,0l0,-1.7c-0.3,0.7 -0.9,1.2 -1.6,1.5c-0.7,0.3 -1.6,0.5 -2.5,0.5c-1.8,0 -3.2,-0.6 -4.3,-1.9c-1.1,-1.2 -1.6,-2.9 -1.6,-4.9c0,-2 0.5,-3.6 1.6,-4.8c1,-1.2 2.5,-1.8 4.3,-1.8c0.8,0 1.6,0.2 2.4,0.5c0.8,0.3 1.4,0.8 1.7,1.5l0,-6.6l2.1,0Zm-9.9,11.4c0,1.4 0.4,2.5 1.1,3.4c0.7,0.9 1.7,1.3 2.9,1.3c1.2,-0 2.2,-0.4 2.9,-1.3c0.7,-0.9 1.1,-2.1 1.1,-3.5c0,-1.5 -0.4,-2.6 -1.1,-3.5c-0.7,-0.9 -1.7,-1.3 -3,-1.3c-1.2,-0 -2.2,0.4 -2.8,1.3c-0.8,0.8 -1.1,2 -1.1,3.6Z" style="fill-rule:nonzero;"/><path d="M196.5,37.8c1.8,-0 3.2,0.7 4.3,2c1,1.3 1.5,3 1.5,5.1l0,0.2l-9.6,-0l0,0.1c0,1.2 0.4,2.2 1.1,3c0.7,0.8 1.7,1.1 2.9,1.1c1.8,-0 2.9,-0.8 3.3,-2.5l2.1,-0c-0.3,1.4 -0.9,2.5 -1.9,3.3c-1,0.7 -2.2,1.1 -3.6,1.1c-2,-0 -3.5,-0.7 -4.6,-2c-1.1,-1.3 -1.6,-2.9 -1.6,-4.8c0,-1.9 0.6,-3.5 1.7,-4.7c1.2,-1.3 2.7,-1.9 4.4,-1.9Zm3.6,5.4c-0.1,-1 -0.4,-1.9 -1.1,-2.6c-0.7,-0.7 -1.5,-1 -2.6,-1c-1,-0 -1.8,0.3 -2.5,1c-0.7,0.7 -1.1,1.5 -1.2,2.6l7.4,-0Z" style="fill-rule:nonzero;"/><path d="M210.9,37.8c1.8,-0 3.3,0.6 4.3,1.8c1.1,1.2 1.6,2.9 1.6,4.9c0,2 -0.5,3.6 -1.6,4.8c-1.1,1.2 -2.5,1.8 -4.3,1.8c-0.8,-0 -1.6,-0.2 -2.3,-0.5c-0.8,-0.3 -1.4,-0.8 -1.8,-1.5l0,6.6l-2.1,-0l0,-17.6l2.1,0l0,1.7c0.7,-1.4 2.1,-2 4.1,-2Zm-4.2,6.7c0,1.5 0.4,2.7 1.1,3.5c0.7,0.9 1.7,1.3 3,1.3c1.2,0 2.2,-0.4 2.8,-1.3c0.7,-0.9 1,-2.1 1,-3.7c0,-1.4 -0.4,-2.5 -1.1,-3.4c-0.7,-0.9 -1.7,-1.3 -2.9,-1.3c-1.2,0 -2.1,0.4 -2.8,1.3c-0.8,0.9 -1.1,2.1 -1.1,3.6Z" style="fill-rule:nonzero;"/><path d="M224.4,37.8c3.2,-0 4.8,1.1 4.8,3.4l0,7.4c0,0.5 0.2,0.7 0.7,0.7c0.2,-0 0.4,-0 0.6,-0.1l0,1.6c-0.4,0.2 -0.9,0.3 -1.5,0.3c-1.2,-0 -1.8,-0.7 -1.8,-2c-1.1,1.3 -2.6,2 -4.5,2c-1.3,-0 -2.4,-0.3 -3.1,-0.9c-0.8,-0.6 -1.1,-1.5 -1.1,-2.7c0,-1.1 0.4,-2 1.1,-2.7c0.7,-0.7 2.5,-1.2 5.2,-1.5c0.9,-0.1 1.5,-0.3 1.9,-0.5c0.3,-0.2 0.5,-0.6 0.5,-1.1c0,-1.4 -1,-2.1 -2.9,-2.1c-1,-0 -1.8,0.2 -2.3,0.6c-0.5,0.4 -0.8,1 -0.9,1.8l-2.1,-0c0.1,-2.8 2,-4.2 5.4,-4.2Zm-3.7,9.6c0,0.6 0.2,1.1 0.6,1.4c0.4,0.3 1,0.5 1.8,0.5c1.1,0 2.1,-0.3 2.8,-0.8c0.7,-0.6 1.1,-1.2 1.1,-2l0,-2.2c-0.4,0.3 -0.9,0.4 -1.5,0.5l-2.2,0.3c-0.9,0.1 -1.6,0.4 -2.1,0.8c-0.3,0.3 -0.5,0.9 -0.5,1.5Z" style="fill-rule:nonzero;"/><path d="M239.3,37.8l0,2.2c-1.6,-0 -2.8,0.4 -3.5,1.3c-0.8,0.8 -1.1,2.1 -1.1,3.9l0,5.7l-2.1,-0l0,-12.8l2,-0l0,2.7c1,-2 2.4,-3 4.4,-3l0.3,-0Z" style="fill-rule:nonzero;"/><path d="M244.7,34.2l-0,3.8l2.6,0l-0,1.9l-2.6,0l-0,8c-0,0.4 0.1,0.7 0.2,0.8c0.1,0.2 0.5,0.2 1.1,0.2l1.2,0l-0,1.9l-1.7,0c-1.1,0 -1.9,-0.2 -2.3,-0.5c-0.4,-0.4 -0.6,-1.1 -0.6,-2.1l-0,-8.3l-2.2,0l-0,-1.9l2.2,0l-0,-3.8l2.1,0Z" style="fill-rule:nonzero;"/><path d="M254.4,37.8c1.8,-0 3.2,0.7 4.3,2c1,1.3 1.5,3 1.5,5.1l0,0.2l-9.6,-0l0,0.1c0,1.2 0.4,2.2 1.1,3c0.7,0.8 1.7,1.1 2.9,1.1c1.8,-0 2.9,-0.8 3.3,-2.5l2.1,-0c-0.3,1.4 -0.9,2.5 -1.9,3.3c-1,0.7 -2.2,1.1 -3.6,1.1c-2,-0 -3.5,-0.7 -4.6,-2c-1.1,-1.3 -1.6,-2.9 -1.6,-4.8c0,-1.9 0.6,-3.5 1.7,-4.7c1.2,-1.3 2.7,-1.9 4.4,-1.9Zm3.6,5.4c-0.1,-1 -0.4,-1.9 -1.1,-2.6c-0.7,-0.7 -1.5,-1 -2.6,-1c-1,-0 -1.8,0.3 -2.5,1c-0.7,0.7 -1.1,1.5 -1.2,2.6l7.4,-0Z" style="fill-rule:nonzero;"/><path d="M268.7,37.8c1.9,-0 3,0.7 3.5,2.2c0.4,-0.7 1,-1.2 1.7,-1.6c0.7,-0.4 1.5,-0.6 2.3,-0.6c1.5,-0 2.5,0.3 3.2,1c0.7,0.7 1,1.5 1,2.7l0,9.5l-2.1,-0l0,-8.5c0,-0.9 -0.2,-1.6 -0.6,-2.1c-0.4,-0.5 -1,-0.7 -1.9,-0.7c-1,-0 -1.8,0.3 -2.4,0.9c-0.6,0.6 -0.9,1.4 -0.9,2.3l0,8.1l-2.1,0l0,-8.5c0,-0.9 -0.2,-1.6 -0.6,-2.1c-0.4,-0.5 -1,-0.7 -1.8,-0.7c-0.6,0 -1.2,0.1 -1.7,0.4c-0.5,0.3 -0.9,0.7 -1.3,1.3c-0.4,0.6 -0.5,1.1 -0.5,1.5l0,8l-2.1,0l0,-12.8l2,0l0,1.9c1.1,-1.5 2.5,-2.2 4.3,-2.2Z" style="fill-rule:nonzero;"/><path d="M288.9,37.8c1.8,-0 3.2,0.7 4.3,2c1,1.3 1.5,3 1.5,5.1l-0,0.2l-9.6,-0l-0,0.1c-0,1.2 0.4,2.2 1.1,3c0.7,0.8 1.7,1.1 2.9,1.1c1.8,-0 2.9,-0.8 3.3,-2.5l2.1,-0c-0.3,1.4 -0.9,2.5 -1.9,3.3c-1,0.7 -2.2,1.1 -3.6,1.1c-2,-0 -3.5,-0.7 -4.6,-2c-1.1,-1.3 -1.6,-2.9 -1.6,-4.8c-0,-1.9 0.6,-3.5 1.7,-4.7c1.2,-1.3 2.7,-1.9 4.4,-1.9Zm3.6,5.4c-0.1,-1 -0.4,-1.9 -1.1,-2.6c-0.7,-0.7 -1.5,-1 -2.6,-1c-1,-0 -1.8,0.3 -2.5,1c-0.7,0.7 -1.1,1.5 -1.2,2.6l7.4,-0Z" style="fill-rule:nonzero;"/><path d="M303.3,37.8c2.9,-0 4.4,1.5 4.4,4.6l0,8.5l-2.1,-0l0,-8.8c0,-0.7 -0.2,-1.3 -0.7,-1.8c-0.5,-0.5 -1.1,-0.7 -2,-0.7c-1.2,-0 -2.1,0.4 -2.8,1.1c-0.7,0.7 -1,1.7 -1,2.9l0,7.3l-2.1,-0l0,-12.8l2,-0l0,2c1,-1.6 2.4,-2.3 4.3,-2.3Z" style="fill-rule:nonzero;"/><path d="M313.5,34.2l0,3.8l2.6,0l0,1.9l-2.6,0l0,8c0,0.4 0.1,0.7 0.2,0.8c0.1,0.2 0.5,0.2 1.1,0.2l1.2,0l0,1.9l-1.7,0c-1.1,0 -1.9,-0.2 -2.3,-0.5c-0.4,-0.4 -0.6,-1.1 -0.6,-2.1l0,-8.3l-2.2,0l0,-1.9l2.2,0l0,-3.8l2.1,0Z" style="fill-rule:nonzero;"/></g></g></g></g></svg>