<svg height="42.25" viewBox="0 0 346.00002 42.250001" width="346" xmlns="http://www.w3.org/2000/svg">
  <g fill="#000">
    <path
      d="m16.8 16.6h-4.7l-1.8-7.4-1.8 7.4h-4.7l-3.8-12.1h4.8l1.8 7.5 1.6-7.5h4.3l1.6 7.5h.1l1.7-7.5h4.8"
      transform="scale(2.5)" />
    <path
      d="m6.6 12 1.6-7.5h4.3l1.6 7.5h.1l1.7-7.5h4.8l-3.9 12.1h-4.7l-1.8-7.4-1.8 7.4h-4.7l-3.8-12.1h4.8z"
      transform="scale(2.5)" />
    <g stroke-width="2.5">
      <path
        d="m64 29c.25 3.5 2.25 6 6 6 1.75 0 4-.75 4.75-2.25h10.75c-2.25 6.5-8.75 9.5-15.5 9.5-9.75 0-17-5.75-17-15.75 0-8.75 6.5-16 16-16 12 0 17.25 6.75 17.25 18.5m-11-6c0-2.75-2-5-5-5-3.5 0-5.5 1.75-6 5z" />
      <path
        d="m64 29c.25 3.5 2.25 6 6 6 1.75 0 4-.75 4.75-2.25h10.75c-2.25 6.5-8.75 9.5-15.5 9.5-9.75 0-17-5.75-17-15.75 0-8.75 6.5-16 16-16 12 0 17.25 6.75 17.25 18.5zm11.25-6c0-2.75-2-5-5-5-3.5 0-5.5 1.75-6 5z" />
      <path d="m91.25.000002h11.5v41.5h-11.5z" />
      <path d="m91.25.000002h11.5v41.5h-11.5z" />
      <path
        d="m123.25 11.25h6.25v7h-6.25v10.5c0 2.75.75 4 3.5 4 .75 0 1.75 0 2.5-.25v8.75c-2.25 0-5 .25-7.5.25-5 0-10.25-.75-10.25-9v-14h-5v-7.25h5v-9h11.5" />
      <path
        d="m123.25 11.25h6.25v7h-6.25v10.5c0 2.75.75 4 3.5 4 .75 0 1.75 0 2.5-.25v8.75c-2.25 0-5 .25-7.5.25-5 0-10.25-.75-10.25-9v-14h-5v-7.25h5v-9h11.5v9z" />
      <path d="m144.75 8h-11.5v-8h11.5m-11.5 11.25h11.5v30.25h-11.5z" />
      <path d="m144.75 8h-11.5v-8h11.5zm-11.5 3.25h11.5v30.25h-11.5z" />
      <path d="m151 21.25h18.25v9.5h-18.25z" />
      <path d="m151 21.25h18.25v9.5h-18.25z" />
      <path
        d="m177 18.5h-4.75v-7.25h4.75c0-3 .25-6.25 2.5-8.5 2.5-2.5 5.5-2.75 10-2.75 1.75 0 3.5.25 5.25.25v8c-1 0-1.75-.5-2.75-.5-2.75 0-3.75.75-3.5 3.5h6v7h-5.75v23h-11.5" />
      <path
        d="m177 18.5h-4.75v-7.25h4.75c0-3 .25-6.25 2.5-8.5 2.5-2.5 5.5-2.75 10-2.75 1.75 0 3.5.25 5.25.25v8c-1 0-1.75-.5-2.75-.5-2.75 0-3.75.75-3.5 3.5h6v7h-5.75v23h-11.5v-22.75z" />
      <path
        d="m229.25 41.5h-11v-3.75c-2.25 3-5.25 4.5-9.75 4.5-5.5 0-10.25-3.25-10.25-10.25v-20.75h11.5v15.75c0 3.5.5 6 3.75 6 2 0 4.5-1 4.5-5.75v-16h11.5" />
      <path
        d="m229.25 41.5h-11v-3.75c-2.25 3-5.25 4.5-9.75 4.5-5.5 0-10.25-3.25-10.25-10.25v-20.75h11.5v15.75c0 3.5.5 6 3.75 6 2 0 4.5-1 4.5-5.75v-16h11.5v30.25z" />
      <path
        d="m235.5 11.25h11v4.75c1.75-3.5 4.25-5.5 8.5-5.5 1.25 0 2.25.25 3.5.5v10.25c-1.25-.5-2.25-.75-4.5-.75-4.5 0-7 2.75-7 9.25v12h-11.5" />
      <path
        d="m235.5 11.25h11v4.75c1.75-3.5 4.25-5.5 8.5-5.5 1.25 0 2.25.25 3.5.5v10.25c-1.25-.5-2.25-.75-4.5-.75-4.5 0-7 2.75-7 9.25v12h-11.5z" />
      <path
        d="m261.5 11.25h11v4.75c1.75-3.5 4.25-5.5 8.5-5.5 1.25 0 2.25.25 3.25.5v10.25c-1.25-.5-2.25-.75-4.5-.75-4.5 0-7 2.75-7 9.25v12h-11.5" />
      <path
        d="m261.5 11.25h11v4.75c1.75-3.5 4.25-5.5 8.5-5.5 1.25 0 2.25.25 3.25.5v10.25c-1.25-.5-2.25-.75-4.5-.75-4.5 0-7 2.75-7 9.25v12h-11.5v-30.5z" />
      <path
        d="m296 29c.25 3.5 2.25 6 6 6 1.75 0 4-.75 4.75-2.25h10.75c-2.25 6.5-8.75 9.5-15.5 9.5-9.75 0-17-5.75-17-15.75 0-8.75 6.5-16 16-16 12 0 17.25 6.75 17.25 18.5m-11.25-6c0-2.75-2-5-5-5-3.5 0-5.5 1.75-6 5z" />
      <path
        d="m296 29c.25 3.5 2.25 6 6 6 1.75 0 4-.75 4.75-2.25h10.75c-2.25 6.5-8.75 9.5-15.5 9.5-9.75 0-17-5.75-17-15.75 0-8.75 6.5-16 16-16 12 0 17.25 6.75 17.25 18.5zm11-6c0-2.75-2-5-5-5-3.5 0-5.5 1.75-6 5z" />
      <path
        d="m323 11.25h11v4.75c1.75-3.5 4.25-5.5 8.5-5.5 1.25 0 2.25.25 3.5.5v10.25c-1.25-.5-2.25-.75-4.5-.75-4.5 0-7 2.75-7 9.25v12h-11.5" />
      <path
        d="m323 11.25h11v4.75c1.75-3.5 4.25-5.5 8.5-5.5 1.25 0 2.25.25 3.5.5v10.25c-1.25-.5-2.25-.75-4.5-.75-4.5 0-7 2.75-7 9.25v12h-11.5z" />
    </g>
  </g>
</svg>